<?xml version="1.0" encoding="UTF-8"?>
<svg version="1.1" xmlns="http://www.w3.org/2000/svg" width="360" height="388">
<path d="M0 0 C2.95624372 1.21727683 3.79665466 2.47421388 6 5 C7.44152014 9.1643915 7.22999063 12.09533549 5.6875 16.125 C2.73438585 22.13376698 -1.58306664 27.25464487 -5.76025391 32.44287109 C-8.11789156 35.40407884 -10.36015814 38.45578866 -12.625 41.48828125 C-13.07875 41.98714844 -13.5325 42.48601563 -14 43 C-14.66 43 -15.32 43 -16 43 C-16.39505737 43.87833496 -16.39505737 43.87833496 -16.7980957 44.77441406 C-18.05322783 47.09856286 -19.40685954 48.70607738 -21.23046875 50.609375 C-21.86919922 51.28226563 -22.50792969 51.95515625 -23.16601562 52.6484375 C-24.16665039 53.68871094 -24.16665039 53.68871094 -25.1875 54.75 C-26.49485178 56.11849162 -27.80084525 57.48828217 -29.10546875 58.859375 C-29.74919434 59.53419922 -30.39291992 60.20902344 -31.05615234 60.90429688 C-33.65077762 63.70161707 -36.10772829 66.60777902 -38.5480957 69.54003906 C-39.02722412 70.02182617 -39.50635254 70.50361328 -40 71 C-40.66 71 -41.32 71 -42 71 C-42.25265625 71.57363281 -42.5053125 72.14726563 -42.765625 72.73828125 C-44.15053177 75.27581613 -45.77154756 77.08251862 -47.75 79.1875 C-55.33696884 87.56464077 -55.33696884 87.56464077 -59 98 C-42.77497605 97.63124946 -24.7776307 79.43532017 -12.51904297 69.92944336 C-6.51533228 65.31083423 -0.30497613 61.04637177 5.97290039 56.81152344 C11.8811265 52.81024908 17.61120133 48.62014604 23.29541016 44.30834961 C31.07321517 38.41013204 39.04011501 32.78874944 47.01953125 27.16796875 C47.71191895 26.68013916 48.40430664 26.19230957 49.11767578 25.68969727 C50.5389188 24.68844832 51.96046828 23.68763423 53.38232422 22.68725586 C57.20699002 19.99097451 61.01420592 17.2730032 64.80078125 14.5234375 C65.59645508 13.9456958 66.39212891 13.3679541 67.21191406 12.77270508 C68.72997302 11.66821786 70.24637233 10.56144427 71.76074219 9.4519043 C86.01002095 -0.91971804 86.01002095 -0.91971804 93.7265625 -0.48046875 C97.45787511 0.30810763 98.93447307 1.86839466 101 5 C102.73574997 10.30935286 101.78250042 13.66446043 99.40234375 18.46484375 C96.86158037 23.05803437 94.12549823 27.51248531 91.30908203 31.94140625 C89.85500312 34.22801449 88.41004286 36.52026982 86.96484375 38.8125 C80.70301311 48.71931804 74.35238295 58.56666054 67.9375 68.375 C67.24221191 69.43847656 66.54692383 70.50195312 65.83056641 71.59765625 C62.21609643 77.11717026 58.58782249 82.62697338 54.93650818 88.12219238 C53.05915842 90.94917392 51.18681536 93.77945616 49.31472778 96.60992432 C48.41446214 97.96799307 47.51178943 99.32447006 46.60641479 100.67913818 C41.94039987 107.66145671 37.47804845 114.68278869 33.50390625 122.0859375 C33.177285 122.69253708 32.85066376 123.29913666 32.5141449 123.92411804 C28.45019914 131.68346861 26.36382155 139.25254634 27 148 C27.33 148.66 27.66 149.32 28 150 C36.31826963 148.49426466 41.77252844 140.03814178 46.71484375 133.82421875 C48.89591147 131.12864274 51.16091441 128.55875624 53.5 126 C58.82063029 120.15664112 64.08065991 114.14853591 68.6328125 107.6796875 C69.08398438 107.12539062 69.53515625 106.57109375 70 106 C70.66 106 71.32 106 72 106 C72.23332031 105.44828125 72.46664063 104.8965625 72.70703125 104.328125 C74.34019284 101.38744733 76.39339207 99.20922749 78.6875 96.75 C81.78657964 93.41012856 84.82248151 90.05325471 87.75 86.5625 C91.53239103 82.2587046 94.74039198 79.35678021 100.5625 78.4375 C104 79 104 79 106.9375 80.875 C109.84928304 85.28679248 109.55861738 88.83267616 109 94 C108.04430835 97.81838772 106.64093193 101.40834727 105.1875 105.0625 C104.5368457 106.75765747 104.5368457 106.75765747 103.87304688 108.48706055 C102.85948369 111.12623978 101.83443066 113.76062709 100.80224609 116.39257812 C98.76025231 121.60272077 96.75023326 126.82507486 94.73828125 132.046875 C88.20103145 148.99292449 81.6033403 165.91537318 74.98046875 182.828125 C74.37236862 184.38112556 74.37236862 184.38112556 73.75198364 185.96549988 C71.82460721 190.88652454 69.89541633 195.80682525 67.96289062 200.72583008 C64.33281245 209.97418025 60.75954698 219.23907726 57.28930664 228.54858398 C46.12990776 258.42179398 32.18542634 291.85952508 2 307 C1.40711182 307.2678833 0.81422363 307.5357666 0.20336914 307.81176758 C-5.10631792 310.28781749 -9.22054964 313.40610579 -13.5625 317.3125 C-14.18318359 317.85583984 -14.80386719 318.39917969 -15.44335938 318.95898438 C-21.08902328 323.94530067 -26.56841487 329.126364 -31.375 334.9375 C-39.74683918 344.58006477 -48.99108821 352.32676427 -62 354 C-67.52408144 354.18640211 -73.03721851 354.10190441 -78.5625 354 C-90.94669999 353.57649548 -90.94669999 353.57649548 -103 356 C-104.05445313 356.34160156 -105.10890625 356.68320312 -106.1953125 357.03515625 C-108.15388883 357.72196368 -110.11222106 358.40946761 -112.0703125 359.09765625 C-124.4326009 362.90524108 -137.63476992 360.979169 -149 355 C-155.44523943 350.92263187 -161.49697447 346.30825105 -167.25 341.3125 C-172.65141262 337.0115621 -179.12683988 335.05739279 -185.53125 332.6953125 C-193.23056949 329.83584537 -200.8289719 326.52844349 -207 321 C-207 320.34 -207 319.68 -207 319 C-207.66 319 -208.32 319 -209 319 C-215.55118997 310.65772115 -219.13701563 301.61541465 -221.08740234 291.28637695 C-222.94522633 281.8356593 -226.70977947 274.25621011 -231.671875 266.0144043 C-237.79281899 255.64291182 -240.72084696 244.89045458 -238 233 C-235.41562648 224.11621603 -230.66495418 215.97746662 -226.31640625 207.85546875 C-225.01010934 205.02192858 -224.39123958 202.69985655 -223.9375 199.625 C-223.77765625 198.58601562 -223.6178125 197.54703125 -223.453125 196.4765625 C-223.132659 194.01781472 -222.85561126 191.55322484 -222.609375 189.0859375 C-221.31085889 176.14431944 -217.9730714 164.035063 -207.875 155.125 C-205.56170304 152.50326345 -205.40066703 150.94652424 -205.0625 147.5 C-203.19182577 134.22788883 -196.18091966 121.70554364 -187 112 C-186.34 112 -185.68 112 -185 112 C-185 111.34 -185 110.68 -185 110 C-184.34 110 -183.68 110 -183 110 C-183 109.34 -183 108.68 -183 108 C-182.34 108 -181.68 108 -181 108 C-181 107.34 -181 106.68 -181 106 C-178.77000096 104.11142151 -176.53537935 102.35767135 -174.1875 100.625 C-173.47045898 100.09261719 -172.75341797 99.56023437 -172.01464844 99.01171875 C-163.63368402 92.8784258 -154.86517901 87.39937563 -146 82 C-145.23268555 81.53158691 -144.46537109 81.06317383 -143.67480469 80.58056641 C-133.80114004 74.56987381 -123.83082566 68.72515217 -113.85064697 62.89382935 C-112.93457672 62.35857132 -112.93457672 62.35857132 -112 61.8125 C-111.07982086 61.27494583 -111.07982086 61.27494583 -110.14105225 60.72653198 C-98.03710842 53.65110117 -86.05181378 46.3895967 -74.08166504 39.09088135 C-65.04507122 33.58512707 -55.95863276 28.16204797 -46.87939453 22.72705078 C-44.1026041 21.06154158 -41.32985334 19.3895363 -38.55859375 17.71484375 C-34.47595464 15.24815339 -30.38360309 12.79852714 -26.28271484 10.36230469 C-24.75841395 9.45261495 -23.23789245 8.53656284 -21.72119141 7.61425781 C-19.57353849 6.30960446 -17.41382905 5.02759215 -15.25 3.75 C-14.32078735 3.17499756 -14.32078735 3.17499756 -13.37280273 2.58837891 C-8.61087108 -0.17510911 -5.34968203 -0.51663596 0 0 Z " fill="#2E2F2F" transform="translate(241,17)"/>
<path d="M0 0 C10.25484624 2.56259506 20.68704919 3.54247801 31.18823242 4.54321289 C43.38237422 5.75821113 54.79574584 7.50590245 63.26782227 17.0637207 C65.96315852 20.36312999 68.53715507 23.74702543 71.06860352 27.1730957 C73.09043822 29.97275054 73.09043822 29.97275054 75.06079102 31.8293457 C76.26782227 33.0637207 76.26782227 33.0637207 76.26782227 35.0637207 C76.84290527 35.34513916 77.41798828 35.62655762 78.01049805 35.91650391 C81.82355669 37.85437569 85.47146467 40.05967526 89.14282227 42.2512207 C89.93301758 42.70819336 90.72321289 43.16516602 91.53735352 43.63598633 C99.93683875 48.67427988 105.13602167 54.73390637 108.26782227 64.0637207 C108.78396306 66.4275588 109.06205131 68.64591197 109.26782227 71.0637207 C108.63875977 71.01731445 108.00969727 70.9709082 107.36157227 70.9230957 C101.14881746 70.66111207 96.22772496 71.05968791 91.26782227 75.0637207 C84.56171651 83.02630814 83.1750504 90.75289769 83.95092773 101.01928711 C85.08907867 108.36202667 89.35294177 115.76609263 94.76782227 120.7512207 C99.51877305 124.22388877 104.49770901 125.99044025 110.26782227 127.0637207 C110.04088854 159.24381264 110.04088854 159.24381264 99.59985352 171.77856445 C98.26782227 173.0637207 98.26782227 173.0637207 96.26782227 174.0637207 C96.42508789 173.53520508 96.58235352 173.00668945 96.74438477 172.4621582 C97.93458038 167.00857533 98.67831909 160.11603584 96.29125977 154.95043945 C93.56886342 151.58502311 90.42816802 149.57450013 86.25219727 148.5871582 C74.59039813 147.8124233 62.94856708 155.74807171 54.45141602 163.0559082 C53.73083008 163.71848633 53.01024414 164.38106445 52.26782227 165.0637207 C51.51629883 165.74692383 50.76477539 166.43012695 49.99047852 167.1340332 C43.92358376 172.90471429 41.15187114 177.08113331 40.76782227 185.6262207 C40.87133501 189.9589685 40.92876678 191.57935573 43.45532227 195.1887207 C44.84750977 196.1168457 44.84750977 196.1168457 46.26782227 197.0637207 C46.98969727 197.6618457 47.71157227 198.2599707 48.45532227 198.8762207 C54.59315942 201.46775195 60.51076676 200.60748387 66.58032227 198.1887207 C68.14695014 197.48956446 69.70955181 196.7813108 71.26782227 196.0637207 C72.93126068 195.38903939 74.59710815 194.72017829 76.26782227 194.0637207 C69.00097475 201.54429902 62.39489484 207.64242724 51.48046875 208.28759766 C47.86456421 208.28794741 44.25319809 208.16273535 40.64031982 208.02270508 C28.88671697 207.59538039 18.56592446 207.60794125 7.46166992 211.90844727 C-1.68076148 215.40077543 -11.82675536 215.79445087 -21.16967773 212.5637207 C-25.68784029 210.40020124 -29.4147944 207.35691842 -33.23608398 204.1496582 C-42.2669096 196.60277107 -51.62875356 191.6030424 -62.85717773 188.1262207 C-71.72355574 185.24722862 -79.82286706 180.18862987 -84.73217773 172.0637207 C-87.56796948 164.86635795 -89.42919529 157.47953339 -91.10717773 149.9387207 C-92.82619913 142.75008576 -96.2789628 136.54513951 -99.73217773 130.0637207 C-100.67664606 128.23396745 -101.61498937 126.40102768 -102.54467773 124.5637207 C-102.92237305 123.8315332 -103.30006836 123.0993457 -103.68920898 122.3449707 C-106.92048879 115.27730252 -107.76183515 108.76839859 -106.73217773 101.0637207 C-104.72577733 95.93046253 -101.82436094 91.57350337 -98.60717773 87.1262207 C-93.78358966 79.24769351 -92.47530003 71.05120895 -91.73217773 62.0012207 C-90.80351399 50.89226078 -88.7198432 41.32934151 -80.73217773 33.0637207 C-77.33444885 30.71741997 -73.73911695 28.89676807 -70.04467773 27.0637207 C-68.0626294 26.03147472 -66.08341898 24.99376006 -64.10717773 23.95043945 C-63.1700293 23.45592285 -62.23288086 22.96140625 -61.26733398 22.4519043 C-55.37095275 19.22320402 -50.20867369 15.16965949 -45.09545898 10.8215332 C-29.57441678 -2.33039129 -19.26293122 -5.07052155 0 0 Z " fill="#CA3F2F" transform="translate(122.732177734375,148.936279296875)"/>
<path d="M0 0 C0.99 0.495 0.99 0.495 2 1 C-17.41086152 23.63556916 -17.41086152 23.63556916 -26.18359375 32.1015625 C-46.3750095 51.35806776 -46.3750095 51.35806776 -55.5625 76.375 C-55.47352523 80.77628524 -54.56589022 83.41147238 -52 87 C-47.52990178 90.32391919 -42.87523904 90.75946336 -37.44921875 90.5859375 C-18.36354615 87.34375076 -0.16026013 70.01420358 14.63305664 58.609375 C20.09805155 54.40576913 25.61275444 50.44885085 31.40234375 46.703125 C35.00117449 44.34359086 38.44724256 41.79405741 41.9140625 39.24609375 C45.60254223 36.56144078 49.33037914 33.93596517 53.0625 31.3125 C59.07292322 27.08406155 65.04946092 22.81228432 71 18.5 C79.61385586 12.25785662 88.2956275 6.11509714 97 0 C97 4.0917474 94.94160676 6.38378163 92.6875 9.625 C91.75804498 10.9901578 90.82969821 12.35607067 89.90234375 13.72265625 C89.42007324 14.4305127 88.93780273 15.13836914 88.44091797 15.86767578 C86.16457033 19.23630002 83.95420692 22.64638595 81.75 26.0625 C81.30172852 26.75601563 80.85345703 27.44953125 80.39160156 28.1640625 C76.5427588 34.13150973 72.74125738 40.12875994 68.9375 46.125 C64.91776615 52.46052695 60.86770208 58.76903899 56.6875 65 C56.28926025 65.59514404 55.89102051 66.19028809 55.48071289 66.8034668 C52.36275393 71.46201876 52.36275393 71.46201876 50.83349609 73.72998047 C39.77549129 90.1895913 28.51443829 108.54699861 30 129 C31.08257051 133.92728782 32.95880991 137.84282024 37 141 C42.61123242 142.87041081 49.05765425 143.30620264 54.54296875 140.87109375 C56.82505868 139.36672122 58.90858522 137.75841282 61 136 C61.88751953 135.33291016 61.88751953 135.33291016 62.79296875 134.65234375 C67.50852334 130.95111898 71.08851681 126.39412251 74.8125 121.7265625 C76.65685448 119.42770638 78.54262303 117.20204909 80.5 115 C83.1729378 111.98374908 85.72144986 108.88827145 88.25 105.75 C94.12012038 98.52833987 100.3501904 91.51769418 107 85 C105.31106308 90.34830024 103.41248892 95.5549529 101.31640625 100.7578125 C100.7786406 102.09545688 100.2408804 103.43310345 99.703125 104.77075195 C99.28389771 105.81146347 99.28389771 105.81146347 98.85620117 106.87319946 C97.43242578 110.40985226 96.01534005 113.94918325 94.59765625 117.48828125 C94.31067368 118.20441086 94.0236911 118.92054047 93.72801208 119.65837097 C87.65147196 134.8226537 81.59044188 149.98978727 75.7578125 165.25 C73.67112145 170.70540144 71.54562237 176.14143718 69.36010742 181.55786133 C65.03349779 192.28377859 60.90838022 203.07985039 56.85693359 213.91210938 C49.09163391 234.57057683 39.52216799 254.95566467 21 268 C19.00703748 264.01407497 20.38861406 258.83663132 20.75 254.5 C20.82476562 253.448125 20.89953125 252.39625 20.9765625 251.3125 C21.67367911 242.77810269 23.32074427 235.22465265 27.1875 227.5625 C34.96718659 207.56196714 24.21396005 178.737666 16 160 C9.57656707 149.78750751 0.24056971 143.94438962 -9.984375 137.9921875 C-14.76848301 134.83170164 -18.11863908 131.00429401 -21.48535156 126.39453125 C-32.12591164 111.83831422 -43.19934295 105.21933564 -60.9375 102.3125 C-69.16532864 101.06341565 -77.42838399 100.45444429 -85.72338867 99.84350586 C-91.34596473 99.3822512 -96.35904526 98.53062726 -101.75 96.875 C-111.8941628 93.86008681 -125.59661922 92.52767667 -135.41796875 97.34375 C-144.7517103 103.3309004 -153.3316271 110.41444614 -161.9453125 117.375 C-169.05769231 123 -169.05769231 123 -172 123 C-169.87841465 114.51365859 -165.56319265 108.66864128 -160 102 C-159.37738281 101.24976563 -158.75476563 100.49953125 -158.11328125 99.7265625 C-145.96034681 86.46433384 -128.66822295 77.32482932 -113.28515625 68.33886719 C-109.90288697 66.35720429 -106.54530045 64.33524466 -103.1875 62.3125 C-101.96630175 61.57916738 -100.74494999 60.84609032 -99.5234375 60.11328125 C-98.93401367 59.75959473 -98.34458984 59.4059082 -97.73730469 59.04150391 C-96.06784693 58.04067383 -94.39722886 57.04178002 -92.7265625 56.04296875 C-86.61314465 52.3847107 -80.51215243 48.70702543 -74.42578125 45.00390625 C-62.3157236 37.63622491 -50.2029813 30.28145314 -37.95654297 23.14160156 C-28.84246638 17.82373007 -19.75005648 12.46770742 -10.6875 7.0625 C-9.76300049 6.51420532 -9.76300049 6.51420532 -8.81982422 5.95483398 C-5.74911531 4.11713281 -2.81230215 2.21512194 0 0 Z " fill="#F07401" transform="translate(223,39)"/>
<path d="M0 0 C0.125 2.375 0.125 2.375 0 5 C-0.66 5.66 -1.32 6.32 -2 7 C-2.99 7 -3.98 7 -5 7 C-5.20625 7.556875 -5.4125 8.11375 -5.625 8.6875 C-7 11 -7 11 -10.0625 13.375 C-13.42471811 16.37953533 -13.60513201 17.65645215 -14 22 C-14.99 22.495 -14.99 22.495 -16 23 C-14.87722656 22.95359375 -13.75445312 22.9071875 -12.59765625 22.859375 C-1.74207651 22.54048552 5.47929985 23.26731763 14.25 30.125 C20.35753415 35.93937251 23.16255719 41.80543065 23.53881836 50.21142578 C23.66885785 62.43513751 20.57493728 72.02091608 12 81 C3.3102688 89.08218644 -6.38597812 92.94245115 -18.26171875 92.56640625 C-25.42042804 91.48175333 -31.06647536 87.95568309 -37 84 C-37.66 85.32 -38.32 86.64 -39 88 C-39.66 88 -40.32 88 -41 88 C-45.56187032 101.54984101 -45.33159049 113.9657742 -39 127 C-35.92364009 132.36429903 -32.37826269 137.62173731 -28 142 C-27.85304687 141.14277344 -27.70609375 140.28554688 -27.5546875 139.40234375 C-26.14946172 132.23892266 -24.88974948 126.64759852 -19 122 C-13.02237527 118.29387267 -6.90361733 118.1275183 0 119 C10.53359547 121.75657935 19.07568118 128.11307681 25 137.25 C25.68737539 138.48873303 26.35748493 139.73741581 27 141 C27.433125 141.78375 27.86625 142.5675 28.3125 143.375 C30.39210045 151.31529261 29.0397724 157.97551604 25 165 C22.42623768 168.90215578 20.48446185 170.62974777 16 172 C16 172.66 16 173.32 16 174 C17.31097656 174.41958984 17.31097656 174.41958984 18.6484375 174.84765625 C21.72823655 175.90656152 24.64835637 177.12138071 27.625 178.4375 C44.61288396 185.58252812 60.90294997 185.63457226 79 184 C79 180.7 79 177.4 79 174 C79.33 174 79.66 174 80 174 C80.01417969 174.73605469 80.02835938 175.47210938 80.04296875 176.23046875 C80.29714816 182.55418691 80.29714816 182.55418691 83.25 188 C84.1575 188.66 85.065 189.32 86 190 C86.721875 190.598125 87.44375 191.19625 88.1875 191.8125 C94.32533716 194.40403124 100.24294449 193.54376316 106.3125 191.125 C107.87912788 190.42584376 109.44172954 189.71759009 111 189 C112.66343841 188.32531869 114.32928588 187.65645758 116 187 C108.73315249 194.48057832 102.12707258 200.57870653 91.21264648 201.22387695 C87.59674195 201.22422671 83.98537583 201.09901465 80.37249756 200.95898438 C68.6188947 200.53165969 58.29810219 200.54422055 47.19384766 204.84472656 C38.05141626 208.33705473 27.90542237 208.73073017 18.5625 205.5 C14.04433744 203.33648054 10.31738333 200.29319771 6.49609375 197.0859375 C-2.53473186 189.53905037 -11.89657583 184.5393217 -23.125 181.0625 C-31.99137801 178.18350792 -40.09068933 173.12490916 -45 165 C-47.83579175 157.80263725 -49.69701755 150.41581269 -51.375 142.875 C-53.0940214 135.68636506 -56.54678506 129.4814188 -60 123 C-60.94446832 121.17024675 -61.88281164 119.33730697 -62.8125 117.5 C-63.19019531 116.7678125 -63.56789063 116.035625 -63.95703125 115.28125 C-67.18831105 108.21358181 -68.02965741 101.70467788 -67 94 C-64.9935996 88.86674183 -62.09218321 84.50978267 -58.875 80.0625 C-54.05141192 72.18397281 -52.7431223 63.98748825 -52 54.9375 C-51.07133625 43.82854008 -48.98766547 34.2656208 -41 26 C-37.6022968 23.653717 -34.0070479 21.83278491 -30.3125 20 C-23.82053164 16.62338897 -5.8059808 0 0 0 Z " fill="#A63225" transform="translate(83,156)"/>
<path d="M0 0 C8.59326297 6.35407093 15.54615754 14.02013942 18.55859375 24.45703125 C19.83315585 34.37401885 18.53790048 42.57416193 12.93359375 50.859375 C7.37258937 57.8222159 -0.59359009 62.81133744 -9.44140625 64.45703125 C-19.97104542 65.51345886 -29.28681093 63.19682633 -37.75390625 56.76953125 C-46.54599819 49.12055239 -52.44672096 40.77109888 -53.85546875 28.99609375 C-54.26613118 19.03212645 -51.94936698 11.9853464 -45.19140625 4.64453125 C-32.47926679 -7.07274512 -14.74776001 -9.32058433 0 0 Z " fill="#2E2F30" transform="translate(175.44140625,221.54296875)"/>
<path d="M0 0 C7.01844507 3.89611941 12.75614751 8.96915803 16.08984375 16.37109375 C18.8944629 26.51683582 17.98911541 38.18365584 12.9375 47.4375 C6.85624548 57.12132049 -2.03974874 64.16382575 -13.0625 67.4375 C-23.29065931 68.90655528 -31.59054351 67.45067814 -40.0625 61.4375 C-46.50798112 55.64690733 -50.60405242 48.88647694 -51.3359375 40.1875 C-51.64919257 28.62115901 -49.45219141 20.07720822 -41.875 11.0625 C-37.48687699 6.50588479 -32.73160626 3.21573751 -27.0625 0.4375 C-25.93328125 -0.12324219 -25.93328125 -0.12324219 -24.78125 -0.6953125 C-17.57654083 -2.99336629 -7.06332351 -2.88223184 0 0 Z " fill="#2E2F2F" transform="translate(89.0625,180.5625)"/>
<path d="M0 0 C0.99 0.495 0.99 0.495 2 1 C1.47792969 1.89976563 0.95585937 2.79953125 0.41796875 3.7265625 C-20.65812026 37.70370949 -20.65812026 37.70370949 -24.38671875 76.02734375 C-22.17360798 82.35469568 -18.49638704 86.27313325 -13 90 C-12.36578125 90.43441406 -11.7315625 90.86882812 -11.078125 91.31640625 C-1.65966045 96.55497083 11.05944219 94.79543246 21 92 C5.93508486 136.16642358 5.93508486 136.16642358 -1.9375 151.125 C-2.29054199 151.79877686 -2.64358398 152.47255371 -3.00732422 153.16674805 C-4.89349438 156.57115426 -6.6611346 158.95335767 -10 161 C-9.84789062 160.33613281 -9.69578125 159.67226563 -9.5390625 158.98828125 C-7.11189242 145.53331667 -9.50944885 133.43587146 -13.25 120.5 C-13.44809265 119.81481293 -13.6461853 119.12962585 -13.85028076 118.42367554 C-20.42150312 95.9488579 -27.40312613 83.97305943 -47.984375 71.9921875 C-53.34415361 68.45140111 -56.94081526 63.88225693 -60.6875 58.75 C-66.60340817 50.87033276 -72.9539795 44.20927543 -82 40 C-82 39.67 -82 39.34 -82 39 C-80.60201172 38.96132812 -80.60201172 38.96132812 -79.17578125 38.921875 C-55.04274399 37.84821106 -37.55915363 24.73699401 -18.125 11.75 C-16.32059889 10.54603588 -14.51586684 9.34257601 -12.71044922 8.14013672 C-11.03598288 7.02398516 -9.3636698 5.90460541 -7.69140625 4.78515625 C-6.20447266 3.80869141 -6.20447266 3.80869141 -4.6875 2.8125 C-3.39392578 1.95591797 -3.39392578 1.95591797 -2.07421875 1.08203125 C-1.38972656 0.72496094 -0.70523438 0.36789063 0 0 Z " fill="#FDC94B" transform="translate(261,105)"/>
<path d="M0 0 C2.95624372 1.21727683 3.79665466 2.47421388 6 5 C7.44152014 9.1643915 7.22999063 12.09533549 5.6875 16.125 C2.73438585 22.13376698 -1.58306664 27.25464487 -5.76025391 32.44287109 C-8.11789156 35.40407884 -10.36015814 38.45578866 -12.625 41.48828125 C-13.07875 41.98714844 -13.5325 42.48601563 -14 43 C-14.66 43 -15.32 43 -16 43 C-16.39505737 43.87833496 -16.39505737 43.87833496 -16.7980957 44.77441406 C-18.05322783 47.09856286 -19.40685954 48.70607738 -21.23046875 50.609375 C-21.86919922 51.28226563 -22.50792969 51.95515625 -23.16601562 52.6484375 C-24.16665039 53.68871094 -24.16665039 53.68871094 -25.1875 54.75 C-26.49485178 56.11849162 -27.80084525 57.48828217 -29.10546875 58.859375 C-29.74919434 59.53419922 -30.39291992 60.20902344 -31.05615234 60.90429688 C-33.65077762 63.70161707 -36.10772829 66.60777902 -38.5480957 69.54003906 C-39.02722412 70.02182617 -39.50635254 70.50361328 -40 71 C-40.66 71 -41.32 71 -42 71 C-42.25265625 71.57363281 -42.5053125 72.14726563 -42.765625 72.73828125 C-44.15053177 75.27581613 -45.77154756 77.08251862 -47.75 79.1875 C-55.33696884 87.56464077 -55.33696884 87.56464077 -59 98 C-42.77497605 97.63124946 -24.7776307 79.43532017 -12.51904297 69.92944336 C-6.51533228 65.31083423 -0.30497613 61.04637177 5.97290039 56.81152344 C11.8811265 52.81024908 17.61120133 48.62014604 23.29541016 44.30834961 C31.07321517 38.41013204 39.04011501 32.78874944 47.01953125 27.16796875 C47.71191895 26.68013916 48.40430664 26.19230957 49.11767578 25.68969727 C50.5389188 24.68844832 51.96046828 23.68763423 53.38232422 22.68725586 C57.20699002 19.99097451 61.01420592 17.2730032 64.80078125 14.5234375 C65.59645508 13.9456958 66.39212891 13.3679541 67.21191406 12.77270508 C68.72997302 11.66821786 70.24637233 10.56144427 71.76074219 9.4519043 C84.74644633 0 84.74644633 0 88 0 C88 0.66 88 1.32 88 2 C86.2265625 3.26953125 86.2265625 3.26953125 83.625 4.8125 C78.39914487 8.04436688 73.40600589 11.51085931 68.4375 15.125 C67.67228027 15.6813916 66.90706055 16.2377832 66.11865234 16.81103516 C64.53863718 17.96159519 62.95921615 19.11297154 61.38037109 20.26513672 C57.51211318 23.08440243 53.63102663 25.88585146 49.75 28.6875 C48.6216272 29.50275146 48.6216272 29.50275146 47.47045898 30.33447266 C42.43138422 33.97334595 37.3796948 37.59398268 32.31616211 41.19873047 C29.13302551 43.4674024 25.96150591 45.75096551 22.80078125 48.05078125 C15.09064708 53.65630074 7.33633726 59.16292602 -0.5625 64.5 C-8.3564184 69.7729206 -15.83466448 75.37880836 -23.27734375 81.1328125 C-30.16448037 86.45445595 -37.29680099 91.28492991 -44.6875 95.875 C-45.3057666 96.26913086 -45.9240332 96.66326172 -46.56103516 97.06933594 C-50.66309815 99.56414505 -54.09264619 100.82198233 -59 101 C-59.99 100.34 -60.98 99.68 -62 99 C-59.86212932 84.55005483 -44.23098184 71.0005824 -34.23046875 61.22265625 C-31.6230922 58.62441236 -29.21785075 55.90278791 -26.828125 53.10546875 C-24.6897913 50.64272972 -22.46915401 48.26512657 -20.25 45.875 C-14.92842119 40.03503299 -10.02359887 33.92096597 -5.24560547 27.63085938 C-4.10861349 26.14220661 -2.94806043 24.67162481 -1.78515625 23.203125 C2.05615222 18.14422387 4.76440137 13.55775909 4 7 C2.38069583 3.96868328 2.38069583 3.96868328 0.2578125 3.27734375 C-7.39678363 2.05765536 -12.56992349 5.19232023 -19 9 C-19.68932617 9.40412109 -20.37865234 9.80824219 -21.08886719 10.22460938 C-26.136055 13.19457561 -31.14442649 16.22643286 -36.14746094 19.27001953 C-40.14055754 21.69171437 -44.14854368 24.08826119 -48.15600586 26.48608398 C-57.50167286 32.07873814 -66.82551222 37.70589659 -76.125 43.375 C-89.41497694 51.47499351 -102.75315741 59.45746873 -116.23046875 67.2421875 C-168.05966959 94.40426043 -168.05966959 94.40426043 -201 140 C-201.63489124 143.70538867 -202.03717932 147.3839148 -202.4296875 151.12109375 C-203 154 -203 154 -205.6875 156.6875 C-206.47640625 157.18636719 -206.47640625 157.18636719 -207.28125 157.6953125 C-214.66782062 163.30239111 -217.6288758 173.25659931 -219 182 C-219.34784413 185.01744308 -219.64170445 188.03957565 -219.9375 191.0625 C-221.05637683 202.23283156 -224.73239576 210.96972323 -230.18212891 220.69995117 C-236.20668686 231.51947657 -236.71421376 243.95723477 -234.41796875 256.0703125 C-233.48607894 258.58088322 -232.38404133 260.70424891 -231 263 C-230.66194336 263.56380371 -230.32388672 264.12760742 -229.97558594 264.70849609 C-228.40228175 267.32729933 -226.81921284 269.93988702 -225.22241211 272.54443359 C-221.66830751 278.39363511 -219.57389736 283.64843943 -218.4140625 290.421875 C-216.19820535 303.19563975 -211.70315136 314.98645294 -201 323 C-194.63444771 326.91067562 -187.80652462 329.47895499 -180.8125 332 C-173.49424766 334.64779268 -167.67618486 337.90593047 -161.73046875 342.91015625 C-152.57803879 350.58400302 -142.11779523 356.90362805 -130 358 C-129.12601562 358.10441406 -128.25203125 358.20882813 -127.3515625 358.31640625 C-121.71346186 358.67940725 -117.22437453 357.86180642 -112.01431274 355.85676575 C-101.43532244 351.81094666 -91.84865159 351.18564737 -80.625 351.3125 C-61.35394106 351.89588094 -61.35394106 351.89588094 -44.1875 344.25 C-43.28902344 343.54359375 -42.39054688 342.8371875 -41.46484375 342.109375 C-36.04582483 337.47186277 -31.40514402 332.35806179 -26.74609375 326.97265625 C-21.61149311 321.17182107 -15.92306217 315.98234053 -10 311 C-9.21109375 310.31679688 -8.4221875 309.63359375 -7.609375 308.9296875 C-4.89607621 306.92314618 -2.54594129 305.92788501 0.625 304.8125 C24.3142744 295.26130971 38.28434029 268.31437231 47.85992432 245.99569702 C49.76025908 241.34864841 51.50640542 236.64503454 53.25 231.9375 C53.80980108 230.44689348 54.37061568 228.95666724 54.93237305 227.46679688 C55.7925243 225.1850736 56.65204651 222.9031363 57.50834656 220.6199646 C60.21981002 213.39105688 63.01130836 206.19462957 65.8125 199 C70.97307313 185.71987245 76.03873559 172.40421708 81.09851074 159.0854187 C85.35518944 147.88482152 89.65911701 136.70627867 94.0625 125.5625 C95.32488083 122.35113541 96.58609725 119.13931699 97.84667969 115.92724609 C98.60553675 114.00118848 99.36908474 112.07697135 100.13769531 110.15478516 C101.17006572 107.56737788 102.18131785 104.97268017 103.1875 102.375 C103.47955322 101.65900635 103.77160645 100.9430127 104.07250977 100.20532227 C106.09072537 94.90333708 106.79703245 89.65793822 106 84 C104.08274006 81.66847692 104.08274006 81.66847692 100.75 81.625 C95.11456289 82.18854371 92.6028198 84.15156144 89.01171875 88.29296875 C87.49137542 90.16436827 85.98436559 92.04665055 84.48828125 93.9375 C81.93579657 97.0790196 79.26128673 100.04405337 76.5 103 C72.18905692 107.63151763 68.14931432 112.42131425 64.1796875 117.3515625 C61.31580241 120.83133686 58.28405564 124.14120769 55.24609375 127.46875 C52.92777789 130.08139118 50.74292932 132.77158932 48.5625 135.5 C43.40016973 141.87806359 37.86519857 148.42320095 31 153 C28.22710392 152.826694 27.2661965 152.29889878 25.41015625 150.21484375 C22.88108841 146.24259592 23.28117449 142.54671744 24 138 C28.09076663 125.03887687 34.81423786 113.43078448 42.4375 102.25 C43.67811917 100.40955199 44.91766516 98.56838019 46.15625 96.7265625 C47.10757813 95.31358887 47.10757813 95.31358887 48.078125 93.87207031 C53.16384266 86.27192009 58.11603929 78.58300663 63.10009766 70.91601562 C65.00186282 67.9971409 66.91176935 65.08375864 68.82421875 62.171875 C76.60900789 50.30682383 84.23817235 38.36090502 91.61279297 26.23583984 C92.53397395 24.75112047 93.48101004 23.28212038 94.45361328 21.83056641 C97.76729036 16.84298211 98.75958605 13.48455133 98.5078125 7.43359375 C98.15724401 4.70451758 98.15724401 4.70451758 95.5 2.3125 C94.2625 1.6628125 94.2625 1.6628125 93 1 C97 1 97 1 99.1875 2.5625 C101.65629298 5.8826009 102 7.85266332 102 12 C99.97784955 19.22600616 95.29113569 25.67947634 91.30908203 31.94140625 C89.85500312 34.22801449 88.41004286 36.52026982 86.96484375 38.8125 C80.70301311 48.71931804 74.35238295 58.56666054 67.9375 68.375 C67.24221191 69.43847656 66.54692383 70.50195312 65.83056641 71.59765625 C62.21609643 77.11717026 58.58782249 82.62697338 54.93650818 88.12219238 C53.05915842 90.94917392 51.18681536 93.77945616 49.31472778 96.60992432 C48.41446214 97.96799307 47.51178943 99.32447006 46.60641479 100.67913818 C41.94039987 107.66145671 37.47804845 114.68278869 33.50390625 122.0859375 C33.177285 122.69253708 32.85066376 123.29913666 32.5141449 123.92411804 C28.45019914 131.68346861 26.36382155 139.25254634 27 148 C27.33 148.66 27.66 149.32 28 150 C36.31826963 148.49426466 41.77252844 140.03814178 46.71484375 133.82421875 C48.89591147 131.12864274 51.16091441 128.55875624 53.5 126 C58.82063029 120.15664112 64.08065991 114.14853591 68.6328125 107.6796875 C69.08398438 107.12539062 69.53515625 106.57109375 70 106 C70.66 106 71.32 106 72 106 C72.23332031 105.44828125 72.46664063 104.8965625 72.70703125 104.328125 C74.34019284 101.38744733 76.39339207 99.20922749 78.6875 96.75 C81.78657964 93.41012856 84.82248151 90.05325471 87.75 86.5625 C91.53239103 82.2587046 94.74039198 79.35678021 100.5625 78.4375 C104 79 104 79 106.9375 80.875 C109.84928304 85.28679248 109.55861738 88.83267616 109 94 C108.04430835 97.81838772 106.64093193 101.40834727 105.1875 105.0625 C104.5368457 106.75765747 104.5368457 106.75765747 103.87304688 108.48706055 C102.85948369 111.12623978 101.83443066 113.76062709 100.80224609 116.39257812 C98.76025231 121.60272077 96.75023326 126.82507486 94.73828125 132.046875 C88.20103145 148.99292449 81.6033403 165.91537318 74.98046875 182.828125 C74.37236862 184.38112556 74.37236862 184.38112556 73.75198364 185.96549988 C71.82460721 190.88652454 69.89541633 195.80682525 67.96289062 200.72583008 C64.33281245 209.97418025 60.75954698 219.23907726 57.28930664 228.54858398 C46.12990776 258.42179398 32.18542634 291.85952508 2 307 C1.40711182 307.2678833 0.81422363 307.5357666 0.20336914 307.81176758 C-5.10631792 310.28781749 -9.22054964 313.40610579 -13.5625 317.3125 C-14.18318359 317.85583984 -14.80386719 318.39917969 -15.44335938 318.95898438 C-21.08902328 323.94530067 -26.56841487 329.126364 -31.375 334.9375 C-39.74683918 344.58006477 -48.99108821 352.32676427 -62 354 C-67.52408144 354.18640211 -73.03721851 354.10190441 -78.5625 354 C-90.94669999 353.57649548 -90.94669999 353.57649548 -103 356 C-104.05445313 356.34160156 -105.10890625 356.68320312 -106.1953125 357.03515625 C-108.15388883 357.72196368 -110.11222106 358.40946761 -112.0703125 359.09765625 C-124.4326009 362.90524108 -137.63476992 360.979169 -149 355 C-155.44523943 350.92263187 -161.49697447 346.30825105 -167.25 341.3125 C-172.65141262 337.0115621 -179.12683988 335.05739279 -185.53125 332.6953125 C-193.23056949 329.83584537 -200.8289719 326.52844349 -207 321 C-207 320.34 -207 319.68 -207 319 C-207.66 319 -208.32 319 -209 319 C-215.55118997 310.65772115 -219.13701563 301.61541465 -221.08740234 291.28637695 C-222.94522633 281.8356593 -226.70977947 274.25621011 -231.671875 266.0144043 C-237.79281899 255.64291182 -240.72084696 244.89045458 -238 233 C-235.41562648 224.11621603 -230.66495418 215.97746662 -226.31640625 207.85546875 C-225.01010934 205.02192858 -224.39123958 202.69985655 -223.9375 199.625 C-223.77765625 198.58601562 -223.6178125 197.54703125 -223.453125 196.4765625 C-223.132659 194.01781472 -222.85561126 191.55322484 -222.609375 189.0859375 C-221.31085889 176.14431944 -217.9730714 164.035063 -207.875 155.125 C-205.56170304 152.50326345 -205.40066703 150.94652424 -205.0625 147.5 C-203.19182577 134.22788883 -196.18091966 121.70554364 -187 112 C-186.34 112 -185.68 112 -185 112 C-185 111.34 -185 110.68 -185 110 C-184.34 110 -183.68 110 -183 110 C-183 109.34 -183 108.68 -183 108 C-182.34 108 -181.68 108 -181 108 C-181 107.34 -181 106.68 -181 106 C-178.77000096 104.11142151 -176.53537935 102.35767135 -174.1875 100.625 C-173.47045898 100.09261719 -172.75341797 99.56023437 -172.01464844 99.01171875 C-163.63368402 92.8784258 -154.86517901 87.39937563 -146 82 C-145.23268555 81.53158691 -144.46537109 81.06317383 -143.67480469 80.58056641 C-133.80114004 74.56987381 -123.83082566 68.72515217 -113.85064697 62.89382935 C-112.93457672 62.35857132 -112.93457672 62.35857132 -112 61.8125 C-111.07982086 61.27494583 -111.07982086 61.27494583 -110.14105225 60.72653198 C-98.03710842 53.65110117 -86.05181378 46.3895967 -74.08166504 39.09088135 C-65.04507122 33.58512707 -55.95863276 28.16204797 -46.87939453 22.72705078 C-44.1026041 21.06154158 -41.32985334 19.3895363 -38.55859375 17.71484375 C-34.47595464 15.24815339 -30.38360309 12.79852714 -26.28271484 10.36230469 C-24.75841395 9.45261495 -23.23789245 8.53656284 -21.72119141 7.61425781 C-19.57353849 6.30960446 -17.41382905 5.02759215 -15.25 3.75 C-14.32078735 3.17499756 -14.32078735 3.17499756 -13.37280273 2.58837891 C-8.61087108 -0.17510911 -5.34968203 -0.51663596 0 0 Z " fill="#070707" transform="translate(241,17)"/>
<path d="M0 0 C7.79551635 4.52371394 13.81180236 10.65685781 17.89453125 18.6796875 C18.32765625 19.4634375 18.76078125 20.2471875 19.20703125 21.0546875 C21.29037697 29.00928025 19.91844079 35.63784581 15.89453125 42.6796875 C12.90330434 47.48701646 9.2340815 49.9925691 3.89453125 51.6796875 C-6.24803516 53.36232525 -15.30587599 49.56445913 -23.54296875 43.8046875 C-29.26934409 39.14755237 -33.66861061 33.0199163 -35.10546875 25.6796875 C-35.30740378 22.94941522 -35.44414788 20.28620291 -35.48046875 17.5546875 C-35.49440674 16.87349854 -35.50834473 16.19230957 -35.52270508 15.49047852 C-35.47895018 10.82120529 -34.55293082 7.63949641 -32.10546875 3.6796875 C-22.61181959 -5.4011943 -11.60551767 -5.38447347 0 0 Z " fill="#2F2F2F" transform="translate(92.10546875,278.3203125)"/>
<path d="M0 0 C7.15880664 3.65123081 11.80239213 9.59077015 14.3359375 17.19140625 C14.87819209 21.85835147 14.8057831 25.26911673 12.6484375 29.50390625 C8.75322099 34.03077949 5.51342838 36.80993395 -0.52734375 37.53515625 C-11.52479882 38.03334221 -19.39448541 35.18634205 -28.02734375 28.30859375 C-31.64515615 24.84807754 -34.33818407 21.69991228 -35 16.60546875 C-35.08443708 10.5766609 -34.80306034 6.9216895 -30.6640625 2.19140625 C-30.1896875 1.61390625 -29.7153125 1.03640625 -29.2265625 0.44140625 C-21.32845458 -5.87708009 -8.59824773 -3.61832419 0 0 Z " fill="#2D2F30" transform="translate(161.6640625,161.80859375)"/>
<path d="M0 0 C5.40498624 3.0910869 11.22851075 7.9888053 13.3828125 14.00390625 C14.24136032 19.80460751 14.61853621 25.16594476 12 30.5 C7.70484761 35.25949319 3.56709014 38.5637784 -2.92578125 39.3984375 C-9.42729628 39.492526 -13.88028316 38.67198625 -19.3125 35.0625 C-20.34375 34.4025 -21.375 33.7425 -22.4375 33.0625 C-27.28239321 28.73813251 -30.81088445 21.93807725 -31.640625 15.52734375 C-31.30181001 10.04042316 -29.14925864 5.93943412 -25.3125 2.0625 C-18.07921647 -3.81454287 -8.37705812 -3.72313694 0 0 Z " fill="#FBB11C" transform="translate(166.3125,232.9375)"/>
<path d="M0 0 C3.64522648 2.66723889 6.59113405 5.5586658 8.375 9.8125 C8.436875 10.493125 8.49875 11.17375 8.5625 11.875 C8.7171875 13.421875 8.7171875 13.421875 8.875 15 C8.2303241 22.99398115 5.22238119 29.09158759 -0.703125 34.47265625 C-6.68275021 39.30753339 -12.03729714 40.34362586 -19.60546875 40.29296875 C-24.20721329 39.61381473 -27.33785595 37.26207972 -30.4375 33.875 C-34.08715284 28.46676856 -33.15675662 21.07858839 -32.4375 14.875 C-29.85846123 8.14295027 -24.53013142 3.51239189 -18.4375 -0.125 C-12.55909161 -2.08446946 -5.86148374 -1.91830377 0 0 Z " fill="#FAB11C" transform="translate(84.4375,194.125)"/>
<path d="M0 0 C-0.28875 0.845625 -0.5775 1.69125 -0.875 2.5625 C-1.24625 3.696875 -1.6175 4.83125 -2 6 C-2.37125 7.03125 -2.7425 8.0625 -3.125 9.125 C-5.26089382 18.58395835 -4.45202107 27.31930339 0 36 C0.98578412 37.0140166 1.98266293 38.017643 3 39 C3 39.66 3 40.32 3 41 C-11.80019349 40.31995237 -25.85821061 39.36254353 -40.08984375 35.109375 C-44.70884894 33.73136621 -49.18929952 33.23659183 -54 33 C-45.49123066 25.90935889 -36.1313169 20.13638594 -26.625 14.5 C-25.57828125 13.87480469 -24.5315625 13.24960938 -23.453125 12.60546875 C-20.30662027 10.72921964 -17.15358313 8.86432128 -14 7 C-12.88077148 6.33097656 -11.76154297 5.66195312 -10.60839844 4.97265625 C-8.98853027 4.01166016 -8.98853027 4.01166016 -7.3359375 3.03125 C-6.35931152 2.44923828 -5.38268555 1.86722656 -4.37646484 1.26757812 C-2 0 -2 0 0 0 Z " fill="#FCC94B" transform="translate(154,99)"/>
<path d="M0 0 C6.17486204 3.01997455 12.7375288 9.41826559 15 16 C15.53965658 21.28863451 15.53965658 21.28863451 13.625 23.8125 C9.22842287 27.02538329 4.24337838 26.52730859 -1 26 C-6.90732553 23.15573215 -11.45630322 18.07095632 -14 12 C-14.30078125 9.74609375 -14.30078125 9.74609375 -14.3125 7.4375 C-14.32925781 6.67308594 -14.34601563 5.90867187 -14.36328125 5.12109375 C-14 3 -14 3 -12.8046875 1.2578125 C-9.02509274 -1.37645052 -4.36287347 -0.73410867 0 0 Z " fill="#F39203" transform="translate(84,289)"/>
<path d="M0 0 C4.27441556 0.4838961 6.57640847 2.21114194 9.3125 5.375 C12.97623709 11.35910392 13.05648639 17.4788185 12.3125 24.375 C11.55035777 26.73588888 10.69834103 28.29623846 9.3125 30.375 C6.29966918 30.81590207 4.13089342 30.85671258 1.4609375 29.28515625 C-2.78690971 25.87784051 -5.19871239 22.71712025 -6.6875 17.375 C-7.20679474 12.29176274 -7.40893467 7.94333625 -5.25 3.25 C-2.87609649 0.40131579 -2.87609649 0.40131579 0 0 Z " fill="#C2411E" transform="translate(225.6875,231.625)"/>
<path d="M0 0 C1 3 1 3 0.1796875 4.8671875 C-5.32395867 13.33687053 -12.5600303 20.04967869 -22 24 C-24.140625 24.1953125 -24.140625 24.1953125 -26.25 24.125 C-27.4875 24.08375 -28.725 24.0425 -30 24 C-31.28704974 19.57529055 -31.28704974 19.57529055 -30.05859375 17.11328125 C-22.03378009 8.19897018 -12.20843706 -0.19691028 0 0 Z " fill="#F09103" transform="translate(207,312)"/>
<path d="M0 0 C4.67153741 0.05198849 7.21129922 1.22575647 10.8125 4.3125 C13.0985626 6.67476469 13.75663915 7.71199585 14.0625 11 C13.8125 13.3125 13.8125 13.3125 12.8125 14.3125 C5.99898968 15.02971161 2.16421298 13.52504569 -3.1875 9.3125 C-4.93359375 7.80859375 -4.93359375 7.80859375 -6.1875 6.3125 C-5.70234383 1.2183602 -4.99921374 0.15910395 0 0 Z " fill="#F09B07" transform="translate(148.1875,171.6875)"/>
<path d="M0 0 C2.33028092 0.93211237 3.75891532 1.69003398 5.3125 3.6875 C6.77857809 8.61885357 5.28040913 12.83910484 3 17.25 C0.20858782 21.99944623 -3.23233293 26.13638564 -6.78125 30.3359375 C-9.27906393 33.33507324 -11.56402827 36.4457268 -13.80859375 39.63671875 C-14.20175781 40.08660156 -14.59492188 40.53648438 -15 41 C-15.66 41 -16.32 41 -17 41 C-17.26337158 41.58555664 -17.52674316 42.17111328 -17.7980957 42.77441406 C-19.05322783 45.09856286 -20.40685954 46.70607738 -22.23046875 48.609375 C-22.86919922 49.28226563 -23.50792969 49.95515625 -24.16601562 50.6484375 C-24.83310547 51.34195313 -25.50019531 52.03546875 -26.1875 52.75 C-27.49485178 54.11849162 -28.80084525 55.48828217 -30.10546875 56.859375 C-30.74919434 57.53419922 -31.39291992 58.20902344 -32.05615234 58.90429688 C-34.65077762 61.70161707 -37.10772829 64.60777902 -39.5480957 67.54003906 C-40.02722412 68.02182617 -40.50635254 68.50361328 -41 69 C-41.66 69 -42.32 69 -43 69 C-43.25265625 69.57363281 -43.5053125 70.14726563 -43.765625 70.73828125 C-45.15053177 73.27581613 -46.77154756 75.08251862 -48.75 77.1875 C-53.29563404 82.19680527 -57.83701868 87.51105604 -60 94 C-60.66 94 -61.32 94 -62 94 C-58.44211382 81.11468248 -46.14089963 70.52643675 -37.14599609 61.04589844 C-11.84294626 37.36747545 -11.84294626 37.36747545 3.4375 7.8125 C2.93868311 4.60581999 1.85981847 2.63474284 0 0 Z " fill="#020203" transform="translate(242,19)"/>
<path d="M0 0 C0.125 2.375 0.125 2.375 0 5 C-0.66 5.66 -1.32 6.32 -2 7 C-2.99 7 -3.98 7 -5 7 C-5.20625 7.556875 -5.4125 8.11375 -5.625 8.6875 C-7.55000774 11.92501302 -10.03850902 13.68231141 -13 16 C-13.33 15.34 -13.66 14.68 -14 14 C-15.65 14.33 -17.3 14.66 -19 15 C-17.97132812 14.18789062 -17.97132812 14.18789062 -16.921875 13.359375 C-13.03619882 10.22174344 -9.25132333 6.97105048 -5.46484375 3.71484375 C-1.10916442 0 -1.10916442 0 0 0 Z " fill="#B93725" transform="translate(83,156)"/>
<path d="M0 0 C1 2 1 2 0.3984375 4.12890625 C-0.61521686 6.53923704 -1.60692219 8.78491976 -3 11 C-5.75 12.0625 -5.75 12.0625 -8 12 C-8 8.03869629 -6.65122875 7.17085599 -4 4.3125 C-3.2575 3.50425781 -2.515 2.69601563 -1.75 1.86328125 C-1.1725 1.24839844 -0.595 0.63351563 0 0 Z " fill="#E37505" transform="translate(329,124)"/>
<path d="M0 0 C3.5166878 0.95045616 4.78954749 1.69133631 6.875 4.75 C8.12792765 8.36956877 7.95889979 10.33874625 7 14 C6.67 14 6.34 14 6 14 C5.91363281 13.39671875 5.82726562 12.7934375 5.73828125 12.171875 C4.78960711 6.71717733 4.78960711 6.71717733 1.375 2.4375 C0.59125 1.963125 -0.1925 1.48875 -1 1 C-0.67 0.67 -0.34 0.34 0 0 Z " fill="#030303" transform="translate(335,17)"/>
<path d="M0 0 C0.66 0 1.32 0 2 0 C0.34908222 4.29238623 -2.73754566 6.8793915 -6 10 C-6.99 9.67 -7.98 9.34 -9 9 C-8.51789063 8.60167969 -8.03578125 8.20335937 -7.5390625 7.79296875 C-6.90742188 7.26316406 -6.27578125 6.73335937 -5.625 6.1875 C-4.99851562 5.66542969 -4.37203125 5.14335937 -3.7265625 4.60546875 C-1.7778952 2.91774261 -1.7778952 2.91774261 0 0 Z " fill="#020303" transform="translate(283,156)"/>
<path d="M0 0 C0.66 0.33 1.32 0.66 2 1 C2 1.99 2 2.98 2 4 C-1.63 3.67 -5.26 3.34 -9 3 C-5.72933122 0.81955415 -4.74581273 0.90142598 -1 1 C-0.67 0.67 -0.34 0.34 0 0 Z " fill="#D7412E" transform="translate(230,216)"/>
<path d="M0 0 C0.66 0.66 1.32 1.32 2 2 C-2.455 4.97 -2.455 4.97 -7 8 C-7 7.01 -7 6.02 -7 5 C-5.46875 3.61328125 -5.46875 3.61328125 -3.5 2.3125 C-2.8503125 1.87550781 -2.200625 1.43851563 -1.53125 0.98828125 C-1.0259375 0.66214844 -0.520625 0.33601563 0 0 Z " fill="#101010" transform="translate(301,35)"/>
<path d="M0 0 C1.32 1.32 2.64 2.64 4 4 C3.34 5.65 2.68 7.3 2 9 C1.34 8.67 0.68 8.34 0 8 C0.185625 7.236875 0.37125 6.47375 0.5625 5.6875 C1.22819173 2.91032625 1.22819173 2.91032625 0 0 Z " fill="#B63627" transform="translate(42,235)"/>
<path d="M0 0 C0 3 0 3 -2.5 5.6875 C-3.325 6.450625 -4.15 7.21375 -5 8 C-5 5 -5 5 -2.5 2.3125 C-1.675 1.549375 -0.85 0.78625 0 0 Z " fill="#242932" transform="translate(216,50)"/>
</svg>
