<svg xmlns="http://www.w3.org/2000/svg" width="269" height="244"><path fill="#20283D" d="m121.133 5.867 3.632-.003q3.768 0 7.537.006c3.82.005 7.64 0 11.46-.007q3.686 0 7.37.004l3.417-.006c20.356.06 20.356.06 26.451 5.139l2.664 2.09c7.816 6.197 7.816 6.197 10.344 9.664 1.787 2.463 1.787 2.463 4.508 2.777l2.734-.031c5.735.276 9.397 1.762 13.75 5.5l2.063 2.688c1.832 2.657 1.832 2.657 5.437 3.124C226 38 226 38 227.094 39.685a240 240 0 0 1 1.804 4.226c1.593 3.02 3.918 4.645 6.57 6.719 2.045 1.83 2.595 3.829 3.532 6.371a263 263 0 0 0 5 4c3.987 5.048 3.458 10.278 3.527 16.406.163 5.756 1.258 9.039 5.098 13.469 3.33 5.145 2.522 12.394 2.508 18.355l.003 2.642q0 2.757-.006 5.514c-.005 2.776 0 5.551.007 8.327.017 26.758.017 26.758-6.578 34.15-1.76 2.414-1.95 3.574-1.996 6.512-.154 5.493-3.23 8.673-6.653 12.754-2.153 2.844-2.153 2.844-2.673 6.657-1.122 4.735-3.47 7.23-6.944 10.507l-1.704 1.679a611 611 0 0 1-5.401 5.215 2130 2130 0 0 0-3.604 3.522 1150 1150 0 0 1-6.661 6.464 420 420 0 0 0-5.684 5.59c-4.399 4.396-8.661 7.977-14.739 9.612-3.932 1.07-5.222 2.405-7.574 5.66-4.827 4.958-9.56 4.907-16.12 5.058a479 479 0 0 1-8.119-.03q-2.846.008-5.692.023a959 959 0 0 1-11.902-.043c-5.072-.046-10.14-.02-15.211.029-3.916.029-7.831.02-11.747-.001q-2.804-.01-5.607.02c-14.605.113-14.605.113-19.429-2.908-1.957-1.962-3.516-3.92-5.099-6.183-2.275-1.137-3.604-1.064-6.125-1.125-5.836-.556-8.945-3.794-12.875-7.875-1.943-2.283-1.943-2.283-5.29-2.84-4.132-1.292-5.983-2.744-9.085-5.722l-1.495-1.424A489 489 0 0 1 46 206l-2.093-2.052c-24.654-24.203-24.654-24.203-25.137-31.366q.042-3.75.125-7.5c-.383-3.965-2.197-5.686-4.885-8.528-4.919-5.999-5.18-10.937-5.072-18.5l-.024-3.666q-.007-3.814.043-7.629c.043-3.882 0-7.756-.05-11.638q.008-3.72.03-7.441l-.049-3.492c.14-6.062.72-9.5 5.053-13.918 1.986-1.725 3.71-3.096 6.059-4.27.136-1.873.233-3.749.313-5.625C21.654 70.597 28.32 64.787 35 58q1.508-1.584 3.012-3.172C42.698 49.984 42.698 49.984 45 48h2l.755-1.738c1.428-2.594 3.078-4.354 5.167-6.45l2.36-2.367L57.75 35l2.422-2.445C64.229 28.51 68.098 24.967 73 22l1.938-1.625C77 19 77 19 80.308 18.23c5.186-1.728 7.676-5.023 11.262-9.015 6.867-5.67 21.1-3.363 29.563-3.348"/><path fill="#FBFBFB" d="m121.133 5.867 3.632-.003q3.768 0 7.537.006c3.82.005 7.64 0 11.46-.007q3.686 0 7.37.004l3.417-.006c20.356.06 20.356.06 26.451 5.139l2.664 2.09c7.816 6.197 7.816 6.197 10.344 9.664 1.787 2.463 1.787 2.463 4.508 2.777l2.734-.031c5.735.276 9.397 1.762 13.75 5.5l2.063 2.688c1.832 2.657 1.832 2.657 5.437 3.124C226 38 226 38 227.094 39.685a240 240 0 0 1 1.804 4.226c1.593 3.02 3.918 4.645 6.57 6.719 2.045 1.83 2.595 3.829 3.532 6.371a263 263 0 0 0 5 4c3.987 5.048 3.458 10.278 3.527 16.406.163 5.756 1.258 9.039 5.098 13.469 3.33 5.145 2.522 12.394 2.508 18.355l.003 2.642q0 2.757-.006 5.514c-.005 2.776 0 5.551.007 8.327.017 26.758.017 26.758-6.578 34.15-1.76 2.414-1.95 3.574-1.996 6.512-.154 5.493-3.23 8.673-6.653 12.754-2.153 2.844-2.153 2.844-2.673 6.657-1.122 4.735-3.47 7.23-6.944 10.507l-1.704 1.679a611 611 0 0 1-5.401 5.215 2130 2130 0 0 0-3.604 3.522 1150 1150 0 0 1-6.661 6.464 420 420 0 0 0-5.684 5.59c-4.399 4.396-8.661 7.977-14.739 9.612-3.932 1.07-5.222 2.405-7.574 5.66-4.827 4.958-9.56 4.907-16.12 5.058a479 479 0 0 1-8.119-.03q-2.846.008-5.692.023a959 959 0 0 1-11.902-.043c-5.072-.046-10.14-.02-15.211.029-3.916.029-7.831.02-11.747-.001q-2.804-.01-5.607.02c-14.605.113-14.605.113-19.429-2.908-1.957-1.962-3.516-3.92-5.099-6.183-2.275-1.137-3.604-1.064-6.125-1.125-5.836-.556-8.945-3.794-12.875-7.875-1.943-2.283-1.943-2.283-5.29-2.84-4.132-1.292-5.983-2.744-9.085-5.722l-1.495-1.424A489 489 0 0 1 46 206l-2.093-2.052c-24.654-24.203-24.654-24.203-25.137-31.366q.042-3.75.125-7.5c-.383-3.965-2.197-5.686-4.885-8.528-4.919-5.999-5.18-10.937-5.072-18.5l-.024-3.666q-.007-3.814.043-7.629c.043-3.882 0-7.756-.05-11.638q.008-3.72.03-7.441l-.049-3.492c.14-6.062.72-9.5 5.053-13.918 1.986-1.725 3.71-3.096 6.059-4.27.136-1.873.233-3.749.313-5.625C21.654 70.597 28.32 64.787 35 58q1.508-1.584 3.012-3.172C42.698 49.984 42.698 49.984 45 48h2l.755-1.738c1.428-2.594 3.078-4.354 5.167-6.45l2.36-2.367L57.75 35l2.422-2.445C64.229 28.51 68.098 24.967 73 22l1.938-1.625C77 19 77 19 80.308 18.23c5.186-1.728 7.676-5.023 11.262-9.015 6.867-5.67 21.1-3.363 29.563-3.348M95 18v9H85v3H75v9h-9v9h-8v9h-9v9h-9v12h-8l1 18-11 1v54l9-1v28h9v10h9v9h10v10h18v10h18l1 10h83v-10h17v-10h9v-10h11v-10h10v-17h8v-19h9V93h-8V66h-8V55h-10v-9h-9l.098-6.152c.108-1.865.108-1.865-1.098-2.848a76 76 0 0 0-4.691-.098l-2.862.01-3.01.026-3.021.013q-3.708.02-7.416.049V26h-10v-8z"/><path fill="#20283E" d="M59 49h9l-1 8-9 2-1 7-2.937-.062C51.125 65.644 51.125 65.644 50 67c-.231 2.59-.403 5.159-.535 7.754l-.13 2.35q-.203 3.729-.398 7.459-.136 2.522-.275 5.044C48.436 93.738 48.218 97.87 48 102H30v39h10v-10h9v-29h8v10l4.438-.5c4.89-.488 9.648-.656 14.562-.5 1 1 1 1 1.098 3.066L77 121h9v10h14l-4 1v9h9v19h25v-9l8-1 1-9c4.833-.083 9.237.047 14 1v2q-2.688-.212-5.375-.437l-3.023-.247C142 143 142 143 140 142l.07 1.828.055 2.422.07 2.39c-.212 2.567-.908 4.152-2.195 6.36v-2l-4 2v-3h-3v9c-4.987.815-9.743 1.135-14.812 1.125l-3.958.008C109 162 109 162 107 161l.063 3.938A59 59 0 0 1 107 169c-1 1-1 1-3.066 1.098l-2.496-.036-2.504-.027L97 170v8h-1v-9l-10 1-1 8h-8v20l8 1v8l10 1v8H77v-9H59v-10H49v-9h-9v-10h-9v-28l-9 1V97l11-1-1-18h8V66h9v-9h10z"/><path fill="#355173" d="M105 37h19c1 6 1 6 0 8h-11v7h17v21l-16 1-1 3v-3h-8v9q-4.72.04-9.437.063l-2.721.025-2.588.01-2.396.016C86 83 86 83 85 82c-.141-2.67-.042-5.324 0-8l-2.074.559c-3.484.525-6.272.099-9.739-.496l-3.519-.59L67 73v-9l9 2V52l2-1 1.938 1c2.174 1.35 2.174 1.35 5.062 0a99 99 0 0 1 5.188-.062l2.73.027L95 52v-8h10z"/><path fill="#181A20" d="M59 49h9l-1 8-9 2-1 7-2.937-.062C51.125 65.644 51.125 65.644 50 67c-.231 2.59-.403 5.159-.535 7.754l-.13 2.35q-.203 3.729-.398 7.459-.136 2.522-.275 5.044C48.436 93.738 48.218 97.87 48 102H30q.178 8.835.372 17.67.066 3.005.125 6.008.088 4.323.187 8.646l.05 2.706c.098 4.102.252 7.968 1.266 11.97l7 1 1 28h-9v-28l-9 1V97l11-1-1-18h8V66h9v-9h10z"/><path fill="#2D4361" d="M48 83c7.715-.098 7.715-.098 10 0 1 1 1 1 1.114 2.766l-.016 2.27-.008 2.206-.028 2.82L59 102h27v19h-9l-1-9H57v-10h-8v29h-9v10H30v-39h18z"/><path fill="#1C1E24" d="M203 196h1v11h-8v10h-17v10H96v-9c3.58-1.193 6.864-1.176 10.593-1.205l2.336-.03q3.822-.047 7.645-.081l5.301-.063q6.976-.083 13.952-.153 7.12-.077 14.237-.161 13.968-.162 27.936-.307v-6h3l-2 5h15l-.687-5.312c-.668-5.156-.668-5.156.937-7.563 2.894-1.86 5.53-.793 8.75-.125z"/><path fill="#202126" d="m233 92 10 1v58h-9v19h-9v16h-1v-10l-3.437 1.813-1.934 1.019c-1.952 1.158-1.952 1.158-2.629 4.168l-2.812-.125c-3.346-.146-3.346-.146-6.188 2.125l-2 3c-1-2-1-2-.062-5.125L206 180l3.188.125c3.887-.688 3.887-.688 5.214-3.383q1.211-2.713 2.262-5.492C218 169 218 169 220.648 168.188L223 168v-5l2 3c3.084.25 3.084.25 6 0 .09-1.607.09-1.607.184-3.246l.254-4.191.119-2.143c.33-5.307.33-5.307 1.443-6.42h8l-1-24c-2.154 3.59-3.49 5.992-4.687 9.813l-.762 2.394L234 140c-1.062-1.812-1.062-1.812-2-4l1-3c.222-1.892.406-3.789.563-5.687l.253-3.012L234 122l-8-1v-9l6-1 2-17-2-1z"/><path fill="#129596" d="M48 83c7.715-.098 7.715-.098 10 0 1 1 1 1 1.114 2.766l-.016 2.27-.008 2.206-.028 2.82L59 102h27v19h-9l-1-9H57v-10h-9z"/><path fill="#13151B" d="M96 19h80v8l-80-1z"/><path fill="#0FA4AE" d="M147 73h9v18h-9v11h-9v10h-8V91h7l-.062-3.437C137 84 137 84 138 83c3.003-.142 5.992-.042 9 0z"/><path fill="#052444" d="M88.285 168.902 96 169v10H86l.496 2.074c.568 3.3.6 6.392.567 9.738l-.028 3.52L87 197h9v10H85v-8l-3.937.063A59 59 0 0 1 77 199c-1.59-1.59-1.13-3.239-1.133-5.437l-.004-2.711.012-2.852-.012-2.852.004-2.71.004-2.504C76 178 76 178 77 177c2.69.176 5.329.618 8 1l-.062-3.937A59 59 0 0 1 85 170c1-1 1-1 3.285-1.098"/><path fill="#03C4C5" d="M96 132h16v19h18v9h-25v-19h-9z"/><path fill="#253E5E" d="M158.813 55.938 166 56v17h-19v10l-15 1 1-4 1.875.563c2.167.674 2.167.674 4.125-.563 2.008.281 4.01.61 6 1l-1-8-3-1 6-1 1-3h-2c-1.374-3.818-.68-7.073 0-11 4.283-1.056 8.431-1.117 12.813-1.062"/><path fill="#12131A" d="M50 188h9l1 10h13l1 5-1 1c4.52 2.156 8.899 2.622 13.813 3.125l2.388.262Q92.1 207.7 95 208v8H77v-9H59v-10h-9z"/><path fill="#15B2BA" d="M166 112h11v8h9v21h-10v-20h-10z"/><path fill="#171821" d="M208 47h9v9h9v11q-4.22.04-8.437.063l-2.432.025c-2.044.009-4.088-.036-6.131-.088-1-1-1-1-1.114-2.858l.016-2.396.01-2.588.025-2.72.014-2.733q.02-3.352.049-6.705"/><path fill="#131419" d="M235 94h7v57h-8v19h-9v16h-1v-10l-3.437 1.813-1.934 1.019c-1.952 1.158-1.952 1.158-2.629 4.168l-2.812-.125c-3.346-.146-3.346-.146-6.188 2.125l-2 3c-1-2-1-2-.062-5.125L206 180l3.188.125c3.887-.688 3.887-.688 5.214-3.383q1.211-2.713 2.262-5.492C218 169 218 169 220.648 168.188L223 168v-5l2 3c3.084.25 3.084.25 6 0 .09-1.607.09-1.607.184-3.246l.254-4.191.119-2.143c.33-5.307.33-5.307 1.443-6.42h8V95h-6z"/><path fill="#152234" d="M147 91h10v2l2 1 1 3 2 1-1 2h5v1h-18l4 1c-.297 3.468-.988 4.985-3.187 7.75-3.09 2.472-4.899 3.072-8.813 3.25-1-1-1-1-1.098-3.285l.036-2.778.027-2.785L139 102h8z"/><path fill="#19364D" d="M96 141h9v28h-8a365 365 0 0 1-.125-4.875l-.07-2.742C97 159 97 159 99 157l-3-1z"/><path fill="#E6E6E6" d="M12 152c3.706 1.235 5.337 3.197 8 6l1 1-.115 5.881c-.032 8.055.769 13.31 6.552 19.182 2.346 2.3 4.6 4.455 7.563 5.937l.89 1.852c1.289 2.494 2.702 3.742 4.86 5.523 3.61 3.064 7.023 6.155 10.25 9.625v2l1.688.688C55 211 55 211 57.312 213.563c2.514 2.759 2.514 2.759 6.126 2.812 4.493.788 5.573 2.395 8.203 5.934 1.435 1.959 1.435 1.959 4.359 3.691 1.748.095 3.5.13 5.25.125 3.474.235 5.236.47 7.992 2.645 2.262 2.604 4.213 5.14 5.758 8.23-2.949-1.324-4.918-2.782-7.187-5.062-2.815-2.515-4.488-3.259-8.25-3.375-5.747-.237-8.732-3.585-12.563-7.563-1.943-2.283-1.943-2.283-5.29-2.84-4.132-1.292-5.983-2.744-9.085-5.722l-1.495-1.424A489 489 0 0 1 46 206l-2.093-2.052c-24.581-24.131-24.581-24.131-25.208-31.471l-.012-3.852c-.128-4.773-.43-8.269-3.75-11.937L12 154z"/><path fill="#222B44" d="M186 102h9c.054 1.77.093 3.541.125 5.313l.07 2.988C195 113 195 113 193 116h-3v3l4-1v3c-2.312.625-2.312.625-5 1l-3-2c-2.05-.451-2.05-.451-4.187-.625L178 119v-7h7z"/><path fill="#082233" d="m166 101 4 2c.936 2.88 1.372 4.255 0 7h14v-8h1l1 10c-3.287.8-4.71 1.097-8 0v7h8v1h-9v-8h-11v9h10v20h-1v-19l-6 1-2 3c-2.5.125-2.5.125-5 0l-2 1v-7h4c-.656-3.61-.656-3.61-2-7h-6v-2h10z"/><path fill="#02D0D4" d="M149 75h5v14l-7 1-1 11h-7V85h10z"/><path fill="#1474A1" d="M186 141h10v19h-10z"/><path fill="#2A2D36" d="M75 30h10v1h-9v7h19v2l-2.957-.14-3.856-.11-3.832-.14c-3.358.062-3.358.062-5.242 2.093-1.4 2.645-1.4 2.645-2.113 7.297H59v8h-1v-9h8v-9h9z"/><path fill="#14B6B4" d="M139 131h18v10h-18z"/><path fill="#1F7BAA" d="M205 112h20v9h-20z"/><path fill="#36607C" d="M77 102h9v19h-9c-.843-6.653-.963-12.366 0-19"/><path fill="#1E739D" d="M196 160h9v9h8v10h-8v-9h-9z"/><path fill="#01BDC3" d="M156 56h10v17h-10z"/><path fill="#10B4B5" d="M112 151h18v9h-25v-1h7z"/><path fill="#0B87C8" d="M77 179h9v18h-9z"/><path fill="#12151C" d="M86 28h9v10H76v-7l1.934-.148 2.504-.227c.823-.07 1.647-.14 2.496-.21L85 30z"/><path fill="#18E1DA" d="M49 84h9v17h-9z"/><path fill="#1CC9CC" d="M177 121h8v19h-8z"/><path fill="#193253" d="m161.125 33.938 2.758.027L166 34c.39 1.455.76 2.914 1.125 4.375l.633 2.46L168 43c-2 2-2 2-4.531 2.16l-2.969-.097c-3.9-.234-3.9-.234-7.5.937-1.602-4.004-.409-7.07 1-11 2.525-1.262 4.312-1.099 7.125-1.062"/><path fill="#090A10" d="M59 49h9l-1 8-9 2-1 7-2.875-.062C51.093 65.774 51.093 65.774 49 67V57h10z"/><path fill="#E1E1E2" d="m251 153 2 2c-.422.4-.843.802-1.277 1.215-3.147 3.265-5.023 5.401-5.098 10.035-.217 5.549-3.25 8.747-6.715 12.879-2.153 2.841-2.153 2.841-2.662 6.646-1.14 4.812-3.605 7.363-7.13 10.694l-1.741 1.714a637 637 0 0 1-5.502 5.317q-1.867 1.822-3.73 3.648A1317 1317 0 0 1 210 216l-2-1a418 418 0 0 1 2.875-3.5l1.617-1.969L214 208h2l.602-1.629c2.013-3.414 4.82-5.703 7.773-8.309 8.205-6.97 8.205-6.97 11.082-16.964.713-2.755 2.047-3.969 4.043-5.973 3.77-3.877 3.937-6.4 4.059-11.648.81-4.55 4.167-7.417 7.441-10.477"/><path fill="#22BAC3" d="M147 73h9v18h-9v11h-9V83h9zm2 2v10h-10v16h7l1-11 7-1V75z"/><path fill="#1B2132" d="M67 83q.039 3.406.063 6.813l.035 3.832C67 97 67 97 66 100h11v1q-3.97.04-7.937.063l-2.288.025A183 183 0 0 1 61 101c-2.12-2.12-1.418-6.62-1.562-9.562l-.131-2.444A1763 1763 0 0 1 59 83c3.097-.878 4.906-.994 8 0"/><path fill="#1CC3C7" d="M96 132h16v27h-7v-18h-9zm1 1v6l9 1v18h1l.875-2.875C109 152 109 152 111 150c.145-2.745.187-5.385.125-8.125l-.027-2.285c-.024-1.864-.06-3.727-.098-5.59z"/><path fill="#626467" d="M95 18h81v1H96v8h8v1l-6 1-1 8h-2v-9h-9l-1 2v-3h10z"/><path fill="#1C1C21" d="M203 196h1v11h-8v10h-16v-2h14l-.687-5.312c-.668-5.156-.668-5.156.937-7.563 2.894-1.86 5.53-.793 8.75-.125z"/><path fill="#0A1E2E" d="M139 141c4.833-.083 9.237.047 14 1v2q-2.688-.212-5.375-.437l-3.023-.247C142 143 142 143 140 142l.07 1.828.055 2.422.07 2.39c-.212 2.567-.908 4.152-2.195 6.36v-2l-4 2v-3h-3v9c-4.987.815-9.743 1.135-14.812 1.125l-3.958.008C109 162 109 162 107 161v8h-1l-1-9h25v-9l8-1z"/><path fill="#16A2AF" d="M86 169h10v10H86z"/><path fill="#219FA5" d="M86 121h10v10H86z"/><path fill="#273650" d="m71.285 130.902 2.778.036 2.785.027L79 131v9H68c-.098-6.152-.098-6.152 0-8 1-1 1-1 3.285-1.098"/><path fill="#1D1E2A" d="M152 102c-.297 3.468-.988 4.985-3.187 7.75-3.081 2.465-4.93 2.979-8.813 3.25v-10c8.625-1 8.625-1 12-1"/><path fill="#1598C8" d="M186 141h9v10h-9z"/><path fill="#26A09E" d="M156 102h10v9h-10z"/><path fill="#203150" d="M105 74h8c.125 6.75.125 6.75-1 9l-2.437 1.313c-2.977 1.96-3.566 3.334-4.563 6.687h-1z"/><path fill="#12141A" d="M176 27h9v10h-9z"/><path fill="#2A405A" d="M127 170h10v9c-6.934.098-6.934.098-9 0-1-1-1-1-1.098-2.848z"/><path fill="#28282B" d="M225 170h1v17h-10v10h-11v10h-1v-12l9-1 2-9 3.375.063c3.457.2 3.457.2 5.625-1.063.47-3.276.47-3.276.625-7.062l.227-3.91z"/><path fill="#023954" d="M155 56h1v17h-9v10l-15 1 1-4 1.875.563c2.167.674 2.167.674 4.125-.563 2.008.281 4.01.61 6 1l-1-8-3-1c4.78-1.508 9.085-.582 14 0z"/><path fill="#1E2233" d="M40 140c1.312 3.937.243 6.125-1 10h-7c-2-5.625-2-5.625-2-9z"/><path fill="#2385B0" d="M186 102h9v9h-9z"/><path fill="#191E2D" d="M233 104h1v17c-5 1-5 1-8 0v-9l6-1z"/><path fill="#08B0AC" d="M64 103q2.718-.04 5.438-.062l3.058-.036C75 103 75 103 76 104c.04 2 .043 4 0 6a125 125 0 0 1-18 1v-1l8-1-2-2 3-3z"/><path fill="#12727D" d="M176 112h1v8h9v21h-10v-20h-10v-1h10zm1 9v19h8v-19z"/><path fill="#06283B" d="M76 111c1 1 1 1 1.098 3.066L77 121h9v9h-1v-7l-3.75.188c-3.032.016-4.072-.081-6.75-1.688L73 120h2v-7H57v-1c6.366-.744 12.588-1.204 19-1"/><path fill="#1490CC" d="M87 198h8v9h-8z"/><path fill="#1AAEB7" d="M97 160h8v9h-8z"/><path fill="#17BDBF" d="M130 141h8v9h-8z"/><path fill="#20A8A7" d="M78 112h8v9h-8z"/><path fill="#1E4B6E" d="M166 64q3.5-.062 7 0c2.047 2.047 1.7 6.304 2 9h-9z"/><path fill="#269EB3" d="M156 37h9v8h-9z"/><path fill="#21B3BB" d="M156 56h10v17h-10zm2 1v14l7 1V57z"/><path fill="#F1F1F1" d="m63 30 1 2-2-1zm-3 3c0 3.932-1.394 5.164-4 8h-2v2a140 140 0 0 1-5 5l-2.625 2.625L41 56l-3-1a517 517 0 0 1 3.375-3.5l1.898-1.969C45 48 45 48 47 48l.648-1.64c1.833-3.2 4.35-5.57 6.977-8.11l1.563-1.535A897 897 0 0 1 60 33M37 56v3l-4 2z"/><path fill="#29769C" d="M225 122h8v9h-7z"/><path fill="#09DEDA" d="M143.063 90.938 146 91v10h-7q-.04-2.22-.062-4.437l-.036-2.497c.16-3.367.724-3.058 4.16-3.129"/><path fill="#384254" d="M75 30h10v1h-9v7h19v2l-2.957-.14-3.856-.11-3.832-.14c-3.39.05-3.39.05-5.261 2.234C77.884 44.23 77.367 46.357 77 49h-1c-.745-6.373-1.103-12.583-1-19"/><path fill="#161E2C" d="M195 170h9c-.586 6.934-.586 6.934-1 9l-2 1-3-1c-.95-2.066-.95-2.066-1.687-4.562l-.762-2.504z"/><path fill="#181A24" d="M51 188h8l1 7c-3.153.7-5.727 1-9 1z"/><path fill="#111218" d="m41 178 2 1c2 .04 4 .043 6 0v8h-8z"/><path fill="#1D1E2E" d="M156 112h9v10l4 1-2 3c-2.5.125-2.5.125-5 0l-2 1v-7h4c-.656-3.61-.656-3.61-2-7h-6z"/><path fill="#26324F" d="M146 57h1l1 9h7v6h-8l1-4h-2c-1.374-3.818-.68-7.073 0-11"/><path fill="#ECECEB" d="M12 152c3.706 1.235 5.337 3.197 8 6l1 1c.212 2.983.376 5.95.5 8.938q.103 2.483.219 4.964l.092 2.234c.087 1.956.087 1.956 1.189 3.864l-3-1c-1.494-2.987-1.119-5.863-1.187-9.187-.192-4.809-.53-8.434-3.875-12.125L12 154z"/><path fill="#122F46" d="M156 73h10l-1 3h-3v2h-2l-1 5h-2v8h-1z"/><path fill="#0D2139" d="M205 160h2v8h10l1 2c-.777 2.164-.777 2.164-1.937 4.625l-1.153 2.477L214 179h-1v-10h-8z"/><path fill="#196F9F" d="M77 179h9v18h-3v-2h2l-1-13-6-2v17h-1z"/><path fill="#161A26" d="M67 49c1.43 2.862.6 4.934 0 8h-7v-7z"/><path fill="#E7E7E7" d="m251 153 2 2c-.422.4-.843.802-1.277 1.215-4.044 4.196-5.255 6.97-5.512 12.762-.279 2.673-1.333 4.145-3.211 6.023l-2-1 2-3c.12-1.56.175-3.124.188-4.687.448-6.103 3.474-9.258 7.812-13.313"/><path fill="#E8E8E8" d="M240 59c2.505.95 3.893 1.873 5.625 3.938 2.002 4.457 1.695 8.551 1.563 13.374l-.042 2.823A586 586 0 0 1 247 86h-1c-1.208-5.018-1.272-10.07-1.342-15.205-.144-3.568-.333-5.418-2.701-8.166L240 61z"/><path fill="#084670" d="M86 184h1v13h9v10h-1v-9h-8v9h-1v-9h-8v-1h8z"/><path fill="#03D2CB" d="M50 93h7v7h-7z"/><path fill="#0D0E12" d="M203 196h1v11h-9l1-6 7 1z"/><path fill="#02B3B9" d="M178 131h6v8h-6z"/><path fill="#1680AC" d="M206 170h6v8h-6z"/><path fill="#09C3C9" d="M158 57h7v15l-7-1v-4c3-1 3-1 6 0v-9h-6z"/><path fill="#0E2945" d="M224 122h1l1 9h7v-9h1v11h-6v2h-2v-2h-2z"/><path fill="#F0F0F0" d="M30 64c0 3 0 3-1.277 4.332l-1.66 1.48C22.386 74.897 23.018 81.438 23 88l-3-1c.53-10.44 3.152-15.31 10-23"/><path fill="#03AEB3" d="M88 122h6v7h-6z"/><path fill="#04B2AD" d="M158 103h7v6h-7z"/><path fill="#161922" d="m51 59 1.875.563c2.167.674 2.167.674 4.125-.563v7h-7z"/><path fill="#1B202D" d="M74 195h2l1 9-4 1-1-2h2l-1-4-9-1v-1h10z"/><path fill="#1B1F2E" d="M226 67h8c-3 2-3 2-5 2-1.18 3.848-1.332 7.758-1.562 11.75l-.131 2.113Q227.149 85.432 227 88h-1q-.292-4.405-.562-8.812l-.17-2.526-.147-2.432-.143-2.237C225 70 225 70 226 67"/><path fill="#3B4657" d="M85 27h19v1l-6 1-1 8h-2v-9h-9l-1 2z"/><path fill="#0479BD" d="M79 188h5l1 7-6 1z"/><path fill="#04A2D2" d="M191.063 142.938 194 143l-1 6h-6a100 100 0 0 1 0-5c1-1 1-1 4.063-1.062"/><path fill="#0F1C2D" d="m186 120 4 2v3l2 1-4 1-1 13h-1zm4 1 2 1Z"/><path fill="#0B2F4D" d="M187 139h10c1.76 3.326 2.108 4.592 1.125 8.313L197 150h-1v-9h-10z"/><path fill="#04ACA8" d="M79 113h5v7h-5z"/><path fill="#131728" d="m166 101 4 2c.936 2.88 1.372 4.255 0 7h6v1h-9z"/><path fill="#202A3F" d="m58 58 1 2h3v3l-4 1v3h-8l2-2c2.625.375 2.625.375 5 1l-.062-3.437C57 59 57 59 58 58m4 1 2 1Z"/><path fill="#3B3E48" d="m40 172 2 3 3 1v2h-4v9h8v1h-9z"/><path fill="#1278A6" d="m227 123 4 1 1 6h-6z"/><path fill="#0F263F" d="M186 160h10v10h-3l1-9h-8z"/><path fill="#221C2F" d="M197 174h6v5l-2 1-3-1z"/><path fill="#124B69" d="M156 36h11l1 7-3 2v-8h-9z"/><path fill="#1D7885" d="M77 102h1v9h7v1h-7v9h-1c-.893-6.582-.955-12.422 0-19"/><path fill="#092643" d="M204 170h1v9h8v1q-2.218.29-4.437.563l-2.497.316L204 181l-1-1c.09-1.691.246-3.38.438-5.062l.308-2.786z"/><path fill="#2AA5CA" d="M186 141h9v2l-7 1-1 6h-1z"/><path fill="#0EC0C1" d="m178 127 4 1v2h3v9h-1v-8h-6z"/><path fill="#132F4C" d="M168 44v2h-2l-1 2c-6.75.125-6.75.125-9-1v-2q2.438-.252 4.875-.5l2.742-.281C166 44 166 44 168 44"/><path fill="#1E3454" d="M94 45h1v7h-7l-1-2h2l1-3 1 3h3z"/><path fill="#252B45" d="M143 36h6v3l-6 2z"/><path fill="#1B2238" d="M84 169h1v9l-4-1 1-4h2z"/><path fill="#1A1C25" d="m223 163 2 3c3.568.736 3.568.736 7 1v1c-6.4 2.215-6.4 2.215-9.437 1.125L221 168h2z"/><path fill="#121D33" d="M196 150h1l1 6 4 1v2h-6z"/><path fill="#EFEFEF" d="m251 153 2 2-6 7-2-3z"/><path fill="#223D5D" d="m144 71 2 1v10l-4-1h3l-1-8-3-1z"/><path fill="#0AA7BE" d="M158 39h5v4h-5z"/><path fill="#233C58" d="m133 80 1.875.563c2.167.674 2.167.674 4.125-.563l2 2h-3l-1 2h-5z"/><path fill="#101017" d="M226 67h8c-3 2-3 2-5 2l-1 4c-2-3.75-2-3.75-2-6"/><path fill="#15161B" d="m54 191 2 1v2h2v2h-7z"/><path fill="#261E37" d="M131 136h6v3h-6z"/><path fill="#1E253B" d="m50 104 2 4 2-1v4h-5z"/><path fill="#08AAB9" d="M135 106h2v5h-6l3-1c.733-2.015.733-2.015 1-4"/></svg>