<svg xmlns="http://www.w3.org/2000/svg" width="329" height="314"><path fill="#B34534" d="M245.9 38.18C257.79 48.48 268.438 59.787 277 73l1.196 1.846C284.17 84.196 289.273 93.97 294 104l1.398 2.938c9.815 22.004 15.576 49.62 7.602 73.062-6.691 16.516-16.391 25.582-32.5 32.504-22.588 8.297-47.86 7.864-71.5 5.496l.77 2.648C205.26 240.27 210.407 262.705 201 282c-7.647 13.116-20.432 19.33-34.586 23.457-23.242 5.228-48.761.739-69.012-11.594C87.084 287.25 78.415 279.077 75 267c-2.63-14.906.22-27.79 8.621-40.442a328 328 0 0 1 5.317-7.12C93.498 213.413 97.88 207.337 102 201l-3.637-.812C75.562 194.905 51.63 187.012 34 171l-2.098-1.715c-8.329-7.334-14.386-19.336-15.105-30.414C16.409 110.461 33.839 84.616 52 64l1.58-1.8C102.605 6.731 185.8-11.675 245.9 38.18"/><path fill="#AC7A53" d="m137.188 160.625 2.765.005c7.466.128 14.738.959 22.11 2.12l3.057.475c11.12 1.902 24.492 4.509 31.88 13.775 1.028 4.383.869 8.439.486 12.908-.296 3.57-.395 7.144-.486 10.725l-.06 2.165c-.104 6.64 1.064 12.69 2.873 19.077.273.97.547 1.94.83 2.938a945 945 0 0 0 1.622 5.578c4.627 16.418 6.423 35.84-1.265 51.609-7.647 13.116-20.432 19.33-34.586 23.457-23.242 5.228-48.761.739-69.012-11.594C87.084 287.25 78.415 279.077 75 267c-2.635-14.932.257-27.741 8.605-40.442a308 308 0 0 1 5.27-7.12l1.777-2.381c1.77-2.363 3.558-4.71 5.348-7.057l1.935-2.593 1.885-2.497 1.704-2.273L103 201h2l.734-2.04c1.55-3.623 3.525-6.943 5.516-10.335 4.388-7.606 7.734-15.392 10.75-23.625h2v-2c4.427-2.486 8.203-2.384 13.188-2.375"/><path fill="#803025" d="m88.563 140.813 3.807.002c41.2.264 80.817 8.665 119.63 22.185q3.184 1.1 6.375 2.188l2.836.98c2.952.88 5.721 1.528 8.789 1.832 3.245-1.788 5.887-3.908 8.75-6.25C241 160 241 160 243 160l.625-1.75c1.873-3.064 4.345-4.405 7.375-6.25-1.687 8.156-4.379 12.773-11 18l-2 4 10 2v3l2.629.336c7.908 1.558 15.862 5.86 21.281 11.875C273 193 273 193 273.25 196.562c-2.354 6.473-6.456 9.983-12.25 13.438-2.745 1.09-5.537 1.934-8.375 2.75l-2.23.668A685 685 0 0 1 245 215c5.79.271 10.734-.677 16.313-2.187l2.534-.67c5.513-1.521 10.485-3.415 15.438-6.323L281 205l2 1c-26.03 14.278-54.997 14.906-84 12-2.492-5.699-3.21-10.445-2.941-16.633l.078-2.077c.119-2.864.252-5.725.453-8.584.765-8.522.765-8.522-2.425-16.115-9.13-6.853-21.052-9.123-32.102-10.841l-3.24-.512C147.794 161.62 134.921 159.96 124 163v2h-2l-.371 2.16C118.917 179.404 111.378 190.403 105 201c-28.57-3.688-58.093-15.906-78-37l1-3 1.477 1.871C35.707 170.314 42.614 175.262 51 180l1.855 1.055C63.695 187.099 78.422 195 91 195v-2l-1.793-.148c-5.139-.487-9.26-1.305-13.867-3.723-2.58-1.245-5.221-2.306-7.873-3.387C59.602 182.482 53.359 178.75 47 173l-4-3.25c-3.3-2.698-4.736-5.297-5.5-9.5.779-5.061 2.477-8.028 6.5-11.25 5.42-2.633 11.24-4.289 17-6l3-1c8.145-1.135 16.354-1.193 24.563-1.187"/><path fill="#DAB080" d="M125 197c-.083 2.83-.553 4.53-2.52 6.598A87 87 0 0 1 114 210v4q2.406.039 4.813.063l2.707.035c2.614.012 2.614.012 5.48-1.098l3-16c13.296-.366 22.853 1.475 35 7l.332 3.918c1.003 11.58 1.003 11.58 3.293 22.957 2.305 9.138 3.267 19.679-1.625 28.125-4.055 6.375-8.905 11.986-16 15-7.031 1.19-12.323-.62-18.555-3.809-8.016-3.905-20.227-3.638-28.672-1.296q-2.41 1.053-4.785 2.187c-3.306 1.527-5.426 1.63-8.988.918-5.888-3.378-9.865-7.522-13.027-13.496L76 257h-2c-.954-14.31 6.523-26.574 14.875-37.562l1.777-2.381a446 446 0 0 1 3.572-4.704q1.799-2.386 3.478-4.856c3.392-4.83 5.845-7.479 11.712-8.71.73-.115 1.46-.23 2.211-.35l2.234-.455c3.748-.728 7.31-1.156 11.141-.982"/><path fill="#DB6452" d="M156.152 27.2c3.313 3.227 4.74 5.892 5.286 10.488-.319 7.337-3.564 14.34-8.563 19.664C138.523 69.969 119.878 76.049 101 75c-6.89-.853-12.218-2.755-16.875-8.187C81.73 60.823 82.585 54.885 85 49h2l.688-2.187c1.575-3.377 3.52-5.37 6.312-7.813h2v-2l5-2v-2c16.146-7.565 38.593-17.103 55.152-5.8"/><path fill="#D96250" d="M142.434 95.473C144 97 144 97 145 99.875V102h2c3.275 7.368 4.168 13.764 2 21.625L148 126h-2l-.75 1.938C144 130 144 130 141.875 130.75L140 131v2h-10l-2-4 1.969-.82c2.89-1.49 4.857-2.744 7.031-5.18.892-4.756.61-9.217 0-14-.095-.76-.19-1.521-.29-2.305-.587-1.864-.587-1.864-2.534-2.812L132 103l-1.832-1.07c-7.655-4.077-16.537-4.37-24.887-2.235C99.892 101.892 93.673 105.655 91 111c-.88 8.049-.88 8.049 2.313 15.125A325 325 0 0 0 99 130v2c-5.676 2.564-10.857 2.871-17 2-6.287-2.518-11.304-6.332-15-12v-4l-2.562.25c-4.59-.334-6.655-1.63-10.438-4.25-2.423-2.95-2.43-6.281-2.305-10.043.515-3.305 1.846-4.744 4.305-6.957 6.522-4.49 12.424-4.747 20.063-3.5L78 94v-2a701 701 0 0 1 6.563-3.437l1.845-.987c17.552-9.008 41.045-3.624 56.026 7.897"/><path fill="#DB6452" d="M196.2 62.355C203.2 67.33 209.21 73.74 212 82c.87 5.579-.47 10.647-2 16h-2l-.625 1.688c-2.93 4.926-7.586 8.026-12.988 9.796-10.497 2.268-18.448.221-27.387-5.484-6.838-4.516-11.414-11.242-14-19a100 100 0 0 1-.125-5.437l-.008-2.872c.118-2.392.452-4.404 1.133-6.691h2l.777-1.809c3.209-5.75 9.807-8.964 15.942-10.718 8.77-1.817 15.91.217 23.48 4.882"/><path fill="#C14E3E" d="M242.59 58.734c2.694 1.415 4.31 3.08 6.41 5.266a147 147 0 0 0 4.813 3.313c10.031 7.001 17.563 15.687 19.8 28.085.217 5.005.06 7.675-2.925 11.79-5.497 3.706-11.268 3.488-17.688 2.812-13.428-4.04-23.832-12.131-30.68-24.367C218.38 77.776 215.395 69.92 217 61c5.248-8.828 17.61-5.227 25.59-2.266"/><path fill="#6C271F" d="M104 145c3.442.353 5.069 1.046 8 3v2l1.75.875L120 154v2h2a249 249 0 0 1 3 4l3 2-4 1v2h-2l-.371 2.16C118.917 179.404 111.378 190.403 105 201c-28.57-3.688-58.093-15.906-78-37l1-3 1.477 1.871C35.707 170.314 42.614 175.262 51 180l1.855 1.055C63.695 187.099 78.422 195 91 195v-2l-1.793-.148c-5.138-.487-9.23-1.338-13.86-3.692-3.34-1.65-6.719-3.214-10.097-4.785L58 181v-2l2.84.219c26.123 2.533 26.123 2.533 51.16-3.219h2l-1-2c-2.871-.457-5.672-.8-8.562-1.062l-4.754-.473-2.352-.227c-3.453-.352-6.89-.793-10.332-1.238v-2l-2.2-.36c-7.15-1.635-15.057-6.068-20.8-10.64v-2l-3.375-.812C57 154 57 154 55 151c3.642.663 7.085 1.6 10.605 2.742l3.233 1.043 3.35 1.09c15.488 5.169 15.488 5.169 31.374 8.813l2.213.385c5.136.853 10.012 1.211 15.225.927-2.374-2.6-4.923-4.321-7.937-6.125l-2.59-1.57c-2.206-1.164-4.039-1.842-6.473-2.305a264 264 0 0 1-1.125-4.375l-.633-2.46L102 147z"/><path fill="#A83D2E" d="M234 32c13.826 1.934 28.627 21.275 36.651 31.78C279.856 76.37 287.361 89.915 294 104l1.398 2.938c9.815 22.004 15.576 49.62 7.602 73.062-3.63 8.961-8.451 20.052-17.742 24.234L283 205c.68-.64 1.361-1.279 2.063-1.937 14.837-15.048 18.353-30.965 18.303-51.4-.136-9.568-1.246-17.623-4.366-26.663q-.663-2.087-1.32-4.176c-4.151-12.776-10.077-24.652-16.868-36.222C280 83 280 83 280 81h-2l-1.437-2.937c-1.265-2.868-1.265-2.868-2.563-4.063l-1 2h-2l-1 7h-2c-1.227-1.504-1.227-1.504-2.625-3.562-5.066-6.955-11.412-11.69-18.687-16.176L245 62v-2l-2.23-.586-2.958-.789-2.917-.773c-2.717-.8-5.286-1.755-7.895-2.852l1-3 3.438-1.25c3.914-1.424 3.914-1.424 5-5.437L239 42h-2l-1-5h3l-3-1c-1.187-2.062-1.187-2.062-2-4"/><path fill="#BD4D3A" d="M146.688 35.625C149 38 149 38 149.398 40.859c-.717 5.659-5.203 8.626-9.398 12.141-3.273 2.338-5.865 4-10 4v2c-9.371 2.94-19.103 5.86-29 4-1.89-1.82-1.89-1.82-3-4 0-4.723.978-7.961 4.234-11.46 10.066-8.775 31.128-19.543 44.454-11.915"/><path fill="#CA5C4B" d="M276.188 135.438c4.963 4.522 10.321 9.886 11.05 16.832.169 5.78-.194 9.249-4.238 13.73-3.518 2.685-6.573 3.826-11 4-8.054-1.88-14.583-7.144-19.336-13.898-2.08-4.216-1.929-7.675-.664-12.102 4.9-9.45 14.313-13.016 24.188-8.562"/><path fill="#DC8A74" d="M226 113c3.5 1.625 3.5 1.625 6 4l2.875 2.625c2.892 4.594 2.88 8.087 2.125 13.375-.93 4.02-2.538 6.56-5.562 9.438-5.115 2.324-10.084 2.715-15.461.867-5.212-2.708-10.144-7.64-11.977-13.305-.647-4.312-.935-6.587 1.496-10.262 6.262-7.25 10.997-7.561 20.504-6.738"/><path fill="#D75F4E" d="M245 60c1.125 7.75 1.125 7.75 0 10-.556-.315-1.111-.63-1.684-.953-2.536-1.147-4.616-1.514-7.379-1.797l-2.597-.297c-2.616-.157-2.616-.157-5.34 2.047v3l2 1a678 678 0 0 1 2.914 5.285c1.35 2.132 3.015 3.31 5.086 4.715v2h2c2.125 1.5 2.125 1.5 4 4 .841 6.414-.455 9.683-4 15-11.433-5.717-18.331-17.472-22.309-29.187-1.297-5.28-2.226-11.231.649-16.067C224.908 51.838 237.729 56.85 245 60"/><path fill="#BD4C39" d="M182 69c4.338 1.468 7.995 3.498 11 7v2h2c2.135 4.27 2.891 8.308 2 13-2.005 3.04-3.582 4.484-7.02 5.734-4.611.937-7.596.347-11.605-2.109-5.664-4.29-10.802-9.188-12-16.375.656-3.41 1.522-5.5 3.625-8.25 3.722-1.861 7.938-1.439 12-1"/><path fill="#F3B599" d="M76.438 94.375C79 96 79 96 81 98c.761 4.923.511 8.959-1.687 13.438-2.979 3.3-6.696 6.237-11.231 6.8-5.935.194-9.27-.702-14.082-4.238-2.423-2.95-2.43-6.281-2.305-10.043.515-3.305 1.846-4.744 4.305-6.957 6.54-4.503 13.009-5.596 20.438-2.625"/><path fill="#83291F" d="M196 199c4.314.535 7.36 1.547 11.125 3.688 11.57 5.994 24.987 9.598 37.875 11.312v1c5.79.271 10.734-.677 16.313-2.187l2.534-.67c5.513-1.521 10.485-3.415 15.438-6.323L281 205l2 1c-26.03 14.278-54.997 14.906-84 12-2.631-6.483-3.393-12.023-3-19"/><path fill="#D08474" d="M217.43 20.684 219 22c-3.827-.633-7.063-1.795-10.625-3.312C196.978 14.214 184.245 11.512 172 11l-2.148-.121C133.37 9.82 99.422 23.567 72 47l-2.258 2.316C68 51 68 51 66 51l-2 4h-2l-1 3a151 151 0 0 1-3.352 3.371C50.661 68.276 44.998 75.546 40 84l5-5 2 10-5 1v2h5c.75 2.25.75 2.25 1 5-1.687 2.375-1.687 2.375-4 4-2.25-.25-2.25-.25-4-1v-6l-2 4h-2v-2l-3 1v-2h2v-3h2l-1-2c-5.13 7.987-9.16 16.342-13 25l-1.133 2.523c-1.076 3.074-1.536 6.067-1.992 9.29l-.508 3.519L19 133h-2c.789-31.126 26.92-62.248 48-83 35.855-33.772 106.688-61.012 152.43-29.316"/><path fill="#F4B89B" d="M202.332 28.719C206.543 30.656 209.326 32.5 211 37c.529 4.231.478 6.242-1.812 9.875-3.572 3.47-7.098 3.46-11.836 3.414C192.48 49.69 188.026 46.866 185 43c-1.198-3.593-1.33-6.227-1-10 4.711-5.968 11.266-6.459 18.332-4.281"/><path fill="#893126" d="m27 161 1.938 2q1.528 1.503 3.062 3l1.738 1.762C46.948 180.407 72.244 195 91 195v-2l-1.793-.148c-4.404-.417-8.18-.896-12.207-2.852l-2.187-1C73 188 73 188 71 186q7.153-.148 14.307-.22 2.432-.03 4.865-.082c2.333-.048 4.666-.071 7-.089l2.191-.062c3.584-.002 5.302.18 8.126 2.477L109 190q-.716 2.188-1.437 4.375l-.81 2.46C106 199 106 199 105 201c-28.192-3.64-56.376-15.625-76.82-35.457C27 164 27 164 27 161"/><path fill="#B54534" d="m236.063 66.125 2.66.195C241 67 241 67 242.309 69.055L243 71h3l.516 1.715.734 2.222.703 2.215c.898 2.054.898 2.054 3.156 2.602L253 80l-3 2c-.393 4.24-.325 7.367 2 11l-6-1-1 2-.25-1.812C243.795 89.4 242.355 88.67 240 87v-2h-2v-2l-1.75-.687c-2.867-1.673-4.387-3.585-6.25-6.313v-3l-3-1c.313-1.875.313-1.875 1-4 3.357-2.238 4.198-2.228 8.063-1.875"/><path fill="#986E43" d="M75 255c2.275 2.78 4.417 5.595 6.438 8.563 2.15 3.059 4.501 5.25 7.562 7.437l-3 5 2 1v3l3 1c1.188 2.563 1.188 2.563 2 5h2l.125 1.754c2.056 5.277 9.867 7.995 14.875 10.246 5.537 2.127 11.233 3.64 17 5l3.148.746c13.51 2.684 26.59 1.661 39.852-1.746q2.685-.605 5.375-1.187L179 300c-2.554 2.554-4.738 3.018-8.187 4.063l-3.356 1.035c-22.534 5.881-48.292 1.422-68.274-10.15C88.168 288.24 78.628 279.776 75 267c-.361-4.044-.318-7.955 0-12"/><path fill="#760E08" d="M256 51c6.318.818 10.287 7.277 14 12 22.7 30.56 40.487 68.144 35.574 107.059-2.253 12.18-7.92 24.84-17.574 32.941-2.742 1.234-2.742 1.234-5 2 .68-.64 1.361-1.279 2.063-1.937 14.837-15.048 18.353-30.965 18.303-51.4-.136-9.568-1.246-17.623-4.366-26.663q-.663-2.087-1.32-4.176c-4.151-12.776-10.077-24.652-16.868-36.222C280 83 280 83 280 81h-2l-1.242-2.64c-4.571-8.736-11.32-16.223-18.008-23.4C257 53 257 53 256 51"/><path fill="#D96250" d="M112 108c1.603-.081 3.208-.14 4.813-.187l2.707-.106c2.48.293 2.48.293 4.265 1.535 1.934 2.798 1.872 5.135 1.758 8.461-.837 3.541-2.654 5.167-5.54 7.266-3.191 1.642-5.503 1.614-9.003 1.031-4.6-2.2-4.6-2.2-6-5-.375-2.812-.375-2.812 0-6 2.375-2.875 2.375-2.875 5-5h2z"/><path fill="#EFAA90" d="m219.438 112.813 3.496-.043C226 113 226 113 229 115c-.812 2.438-.812 2.438-2 5l-3 1v2l-3.43 1.68-4.445 2.195-2.262 1.105-2.168 1.075-2 .984c-1.875.964-1.875.964-3.695 2.961-2.077-3.115-2.59-5.073-2.527-8.797 1.032-4.31 4.322-7.295 7.527-10.203 2.834-1.417 5.28-1.17 8.438-1.187"/><path fill="#67251C" d="M196 189c8.034 2.107 13.441 6.02 20 11 5.397 3.816 10.64 6.19 17 8v2l7 1v1c-7.502.463-13.51-.685-20.562-3.187l-2.67-.885c-5.268-1.808-10.002-3.998-14.776-6.87-2.234-1.289-2.234-1.289-5.992-2.058z"/><path fill="#AC3F30" d="M32 160h4v5h2v3c2.795 1.01 2.795 1.01 4.95 1.355 2.59.815 3.9 2.091 5.862 3.958 5.62 5.341 12.33 8.322 19.376 11.312 7.526 3.225 7.526 3.225 9.945 4.496 3.32 1.563 6.942 2.175 10.504 3L91 193l1 3c-6.984-.532-12.974-2.517-19.5-5l-3.204-1.215C56.174 184.675 38.81 177.441 31 165c.313-2.75.313-2.75 1-5"/><path fill="#D58676" d="M217.43 20.684 219 22c-3.827-.633-7.063-1.795-10.625-3.312C196.978 14.214 184.245 11.512 172 11l-2.148-.121c-35.23-1.022-68.147 11.736-95.032 33.906-2.292 1.8-4.223 2.988-6.82 4.215 3.835-4.795 7.76-8.737 12.75-12.312l1.954-1.408c34.647-24.393 96.383-41.165 134.726-14.596"/><path fill="#D8604D" d="m41 123 3 2c.655 5.455-.457 10.185-3 15-1.951 2.315-2.49 2.938-5.562 3.313C33 143 33 143 31 141c-1.266-6.225-1.346-11.363 2.25-16.937 2.65-1.61 4.72-1.379 7.75-1.063"/><path fill="#9E362B" d="m272 198 4 4 2-2h7l3-2v3c-1.687 1.465-1.687 1.465-4 2.938l-2.25 1.464c-6.575 3.82-12.873 6.465-20.25 8.348l-2.434.668c-5.17 1.349-9.726 1.802-15.066 1.582l1-2c2.223-.71 2.223-.71 5.063-1.375 8.093-2.097 16.82-5.384 21.312-12.937z"/><path fill="#C39667" d="m118 233 6 2v2h2c1.584 3.167 1.42 5.515 1 9-2.915 2.712-4.65 4.031-8.687 3.938-2.605-1.056-3.803-1.553-5.313-3.938-.51-3.383-.746-5.813 1.125-8.79 1.222-1.464 2.543-2.845 3.875-4.21"/><path fill="#C29264" d="M125 197h5c-.115 1.73-.243 3.459-.375 5.188-.07.962-.14 1.925-.21 2.917-.425 2.965-1.06 5.227-2.415 7.895-3.776 2.518-6.564 2.638-11 2-2-1.5-2-1.5-3-3 1.41-3.413 2.946-4.91 6-6.937 3.286-2.34 5.042-3.993 6-8.063"/><path fill="#EFA289" d="M258 80c2.875 1.5 2.875 1.5 5 4 .556 2.901.34 4.993 0 8-2 2-2 2-4.812 2.313-3.547-.348-5.349-1.204-8.188-3.313-1.522-3.043-1.239-5.654-1-9 3.513-2.342 4.865-2.496 9-2"/><path fill="#813126" d="m104.875 172.375 2.375.172c1.917.14 3.834.295 5.75.453l1 3c-1.952.74-3.904 1.478-5.863 2.2a130 130 0 0 0-4.95 1.988c-4.715 1.201-9.347.967-14.187.812l1-7c5.216-2.183 9.381-2.09 14.875-1.625"/><path fill="#9D362A" d="M293 109c2 1 2 1 3.105 4.02l1.082 3.793 1.106 3.769c.639 3.087.84 4.55-.293 7.418h-7v-3q-.474-3.504-1-7c-2.397-.68-2.397-.68-5-1l-2 2c.327 2.616.82 4.64 2 7l3 2c-2.312-.125-2.312-.125-5-1-2-2.625-2-2.625-3-6 .66-2.642 1.689-4.572 3-7h2l1-2c2.322-.407 4.657-.744 7-1z"/><path fill="#BA4635" d="m44 79 2 1-.062 2.813c-.096 3.21-.096 3.21 1.062 6.187l-5 1v2h5c.75 2.25.75 2.25 1 5-1.687 2.375-1.687 2.375-4 4-2.25-.25-2.25-.25-4-1v-6l-2 4h-2v-2l-3 1v-2h2v-3h2l-.312-2.687c.41-4.356 2.06-5.526 5.312-8.313z"/><path fill="#F5B499" d="M68.188 64.125C71 65 71 65 73 67c-.181 3.319-.45 5.997-2.062 8.938C67.636 77.748 64.72 77.295 61 77l-2-2c.077-4.18.405-6.32 3.188-9.5C65 64 65 64 68.188 64.125"/><path fill="#996B45" d="M180 270c2.611 2.263 2.962 3.624 3.313 7.063C183 280 183 280 181 283c-6.078.663-6.078.663-8.71-1.23-1.672-2.294-1.6-3.651-1.477-6.457l.082-2.45L171 271c3.3-1.1 5.544-1.36 9-1"/><path fill="#790C07" d="m27 161 1.938 2q1.528 1.503 3.062 3l1.738 1.762C52.294 185.525 78.683 193.002 103 199v1c-26.971-1.284-55.776-15.984-74.82-34.457C27 164 27 164 27 161"/><path fill="#996C48" d="m155.25 282.938 3.828.027L162 283c-.512 4.6-.512 4.6-2.707 6.398l-2.106.977-2.082 1.023c-2.436.697-3.74.42-6.105-.398v-2l-5-1v-4c3.754-1.204 7.332-1.099 11.25-1.062"/><path fill="#CD9E74" d="M181.438 221.75C184 222 184 222 187 224c.567 7.149.567 7.149-2 11-2.875-.25-2.875-.25-6-1-2.47-3.032-2.33-6.212-2-10 2-2 2-2 4.438-2.25"/><path fill="#A73A2E" d="M23 113h1l1 8h-2c-3.145 9.71-3.6 21.3 0 31a87 87 0 0 0 2.188 3.813C27 159 27 159 26.613 161.199L26 163a1622 1622 0 0 1-3.937-7.687l-1.131-2.186c-2.743-5.412-4.086-9.82-3.994-15.94l.027-2.394L17 133h2l.113-2.598c.371-6.454.822-11.672 3.887-17.402"/><path fill="#C29264" d="M146 220.125c4.497 1.312 4.497 1.312 6 3.875-.187 3.125-.187 3.125-1 6-3.043 1.522-5.654 1.239-9 1-2.155-3.233-2.469-4.252-2-8 1.755-2.924 2.567-3.018 6-2.875"/><path fill="#C09565" d="M91.438 251.125c3.154 1.077 4.564 2.211 6.562 4.875.313 2.688.313 2.688 0 5-1 1-1 1-3.812 1.313-3.188-.313-3.188-.313-5.5-2-1.831-2.509-2.348-4.254-2.688-7.313 3-2 3-2 5.438-1.875"/><path fill="#F6B99E" d="M174.625 123.125C177 124 177 124 179 127c-.375 3.188-.375 3.188-1 6-6.425 1.334-6.425 1.334-8.937-.125-1.439-2.539-1.566-4.003-1.063-6.875 2.226-2.473 3.283-3.034 6.625-2.875"/><path fill="#811D13" d="M256 51c6.39.828 10.275 7.226 14 12 6.035 8.285 11.577 16.746 16 26l-2 1c-4-6.75-4-6.75-4-9h-2l-1.242-2.64c-4.571-8.736-11.32-16.223-18.008-23.4C257 53 257 53 256 51"/><path fill="#DF6B58" d="M179 78c6.126.454 6.126.454 9 2.25 1 1.75 1 1.75.75 4.375C188 87 188 87 187 88c-2.812.375-2.812.375-6 0-2.437-2.25-2.437-2.25-4-5 .188-2.257.395-3.395 2-5"/><path fill="#BE4C3A" d="m128 18 1 2-1 2 2 2-3.395.84-4.418 1.098-2.236.552c-3.022.752-5.996 1.525-8.951 2.51v-2l-2-1 7-1v-2l-2-1 2.313-.875c7.87-3.295 7.87-3.295 11.687-3.125"/><path fill="#D37966" d="M285 116c2.5.188 2.5.188 5 1 2.15 3.224 2.383 4.267 2 8-2 2-2 2-4.437 2.375C285 127 285 127 283.125 125.313c-1.426-2.932-1.167-4.266-.125-7.313z"/><path fill="#AD6F4E" d="M115 182h3l2 5-2 2h-3c-2.24 2.8-3.089 4.202-2.687 7.813L113 199c-3.088 1.765-4.233 2-8 2 1.596-4.394 3.78-8.29 6.125-12.312l1.129-1.956q1.37-2.368 2.746-4.732"/><path fill="#F5AB90" d="M121.438 40.813C125 41 125 41 127 43c.313 2.5.313 2.5 0 5-3.233 2.155-4.252 2.469-8 2-1.875-1.187-1.875-1.187-3-3 .564-5.922.564-5.922 5.438-6.187"/><path fill="#86542D" d="m198 219 2 1c.67 2.142.67 2.142 1.254 4.96.215 1.03.43 2.06.65 3.122l.659 3.293c.22 1.048.442 2.096.67 3.176 1.885 9.217 3.24 18.222 2.33 27.637l-.31 3.355L205 268h-1l-.113-3.812c.419-17.58.419-17.58-4.887-33.188a145 145 0 0 1-.562-6.062l-.254-3.348z"/><path fill="#9D3B2D" d="M234 32c9.828 1.255 17.474 11.19 24 18l-3 1c-1.824-1.215-1.824-1.215-3.687-2.937l-1.887-1.715L248 45l-1 2-3-1 2-1v-4l-1.625-.812L242 39l-3.125-1.375c-2.959-1.672-3.792-2.484-4.875-5.625"/><path fill="#E58F78" d="M252 80c1.5 1 1.5 1 3 3 .273 2.718.135 5.257 0 8h2v2l4 1c-4.654.325-7.234-.202-11-3-1.522-3.043-1.239-5.654-1-9z"/><path fill="#C19465" d="M147 251c5.595.595 5.595.595 8 3-.375 3.625-.375 3.625-1 7-6.875-1.875-6.875-1.875-8-3-.125-3-.125-3 0-6z"/><path fill="#DB9485" d="m100 25 2 1-3.262 2.055c-8.347 5.304-16.378 10.768-24.101 16.949-2.2 1.666-4.17 2.82-6.637 3.996 3.937-4.961 8.03-8.897 13.188-12.562l1.97-1.421C88.463 31.255 93.939 27.42 100 25"/><path fill="#E7CAA5" d="m103 201 2 1-4.944 6.59a2554 2554 0 0 0-7.22 9.664l-1.614 2.166q-1.576 2.115-3.147 4.234l-1.473 1.975-1.303 1.752c-1.334 1.662-2.765 3.14-4.299 4.619 1.491-4.344 3.81-7.826 6.5-11.5l1.318-1.823c4.599-6.323 9.37-12.514 14.182-18.677"/><path fill="#A53D2D" d="M236 135h1c.363 4.476.363 4.476-1.125 6.625-5.854 4.293-9.917 4.706-17.027 3.887-4.618-.83-7.662-2.129-10.723-5.7L207 138l1-2 1.426 1.277 1.887 1.66 1.863 1.653c4.306 3.329 9.644 2.866 14.824 2.41 4.301-1.739 5.83-3.984 8-8"/><path fill="#CD5A46" d="M227 43c2.679.362 4.61.74 6.875 2.25C235 47 235 47 234.688 49.688L234 52c-2.679-.362-4.61-.74-6.875-2.25C226 48 226 48 226.313 45.313z"/><path fill="#F0987E" d="M45.688 92.313 48 93c-.367 2.717-.727 4.61-2.312 6.875C44 101 44 101 41.812 100.688L40 100c-.227-2.804-.34-4.462 1.188-6.875C43 92 43 92 45.688 92.313"/><path fill="#A13529" d="M293 184c3 1 3 1 3.938 2.688.098 3.637-1.765 5.493-3.938 8.312-1.297 1.369-2.618 2.717-4 4-.228-3.958.45-6.679 2-10.312l1.125-2.676z"/><path fill="#A44438" d="m220 189 7 1c.043 1.666.04 3.334 0 5-1 1-1 1-4.062 1.063L220 196c-1.125-4.75-1.125-4.75 0-7"/><path fill="#752C1F" d="M176 159v4l2 1v2c-5.605-.42-10.72-.916-16-3 2.49-.687 4.379-1 7-1l1.438-1.5C172 159 172 159 176 159"/><path fill="#B6503C" d="m178 125 5 2v7h-2l-1 2h-8v-2l6-1z"/><path fill="#BC5446" d="M62 164q3.012.43 6 1l1 5q-3.49.57-7 1c-1-1-1-1-1.125-3.5C61 165 61 165 62 164"/><path fill="#A13A2B" d="M231 113c2.375.688 2.375.688 5 2 2.742 5.072 3.132 10.322 3 16h-1l-.48-1.758c-1.232-4.124-2.349-7.394-5.27-10.617L230 116z"/><path fill="#F0AF93" d="M62 68c2 1 2 1 4 3l2-1-1 6q-3.5.061-7 0c-1-1-1-1-1.062-3.562L59 70h2z"/><path fill="#93704B" d="M77 268c2.494 1.247 2.646 2.116 3.75 4.625 1.847 3.912 4.158 6.756 7.176 9.832L89 284l-1 3c-11-11.758-11-11.758-11-19"/><path fill="#E37D6A" d="m259 136 2 1c-2.127 4.703-4.566 8.204-8 12h-1c.414-5.274 1.29-8.177 5-12z"/><path fill="#DBA67E" d="M147.563 181.938 150 182c.125 2.375.125 2.375 0 5l-2 2c-2.625-.375-2.625-.375-5-1 1.073-5.977 1.073-5.977 4.563-6.062"/><path fill="#9C623E" d="M184 187v5c-4.75 1.125-4.75 1.125-7 0v-5c3.133-1.044 3.99-.934 7 0"/><path fill="#742B21" d="m144 146 5 1 2 7-5 1-3-5 2-1z"/><path fill="#A53E32" d="M50 69c0 3.25-.768 5.03-2 8a91 91 0 0 0-1 4l-3-1-5 5c1.398-4.07 3.332-6.94 6.063-10.25l2.16-2.64c.895-1.063 1.794-2.127 2.777-3.11"/><path fill="#AD4635" d="M247 81h2l.402 2.117.536 2.758.527 2.742C250.9 91 250.9 91 252 93l-6-1-1 2c-.235-4.82.548-8.463 2-13"/><path fill="#7D2F1E" d="m196 199 4 1-1 1a185 185 0 0 0-.062 7.563l.013 2.154q.02 2.64.049 5.283l4 1-4 1c-2.631-6.483-3.393-12.023-3-19"/><path fill="#7A2D1F" d="m112 185 1 3c-1.215 2.262-1.215 2.262-2.937 4.688l-1.715 2.449L107 197l-1-2c.938-2.125.938-2.125 2-4l-2-2v-3c2-1 2-1 6-1"/><path fill="#CBA272" d="M104 216h2c-.64 3.447-1.997 5.846-3.937 8.75l-1.59 2.422L99 229h-2c1.342-5 3.484-9.19 7-13"/><path fill="#C25240" d="M205 24v4h-13v-3c4.394-.857 8.526-1.09 13-1"/><path fill="#C7A47D" d="M77 243h1l-1 14h-3c-.081-4.135-.142-8.002 1-12z"/><path fill="#BB4D3C" d="m52 110 .875 1.938c.953 2.214.953 2.214 3.125 3.062l-3 1-1 2-4-1v-5z"/><path fill="#BA5346" d="M87 152h5c.625 1.875.625 1.875 1 4l-2 2h-4c-1.125-3.75-1.125-3.75 0-6"/><path fill="#BE4B39" d="m50 96 4 1-4 9c-2.727-4.09-2.727-4.09-3-7 1.188-1.812 1.188-1.812 3-3"/><path fill="#A33D2F" d="M122 19v2l-3.062.313c-3.04.53-4.975 1.023-7.688 2.25C108 25 108 25 105 25l-1 3-3-2c16.436-8.521 16.436-8.521 21-7"/><path fill="#C7A078" d="m105 201 2 1c-1.5 3.114-3.082 6.122-5 9h-2l-1 2-2-1q1.717-2.47 3.438-4.937l1.933-2.778C104 202 104 202 105 201"/><path fill="#A34339" d="M247 192q2.514.428 5 1v5h-5a88 88 0 0 1-1-5z"/><path fill="#642212" d="M120 167c1.306 3.918.348 5.253-1.25 9l-1.328 3.188C116 182 116 182 113 185l2-9h2z"/><path fill="#F8B297" d="M213 115v4l-5 1-1 3a178 178 0 0 1-2 4c-.437-4.458-.514-6.347 2.313-9.937C210 115 210 115 213 115"/><path fill="#98251E" d="M20 148c2.76 1.38 3.294 3.086 4.688 5.813l1.386 2.644c1.002 2.75.959 3.858-.074 6.543a579 579 0 0 1-3-5.25l-1.687-2.953C20 152 20 152 20 148"/><path fill="#A43A2C" d="M251 143c.88 2.641 1.209 4.637 1.438 7.375.355 3.519 1.006 6.41 2.562 9.625-2.441-1.121-2.441-1.121-5-3-.777-2.848-.777-2.848-.937-6.062l-.215-3.223C249 145 249 145 251 143"/><path fill="#9F362C" d="M299 125c2.296 3.445 2.54 5.938 3 10l-3 1-1 2v-3h2v-2h-2z"/><path fill="#BD4A39" d="M40 90h2l1 3-1.937.813C38.669 94.887 38.669 94.887 38 98h-2v-2l-3 1v-2h2v-3l5-1z"/><path fill="#8D362C" d="m245 175 3 1v2h-16c5.033-2.517 7.341-3.199 13-3"/><path fill="#A64A3C" d="M85 172c2.063.438 2.063.438 4 1v5h-5a100 100 0 0 1 0-5z"/><path fill="#8A140F" d="m27 161 2.063 2.125c2.697 2.721 5.603 5.136 8.582 7.543L39 172v2c-3.372-1.466-5.65-3.352-8.25-5.937l-2.14-2.09C27 164 27 164 27 161"/><path fill="#BB4A3B" d="m210 21 3 1h-2l-.375 2.938L210 28l-2 1v-6h2zm-7 8h5l-1 3z"/><path fill="#EB7F6B" d="M167 20h5l-1 5-5-1z"/><path fill="#AD4731" d="m119.625 38.938 2.477.027L124 39l-1.898.91c-3.393 1.76-4.989 3.92-7.102 7.09l.125-2.375c.162-2.786.162-2.786-2.125-4.625 2.405-1.203 3.95-1.1 6.625-1.062"/><path fill="#C15241" d="m178 131 2 2h-2zm4 1 1 2h-2l-1 2h-8v-2z"/><path fill="#90281F" d="M256 51c3.6.556 5 1.749 7.25 4.563l1.578 1.94L266 59c-3.6-.556-5-1.749-7.25-4.562l-1.578-1.942z"/><path fill="#BE4D3B" d="m204 49 4 2-2 2 1 2-4 1-2-5z"/><path fill="#D6604C" d="M227 46h3v2l4 1v3c-4.75-.75-4.75-.75-7-3z"/><path fill="#AB845D" d="M190.688 288.375 193 289a105 105 0 0 1-4 5h-2l-2-4c3-2 3-2 5.688-1.625"/><path fill="#DEBE9C" d="m103 201 2 1-8 11-2-2z"/><path fill="#BF4B3B" d="M74 65c1.414 2.639 2.372 5.071 3 8l-4 2-1-3h2z"/><path fill="#CE8779" d="m66 49 3 1-3 1c-1.209 2-1.209 2-2 4h-2l-1 3-2-2z"/><path fill="#AF4934" d="m116 47 3 2c2.324.394 4.658.735 7 1-3.089 2.06-3.71 2.239-7.187 2.125L115 52c0-3 0-3 1-5"/><path fill="#9F724E" d="m152 284-3 1c-1.209 2-1.209 2-2 4l-3-1v-4c3.053-.981 4.947-.981 8 0"/><path fill="#BE4A39" d="M95 105c1 2 1 2 .063 5.125L94 113h-4c1.186-3.375 2.276-5.647 5-8"/><path fill="#BE4B39" d="M122 74c-1.062 1.563-1.062 1.563-3 3-3.687-.312-3.687-.312-7-1v-2c7.75-1.125 7.75-1.125 10 0"/><path fill="#F9B79C" d="M63 65c2.125.375 2.125.375 4 1h-2l1 3h-3l-1 1-2 2c.75-4.75.75-4.75 3-7"/><path fill="#D3A178" d="m145 182 3 1v4l-5-1z"/><path fill="#A36446" d="M120 170h4c-.564 3.27-1.5 4.826-4 7-.934-3.01-1.044-3.867 0-7"/><path fill="#FBB098" d="M216 113c1.604-.054 3.208-.093 4.813-.125l2.707-.07C226 113 226 113 229 115v2l-2-.937c-3.705-1.313-7.093-1.666-11-2.063z"/><path fill="#CA9D6C" d="m153 253 2 1-1 7-7-2c2.463-1.231 4.28-1.072 7-1z"/><path fill="#762C23" d="M104 145c2.625.375 2.625.375 5 1l-1.875 1.313c-2.345 1.684-2.345 1.684-4.125 4.687-.625-2.375-.625-2.375-1-5z"/><path fill="#DC7E6C" d="m283 122 7 3 1-2-1 4h-5z"/><path fill="#983225" d="M302 135h1l1 11-2-3-2 1z"/><path fill="#EA8F7C" d="m234 136 1 2c-4.308 4.923-4.308 4.923-7.812 5.313L225 143c2.05-1.025 4.08-2.034 6.188-2.937 2.156-.997 2.156-.997 2.812-4.063"/><path fill="#9A3224" d="M292 119h1v7l2 1-3 2-2-1z"/><path fill="#A23929" d="M247 81h2l-1 10-3-1z"/><path fill="#9A3429" d="M250 45c3.255.349 4.019 1.021 6.25 3.563L258 51c-3.255-.349-4.019-1.021-6.25-3.562z"/><path fill="#FDBFA3" d="M70 94c3.367-.23 5.414-.34 8.375 1.375L80 97v2l-1.625-.875C75.647 96.833 72.874 95.915 70 95z"/><path fill="#B24C43" d="M225 25c3.375 1.186 5.647 2.276 8 5-2.875-.25-2.875-.25-6-1-1.375-2.062-1.375-2.062-2-4"/></svg>