<?xml version="1.0" encoding="UTF-8"?>
<svg xmlns="http://www.w3.org/2000/svg" xmlns:xlink="http://www.w3.org/1999/xlink" viewBox="0 0 18.94 17.87">
  <defs>
    <style>
      .cls-1 {
        fill: url(#_Ѕезым_нный_градиент_141-6);
      }

      .cls-1, .cls-2, .cls-3, .cls-4, .cls-5, .cls-6, .cls-7, .cls-8, .cls-9, .cls-10, .cls-11, .cls-12, .cls-13, .cls-14, .cls-15, .cls-16, .cls-17, .cls-18, .cls-19, .cls-20, .cls-21, .cls-22, .cls-23, .cls-24, .cls-25, .cls-26, .cls-27, .cls-28, .cls-29, .cls-30, .cls-31, .cls-32, .cls-33, .cls-34, .cls-35, .cls-36, .cls-37, .cls-38, .cls-39, .cls-40, .cls-41, .cls-42, .cls-43, .cls-44, .cls-45, .cls-46, .cls-47, .cls-48, .cls-49, .cls-50, .cls-51, .cls-52, .cls-53, .cls-54, .cls-55, .cls-56, .cls-57 {
        fill-rule: evenodd;
      }

      .cls-1, .cls-3, .cls-4, .cls-7, .cls-8, .cls-11, .cls-14, .cls-17, .cls-20, .cls-24, .cls-25, .cls-28, .cls-32, .cls-33, .cls-34, .cls-35, .cls-38, .cls-44, .cls-49, .cls-52, .cls-58 {
        mix-blend-mode: multiply;
      }

      .cls-1, .cls-3, .cls-8, .cls-11, .cls-20, .cls-35, .cls-38, .cls-49, .cls-52 {
        opacity: .5;
      }

      .cls-2 {
        fill: url(#_Ѕезым_нный_градиент_100-5);
      }

      .cls-3 {
        fill: url(#_Ѕезым_нный_градиент_141-11);
      }

      .cls-4 {
        fill: url(#_Ѕезым_нный_градиент_141-2);
      }

      .cls-4, .cls-7, .cls-14, .cls-17, .cls-24, .cls-25, .cls-28, .cls-32, .cls-34, .cls-44 {
        opacity: .71;
      }

      .cls-5 {
        fill: url(#_Ѕезым_нный_градиент_32);
      }

      .cls-6 {
        fill: #f9b04e;
      }

      .cls-7 {
        fill: url(#_Ѕезым_нный_градиент_141-15);
      }

      .cls-8 {
        fill: url(#_Ѕезым_нный_градиент_141-7);
      }

      .cls-9 {
        fill: url(#_Ѕезым_нный_градиент_52);
      }

      .cls-59 {
        mix-blend-mode: soft-light;
      }

      .cls-10 {
        fill: url(#_Ѕезым_нный_градиент_148-4);
      }

      .cls-11 {
        fill: url(#_Ѕезым_нный_градиент_141-13);
      }

      .cls-12 {
        fill: url(#_Ѕезым_нный_градиент_103-3);
      }

      .cls-13 {
        fill: url(#_Ѕезым_нный_градиент_85);
      }

      .cls-14 {
        fill: url(#_Ѕезым_нный_градиент_141-5);
      }

      .cls-15 {
        fill: url(#_Ѕезым_нный_градиент_100-6);
      }

      .cls-16 {
        fill: url(#_Ѕезым_нный_градиент_103-5);
      }

      .cls-17 {
        fill: url(#_Ѕезым_нный_градиент_141-10);
      }

      .cls-18 {
        fill: url(#_Ѕезым_нный_градиент_103);
      }

      .cls-19 {
        fill: #f7a94d;
      }

      .cls-20 {
        fill: url(#_Ѕезым_нный_градиент_141-12);
      }

      .cls-21 {
        fill: url(#_Ѕезым_нный_градиент_148);
      }

      .cls-22 {
        fill: url(#_Ѕезым_нный_градиент_100-7);
      }

      .cls-23 {
        fill: url(#_Ѕезым_нный_градиент_60);
      }

      .cls-60 {
        isolation: isolate;
      }

      .cls-24 {
        fill: url(#_Ѕезым_нный_градиент_141-19);
      }

      .cls-25 {
        fill: url(#_Ѕезым_нный_градиент_141-4);
      }

      .cls-26 {
        fill: url(#_Ѕезым_нный_градиент_118);
      }

      .cls-27 {
        fill: #fbbc4c;
      }

      .cls-28 {
        fill: url(#_Ѕезым_нный_градиент_141-8);
      }

      .cls-29 {
        fill: url(#_Ѕезым_нный_градиент_60-2);
      }

      .cls-30 {
        fill: url(#_Ѕезым_нный_градиент_100-2);
      }

      .cls-31 {
        fill: url(#_Ѕезым_нный_градиент_153);
      }

      .cls-32 {
        fill: url(#_Ѕезым_нный_градиент_141-16);
      }

      .cls-33 {
        fill: url(#_Ѕезым_нный_градиент_141-14);
        opacity: .2;
      }

      .cls-34 {
        fill: url(#_Ѕезым_нный_градиент_141);
      }

      .cls-35 {
        fill: url(#_Ѕезым_нный_градиент_141-17);
      }

      .cls-36 {
        fill: url(#_Ѕезым_нный_градиент_122);
      }

      .cls-37 {
        fill: url(#_Ѕезым_нный_градиент_60-5);
      }

      .cls-38 {
        fill: url(#_Ѕезым_нный_градиент_141-9);
      }

      .cls-39 {
        fill: url(#_Ѕезым_нный_градиент_46);
      }

      .cls-40 {
        fill: url(#_Ѕезым_нный_градиент_60-3);
      }

      .cls-41 {
        fill: url(#_Ѕезым_нный_градиент_60-4);
      }

      .cls-42 {
        fill: url(#_Ѕезым_нный_градиент_103-4);
      }

      .cls-43 {
        fill: #f5a78a;
      }

      .cls-44 {
        fill: url(#_Ѕезым_нный_градиент_141-3);
      }

      .cls-45 {
        fill: url(#_Ѕезым_нный_градиент_153-2);
      }

      .cls-46 {
        fill: url(#_Ѕезым_нный_градиент_118-2);
      }

      .cls-47 {
        fill: url(#_Ѕезым_нный_градиент_103-2);
      }

      .cls-48 {
        fill: url(#_Ѕезым_нный_градиент_100-4);
      }

      .cls-49 {
        fill: url(#_Ѕезым_нный_градиент_141-20);
      }

      .cls-50 {
        fill: url(#_Ѕезым_нный_градиент_100-3);
      }

      .cls-51 {
        fill: #7d72b3;
      }

      .cls-52 {
        fill: url(#_Ѕезым_нный_градиент_141-18);
      }

      .cls-53 {
        fill: #f1844f;
      }

      .cls-58 {
        opacity: .3;
      }

      .cls-54 {
        fill: url(#_Ѕезым_нный_градиент_148-3);
      }

      .cls-55 {
        fill: url(#_Ѕезым_нный_градиент_100-8);
      }

      .cls-56 {
        fill: url(#_Ѕезым_нный_градиент_100);
      }

      .cls-57 {
        fill: url(#_Ѕезым_нный_градиент_148-2);
      }
    </style>
    <linearGradient id="_Ѕезым_нный_градиент_85" data-name="Ѕезым€нный градиент 85" x1="50.75" y1="-10.96" x2="50.75" y2="-17.19" gradientTransform="translate(-28.88 40.51) rotate(-17.76)" gradientUnits="userSpaceOnUse">
      <stop offset="0" stop-color="#53256a"/>
      <stop offset=".12" stop-color="#5d2a72"/>
      <stop offset=".37" stop-color="#6e3380"/>
      <stop offset=".65" stop-color="#783889"/>
      <stop offset=".99" stop-color="#7c3a8c"/>
    </linearGradient>
    <radialGradient id="_Ѕезым_нный_градиент_32" data-name="Ѕезым€нный градиент 32" cx="5.21" cy="6.03" fx="5.21" fy="6.03" r="13.56" gradientUnits="userSpaceOnUse">
      <stop offset="0" stop-color="#9e4864"/>
      <stop offset=".23" stop-color="#9a4663"/>
      <stop offset=".4" stop-color="#914261"/>
      <stop offset=".56" stop-color="#803a5e"/>
      <stop offset=".71" stop-color="#69305a"/>
      <stop offset=".85" stop-color="#4b2255"/>
      <stop offset=".87" stop-color="#452054"/>
      <stop offset=".98" stop-color="#48277b"/>
    </radialGradient>
    <linearGradient id="_Ѕезым_нный_градиент_141" data-name="Ѕезым€нный градиент 141" x1="4.65" y1="13.2" x2="8.17" y2="13.2" gradientUnits="userSpaceOnUse">
      <stop offset="0" stop-color="#ca538d"/>
      <stop offset="1" stop-color="#8f7191"/>
    </linearGradient>
    <linearGradient id="_Ѕезым_нный_градиент_141-2" data-name="Ѕезым€нный градиент 141" x1="13.46" y1="11.52" x2="16.81" y2="11.52" xlink:href="#_Ѕезым_нный_градиент_141"/>
    <linearGradient id="_Ѕезым_нный_градиент_141-3" data-name="Ѕезым€нный градиент 141" x1="16.74" y1="8.47" x2="17.98" y2="8.47" xlink:href="#_Ѕезым_нный_градиент_141"/>
    <linearGradient id="_Ѕезым_нный_градиент_141-4" data-name="Ѕезым€нный градиент 141" x1="2.06" y1="5.68" x2="16.81" y2="5.68" xlink:href="#_Ѕезым_нный_градиент_141"/>
    <linearGradient id="_Ѕезым_нный_градиент_46" data-name="Ѕезым€нный градиент 46" x1="2.06" y1="3.44" x2="15.89" y2="3.44" gradientUnits="userSpaceOnUse">
      <stop offset="0" stop-color="#de6863"/>
      <stop offset=".26" stop-color="#da6562"/>
      <stop offset=".46" stop-color="#d15c61"/>
      <stop offset=".64" stop-color="#c04c5f"/>
      <stop offset=".81" stop-color="#a9375d"/>
      <stop offset=".97" stop-color="#8b1c5a"/>
      <stop offset="1" stop-color="#86175a"/>
    </linearGradient>
    <linearGradient id="_Ѕезым_нный_градиент_52" data-name="Ѕезым€нный градиент 52" x1="3.6" y1="16.96" x2="3.6" y2="8.49" gradientUnits="userSpaceOnUse">
      <stop offset="0" stop-color="#86175a"/>
      <stop offset=".03" stop-color="#8b1b59"/>
      <stop offset=".19" stop-color="#a93157"/>
      <stop offset=".36" stop-color="#c04356"/>
      <stop offset=".54" stop-color="#d15054"/>
      <stop offset=".74" stop-color="#da5754"/>
      <stop offset=".99" stop-color="#de5a54"/>
    </linearGradient>
    <linearGradient id="_Ѕезым_нный_градиент_141-5" data-name="Ѕезым€нный градиент 141" x1="9.43" y1="16.09" x2="11.88" y2="16.09" xlink:href="#_Ѕезым_нный_градиент_141"/>
    <linearGradient id="_Ѕезым_нный_градиент_60" data-name="Ѕезым€нный градиент 60" x1="17.58" y1="7.97" x2="17.58" y2="4.73" gradientUnits="userSpaceOnUse">
      <stop offset="0" stop-color="#86175a"/>
      <stop offset=".07" stop-color="#8b1c59"/>
      <stop offset=".33" stop-color="#9a2d56"/>
      <stop offset=".62" stop-color="#a33655"/>
      <stop offset=".99" stop-color="#a63a55"/>
    </linearGradient>
    <linearGradient id="_Ѕезым_нный_градиент_60-2" data-name="Ѕезым€нный градиент 60" x1="15.27" y1="11.62" x2="15.27" y2="7.75" xlink:href="#_Ѕезым_нный_градиент_60"/>
    <linearGradient id="_Ѕезым_нный_градиент_100" data-name="Ѕезым€нный градиент 100" x1="7.84" y1="3.93" x2="7.84" y2="0" gradientUnits="userSpaceOnUse">
      <stop offset="0" stop-color="#f5a057"/>
      <stop offset=".12" stop-color="#f39557"/>
      <stop offset=".36" stop-color="#f08457"/>
      <stop offset=".64" stop-color="#ef7b57"/>
      <stop offset=".99" stop-color="#ef7858"/>
    </linearGradient>
    <linearGradient id="_Ѕезым_нный_градиент_103" data-name="Ѕезым€нный градиент 103" x1="11.59" y1="5.63" x2="11.59" y2="1.78" gradientUnits="userSpaceOnUse">
      <stop offset="0" stop-color="#ef7d58"/>
      <stop offset=".17" stop-color="#ef7b58"/>
      <stop offset=".99" stop-color="#ef7858"/>
    </linearGradient>
    <linearGradient id="_Ѕезым_нный_градиент_100-2" data-name="Ѕезым€нный градиент 100" x1="2.06" y1="4.75" x2="5.66" y2="4.75" xlink:href="#_Ѕезым_нный_градиент_100"/>
    <linearGradient id="_Ѕезым_нный_градиент_118" data-name="Ѕезым€нный градиент 118" x1="14" y1="8.34" x2="16.94" y2="8.34" gradientUnits="userSpaceOnUse">
      <stop offset="0" stop-color="#c85458"/>
      <stop offset=".08" stop-color="#ce5757"/>
      <stop offset=".34" stop-color="#df5e55"/>
      <stop offset=".63" stop-color="#e86354"/>
      <stop offset=".99" stop-color="#ec6554"/>
    </linearGradient>
    <linearGradient id="_Ѕезым_нный_градиент_100-3" data-name="Ѕезым€нный градиент 100" x1="0" y1="10.04" x2="4.65" y2="10.04" xlink:href="#_Ѕезым_нный_градиент_100"/>
    <linearGradient id="_Ѕезым_нный_градиент_100-4" data-name="Ѕезым€нный градиент 100" x1=".48" y1="12.51" x2="4.34" y2="12.51" xlink:href="#_Ѕезым_нный_градиент_100"/>
    <linearGradient id="_Ѕезым_нный_градиент_60-3" data-name="Ѕезым€нный градиент 60" x1="10.47" y1="16.61" x2="10.47" y2="14.73" xlink:href="#_Ѕезым_нный_градиент_60"/>
    <linearGradient id="_Ѕезым_нный_градиент_122" data-name="Ѕезым€нный градиент 122" x1="9.35" y1="15.25" x2="11.17" y2="15.25" gradientUnits="userSpaceOnUse">
      <stop offset="0" stop-color="#c85458"/>
      <stop offset=".26" stop-color="#d25149"/>
      <stop offset=".58" stop-color="#d94f40"/>
      <stop offset=".99" stop-color="#dc4f3d"/>
    </linearGradient>
    <linearGradient id="_Ѕезым_нный_градиент_141-6" data-name="Ѕезым€нный градиент 141" x1="3.12" y1="12.87" x2="7.19" y2="12.87" xlink:href="#_Ѕезым_нный_градиент_141"/>
    <linearGradient id="_Ѕезым_нный_градиент_141-7" data-name="Ѕезым€нный градиент 141" x1="10.52" y1="15.76" x2="11.59" y2="15.76" xlink:href="#_Ѕезым_нный_градиент_141"/>
    <linearGradient id="_Ѕезым_нный_градиент_141-8" data-name="Ѕезым€нный градиент 141" x1="15.27" y1="9.96" x2="17.1" y2="9.96" xlink:href="#_Ѕезым_нный_градиент_141"/>
    <linearGradient id="_Ѕезым_нный_градиент_141-9" data-name="Ѕезым€нный градиент 141" x1="16.88" y1="5.31" x2="17.58" y2="5.31" xlink:href="#_Ѕезым_нный_градиент_141"/>
    <linearGradient id="_Ѕезым_нный_градиент_141-10" data-name="Ѕезым€нный градиент 141" x1="16.74" y1="6.52" x2="18.94" y2="6.52" xlink:href="#_Ѕезым_нный_градиент_141"/>
    <linearGradient id="_Ѕезым_нный_градиент_103-2" data-name="Ѕезым€нный градиент 103" x1="30.91" y1="-13.72" x2="32.2" y2="-13.72" gradientTransform="translate(-11.77 24.43) rotate(-10.3)" xlink:href="#_Ѕезым_нный_градиент_103"/>
    <linearGradient id="_Ѕезым_нный_градиент_103-3" data-name="Ѕезым€нный градиент 103" x1="31.56" y1="-13.55" x2="33.62" y2="-13.55" gradientTransform="translate(-11.77 24.43) rotate(-10.3)" xlink:href="#_Ѕезым_нный_градиент_103"/>
    <linearGradient id="_Ѕезым_нный_градиент_141-11" data-name="Ѕезым€нный градиент 141" x1="7.84" y1="2.65" x2="13.9" y2="2.65" xlink:href="#_Ѕезым_нный_градиент_141"/>
    <linearGradient id="_Ѕезым_нный_градиент_141-12" data-name="Ѕезым€нный градиент 141" x1="9.71" y1="5.8" x2="11.24" y2="5.8" xlink:href="#_Ѕезым_нный_градиент_141"/>
    <linearGradient id="_Ѕезым_нный_градиент_141-13" data-name="Ѕезым€нный градиент 141" x1="12.38" y1="4.52" x2="15.89" y2="4.52" xlink:href="#_Ѕезым_нный_градиент_141"/>
    <linearGradient id="_Ѕезым_нный_градиент_141-14" data-name="Ѕезым€нный градиент 141" x1="2.71" y1="5.84" x2="5.3" y2="5.84" xlink:href="#_Ѕезым_нный_градиент_141"/>
    <linearGradient id="_Ѕезым_нный_градиент_141-15" data-name="Ѕезым€нный градиент 141" x1="5.78" y1="8.9" x2="7.75" y2="8.9" xlink:href="#_Ѕезым_нный_градиент_141"/>
    <linearGradient id="_Ѕезым_нный_градиент_141-16" data-name="Ѕезым€нный градиент 141" x1="6.58" y1="10.38" x2="7.67" y2="10.38" xlink:href="#_Ѕезым_нный_градиент_141"/>
    <linearGradient id="_Ѕезым_нный_градиент_148" data-name="Ѕезым€нный градиент 148" x1="6.62" y1="9.24" x2="6.62" y2="7.5" gradientUnits="userSpaceOnUse">
      <stop offset="0" stop-color="#a31259"/>
      <stop offset=".18" stop-color="#b22457"/>
      <stop offset=".51" stop-color="#ca4155"/>
      <stop offset=".79" stop-color="#d85354"/>
      <stop offset=".99" stop-color="#de5a54"/>
    </linearGradient>
    <linearGradient id="_Ѕезым_нный_градиент_148-2" data-name="Ѕезым€нный градиент 148" x1="7.01" y1="10.65" x2="7.01" y2="9.8" xlink:href="#_Ѕезым_нный_градиент_148"/>
    <linearGradient id="_Ѕезым_нный_градиент_141-17" data-name="Ѕезым€нный градиент 141" x1="6.82" y1="8.63" x2="7.74" y2="8.63" xlink:href="#_Ѕезым_нный_градиент_141"/>
    <linearGradient id="_Ѕезым_нный_градиент_148-3" data-name="Ѕезым€нный градиент 148" x1="1.2" y1="7.82" x2="1.2" y2="6.18" xlink:href="#_Ѕезым_нный_градиент_148"/>
    <linearGradient id="_Ѕезым_нный_градиент_100-5" data-name="Ѕезым€нный градиент 100" x1="6.62" y1="8.5" x2="6.62" y2="7.4" xlink:href="#_Ѕезым_нный_градиент_100"/>
    <linearGradient id="_Ѕезым_нный_градиент_141-18" data-name="Ѕезым€нный градиент 141" x1="6.69" y1="10.44" x2="7.44" y2="10.44" xlink:href="#_Ѕезым_нный_градиент_141"/>
    <linearGradient id="_Ѕезым_нный_градиент_103-4" data-name="Ѕезым€нный градиент 103" x1="6.99" y1="10.36" x2="6.99" y2="9.79" xlink:href="#_Ѕезым_нный_градиент_103"/>
    <linearGradient id="_Ѕезым_нный_градиент_141-19" data-name="Ѕезым€нный градиент 141" x1="25.04" y1="252.29" x2="26.29" y2="252.29" gradientTransform="translate(264.58 58.21) rotate(105.5)" xlink:href="#_Ѕезым_нный_градиент_141"/>
    <linearGradient id="_Ѕезым_нный_градиент_148-4" data-name="Ѕезым€нный градиент 148" x1="25.47" y1="252.64" x2="25.47" y2="251.79" gradientTransform="translate(264.58 58.21) rotate(105.5)" xlink:href="#_Ѕезым_нный_градиент_148"/>
    <linearGradient id="_Ѕезым_нный_градиент_141-20" data-name="Ѕезым€нный градиент 141" x1="25.14" y1="252.42" x2="25.9" y2="252.42" gradientTransform="translate(264.58 58.21) rotate(105.5)" xlink:href="#_Ѕезым_нный_градиент_141"/>
    <linearGradient id="_Ѕезым_нный_градиент_103-5" data-name="Ѕезым€нный градиент 103" x1="25.44" y1="252.34" x2="25.44" y2="251.78" gradientTransform="translate(264.58 58.21) rotate(105.5)" xlink:href="#_Ѕезым_нный_градиент_103"/>
    <linearGradient id="_Ѕезым_нный_градиент_153" data-name="Ѕезым€нный градиент 153" x1="3.6" y1="14.58" x2="6.29" y2="14.58" gradientUnits="userSpaceOnUse">
      <stop offset="0" stop-color="#86175a"/>
      <stop offset=".23" stop-color="#8a174d"/>
      <stop offset=".57" stop-color="#8e1744"/>
      <stop offset=".99" stop-color="#901741"/>
    </linearGradient>
    <linearGradient id="_Ѕезым_нный_градиент_100-6" data-name="Ѕезым€нный градиент 100" x1="3.6" y1="14.58" x2="5.82" y2="14.58" xlink:href="#_Ѕезым_нный_градиент_100"/>
    <linearGradient id="_Ѕезым_нный_градиент_60-4" data-name="Ѕезым€нный градиент 60" x1="6.54" y1="4.18" x2="6.54" y2="3.24" xlink:href="#_Ѕезым_нный_градиент_60"/>
    <linearGradient id="_Ѕезым_нный_градиент_100-7" data-name="Ѕезым€нный градиент 100" x1="5.3" y1="3.75" x2="7.78" y2="3.75" xlink:href="#_Ѕезым_нный_градиент_100"/>
    <linearGradient id="_Ѕезым_нный_градиент_60-5" data-name="Ѕезым€нный градиент 60" x1="1.23" y1="14.09" x2="1.23" y2="13.51" xlink:href="#_Ѕезым_нный_градиент_60"/>
    <linearGradient id="_Ѕезым_нный_градиент_100-8" data-name="Ѕезым€нный градиент 100" x1=".86" y1="13.83" x2="1.59" y2="13.83" xlink:href="#_Ѕезым_нный_градиент_100"/>
    <linearGradient id="_Ѕезым_нный_градиент_153-2" data-name="Ѕезым€нный градиент 153" x1="15.85" y1="8.65" x2="16.56" y2="8.65" xlink:href="#_Ѕезым_нный_градиент_153"/>
    <linearGradient id="_Ѕезым_нный_градиент_118-2" data-name="Ѕезым€нный градиент 118" x1="15.85" y1="8.65" x2="16.56" y2="8.65" xlink:href="#_Ѕезым_нный_градиент_118"/>
  </defs>
  <g class="cls-60">
    <g id="_Шар_1" data-name="Шар 1">
      <g>
        <path class="cls-13" d="M12.27,14.83l2.6.15s2.15-.65,3.23-2.02l.51-2.85-.83-2.6-4.53,2.9s-1.03,3.48-.96,4.42Z"/>
        <path class="cls-5" d="M17.97,9.43c0,.81-.11,1.6-.33,2.34-.43,1.49-1.26,2.81-2.36,3.84-.79.74-1.72,1.32-2.75,1.71-.93.35-1.94.55-3,.55-.15,0-.3,0-.45-.01h0c-.22-.01-.44-.03-.66-.06-1.63-.21-3.11-.89-4.31-1.9-.45-.38-.86-.8-1.22-1.26-.27-.35-.52-.72-.74-1.11-.05-.09-.1-.19-.15-.28,0,0,0,0,0,0-.05-.1-.1-.2-.15-.31h0c-.15-.32-.27-.66-.38-1-.08-.25-.14-.5-.2-.76,0,0,0,0,0,0-.04-.18-.07-.36-.09-.55-.06-.39-.09-.79-.09-1.2,0-.23,0-.47.03-.69.01-.15.03-.29.05-.43.11-.83.34-1.62.68-2.36.16-.36.35-.71.56-1.04.35-.56.77-1.07,1.24-1.52,1.52-1.48,3.59-2.39,5.88-2.39.09,0,.18,0,.27,0,.09,0,.19,0,.28.01.48.03.96.1,1.42.21.27.06.53.14.79.23.17.06.35.12.51.2.13.05.25.11.37.17.02.01.04.02.06.03.82.4,1.56.93,2.21,1.56.09.09.18.18.27.28.06.06.12.13.17.2.1.11.19.23.29.34.34.43.63.89.88,1.38.29.57.52,1.17.67,1.8.16.65.25,1.33.25,2.03Z"/>
        <path class="cls-34" d="M4.65,8.78s1.49,1.33,1.86,1.88c.37.55,1.62,4.3,1.65,5.09.03.79-.71,1.86-.71,1.86,0,0-1.27-.36-1.98-.78l.43-2.95-1.26-5.11Z"/>
        <path class="cls-4" d="M13.46,11.26l2.33,1.16s.46.31,1.01-.27c0,0,.06-.81-.28-1.6l-3.07.71Z"/>
        <g class="cls-58">
          <path class="cls-51" d="M4.89,9.22c-.19.81-.07,1.66.22,2.44.06.17.13.38.24.53.08.12.22.19.33.28.15.11.28.24.43.36.17.13.33.21.53.28.38.14.76.24,1.16.12.36-.11.7-.36.91-.67.1-.14.21-.27.31-.41.1-.14.16-.31.22-.46.12-.31.16-.7.14-1.03-.01-.16-.03-.32-.07-.47-.04-.16-.11-.31-.14-.47-.05-.27-.17-.5-.28-.75-.27-.62-.95-.99-1.59-1.08-.3-.04-.59.03-.89.07-.31.05-.54.19-.81.33-.16.08-.32.17-.44.31-.27.33-.31.8-.28.64Z"/>
          <path class="cls-51" d="M7.44,13.71c.14-.13.34-.28.52-.34.13-.04.24,0,.35.08.21.15.17.49,0,.67-.3.32-.87.06-.86-.34v-.06Z"/>
          <path class="cls-51" d="M10.35,11.02c-.08-.11-.14-.15-.14-.26,0-.08.1-.24.14-.33.13-.24.34-.42.61-.5.18-.06.36-.09.55-.09.17,0,.32.05.48.1.3.1.62.25.84.48.2.22.17.61,0,.83-.14.17-.34.27-.52.39-.2.13-.41.29-.64.35-.15.04-.25.06-.4.02-.14-.04-.26-.08-.38-.15-.12-.06-.21-.08-.3-.18-.09-.08-.16-.17-.21-.27-.08-.15-.05-.33,0-.4Z"/>
          <path class="cls-51" d="M9.71,9.49c-.03.11-.11.33.09.32.09,0,.22-.08.27-.14.2-.23-.27-.39-.32-.18h-.04Z"/>
          <path class="cls-51" d="M12.65,15.01c-.09-.2-.12-.27-.05-.49.1-.32.25-.66.42-.95.11-.18.24-.43.44-.52.16-.07.35-.11.52-.12.38-.02.67.16.94.41.17.15.31.28.4.49.08.18.13.43.11.63-.06.57-.55.98-.92,1.37-.29.31-.78.7-1.23.53-.31-.11-.5-.45-.63-.74-.09-.19-.05-.41,0-.62Z"/>
          <path class="cls-51" d="M12.15,13.51c-.11.09-.15.2-.17.34-.02.1-.06.33.04.42.09.07.25-.05.32-.1.06-.04.11-.08.15-.14.02-.03.06-.05.07-.09.02-.06.01-.14.01-.2,0-.08-.05-.14-.1-.19-.04-.04-.08-.05-.14-.07-.07-.01-.15-.04-.18.02Z"/>
          <path class="cls-51" d="M8.94,17.22s-.02.05,0,.09c.02.03.07.08.1.1.09.08.18.1.29.13.11.02.22.04.34.02.07-.01.16-.03.21-.09.09-.11.01-.28-.04-.39-.04-.08-.11-.16-.16-.23-.05-.08-.13-.16-.21-.22-.1-.08-.24-.19-.37-.1-.12.08-.18.23-.21.37-.02.08-.01.16.01.24.02.05.06.09.05.1Z"/>
          <path class="cls-51" d="M15.79,13.95c-.07-.06-.09-.06-.08-.14,0-.08.01-.16.04-.24.07-.17.2-.3.33-.42.08-.07.17-.11.26-.14.05-.02.09-.04.14-.03.09.01.15.07.17.15.04.13-.02.27-.09.38-.09.14-.16.29-.3.38-.07.04-.14.08-.21.12-.04.02-.09.04-.14.04-.03,0-.14-.03-.13-.1Z"/>
          <path class="cls-51" d="M2.01,8.1c.02.07.02.15.05.22.05.15.16.28.27.39.21.21.51.29.79.35.15.03.3.05.45.06.12,0,.25.03.37.02.2-.02.39-.07.57-.18.26-.15.47-.39.38-.7-.05-.17-.16-.32-.28-.44-.14-.13-.24-.27-.42-.35-.08-.04-.16-.07-.24-.1-.1-.04-.19-.09-.29-.11-.08-.01-.17-.05-.26-.05-.08,0-.17,0-.26,0-.3.02-.62.2-.83.42-.08.09-.15.18-.24.27-.08.08-.07.17-.07.21Z"/>
          <path class="cls-51" d="M8.26,5.97c-.08.13-.12.16-.13.32-.02.2,0,.38.05.57.11.44.45.79.74,1.12.48.54,1.02,1.03,1.68,1.34.26.12.53.26.83.22.29-.04.55-.15.82-.23.24-.08.5-.15.75-.18.12-.02.23-.03.35-.04.17-.02.32-.09.48-.14.24-.07.48-.11.72-.19.11-.03.21-.08.31-.13.16-.08.34-.14.5-.22.6-.33,1.01-1,1.04-1.69.02-.35-.11-.72-.29-1.02-.1-.17-.23-.32-.34-.49-.14-.21-.31-.4-.5-.58-.34-.33-.73-.54-1.18-.68-.25-.08-.48-.11-.74-.11-.4,0-.8.06-1.19.13-.39.08-.79.16-1.17.27-.4.11-.81.29-1.19.46-.39.18-.73.43-.98.78-.06.08-.12.16-.18.24-.04.06-.07.11-.13.16-.11.08-.22.1-.26.08Z"/>
        </g>
        <path class="cls-44" d="M16.74,7.5l1.23,1.93s.04-1.29-.14-1.55c-.18-.26-1.09-.38-1.09-.38Z"/>
        <path class="cls-25" d="M2.06,6.05s2.41,1.56,9,1.26l2.65.2s2.52-.86,3.09-2.37c0,0-.74-1.07-.92-1.27s-3.28.47-3.28.47l-10.55,1.7Z"/>
        <path class="cls-39" d="M2.41,4.42v-.49s1.33-1.72,3.53-3.61c0,0,5.7-.5,7.32,0l.64,1.47,1.89.72.09,1.38s-1.24,1.97-3.5,2.66l-1.14-.27s-1.25.52-4.56.52-4.62-.74-4.62-.74v-1.13l.36-.5Z"/>
        <path class="cls-9" d="M7.19,15.11l-.55,1.45-1.71.41-1.73-.08s-1.83-1.16-2.71-3l.19-1.67L.03,11.61s-.16-1.56,1.14-2.99c0,0,1.43-.4,3.48.15l1.26,1.4s1.03,1.97,1.28,4.94Z"/>
        <path class="cls-14" d="M9.43,16.1s.39.51.62.61c.24.1,1.55.4,1.7.39s.15-1.41.07-1.63c-.08-.22-.24-.4-.24-.4l-2.16,1.03Z"/>
        <path class="cls-23" d="M18.94,5.63l-.07.55-.96,1.79c-.54.01-1.11-.42-1.18-.47,0,0,0,0,0,0-.38-.63-.52-2.01-.52-2.01l.45-.55.74-.13.19.11.65-.18.51.33.15.1.05.48Z"/>
        <path class="cls-29" d="M16.94,8.32s-1.07-.59-1.6-.57l-1.34.92s-.54,1.48-.55,2.59c0,0,1.29.47,2.2.34,0,0,1.04-.46,1.39-1.22,0,0,.14-1.3-.11-2.06Z"/>
        <path class="cls-56" d="M2.41,3.93s2.48.08,5.21-.62c0,0,2.77-.97,3.31-1.34.54-.37,2.33-1.65,2.33-1.65,0,0-2.84-.71-7.32,0,0,0-2.36,1.76-3.53,3.61Z"/>
        <path class="cls-18" d="M13.9,1.78s-1.72,1.98-1.92,2.15c-.2.16-3.01,1.29-3.01,1.29l-1.58.41s1.98-.02,2.32,0l.63-.61,2.18.09s2-1.21,3.27-2.61l-1.89-.72Z"/>
        <path class="cls-30" d="M2.06,4.91l1.76.17s1.17.05,1.85-.18c0,0-2.35-.11-3.24-.49l-.36.5Z"/>
        <path class="cls-26" d="M14,8.67s.77.29,1.27.25c.5-.03,1.66-.6,1.66-.6,0,0-.53-.46-1.6-.57l-1.34.92Z"/>
        <path class="cls-50" d="M.03,11.61s2.32-.51,2.95-.76c.64-.26,1.67-2.07,1.67-2.07,0,0-1.27-.59-3.48-.16,0,0-1.37,1.28-1.14,2.99Z"/>
        <path class="cls-48" d="M.67,12.21s1.62-.21,2.2-.37c.57-.16,1.47-.71,1.47-.71,0,0-.69,1.56-.94,1.92,0,0-1.93.73-2.92.84,0,0-.05-.87.19-1.67Z"/>
        <path class="cls-40" d="M9.35,15.71s.37-.81.81-.99c0,0,1.05,0,1.43.34l-.25,1.54-1.45-.1s-.54-.28-.54-.79Z"/>
        <path class="cls-36" d="M9.35,15.71s.46.13.88,0c.42-.13.94-.81.94-.81,0,0-.34-.22-1.01-.17,0,0-.69.29-.81.99Z"/>
        <path class="cls-1" d="M7.19,15.11l-.55,1.45-1.71.41-1.73-.08s1.71-.11,1.76-.36c.05-.25.17-.98.17-.98-.42-1.26-1.72-2.5-1.72-2.5.54-.77.94-1.92.94-1.92l-.74.41-.48-.77c.8-.71,1.52-1.99,1.52-1.99l1.26,1.4s1.03,1.97,1.28,4.94Z"/>
        <polygon class="cls-8" points="10.52 15.55 11.34 16.61 11.59 15.07 11.17 14.9 10.52 15.55"/>
        <path class="cls-28" d="M15.27,8.92s.28.98.32,1.38c.03.4.07,1.3.07,1.3,0,0,.78-.26,1.39-1.22,0,0,.16-1.11-.11-2.06,0,0-1.02.52-1.66.6Z"/>
        <path class="cls-38" d="M16.88,5.65l.21.16s.45-.18.46-.41c.01-.23.03-.48.03-.48l-.18-.11-.52.85Z"/>
        <path class="cls-17" d="M18.94,5.63l-.07.55-.96,1.79c-.54.01-1.11-.42-1.18-.47.48.32.99.29.99.29,0,0,.03-.56,0-.92-.03-.35-.29-1.06-.29-1.06l1.3-.76.15.1.05.48Z"/>
        <path class="cls-47" d="M17.4,4.81l-.52.85s-.31.08-.67-.16l.45-.55.74-.13Z"/>
        <path class="cls-12" d="M17.58,4.91l-.03.48s-.26.34-.61.49c0,0,.67-.07.98-.21,0,0,.8-.32.98-.53l-.66-.42-.65.18Z"/>
        <path class="cls-3" d="M7.84,3.21l1.7,1.79,2.44-1.06s1.79-1.96,1.92-2.15l-.64-1.47s-1.76,1.21-2.33,1.65c-.57.44-3.1,1.24-3.1,1.24Z"/>
        <path class="cls-20" d="M10.34,5.01l.9,1.26s-.69.23-1.42.32l-.11-.96.63-.61Z"/>
        <path class="cls-11" d="M12.52,5.1l-.14,1.44s2.37-.85,3.5-2.66l-.09-1.38s-1.81,1.7-3.27,2.61Z"/>
        <path class="cls-33" d="M2.71,4.98l1.64,1.72h.81l.15-1.7s-1.83.17-2.6-.02Z"/>
        <g class="cls-59">
          <path class="cls-43" d="M3.07,3.37c-.03-.09-.01-.13.04-.22.08-.14.19-.25.29-.38.19-.24.4-.46.65-.64.27-.18.53-.37.81-.53.19-.11.39-.21.59-.29.15-.05.3-.09.44-.14.29-.09.69-.13.97.02.17.09.24.26.3.43.03.09.06.16.04.25-.01.08-.06.16-.09.24-.12.24-.33.46-.54.63-.42.34-.89.59-1.39.76-.14.05-.27.1-.41.13-.09.02-.18.03-.27.05-.21.05-.42.1-.64.12-.06,0-.13.03-.18.03-.05,0-.1-.03-.16-.04-.09-.02-.21-.01-.29-.05-.21-.11-.23-.34-.16-.38Z"/>
          <path class="cls-43" d="M6.53,3.12c.02-.09.01-.09.07-.14.03-.05.07-.09.11-.12.05-.04.11-.08.17-.11.17-.09.38-.2.58-.14.13.04.21.1.18.25-.02.08-.09.17-.15.22-.12.09-.25.15-.38.2-.1.04-.25.07-.37.04-.1-.02-.21-.13-.2-.2Z"/>
          <path class="cls-43" d="M9.48.69c-.16.05-.24.08-.37.17-.19.13-.4.26-.57.41-.11.1-.22.21-.3.34-.06.1-.08.22-.09.33,0,.12.03.33.16.38.05.02.14,0,.19,0,.12,0,.21-.02.32-.05.11-.03.22-.03.33-.07.11-.03.22-.06.33-.09.24-.06.47-.12.7-.22.21-.1.43-.18.64-.29.15-.08.3-.16.45-.23.21-.1.43-.19.63-.3.09-.05.15-.1.22-.17.07-.07.15-.13.2-.21.02-.04.08-.11.07-.15,0-.06-.09-.13-.13-.16-.08-.05-.19-.08-.28-.09-.13-.02-.28-.03-.41-.02-.16.01-.33.03-.49.06-.11.02-.2.05-.31.05-.19,0-.38.02-.57.05-.11.02-.21.06-.32.09-.1.03-.2.05-.29.09-.05.02-.21.06-.11.09Z"/>
          <path class="cls-43" d="M9.03.38c-.1.05-.26.1-.32.21-.04.07.02.08.08.08.11,0,.22-.05.33-.08.08-.02.17-.06.24-.11.03-.02.1-.05.08-.1-.01-.03-.08-.06-.11-.07-.11-.03-.24,0-.32.06h.02Z"/>
          <path class="cls-43" d="M12.72,3.64c-.09.03-.19.05-.28.08-.09.03-.18.09-.26.14-.14.1-.28.22-.37.37-.07.12-.14.35,0,.45.2.14.51,0,.71-.07.31-.1.66-.22.92-.43.11-.09.22-.19.32-.29.09-.08.18-.18.25-.27.05-.07.06-.16.05-.25,0-.08-.09-.15-.16-.18-.15-.06-.27.01-.42.03-.15.02-.33.07-.46.15-.21.12-.42.22-.31.27Z"/>
          <path class="cls-43" d="M13.24,2.81s-.04-.07-.05-.11c.05-.01.07-.06.1-.09.03-.03.06-.04.09-.06.05-.03.15-.07.21-.05.12.04.14.16.08.27-.06.11-.17.18-.29.2-.09.01-.28-.12-.17-.22l.02.07Z"/>
          <path class="cls-43" d="M14.57,2.49c-.08.01-.18.02-.25.05-.02,0-.04.03-.05.04-.08.05-.17.09-.24.16-.08.07-.16.19-.12.29.14.36.65.16.88.03.08-.04.13-.11.2-.16.05-.04.1-.07.14-.12.06-.08.07-.14.03-.23-.03-.07-.1-.11-.17-.13-.06-.01-.13-.03-.19-.03-.15,0-.29.11-.42.18l.2-.09Z"/>
          <path class="cls-43" d="M1.29,9.04c-.35.16-.66.43-.86.77-.09.15-.16.3-.22.47-.03.08-.04.17-.08.26-.03.07-.06.14-.07.22-.03.18-.12.54.17.57.13.01.28-.02.4-.05.25-.05.51-.15.73-.26.25-.12.51-.25.73-.43.21-.17.44-.3.62-.49.22-.23.55-.6.29-.92-.24-.3-.75-.23-1.08-.19-.16.02-.33.02-.49.07-.04.01-.08.03-.11.05-.02.01-.04.04-.05-.05Z"/>
          <path class="cls-43" d="M2.53,10.55c.02-.08.03-.11.09-.17.06-.06.11-.12.17-.17.09-.09.27-.19.4-.2.06,0,.14,0,.18.05.04.05.02.15,0,.2-.02.06-.05.1-.1.14-.05.05-.11.11-.17.14-.08.04-.18.07-.27.1-.07.02-.18.06-.25,0-.04-.03-.08-.11-.05-.09Z"/>
          <path class="cls-43" d="M1.56,12.39c-.08.02-.18.03-.25.07-.06.04-.11.1-.15.16-.09.12-.16.24-.25.36-.07.1-.14.2-.2.31-.04.07-.06.14-.02.21.1.19.41.14.57.1.18-.04.34-.13.51-.2.15-.07.31-.12.45-.2.25-.13.55-.27.69-.54.05-.1.07-.19.03-.3-.04-.1-.12-.18-.21-.23-.1-.05-.21-.04-.32-.04-.15,0-.32.02-.47.07-.09.03-.19.07-.28.11-.14.06-.21.17-.07.11Z"/>
          <path class="cls-43" d="M.68,12.55s0-.08,0-.11c.07-.02.09-.09.18-.07.06.02.07.09.06.14-.03.1-.26.29-.26.09l.02-.05Z"/>
          <path class="cls-43" d="M15.42,8.05c-.11,0-.22.01-.34.03-.03.02-.06.04-.1.06-.12.06-.22.1-.32.19-.08.07-.27.19-.26.32.01.12.18.14.28.14.09,0,.19-.02.28-.03.13,0,.26-.02.39-.04.17-.02.34-.05.49-.13.09-.05.15-.1.21-.18.03-.04.07-.07.06-.12,0-.03-.07-.1-.09-.12-.04-.03-.09-.05-.13-.07-.21-.1-.46-.02-.47-.04Z"/>
          <path class="cls-43" d="M9.91,15.25c-.09.04-.15.05-.19.13-.01.03-.06.1-.06.14,0,.06.06.05.11.04.06-.02.12-.07.17-.11.04-.03.07-.06.11-.1.02-.02.04-.04.04-.07,0-.03,0-.05.02-.07-.02-.13-.26.05-.31.05l.11-.02Z"/>
          <path class="cls-43" d="M10.54,15c-.14.06-.23.11-.31.25-.02.04-.04.09-.02.13.07.14.23.02.31-.05.06-.04.12-.07.16-.12.02-.02.04-.05.06-.07.02-.02.05-.05.06-.07.02-.05-.01-.09-.06-.11-.09-.03-.16.03-.25.04h.05Z"/>
          <path class="cls-43" d="M3.18,11.92c-.04.09-.19.43,0,.42.17,0,.46-.19.47-.38,0-.13-.1-.19-.21-.2-.15-.02-.24.1-.3.23l.04-.07Z"/>
          <path class="cls-43" d="M3.7,9.02c-.04.05-.09.1-.04.15.03.03.06.04.09.05.08.01.19-.06.19-.13,0-.06-.02-.1-.07-.14-.06-.04-.1-.02-.16.02l-.02.05Z"/>
        </g>
        <path class="cls-27" d="M5.78,3.7s1.01-.31,1.23-.4c.22-.09,1.34-.27,1.34-.27,0,0,.96-.41,1.23-.54.27-.13.96-.46.96-.46l.8-.37s-.54.55-1.01.74c-.47.18-1.68.67-1.68.67,0,0-.36.1-.87.26-.51.16-2,.37-2,.37Z"/>
        <path class="cls-19" d="M12.04,5.09l.46.22s.48-.28.55-.56c0,0-.9.25-1.01.33Z"/>
        <polygon class="cls-19" points="9.49 5.63 9.72 5.76 9.89 5.45 9.49 5.63"/>
        <path class="cls-7" d="M5.78,8.63s.55.55,1.74.91c0,0,.08-.09.19-.6.1-.52,0-.7,0-.7,0,0-1.47.19-1.93.39Z"/>
        <path class="cls-32" d="M6.58,10.26s.02.18.08.31c.07.13.82.31.92.27.19-.08-.02-.53-.1-.66s-.21-.27-.21-.27l-.7.35Z"/>
        <path class="cls-19" d="M1.89,13.56s1.02-.46,1.34-.69.8-1.06.8-1.06l-.52,1.28-.34.13-.37.08-.92.26Z"/>
        <path class="cls-19" d="M2.52,11l.87-.49s-.08.28-.21.35c-.12.08-.66.14-.66.14Z"/>
        <path class="cls-53" d="M14.97,8.91l.39.31s.09-.25.11-.34c.02-.08-.5.02-.5.02Z"/>
        <path class="cls-19" d="M17.18,5.86l.55-.18.49-.13s-.54.29-.64.34c-.09.05-.4-.03-.4-.03Z"/>
        <polygon class="cls-19" points="16.74 5.66 16.94 5.51 16.94 5.7 16.74 5.66"/>
        <polygon class="cls-53" points="10.07 15.75 10.74 15.37 10.66 15.72 10.07 15.75"/>
        <path class="cls-6" d="M2.66,4.98s.5-.04.8-.04.88.06.88.06l.57.06s-.33.03-1.01.04c-.69.01-1.24-.11-1.24-.11Z"/>
        <path class="cls-21" d="M5.5,8.16s.52-.58.74-.66c.22-.08,1.28.4,1.47.47s-.36,1.14-.5,1.25c-.14.11-1.69-.45-1.71-1.06Z"/>
        <path class="cls-57" d="M7.44,10.57c-.05.14-.52.07-.69,0h-.01s-.04-.03-.04-.03c0,0,0,0,0,0-.12-.12-.15-.46-.07-.64,0,0,.41-.13.56-.07.1.03.2.29.24.5h0c.02.11.03.22.01.26Z"/>
        <path class="cls-35" d="M6.82,8.49l.39.74s.5-.55.53-1.18l-.93.44Z"/>
        <path class="cls-54" d="M1.74,6.18l-.95.23s-.16.55-.13.78l.59.62s.18-1.12.49-1.63Z"/>
        <path class="cls-2" d="M5.5,8.16s.46.23,1.03.32c.57.09,1.21-.44,1.21-.44,0,0-.61-.55-1.49-.65,0,0-.57.33-.76.76Z"/>
        <path class="cls-52" d="M7.44,10.57c-.05.14-.52.07-.69,0h-.01s-.04-.03-.04-.03h-.01s0,0,0,0l.13-.18.53-.13.08.09h0c.02.11.03.22.01.26Z"/>
        <path class="cls-42" d="M6.62,9.88s0,.38.15.45c.16.08.53-.08.57-.11s-.11-.38-.25-.43-.47.09-.47.09Z"/>
        <path class="cls-24" d="M14.82,14.91s-.18-.03-.32,0c-.14.03-.36.76-.36.87,0,.43.5.31.65.27.15-.04.19-.36.19-.36l-.15-.77Z"/>
        <path class="cls-10" d="M14.29,15.65c-.12-.08.08-.52.18-.66h.01s.03-.04.03-.04c0,0,0,0,.01,0,.15-.08.49-.02.64.11,0,0,.01.43-.08.56-.06.09-.33.11-.54.1h0c-.11,0-.21-.03-.25-.06Z"/>
        <path class="cls-49" d="M14.29,15.65c-.12-.08.08-.52.18-.66h.01s.03-.04.03-.04h0s0,0,0,0l.14.17-.02.54-.1.05h0c-.11,0-.21-.03-.25-.06Z"/>
        <path class="cls-16" d="M15.17,15.05s-.36-.11-.48.02c-.12.13-.07.53-.04.58.02.06.4,0,.48-.13.08-.12.04-.48.04-.48Z"/>
        <polygon class="cls-31" points="3.6 14.27 4.48 14.33 5.85 14.27 6.29 14.42 5.82 14.35 4.91 14.78 4.84 14.9 4.34 14.77 3.6 14.27"/>
        <polygon class="cls-15" points="3.6 14.27 4.34 14.72 4.6 14.68 5 14.65 5.82 14.35 4.91 14.78 4.84 14.9 4.27 14.8 3.6 14.27"/>
        <polygon class="cls-41" points="5.3 3.75 6.02 4.18 6.82 4.11 7.78 3.33 6.54 3.24 5.78 3.44 5.3 3.75"/>
        <path class="cls-22" d="M5.3,3.75h.24l.44.1h.47l.51-.2.56-.31h.25s-.51.52-.96.78l-.8.06-.72-.43Z"/>
        <path class="cls-37" d="M.86,13.82l.34-.32.37.05s.05.24,0,.42-.37.07-.37.07l-.34-.23Z"/>
        <path class="cls-55" d="M.86,13.82s.34.11.4.11.19,0,.25-.05c.06-.05.06-.33.06-.33,0,0,.05.26,0,.42,0,0,0,.14-.25.13l-.16-.05-.31-.24Z"/>
        <path class="cls-45" d="M15.85,8.78s.09-.2.21-.28c.12-.09.46-.08.46-.08l.04.08s-.12.31-.21.36c-.09.05-.29,0-.29,0l-.21-.08Z"/>
        <path class="cls-46" d="M16.52,8.42s-.12.21-.21.26c-.08.05-.19.1-.19.1,0,0-.14.02-.27,0,0,0,.2.1.36.1,0,0,.18,0,.2-.02s.15-.36.15-.36l-.04-.08Z"/>
      </g>
    </g>
  </g>
</svg>