<svg xmlns="http://www.w3.org/2000/svg" width="287" height="270"><path fill="#F3B238" d="m219 41 2.273 1.605L223 44v2l3 1v2h2c13.659 14.216 23.108 33.092 28 52l.793 2.956c2.457 10.069 2.765 19.786 2.707 30.106l-.006 2.61c-.067 13.329-.9 25.697-5.494 38.328l-.845 2.414C246.694 195.446 236.59 210.592 223 224l-2.64 2.672c-21.698 20.918-52.233 30.98-82.038 30.609-31.813-.833-61.64-12.43-84.22-35.195A281 281 0 0 1 49 216l-2.125-2.582c-21.685-27.52-28.916-62.563-25.25-96.98 3.394-21.906 12.215-41.615 25.168-59.399A184 184 0 0 0 51 51h2l.75-1.75c1.433-2.58 3.034-4.311 5.25-6.25h2v-2a94 94 0 0 1 5.375-4.125l3.023-2.195C72 33 72 33 74 33v-2q4.357-2.18 8.719-4.352a326 326 0 0 0 5.812-2.984C130.28 1.816 183.617 11.117 219 41"/><path fill="#7E929C" d="M159.375 47.438c13.735 7.322 23.928 19.291 28.898 34.117 4.165 14.016 2.33 29.533-3.78 42.691C177.86 136.353 168.533 146.034 156 152l2 8h2v2l2.59.367 3.347.508 3.34.492L172 164l1 2 3.063 1.188c8.4 3.467 13.16 9.815 16.937 17.812l1.813 3.438c1.5 4.5 2.026 8.86 1.187 13.562-1.46 1.61-1.46 1.61-3 3l-1 3c-4.537 4.8-9.746 7.915-16 10v2c-6.147 3.28-12.306 5.578-18.937 7.688q-2.828.907-5.653 1.824l-2.496.795c-1.896.533-1.896.533-2.914 1.693-1.854.087-3.71.107-5.566.098l-3.409-.01-3.588-.025-3.6-.014Q125.42 232.03 121 232v-2c-.536.07-1.072.14-1.625.21-9.964.69-19.684-3.62-28.375-8.21v-2l-1.71-.285c-2.841-.887-4.601-2.291-6.915-4.153l-2.352-1.87C78 212 78 212 76 210c.568-5.568.568-5.568 2-7 .108-2.082.186-4.166.25-6.25.721-10.573 3.495-19.923 11.559-27.16C94.119 166.463 98.61 164 104 164l.875-2.75A53 53 0 0 1 108 154l-1.652-1.031c-15.098-9.704-26.636-22.517-30.917-40.339-.824-5.032-.743-10.104-.806-15.192l-.113-3.385c-.146-13.94 6.292-26.657 15.738-36.803 19.606-18.252 45.415-21.012 69.125-9.812"/><path fill="#B67014" d="m160 36 3.492 1.133c23.817 8.462 40.808 27.977 51.758 50.18 9.492 21.26 10.895 48.14 5.75 70.687l-.457 2.065C218.003 171.24 214.23 181.332 208 191l-2 1 .473-1.922c2.68-12.854 3.188-27.974-3.594-39.61-2.557-3.359-5.483-5.944-8.758-8.59-3.982-3.526-6.452-7.87-8.121-12.878l-3 1v5l-1-2h-2v2h-2l.125 2.25C178 140 178 140 177.004 141.805c-2.63 5.75-1.34 14.182-.004 20.195h2a85 85 0 0 1 3.5 4.938c2.21 3.63 2.21 3.63 5.5 6.062l2-5c4.147 3.792 7.655 7.838 10 13-.125 2.813-.125 2.813-1 5-1.095 3.285-1.1 5.737-1.062 9.188l.027 3.292L198 201l2-4 2 1c-1.362 3.067-2.897 5.118-5.312 7.438l-1.895 1.835L193 209l-2.5 2.563L188 214l-1.371 1.36c-8.589 7.967-19.57 13.127-30.629 16.64l-3.187 1.188c-19.396 5.603-44.218 2.168-61.782-7.235C83.794 221.856 76.554 217.276 71 211v-2l-1.672-.586c-15.115-9.18-22.184-33.73-26.2-49.578-6.047-25.44-2.63-55.02 10.06-78.024C68.553 56.079 89.808 40.417 118 33c14.045-2.988 28.486-1.39 42 3m-53 10-2.656 1.352c-13.848 7.65-22.86 19.188-28.546 33.853-1.472 5.156-1.387 10.28-1.298 15.608l.034 3.482C74.723 108.5 75.483 115.49 79 123l1.063 2.379C85.836 136.907 96.106 148.649 108 154l-.875 1.68-1.125 2.195-1.125 2.18c-1.012 1.893-1.012 1.893-.875 3.945l-3.875.438c-7.208 1.573-12.817 7.078-16.812 13.109-3.906 7.3-4.708 14.178-5.004 22.414C78 203 78 203 76 206c.17 3.134.64 4.596 2.742 6.95l2.133 1.738 2.117 1.761c3.581 2.88 3.581 2.88 8.008 3.551v2l2.598.988 3.465 1.325 3.617 1.375a85 85 0 0 1 7.007 3.125c4.49 1.61 8.594 1.443 13.313 1.187v2c3.958.118 7.916.188 11.875.25l3.36.102c7.564.089 12.963-1.152 19.765-4.352q2.16-.84 4.336-1.633l2.035-.754 4.078-1.5c3.278-1.215 6.47-2.454 9.551-4.113v-2a215 215 0 0 1 6.875-3.312c5.436-2.936 9.234-6.21 12.125-11.688l1-1c1.397-9.7-2.375-17.491-7.812-25.312-3.417-4.29-7.906-8.882-13.368-10.223L173 166l-1-2c-2.025-.43-2.025-.43-4.375-.562-2.82-.226-4.912-.534-7.625-1.438v-2h-2l-2-8 2.309-1.215c14.38-7.918 24.175-18.972 29.129-34.847A246 246 0 0 0 189 110l.528-1.932c3.038-13.321.076-27.567-6.965-39.005A236 236 0 0 0 179 64l-2.25-3.125c-11.682-12.213-25.927-19.764-42.997-20.218-10.085-.117-17.705.54-26.753 5.343"/><path fill="#C0893A" d="M136 56v2l2.668-.148c7.966.354 14.257 5.662 19.52 11.273C162 73.412 162 73.412 162 78h2c3.313 6.454 4.738 12.258 5.5 19.438 1.286 12.278 1.286 12.278 7.5 22.562.374 2.92.437 4.396-1.312 6.813C174 128 174 128 171 128v2h-5l.188 3.25c-.2 4.005-.683 4.844-3.188 7.75l-.242 1.922C162 145 162 145 159.488 146.598l-3.175 1.464-3.137 1.473L150 151l-3.02 1.621c-5.059 2.34-10.025 2.55-15.542 2.629l-3.317.078c-3.511-.369-5.226-1.371-8.121-3.328a132 132 0 0 0-4.25-1.812c-7.264-3.19-14.146-6.842-17.75-14.188-2.498-7.608-3.756-15.255-4.687-23.187l-.393-3.174Q92.45 105.82 92 102h-2c-3.101-9.71-5.066-18.355-.34-27.824C92.828 69.032 96.38 64.453 102 62v-2c11.556-3.87 21.885-4.47 34-4"/><path fill="#F4B53D" d="M168 15v1h-47v1h-8l-1 3-2.687-.062c-2.935.055-5.468.393-8.313 1.062.276 1.94.276 1.94 1 4l3 2-1 7-3 1v2l2 1-3.262 1.617C74.678 52.293 56.086 71.14 46.664 97.95 39.687 119.507 39.627 144.374 46 166l.91 3.277C51.435 184.183 59.462 195.941 69 208l-2 1c-.528 1.946-1.047 3.896-1.488 5.863C65 217 65 217 63.812 220.375c-1.127 2.571-1.127 2.571.188 4.625 1.979.727 3.98 1.398 6 2l-2 1 2 6c-5.365-1.463-8.313-5.09-12-9l-2.437-2.375c-24.308-24.9-35.052-56.452-34.792-90.913.51-27.53 9.928-52.578 26.022-74.673A184 184 0 0 0 51 51h2l.75-1.75c1.433-2.58 3.034-4.311 5.25-6.25h2v-2a94 94 0 0 1 5.375-4.125l3.023-2.195C72 33 72 33 74 33v-2q4.357-2.18 8.719-4.352a326 326 0 0 0 5.812-2.984C113.353 10.674 140.916 9.263 168 15"/><path fill="#8097A0" d="m108 156 2.07.875c10.879 4.006 21.484 3.526 32.93 3.125-.06 1.46-.149 2.918-.25 4.375l-.14 2.46C142 169 142 169 140.131 170.252c-9.529 3.348-20.987 2.97-30.132-1.251-3.062-1.687-3.062-1.687-5-3v4l2-1a90 90 0 0 1 5.875 2.875c12.172 6.43 25.213 5 38.125 1.125l2-1-.632 1.652c-1.999 5.537-2.882 10.483-3.055 16.348l-.104 2.477c-.233 6.167-.237 12.326-.195 18.496.028 6.326.046 12.776-1.014 19.027-2 2-2 2-4.522 2.227-1.037-.01-2.074-.02-3.142-.032l-3.399-.02-3.562-.05-3.586-.027q-4.395-.036-8.789-.098v-2c-.536.07-1.073.14-1.625.21-9.964.69-19.684-3.62-28.375-8.21v-2l-1.71-.285c-2.841-.887-4.601-2.291-6.915-4.153l-2.352-1.87C78 212 78 212 76 210c.568-5.568.568-5.568 2-7 .108-2.082.186-4.166.25-6.25.721-10.573 3.495-19.923 11.559-27.16C94.119 166.463 98.61 164 104 164l.875-2.875C106 158 106 158 108 156"/><path fill="#F5CBA4" d="M113.375 83.375c3.662.872 5.036 2.916 7.625 5.625 3.51 2.49 6.909 4.636 11 6v2l-2.375.75c-2.948 1.404-3.527 2.257-4.625 5.25l1.736-.487c3.75-.85 7.495-.739 11.326-.763l2.471-.062 2.377-.016 2.16-.028c2.513.464 3.393 1.35 4.93 3.356.293 2.7.293 2.7.188 5.688l-.083 3.011L150 116h3l.438-2.437C154 111 154 111 155 110c1.813.086 1.813.086 4 .375l2.188.273C163 111 163 111 164 112c.617 5.857-.084 9.533-3.422 14.434-2.545 2.526-5.12 2.566-8.578 2.566l-.687 2.125c-3.126 6.845-8.044 10.377-14.313 14.125l-2.117 1.313c-9.032 5.521-9.032 5.521-13.633 5.312-8.26-2.224-15.88-5.944-21.5-12.5-3.918-7.556-5.165-14.937-4.75-23.375h2l1-4v3l9 1 2-4h2c2.043 4.086 2.126 6.588 1 11l-1.125 2.125c-1.045 1.852-1.045 1.852-.75 4 1.143 2.45 2.406 2.92 4.875 3.875l-7 1c2.446 3.033 3.766 3.944 7.625 4.875L119 139l2-2-2 1c-3 .25-3 .25-6 0l-2-3c5.75-.125 5.75-.125 8 1l-2-6 2-1-6-1c.875-7.625.875-7.625 2-11 .773-6.441-1.293-10.873-5-16-3.285-2.19-6.207-2.998-10-4a300 300 0 0 1 5.5-5.375c2.582-2.477 2.582-2.477 4-5.437C111 84 111 84 113.375 83.375"/><path fill="#E9AD3A" d="M136 56v2l2.668-.148c7.798.347 14.142 5.53 19.394 10.96 3.714 4.432 5.949 8.321 5.938 14.188-.417 2.538-1.073 4.58-2 7-10.812-1.275-18.937-2.33-27-10v-2h-2c.195 1.95.195 1.95 1 4a95 95 0 0 0 4 2q1.723 1.03 3.426 2.094l1.916 1.183q1.957 1.215 3.906 2.446c4.187 2.57 7.968 4.138 12.752 5.277l-1 2c-12.671 1.342-27.126-2.699-37.297-10.527L120 85l-3.062-2.562C114.004 77.233 113.94 71.838 115 66c2.035-2.902 2.035-2.902 4-5-2.586 1.597-2.586 1.597-5 4-.662 2.958-.662 2.958-.687 6.188-.644 5.618-1.888 8.112-6.126 11.874-2.566 2.023-5.19 3.94-7.835 5.856-2.58 2.285-3.73 4.22-5.165 7.332l-1.269 2.703L92 101c-4.473-4.106-5.111-9.03-5.375-14.875.218-8.468 4.1-14.315 9.594-20.496 1.827-1.671 3.52-2.643 5.781-3.629v-2c11.556-3.87 21.885-4.47 34-4"/><path fill="#9BB4B9" d="m106 169 2.703 1.277 3.547 1.66 3.516 1.653c11.063 4.823 24.004 2.78 35.234-.59l2-1-.621 1.828-.816 2.422-.81 2.39c-1.378 4.318-1.904 8.126-2.128 12.673-.469 6.435-1.354 10.767-5.375 15.937-6.248 4.86-12.268 5.3-19.937 5.25l-2.953-.01c-9.79-.226-18.118-2.48-25.36-9.49-1.839-9.372 3.9-23.045 8.813-30.937z"/><path fill="#C6811C" d="M85 139h4v2l1.66.227c3.221 1.064 5.21 2.947 7.778 5.148 3.391 2.896 6.671 5.436 10.562 7.625-3.264 9.003-3.264 9.003-7.277 11.309q-2.565.887-5.153 1.707C90.682 169.27 85.59 174.276 83 180c-2.863 6.494-3.403 12.604-3.594 19.668-.447 3.669-1.585 6.141-3.406 9.332-4.217-1.562-6.258-4.555-9-8l-1.812-1.75C64 198 64 198 64 196h-2c-2.387-4.698-2.385-9.097-2.375-14.25l.005-2.579c.12-6.143.892-10.986 4.37-16.171l1.805-2.926c2.265-3.172 4.613-5.423 7.57-7.949 4.11-3.612 7.393-7.101 10.309-11.727z"/><path fill="#AB620C" d="M233 178c2.867.091 5.703.238 8.563.438l2.443.158q2.997.196 5.994.404c-.77 3.78-2.03 5.48-5 8h-2l1 7h-2l-.062 3.375C240.15 210.962 222.204 225.873 212 234c-9.36 6.725-19.195 11.983-30 16l-3.164 1.215c-16.06 5.599-34.078 3.923-50.836 3.785v-1l2.832-.262c31.742-3.258 60.983-16.111 81.888-40.767 7.926-9.913 13.506-20.775 18.53-32.383C232 179 232 179 233 178"/><path fill="#A8620A" d="m160 36 3.492 1.133c23.817 8.462 40.808 27.977 51.758 50.18 4.855 10.873 7.87 23.314 7.883 35.222l.004 3.701-.012 3.826.012 3.838-.004 3.698-.004 3.36c-.119 2.796-.492 5.322-1.129 8.042h-1l.048-1.896c.062-2.826.101-5.652.14-8.479l.076-2.984.029-2.852.048-2.634L221 128l-3-2c-.048-1.933-.081-3.87-.011-5.802.017-3.46-.738-6.73-1.552-10.073l-.527-2.19c-4.11-16.164-10.617-28.983-21.273-41.77C193 64 193 64 192 61a85 85 0 0 0-4-2 308 308 0 0 1-4.668-3.377C162.901 40.49 144.142 37.28 119 39c-18.26 2.75-37.242 14.053-49 28l-1.617 2.766L67 72h-2l-.758 2.113c-1.409 3.275-3.184 6.08-5.117 9.075-3.41 5.41-6.04 10.77-8.125 16.812l-.867 2.3c-1.58 4.355-2.481 8.414-2.89 13.02-.323 3.57-.74 7.124-1.18 10.68l-.465 3.938L45 133l-2 1c-1.21-12.84-1.227-23.753 3-36l.654-1.949C54.862 72.131 72.588 52.465 95 41c4.257-1.984 8.524-3.581 13-5l3.664-1.187c16.195-4.856 32.368-4 48.336 1.187"/><path fill="#BDD0C9" d="M159.375 47.438c13.735 7.322 23.928 19.291 28.898 34.117 4.165 14.016 2.33 29.533-3.78 42.691-7.025 12.823-17.1 22.762-30.493 28.754l-4-3 2.738-1.426 3.575-1.887 1.802-.935c3.077-1.633 5.493-3.236 7.885-5.752h2l.828-1.781c1.138-2.154 2.386-3.837 3.922-5.719 8.299-10.956 13.78-24.601 12.25-38.5-2.242-13.716-8.646-27.888-20.086-36.258-14.664-9.263-28.577-14.45-46.039-10.617a55.5 55.5 0 0 0-19.062 9.563C98 58 98 58 96 58l-.687 1.688C94 62 94 62 91.68 64.156c-3.123 3.314-4.905 6.59-6.868 10.656l-1.037 2.042C77.446 89.696 77.914 102.407 82 116c3.576 9.526 8.518 16.31 15.547 23.477C103 145.086 103 145.086 103 148h2l2 4c-8.84-1.36-16.68-11.16-21.922-17.824-7.603-11.619-10.283-22.998-10.453-36.738l-.113-3.385c-.146-13.94 6.292-26.657 15.738-36.803 19.606-18.252 45.415-21.012 69.125-9.812"/><path fill="#5D7480" d="M112 149c4.66.555 9.55 1.55 13 5 7.361.465 13.944.068 21-2 6.385-1.36 6.385-1.36 8.813.063 1.55 2.528 2.367 5.097 3.187 7.937h2v2l4 2c-.337 3.031-.58 4.594-2.812 6.75-5.09 5.235-6.469 10.998-6.688 18.188.267 8.846 3.57 15.288 7.55 22.968 1.76 3.882 2.84 7.988 3.95 12.094a604 604 0 0 1-4.5 1.875l-2.531 1.055c-3.616 1.303-7.23 2.183-10.969 3.07-.189-30.496-.189-30.496.313-41.437l.175-3.934c.602-4.266 1.87-7.655 3.512-11.629l-2.5.875L146 175l-3.437 1.125c-10.553 2.507-20.82 1.451-30.563-3.125l-2.008-.934A104 104 0 0 1 106 170l-3 3 1-8 2.012 1.059 2.675 1.379 2.637 1.37c9.194 4.094 20.229 2.754 29.676.192l2-9-3.05.48c-10.733 1.412-21.05 1.347-30.95-3.48l-1-2 1-2c2.563-.625 2.563-.625 5-1z"/><path fill="#C7821C" d="M185 128c2.518 1.26 2.693 2.215 3.813 4.75 1.872 3.874 4.015 6.295 7.187 9.25a211 211 0 0 1 4.063 4.25l1.972 2.078c5.083 6.912 6.634 13.577 6.84 22.047l.094 2.793c.213 8.955.277 17.829-5.969 24.832h-3l-2 4h-1a590 590 0 0 1-.125-6.25l-.07-3.516C197 189 197 189 198.07 186.954c1.408-2.957.783-4.847-.07-7.954-1.583-2.809-1.583-2.809-3.562-5.375l-1.942-2.648L191 169l-3 5c-3.976-2.872-6.515-5.767-9-10v-2h-2c-1.76-4.556-2.27-8.375-2.25-13.25l-.016-3.703C175 142 175 142 177 140c.648-2.57.648-2.57 1-5h2v-2h2l1-3h2z"/><path fill="#B66F14" d="m117 43-2.238.848C95.462 51.475 85.292 62.362 77 81c-1.016 3.048-1.198 5.347-1.316 8.543l-.127 3.252-.12 3.392-.13 3.428q-.16 4.193-.307 8.385l-2-2-.625 1.813C71 110 71 110 68.063 111.375c-3.728 1.978-4.525 3.78-6.063 7.625-2-2-2-2-2.812-4-1.591-2.679-3.285-3.083-6.188-4v-2h3v-2l-7-1c2.114-12.83 9.381-27.979 19-37a515 515 0 0 0 3.125-3.687C80.399 54.716 90.785 47.78 104 43v2h3v-2c3.736-.764 6.348-1.072 10 0"/><path fill="#90A8AE" d="m108 156 2.07.875c10.879 4.006 21.484 3.526 32.93 3.125-.06 1.46-.149 2.918-.25 4.375l-.14 2.46C142 169 142 169 140.131 170.252c-9.529 3.348-20.987 2.97-30.132-1.251-3.062-1.687-3.062-1.687-5-3l-.258 2.113c-.92 3.577-2.574 6.002-4.617 9.075C96.64 182.594 94.398 187.724 93 194l-.51 1.807c-.557 2.494-.702 4.843-.806 7.396l-.127 2.969-.12 3.078-.13 3.125Q91.148 216.188 91 220c-3.635-.788-5.71-2.093-8.625-4.437l-2.352-1.872C78 212 78 212 76 210c.568-5.568.568-5.568 2-7 .108-2.082.186-4.166.25-6.25.721-10.573 3.495-19.923 11.559-27.16C94.119 166.463 98.61 164 104 164l.875-2.875C106 158 106 158 108 156"/><path fill="#B8791F" d="M187 114c2 3 2 3 2 5h-2c-.234 4.79-.234 4.79 2 9l-2 4-1-3-3 1v5l-1-2h-2v2h-2l.125 2.25C178 140 178 140 177.004 141.805c-2.63 5.75-1.34 14.182-.004 20.195h2a85 85 0 0 1 3.5 4.938c2.21 3.63 2.21 3.63 5.5 6.062l2-5c4.147 3.792 7.655 7.838 10 13-.125 2.813-.125 2.813-1 5-1.095 3.285-1.1 5.737-1.062 9.188l.027 3.292L198 201l2-4 2 1c-1.362 3.067-2.897 5.118-5.312 7.438l-1.895 1.835L193 209l-2.5 2.563L188 214l-1.371 1.36c-8.589 7.967-19.57 13.127-30.629 16.64l-3.187 1.188C134.384 238.51 112.403 235.126 95 228c-3.804-2.428-3.804-2.428-4.75-5.187L90 221l-2.75-.25c-3.65-.842-4.884-1.929-7.25-4.75l1-2 1.426 1.059 1.886 1.379 1.864 1.37c1.92 1.365 1.92 1.365 4.824 2.192v2l1.625.379c2.834.741 5.594 1.637 8.375 2.559l3.125 1.027C107 227 107 227 109.047 228.09c2.43 1.132 4.538 1.325 7.203 1.535l2.703.227L121 230v2c3.96-.052 7.917-.148 11.875-.25l3.36-.043c7.45-.22 13.04-1.582 19.765-4.707q2.16-.855 4.336-1.668l2.035-.768 2.004-.751 2.074-.788c3.152-1.184 6.253-2.323 9.551-3.025v-2c2.81-2.026 5.693-3.822 8.688-5.562 2.329-1.327 2.329-1.327 4-3.125L190 208h2l.375-1.875C193 204 193 204 195 202c1.634-8.79-1.896-15.985-6.422-23.297-4.28-6.12-9.443-10.325-16.578-12.703v-2l-1.863.07-2.45.055-2.425.07C163 164 163 164 160 162v-2h-2c-1.562-2.812-1.562-2.812-3-6 1.328-3.983 2.901-4.258 6.563-6.187 11.842-6.742 20.062-17.104 24.437-30.125z"/><path fill="#B2670F" d="M241 124h17c.472 39.056.472 39.056-3 46h-2l-1 5-1-2h-16c.41-3.902.849-7.476 1.938-11.25 3.501-12.358 3.63-24.996 4.062-37.75"/><path fill="#BC734D" d="M163 78c4.831 5.93 5.487 11.814 6.375 19.188 1.361 12.408 1.361 12.408 7.625 22.812.374 2.92.437 4.396-1.312 6.813C174 128 174 128 171 128v2h-5l.188 3.25c-.2 4.005-.683 4.844-3.188 7.75l-.242 1.922C162 145 162 145 159.488 146.598l-3.175 1.464-3.137 1.473L150 151l-3.02 1.621c-5.119 2.369-10.147 2.552-15.73 2.629l-3.422.078L125 155l-2-3q4.374-2.438 8.75-4.875l2.5-1.395 2.422-1.347 2.222-1.238q2.127-1.156 4.318-2.188c2.385-1.276 2.66-2.502 3.788-4.957 2.37-4.204 3.766-6.654 8.563-8 3.704-.714 3.704-.714 5.875-4.125 1.987-4.087 2.094-7.388 1.562-11.875l-3-2 6 1 1-2h2l-.937-2.937c-.805-2.79-1.25-5.424-1.5-8.313-.427-4.605-1.61-8.85-2.942-13.27C163 82 163 82 163 78"/><path fill="#FCCC5A" d="M168 15v1h-47v1h-8l-1 3-2.687-.062c-2.935.055-5.468.393-8.313 1.062.276 1.94.276 1.94 1 4l3 2-1 7-3 1v2l2 1-3.437 1.758Q97.28 40.938 95 42.125l-2.37 1.23c-4.087 2.16-7.774 4.332-11.317 7.333C79.578 52.109 79.578 52.109 78 53c-2.998-.49-4.828-.828-7-3-.28-3.174.014-5.97 1-9 1.939-2.18 3.947-3.851 6.285-5.59L80 34v-2l-9 3 1-2h2v-2q4.357-2.18 8.719-4.352a326 326 0 0 0 5.812-2.984C113.353 10.674 140.916 9.263 168 15"/><path fill="#B4C7C1" d="M169.426 53.605c10.964 9.713 19.88 23.312 20.812 38.196.477 19.154-4.45 34.729-17.84 48.941A66 66 0 0 1 154 153l-4-3 2.738-1.426 3.575-1.887 1.802-.935c3.077-1.633 5.493-3.236 7.885-5.752h2l.828-1.781c1.138-2.154 2.386-3.837 3.922-5.719 8.299-10.956 13.78-24.601 12.25-38.5-2.242-13.716-8.646-27.888-20.086-36.258C156.32 52.313 147.93 48.167 138 46c10.234-6.822 22.81 1.034 31.426 7.605"/><path fill="#ECAF3B" d="M136 56v2l2.75-.187c3.54.204 4.7.833 7.25 3.187h-6v-2l-8 1v-3q-4.189.422-8.375.875l-2.406.238c-4.578.352-4.578.352-8.219 2.887-.167 2.435-.167 2.435 0 5.188.11 10.576.11 10.576-3.703 14.617-3.036 2.7-6.197 5.122-9.484 7.507-3.84 3.669-5.7 7.871-7.813 12.688-4.473-4.106-5.111-9.03-5.375-14.875.218-8.468 4.1-14.315 9.594-20.496 1.827-1.671 3.52-2.643 5.781-3.629v-2c11.556-3.87 21.885-4.47 34-4"/><path fill="#B16F13" d="M170 18c6.61-.422 11.175.826 17.188 3.5l2.513 1.092C200.44 27.375 209.877 33.6 219 41l2.246 1.574L223 44v2l3 1v2h2c1.473 1.355 1.473 1.355 3.063 3.188l1.597 1.792c1.549 2.334 1.955 4.267 2.34 7.02-4.865 1.293-9.014 1.886-14 1-4.274-3.152-7.08-7.912-9.919-12.322C204.041 38.753 192.184 31.186 181 25l-3.062-1.695A946 946 0 0 0 170 19z"/><path fill="#F5CCA3" d="M113.375 83.375c3.662.872 5.036 2.916 7.625 5.625 3.51 2.49 6.909 4.636 11 6v2l-2.375.75c-2.948 1.404-3.527 2.257-4.625 5.25l1.629-.484c2.81-.612 5.433-.722 8.308-.766l3.09-.078c4.2.464 6.785 2.181 9.786 5.078 1.653 3.133 1.388 5.768 1.187 9.25-3-2-3-2-3.937-4-1.365-2.568-2.32-3.086-5.063-4-5.572-.76-9.294 1.325-14 4v-3c-1.95.195-1.95.195-4 1-1.284 1.984-1.284 1.984-2 4l-3-1-1 3-.262-1.723c-1.016-5.583-2.355-10.427-6.738-14.277-2.928-1.38-5.85-2.28-9-3 1.81-1.82 3.638-3.607 5.5-5.375 2.582-2.477 2.582-2.477 4-5.437C111 84 111 84 113.375 83.375"/><path fill="#9AB3B8" d="m160 171 7 2v2l1.813.875C171 177 171 177 174 179v2h2c4.033 5.798 4.506 10.014 4 17l-3 1v2c-1.625.054-3.25.093-4.875.125l-2.742.07C167 201 167 201 165 199c-2.069-.643-2.069-.643-4-1v-2h-3v-2h-2c-2.093-4.187-1.432-9.443-1-14 1.116-3.291 2.498-6.498 5-9"/><path fill="#F9D2AD" d="M111 81h3l1 3-1.848.262c-2.78.953-3.22 1.997-4.59 4.55-2.057 3.56-4.127 5.833-7.562 8.188l3.75.688c5.507 1.388 7.138 4.485 10 9.187 2.916 7.291.43 13.947-1.75 21.125l2.875-.125C119 128 119 128 121 130l-2 2v4h-7c1.096 1.321 1.096 1.321 3.813 1.125 2.615-.103 4.706-.362 7.187-1.125-1.562 2.063-1.562 2.063-4 4-4.533-.08-7.745-.745-11-4v-2l5-1-4-3c.422-2.533.789-4.627 2.063-6.875 1.142-2.59.97-4.098.562-6.875l-.336-2.422L111 112h-2l-.437 1.938C108 116 108 116 107 117c-4.032.263-5.559.294-9-2-2.153.308-2.153.308-4 1-1.584-5.66-1.589-10.903 0-16.562 3.73-6.412 9.247-10.87 15-15.438z"/><path fill="#EDBF95" d="M141 102c5.468-.365 5.468-.365 7.688 1.156 1.832 2.574 1.61 4.41 1.5 7.531l-.083 3.012L150 116h3l.438-2.437C154 111 154 111 155 110c1.813.086 1.813.086 4 .375l2.188.273C163 111 163 111 164 112c.617 5.857-.084 9.533-3.422 14.434-2.545 2.526-5.12 2.566-8.578 2.566l-.687 2.125c-3.188 6.982-8.22 10.46-14.625 14.25l-2.245 1.363A728 728 0 0 1 129 150l-1-2-2-1 1.813-1.625c2.33-2.298 2.33-2.298 3.624-5.375 1.752-3.363 3.6-4.704 6.563-7a261 261 0 0 0 3-5h2l.813-2.687C145 122 145 122 146.625 119.625c1.882-3.594 2.116-6.645 1.375-10.625-2.068-3.28-3.771-4.847-7-7"/><path fill="#B2680F" d="m235 90 16 1 1 5 1 2h2q.51 2.998 1 6l.563 3.375C257 111 257 111 257 119l-17-1q-.975-4.75-1.937-9.5l-.553-2.687C236.446 100.55 235.592 95.336 235 90"/><path fill="#FDCA58" d="M27 95c.907 2.993 1.027 5.281.625 8.375l-.3 2.363A238 238 0 0 1 26 114h-2l2 6 2-1c5.395-.46 5.395-.46 7.813 1.375 3.054 4.18 2.371 8.5 2.374 13.5l.038 2.762.005 2.668.013 2.437c-.267 2.482-1.002 4.11-2.243 6.258-3.834-.532-6.32-1.141-9-4-.648-2.884-.697-5.74-.75-8.687l-.09-2.417c-.07-1.964-.117-3.93-.16-5.896h-1v30h-1v-5h-2c-3.245-19.11-.818-38.672 5-57"/><path fill="#AA610F" d="m233 178 17 1c-1.047 4.187-1.818 5.3-5 8h-2l1 7h-2l-.375 3.813c-.324 3.29-.691 4.286-2.625 7.187-1.88.249-1.88.249-4.133.074l-2.441-.166-2.551-.22-2.574-.186A589 589 0 0 1 221 204c.592-4.676 2.618-8.38 4.875-12.437q1.06-1.935 2.117-3.872l.949-1.712c1.408-2.631 2.725-5.31 4.059-7.979"/><path fill="#9CB4B9" d="m108 156 2.07.875c10.879 4.006 21.484 3.526 32.93 3.125-.06 1.46-.149 2.918-.25 4.375l-.14 2.46C142 169 142 169 140.131 170.252c-9.529 3.348-20.987 2.97-30.132-1.251-3.062-1.687-3.062-1.687-5-3l-1 5h-4l1-7h3l.875-2.875C106 158 106 158 108 156"/><path fill="#7F96A0" d="M164 164h8l1 2 3.063 1.188c8.4 3.467 13.16 9.815 16.937 17.812l1.813 3.438c1.5 4.5 2.026 8.86 1.187 13.562-1.46 1.61-1.46 1.61-3 3l-1 3c-4.225 5.222-8.818 6.867-15.332 7.766-3.26.286-6.398.38-9.668.234 2.841-2.257 5.67-3.93 8.938-5.5A126 126 0 0 0 186 205l3-1c-.135-11.077-.71-20.046-6-30h-2v-3h-2l-1 3h-4l-1 2v-2l-2.562.188c-4.174-.228-6.692-1.39-10.438-3.188l1-2h2z"/><path fill="#BF8327" d="m117 43-2.238.848C95.462 51.475 85.292 62.362 77 81c-1.016 3.048-1.198 5.347-1.316 8.543l-.127 3.252-.12 3.392-.13 3.428q-.16 4.193-.307 8.385h-1c-2.02-23.995-2.02-23.995 3-33l-1.898.035-2.477.028-2.46.035C68 75 68 75 66 74c3.122-11.101 15.922-20.22 25.426-25.68C95.498 46.232 99.699 44.556 104 43v2h3v-2c3.736-.764 6.348-1.072 10 0"/><path fill="#E69D2B" d="M185 128c2.518 1.26 2.693 2.215 3.813 4.75 1.872 3.874 4.015 6.295 7.187 9.25 8.46 8.743 11.34 14.67 11.3 26.988C207 172 207 172 205 174l-.918-2.012c-2.471-5.208-4.702-9.13-9.082-12.988-12.35-11.683-12.35-11.683-13.562-17.875.809-4.497 2.123-8.792 3.562-13.125"/><path fill="#F6CDA5" d="m97 112 1 3 9 1 2-4h2c2.043 4.086 2.126 6.588 1 11l-1.125 2.125c-1.045 1.852-1.045 1.852-.75 4 1.143 2.45 2.406 2.92 4.875 3.875l-7 1c3.222 3.867 6.15 4.88 11 6v1h-10c.783 3.747.783 3.747 2 6-5.922-1.861-9.597-5.955-13-11-2.55-6.661-3.348-12.917-3-20h2z"/><path fill="#B36F14" d="m187 235 2 2h3v4l2.75-1.062c3.256-.94 4.177-.893 7.25.062-24.064 15.046-46.462 15.226-74 15v-1l2.832-.262c19.842-2.037 39.564-7.322 56.168-18.738"/><path fill="#BD7719" d="M176 49c1.784 1.591 3.375 3.24 5 5h-3l-1 2-2-1 1 4 6 1c1.3 4.33 2.344 8.515 3 13-1.936-2.4-3.855-4.809-5.719-7.266l-1.844-2.421-1.753-2.325c-1.711-2.206-1.711-2.206-4.684-3.988v-2l-1.785-.855c-2.01-1.04-3.788-2.183-5.653-3.458-10.234-6.483-20.67-8.871-32.562-8.812l-2.82.006c-7.1.044-14.114.385-21.18 1.119v2h-3v-2q2.057-.98 4.125-1.937l2.32-1.09c20.09-7.65 48.052-2.487 65.555 9.027"/><path fill="#E8A02D" d="M81 144h2c1.417 2.835 1.26 4.85 1 8-1.39 2.816-1.39 2.816-3.25 5.563l-1.828 2.753c-1.89 2.638-3.896 5.151-5.922 7.684-.709 1.311-1.395 2.638-2 4h-2c-2.563 7.569-3.946 15.088-5 23-2.341-1.696-3.813-3.069-4.395-5.966-.146-2.42-.158-4.798-.105-7.221l.032-2.593c.185-6.128 1-11.05 4.468-16.22.59-.96 1.18-1.918 1.79-2.906 2.333-3.266 4.81-5.652 7.835-8.281 2.92-2.55 5.222-4.583 7.375-7.813"/><path fill="#CE9130" d="M133 78c2 0 2 0 4.375 2.313L140 83c3.77 3.64 8.282 4.19 13.25 5.188l2.547.537c2.066.434 4.134.856 6.203 1.275v-6h3c1.283 5.27 2.25 10.449 2.781 15.848.312 3.066.765 6.104 1.219 9.152h-2l-1 3-2-1c-2.3-.27-4.598-.445-6.906-.621C155 110 155 110 153 108a90 90 0 0 1-1-6h-4c-2.016-1.783-3.373-3.831-5-6l2-1 2 1c2.04.07 4.083.084 6.125.063l3.32-.028L159 96l-3.687-1.5C147.506 91.03 138.63 86.543 133 80z"/><path fill="#BD7A1B" d="M91 141c7.358 5.477 7.358 5.477 10.688 8.188 2.337 1.832 4.736 3.34 7.312 4.812-3.264 9.003-3.264 9.003-7.277 11.309A168 168 0 0 1 96.574 167c-3.698 1.437-6.144 3.797-8.98 6.512C86 175 86 175 84 176l1-5h-2v-3l3-1c1.225-3.008 1.225-3.008 2-6l-2-1 .84-1.871C89.33 152.303 90.592 147.322 91 141"/><path fill="#7F9098" d="M165 80h5l2 7-2 1a109 109 0 0 0-1 7h2l1 5h3l2 4h2l3-7h2l-.035 1.863-.028 2.45-.035 2.425c.001 2.43.001 2.43 1.098 5.262-2.342 9.27-6.41 17.267-12 25l-1.348 1.871c-2.785 3.591-5.815 5.809-9.652 8.129.613-2.962 1.254-4.38 3-7 .394-2.324.735-4.658 1-7h5v-2l2.5-1.312c2.71-1.421 2.71-1.421 3.063-4-.605-2.89-1.79-4.492-3.481-6.86-4.332-7.32-4.695-16.745-5.555-25.031C167 86.997 166.14 83.652 165 80"/><path fill="#C17D19" d="M183 130h2l-1.562 5.664c-.869 4.637-1.14 7.268 1.53 11.328l2.532 2.883 2.531 2.93L192 155l-1 2 1.313 1.688c1.742 2.387 3.337 4.68 4.687 7.312l-1 3-1.39-2.012c-3.083-4.436-6.149-8.834-9.61-12.988.332 4.154.72 6.597 3.125 10.063C190 167 190 167 189.75 170.375L189 173h-3c-2-2.25-2-2.25-4-5l-1.75-2.187C179 164 179 164 179 162h-2c-1.76-4.556-2.27-8.375-2.25-13.25l-.016-3.703C175 142 175 142 177 140c.648-2.57.648-2.57 1-5h2v-2h2z"/><path fill="#BA7417" d="m223 62 3 2v2l2.668-.176c9.498-.369 9.498-.369 13.394 2.176 3.951 6.117 5.938 9.489 5.938 17l-13 1-1 3c-4.048-8.645-8.074-17.298-12-26z"/><path fill="#F1B94C" d="M136 56v2l2.75-.187c3.54.204 4.7.833 7.25 3.187h-6v-2l-8 1v-3q-4.189.422-8.375.875l-2.406.238c-4.578.352-4.578.352-8.219 2.887l.125 3.875c.07 3.85.07 3.85-1.625 6.25L109 73l-1.871 1.57C103.24 77.731 101.177 79.396 96 79v-8c-2.075-.15-2.075-.15-4 1 1.59-4.136 4.605-7.232 8-10h2v-2c11.556-3.87 21.885-4.47 34-4"/><path fill="#7E929C" d="M178 80h3v2h2c2.369 8.205 4.79 16.628 2 25l-3-1h2v-9c-2.833 2.833-3.72 4.354-5 8l-4-2v-3h-3v6h-1V95h-2v-8l2-1v-4c4.875.875 4.875.875 6 2z"/><path fill="#5A6C73" d="M112 149c4.66.555 9.55 1.55 13 5 7.361.465 13.944.068 21-2 3.813-.812 3.813-.812 7-1 1.938 1.313 1.938 1.313 3 3v2c-10.318 6.008-27.37 6.778-38.57 4.168-2.913-.92-5.685-1.83-8.43-3.168l-1-2 1-2c2.563-.625 2.563-.625 5-1z"/><path fill="#C7801A" d="M85 139h4v2h2c1.875 6.592-.866 13.08-4.055 18.938-.932 1.388-1.936 2.728-2.945 4.062l-1.312 2.313C79.475 171.429 76.06 176.627 71 180l-.437-2.875c-.392-3.018-.392-3.018-1.563-5.125h2l.625-2.562c1.475-3.689 3.232-5.743 5.844-8.649 3.136-3.665 5.372-7.131 5.844-12.039-.227-2.836-.227-2.836-1.313-5.75 1.188-2.187 1.188-2.187 3-4"/><path fill="#839091" d="m104 53 2 1-1 4 2.7-1.473c5.504-2.348 11.223-2.001 17.112-1.965l3.409-.06c7.411.004 13.137 1.186 19.779 4.498v2l-12-3v-2c-13.746.157-13.746.157-26.992 3.379-2.405.744-4.505.721-7.008.621v2a70 70 0 0 1-3.75 3.188C94.334 68.516 92.223 71.382 90 76l-1.094 2.254c-1.142 3.462-1.099 6.42-1.031 10.058l.055 3.801L88 95c-2.187-3.281-2.544-5.33-3.125-9.187l-.508-3.293L84 80h-2c3.335-10.989 10.204-20.357 20.145-26.277z"/><path fill="#AA6A19" d="M174 138c1.642 3.283.519 6.425 0 10h-2v15h-7v-2l-3.312-.125C158 160 158 160 156 157.125 155 154 155 154 156 151c2.512-1.613 2.512-1.613 5.688-3.312 4.944-2.77 8.586-5.444 12.312-9.688"/><path fill="#C98B52" d="M163 78c4.831 5.93 5.487 11.814 6.375 19.188 1.361 12.408 1.361 12.408 7.625 22.812.362 2.821.43 4.367-1.187 6.75-2.231 1.538-4.15 1.89-6.813 2.25l-1.812-2.375c-2.099-2.77-2.099-2.77-5.188-4.625l1-2c.234-1.913.234-1.913.25-4l.078-2.125L163 112l-3-2 6 1 1-2h2l-.937-2.937c-.805-2.79-1.25-5.424-1.5-8.313-.427-4.605-1.61-8.85-2.942-13.27C163 82 163 82 163 78"/><path fill="#B97414" d="M215 43c2.813 1.438 2.813 1.438 5 3v2h5l.777 1.809c1.334 2.39 2.644 3.577 4.786 5.254 2.631 2.062 3.341 2.65 4.437 5.937-4.868 1.293-9.013 1.894-14 1-4.8-3.53-7.958-8.97-11-14l-1.8-2.96L207 43c3.393-1.131 4.616-.967 8 0"/><path fill="#AD8867" d="M107 98c4.885 2.665 7.197 6.88 9 12 .83 6.284-1.187 12.033-3 18l2.875-.125C119 128 119 128 121 130l-2 2v4h-7c1.096 1.321 1.096 1.321 3.813 1.125 2.615-.103 4.706-.362 7.187-1.125-1.562 2.063-1.562 2.063-4 4-4.533-.08-7.745-.745-11-4v-2l5-1-4-3c.422-2.533.789-4.627 2.063-6.875 1.142-2.59.97-4.098.562-6.875l-.336-2.422L111 112h2l-1.5-2.875C110 106 110 106 110 104l-14-2 1-3c3.215-1.608 6.513-1.464 10-1"/><path fill="#647E8A" d="M102 173c1 3 1 3-.3 5.715L100 182c-3.98 12.364-6.166 24.408-1.656 36.977C99 221 99 221 99 224c-2.763-.523-5.326-1.109-8-2-.434-18.344-.427-32.253 10-48z"/><path fill="#C08767" d="m147 136 2 3-2 3c-.458 2.739-.458 2.739-.625 5.688l-.227 3.011L146 153c-6.84 2.146-13.853 2.941-21 2l-2-3q4.374-2.438 8.75-4.875l2.5-1.395 2.422-1.347 2.222-1.238a75 75 0 0 1 4.298-2.161c2.31-1.257 2.85-2.587 3.808-4.984"/><path fill="#AEBDB9" d="m183 113 .875 1.938c.953 2.214.953 2.214 3.125 3.062-7.49 16.213-16.86 27.036-33 35l-4-3 2.738-1.426 3.575-1.887 1.802-.935c3.077-1.633 5.493-3.236 7.885-5.752h2l.828-1.781c1.138-2.154 2.386-3.837 3.922-5.719 4.461-5.82 7.931-12.543 10.25-19.5"/><path fill="#AFC6C4" d="M77 101h2l.41 2.79c2.464 14.49 7.886 25.235 18.137 35.687C103 145.086 103 145.086 103 148h2l2 4c-8.89-1.368-16.894-11.336-22.191-18.012-2.58-4.262-3.49-8.453-4.274-13.336-.31-2.795-.31-2.795-2.535-4.652-.306-2.57-.51-5.048-.625-7.625l-.117-2.14c-.094-1.745-.177-3.49-.258-5.235"/><path fill="#D2994B" d="M256 107c3.53 5.295 3.148 10.684 3.133 16.844l.003 2.566q0 2.678-.006 5.355c-.005 2.726 0 5.45.007 8.176q0 2.608-.004 5.215l.006 2.46c-.016 3.928-.17 7.548-1.139 11.384h-1l1-35h-17v22h-1v-28h16z"/><path fill="#7F98A4" d="M92 190c1.015 3.156.791 4.84 0 8a124 124 0 0 0-.316 5.203l-.127 2.969-.12 3.078-.13 3.125Q91.148 216.188 91 220c-3.709-2.047-5.68-3.296-7.46-7.207-.303-1.19-.604-2.38-.915-3.606l-.96-3.582c-.668-3.621-.787-6.931-.665-10.605l7 3 2-6h2z"/><path fill="#7C909A" d="M147 48c4.457 1.343 8.286 3.106 12.313 5.438l3.175 1.808C165 57 165 57 166 60l-6-2-1 4-2-4-3 1v3l5 1-1 6-1.68-1.277-2.195-1.66-2.18-1.653c-1.889-1.45-1.889-1.45-3.945-2.41v-3l-3-1c-1.064-3.384-1.214-4.58.438-7.812z"/><path fill="#C37B19" d="m220 202 1 2 3.21-.035 4.165-.028 2.117-.025c5.281-.025 5.281-.025 7.508 1.088-1.51 5.437-5.262 8.852-9.062 12.813l-1.971 2.1c-3.49 3.684-3.49 3.684-4.967 5.087h-1v-7l3 1 2-4h3v-5h-14z"/><path fill="#737975" d="M192 185c4.284 4.284 4.25 8.932 4.363 14.695-.439 2.787-1.308 3.464-3.363 5.305l-1 3c-4.225 5.222-8.818 6.867-15.332 7.766-3.26.286-6.398.38-9.668.234 2.841-2.257 5.67-3.93 8.938-5.5A126 126 0 0 0 186 205l3-1v-2l5-2-1-1c-1.177-3.296-.84-5.639 0-9h-2z"/><path fill="#BD7616" d="M253 170h1c-.686 10.067-5.875 20.423-11 29l-2 1 1-6h2l-1-7h2l2-6 2 1 1-3h-16l-1-3 2-4 17 1z"/><path fill="#C58953" d="m147 99 1 3h4c3.256 8.035 3.256 8.035 2.188 12.063L153 116h-3l-.148-2.336-.227-3.039c-.07-.998-.14-1.995-.21-3.023-.179-2.757-.179-2.757-2.415-4.602-2.328-.278-2.328-.278-5.008-.195l-2.988.02-3.129.05-3.152.027A1137 1137 0 0 0 125 103c1.727-4.836 1.727-4.836 4.188-6.312 6.71-1.64 11.696-.535 17.812 2.312"/><path fill="#B26E10" d="M174 245c-.893 3.57-1.907 4.925-4.812 7.25-11.424 5.735-28.783 2.849-41.188 2.75v-1l2.832-.262c7.897-.814 15.49-2.14 23.168-4.175l2.35-.622c3.773-1.036 7.394-2.207 11.025-3.664C171 244 171 244 174 245"/><path fill="#EFC872" d="M27 95c.907 2.993 1.027 5.281.625 8.375l-.3 2.363A238 238 0 0 1 26 114h-2l2 6h1v6l-2 1v30h-1v-5h-2c-3.245-19.11-.818-38.672 5-57"/><path fill="#AF6812" d="M210 218v3q.47 3.005 1 6h9a1606 1606 0 0 1-5.187 4.313l-2.918 2.425c-2.567 2.005-4.99 3.792-7.895 5.262l-2-1c-.414-2.285-.414-2.285-.625-5.062l-.227-2.786L201 228l1.969-.883L205 226q.53-1.993 1-4c2.063-2.25 2.063-2.25 4-4"/><path fill="#E6C17B" d="M168 15v1h-47v1l-16 1c12.292-12.292 47.624-6.257 63-3"/><path fill="#7A939E" d="M153 156c2 .25 2 .25 4 1l1 3h2l-1 3a70 70 0 0 1-4 1l-1 2c-1.96.852-1.96.852-4.375 1.625-.791.26-1.583.52-2.398.79C145 169 145 169 142 169l1-9-3-1 2.59-.402 3.347-.536 3.34-.527c2.627-.253 2.627-.253 3.723-1.535"/><path fill="#CA8722" d="M183 130h2l-3 12-3-1c-.658 9.7 2.343 18.104 6 27h-3c-3-3.333-3-3.333-3-6h-2c-1.76-4.556-2.27-8.375-2.25-13.25l-.016-3.703C175 142 175 142 177 140c.648-2.57.648-2.57 1-5h2v-2h2z"/><path fill="#AA600C" d="M254 163c1.124 3.304.896 5.05-.437 8.25l-.872 2.14L252 175l-1-2h-16l1-8q2.844-.04 5.688-.062l3.199-.036c2.837.09 5.357.449 8.113 1.098z"/><path fill="#95ADB5" d="M91 174h6l1 2 2-1c-.698 3.975-2.629 7.266-4.562 10.75l-.999 1.824Q93.225 189.79 92 192h-2l-.437 1.875C89 196 89 196 88 198l-5-1v-3l1.938-.687c2.281-1.13 2.281-1.13 2.687-3.563L88 187c.644-2.007 1.306-4.01 2-6h3l-1.562-1.25L90 178c.313-2.187.313-2.187 1-4"/><path fill="#B36D12" d="M201 224c2 3 2 3 1.563 5.313L202 232c.383 3.221.383 3.221 1 6-6.5 3-6.5 3-11 3l-2-4-2 1c.36-2.818.842-3.854 2.96-5.816l2.415-1.746c2.748-2.01 5.288-3.958 7.625-6.438m3 0 1 2-2-1z"/><path fill="#FCCC62" d="M108 65v2h3c-.326 3.15-.697 4.676-2.89 7.02-.78.591-1.558 1.183-2.36 1.793l-2.328 1.832C100.692 79.172 99.077 79.278 96 79c-.717-5.972-.717-5.972 1.23-8.766C100.614 66.792 102.948 65 108 65"/><path fill="#D28B21" d="M248 81c3.329 3.646 5.022 8.21 6 13-.422 2.281-.422 2.281-1 4l-2-1v-6l-2.738.035-3.575.028-3.55.035C238 91 238 91 235 90l-1 2v-7h14z"/><path fill="#7F959E" d="m119 47 1 6 1-1q3.5-.062 7 0l-1 2c-2.475.425-4.882.75-7.375 1-5.597.532-5.597.532-10.625 3h-4v-6q1.904-.972 3.813-1.937l2.144-1.09C113.789 47.624 115.842 47 119 47"/><path fill="#BE8439" d="M207 33c2.94 1.372 5.428 2.964 8 4.938l2 1.527L219 41l2.25 1.566L223 44v2l3 1v2h2c1.508 1.531 1.508 1.531 3.125 3.5l1.633 1.969L234 56l-1 2a367 367 0 0 1-4-3.312l-2.25-1.864C225 51 225 51 225 48l-2.312.188c-3.243-.227-3.563-.886-5.688-3.188-3.855-1.958-3.855-1.958-8-1l-3-3 2-2c-.322-3.1-.322-3.1-1-6"/><path fill="#F2B03D" d="m61 100 2 3c2.466 2.713 4.621 4.552 8 6a284 284 0 0 1-5.062 3.313c-2.316 2.016-3.001 3.799-3.938 6.687-2-2-2-2-2.812-4-1.591-2.679-3.285-3.083-6.188-4v-2l2.313-1.25c3.28-2.136 4.186-4.196 5.687-7.75"/><path fill="#99A099" d="M79 189c2.487 2.487 2.243 3.317 2.375 6.75.567 7.527 1.619 16.859 6.762 22.66L90 220c-5.736-2-10.101-5.35-14-10-.125-3.437-.125-3.437 1-6l1-1c.235-2.35.414-4.706.563-7.062l.253-3.91z"/><path fill="#728997" d="M181 170c4.437 3.514 8.508 6.807 11 12 .02 2.837-.42 5.194-1 8h2v8l2-1-1 4-5 1-.043-3.078c-.272-9.259-1.656-16.542-5.957-24.922h-2z"/><path fill="#AF7322" d="M100 149q1.974.928 3.938 1.875l2.214 1.055C108 153 108 153 109 155c-.82 2.129-.82 2.129-2.125 4.563l-1.258 2.44C104 164 104 164 101.32 164.778L99 165l2-3-2-1-1 2c-1.25-2.625-1.25-2.625-2-6 1.875-3.25 1.875-3.25 4-6z"/><path fill="#B97315" d="M141 39c9.112-.299 20.611-.164 28 6 1 3.25 1 3.25 1 6-2.437-.375-2.437-.375-5-1l-1-2c-1.857-.61-1.857-.61-4-1-2.187-.437-2.187-.437-4-1l-1-2c-3.306-1.338-6.268-2.035-9.812-2.5L142 41z"/><path fill="#C37E17" d="m208 162 1 2h2c.534 2.06 1.051 4.123 1.563 6.188l.878 3.48c.95 5.669-.504 8.859-3.504 13.644-.547.884-1.095 1.767-1.66 2.676L207 192c-1-3-1-3-.062-6.562 1.89-7.613 1.213-15.654 1.062-23.438"/><path fill="#E29D30" d="M184 153c6.666 6.274 12.058 13.227 15 22v3h-2c-.957-1.367-1.904-2.744-2.793-4.156-1.33-2.031-2.783-3.926-4.27-5.844-3.583-4.763-6.482-8.82-5.937-15"/><path fill="#3B2C1E" d="M140 107c2.875 1.5 2.875 1.5 5 3l-2 1-2-1 .125 2.875C141 116 141 116 139 118c-5.568-.568-5.568-.568-7-2a100 100 0 0 1 0-5l-6 3c1.212-3.636 2.792-4.445 6.098-6.203 2.821-1.182 4.89-1.255 7.902-.797"/><path fill="#5D7582" d="M94 197h1l.113 2.71c.369 6.78 1.01 12.88 3.266 19.302C99 221 99 221 99 224c-2.763-.523-5.326-1.109-8-2q.214-4.032.438-8.062l.119-2.28c.728-12.943.728-12.943 2.443-14.658"/><path fill="#DC962A" d="M88 155c-.54 3.885-1.545 5.978-4 9l-1.25 2.188C79.536 171.353 76.096 176.603 71 180c.598-4.143 2.007-7.182 4.063-10.812l1.66-2.958L78 164h2l.75-2.25c1.492-3.282 3.317-6.75 7.25-6.75"/><path fill="#E8AD44" d="M91 72c1.354 2.709 1.065 5.01 1 8h-3l1 14 2-3a393 393 0 0 1 5-3c2.055-1.61 4.02-3.297 6-5l2 1-1.574 1.18C97.753 89.73 94.795 94.322 92 101c-4.473-4.106-5.111-9.03-5.375-14.875C86.707 80.778 88.484 76.651 91 72"/><path fill="#A9B9B4" d="M90 133c4.798 3.876 9.43 7.925 13 13v2h2l2 4c-7.547-1.116-14.319-8.724-18.687-14.562A130 130 0 0 1 86 134l4 1z"/><path fill="#F1C670" d="m36 195 3 1-1 2 4-2-1 6h2v2l3-1 .188 3.313c.399 3.826.399 3.826 3.312 5.375L52 213c.813 2.188.813 2.188 1 4h4c1.75 1.5 1.75 1.5 3 3l-1 3v-2h-2l1 3c-2 0-2 0-3.41-1.328C36 201.05 36 201.05 36 195"/><path fill="#413021" d="M103.438 107.063c3.775.993 5.152 1.948 7.562 4.937h-2l-.437 1.938C108 116 108 116 107 117c-2.937.188-2.937.188-6 0l-2-2v-4l-2-1c1.992-2.93 2.805-3.004 6.438-2.937"/><path fill="#C7CCBB" d="M76 81h1l.076 2.244q.177 5.097.362 10.194l.119 3.529c.337 9.55.337 9.55 1.443 19.033l2 1c.633 2.504.633 2.504 1.125 5.563l.508 3.066L83 128c-10.364-12.127-9.06-28.916-8-44z"/><path fill="#C4916B" d="M107 98c4.845 2.643 7.263 6.884 9 12 .29 2.451.206 4.523 0 7-2.122-2.122-2.93-3.773-4.125-6.5l-1.07-2.406C110 106 110 106 110 104l-14-2 1-3c3.215-1.608 6.513-1.464 10-1"/><path fill="#76878F" d="M177 120h1c.86 5.591-1.293 8.534-4.422 12.89-.52.697-1.041 1.393-1.578 2.11l-2 2.813c-2.387 2.61-4.995 4.343-8 6.187.613-2.962 1.254-4.38 3-7 .394-2.324.735-4.658 1-7h5v-2l2.438-1.312c2.805-1.456 2.805-1.456 3.375-4.376z"/><path fill="#F4C598" d="M111 81h3l1 3-1.848.262c-2.78.953-3.22 1.997-4.59 4.55-2.095 3.601-4.16 5.721-7.562 8.188a279 279 0 0 0-5 5l2 1h-4c.433-5.011 1.598-7.202 5.25-10.625l2.457-2.328c2.363-2.11 4.806-4.087 7.293-6.047z"/><path fill="#F1B33A" d="m113 17-1 3-2.687-.062c-2.935.055-5.468.393-8.313 1.062l1 3a496 496 0 0 1-5.312 2.563l-2.989 1.44C91 29 91 29 88 28l-1-2 2.813-1.312c3.087-1.435 3.087-1.435 4.75-3.25C99.166 16.834 106.929 17 113 17"/><path fill="#C49C5C" d="M163 78c4.831 5.93 5.487 11.814 6.375 19.188 1.361 12.408 1.361 12.408 7.625 22.812.313 2.5.313 2.5 0 5l-3 2 .688-2.812L175 121c-1.27-1.521-1.27-1.521-3-3-3.251-6.503-4.78-13.153-5.437-20.375-.433-4.556-1.623-8.772-2.942-13.145C163 82 163 82 163 78"/><path fill="#B5C8C5" d="m156 46 1 2c2.017 1.134 2.017 1.134 4 2l-2 3c-3.218-1.02-6.287-2.128-9.375-3.5-3.874-1.603-7.545-2.57-11.625-3.5 5.788-3.858 12.052-3.745 18 0"/><path fill="#AFC6C8" d="M182 70c4.457 3.995 5.825 9.165 6.188 15.035 0 2.662-.054 5.307-.188 7.965l-3 1c-4.969-18.75-4.969-18.75-3-24"/><path fill="#AEB6AC" d="m174 136 2 1c-6.283 7.337-13.586 11.557-22 16l-4-3q3-1.627 6-3.25l1.794-.972a233 233 0 0 1 9.831-5.028c2.843-1.474 4.278-2.488 6.375-4.75"/><path fill="#CB841D" d="M234 58c3.394 3.126 5.606 5.565 7 10q-2.461-.36-4.922-.723a90 90 0 0 0-4.219-.46c-5.458-.496-5.458-.496-7.734-2.317L223 63l-2-1c1.811-1.811 4.613-1.382 7.063-1.562l3.347-.254L234 60z"/><path fill="#B36E15" d="m70 204 2 1v2l1.75.75c2.6 1.444 4.328 2.985 6.25 5.25v3l3 1 1.438 1.5c1.455 1.66 1.455 1.66 3.562 1.938 2.725.766 3.503 2.241 5 4.562-4.669-.515-7.84-2.635-11.562-5.312l-1.71-1.186c-8.415-5.935-8.415-5.935-9.478-11.252z"/><path fill="#D79B32" d="M163 83c2 1 2 1 2.633 2.75 1.211 5.538 1.547 10.582 1.367 16.25h-2v-4h-8l2-2-6-2c3.815-1.467 6.29-.433 10 1l-1-2a70 70 0 0 1-.125-4.562l-.008-2.442C162 84 162 84 163 83"/><path fill="#F0C667" d="m92 22 2 1-2 1.813c-2.337 2.062-2.337 2.062-2 5.187l-9 4-1-2-9 3 1-2h2v-2l12-6 3.273-1.762z"/><path fill="#DBB091" d="M146 140c1.364 2.728.878 4.61.563 7.625l-.31 3.04L146 153c-6.759 2.08-12.956 2.211-20 2v-1l1.723-.008c5.535-.277 8.75-1.376 12.77-5.226 2.329-2.728 3.904-5.56 5.507-8.766"/><path fill="#F6D3B0" d="M98 134h2a105 105 0 0 1 4 5c1.975-.348 1.975-.348 4-1l1-2 2.188 1.438c2.707 1.504 4.774 2.128 7.812 2.562v1h-10c.783 3.747.783 3.747 2 6-5.875-1.846-9.674-5.923-13-11z"/><path fill="#9CB3BA" d="m178 187 2 1v10l-3 1v2h-7l1-8 4-1 1 3z"/><path fill="#AA6711" d="m160 250-3 2 3 2c-6.86 1.057-13.568 1.116-20.5 1.063l-3.36-.014A2443 2443 0 0 1 128 255v-1l3.184-.367c6.731-.797 13.319-1.636 19.91-3.258 3.004-.591 5.854-.505 8.906-.375"/><path fill="#B47A25" d="M187 114c2 3 2 3 2 5h-2c-.234 4.79-.234 4.79 2 9l-2 4-1-3-3 1v5l-1-2h-2v2h-2l-1 3-2-1 1.863-2.746c4.392-6.58 8.134-12.507 10.137-20.254"/><path fill="#657E89" d="M186 210c-.707 1.922-.707 1.922-2 4-2.137.828-2.137.828-4.687 1.25l-2.692.445c-3.259.38-6.345.447-9.621.305a60.6 60.6 0 0 1 8.938-5.812l2.527-1.395c3.223-1.008 4.602-.32 7.535 1.207"/><path fill="#91A9B1" d="m88 182 2 1c-.7 3.147-1.76 6.026-3 9l2 1-2.937.375L83 194l-1 2c-1.837-3.782-2.158-5.946-1-10h5v-3z"/><path fill="#BD8A64" d="m138 97 2 5-15 1c2-5 2-5 4.25-6.375 3.37-.766 5.465-.72 8.75.375"/><path fill="#D0A783" d="M253 170h1c-.686 10.067-5.875 20.423-11 29l-2 1 1-6h2l-1-7h2l2-6 2 1z"/><path fill="#AE7D37" d="m146 38-4 2 3.063.313c4.15.724 7.15 1.91 10.937 3.687v2l-2.012-.621-2.675-.816-2.637-.81c-5.511-1.552-10.794-2.024-16.488-2.315l-2.39-.131Q126.9 41.149 124 41v-2q3.53-.255 7.063-.5l3.972-.281c3.666-.202 7.295-.257 10.965-.219"/><path fill="#A4793A" d="M160 227v2h-6v2h-6v2q-6.058.075-12.115.11-2.059.016-4.118.04c-1.978.025-3.957.035-5.935.045l-3.602.032c-3.177-.223-5.373-.866-8.23-2.227v-1h7v2c3.96-.052 7.917-.148 11.875-.25l3.36-.043c6.556-.193 11.706-1.02 17.648-3.858C156 227 156 227 160 227"/><path fill="#C9A16F" d="M237 205c0 5.668-5.35 9.946-9 14-2.258 2.152-4.546 4.068-7 6v-7l3 1 2-4h3v-5h4v-2c2-1.625 2-1.625 4-3"/><path fill="#D9942D" d="M202.125 109.25C204 110 204 110 205 111c.294 3.722.148 4.778-2 8-2.625.188-2.625.188-5 0-1.336-6.435-1.336-6.435.188-9 1.812-1 1.812-1 3.937-.75"/><path fill="#FCCB5A" d="M48 77c.363 5.438.363 5.438-1.25 7.938C45 86 45 86 42.813 85.688L41 85c-.8-3.287-1.097-4.71 0-8 2.667-1.333 4.167-.671 7 0"/><path fill="#E1C6A0" d="M174 18c11.963 1.573 22.925 7.659 33 14-2 1-2 1-3.84.547l-2.097-.797-2.09-.766c-2.123-1.06-3.365-2.26-4.973-3.984-3.086-1.891-4.173-2-8-2v-2l-3.187-.312C179.122 22.022 177 21.182 174 19z"/><path fill="#868D88" d="M165 80h5l2 7-2 1a109 109 0 0 0-1 7h2v13h-1a2855.553 2855.553 0 0 0-1.375-10.062l-.383-2.858C167.52 89.89 166.593 84.994 165 80"/><path fill="#B88536" d="M160 161h5v2h8l1 3 3.75-.375c2.21-.02 2.21-.02 4.25.375 2.375 2.938 2.375 2.938 4 6l2 1 2-2 1 3h-2l1 5-2-2.125c-4.593-4.58-9.734-8.917-16-10.875v-2l-1.863.105-2.45.083-2.425.105c-2.74-.355-3.554-1.187-5.262-3.293"/><path fill="#5F727B" d="M138 154c2.625.375 2.625.375 5 1l-1 3-6 1v2h-15l4-3 1-1c2.548-.283 5.095-.448 7.652-.621 2.533-.174 2.533-.174 4.348-2.379"/><path fill="#D5AF5B" d="m126.938 55.875 2.65.027c2.137.024 4.275.06 6.412.098v2l2.75-.187c3.54.204 4.7.833 7.25 3.187h-6v-2l-8 1v-3l-8 .938-2.254.263Q114.37 59.07 107 60c6.361-4.24 12.53-4.271 19.938-4.125"/><path fill="#938E78" d="m124.75 54.563 3.422-.061C135.6 54.506 141.343 55.676 148 59v2l-12-3v-2c-15.244.4-15.244.4-30 4v-2c5.871-3.924 11.875-3.48 18.75-3.437"/><path fill="#C2882C" d="M119 60v3l-1.473 1.293c-2.86 3.198-1.976 7.438-1.898 11.52.489 4.199 1.557 6.109 4.371 9.187-2.375-.187-2.375-.187-5-1-2.784-4.732-3.03-10.241-2.937-15.625 1.266-4.558 3.124-5.698 6.937-8.375"/><path fill="#CD9049" d="M167 109h2c3.125 6.625 3.125 6.625 2 10l-2-3-3 6-1-2 1-2h-2l-.312-2.875c-.373-3.416-.373-3.416-3.688-5.125l6 1z"/><path fill="#566D79" d="m163 163 1 3-2.937.875c-3.17.767-3.17.767-4.063 3.125l-8-1c1.375-1.5 1.375-1.5 3-3h2l1-3c2.892-1.197 5.108-1.197 8 0"/><path fill="#F9D2AB" d="M129 102q2.906-.04 5.813-.062l3.269-.036C141 102 141 102 144 103l-1 2h-7l5 1v1c-10.558.185-10.558.185-15-1l1-2h2z"/><path fill="#D39B49" d="M248 81c3.329 3.646 5.022 8.21 6 13-.422 2.281-.422 2.281-1 4l-2-1v-6h-6l-1-4h2v-2h2z"/><path fill="#A3BAC0" d="M91 174h6l1 2 2-1c-.645 3.483-1.982 6.094-4 9h-2l-.875-2.437c-.858-2.696-.858-2.696-3.125-3.563zm0 7 2 1-2 1z"/><path fill="#C0D5D3" d="M81 73h1c.367 5.501-.718 9.863-2.266 15.133-1.088 4.25-1.46 8.499-1.734 12.867h-1V80h2z"/><path fill="#C6831B" d="m92 50 2 1v2l-4 2v4c-3.856.22-6.492-.396-10-2 4.816-4.976 4.816-4.976 9.125-5.062L92 52z"/><path fill="#D6E2E0" d="M113 190c2.625-.187 2.625-.187 5 0 .125 3.375.125 3.375 0 7l-2 2h-4c-.625-2.812-.625-2.812-1-6z"/><path fill="#E29827" d="M185 128c2.61 1.305 2.68 2.358 3.625 5.063.26.733.52 1.466.79 2.222.192.566.386 1.132.585 1.715l-4 1-1 5-3 1c-.455-5.763 1.209-10.606 3-16"/><path fill="#8597A0" d="m155 57 1.938.5c2.108.746 2.108.746 4.062-.5l4 4c-2.625 1.625-2.625 1.625-6 3-3.375-.812-3.375-.812-6-2 .875-3.875.875-3.875 2-5m2 7 2 1Z"/><path fill="#C17A13" d="M170 226c-7.897 4.25-15.844 8.308-25 8l3-1v-2h6v-2h6v-2c3.839-1.483 6.062-2.224 10-1"/><path fill="#899FA7" d="m102 217 6 1-2 9c-2.437-.812-2.437-.812-5-2-1.208-3.623-.543-4.641 1-8"/><path fill="#6D8691" d="M102 173c1 3 1 3-.312 5.75L100 182c-.772 2.316-1.385 4.635-2 7h-2l-2 4c-.972-2.587-1.099-3.727-.145-6.367l1.332-2.508 1.399-2.64A100 100 0 0 1 102 173"/><path fill="#CFD2BA" d="M111 45v2h-2v2l-3.437 1.063c-5.917 2.21-11.438 6.05-15.2 11.16L89 63h-2c3.289-7.668 15.357-18 24-18"/><path fill="#95AEB5" d="M136 160h7c-.06 1.46-.149 2.918-.25 4.375l-.14 2.46C142 169 142 169 140.155 170.313c-2.951.942-5.178.365-8.156-.312l1-3 8-1c-.195-1.95-.195-1.95-1-4-1.984-1.284-1.984-1.284-4-2"/><path fill="#F3B33B" d="m80 31 1 3c-2.209 2.196-4.41 4.26-7 6-2.937-.125-2.937-.125-5-1 1.018-2.661 1.667-3.805 4.164-5.266l2.461-.984 2.477-1.016z"/><path fill="#BD801A" d="m200 197 2 1c-1.362 3.067-2.897 5.118-5.312 7.438-.622.6-1.243 1.2-1.883 1.82L193 209l-2.687 2.813c-2.071 1.959-3.697 3.121-6.313 4.187 1.818-4.818 5.88-7.665 9.656-10.934 2.793-2.47 5.011-4.534 6.344-8.066"/><path fill="#F5CCA4" d="M100 103a99 99 0 0 1 5 0h2.563c3.482 1.429 4.244 3.7 5.835 6.992C114 112 114 112 113 115l-1.75-2.312c-3.338-3.987-6.375-5.928-11.25-7.688z"/><path fill="#B1CBD0" d="M77 101h2q.722 3.53 1.438 7.063l.408 1.99A198 198 0 0 1 83 123h-2l-.375-2.375c-.416-2.766-.416-2.766-2.625-4.625-.306-2.57-.51-5.048-.625-7.625l-.117-2.14c-.094-1.745-.177-3.49-.258-5.235"/><path fill="#AD7930" d="m156 46 9 1 1 3 7 1c1 3 1 3 1 7l-3-1v-2l-1.746-.844c-2.186-1.121-4.24-2.344-6.316-3.656l-2.036-1.281A322 322 0 0 1 156 46"/><path fill="#B17A2B" d="m117 43-2.344.953C108.641 46.425 102.771 49.003 97 52v-3l3-1 .5-2 .5-2 3-1v2h3v-2c3.736-.764 6.348-1.072 10 0"/><path fill="#8C968F" d="m180 215-2 3h-2v2q-1.934 1.007-3.875 2l-2.18 1.125C168 224 168 224 166 224l1-4 4 1-1-4c3.402-2.094 6.053-2.18 10-2"/><path fill="#7E8A8F" d="M181 170c4.543 3.598 8.123 6.936 11 12v2h-3l-1 2-5-12h-2z"/><path fill="#CFA78B" d="M109 112h2l2 6c-2 2-2 2-3.875 2.23l-2.125-.043-2.125-.019C103 120 103 120 101 119v-2l3.438-.812L108 115z"/><path fill="#F7B543" d="m197 56 2 3q1.298 1.544 2.625 3.063C204 65 204 65 204 67h2c2.183 4.271 4.313 8.502 6 13-2.9-2.754-5.203-5.562-7.437-8.875-2.05-3.01-4.105-5.816-6.563-8.5-2-2.625-2-2.625-1.812-5z"/><path fill="#C5D3D5" d="M137 185c2.125.375 2.125.375 4 1-.498 3.735-.875 5.812-3 9h-3c-.195-6.055-.195-6.055 0-8z"/><path fill="#AF7122" d="M174 138c1.642 3.283.519 6.425 0 10h-2v15h-1l-1-18-2-1z"/><path fill="#EEBC54" d="M58 224h4v2l3-1c2.688.938 2.688.938 5 2l-2 1 2 6c-5.257-1.434-8.518-4.996-12-9z"/><path fill="#68818C" d="m162 166 2 1-6 8-1-2c-3.492-.1-6.594.222-10 1 3.625-3 3.625-3 7-3v-2l1.75-.375c2.292-.55 2.292-.55 4.375-1.75z"/><path fill="#F8CB9B" d="M155 110c7.875.875 7.875.875 9 2 .475 7.366.475 7.366-1.5 10l-1.5 1v-8l-4-1v-2h-2l-1 2z"/><path fill="#A47231" d="m80 214 3.25 1.875c2.548 1.457 5.103 2.854 7.75 4.125v2l1.688.375c2.533.685 4.891 1.616 7.312 2.625l-2 1-3-1v2c-1.937-.75-1.937-.75-4-2-.75-2.125-.75-2.125-1-4l-2.75-.25c-3.67-.847-4.949-1.83-7.25-4.75z"/><path fill="#A3B4B0" d="M97 140c4.875 4.625 4.875 4.625 6 8h2l2 4c-4.349-.502-6.925-3.061-10-6-.937-2.187-.937-2.187-1-4z"/><path fill="#B87E57" d="M162 123c2.38.176 3.702.697 5.379 2.402 1.242 1.504 2.435 3.05 3.621 4.598h-5l.188 3.313C166 137 166 137 164.5 138.938L163 140v-5h2l-2-9h-2z"/><path fill="#F6DA9B" d="M128 13v1l-7 2v1l-16 1c5.443-5.443 15.727-5.364 23-5"/><path fill="#B07D5E" d="m111 112 2 1v2h2c-.514 4.97-1.234 9.29-3 14l4 2h-6c-.687-1.625-.687-1.625-1-4l1.5-2.687c1.996-4.409 1.358-7.66.5-12.313"/><path fill="#EFC46C" d="m113 17-1 3-2.625-.187c-3.438-.042-3.438-.042-6.375 1.75-3.547 1.7-5.263 1.416-9 .437 4.993-4.993 12.301-5 19-5"/><path fill="#553E29" d="M140 107c2.875 1.5 2.875 1.5 5 3-3.102.931-5.713 1.024-8.937.875-4.2-.062-6.686.423-10.063 3.125 1.212-3.636 2.792-4.445 6.098-6.203 2.821-1.182 4.89-1.255 7.902-.797"/><path fill="#C8A26F" d="M202 240c-1.93 1.2-3.87 2.385-5.812 3.563l-3.27 2.003C190 247 190 247 187 246l1-3h4v-2c3.839-1.483 6.062-2.224 10-1"/><path fill="#F6B845" d="M120 235h25c-5.638 3.759-10.993 2.991-17.375 2.063l-2.23-.303c-1.8-.246-3.598-.502-5.395-.76z"/><path fill="#B38336" d="M81 182c0 3 0 3-.473 4.738-1.007 4.322-.934 8.822-1.148 13.242L79 203l-2 1a419 419 0 0 1-.25-7.625l-.102-2.16c-.098-5.357 1-8.031 4.352-12.215"/><path fill="#EED4B9" d="M97 112c2 3 2 3 3 6l-4-1 .5 1.563c.65 3.17.562 6.21.5 9.437h3v5l-3-1c-2.123-5.364-2.233-10.284-2-16h2z"/><path fill="#D2A055" d="M234 58c3.394 3.126 5.606 5.565 7 10l-3.375-.5c-3.345-.546-3.345-.546-5.625-.5v-6l2-1z"/><path fill="#BC7411" d="M200 33c5.625 1.875 5.625 1.875 8 3l1 3c-1.437 2.188-1.437 2.188-3 4-4.228-3.083-4.228-3.083-6-5-.375-2.812-.375-2.812 0-5"/><path fill="#F6D998" d="M27 95c.907 2.993 1.027 5.281.625 8.375l-.3 2.363A238 238 0 0 1 26 114h-2l-1 2c-.215-5.231.476-9.438 2-14.437l1.125-3.747z"/><path fill="#B47B29" d="M185 73h4c1.813 2.313 1.813 2.313 3 5-1 3-1 3-2 5a100 100 0 0 0 0 5c-1.732-3.162-2.713-6.267-3.625-9.75-.26-.985-.52-1.97-.79-2.984-.192-.748-.386-1.496-.585-2.266"/><path fill="#D4B160" d="M91 72c1.354 2.709 1.065 5.01 1 8h-3v12l-2-1c-.553-7.352.49-12.512 4-19"/><path fill="#DBBD97" d="M187 248c-16.114 6.802-16.114 6.802-22 5 3.593-3.45 6.185-3 11-3 2.138-.696 4.154-1.52 6.203-2.441C184 247 184 247 187 248"/><path fill="#C8D7D7" d="M165.188 179.313 167 180l-1 5-5 1c-.687-1.812-.687-1.812-1-4 1.603-2.446 2.233-3.11 5.188-2.687"/><path fill="#BD8948" d="M117 85c2.686.384 3.81.795 5.688 2.813 3.296 3.118 7.14 4.51 11.312 6.187v2c-6.666-1.304-11.846-4.603-17-9z"/><path fill="#A05C06" d="M116 35v2l4-1 1 2c-1.455.39-2.914.76-4.375 1.125l-2.46.633L112 40l-2-2c-3.1.322-3.1.322-6 1 1-2 1-2 4.313-3.125C112 35 112 35 116 35"/><path fill="#AC640B" d="m46 166 1.938 1c1.83 1.073 1.83 1.073 3.062 1l1 9-4-1c-1.598-3.597-2-6.034-2-10"/><path fill="#A6C0C2" d="m174 65 8 4-1 8c-7-8.448-7-8.448-7-12"/><path fill="#80939D" d="M101 143c1.341.757 2.673 1.531 4 2.313l2.25 1.3L109 148v3l4 1-5 2c-3-3.75-3-3.75-3-6h-2z"/><path fill="#AE7454" d="m146 144 1 2c2.126.467 2.126.467 4.563.625l2.503.227L156 147l-3 2-2 1.625C149 152 149 152 146 152z"/><path fill="#A2B8BE" d="M174 131h2v5l-1.937.313L172 137l-1 3-3 2-3-1 3-1a88 88 0 0 0 2-4c2-2.75 2-2.75 4-5"/><path fill="#A56D20" d="M73 92h1l.184 3.29.254 4.335.119 2.16c.246 4.133.678 8.138 1.443 12.215l-1-2h-2v-2l-3-1 1-3h2z"/><path fill="#F0B757" d="m168 16 6 1-3 2 3 2v2l-7-2v-2l-7-1v-1h8z"/><path fill="#86A0AA" d="m95 203 5 3-1 1.5c-1.436 3.59-1.129 6.645-1 10.5-3.35-5.024-3.098-9.1-3-15"/><path fill="#A78A79" d="m141 110 2 1-1 5 2 1c-3.206 2.137-4.225 2.296-7.937 2.313l-2.59.05c-2.915-.428-4.286-1.44-6.473-3.363 4.136-.098 7.936.226 12 1z"/><path fill="#D8B258" d="M102 60h2c-1 3-1 3-4 5-1.213 3.054-1.213 3.054-2 6h-4l-2 1c1.59-4.136 4.605-7.232 8-10h2z"/><path fill="#637B83" d="m104 165 10 5v3l-2.312-.937A111 111 0 0 0 106 170l-3 3z"/><path fill="#C78122" d="m59 138 4 2-1 5-5-1c.875-4.875.875-4.875 2-6"/><path fill="#C4906A" d="m104 98 3 4H96l1-3c2.575-1.287 4.147-1.348 7-1"/><path fill="#B9720F" d="m223 62 3 2v2h6l-1 3-4-1 1 5c-3.366-2.725-4.442-6.069-6-10z"/><path fill="#A8C2C3" d="M149 46c4.776.468 8.045 1.243 12 4l-2 3-6-2v-2l-4-2z"/><path fill="#BECFD1" d="M175 192v8l-5 1c.586-6.152.586-6.152 1-8 2-1 2-1 4-1"/><path fill="#D09E5D" d="M252 157h3c2 2 2 2 2.047 4.094l-.297 2.406-.266 2.406C256 168 256 168 254 170l.125-2.312c.096-2.915.096-2.915-2.125-5.688-.687-2.125-.687-2.125-1-4z"/><path fill="#C88F3E" d="M112 73h1l1 8-3 1-1.437 1.625L108 85c-2.187-.312-2.187-.312-4-1l3-1a90 90 0 0 0 2-4l2-1c.656-2.527.656-2.527 1-5"/><path fill="#B97520" d="M162.188 248.625C164 250 164 250 165 254l-9-1v-3c2.393-1.539 3.386-2.175 6.188-1.375"/><path fill="#D7E3E2" d="M105 185h4v6c-1.937.563-1.937.563-4 1-1-1-1-1-1.125-3.5C104 186 104 186 105 185"/><path fill="#B5CACD" d="M135 161h5l1 5a88 88 0 0 1-5 1c-1-1-1-1-1.062-3.562z"/><path fill="#E4D2B7" d="M98 134h2l1.125 2.063c2.618 4.101 6.144 6.862 9.875 9.937l-2 1c-4.944-3.233-8.123-5.822-11-11z"/><path fill="#8A8781" d="M177 120h1c.25 5.625.25 5.625-2 9h-4v2h-5v7l-2-1 1-7h5v-2l2.438-1.312c2.805-1.456 2.805-1.456 3.375-4.376z"/><path fill="#A87D3A" d="M190 91h1c.029 3.27.047 6.542.063 9.813l.025 2.814.01 2.705.016 2.491C191 111 191 111 190 114h-2z"/><path fill="#DBA87D" d="M141 102c5.48-.365 5.48-.365 7.688 1.188 1.765 2.438 1.615 4.022 1.5 7l-.083 2.73L150 115h-1l-.812-3.25c-1.546-4.88-2.958-6.93-7.188-9.75"/><path fill="#7D909A" d="m91 64 2 1-2 8-4 1c-.812-1.625-.812-1.625-1-4 1.468-2.246 3.159-4.024 5-6"/><path fill="#EAB13D" d="m110 61-1 2h-4v3l-6 3c.188-2.312.188-2.312 1-5 3.332-2.684 5.762-3.363 10-3"/><path fill="#B88144" d="m151 105 1 2 2 1c0 3.113-.174 5.108-1 8h-3c-.09-3.832.121-7.266 1-11"/><path fill="#B9700F" d="m235 90 5 1-1 7h-3z"/><path fill="#ADBBAC" d="M177 62.625c2.53 1.739 3.585 3.686 5 6.375-5.75-.75-5.75-.75-8-3l-2-1v-2c3-1 3-1 5-.375"/><path fill="#F6D998" d="m36 195 3 1-1 2 4-2-.125 3.188c.116 3.552.597 5.66 2.125 8.812-3.679-3.285-5.752-6.664-8-11z"/><path fill="#BB8854" d="M254 98c2.348 3.522 2.377 5.508 2.625 9.688l.227 3.574L257 114h-2c-.75-3.663-1.238-6.424 0-10h-2z"/><path fill="#B2853D" d="m175 60 5 1 1 5 3 1 1 6c-3.451-4.247-6.733-8.611-10-13"/><path fill="#F7D483" d="m92 22 2 1-2 1.813c-2.337 2.062-2.337 2.062-2 5.187-3.375-.547-5.082-1.055-8-3q2.43-1.294 4.875-2.562l2.742-1.442z"/><path fill="#6A7576" d="M94 216c3 1 3 1 4.188 2.875C99 221 99 221 99 224c-3.375-.547-5.082-1.055-8-3h5l-2-1z"/><path fill="#9E7A47" d="M160 161h5v2h8l1 3 5 1-2 1c-2.625-.937-2.625-.937-5-2v-2l-1.863.105-2.45.083-2.425.105c-2.74-.355-3.554-1.187-5.262-3.293"/><path fill="#B27B26" d="m91 141 7 5-5 4-2-1z"/><path fill="#7C8D98" d="m172 129 4 1-5 6a181 181 0 0 1-4-4v-1h5z"/><path fill="#A27435" d="M81 126c2.176 2.176 3.427 4.508 4.914 7.18 1.471 2.465 3.231 4.634 5.086 6.82l-2 1v-2h-3l-1.375-2.812C83.058 132.96 83.058 132.96 81 130z"/><path fill="#F3D9BF" d="M142 111h4l3 6c-3 1-3 1-5.187.063L142 116z"/><path fill="#768183" d="M192 185c2.495 2.495 2.36 3.673 2.625 7.125l.227 2.758L195 197l-3 2 1-9h-2z"/><path fill="#B57F29" d="m85 167 3 2 3 1-7 6 1-5h-2v-3z"/><path fill="#6B818F" d="M191 192h2v6l2-1-1 4-4 1z"/><path fill="#99A199" d="m84 176 3 2-1 4h-3l1 5h-4q.716-2.188 1.438-4.375l.808-2.46C83 178 83 178 84 176"/><path fill="#D28C22" d="M207 160h1v18h-3z"/><path fill="#F0BE98" d="m136 143 2 1-9 6-1-2-2-1 3-3 2 2h2v-2z"/><path fill="#E8CCAB" d="m109 141 4 1-1 5h4l1 3c-3.282-.875-5.509-1.509-7.937-3.937L108 144z"/><path fill="#B36F49" d="m152 130 4 1-2 3h-2l-1 3-3 1c.6-3.356 1.846-5.378 4-8"/><path fill="#CBAC90" d="M93 103h1l1 8h4l-1 4-4 1c-.872-2.995-1.108-5.636-1.062-8.75l.027-2.422z"/><path fill="#D49E75" d="M135.063 96.063C138 97 138 97 139.375 99.563L140 102h-8l3-2v-2h-6c3-2 3-2 6.063-1.937"/><path fill="#8A8E84" d="m162 69 3 1-2 7h2l-1 3v-2h-2l-.875-2.312C160.037 72.85 160.037 72.85 158 70l4 1z"/><path fill="#828B80" d="M148 61h4v2h7l-1 6q-1.939-1.434-3.875-2.875l-2.18-1.617C150 63 150 63 148 61"/><path fill="#C5D1CA" d="M92 60c0 3 0 3-2.5 5.688L87 68v-3l-4 4c.625-2.312.625-2.312 2-5 3.063-1.75 3.063-1.75 6-3z"/><path fill="#C17B1A" d="m101 45-1 4h-3l-1 3-4-4c6.75-3 6.75-3 9-3"/><path fill="#ACBCBC" d="m108 156 5 2-1.875 1.313c-2.345 1.684-2.345 1.684-4.125 4.687l-2-1c.75-4.75.75-4.75 3-7"/><path fill="#BAC5BA" d="m183 113 .875 1.938c.953 2.214.953 2.214 3.125 3.062l-3 6-1-4h-2z"/><path fill="#D2A27B" d="m112 106 3 1c1.158 3.473 1.069 6.36 1 10-2.098-2.098-2.65-3.38-3.625-6.125-.26-.724-.52-1.449-.79-2.195-.192-.555-.386-1.109-.585-1.68z"/><path fill="#D4AF85" d="M241 68c2.97 2.546 4.478 5.422 6 9l-1 2h-2l-1-6h-2c-.562-1.937-.562-1.937-1-4z"/><path fill="#DFB04E" d="M132 57c1.584.088 3.168.196 4.75.313l2.672.175c2.901.576 4.37 1.588 6.578 3.512h-6v-2l-8 1z"/><path fill="#E4E6E2" d="M111 53v4l-6 1v-4c2-1 2-1 6-1"/><path fill="#DFBE96" d="m223 46 3 1v2h2c1.508 1.531 1.508 1.531 3.125 3.5l1.633 1.969L234 56l-1 2c-8.815-7.114-8.815-7.114-10-12"/><path fill="#CFAB80" d="M174 18c4.195.6 8.01 1.575 12 3v2c-4.75-.466-8.108-1.17-12-4z"/><path fill="#9BB4BC" d="m89 193-1 5-5-1v-3c2-1 2-1 6-1"/><path fill="#F3D38B" d="M32 82h1c.44 5.285.44 5.285 0 8-2.5 2.5-2.5 2.5-5 4 .665-4.389 2.188-7.981 4-12"/><path fill="#F7C148" d="m100 35 1 2 2 1-9 4-1-2 1-2c3.063-.625 3.063-.625 6-1z"/><path fill="#BA751C" d="m175 242 2 1-.5 1.813c-.611 2.3-.611 2.3-.5 5.187l-2 1-2-2c0-3 0-3 1-6z"/><path fill="#CA9E69" d="M201 232c6.75 1.875 6.75 1.875 9 3l-6 4-2-1c-.625-3.062-.625-3.062-1-6"/><path fill="#D2AB80" d="m218 226 2 1-8 7-2-1 2-6c1.207.03 1.207.03 2.438.063 2.496.233 2.496.233 3.562-1.063"/><path fill="#BF8324" d="m75 201 2 2c-.375 3.125-.375 3.125-1 6l-4-2c.375-2.437.375-2.437 1-5z"/><path fill="#A0A7A7" d="m158 146 1 2h-2l-2 5-5-2c2.353-2.724 4.625-3.814 8-5"/><path fill="#BA7F5A" d="m147 136 2 3c-2.183 2.183-4.271 3.567-7 5l-2-1c1.375-1.5 1.375-1.5 3-3h2z"/><path fill="#AF7F33" d="M181 128c2 3 2 3 1.625 5.188L182 135v-2h-2v2h-2l-1 3-2-1z"/><path fill="#E7DFD1" d="m131 110 2 1-1 6-5-2c1-3 1-3 4-5"/><path fill="#BDC2B1" d="M182 70c2.523 2.523 3.714 3.834 5 7v3h-3z"/><path fill="#DBE3E1" d="m155 57 3 1-1 5-4-1c.875-3.875.875-3.875 2-5"/><path fill="#E8B544" d="m60 44 2 1-2 2.875c-2.18 2.787-2.18 2.787-2 5.125l-5-1a5817 5817 0 0 1 4.59-5.371A50 50 0 0 1 60 44"/><path fill="#9FB8C1" d="M126 221h4l-1 5h-4z"/><path fill="#93A09B" d="m90 170 2 4-4 3-3-2z"/><path fill="#9DB7BD" d="M101 165h3c1.125 3.75 1.125 3.75 0 6h-4z"/><path fill="#C07112" d="m252 159 1 6h-4l-1-5c2-1 2-1 4-1"/><path fill="#B78161" d="m131 148 2 1c-2.834 3.254-4.686 4.52-9 5v-3a136 136 0 0 1 7-3"/><path fill="#E3C19C" d="m96 105 3 2c-1.152 2.468-2.048 4.048-4 6-.625-2.875-.625-2.875-1-6z"/><path fill="#E2A52E" d="m163 83 2 1v7h-3q-.061-3.5 0-7z"/><path fill="#F6B336" d="m53 52 4 1c-.812 1.938-.812 1.938-2 4l-3 1-1-4h2z"/><path fill="#BC7417" d="m195 29 5 2-1 3-3 1-2-2c.375-2.125.375-2.125 1-4"/><path fill="#AA6D22" d="M221 220v6l-5-1c.375-1.937.375-1.937 1-4 2-1 2-1 4-1"/><path fill="#AC6808" d="M81 218c8.35 2.31 8.35 2.31 11.063 5.188L93 225c-4.932-.448-8.32-2.86-12-6z"/><path fill="#A45B0F" d="M227.125 212.875 230 213l-2 4-2-1-2 4v-4l-2-1c2-2 2-2 5.125-2.125"/><path fill="#979A8F" d="m85 212 .25 1.75c.955 2.866 2.535 4.25 4.75 6.25-4.435-1.394-6.874-3.606-10-7 3-1 3-1 5-1"/><path fill="#BB7712" d="m200 197 2 1c-1.382 3.21-2.924 5.05-5.625 7.25l-1.914 1.578L193 208c1.38-2.9 2.74-4.74 5-7 1.176-2.1 1.176-2.1 2-4"/><path fill="#5D7783" d="m154 172 3 1-1 5h-4c.875-4.875.875-4.875 2-6"/><path fill="#94AFB6" d="M99 171h4c-.75 2.438-.75 2.438-2 5-2.125.813-2.125.813-4 1 .875-4.875.875-4.875 2-6"/><path fill="#AC6A2D" d="M256 148h2l-1 11c-1.995-3.99-2.287-5.69-2-10z"/><path fill="#D58B22" d="M87 140v2h-2v11l-2 1 .098-5.957c-.015-2.246-.015-2.246-1.098-5.043 2.75-3 2.75-3 5-3"/><path fill="#EED2B1" d="M111 135h11c-3 3-3 3-6.062 3.375L113 138z"/><path fill="#9E6D2C" d="M76 115c1.962 2.943 3.582 5.76 5 9l-1 3c-2.042-1.692-2.918-2.637-3.512-5.262l-.175-2.425-.2-2.45z"/><path fill="#E8C4A3" d="M106 106c5.6 1.46 5.6 1.46 7.438 3.938C114 112 114 112 113 115l-1.75-2.312c-1.967-2.35-3.735-3.981-6.25-5.688z"/><path fill="#B67410" d="M158 231c-8.429 3.429-8.429 3.429-13 3l3-1v-2c3.736-.764 6.348-1.072 10 0"/><path fill="#A4BCC3" d="M102 217h4l-1 5-4-1z"/><path fill="#546C76" d="m114 171 12 1v1l-12 1z"/><path fill="#DBAA86" d="m112 126 1 2 2.875-.125C119 128 119 128 121 130c-4.054 1.158-6.218.837-10-1z"/><path fill="#AD6605" d="m68 110 3 1-2 2-2-1-.875 1.813C65 116 65 116 63 119c-.312-2.25-.312-2.25 0-5 2.313-2.375 2.313-2.375 5-4"/><path fill="#F5B242" d="M60 111c2.063.438 2.063.438 4 1l-2 7c-2.366-2.366-2.582-3.743-3-7z"/><path fill="#DCAA4A" d="m88 92 1 3 3-1c.625 1.813.625 1.813 1 4l-2 3c-2.294-3.44-3-4.723-3-9"/><path fill="#738893" d="m183 210 3 1c-1.625 2-1.625 2-4 4-3.25.25-3.25.25-6 0l2-2h4z"/><path fill="#7F8F8F" d="M164 164h8v1l-2.375.188L167 166c-1.375 2.476-1.375 2.476-2 5-1.062-1.812-1.062-1.812-2-4z"/><path fill="#7A8486" d="M153 156c1.938.313 1.938.313 4 1l1 3h2l-1 3-1-2-2-.937C154 159 154 159 153 156"/><path fill="#D69B7B" d="M146 140c1.364 2.728.878 4.61.563 7.625l-.31 3.04L146 153h-1l-.437-2.812c-.484-3.195-.484-3.195-1.563-6.188 1.438-2.187 1.438-2.187 3-4"/><path fill="#A96510" d="m84 134 2 3c-1.012 3.771-1.676 4.784-5 7 0-4 0-4 1-6h2z"/><path fill="#B9C1B5" d="m90 133 2 1v7c-4.875-4.75-4.875-4.75-6-7l4 1z"/><path fill="#F2E6D8" d="M109 112h2l1 5-5 1z"/><path fill="#CFDADB" d="m177 99 3 1-1 5-3-1z"/><path fill="#E0A035" d="m153 93 3.875.313 2.18.175C161 94 161 94 163 97c-1 1-1 1-3.562 1.063L157 98l2-2-6-2z"/><path fill="#C0CDCF" d="M171 82h4l-1 5-4-2z"/><path fill="#C57B1B" d="M174 162h5l2 5h-3v-2l-4-2z"/><path fill="#C48943" d="M149 102h3l2 5-2 1-2 2z"/><path fill="#B5CFD2" d="M81 73h1c.25 6.625.25 6.625-2 10-1.158-4.054-.837-6.218 1-10"/><path fill="#A97021" d="M91 223c6.152.586 6.152.586 8 1l1 2-5-1v2l-4-2z"/><path fill="#BB8A53" d="m221 218 4 2c-1.75 3.875-1.75 3.875-4 5z"/><path fill="#D0AB7E" d="M230 214v3c-2.5 2.188-2.5 2.188-5 4v-6l3 1z"/><path fill="#A76104" d="M57 192h2l4 4c-.375 2.125-.375 2.125-1 4a967 967 0 0 1-2.5-3.437l-1.406-1.934C57 193 57 193 57 192"/><path fill="#A4A893" d="M101 165v2h-5l-1 3-4-1c3.253-2.672 5.76-4 10-4"/><path fill="#526066" d="M159 162c1.938.313 1.938.313 4 1l1 3-2.375-.562c-2.596-.698-2.596-.698-4.625.562z"/><path fill="#7C8B90" d="m97 135 5 5-2 3c-1.5-1.187-1.5-1.187-3-3-.187-2.687-.187-2.687 0-5"/><path fill="#BA805F" d="M129 98h6v2l3 1h-8z"/><path fill="#DBB992" d="M211 36c3.914 1.27 5.79 2.512 8 6l-7-2z"/><path fill="#A96B24" d="M188 24c4.108 1.187 5.894 1.894 9 5l-9-2z"/><path fill="#B57011" d="M112 231c3.625.375 3.625.375 7 1l-2 2c-3.625-.375-3.625-.375-7-1z"/><path fill="#F5DC9C" d="M62 228c5.662 1.477 5.662 1.477 7.375 4.125L70 234c-3.914-1.27-5.79-2.512-8-6"/><path fill="#83969C" d="M174 215h6l-2 3c-2.625.188-2.625.188-5 0z"/><path fill="#ADC5C8" d="M128 180h4l-2 4h-4v-2h2z"/><path fill="#859FAD" d="M167 174h6l1 3-2 2z"/><path fill="#A76106" d="M44 157h3c.125 2.875.125 2.875 0 6l-2 2z"/><path fill="#D79028" d="m88 155-1 5h-5c2.258-5 2.258-5 6-5"/><path fill="#BBC1B6" d="m174 136 2 1a376 376 0 0 1-2.875 3l-1.617 1.688C170 143 170 143 168 143c1.23-3.688 2.939-4.724 6-7"/><path fill="#F9CBA2" d="m152 124 1 4 2.375-1.5C158 125 158 125 160 125l-1 3-7 1z"/><path fill="#A37D64" d="M127 116c4.219-.196 7.17.198 11 2v1c-6.4.37-6.4.37-9.437-1.5z"/><path fill="#D8B28C" d="M251 89c2.762 2.762 2.579 5.207 3 9l-3-1z"/><path fill="#F6DBA4" d="m37 72 2 4-6 5c1.199-3.083 2.477-6.063 4-9"/><path fill="#AE6C19" d="M230 55a283 283 0 0 1 5 5v1h-6l2-3z"/><path fill="#F8B641" d="M179 44h5l.375 1.938L185 48l2 1c-3 0-3 0-5.687-2.5z"/></svg>