<?xml version="1.0" encoding="UTF-8"?>
<svg version="1.1" xmlns="http://www.w3.org/2000/svg" width="187" height="239">
<path d="M0 0 C0.680625 0.51949219 1.36125 1.03898437 2.0625 1.57421875 C18.60434018 14.91753905 26.90999308 35.92977022 29.6875 56.48828125 C33.2219362 96.20650803 22.79455182 135.5968312 -2 167 C-8.24209252 174.34235318 -14.89832414 182.01338478 -24.83984375 183.39453125 C-32.15679081 183.79128878 -37.04753438 182.20881407 -43 178 C-48.12929328 181.92995957 -53.0185484 185.89665951 -57.5 190.5625 C-69.37177283 202.68464413 -83.9906154 209.82011227 -101 210 C-109.13611626 209.29880257 -114.6420571 206.69986186 -120.25 200.6875 C-124.74587836 195.15592191 -125.71315579 188.98650931 -125 182 C-123.83707198 173.00482182 -119.98446934 165.6383882 -115.58056641 157.8503418 C-111.94674977 151.34037766 -109.39628582 145.26474547 -110.125 137.625 C-110.18945312 136.79226562 -110.25390625 135.95953125 -110.3203125 135.1015625 C-112.13304311 126.82967684 -116.27819374 119.23498341 -120 111.6875 C-132.23242536 86.42900186 -134.02652888 58.38764449 -124.8671875 31.69921875 C-117.81930689 13.33272192 -104.67768517 -1.40659324 -86.97265625 -9.98193359 C-59.22569132 -22.31761642 -23.89377066 -19.45761103 0 0 Z " fill="#F84D1E" transform="translate(133,25)"/>
<path d="M0 0 C0.680625 0.51949219 1.36125 1.03898437 2.0625 1.57421875 C18.60434018 14.91753905 26.90999308 35.92977022 29.6875 56.48828125 C33.2219362 96.20650803 22.79455182 135.5968312 -2 167 C-8.24209252 174.34235318 -14.89832414 182.01338478 -24.83984375 183.39453125 C-32.15679081 183.79128878 -37.04753438 182.20881407 -43 178 C-48.12929328 181.92995957 -53.0185484 185.89665951 -57.5 190.5625 C-69.37177283 202.68464413 -83.9906154 209.82011227 -101 210 C-109.13611626 209.29880257 -114.6420571 206.69986186 -120.25 200.6875 C-124.74587836 195.15592191 -125.71315579 188.98650931 -125 182 C-123.83707198 173.00482182 -119.98446934 165.6383882 -115.58056641 157.8503418 C-111.94674977 151.34037766 -109.39628582 145.26474547 -110.125 137.625 C-110.18945312 136.79226562 -110.25390625 135.95953125 -110.3203125 135.1015625 C-112.13304311 126.82967684 -116.27819374 119.23498341 -120 111.6875 C-132.23242536 86.42900186 -134.02652888 58.38764449 -124.8671875 31.69921875 C-117.81930689 13.33272192 -104.67768517 -1.40659324 -86.97265625 -9.98193359 C-59.22569132 -22.31761642 -23.89377066 -19.45761103 0 0 Z M-97 10 C-97.67160156 10.58136719 -98.34320313 11.16273437 -99.03515625 11.76171875 C-110.85074551 22.62113316 -118.39148302 39.04421324 -119.14526367 55.09277344 C-119.16995596 58.64527722 -119.18565354 62.19740411 -119.1875 65.75 C-119.19974609 66.97460938 -119.21199219 68.19921875 -119.22460938 69.4609375 C-119.25250547 86.83090652 -113.56235256 100.30465362 -105.890625 115.65820312 C-100.24653761 127.16998247 -97.69802569 139.09220948 -100.9375 151.875 C-102.87863175 157.48166694 -105.87919021 162.68689101 -108.77514648 167.84912109 C-112.64823499 174.82343706 -114.51534737 181.01211572 -114 189 C-112.99869834 192.46604422 -111.83133204 194.73493437 -109 197 C-99.87525841 200.04158053 -89.17136889 198.63974857 -80.66796875 194.54296875 C-73.50809134 190.40219045 -67.64462529 184.82608996 -61.55859375 179.28125 C-48.36485196 167.51766953 -48.36485196 167.51766953 -41.75 166.5 C-37.78001087 167.02933188 -36.94222488 167.60494395 -34 170.0625 C-31.2154851 172.29224565 -30.27283226 172.96463286 -26.625 173.4375 C-9.13625726 166.50230891 2.91656005 142.91571136 9.9921875 126.578125 C20.38748795 100.89850835 24.77692463 64.05732786 14.13818359 37.87939453 C10.49329337 29.50732998 6.15111742 21.80158041 0 15 C-0.52980469 14.39027344 -1.05960937 13.78054687 -1.60546875 13.15234375 C-13.64819537 0.13704539 -30.65319898 -5.38013869 -47.953125 -6.18359375 C-66.14801129 -6.62223404 -83.32777893 -2.6268601 -97 10 Z " fill="#2F2F2F" transform="translate(133,25)"/>
<path d="M0 0 C0.680625 0.51949219 1.36125 1.03898437 2.0625 1.57421875 C16.5803506 13.28490683 25.92358941 32.02520839 28.4609375 50.32421875 C28.70356944 52.88496936 28.89511554 55.43033061 29 58 C28.34 58 27.68 58 27 58 C26.67128906 56.20369141 26.67128906 56.20369141 26.3359375 54.37109375 C22.38933077 33.71910414 15.18178555 13.90619233 -2.59375 1.13671875 C-5.34985741 -0.671009 -8.14142812 -2.35963808 -11 -4 C-12.20462891 -4.69609375 -12.20462891 -4.69609375 -13.43359375 -5.40625 C-32.07542268 -15.44651254 -55.83225051 -16.96578937 -76 -11 C-95.34398414 -5.1486169 -109.43138585 7.39623408 -119 25 C-121.02694907 29.25005451 -122.61021606 33.50364021 -124 38 C-124.31839844 38.97066406 -124.63679688 39.94132812 -124.96484375 40.94140625 C-132.63379832 69.17870901 -125.2246963 96.4297871 -112.1875 121.4375 C-107.90705124 129.91133755 -105.44311853 138.63660536 -108 148 C-110.01786727 152.90215631 -112.54060777 157.56094239 -115.05029297 162.22460938 C-120.34921601 172.13046243 -123.49164886 182.27054682 -121.3125 193.5625 C-118.96899961 199.70023912 -116.2177841 202.73291842 -110.3125 205.375 C-105.06704958 207.23729009 -100.50808619 207.53140801 -95 207 C-94.14792969 206.92910156 -93.29585937 206.85820312 -92.41796875 206.78515625 C-74.66017822 204.47118355 -61.39382022 191.9704452 -49.55078125 179.5234375 C-47.39142336 177.40215393 -45.64379476 176.1016518 -42.625 175.625 C-39.16097448 176.11986079 -37.60666277 177.73631917 -35 180 C-29.84165126 181.71944958 -25.08569945 181.77619955 -20.125 179.5625 C2.29463132 166.90766904 15.71445055 136.57027884 22.59716797 112.95068359 C26.97758222 96.26690563 27.20387778 78.15852889 28 61 C28.66 61.33 29.32 61.66 30 62 C31.03147235 101.99820564 21.50289777 142.28141435 -6.64160156 172.18383789 C-13.21219714 178.84056099 -18.39098801 183.0448455 -27.9375 183.5625 C-33.96754829 183.38627241 -38.12980654 181.44357114 -43 178 C-48.12929328 181.92995957 -53.0185484 185.89665951 -57.5 190.5625 C-69.37177283 202.68464413 -83.9906154 209.82011227 -101 210 C-109.13611626 209.29880257 -114.6420571 206.69986186 -120.25 200.6875 C-124.74587836 195.15592191 -125.71315579 188.98650931 -125 182 C-123.83707198 173.00482182 -119.98446934 165.6383882 -115.58056641 157.8503418 C-111.94674977 151.34037766 -109.39628582 145.26474547 -110.125 137.625 C-110.18945312 136.79226562 -110.25390625 135.95953125 -110.3203125 135.1015625 C-112.13304311 126.82967684 -116.27819374 119.23498341 -120 111.6875 C-132.23242536 86.42900186 -134.02652888 58.38764449 -124.8671875 31.69921875 C-117.81930689 13.33272192 -104.67768517 -1.40659324 -86.97265625 -9.98193359 C-59.22569132 -22.31761642 -23.89377066 -19.45761103 0 0 Z " fill="#151515" transform="translate(133,25)"/>
<path d="M0 0 C1.29386064 0.70953648 2.56915709 1.45525742 3.8125 2.25 C5.17375 3.0853125 5.17375 3.0853125 6.5625 3.9375 C9.7568417 7.22057342 12.2767131 10.91323034 13.8125 15.25 C13.4453125 18.03515625 13.4453125 18.03515625 12.8125 20.25 C10.5025 20.58 8.1925 20.91 5.8125 21.25 C5.37679687 20.63511719 4.94109375 20.02023438 4.4921875 19.38671875 C-0.2023076 12.85328611 -0.2023076 12.85328611 -7.1875 9.25 C-13.16469265 8.46379253 -18.14617864 8.95448297 -23.453125 11.89453125 C-25.39632401 13.41320254 -26.44782667 14.9156771 -27.75 17 C-28.8984375 18.82421875 -28.8984375 18.82421875 -30.1875 20.25 C-33.875 20.8125 -33.875 20.8125 -37.1875 20.25 C-37.8475 19.59 -38.5075 18.93 -39.1875 18.25 C-39.06097833 12.80956822 -36.85320079 9.08779941 -33.1875 5.25 C-23.81837105 -2.08093247 -11.3484731 -4.89654931 0 0 Z " fill="#30302F" transform="translate(100.1875,123.75)"/>
<path d="M0 0 C5.07010758 0.13059021 9.58862896 1.58436128 14.3671875 3.1796875 C15.64722656 3.58380859 15.64722656 3.58380859 16.953125 3.99609375 C23.21461505 6.02711505 23.21461505 6.02711505 25.4921875 8.3046875 C25.22422082 13.03876543 24.48955691 16.58381513 21.4921875 20.3046875 C16.14607646 24.28000084 9.87572262 24.09277826 3.4921875 23.3046875 C-1.11596645 21.12187773 -3.25866028 18.81584425 -5.5078125 14.3046875 C-5.87109375 11.26171875 -5.87109375 11.26171875 -5.8203125 8.1171875 C-5.81644531 7.07175781 -5.81257813 6.02632813 -5.80859375 4.94921875 C-5.32777 0.72171643 -4.15122319 0.36057395 0 0 Z " fill="#302F2F" transform="translate(46.5078125,90.6953125)"/>
<path d="M0 0 C2.52885132 4.08506752 2.35578186 7.95242508 1.625 12.625 C-0.60893039 17.17559894 -2.89051436 19.37633242 -7.375 21.625 C-12.58730276 22.40368857 -18.38536156 22.75772476 -23 19.875 C-26.54157474 16.51982393 -27.25915006 14.94568928 -27.6875 10.0625 C-27.375 6.625 -27.375 6.625 -26.34375 5.078125 C-23.37919869 2.89000379 -20.04807832 1.98348951 -16.5625 0.9375 C-15.86318359 0.71255859 -15.16386719 0.48761719 -14.44335938 0.25585938 C-9.51201236 -1.26183302 -4.72427077 -2.73510413 0 0 Z " fill="#303030" transform="translate(132.375,92.375)"/>
<path d="M0 0 C3.04199219 1.35107422 3.04199219 1.35107422 6.046875 3.0546875 C7.13871094 3.66957031 8.23054688 4.28445312 9.35546875 4.91796875 C10.47566406 5.56378906 11.59585938 6.20960937 12.75 6.875 C14.45349609 7.83212891 14.45349609 7.83212891 16.19140625 8.80859375 C25.78288704 14.25855733 25.78288704 14.25855733 28 17 C28.3125 19.5625 28.3125 19.5625 28 22 C26 24 26 24 23.41796875 24.41015625 C18.69439426 23.84332731 15.37181215 21.8246511 11.3125 19.4375 C10.12636108 18.75457886 10.12636108 18.75457886 8.91625977 18.05786133 C7.33572583 17.14237402 5.75904293 16.22020182 4.18652344 15.29101562 C2.27186424 14.16052011 0.34575867 13.05409173 -1.5859375 11.953125 C-2.56820312 11.37046875 -3.55046875 10.7878125 -4.5625 10.1875 C-5.40941406 9.68605469 -6.25632813 9.18460938 -7.12890625 8.66796875 C-9.50546051 6.54941203 -9.79240618 5.13416041 -10 2 C-7.69135301 -2.3287131 -4.19878877 -0.85166689 0 0 Z " fill="#303030" transform="translate(48,68)"/>
<path d="M0 0 C2 2 2 2 2.6875 4.75 C2 8 2 8 0.3046875 9.42333984 C-0.43523437 9.88949707 -1.17515625 10.3556543 -1.9375 10.8359375 C-2.75452393 11.35478516 -3.57154785 11.87363281 -4.41333008 12.40820312 C-5.26693115 12.93349609 -6.12053223 13.45878906 -7 14 C-7.80010498 14.49951172 -8.60020996 14.99902344 -9.42456055 15.51367188 C-11.82977158 16.9956088 -14.25459434 18.43905889 -16.6875 19.875 C-17.50283203 20.37257813 -18.31816406 20.87015625 -19.15820312 21.3828125 C-26.83985092 25.90362058 -26.83985092 25.90362058 -32 25 C-34 23 -34 23 -34.71875 20.25390625 C-33.85440192 16.34085218 -33.17003699 16.06192224 -29.90625 13.96484375 C-28.1170214 12.93310851 -26.31411689 11.92481783 -24.5 10.9375 C-22.71844769 9.92631369 -20.93719407 8.91460093 -19.15625 7.90234375 C-18.28693848 7.41950928 -17.41762695 6.9366748 -16.52197266 6.43920898 C-13.50511566 4.71758536 -10.60067436 2.8530207 -7.71044922 0.92773438 C-5.06216575 -0.50867402 -2.91997603 -0.48666267 0 0 Z " fill="#2F2F30" transform="translate(134,67)"/>
<path d="M0 0 C0.66 0.33 1.32 0.66 2 1 C2.92540662 36.88521234 -4.50237783 68.89184869 -24.75 98.75 C-25.43980957 99.7702124 -25.43980957 99.7702124 -26.14355469 100.81103516 C-28.45703883 104.12961273 -30.51149644 106.81560992 -34 109 C-32.66087953 105.21698469 -30.97272317 102.45914157 -28.5 99.3125 C-6.36553015 69.27859072 -1.68362761 36.28660567 0 0 Z " fill="#171716" transform="translate(161,86)"/>
<path d="M0 0 C0 3.59964985 -0.54149743 3.97350971 -3 6.4375 C-9.5006756 12.56188899 -15.06542668 14.73571724 -24.078125 14.47265625 C-28.48460329 13.75984358 -31.59370633 11.80518302 -35 9 C-34.01 8.67 -33.02 8.34 -32 8 C-30.948125 8.639375 -29.89625 9.27875 -28.8125 9.9375 C-24.92913026 12.27894352 -21.46271064 12.82388504 -17 12 C-10.11419647 9.81403063 -5.12983396 4.89234165 0 0 Z " fill="#0D0D0C" transform="translate(126,194)"/>
<path d="M0 0 C0.66 0.33 1.32 0.66 2 1 C1.67 6.61 1.34 12.22 1 18 C0.01 17.67 -0.98 17.34 -2 17 C-2.21824777 10.9981863 -1.5056904 5.80766296 0 0 Z " fill="#1D1D1D" transform="translate(10,198)"/>
<path d="M0 0 C0.66 0 1.32 0 2 0 C2.2226746 1.43534841 2.42761906 2.87345525 2.625 4.3125 C2.74101563 5.11300781 2.85703125 5.91351563 2.9765625 6.73828125 C3 9 3 9 1 12 C-0.3271261 8.0186217 -0.06915913 4.14954773 0 0 Z " fill="#1B1C1B" transform="translate(4,105)"/>
</svg>
