<svg xmlns="http://www.w3.org/2000/svg" width="266" height="318"><path fill="#37302C" d="M105.738 7q2.118-.014 4.236-.035c2.946-.019 5.891-.012 8.837.013 3.74.028 7.475-.015 11.215-.08 2.913-.04 5.825-.038 8.738-.024q2.065.001 4.13-.04c14.674-.25 22.763 6.54 33.008 16.44 2.104 1.879 2.104 1.879 5.036 3.085 3.69 1.978 5.544 4.236 8.125 7.516 3.789 4.777 7.757 9.066 12.187 13.25 2.857 3.06 2.858 5.732 2.749 9.723l-.067 2.985-.073 3.23c-.031 3.45-.051 6.899-.07 10.349a390 390 0 0 1-.142 7.133C202.59 94.6 202.59 94.6 207.91 106.911c2.22 2.005 4.542 3.594 7.101 5.133 3.236 2.118 3.965 3.052 4.927 6.706l.462 2.246c.732 2.443 1.725 3.174 3.643 4.813 5.141 5.74 3.522 14.332 3.256 21.576a233 233 0 0 0-.088 6.103l-.116 3.642c.986 4.218 2.048 5.366 4.89 8.492 5.134 6.034 5.165 11.248 5.042 18.944l.016 3.861c.001 2.683-.013 5.36-.055 8.04-.051 3.413-.035 6.821.001 10.234.027 3.289 0 6.577-.024 9.865l.033 3.675c-.162 7.364-1.33 11.492-6.415 16.92-1.877 1.902-1.877 1.902-2.458 5.339-1.756 5.462-5.862 8.793-10.125 12.5-2.627 1.314-4.726 1.213-7.664 1.316l-3.399.127-3.562.12-3.586.13q-4.395.16-8.789.307l1.468 1.82c1.994 2.837 2.033 4.862 2.22 8.305l.19 3.504c.162 4.471.253 8.898.122 13.371l.02 3.004c-.177 6.726-1.262 10.462-6.036 15.277L187 304l-1.955 2.068c-4.483 2.844-8.54 2.562-13.752 2.569l-3.15.033q-3.294.023-6.589.016c-3.346.001-6.687.061-10.033.125q-3.207.012-6.416.013l-3.009.072c-5.452-.072-8.467-.701-12.603-4.385l-1.84-1.911c-1.668-1.845-1.668-1.845-4.653-2.6l-1.39 1.715-1.86 2.223-1.828 2.214c-3.303 3.176-6.84 2.975-11.266 2.993l-3.238.02-3.488.003-3.61.01q-3.786.007-7.571.007c-3.838.002-7.676.02-11.515.04q-3.683.005-7.367.005l-3.451.022c-16.06-.045-16.06-.045-22.107-4.022l-1.871-2.043-1.942-2.019c-3.047-4.416-2.683-9.385-2.746-14.606l-.078-3.87c.415-4.672 1.68-7.96 4.933-11.38L44.188 270c2.409-2.278 2.77-2.734 3.312-6.187-.341-3.009-.341-3.009-2.5-5.813-2.123-.105-4.249-.191-6.374-.16-7.419.103-12.934-.045-18.876-4.965A137 137 0 0 1 15 248l-2.145-2.012c-4.325-4.061-6.898-6.964-7.12-13.07q-.008-2.366.015-4.73l-.023-2.37c.021-6.432.443-11.743 4.863-16.756 2.93-3.723 3.054-6.518 2.973-11.062-.107-8.719 3.335-13.01 9.125-19.25 4.572-4.93 4.572-4.93 5.453-11.328l.058-2.77q.05-2.879.055-5.757c.121-4.55.223-7.884 3.168-11.504C34 145 34 145 36 144l.25-3.75c.364-3.784.593-4.106 3.625-6.875L43 131l1.5-3c1.916-3.832 4.106-5.436 7.5-8-1.07-3.307-2.032-5.032-4.536-7.518-3.575-4.228-3.22-8.747-3.198-14.068l-.03-3.078q-.016-3.215.002-6.43c.012-3.265-.04-6.524-.097-9.789q-.006-3.132 0-6.265l-.062-2.934c.11-6.55 1.694-9.804 6.322-14.452L52 54c1.741-1.741 1.168-4.319 1.25-6.687C53.7 41.397 54.576 38.92 59 35l2.375-1.375c2.575-1.594 3.887-2.959 5.813-5.25C71.372 23.439 75.979 19.08 81 15l1.954-1.728C90.247 7.4 96.625 6.932 105.738 7"/><path fill="#F9FAFA" d="M105.738 7q2.118-.014 4.236-.035c2.946-.019 5.891-.012 8.837.013 3.74.028 7.475-.015 11.215-.08 2.913-.04 5.825-.038 8.738-.024q2.065.001 4.13-.04c14.674-.25 22.763 6.54 33.008 16.44 2.104 1.879 2.104 1.879 5.036 3.085 3.69 1.978 5.544 4.236 8.125 7.516 3.789 4.777 7.757 9.066 12.187 13.25 2.857 3.06 2.858 5.732 2.749 9.723l-.067 2.985-.073 3.23c-.031 3.45-.051 6.899-.07 10.349a390 390 0 0 1-.142 7.133C202.59 94.6 202.59 94.6 207.91 106.911c2.22 2.005 4.542 3.594 7.101 5.133 3.236 2.118 3.965 3.052 4.927 6.706l.462 2.246c.732 2.443 1.725 3.174 3.643 4.813 5.141 5.74 3.522 14.332 3.256 21.576a233 233 0 0 0-.088 6.103l-.116 3.642c.986 4.218 2.048 5.366 4.89 8.492 5.134 6.034 5.165 11.248 5.042 18.944l.016 3.861c.001 2.683-.013 5.36-.055 8.04-.051 3.413-.035 6.821.001 10.234.027 3.289 0 6.577-.024 9.865l.033 3.675c-.162 7.364-1.33 11.492-6.415 16.92-1.877 1.902-1.877 1.902-2.458 5.339-1.756 5.462-5.862 8.793-10.125 12.5-2.627 1.314-4.726 1.213-7.664 1.316l-3.399.127-3.562.12-3.586.13q-4.395.16-8.789.307l1.468 1.82c1.994 2.837 2.033 4.862 2.22 8.305l.19 3.504c.162 4.471.253 8.898.122 13.371l.02 3.004c-.177 6.726-1.262 10.462-6.036 15.277L187 304l-1.955 2.068c-4.483 2.844-8.54 2.562-13.752 2.569l-3.15.033q-3.294.023-6.589.016c-3.346.001-6.687.061-10.033.125q-3.207.012-6.416.013l-3.009.072c-5.452-.072-8.467-.701-12.603-4.385l-1.84-1.911c-1.668-1.845-1.668-1.845-4.653-2.6l-1.39 1.715-1.86 2.223-1.828 2.214c-3.303 3.176-6.84 2.975-11.266 2.993l-3.238.02-3.488.003-3.61.01q-3.786.007-7.571.007c-3.838.002-7.676.02-11.515.04q-3.683.005-7.367.005l-3.451.022c-16.06-.045-16.06-.045-22.107-4.022l-1.871-2.043-1.942-2.019c-3.047-4.416-2.683-9.385-2.746-14.606l-.078-3.87c.415-4.672 1.68-7.96 4.933-11.38L44.188 270c2.409-2.278 2.77-2.734 3.312-6.187-.341-3.009-.341-3.009-2.5-5.813-2.123-.105-4.249-.191-6.374-.16-7.419.103-12.934-.045-18.876-4.965A137 137 0 0 1 15 248l-2.145-2.012c-4.325-4.061-6.898-6.964-7.12-13.07q-.008-2.366.015-4.73l-.023-2.37c.021-6.432.443-11.743 4.863-16.756 2.93-3.723 3.054-6.518 2.973-11.062-.107-8.719 3.335-13.01 9.125-19.25 4.572-4.93 4.572-4.93 5.453-11.328l.058-2.77q.05-2.879.055-5.757c.121-4.55.223-7.884 3.168-11.504C34 145 34 145 36 144l.25-3.75c.364-3.784.593-4.106 3.625-6.875L43 131l1.5-3c1.916-3.832 4.106-5.436 7.5-8-1.07-3.307-2.032-5.032-4.536-7.518-3.575-4.228-3.22-8.747-3.198-14.068l-.03-3.078q-.016-3.215.002-6.43c.012-3.265-.04-6.524-.097-9.789q-.006-3.132 0-6.265l-.062-2.934c.11-6.55 1.694-9.804 6.322-14.452L52 54c1.741-1.741 1.168-4.319 1.25-6.687C53.7 41.397 54.576 38.92 59 35l2.375-1.375c2.575-1.594 3.887-2.959 5.813-5.25C71.372 23.439 75.979 19.08 81 15l1.954-1.728C90.247 7.4 96.625 6.932 105.738 7M90 20v7h-8v8h-9v9h-8v17h-9q-.037 10.44-.055 20.88-.008 3.555-.02 7.11-.017 5.097-.023 10.194l-.015 3.232v2.972l-.007 2.632C55.78 110 55.78 110 57 111h8v18h-8v7h-9v17h-8v25h-7v9l-3.437-.062c-3.379-.354-3.379-.354-4.563 1.062a99 99 0 0 0-.098 5.348l.01 3.271.026 3.444.013 3.455q.018 4.241.049 8.482h-7v26h8v8h23v-17h8v-16h8v-10h8v19h-7v14h-9v25h8v10h-7v8h-7v18h64v-36h-8v-16h18v16h7v35h51v-35h-8v-16h9v-16h7v16h26v-16h7v-59h-8v-40h-7v-10h-6v-8l-18-1v-9h8V52h-9v-8h-8v-8h-9v-9h-9v-7z"/><path fill="#9C704D" d="M90 20h68v7h9v1h-9v8l9 1 1 14 7 1v9h-8v-9h-9v-3l-6 2c-1-1-1-1-1.062-4.062L151 44h-9v8l3.938-.062A59 59 0 0 1 150 52c1 1 1 1 1.098 2.848L151 61h8v50h17v9h-26v7H81v-9h-9v-7h-6v16h-1v-16h-8c-1-1-1-1-1.12-2.98l.006-2.632v-2.972l.016-3.232.005-3.292c.005-3.485.018-6.97.03-10.454q.008-3.535.014-7.069Q55.97 69.684 56 61h9V44h8v-9h9v-8h8z"/><path fill="#736E6C" d="M48 136h16l1 66h8v-65l9-1v17h8v7h-8v34h8v9h42v-9h9v-33h-9v-16h9v-8h10v15h8v17h-8v34h-9v10H82v-10H65v10h-8v16h-8v17H26v-8h-8v-26h7l-.016-2.187q-.029-4.875-.047-9.75l-.025-3.444-.01-3.271-.016-3.031C25 188 25 188 26 187q3.5-.061 7 0v-9h7v-25h8z"/><path fill="#5A5047" d="M66 111h6v7h9v9h61v9h28l-2 1v8h-9v7h-8v-15h-10v8h-9v16h9v33h-9v9H90v-9h-8v-34h8v-7h-8v-17l-2 1h-7v65h-8c-.777-4.119-1.122-8-1.114-12.189v-3.639l.016-3.883.005-4.01q.006-5.252.024-10.505.014-5.37.02-10.739.016-10.517.049-21.035h-7v-7h8z"/><path fill="#161D1E" d="M81 52h60v9h9v50h-9v8H83l-1-8-8-1V61h7z"/><path fill="#735948" d="M193 136v9h-8l-1 16 7 1v7h9v-7h8v8h16v59h-7v16h-26v-16h-7v16h-1v-16h-8v-17h9v16h7v-25h-8v-25h-15v-32h8v-9c5.731-.716 11.226-1.105 17-1"/><path fill="#856D5A" d="M82 136v17h8v7h-8v34h8v9h42v-9h9v-33h-9v-16h9v-8h10v15h8v17h-8v34h-9v10H82v-10l-3.937.063A59 59 0 0 1 74 203c-1-1-1-1-1.12-3.588l.006-3.492v-3.944l.016-4.292.005-4.368q.006-5.758.024-11.516.014-5.872.02-11.743.016-11.529.049-23.057c6.75-1 6.75-1 9-1"/><path fill="#1B1D21" d="M168 179h15v24h8v25h-7v-16h-9v17h8v16h-8v-9h-7v-15h-44v7H98v-7c-3.813.138-7.625.287-11.437.438l-3.3.119-3.134.127-2.904.11c-2.196-.036-2.196-.036-3.225 1.206a81 81 0 0 0-.316 4.691l-.127 2.862-.12 3.01-.13 3.021q-.16 3.708-.307 7.416h-8v17h-8v-25h9v-14h7v-19h9v10h60v-10h8v10h18v-10h8v-17h-8z"/><path fill="#302F36" d="M98 245h9v16h8v36H51v-18h7v-8h7v-10q3.5-.062 7 0c2.603 2.603 1 7.318 1 11l25-1z"/><path fill="#93E094" d="M99 61h8v8h18v8h7v26h-7v8H90v-8h-9V78h9v-9h9z"/><path fill="#D5A977" d="M82 28h8v8h25v5l2 2-19 1v8H81v9h-7v49h8v8H72v-7h-6v16h-1v-16h-8c-1-1-1-1-1.12-2.98l.006-2.632v-2.972l.016-3.232.005-3.292c.005-3.485.018-6.97.03-10.454q.008-3.535.014-7.069Q55.97 69.684 56 61h9V44h8v-9h9z"/><path fill="#66615F" d="M158 28h9v8h9v8h8v8h9v50h-9c-.92-5.407-1.084-10.513-1-16h-16V70h-8v-9h-8l-1-8-8-1v-8h9l1 6 3-1h3v3h9v9h8v-9l-3.437.063C168 52 168 52 167 51a177 177 0 0 1-.062-7.062l.027-3.91L167 37h-10z"/><path fill="#805B44" d="M48 136h16l1 66h9v1h-9v9H55v-8H41v-7h8v-10H34v-8h6v-26h8z"/><path fill="#6D5444" d="M77.338 220.773c.953.01 1.907.02 2.889.032l3.125.02 3.273.05 3.297.027q4.039.036 8.078.098v7h26v1H99v5l3-1v2l5 2v8h-9v26c-7.875 1.125-7.875 1.125-11.621 1.098l-2.393-.01-2.424-.026-2.505-.013q-3.03-.02-6.057-.049l-1-10-7-1v-17h8c-.01-.626-.02-1.251-.032-1.896-.041-2.826-.067-5.653-.093-8.479l-.05-2.984-.02-2.852-.032-2.634c.337-3.201 1.4-4.075 4.565-4.382"/><path fill="#181B20" d="M133 262h9v7h33v-7h8v34h-50z"/><path fill="#483C3A" d="M184 120h25v10h7v40h-8v-8h-8v7h-9v-7h-8l2-17h8v-9h-7v-1h7v-8h-9z"/><path fill="#5F707C" d="M125 161h16v33h-9v9H90v-9l20-1v-2h-2v-2l-10-1v-9h9l1 8 7-1 1-8h-8c2.83-1.81 4.106-1.994 7.563-1.812L119 176c1.808-2.374 1.808-2.374 3-5l3-1z"/><path fill="#222529" d="M217 170h7v59h-7v15h-25v-16h9v8h7v-25h-8v-8h17z"/><path fill="#1A1A1C" d="M66 111h6v7h9q.039 2.718.063 5.438l.035 3.058C81 129 81 129 80 130h-7v72h-8c-.777-4.119-1.122-8-1.114-12.189v-3.639l.016-3.883.005-4.01q.006-5.252.024-10.505.014-5.37.02-10.739.016-10.517.049-21.035h-7v-7h8z"/><path fill="#8B664B" d="M132 228h27v17h-18v8h18v8h-8v7h17v1h-26v-7h-9v34h-1z"/><path fill="#6C553D" d="M82 111h1v8h58v-8h35v9h-26v7H81c0-5.778.057-10.458 1-16"/><path fill="#6A5445" d="M167 160h1v18h15v1h-15v7h8v17h-8v10h-18l1-44h8v9h8z"/><path fill="#6A7D88" d="M90 161h35v9l-2 2-2.187 2.625C118 177 118 177 114.187 177.313L111 177l5 1c.098 6.152.098 6.152 0 8-2.047 2.047-6.304 1.7-9 2v-9h-9v9l3.875-.062c3.875-.063 3.875-.063 6.125 1.062v2h2v2h16v1H90z"/><path fill="#715844" d="M81 127h61v9h28l-2 1v8h-9v7h-8v-15H73v-7l3.438-.375L80 129z"/><path fill="#393D40" d="M25 188h8v25h-7v16h8v-8h8v7h6v17H27v-7h-9v-26h7z"/><path fill="#9A6F45" d="M82 28h8v8h25v5l2 2-19 1v8H81v9H65V44h8v-9h9z"/><path fill="#15191B" d="M158 28h9v8h9v8h8v9h8v48h-7V61h-10v-9l-3.437.063C168 52 168 52 167 51a177 177 0 0 1-.062-7.062l.027-3.91L167 37h-10z"/><path fill="#9E5446" d="M48 136h16v43H48z"/><path fill="#93735A" d="M141 137h10v15h8v17h-8v34h-1v-34h-8v25h-1v-33h-9v-16h9z"/><path fill="#181D22" d="M107 263h6l1 33H51v-17h6v10h50z"/><path fill="#C3E7C8" d="M99 61h8v8h18v8h7v9H99v-8h-9v-9h9z"/><path fill="#6A5447" d="M191 203h9v8h8v25h-7v-8h-9v16h25v1h-26v-16h-7v16h-1v-16h-8v-17h9v16h7z"/><path fill="#715645" d="M141 245h34v16h8v1h-8v7l-24-1v-7h8v-8h-18z"/><path fill="#BB9776" d="M82 136v17h8v7l-8 1-1 33h-8v-57c7-1 7-1 9-1"/><path fill="#191B1E" d="M82 136h59v9H82z"/><path fill="#644F43" d="M124 221h44v15h7v9c-6.07.976-9.48.815-16 0v-17h-27v9h-6l1-3v2h4v-9l-5-1-1-4v6h-1z"/><path fill="#131618" d="M168 179h15v24h8v25h-7v-16h-9l.563-2.812c.678-3.201.678-3.201-.563-6.188-.022-1.901-.022-1.901.121-4.012l.147-2.295.17-2.38.158-2.417q.196-2.947.404-5.896h-8z"/><path fill="#15191C" d="M90 20h67v7H90z"/><path fill="#88E385" d="M81 78h18v25H81z"/><path fill="#171E23" d="M56 61h9v49h-9z"/><path fill="#DEB792" d="M183 162h8v7h9v10h8v7h-16v2h-7v13h6v-7h9v8h-16v-24h7v-8h-8z"/><path fill="#16181B" d="M209 130h7v40h-8v-9h-8v-16h9z"/><path fill="#846B57" d="M81 161h1v33h8v9h35l-1 8h-7v-7H98v9H82v-10l-3.937.063A59 59 0 0 1 74 203c-1-1-1-1-1.098-2.848L73 194h8z"/><path fill="#EDC888" d="M81 120h60v7H81z"/><path fill="#101315" d="M217 170h7v59h-7z"/><path fill="#DB9140" d="M151 61h8v49h-8z"/><path fill="#5B4338" d="M142 44h9l1 6 3-1h3v3h9v9h8v8h-7v17h-1V70h-8v-9h-8l-1-8-8-1z"/><path fill="#3F4143" d="M98 245h9v16h8v36H51v-1l62-1v-32h-6v8h-9z"/><path fill="#171B1F" d="M90 194h42v9H90z"/><path fill="#8E6547" d="M82 28h8v8h25v5l2 2q-9.157.25-18.317.482-3.117.08-6.236.166-4.47.122-8.943.23l-2.835.083-2.608.06-2.308.061C74 44 74 44 73 43c-.141-2.67-.042-5.324 0-8h9z"/><path fill="#88654D" d="M77.338 220.773c.953.01 1.907.02 2.889.032l3.125.02 3.273.05 3.297.027c2.693.024 5.385.06 8.078.098v15H73c-.195-9.96-.195-9.96 0-13 2-2 2-2 4.338-2.227"/><path fill="#81624E" d="M91 278v10c-7.387.995-14.616 1.118-22.062 1.063l-3.49-.014Q61.222 289.03 57 289v-10a417 417 0 0 1 34-1"/><path fill="#B48159" d="M141 43v9H98v-8l22.036-.573q4.02-.105 8.042-.208l2.523-.067 2.365-.06 2.072-.054C137.025 43 139.013 43 141 43"/><path fill="#EB301A" d="M200 146v15h8v1h-8v7h-9v-7h-8l2-17c8-1 8-1 15 1"/><path fill="#CBA17C" d="M193 136v9h-8v8h-9v8h-8v-15h8v-9c5.731-.716 11.226-1.105 17-1"/><path fill="#211F1F" d="M19 213h1l1 22 3-1 1-3c1 1 1 1 1 6l16 1v-9h-8v-8h8v7h6v17H27v-7h-8z"/><path fill="#343033" d="M200 203h17v41h-1v-15h-8v-18h-8z"/><path fill="#171D21" d="M132 161h9v33h-9z"/><path fill="#171F23" d="M107 86h17v17h-17z"/><path fill="#F6D0A6" d="M99 28h42v7h-41z"/><path fill="#13181C" d="M91 153h41v7H91z"/><path fill="#181A1B" d="M159 145h9c.147 11.043-.293 21.981-1 33h-8z"/><path fill="#DB9141" d="M66 63h6v46h-6z"/><path fill="#C1946D" d="M133 229h18v8h-10v17l-8-1z"/><path fill="#5A4B45" d="M168 86h15c2.296 16.708 2.296 16.708 2 25h-1v-8h-16z"/><path fill="#B99676" d="M142 169h8v34h-7c-1-1-1-1-1.114-4.143q0-2.087.016-4.173l.005-2.216c.005-2.343.018-4.687.03-7.03q.008-2.379.014-4.756.017-5.841.049-11.682"/><path fill="#15191D" d="M82 161h8v33h-8z"/><path fill="#0F1C1A" d="M74 62h1l1 24 2-3v3h2v-9h1v26h9v8c-3-2-3-2-4-4l1-2h-2l-1 8-2-2-8-1z"/><path fill="#95AAB5" d="M90 161h35v8H97v-7h-4l.75 1.75L94 166c-1.937 2.25-1.937 2.25-4 4z"/><path fill="#5A493F" d="M57 179h7l1 23h9v1h-9v9h-8z"/><path fill="#54433C" d="M141 280h27v9h-27z"/><path fill="#AE8362" d="M65 245h9v16l8 1v10h-9l-1-10-7-1z"/><path fill="#756052" d="M158 28h9v8h9v25h-1v-9l-3.437.063C168 52 168 52 167 51a177 177 0 0 1-.062-7.062l.027-3.91L167 37h-10z"/><path fill="#171A1E" d="M142 127c3.98-.029 7.958-.047 11.938-.062l3.443-.026 3.271-.01 3.031-.016C166 127 166 127 167 128v8h-25z"/><path fill="#795C49" d="M124 221h36l-1 7h-27v9h-6l1-3v2h4v-9l-5-1-1-4v6h-1z"/><path fill="#9B8372" d="M33 178h7v1h-6v8h15v10h-8v7h-7v-16h-8v-1h7z"/><path fill="#866D58" d="M82 145h42v1l-16 1v4h7v1l-33 1z"/><path fill="#C69973" d="M192 179h16v7h-16v2h-7v13h6v-7h9v8h-16v-15h7l-.062-2.875C191 181 191 181 192 179"/><path fill="#735747" d="M26 213h22v8l-15-2 1 2c.134 2.672.043 5.323 0 8h-8z"/><path fill="#151619" d="M173 213h1v16h9v16h-8v-9h-7v-15l1 3 2 1 1 1z"/><path fill="#322C22" d="M56 61h9v49h-9zm2 2v46h5V63z"/><path fill="#D09863" d="M175 61h9v8h-8v17h-8V69h7z"/><path fill="#AD8463" d="M133 253h26v8h-26z"/><path fill="#B18C69" d="M74 160h6v34h-6z"/><path fill="#0F1013" d="M51 279h6v10h23l1 2-24 1-1 2 58 1v1H51z"/><path fill="#1D1E1F" d="M65 261q3.5-.062 7 0c1 1 1 1 1.098 4.816a763 763 0 0 1-.035 4.747l-.014 2.443q-.02 2.997-.049 5.994H58v-8h7z"/><path fill="#A97C5B" d="M176 153h8l-1 17h-15v-9h8z"/><path fill="#8B6750" d="M168 170h23v8h-7v10h-1v-10h-15z"/><path fill="#67C868" d="M124 86h8v17h-7v8h-8v-7h6z"/><path fill="#657682" d="M125 178h1c.055 1.562.093 3.125.125 4.688l.07 2.636C126 188 126 188 124 193h-14v-2h-2v-2l-10-1v-9h9l1 8 3.5-.562c4.364-.562 8.167-.134 12.5.562z"/><path fill="#D79C5E" d="M151 61h8v49h-8zm1 1v41h5V63z"/><path fill="#5F4A3E" d="M141 152h9v17h-8v25h-1z"/><path fill="#181D21" d="M190 205c1 1 1 1 1.114 3.133l-.016 2.777-.01 2.998-.025 3.155-.014 3.166q-.018 3.885-.049 7.771h-7v-17l-5-1 2-1 1-3c2.732-1.366 4.982-1.128 8-1"/><path fill="#14181B" d="M26 188h7v25h-7z"/><path fill="#131618" d="M41 153h7v25h-7z"/><path fill="#111417" d="M58 237h7l1 5 6 1v1h-7v17h-7z"/><path fill="#7B614C" d="M200 162h8v8h8v17h-1v-16c-3.662 2.442-5.597 3.792-7 8h-8z"/><path fill="#C19973" d="M98 204h19v9H98z"/><path fill="#8B7460" d="M81 161h1v33h8v10h-1l-1-6-.75 1.938C86 202 86 202 84.375 202.75c-3.493.368-6.86.365-10.375.25-1-1-1-1-1.098-2.848L73 194h8z"/><path fill="#715E4F" d="M82 28h8l1 9-7 1-2 6c-6.152.098-6.152.098-8 0-1-1-1-1-1.098-2.848L73 35h9z"/><path fill="#745745" d="m192 211 8 1v9l6 1v5c-4.703 1.214-9.174 1.072-14 1z"/><path fill="#8A6243" d="M142 44h9l1 6 3-1h3c.96 2.882 1.106 4.699 1.063 7.688l-.028 2.449L159 61h-8l-1-8-8-1z"/><path fill="#826651" d="M159 111h17v9q-4.032.04-8.062.063l-2.28.025c-4.664.02-9.057-.312-13.658-1.088v-1h7z"/><path fill="#54433C" d="M33 188h1v16h15c.098 6.152.098 6.152 0 8-1 1-1 1-4.379 1.098q-2.091-.01-4.184-.036L33 213z"/><path fill="#976D4F" d="M192 186h16v1h-8v7h-9v7h-6v-13h7z"/><path fill="#51453C" d="M167 160h1v18h15v1h-15v7h8v17h-1v-16h-8v-8h-9l-1 2v-2h-6v-10h8v9h8z"/><path fill="#27282F" d="M168 271h8l-1 18h-7v-9h-27v-1l26-1z"/><path fill="#533E34" d="M84.235 127.886q2.15 0 4.3.016l2.283.005c2.415.005 4.83.018 7.245.03q2.45.008 4.9.014 6.019.017 12.037.049v1H90v7l-17 1v-7l3.438-.438c3.734-.59 4.12-1.546 7.797-1.676"/><path fill="#162121" d="M90 86h9v17h-9z"/><path fill="#806859" d="M98 213h19v8H98z"/><path fill="#B38A6A" d="M193 136v9h-8v8h-1v-8h-8v-8c5.71-.74 11.242-1.105 17-1"/><path fill="#DFB68D" d="M98 44h19v8H98z"/><path fill="#0E1317" d="M192 229h8v14h15v-14h1v15h-24z"/><path fill="#6D584D" d="M184 120h18v8h-3v-2h2l-1-3c-4.13 4.255-4.765 7.655-5.25 13.313l-.234 2.244A397 397 0 0 0 194 144h-1v-8h-7v-1h7v-8h-9z"/><path fill="#7B6658" d="M132 245h1v16h18v7h17v1h-26v-7h-9v34h-1z"/><path fill="#DDAB85" d="M49 162h8v17h-9c-.105-5.786.007-11.293 1-17"/><path fill="#5F5045" d="M40 153h1v25h7v9H34v-8h6z"/><path fill="#181A1C" d="M98 245h9v16h-9z"/><path fill="#50D344" d="M81 78h1v8h7v17h-8z"/><path fill="#1A1D21" d="M107 237h17v8h-17z"/><path fill="#88654D" d="M49 195h8c.12 5.778-.168 11.28-1 17h-1v-8H41v-7h8z"/><path fill="#5CCF58" d="M107 78h17v8h-17z"/><path fill="#1A1F22" d="M65 44h8v17h-8z"/><path fill="#876A45" d="M73 61h1v49h8v8H72v-7h-6v-1h7z"/><path fill="#453835" d="M168 86h15v9h-15z"/><path fill="#D89B59" d="M81 44h17v8q-3.97.04-7.937.063l-2.288.025A183 183 0 0 1 82 52l-1-1z"/><path fill="#D4432F" d="M200 146v15h8v1h-10v-14h-2l1 3-1 3h-3l-1-4 2-1v-2h-7l-1 14h6v8h-1v-7h-8l2-17c8-1 8-1 15 1"/><path fill="#9E7458" d="M74 245h8v17l-8-1z"/><path fill="#373234" d="M150 120h17c.685 4.113 1.117 7.323 1.063 11.375l-.028 2.648L168 136h-1l-1-8-16-1z"/><path fill="#81604D" d="M98 261v10H84c-1-6-1-6 0-9q2.938-.251 5.875-.5l3.305-.281c1.603-.125 3.212-.219 4.82-.219"/><path fill="#E3C0A1" d="M133 237h8v17l-8-1z"/><path fill="#B6906E" d="M151 153h8v16h-8z"/><path fill="#171718" d="M98 221a788 788 0 0 1 7.313-.125c.69-.017 1.38-.034 2.091-.05 3.767-.037 5.38.031 8.596 2.175l-5 2v1l11 1v-5h2v6H98z"/><path fill="#D4A47B" d="M83 228h15v8H83z"/><path fill="#FAFAFA" d="M175 213h8v15h-8z"/><path fill="#CDA076" d="M90 28q2.219-.04 4.438-.062l2.496-.036C99 28 99 28 100 29v6h41v1H90z"/><path fill="#161D22" d="M218 171h4v31l-4-2z"/><path fill="#0D110A" d="M74 62h1v47l3-1v-2h3v-3h9v8c-3-2-3-2-4-4l1-2h-2l-1 8-2-2-8-1z"/><path fill="#141415" d="M125 245h7v16h-7z"/><path fill="#151619" d="M168 245h7v16h-7z"/><path fill="#C64633" d="M57 136h7v16h-7z"/><path fill="#16191D" d="M49 136h7v16h-7z"/><path fill="#1A1E22" d="M46 235h1v9H28v-5c3.619-1.206 6.925-1.108 10.688-1.062l2.126.013q2.594.02 5.186.049z"/><path fill="#A88162" d="M132 228h27v9h-8v-8h-18v16h-1z"/><path fill="#092B0F" d="M107 86h17v17h-17zm2 2v13h14V88z"/><path fill="#E4B071" d="M99 28h16v7h-15z"/><path fill="#231F1F" d="M49 213h7v15h-7z"/><path fill="#322A2A" d="M97 271v2H87v4l3 1-17 1v-7q4.313-.253 8.625-.5l2.45-.145c4.315-.245 8.6-.411 12.925-.355"/><path fill="#493C37" d="M57 179h7v17h-6z"/><path fill="#11161A" d="M132 161h8l-1 2-5-1 .508 2.622c.475 3.258.523 6.15.37 9.433-.047 1.108-.096 2.217-.146 3.36l-.17 3.46-.158 3.531q-.194 4.298-.404 8.594h6v-23h1v24h-9z"/><path fill="#504745" d="M141 280h27v9h-27zm2 1-1 6h24v-6z"/><path fill="#755A4B" d="m101 233 1 2a78 78 0 0 0 5 2v8h-9v8c-2.19-3.285-2.353-4.831-2.625-8.687l-.227-3.012L95 239l2-1 2 2v-6z"/><path fill="#080B0E" d="M19 213h1l1 22 3-1 1-3c1 1 1 1 1.063 3.563L26 237l5 1c-.375 2.438-.375 2.438-1 5l-2 1h19v-15h1v16H27v-7h-8z"/><path fill="#746859" d="M157 20h1v7h9v1h-9v8h-1v-8H82v-1h75z"/><path fill="#5D4A42" d="M74 278h17v10h-9v-9h-8z"/><path fill="#524745" d="M98 261h17v1h-8v9h-9z"/><path fill="#9FA1A2" d="M175 212h9v16h8v16h25v1h-26v-16h-7v16h-1v-16h-8v-1h8v-15h-8z"/><path fill="#302B2E" d="M74 214h13v7c-1.282.09-1.282.09-2.59.184l-3.347.254c-1.103.08-2.205.162-3.34.246-2.634.02-2.634.02-3.723 1.316-2.67.141-5.324.042-8 0v-1l7-1z"/><path fill="#8EC28F" d="M107 69h18v8h7v9h-8V70h-17z"/><path fill="#BA8F67" d="M117 44h8v7l1.875-.5c4.38-.7 8.7-.577 13.125-.5v-6h1v8h-24z"/><path fill="#1B1E22" d="M180 230c1 1 1 1 1.098 3.941l-.036 3.621-.027 3.63L181 244c-3-2-3-2-4-3l-2 4v-9h-3v-2h-3l1-3c3.494-1.165 6.337-1.136 10-1"/><path fill="#B28C69" d="M149 186v15h-7c-.083-4.833.047-9.237 1-14 4.875-1 4.875-1 6-1"/><path fill="#B0886A" d="M184 188h1v13h6v-7h9v8h-16z"/><path fill="#8B5E3D" d="m96.445 35.902 3.262.01 3.418.026 3.441.013q4.218.018 8.434.049v2l-3.875-.105q-2.562-.043-5.125-.083l-2.543-.076C97.596 37.668 93.368 38.633 88 41l13 1v1H83v-6l2.875.063c3.736-.075 6.702-1.181 10.57-1.16"/><path fill="#282627" d="M168 203h7c1.063 1.813 1.063 1.813 2 4l-1 3a87 87 0 0 0-.316 4.45l-.127 2.568-.12 2.67-.13 2.705q-.159 3.303-.307 6.607h-1v-17l-6 1z"/><path fill="#C73B2B" d="M48 153h9v9h-8v7h-1z"/><path fill="#15171A" d="M73 204h8v10h-7v7h-1z"/><path fill="#6D5341" d="M167 61h8v8h-7v17h-1V69h-6v-1h6z"/><path fill="#50433E" d="M167 246h1v15h15v1h-8v7q-3.5.062-7 0c-1-1-1-1-1.114-3.133l.016-2.777.01-2.998.025-3.154.014-3.167q.018-3.885.049-7.771"/><path fill="#8FE18E" d="m107.79 102.902 2.85.01 2.985.025 3.008.014q3.683.018 7.367.049l-1 2-6-1-1 4-2.312-.625c-2.907-.709-2.907-.709-5.688 1.625-2.043.195-2.043.195-4.187.125L100 109c.375-2.437.375-2.437 1-5 2.453-1.226 4.05-1.114 6.79-1.098"/><path fill="#7C604D" d="m192 211 8 1v8h-7v7h7v1h-8z"/><path fill="#B59273" d="M132 203h9v9h-9z"/><path fill="#778893" d="M107 178h9c.098 6.152.098 6.152 0 8-2.047 2.047-6.304 1.7-9 2z"/><path fill="#B19277" d="M132 152h9v9h-9z"/><path fill="#916F55" d="M73 228h10v8H73z"/><path fill="#9E745A" d="M63 152h1v27h-7v-9h5z"/><path fill="#E8B06B" d="M125 121h16v5h-16z"/><path fill="#6E523E" d="M184 61h1v16h-9v-8h8z"/><path fill="#967961" d="M128.563 202.938 132 203v9h-15v-1h7l-.062-3.437c.08-4.546.08-4.546 4.624-4.625"/><path fill="#9D6A4B" d="M176 153h8c.098 6.152.098 6.152 0 8-1.74 1.74-4.194 1.372-6.562 1.563l-3.067.253L172 163l3-2c.577-1.964.577-1.964.688-4.125z"/><path fill="#C58668" d="M186 136h7v9h-8v8h-1v-10h2v-4h-7v-1l7-1z"/><path fill="#4F3E36" d="M73 237h8l1 8H65v-1h8z"/><path fill="#0C2D10" d="M90 86h9v17h-9zm2 2v13h6V88z"/><path fill="#53CE48" d="M126 87h5v15h-5z"/><path fill="#413730" d="M167 160h1v18h15v1h-15v7h8v17h-1v-16h-8v-8h-8v-1h8z"/><path fill="#A67455" d="M183 170h8v8h-7v10h-1z"/><path fill="#AC8A70" d="M82 136v9h-9v-8c6.75-1 6.75-1 9-1"/><path fill="#C98743" d="m169 70 5 1v14h-5z"/><path fill="#EDEEEE" d="M26 175c0 3 0 3-1.934 5.066l-2.503 2.496c-5.128 5.947-5.228 10.488-5.17 18.133-.055 5.777-.055 5.777-1.983 8.793-1.973 1.637-1.973 1.637-5.41 3.512a56.5 56.5 0 0 1 4-7c.254-3.322.366-6.602.39-9.932.25-7.395 3.99-11.586 8.86-16.943l2.14-2.367z"/><path fill="#1C1817" d="M141 245h9v8h-9z"/><path fill="#61554F" d="M34 229h8v9h-8z"/><path fill="#64534A" d="M98 213h9v8h-9z"/><path fill="#131D24" d="M98 179h9v8h-9z"/><path fill="#5B4B3C" d="M168 111h8v9h-8z"/><path fill="#57D155" d="M90 78h9v8h-9z"/><path fill="#1A1919" d="M158 28h9v8h-9z"/><path fill="#14171B" d="M57 203q3.5-.061 7 0c1 1 1 1 1.098 2.848L65 212h-8z"/><path fill="#D39C51" d="m81 120 14 1-2 1-.5 2-.5 2c-2.405 1.203-3.95 1.1-6.625 1.063l-2.477-.028L81 127z"/><path fill="#645146" d="M57 279h7v10h-7z"/><path fill="#312F32" d="M26 229h8v9c-5.75.125-5.75.125-8-1z"/><path fill="#BBA28A" d="M73 145h9l-1 7h-1v-6l-4 1c-1.232 4.863-1.223 9.69-1.316 14.676l-.063 2.803q-.097 4.417-.183 8.833l-.131 6.002Q74.147 186.657 74 194h-1z"/><path fill="#EBBF90" d="M126 29h14v5h-14z"/><path fill="#181716" d="M98 136h43v5h-2v-3H99z"/><path fill="#986C50" d="M74 253c5.75-.125 5.75-.125 8 1v8l-8-1z"/><path fill="#DBB18A" d="M184 145v8l-8-1-1-4-6-1v-1c5.08-.847 9.848-1.09 15-1"/><path fill="#5B483E" d="M193 121h8l-2.375 2.5c-4.263 5.809-4.066 13.553-4.625 20.5h-1v-8h-7v-1h7z"/><path fill="#ABD3B1" d="M90 69h9v1h-8v7c1.296-1.066 1.296-1.066 1.063-3.562L92 71h7v7h-9z"/><path fill="#7F5A46" d="M142 44h8l1 8h-9z"/><path fill="#E8CCB4" d="M65 253h8v8h-8z"/><path fill="#C09470" d="M65 245h8v8h-8z"/><path fill="#9B7659" d="m141 237 2 1c2.333.04 4.667.043 7 0l2 7h-11z"/><path fill="#513E36" d="M159 237h8v8h-8z"/><path fill="#725341" d="M49 187h8v8h-8z"/><path fill="#D9976D" d="M183 162h8v8h-8z"/><path fill="#A47559" d="M200 162h8v8h-8z"/><path fill="#8F6D53" d="M82 145h8v8h-8z"/><path fill="#DCAB6C" d="M142 112h8v8h-8z"/><path fill="#A8CBB2" d="M99 61h8v8h-8z"/><path fill="#EEB46B" d="M142 53h8v8h-8z"/><path fill="#D1A47E" d="M142 229h9v7h-9z"/><path fill="#E4B68E" d="M41 187h7v9h-7z"/><path fill="#EBD4B2" d="M73 111h9v7h-9z"/><path fill="#E2A157" d="M73 52h7v9h-7z"/><path fill="#C68D5A" d="M168 69h8v17h-8zm1 1v15h5V71z"/><path fill="#A6734C" d="M168 52h7v9h-7z"/><path fill="#685345" d="M175 236v9h-7v-8c2.463-1.231 4.28-1.072 7-1"/><path fill="#604F46" d="M78.625 220.875 82 221v7h-9c-.125-2.375-.125-2.375 0-5 2-2 2-2 5.625-2.125"/><path fill="#655346" d="M151 144q3.5-.061 7 0c1 1 1 1 1.063 4.563L159 152h-8z"/><path fill="#141416" d="M66 262h6v10h-5c-1-1-1-1-1.098-3.066l.035-2.497.028-2.503z"/><path fill="#4CD644" d="M109 79h14v5c-2.957 1.478-5.742 1.06-9 1v-2l4-1v-2h-2v2l-2.375-.062c-2.606-.125-2.606-.125-4.625 1.062z"/><path fill="#C89F7A" d="M134 245h7v9l-7-1z"/><path fill="#272123" d="M201 203h14v1l-7 1v5h-7z"/><path fill="#765B46" d="M117 203h8l-1 8h-7z"/><path fill="#D9AF89" d="M175 152v9h-7v-8c5.875-1 5.875-1 7-1"/><path fill="#F4D39A" d="M104 122h8v4h12v1H99v-1h5z"/><path fill="#D2AC85" d="M98 204h18v1l-2.555.113-3.32.2-3.305.175L104 206l-2 3 6 2v1H98z"/><path fill="#936C51" d="M201 194h7v8h-7z"/><path fill="#151418" d="M34 179h7v8h-7z"/><path fill="#192027" d="M117 179h7v8h-7z"/><path fill="#15110E" d="M168 137h7v8h-7z"/><path fill="#141211" d="M73 36h8v7h-8z"/><path fill="#E9BC68" d="M82 120h17v7h-9l3-5-11-1z"/><path fill="#66DC5D" d="M103 88c2 2 2 2 2.195 5.04l-.07 3.585-.055 3.602L105 103h-4c-.054-2.125-.093-4.25-.125-6.375l-.07-3.586C101 90 101 90 103 88"/><path fill="#CDEDD5" d="m104 70-1 6h2v2h-6v-7h-7v5l2 1h-3v-7c8.429-1.286 8.429-1.286 13 0"/><path fill="#151311" d="M167 37h8v7q-3.5.062-7 0c-1-1-1-1-1.062-4.062z"/><path fill="#82634D" d="M143 138h8v6c-2.709 1.354-5.01 1.065-8 1z"/><path fill="#60AE5E" d="M81 78h1c1.25 7.65 1.09 15.274 1 23h6v2h-8z"/><path fill="#D08E4D" d="m81 44 2 1c2.333.04 4.667.043 7 0v6h-9z"/><path fill="#100D0B" d="M107 237h17v8h-17zm2 1v6h14v-6z"/><path fill="#181009" d="M71 45h2v16h-7V47h1l1 12h2z"/><path fill="#736154" d="m170 136-2 1v8l-9-1v-1h7v-5h-15v-1c6.374-.962 12.56-1.107 19-1"/><path fill="#9DD6A5" d="M117 71h6v7h-16v-1h10z"/><path fill="#0E1114" d="M181 230h2v15h-7v-8l2 3 2 1v2z"/><path fill="#634C3F" d="M209 194h6v9h-6z"/><path fill="#664A3B" d="M57 179h7v8h-6z"/><path fill="#E1835D" d="M49 162h8l-1 7h-7z"/><path fill="#0A090C" d="M203 120h6v10l-1-2h-5z"/><path fill="#17130F" d="M35 221h7v7h-7z"/><path fill="#312829" d="M41 205h7v7h-7z"/><path fill="#AB7D5C" d="M34 197h7v7h-7z"/><path fill="#121314" d="M82 28h7v7h-7z"/><path fill="#0F1113" d="M55 213h1v15h-6v-1h5l-1-3-4 1c-.074-3.343-.065-5.804 1-9l3-1z"/><path fill="#7A6456" d="M27 213h21v8h-1v-7q-4.22.21-8.437.438l-2.432.119c-3.883-.152-3.883-.152-7.131 1.443a123 123 0 0 0-.562 5.563l-.254 3.066L28 227l2 1h-3z"/><path fill="#7E5D45" d="M169 170h7v7c-2 .043-4 .04-6 0-1-1-1-1-1.062-4.062z"/><path fill="#5F4F44" d="M132 145v7h-7c-1-2-1-2-.75-4.062L125 146c3-1 3-1 7-1"/><path fill="#7EDA7B" d="M101 86h6v17h-2l-1-13h-3z"/><path fill="#B98660" d="M193 194h7l-1 7h-6z"/><path fill="#825C45" d="m200 170 3 1v3h5v5h-8z"/><path fill="#876F60" d="M141 137h10v1h-8l-1 10-6 1v-2h-4v-2h9z"/><path fill="#725544" d="M150 223h9v5h-8z"/><path fill="#EBBC86" d="M99 28h16v1l-11 1-1 4h8v1h-11z"/><path fill="#9A765B" d="M125 238h6v7h-6z"/><path fill="#4E433F" d="M202 229h6v7h-6z"/><path fill="#AA8161" d="M141 28h16v8h-2l-1-7q-2.188.212-4.375.438c-.812.08-1.624.162-2.46.246-2.208.207-2.208.207-4.165 1.316-.656 2.527-.656 2.527-1 5h-1z"/><path fill="#6E5C51" d="M33 219c1.604-.054 3.208-.093 4.813-.125l2.707-.07C43 219 43 219 46 221h-2v6l4 1h-6v-7h-9z"/><path fill="#906649" d="M62 161c1.534 3.069.55 5.7 0 9h-3v8h-1v-15z"/><path fill="#836147" d="m132 147 2.25.563c2.7.429 4.196.288 6.75-.563v5h-9z"/><path fill="#35363A" d="M172 205h3c1.385 4.955.891 9.746.563 14.813l-.159 2.677q-.195 3.255-.404 6.51h-1v-17l-2-1c-1.245-2.49-.777-3.41 0-6"/><path fill="#896044" d="M35 189h5v8h-5z"/><path fill="#DBA25C" d="M125 121h8v5h-8z"/><path fill="#181412" d="M88 213h10v8H87v-2h9l1-5h-9z"/><path fill="#EBC2A0" d="m184 178 3 3c2.103.714 2.103.714 4 1v5h-7z"/><path fill="#151D26" d="m181 181-2 4h-9v-4a491 491 0 0 1 4.375-.562l2.46-.317C179 180 179 180 181 181"/><path fill="#BBF9BB" d="m99 78 2 4h5l1-4v8h-8z"/><path fill="#D92F21" d="M58 138h5v7l-5 1z"/><path fill="#DAB186" d="M117 44v8l-11-1v-1h6l-1-4c3.75-2 3.75-2 6-2"/><path fill="#C08756" d="M91 29h8l-1 6-7-1z"/><path fill="#282829" d="M65 261h7v1h-6l1 10-3.375.75c-3.671.86-3.671.86-5.062 3.375L58 278v-7h7z"/><path fill="#605148" d="m90 129 1 4h11v3H90z"/><path fill="#141517" d="M167 120h8l-3 1c-.733 2.015-.733 2.015-1 4h3v2c-2 .043-4 .04-6 0-1-1-1-1-1.062-4.062z"/><path fill="#624B3E" d="m34 229 6 1v6h-4l-2 2z"/><path fill="#889BA6" d="M90 161h8v8h-1v-7h-4l.75 1.75L94 166c-1.937 2.25-1.937 2.25-4 4z"/><path fill="#524742" d="M168 111h8v9h-3v-7l-5-1z"/><path fill="#E8A857" d="M66 103h6v6h-6z"/><path fill="#A6E4A9" d="M82 78h8l-1 6-6-3v5h-1z"/><path fill="#7E5534" d="M172 61h3v8h-7v-3h4z"/><path fill="#7D5841" d="m167 43 1 3c2.015.733 2.015.733 4 1h-2l1 2 3-3v6c-2 .043-4 .04-6 0-1-1-1-1-1.098-2.848z"/><path fill="#9D7556" d="m73 43 8 1v2h-4l-2 6h-2z"/><path fill="#8C654D" d="M159 38h7l1 5h-8z"/><path fill="#644632" d="M85.563 244.938 88 245l-2 1c-1.61 5.189-2.225 9.59-2 15l-2 1a1890 1890 0 0 1-.062-7.937l-.026-2.288c-.009-1.925.036-3.85.088-5.775 1-1 1-1 3.563-1.062"/><path fill="#755744" d="M50 204h5v7l-4 1c-1.354-2.709-1.065-5.01-1-8"/><path fill="#748A97" d="M93 162h4q.061 3.5 0 7c-1 1-1 1-3.562 1.063L91 170c.523-2.763 1.109-5.326 2-8"/><path fill="#5C463C" d="M75 132h7v4c-2.957 1.478-5.742 1.06-9 1v-2h2z"/><path fill="#D8A66D" d="M97 44h1v8H82v-1h8v-3h2v2h5z"/><path fill="#4F4342" d="M73 272h9l-2 2 1 3h-8z"/><path fill="#533D2D" d="M151 169h8v2h-6l1 3c-.437 2.688-.437 2.688-1 5h-2z"/><path fill="#C4A487" d="M82 153h8v7h-8v-1l6-1-3-2a101 101 0 0 1-3-3"/><path fill="#1B1F25" d="M67 112h4v7l-2 1-2 3z"/><path fill="#0B1713" d="M89 69h1v8c-6.523.37-6.523.37-8.937-1.5L80 74c1.813-.625 1.813-.625 4-1l3 2v-2h2z"/><path fill="#574337" d="M98 213h8c-1 3-1 3-2 4l2 2h-5l-1-4-1 6h-1z"/><path fill="#89674F" d="m49 182 1 3 1-2h6v4h-9z"/><path fill="#F3B391" d="M191 169h9v2h-7v7l-2-1z"/><path fill="#101315" d="M203 112v8l-8-1v-1h6v-4h-9v-1q2.188-.252 4.375-.5l2.46-.281C201 112 201 112 203 112"/><path fill="#C98841" d="M71 88h1v15h-6v-5l3 1v2h2z"/><path fill="#7B5339" d="M142 44h6c-1.375 2.5-1.375 2.5-3 5h-2v2h6v1h-7z"/><path fill="#383435" d="m74 215 5 1-1 3h-3l-1 4h-8v-1l7-1z"/><path fill="#452B25" d="m194 136 3 2v4l3 1-1 3-5-1z"/><path fill="#725642" d="M169 129h5v6h-5z"/><path fill="#D38D46" d="M177 63h6v5h-6z"/><path fill="#EBA145" d="M143 54h6v5h-6z"/><path fill="#C6996F" d="M123 44h2v8h-8v-2c3-1 3-1 6 0z"/><path fill="#171D21" d="M177 46h5l-1 6-4 1z"/><path fill="#BFA187" d="M65 245h8v2h-6v6h-2z"/><path fill="#876D52" d="M125 203h7v8h-2l-1-5h-2l-1 2z"/><path fill="#8A7869" d="M73 194h1l1 7 7-2v4c-6.152.098-6.152.098-8 0-1-1-1-1-1.098-2.848z"/><path fill="#985B42" d="m59 154 4 2v5l-4 1z"/><path fill="#AED5B8" d="m99 61 5 1-.562 1.875c-.675 2.167-.675 2.167.562 4.125l-5 1z"/><path fill="#CAAA8C" d="M134 245h7v6l-5-1 1-3h-3z"/><path fill="#785C4F" d="M151 245h8c-2 3-2 3-5 4-1.667 1.5-1.667 1.5-3 3z"/><path fill="#6E5344" d="M101 237h6l-2 6-4-1z"/><path fill="#8B715D" d="M98 221v7h-2v-5H83v-1q3.188-.251 6.375-.5l3.586-.281c1.677-.121 3.358-.219 5.039-.219"/><path fill="#0A131B" d="M117 179h7v7l-4-1 2-4-4-1v6h-1z"/><path fill="#E0BA99" d="M168 153h2c.934 3.01 1.044 3.867 0 7h4v-5h1v6h-7z"/><path fill="#C72E1D" d="M199 145v1c-4.053.982-7.839 1.082-12 1v5h-1v-7c4.655-.838 8.37-1.016 13 0"/><path fill="#77614E" d="m90 145 5 1v4c-3 2-3 2-5 2z"/><path fill="#523C2E" d="M159 61h3l-1 8h6v1h-8z"/><path fill="#1F2223" d="m167 37 7 1v4l-7 1z"/><path fill="#F33422" d="m55 155 1 6h-5l1-4-2-1c2-1 2-1 5-1"/><path fill="#E1B571" d="M113 121h6v3h-2v2h-4z"/><path fill="#1B2126" d="m75 102 2 2c2.108-.319 2.108-.319 4-1v3h-3v2l3 1h-6zm1 3 1 2Z"/><path fill="#5D4736" d="M152 147h5v3l2 2h-8z"/><path fill="#CF9D67" d="M149 113h1v7h-8l4-2v-2h3z"/><path fill="#B6EABB" d="M125 78h7v5h-4l-.375-1.937L127 79z"/><path fill="#AE815F" d="M174 52h1v9h-7v-3l4 1z"/><path fill="#181D22" d="M75 37h5v5h-5z"/><path fill="#6F5D53" d="M174 236h1v9h-7v-5l1 2a78 78 0 0 0 5 2z"/><path fill="#171D20" d="m36 222 5 1v4h-5z"/><path fill="#4E4948" d="M64 196h1v6h9v1c-5.911.773-11.131 1.148-17 0v-1h7z"/><path fill="#9C7F66" d="M83 145h7v8h-8v-1h7c-1.168-3.814-1.168-3.814-4.125-6.312z"/><path fill="#98785D" d="M192 137v1l-2.59.148-3.347.227c-1.103.07-2.205.14-3.34.21L180 139l-1 2h-2l-1-4c5.606-.826 10.423-1.068 16 0"/><path fill="#181A1F" d="M204 122h4v6h-4z"/><path fill="#7EDC7D" d="M92 105h6v4l-6 1z"/><path fill="#4BCF47" d="M90 79h6l-1 5-1-2-1.437 1.5C91 85 91 85 90 85z"/><path fill="#C1926A" d="M201 181h5v4h-6z"/><path fill="#705D52" d="m40 177 7 1-1.437 1.25c-1.726 1.932-2.129 3.232-2.563 5.75h-2z"/><path fill="#CD8E49" d="M152 104h5l1 5h-6z"/><path fill="#654E40" d="m44 221 5 1-2 5h-3z"/><path fill="#927256" d="M90 204h8v7h-2l-1-5-5-1z"/><path fill="#B28A6E" d="M34 197h1v5l5-1 1 3h-7z"/><path fill="#986C4A" d="M189 194h2v7l-4-1v-3h2z"/><path fill="#A7805E" d="M77 139h2l1 6h-5z"/><path fill="#A0846F" d="M82 136v9h-2v-7l-3-1c3-1 3-1 5-1"/><path fill="#543D33" d="M159 53h7v8h-1v-7h-3l-1 3-2-1z"/><path fill="#665049" d="M63 179h1v7h-5c.98-2.938 2.048-4.642 4-7"/><path fill="#1A1D1D" d="m168 139 1 2 3-1 2 4h-6z"/><path fill="#463E3C" d="M84 133h6v3h-8l2-1z"/><path fill="#554C4B" d="M73 130h7l-2 3-3-1v3h-2z"/><path fill="#7DE076" d="M111 106c2.625.188 2.625.188 5 1l1 2h-9z"/><path fill="#AED8B7" d="M94 71h5l-1 5h-3z"/><path fill="#736157" d="M106 239h1v6h-8c1.313-1.5 1.313-1.5 3-3h3z"/><path fill="#644A3B" d="M82 223v5h-7c4.75-5 4.75-5 7-5"/><path fill="#71838C" d="M107 178h9c-1.687 1.563-1.687 1.563-4 3-2.75-.312-2.75-.312-5-1z"/><path fill="#886950" d="M132 147h4v3l2 1-6 1z"/><path fill="#A66A40" d="M77 46h4l-1 4-4 1z"/><path fill="#92684C" d="m74 253 4 2v2h-2l-2 4z"/><path fill="#15191A" d="M65 194h2c.688 2.313.688 2.313 1 5-1.437 1.813-1.437 1.813-3 3z"/><path fill="#B88D68" d="m134 154 4 1-1 3 3 1h-6z"/><path fill="#513A2D" d="m176 77 3 3c-.312 3.188-.312 3.188-1 6h-2z"/><path fill="#9A7458" d="M81 254h1v8l-4-1 2-1-1-2c.938-2.125.938-2.125 2-4"/><path fill="#654C3D" d="M83 245h5l-2 1c-.685 1.888-.685 1.888-1.125 4.063l-.508 2.222L84 254h-1z"/><path fill="#86654C" d="M109 216h5v3h-6z"/><path fill="#0B0D10" d="m176 209 8 2v1h-9z"/><path fill="#6F5545" d="M47 178h1v7l-4-1z"/><path fill="#A8754F" d="M152 29h2l1 7h-3z"/></svg>