<svg xmlns="http://www.w3.org/2000/svg" width="311" height="342"><path fill="#161A1F" d="m61.318 25.833 2.13-.018q3.504-.025 7.009-.04 2.523-.016 5.048-.034c5.507-.037 11.015-.062 16.522-.085l2.844-.012q13.284-.056 26.567-.089 16.965-.039 33.93-.16 11.944-.082 23.89-.094c4.753-.007 9.504-.025 14.256-.072q6.704-.063 13.408-.039 2.456 0 4.91-.038c13.889-.203 13.889-.203 18.97 4.176A100 100 0 0 1 234 33a281 281 0 0 0 3.75 3.563c2.868 2.906 5.068 5.976 7.25 9.437l2.088 2.304c2.28 3.214 2.37 4.81 2.318 8.704l.047 3.476.047 3.641c.232 10.811.232 10.811 5.875 19.55 2.445 1.92 5.031 3.614 7.625 5.325.952 2.857 1.132 4.655 1.145 7.62l.02 2.833.003 3.059.01 3.158q.007 3.312.007 6.625c.002 3.362.02 6.724.04 10.086q.005 3.221.005 6.443l.022 3.028c-.023 7.036-.057 13.523-4.748 19.132q-1.46 1.395-2.941 2.766c-4.915 4.882-6.52 8.508-7.696 15.422-1.356 4.423-4.281 6.826-7.71 9.793-2.284 2.155-3.666 4.287-5.157 7.035l2.125-.246c7.552-.503 7.552-.503 11.07 1.488 2.07 1.82 3.933 3.735 5.805 5.758q2.467 2.408 4.938 4.813c7.896 7.869 6.167 19.03 6.199 29.599q.002 3.93-.004 7.861l.003 5.566q.002 5.806-.006 11.613-.006 7.386.004 14.772a7063 7063 0 0 1 0 11.48q0 2.72.002 5.44c.03 30.172.03 30.172-4.198 35.231A150 150 0 0 1 258 323a1625 1625 0 0 0-4.187 4.375c-4.149 4.241-7.034 5.832-13.084 5.937l-2.095.007-2.235.03c-2.45.031-4.899.048-7.348.065q-2.597.028-5.194.059c-4.586.051-9.171.09-13.757.128-3.64.031-7.278.071-10.918.111-18.056.2-36.111.328-54.169.287-8.121-.016-16.24.022-24.361.1q-14.118.132-28.235.132a1224 1224 0 0 0-16.233.102c-5.343.072-10.683.085-16.026.058q-3.008 0-6.013.063c-10.168.205-18.072.15-25.777-7.103-6.092-6.01-8.692-12.174-8.775-20.744l.019-2.837-.016-3.043c-.013-3.305-.005-6.61.006-9.914q-.003-3.457-.01-6.915-.005-7.238.017-14.475c.017-6.177.007-12.354-.01-18.531-.012-4.758-.008-9.516 0-14.274q.003-3.415-.008-6.831c-.008-3.186.004-6.371.02-9.557l-.018-2.837c.069-7.088 1.014-12.04 6.255-17.194q1.59-1.276 3.215-2.511l3.222-2.551L35 193l2-2-1.277-1.426-1.66-1.886-1.653-1.864c-2.55-3.298-2.537-6.26-2.544-10.276l-.013-3.433.002-3.769-.01-3.967q-.014-5.39-.012-10.779-.003-4.5-.008-8.998-.012-10.617-.01-21.232-.001-10.95-.026-21.9a8592 8592 0 0 1-.018-18.802q.002-5.614-.013-11.23c-.012-4.175-.007-8.35 0-12.525-.007-1.24-.012-2.48-.018-3.757l.013-3.45-.002-2.99c.53-5.777 2.98-8.819 7.062-12.778l2.582-2.536L42 31l2.387-2.246c4.972-3.337 11.102-2.883 16.93-2.921"/><path fill="#FAFAFA" d="m61.318 25.833 2.13-.018q3.504-.025 7.009-.04 2.523-.016 5.048-.034c5.507-.037 11.015-.062 16.522-.085l2.844-.012q13.284-.056 26.567-.089 16.965-.039 33.93-.16 11.944-.082 23.89-.094c4.753-.007 9.504-.025 14.256-.072q6.704-.063 13.408-.039 2.456 0 4.91-.038c13.889-.203 13.889-.203 18.97 4.176A100 100 0 0 1 234 33a281 281 0 0 0 3.75 3.563c2.868 2.906 5.068 5.976 7.25 9.437l2.088 2.304c2.28 3.214 2.37 4.81 2.318 8.704l.047 3.476.047 3.641c.232 10.811.232 10.811 5.875 19.55 2.445 1.92 5.031 3.614 7.625 5.325.952 2.857 1.132 4.655 1.145 7.62l.02 2.833.003 3.059.01 3.158q.007 3.312.007 6.625c.002 3.362.02 6.724.04 10.086q.005 3.221.005 6.443l.022 3.028c-.023 7.036-.057 13.523-4.748 19.132q-1.46 1.395-2.941 2.766c-4.915 4.882-6.52 8.508-7.696 15.422-1.356 4.423-4.281 6.826-7.71 9.793-2.284 2.155-3.666 4.287-5.157 7.035l2.125-.246c7.552-.503 7.552-.503 11.07 1.488 2.07 1.82 3.933 3.735 5.805 5.758q2.467 2.408 4.938 4.813c7.896 7.869 6.167 19.03 6.199 29.599q.002 3.93-.004 7.861l.003 5.566q.002 5.806-.006 11.613-.006 7.386.004 14.772a7063 7063 0 0 1 0 11.48q0 2.72.002 5.44c.03 30.172.03 30.172-4.198 35.231A150 150 0 0 1 258 323a1625 1625 0 0 0-4.187 4.375c-4.149 4.241-7.034 5.832-13.084 5.937l-2.095.007-2.235.03c-2.45.031-4.899.048-7.348.065q-2.597.028-5.194.059c-4.586.051-9.171.09-13.757.128-3.64.031-7.278.071-10.918.111-18.056.2-36.111.328-54.169.287-8.121-.016-16.24.022-24.361.1q-14.118.132-28.235.132a1224 1224 0 0 0-16.233.102c-5.343.072-10.683.085-16.026.058q-3.008 0-6.013.063c-10.168.205-18.072.15-25.777-7.103-6.092-6.01-8.692-12.174-8.775-20.744l.019-2.837-.016-3.043c-.013-3.305-.005-6.61.006-9.914q-.003-3.457-.01-6.915-.005-7.238.017-14.475c.017-6.177.007-12.354-.01-18.531-.012-4.758-.008-9.516 0-14.274q.003-3.415-.008-6.831c-.008-3.186.004-6.371.02-9.557l-.018-2.837c.069-7.088 1.014-12.04 6.255-17.194q1.59-1.276 3.215-2.511l3.222-2.551L35 193l2-2-1.277-1.426-1.66-1.886-1.653-1.864c-2.55-3.298-2.537-6.26-2.544-10.276l-.013-3.433.002-3.769-.01-3.967q-.014-5.39-.012-10.779-.003-4.5-.008-8.998-.012-10.617-.01-21.232-.001-10.95-.026-21.9a8592 8592 0 0 1-.018-18.802q.002-5.614-.013-11.23c-.012-4.175-.007-8.35 0-12.525-.007-1.24-.012-2.48-.018-3.757l.013-3.45-.002-2.99c.53-5.777 2.98-8.819 7.062-12.778l2.582-2.536L42 31l2.387-2.246c4.972-3.337 11.102-2.883 16.93-2.921M49 37v6h163l-1 2-1.875-.5c-2.086-.576-2.086-.576-4.125-.5v132H49V44h-7v139h7v7h56v7H86v5H38v6h-6v106h6v7h209v-7h7V206h-7v-9h-64v-7h36v-7h6v-6h6v-8h7v-16h8v-7h6V92h-6v-8h-7V53h-7v-9h-9v-7z"/><path fill="#5B6269" d="m38 206 1 2h175v106H103v-99h-7v98H38z"/><path fill="#114D7A" d="M57 51h140v117H57z"/><path fill="#3C3F45" d="M49 37h174v7h9v9h7v31h7v8h6v54h-6v7h-8v16h-7v8h-6v6h-6v7h-36v-1h35v-6H50v7h-1v-7h-7V44h7v132h156V44h5l1 1 1-2H49z"/><path fill="#596168" d="m38 206 1 2h166v7h-96v90h-5v-90h-8v98H38z"/><path fill="#151B21" d="M57 51h140v117H57zm23 17v6h-6v78h6v8h98v-3h4v-5h7V73h-7v-5z"/><path fill="#A2A4A4" d="M42 43h170l-1 3-6-2v132H49V44h-7zm15 8v117h140V51z"/><path fill="#2C3740" d="M246 197h1v9h7v108h-7v7H39v-1h207v-6h-24V208l18-1v-1h5z"/><path fill="#5D656B" d="M39 208h166v7h-96v90h-5v-90h-8v31l-2 1-1-23h-2l.032 2.722q.05 4.993.078 9.986.015 2.161.04 4.324c.025 2.07.036 4.14.045 6.21l.032 3.777C91 254 91 254 89 256h-4l-2 3v-6h7v-31H47v31h6v8h27v1l-25 1v4h-2v23h6v8l-3 1v2l2 1-1 2 1.68-.124c2.523-.178 5.046-.34 7.57-.501l2.645-.195 2.558-.157 2.349-.158C76 303 76 303 80 305H39z"/><path fill="#686D71" d="M42 44h7v132h156V44h5c2 2 2 2 2.246 4.386l-.005 3.056.008 3.494-.022 3.867v4.116c.001 3.682-.01 7.363-.024 11.045-.012 3.452-.012 6.903-.014 10.355-.01 10.102-.038 20.204-.064 30.306L212 183H50v7h-1v-7h-7z"/><path fill="#384048" d="M205 208h9v106H103l2-2c.167-3.083.167-3.083 0-6 3.674-.853 7.045-1.108 10.813-1.062l2.957.027L121 305v-8q14.878-.07 29.756-.104 6.909-.014 13.818-.047 6.672-.032 13.344-.039 2.541-.004 5.082-.021c2.379-.015 4.758-.017 7.137-.016l2.106-.022c4.837.02 7.858.85 12.757 2.249z"/><path fill="#45494C" d="M57 51h140v117H57zm8 9v107h131V60z"/><path fill="#138EB5" d="M126 96h7v7h6v15h27v-8h7V99h9v11l-8 1-1 7h9v8h-9v7h9v6h-9v9h-7v-9h-13v9H91v-9H80v-6h25v8h41v-8h20v-7h-21v6h-39l-1-6-10-1c0-3 0-3 1-7h22v-8h8z"/><path fill="#141E27" d="M80 89h102v9h-9v12h-7v8h-27v-15h-6v-7h-7v14h-8v8H97v-8h-6V96H80z"/><path fill="#151B20" d="M121 222q14.838-.034 29.676-.052 6.888-.007 13.778-.023 6.643-.016 13.285-.02 2.54-.003 5.08-.01a2183 2183 0 0 1 7.09-.009l2.144-.01c4.833.01 4.833.01 5.947 1.124v26h-77z"/><path fill="#0E1215" d="M49 37h174v7h8v9h-1v-8l-3.937.063A59 59 0 0 1 222 45l-1-1v-5h-96c3.34 1.67 7.093 1.129 10.764 1.114h2.75c3.008 0 6.017-.009 9.025-.016l6.247-.005q8.23-.006 16.463-.024 8.394-.014 16.79-.02Q203.52 40.033 220 40v5h-2v129h1v7l5 1v-5h1v6h-6v7h-36v-1h35v-6h-6V43H49z"/><path fill="#8E9295" d="M39 208h166v7h-96v90h-5v-90H39z"/><path fill="#0E1916" d="M47 222h43v31h-7v7H53v-7h-6z"/><path fill="#181C21" d="M125 39h96l1 5 8 1v8h-5v116h6v8h-7v5h-6v-7h-1V43l1 2 1-4h-94z"/><path fill="#11517E" d="M80 68h102v5h7v79h-7v-2l6 1-1.062-3.812c-.874-3.135-1.01-3.97.062-7.188.016-1.67-.033-3.34-.121-5.008l-.147-2.992-.17-3.125c-.36-6.97-.627-13.896-.562-20.875l-3 3v-9l3-1c.733-2.015.733-2.015 1-4l-5 1V85h-9v-7H81c-1-2-1-2-1-10"/><path fill="#353F48" d="M121 259h77v16h-77z"/><path fill="#099EC9" d="M80 78h93v7h9l1 4H80z"/><path fill="#161A1D" d="M42 44h7v138h-7z"/><path fill="#0EB9E2" d="M126 96h7v7h6v16h7l-1 13h-39l-1-6-10-1c0-3 0-3 1-7h22v-8h8z"/><path fill="#5D6166" d="m57 51 7 2-1 4h2v111h-8z"/><path fill="#8B8D90" d="M204 48h1v128h-1v-5h-7l1-121h5z"/><path fill="#1C9CC1" d="M91 110h6c.18 5.22-.03 9.073-2 14l2.152.184 2.785.254 2.778.246C105 125 105 125 106 126v6h39v-6h21v7h-20v8h-41v-8H91v-7H80v-8h11z"/><path fill="#44494D" d="M212 43h5l1 131h1v7l5 1v-5h1v6h-6v7h-36v-1h35v-6h-6z"/><path fill="#0BC66C" d="M53 229h29v24H53z"/><path fill="#D42111" d="M53 268h22v8h7v14h-6v7H60v-7h-7z"/><path fill="#2A3A42" d="M129 229h61v11h-61z"/><path fill="#12161B" d="M247 207h6v106h-6z"/><path fill="#3F474E" d="M38 206h1v99h57v8H38z"/><path fill="#1B1D22" d="M245 92h7v54h-5c-2-3-2-3-2-6h-7v-7h7v-6h-7v-7h7v-7h-7v-12h7z"/><path fill="#14191E" d="M122 297h75v7h-75z"/><path fill="#13181D" d="M122 283h75v7h-75z"/><path fill="#F1F1F1" d="M264 301h1c1.06 11.983 1.06 11.983-1.277 16.43-1.796 2.027-3.684 3.788-5.723 5.57q-2.1 2.182-4.187 4.375c-4.149 4.241-7.034 5.832-13.084 5.937l-2.095.007-2.235.03c-2.45.031-4.899.048-7.348.065q-2.597.028-5.194.059c-4.586.051-9.171.09-13.757.128-3.64.031-7.278.071-10.918.111-35.26.39-70.51.34-105.77 0q-7.884-.077-15.767-.134-7.77-.056-15.54-.136-2.932-.029-5.864-.045c-2.698-.017-5.395-.046-8.092-.078l-2.428-.007c-5.493-.084-5.493-.084-7.721-2.312l3.226.004q38.86.045 77.719-.032c12.528-.025 25.056-.036 37.584-.017q16.38.027 32.76-.027c5.781-.02 11.563-.026 17.344-.003q8.166.03 16.33-.027 2.995-.012 5.99.014c11.845.574 11.845.574 22.117-4.327A89 89 0 0 0 254 323l2.875-2.25C259.209 319 259.209 319 261 316h2l-.035-3.027c-.01-1.29-.018-2.581-.027-3.91l-.036-3.903C263 302 263 302 264 301"/><path fill="#2B2E32" d="M246 197h1v9h7v108h-7v7H39v-1h207v-6h-24v-1h24V208l-6-1v-1h5zm1 10v106h6V207z"/><path fill="#505860" d="M121 282h77v15h-77l1-5 22-1v-1h53v-7h-75v7h-1z"/><path fill="#DEDEDE" d="M227 27c6.9 5.773 13.169 11.337 18 19l2.088 2.304c2.28 3.214 2.37 4.81 2.318 8.704l.047 3.476.047 3.641c.232 10.811.232 10.811 5.875 19.55 2.445 1.92 5.031 3.614 7.625 5.325.952 2.857 1.132 4.655 1.145 7.62l.02 2.833.003 3.059.01 3.158q.007 3.312.007 6.625c.002 3.362.02 6.724.04 10.086q.005 3.221.005 6.443l.022 3.028c-.023 7.036-.057 13.523-4.748 19.132q-1.459 1.395-2.942 2.766c-4.914 4.882-6.518 8.508-7.695 15.422-1.356 4.423-4.281 6.826-7.71 9.793-2.284 2.155-3.666 4.287-5.157 7.035l2.195-.176c8.884-.414 8.884-.414 12.493 2.551C253 191 253 191 253 193a56.5 56.5 0 0 1-7-4c-2.64-.384-2.64-.384-5.5-.5-3.842-.207-5.217-.311-8.5-2.5 8.235-10.524 8.235-10.524 13-15l1-1v-2.004c0-4.185.12-6.976 2.926-10.226a100 100 0 0 1 4.75-3.786c3.701-3.16 5.996-5.733 6.704-10.595.162-3.244.2-6.469.194-9.717l.043-3.592c.042-3.777.057-7.553.07-11.33q.045-5.686.103-11.373.034-3.536.047-7.071l.021-3.217.01-2.839C261 92 261 92 262 90h-2v-2l-1.706-.828c-4.376-2.235-8.166-4.29-11.294-8.172-1.1-4.708-.898-9.253-.687-14.062.718-8.316.718-8.316-1.59-16.015C242.948 47.13 242.948 47.13 240 45c-1.355-2.012-1.355-2.012-2.187-3.687-2.324-4.248-3.28-5.853-7.938-7.25C227 33 227 33 226.063 31 226 29 226 29 227 27"/><path fill="#E4E4E4" d="m36 37 2 1-2.458 2.174c-4.066 4.934-3.255 10.958-3.22 17.048q-.016 2.022-.037 4.043c-.031 3.649-.03 7.297-.022 10.946.004 3.052-.007 6.103-.018 9.155-.025 7.202-.024 14.405-.007 21.607.018 7.418-.009 14.835-.057 22.252q-.058 9.57-.043 19.14c.005 3.805 0 7.61-.03 11.416-.03 3.58-.023 7.16.009 10.74.009 1.931-.017 3.862-.043 5.793.087 6.065.418 9.846 4.48 14.529A73 73 0 0 0 40 190l-2 4h-2v2l-4 2c1.302-2.905 2.709-4.81 5-7l-1.277-1.426-1.66-1.887-1.653-1.863c-2.55-3.298-2.537-6.26-2.544-10.276l-.013-3.433.002-3.769-.01-3.967q-.014-5.39-.012-10.779-.002-4.5-.008-8.998-.012-10.617-.01-21.232-.001-10.95-.026-21.9-.019-9.4-.018-18.802.002-5.614-.013-11.23c-.012-4.175-.007-8.35 0-12.525-.007-1.24-.012-2.48-.018-3.757l.013-3.45-.002-2.99C30.232 43.465 32.13 40.483 36 37"/><path fill="#12AAD6" d="M80 133h25l1 8 39 1-1 5H91v-8H80z"/><path fill="#114469" d="M80 68h102v5h7v79h-7v-2l6 1-1.062-3.812c-.874-3.135-1.01-3.97.062-7.188.016-1.67-.033-3.34-.121-5.008l-.147-2.992-.17-3.125c-.36-6.97-.627-13.896-.562-20.875l-3 3v-9l3-1c.733-2.015.733-2.015 1-4l-5 1 .035-1.871c.055-5.129-.155-10.046-.914-15.121C181 79 181 79 181.598 76.868L182 75l-2-2v-4H80z"/><path fill="#09517F" d="M79 96h12v22H80v8h11v7H80v6h11v9h-1v-7H79c-1.302-15.087-1.11-29.915 0-45"/><path fill="#515456" d="M49 37h174v1L92 39c1.804 1.804 4.567 1.237 7.004 1.316l3.682.127 3.876.12 3.89.13q4.773.16 9.548.307l-1 2H49z"/><path fill="#14191E" d="M122 267h54v7h-54z"/><path fill="#142322" d="M89 222h1v31h-7v7H53v-7h29v-24l4-1 1-2 1 1z"/><path fill="#818689" d="m105 214 4 1v90h-4z"/><path fill="#686F75" d="M39 215h6l2 2-1 3h44v1l-43 1-1 31-1-3c-2.071 1.16-2.071 1.16-4 3-.616 2.388-.616 2.388-.546 5.114l-.06 3.154-.003 3.4-.05 3.485c-.05 3.678-.07 7.356-.091 11.034q-.042 3.738-.09 7.475A2839 2839 0 0 0 40 305h-1z"/><path fill="#6E7479" d="M49 176h2v5h161v2H50v7h-1v-7h-7v-1h7z"/><path fill="#565A5D" d="M63 57h2v110h-7l4-1v-22l-.011-5.571q-.028-14.049-.04-28.098-.008-7.784-.024-15.567a9141 9141 0 0 1-.02-15.02q-.003-2.871-.01-5.742-.01-4.005-.009-8.01l-.01-2.421c.01-5.457.01-5.457 1.124-6.571"/><path fill="#0D212D" d="M106 133h40v8h-40z"/><path fill="#3F4247" d="M113 190h53v6h-53z"/><path fill="#40EE61" d="M53 229h29v7H59v16l-6 1z"/><path fill="#1597BF" d="M146 134q4.438-.118 8.875-.187l2.55-.077 2.442-.029 2.254-.048L164 134l2 3-1 2h-12v9H91v-1h53v-4l-38-1v-1h40z"/><path fill="#1D1C1F" d="M53 268h22v7H60v15h-7z"/><path fill="#258CAC" d="M80 78h1v10q16.964-.16 33.927-.34 7.875-.083 15.752-.157 7.596-.072 15.191-.156 2.904-.031 5.806-.056 4.056-.037 8.11-.086l2.444-.017c4.016.035 4.016.035 7.77-1.188v-3l-2-1h2v-3H82v-1h91v7h9l1 4H80z"/><path fill="#1F2226" d="M232 54h6v31h7v7h-7l-1-6-5-1z"/><path fill="#14161A" d="M246 92h6v54h-5c-2-3-2-3-2-6h-7v-7l5.957-.586c2.343-.34 2.343-.34 5.043-2.414.338-2.83.489-5.452.512-8.29l.054-2.48c.054-2.618.088-5.236.121-7.855q.05-2.66.104-5.32c.085-4.352.152-8.703.209-13.055l-4 1z"/><path fill="#18A8D1" d="m81 78 17 1v8h77v1H81z"/><path fill="#454C54" d="M205 208h8v95h-1v-94h-2v3l-3 1-1 86h-1z"/><path fill="#EBEBEB" d="M261 92h1c.322 7.524.586 15.05.812 22.577q.125 3.837.289 7.673c.155 3.686.264 7.37.364 11.059l.176 3.438c.136 7.186-1.068 11.088-5.858 16.505-1.448 1.42-2.98 2.755-4.533 4.06-2.532 3.025-2.77 4.628-3.5 8.438-1.307 6.177-3.884 9.14-8.594 13.215-2.283 2.155-3.665 4.287-5.156 7.035l2.195-.176c8.884-.414 8.884-.414 12.493 2.551C253 191 253 191 253 193a56.5 56.5 0 0 1-7-4c-2.64-.384-2.64-.384-5.5-.5-3.842-.207-5.217-.311-8.5-2.5 8.235-10.524 8.235-10.524 13-15l1-1v-2.004c0-4.185.12-6.976 2.926-10.226a100 100 0 0 1 4.75-3.786c3.71-3.167 5.993-5.739 6.711-10.609.172-3.263.219-6.506.222-9.773l.05-3.607c.049-3.79.07-7.58.091-11.37q.042-3.86.09-7.723.11-9.45.16-18.902"/><path fill="#7B8084" d="M105 256h3c.883 16.344 1.128 32.634 1 49h-4z"/><path fill="#1D2D2C" d="M89 222h1v31h-7v7h-1v-31l4-1 1-2 1 1z"/><path fill="#F6F6F6" d="M264 301h1c1.06 11.983 1.06 11.983-1.277 16.43-1.796 2.027-3.684 3.788-5.723 5.57q-2.1 2.182-4.187 4.375c-3.607 3.687-5.993 5.498-11.255 5.866q-2.086.007-4.172-.014h-2.307c-2.511 0-5.021-.016-7.532-.032l-5.23-.008c-4.583-.008-9.166-.028-13.75-.05-4.678-.02-9.357-.03-14.036-.04-9.177-.02-18.354-.055-27.531-.097v-1l2.856.023q13.373.096 26.745.052c4.582-.013 9.164-.01 13.747.031 4.429.04 8.856.035 13.285 0q2.525-.008 5.05.03c11.49.184 11.49.184 21.247-5.517A113 113 0 0 0 255 322c4.693-4.898 4.693-4.898 8-6l-.035-3.027c-.01-1.29-.018-2.581-.027-3.91l-.036-3.903C263 302 263 302 264 301"/><path fill="#2E353B" d="M121 222h1v26h75v-21h-2c-1.625-2-1.625-2-3-4a88 88 0 0 1 5-1c6.368 6.368 1 17.994 1 27h-77z"/><path fill="#191B1F" d="M239 146h6v7h-7v16h-6v-16l7-1z"/><path fill="#181F27" d="M146 126h20v7h-20z"/><path fill="#1592BE" d="M80 96h10v14H80z"/><path fill="#181E21" d="M54 224h6v3l-7 1-1 25h-4c-.175-3.729-.281-7.456-.375-11.187l-.152-3.198c-.146-7.716-.146-7.716 1.89-10.434 1.66-1.357 1.66-1.357 4.637-3.181z"/><path fill="#1E1B1D" d="M60 290h16v7H60z"/><path fill="#54CB74" d="M53 229h29v7h-1v-5H55v20l4 1-6 1z"/><path fill="#129AC8" d="M146 119h21l-4 2 1 4h-18c-1-3-1-3 0-6"/><path fill="#0A1929" d="M178 157h4c-1 3-1 3-3 4-1.33.091-2.665.122-3.999.12l-2.533.004-2.783-.01h-2.927c-3.203 0-6.406-.009-9.61-.016l-6.65-.005q-8.764-.006-17.528-.024-8.938-.014-17.876-.02Q97.547 161.033 80 161v-1h98z"/><path fill="#F2F2F2" d="M255 195c4.522 2.032 7.43 4.757 10 9 .765 3.023.73 5.865.621 8.969l-.018 2.543a501 501 0 0 1-.166 7.988q-.032 2.681-.056 5.363c-.091 7.134-.228 14.085-1.381 21.137h-1l.047-1.661c.155-5.727.26-11.453.338-17.18q.052-3.203.143-6.405c.085-3.076.125-6.15.156-9.227l.11-2.873c.006-5.23.006-5.23-2.364-9.758-1.862-1.872-1.862-1.872-3.825-3.442C256 198 256 198 255 195"/><path fill="#234A68" d="M184 73h5v79h-7v-2l6 1-1.062-3.812c-.874-3.135-1.01-3.97.062-7.188.118-2.13.177-4.265.205-6.4l.03-1.951q.047-3.19.081-6.38l.063-4.426q.083-5.822.153-11.644.077-5.943.161-11.885.162-11.656.307-23.314z"/><path fill="#1996B9" d="M173 99h9v11h-9z"/><path fill="#0F161B" d="M183 283h14v7h-14z"/><path fill="#214F75" d="M74 74h6l-4 2v73l4 1v2h-6z"/><path fill="#02B764" d="M74 237h7v15h-6z"/><path fill="#1D2124" d="m49 38 40 1-1 2-3.013.076q-5.516.142-11.031.296-2.391.066-4.781.125-3.43.088-6.859.187l-2.171.05C56.785 41.55 56.785 41.55 54 43c-1.666.04-3.334.043-5 0z"/><path fill="#13A9D3" d="M96 118h22v1l-10 1v6l-13-1c0-3 0-3 1-7"/><path fill="#1A1C20" d="M76 276h6v14h-6z"/><path fill="#AE342A" d="m60 275 7.438-.062 2.345-.028c1.74-.007 3.478.04 5.217.09 1 1 1 1 1.098 4.16L76 290H60zm1 2v12h13v-12z"/><path fill="#171E24" d="M229 221h10v8h-10z"/><path fill="#F0F0F0" d="M264 301h1c1.06 11.983 1.06 11.983-1.277 16.43-1.796 2.027-3.686 3.786-5.723 5.57a1593 1593 0 0 0-4.187 4.438c-2.529 2.63-4.171 3.989-7.813 4.562 0-2 0-2 1.574-3.586l2.113-1.789 2.208-1.883a235 235 0 0 1 4.98-3.992C259.209 319 259.209 319 261 316h2l-.035-3.027c-.01-1.29-.018-2.581-.027-3.91l-.036-3.903C263 302 263 302 264 301"/><path fill="#022136" d="M146 126h20v7h-20zm1 1v3c3.188 1.594 6.629 1.102 10.125 1.063l2.285-.014q2.795-.02 5.59-.049v-4z"/><path fill="#141B21" d="M229 262h9v7h-9z"/><path fill="#1B2023" d="M92 39h32c-4.396 3.297-5.111 3.343-10.297 3.074l-3.652-.166-3.801-.22-3.848-.186Q97.7 41.272 93 41z"/><path fill="#13A5D2" d="M81 119h10l-1 5 3 1c-2.623 1.312-4.23.896-7.125.563l-2.758-.31L81 125z"/><path fill="#28E569" d="M55 236h4v15h-4z"/><path fill="#1991B8" d="M166 78h7v7h9v3l-14-1 2-1v-3l-2-1h2v-3z"/><path fill="#136E97" d="M166 110h8l-1 8h-7z"/><path fill="#062233" d="M97 126h8v7h-8z"/><path fill="#13191F" d="M229 248h9v6h-9z"/><path fill="#12191F" d="M229 235h9v6h-9z"/><path fill="#23A3CF" d="M89 96h1v14h-9V97h1v11h2v-2l4-1z"/><path fill="#626C71" d="M90 224h1q.074 6.353.11 12.708.015 2.161.04 4.324c.025 2.07.036 4.14.045 6.21l.032 3.777C91 254 91 254 89 256h-4l-2 3v-6h7z"/><path fill="#22A3D0" d="M80 133h12v2H82v3h10v9h-1v-8H80z"/><path fill="#262E33" d="M176 283h7v7h-7z"/><path fill="#111A20" d="M183 267h7v7h-7z"/><path fill="#14171A" d="M238 85h7v7h-7z"/><path fill="#024D7C" d="M153 139h13v9h-1v-7h-10v6l-2 1z"/><path fill="#575C64" d="M59 290h1c.879 6.152.879 6.152 1 8l-1 1 2 1v2l6 1v1H57l-1-5 2-1c.465-1.895.465-1.895.625-4.062z"/><path fill="#F0F0F0" d="M227 27a186 186 0 0 1 14 13l-1 3-1.32-1.68c-3.683-4.48-5.994-6.696-11.68-8.32-.937-2-.937-2-1-4z"/><path fill="#444B51" d="M198 223v26h-1v-22h-2c-1.625-2-1.625-2-3-4 2-1 2-1 6 0"/><path fill="#0AA2CF" d="M131 143h13v3h-14z"/><path fill="#EFEFEF" d="M23 318q1.758 1.176 3.5 2.375l1.969 1.336L30 323v2h2c2.125 1.875 2.125 1.875 4 4v2c-3.949-1.335-6.388-2.98-9.312-5.937l-2.114-2.09C23 321 23 321 23 318"/><path fill="#EBEBEB" d="M247 77c4.504.854 7.03 3.477 10.25 6.563l1.68 1.576A722 722 0 0 1 263 89l-1 3v-2h-2v-2l-1.703-.781c-2.564-1.36-4.75-2.947-7.047-4.719l-2.422-1.844L247 79z"/><path fill="#DFDFDF" d="M241 42c7.971 7.756 7.971 7.756 8.074 12.234l-.387 3.516-.363 3.547L248 64h-1l-.008-2.633c-.044-7.832-.044-7.832-4.054-14.18L240 45z"/><path fill="#EFF0EF" d="M31 182h2c1.727 1.75 1.727 1.75 3.625 4l1.914 2.25L40 190l-2 4h-2v2l-4 2c1.302-2.905 2.709-4.81 5-7l-1.312-1.46L34 187.624l-1.687-1.898C31 184 31 184 31 182"/><path fill="#298FAE" d="M166 126h2v8c-2.907.853-5.31 1.073-8.328.879l-2.422-.147-2.5-.17-2.547-.158q-3.102-.195-6.203-.404v-1h20z"/><path fill="#141619" d="M239 146h6v7l-6-1z"/><path fill="#76797D" d="M49 176h2v5h3v2h-4v7h-1v-7h-7v-1h7z"/><path fill="#034975" d="m173 139 8 1v1h-6l.063 2.875C175 147 175 147 174 149c-2.322.407-4.657.744-7 1v-2h6z"/><path fill="#1298C0" d="M170 134v4h-2v8l4 1h-5v-8l-3-1 1-3c2-1 2-1 5-1"/><path fill="#0CB1DC" d="m132 102 1 2h5v6h-5z"/><path fill="#49535A" d="M82 276h1v12l3 1-2 5-1-3h-7v-1h6z"/><path fill="#23262A" d="m239.125 151.938 2.758.027L244 152v1l-6 1-1 3-5-1v-3c2.525-1.262 4.312-1.099 7.125-1.062"/><path fill="#0892B8" d="m168 138 4 1v7h-4z"/><path fill="#909295" d="m212 43-1 3-6-2-1 4-2-1v-2l-5 1-1-2a98.4 98.4 0 0 1 16-1"/><path fill="#0AA1C5" d="M87 98c1.43 2.354 2.087 3.48 1.625 6.25L88 106h-4v2h-2z"/><path fill="#5F6870" d="M76 291h7v5c-3.875-.875-3.875-.875-5-2l-2 2z"/><path fill="#1486AD" d="m173.504 124.902 3.059.035 3.066.028L182 125v1h-9v6h-2a129 129 0 0 1-1-6c1-1 1-1 3.504-1.098"/><path fill="#03507C" d="m173 126 3 1v4l6 1v1h-9z"/><path fill="#F2F2F1" d="M48 28c0 2 0 2-1.645 3.762l-2.167 1.925-2.145 1.95L40 37l-3-1a819 819 0 0 1 4.375-4l2.46-2.25C46 28 46 28 48 28"/><path fill="#035887" d="M173 79h2v4l7 1v1h-9z"/><path fill="#F5F5F5" d="M209 27h18l-2 4-1-2a96 96 0 0 0-7.562-.625l-2.155-.117c-1.76-.095-3.522-.177-5.283-.258z"/><path fill="#059DC1" d="M146 120h6v4h-5z"/><path fill="#19DE62" d="M55 242c2.097 2.36 2.97 3.546 3.188 6.75L58 251h-3z"/><path fill="#EAEAEA" d="M232 33c3.817 1.555 6.192 4.036 9 7l-1 3a1678 1678 0 0 1-4-4.437l-2.25-2.497C232 34 232 34 232 33"/><path fill="#0991B7" d="M175 135h6v3h-7z"/><path fill="#17B2D9" d="M95 122h3v2h8l-1 2-10-1z"/><path fill="#EBEBEB" d="M255 195c3.367 1.393 4.986 2.979 7 6h-3c-4-4.457-4-4.457-4-6"/></svg>