<?xml version="1.0" encoding="UTF-8"?>
<svg version="1.1" xmlns="http://www.w3.org/2000/svg" width="316" height="447">
<path d="M0 0 C13.50735403 10.64486841 23.10143758 24.83159179 26 42 C27.20683254 55.45176763 24.68098184 66.68113653 17.26953125 77.9765625 C15.84578862 80.06875884 15.84578862 80.06875884 15 83 C15.61488281 83.35191406 16.22976562 83.70382813 16.86328125 84.06640625 C20.84117387 86.49628324 23.58950966 88.37840035 26.1875 92.3125 C27.22706775 97.03053826 26.43190448 100.45705124 25 105 C35.00479305 110.89479779 35.00479305 110.89479779 46 112 C49.02765019 108.53982835 50.92017241 105.54184934 52.3125 101.1875 C53.52459745 97.47368979 55.37998307 95.43778304 58.0625 92.625 C62.60783858 87.2600102 62.93648934 82.51006591 63.41870117 75.76538086 C64.03769093 67.13476596 65.64947992 58.35052008 72 52 C77.875 52.875 77.875 52.875 79 54 C79.23192865 55.51469448 79.41215238 57.03754562 79.5625 58.5625 C79.68818359 59.80193359 79.68818359 59.80193359 79.81640625 61.06640625 C79.87699219 61.70449219 79.93757813 62.34257812 80 63 C80.26554687 62.30132812 80.53109375 61.60265625 80.8046875 60.8828125 C81.15789062 59.97273438 81.51109375 59.06265625 81.875 58.125 C82.22304688 57.22007812 82.57109375 56.31515625 82.9296875 55.3828125 C84 53 84 53 86 51 C88.4375 50.625 88.4375 50.625 91 51 C92.875 52.5 92.875 52.5 94 55 C93.94182453 57.77126779 93.50320133 60.25526545 93 63 C93.5775 62.030625 94.155 61.06125 94.75 60.0625 C97 57 97 57 98.9375 55.875 C102.25414493 56.07600878 103.70235558 57.70235558 106 60 C108.61585492 64.28048987 108.11748453 68.28821823 107 73 C105.3212821 78.63280646 102.69623626 83.57653734 99.70385742 88.59814453 C95.22650026 96.13637596 92.60144145 102.8570303 90.94921875 111.4765625 C89.90983462 115.33468796 88.46606942 117.87346112 86 121 C85.29875 121.165 84.5975 121.33 83.875 121.5 C83.25625 121.665 82.6375 121.83 82 122 C81.71640625 122.86882812 81.4328125 123.73765625 81.140625 124.6328125 C77.73569469 134.68435334 68.68747474 145.77501516 59.5625 151.25 C46.71275131 157.56215725 35.236182 160.55557824 21 156 C20.97246169 157.5207267 20.95336625 159.04160674 20.9375 160.5625 C20.92009766 161.83287109 20.92009766 161.83287109 20.90234375 163.12890625 C20.93838383 166.0303682 20.93838383 166.0303682 21.49609375 168.9765625 C22.39838015 174.8706983 22.14366918 180.8663672 22.125 186.8125 C22.12886719 188.03259766 22.13273438 189.25269531 22.13671875 190.50976562 C22.13011633 196.65331791 21.92770121 202.66386494 21.23144531 208.76733398 C19.18580462 228.50086151 21.23965592 251.11824102 34 267 C36.11836873 269.58645637 38.26688971 272.14474104 40.4375 274.6875 C40.97503906 275.317771 41.51257813 275.94804199 42.06640625 276.59741211 C45.29574393 280.29525727 48.65654668 283.56627001 52.4675293 286.66381836 C56.46033326 290.14519738 58.73835857 294.23571167 59.1640625 299.546875 C58.1875702 314.14775987 50.96191515 329.42647095 40.4375 339.4375 C35.73157116 342.45412105 31.47572244 343.61515319 25.9609375 342.73828125 C21.45659409 341.04242287 19.09424177 336.91403202 16.80078125 332.90234375 C15.80676045 329.29962446 16.11700601 326.30076202 16.3840332 322.59960938 C17.22688805 313.55548323 17.22688805 313.55548323 13.734375 305.57421875 C10.93968169 303.11204911 8.09144887 301.06930991 5 299 C3.2901316 297.3776851 1.62132168 295.71081021 0 294 C-0.71800781 293.24460937 -1.43601563 292.48921875 -2.17578125 291.7109375 C-7.60191762 285.77889079 -12.44524268 279.62256126 -17 273 C-17.62003906 272.11441406 -18.24007812 271.22882813 -18.87890625 270.31640625 C-26.23847202 259.36448225 -29.63051779 247.84914336 -32 235 C-40.08294839 234.75712294 -44.86285298 236.75281357 -50.75 242.25 C-54.94562538 246.74325556 -57.73377535 251.11589965 -58.3046875 257.30078125 C-57.95755579 261.51531618 -56.66016179 264.53478792 -54.6875 268.1875 C-54.34009766 268.86240479 -53.99269531 269.53730957 -53.63476562 270.23266602 C-51.53196024 274.27325227 -49.30283115 278.23085688 -47.01953125 282.171875 C-46.5191333 283.04690674 -46.01873535 283.92193848 -45.50317383 284.82348633 C-44.52234981 286.52913563 -43.52416738 288.22495359 -42.5065918 289.90893555 C-39.3664704 295.36294743 -38.00096241 299.69745904 -39 306 C-43.65911272 319.01998622 -60.80007423 331.58557428 -72.625 337.4375 C-77.89644355 339.59823304 -82.36574669 339.99516236 -87.8125 337.9375 C-90.75034302 335.33541047 -92.1955624 332.78726374 -93 329 C-93.34323693 320.81723164 -90.62516097 312.92153676 -86.1015625 306.1640625 C-84.5601882 302.90193025 -84.5601882 302.90193025 -86.578125 299.4765625 C-87.44668773 298.17768098 -88.33903427 296.89450221 -89.25 295.625 C-90.19709786 294.21169953 -91.1410268 292.79627113 -92.08203125 291.37890625 C-92.56881348 290.65719238 -93.0555957 289.93547852 -93.55712891 289.19189453 C-99.04840639 280.84998434 -104.70642584 271.8031799 -107 262 C-107.30164063 260.78957031 -107.30164063 260.78957031 -107.609375 259.5546875 C-111.04041194 244.39321345 -107.22031549 232.66581697 -99.10693359 219.71777344 C-96.28476867 215.33825151 -93.42151163 210.93554155 -90 207 C-89.34 207 -88.68 207 -88 207 C-87.7525 206.443125 -87.505 205.88625 -87.25 205.3125 C-86 203 -86 203 -83.94628906 200.87817383 C-81.41013035 197.12770029 -81.49107706 194.00101818 -81.609375 189.63671875 C-81.61786469 188.44874443 -81.61786469 188.44874443 -81.62652588 187.23677063 C-81.64882692 184.71971906 -81.69900861 182.20411757 -81.75 179.6875 C-81.77007325 177.97593209 -81.78832258 176.26434176 -81.8046875 174.55273438 C-81.84867075 170.36793515 -81.91765231 166.184213 -82 162 C-82.52166748 162.26917236 -83.04333496 162.53834473 -83.58081055 162.81567383 C-94.72407323 168.49068568 -106.54465113 171.66956454 -119.046875 168.97265625 C-129.15904168 165.64206167 -136.66900136 159.83654658 -143.8359375 152.09765625 C-145.98837227 149.73790417 -145.98837227 149.73790417 -149.5625 148.625 C-156.21189035 145.48165184 -160.01239608 137.98140588 -164 132 C-164.928125 131.9175 -165.85625 131.835 -166.8125 131.75 C-170.92218219 130.78301595 -171.55288446 129.26599987 -173.703125 125.82421875 C-175.05755993 123.91903468 -176.34564163 122.89101668 -178.25 121.5625 C-181.06439808 118.9399927 -181.45516367 118.43589459 -182 114.875 C-182 111 -182 111 -180 108 C-179.814375 106.0509375 -179.814375 106.0509375 -179.625 104.0625 C-179.23561993 100.02911023 -177.90422798 98.81054321 -175 96 C-175.020625 94.989375 -175.04125 93.97875 -175.0625 92.9375 C-175.041875 91.968125 -175.02125 90.99875 -175 90 C-173.824375 89.319375 -173.824375 89.319375 -172.625 88.625 C-169.6280337 87.16746247 -169.6280337 87.16746247 -168.91015625 83.46875 C-168.09188087 79.78486438 -167.5656795 76.09847523 -167.11401367 72.35424805 C-160.41691153 17.28617337 -160.41691153 17.28617337 -146 4 C-145.01 3.67 -144.02 3.34 -143 3 C-142.34 3.33 -141.68 3.66 -141 4 C-135.58785597 20.23643208 -139.49338404 48.39949166 -146 64 C-149.2 67 -149.2 67 -152 67 C-152.53537872 70.0601404 -153.0506887 73.12333716 -153.5625 76.1875 C-153.71396484 77.05181641 -153.86542969 77.91613281 -154.02148438 78.80664062 C-155.14441824 84.95940668 -155.14441824 84.95940668 -154 91 C-152.60985259 92.54752887 -152.60985259 92.54752887 -150.8125 93.75 C-146.54161651 97.13846954 -143.60595749 101.22718409 -141 106 C-141 106.66 -141 107.32 -141 108 C-140.27039063 108.27199219 -139.54078125 108.54398437 -138.7890625 108.82421875 C-132.43337492 111.50357724 -127.25925098 114.82457708 -124 121 C-119.3614763 123.93669398 -114.28697701 123.95592074 -109 123 C-105.8362114 121.11400256 -103.52658547 118.65470846 -101 116 C-99.51227889 114.67359805 -98.01256588 113.36049874 -96.5 112.0625 C-95.8296875 111.47597656 -95.159375 110.88945312 -94.46875 110.28515625 C-93.9840625 109.86105469 -93.499375 109.43695313 -93 109 C-93.28875 108.5153125 -93.5775 108.030625 -93.875 107.53125 C-96.72512887 102.38518398 -97.93327716 98.8796461 -97 93 C-95.29728577 90.33116892 -93.27586463 88.18726649 -91 86 C-90.43925781 85.43925781 -89.87851563 84.87851563 -89.30078125 84.30078125 C-88.87152344 83.87152344 -88.44226563 83.44226563 -88 83 C-88.92232422 81.60587891 -88.92232422 81.60587891 -89.86328125 80.18359375 C-90.67997549 78.93508417 -91.49636552 77.68637556 -92.3125 76.4375 C-92.71662109 75.82841797 -93.12074219 75.21933594 -93.53710938 74.59179688 C-101.27982976 62.69444605 -102.7658116 50.00962919 -100.31640625 36.125 C-95.90252983 19.421866 -85.05740876 6.22052617 -70.29296875 -2.62109375 C-47.59295642 -14.80677641 -21.36928043 -14.96135698 0 0 Z " fill="#DADCDD" transform="translate(199,98)"/>
<path d="M0 0 C0.07357366 4.56156685 0.05254841 8.97065951 -0.5 13.5 C-2.72043235 34.28839562 -1.56706819 58.11417736 12 75 C14.11836873 77.58645637 16.26688971 80.14474104 18.4375 82.6875 C18.97503906 83.317771 19.51257813 83.94804199 20.06640625 84.59741211 C23.29574393 88.29525727 26.65654668 91.56627001 30.4675293 94.66381836 C34.46033326 98.14519738 36.73835857 102.23571167 37.1640625 107.546875 C36.1875702 122.14775987 28.96191515 137.42647095 18.4375 147.4375 C13.73157116 150.45412105 9.47572244 151.61515319 3.9609375 150.73828125 C-0.54340591 149.04242287 -2.90575823 144.91403202 -5.19921875 140.90234375 C-6.19323955 137.29962446 -5.88299399 134.30076202 -5.6159668 130.59960938 C-4.77311195 121.55548323 -4.77311195 121.55548323 -8.265625 113.57421875 C-11.06031831 111.11204911 -13.90855113 109.06930991 -17 107 C-18.7098684 105.3776851 -20.37867832 103.71081021 -22 102 C-22.71800781 101.24460937 -23.43601562 100.48921875 -24.17578125 99.7109375 C-29.60191762 93.77889079 -34.44524268 87.62256126 -39 81 C-39.62003906 80.11441406 -40.24007812 79.22882813 -40.87890625 78.31640625 C-48.23847202 67.36448225 -51.63051779 55.84914336 -54 43 C-62.08294839 42.75712294 -66.86285298 44.75281357 -72.75 50.25 C-76.94562538 54.74325556 -79.73377535 59.11589965 -80.3046875 65.30078125 C-79.95755579 69.51531618 -78.66016179 72.53478792 -76.6875 76.1875 C-76.34009766 76.86240479 -75.99269531 77.53730957 -75.63476562 78.23266602 C-73.53196024 82.27325227 -71.30283115 86.23085688 -69.01953125 90.171875 C-68.5191333 91.04690674 -68.01873535 91.92193848 -67.50317383 92.82348633 C-66.52234981 94.52913563 -65.52416738 96.22495359 -64.5065918 97.90893555 C-61.3664704 103.36294743 -60.00096241 107.69745904 -61 114 C-65.65911272 127.01998622 -82.80007423 139.58557428 -94.625 145.4375 C-99.89644355 147.59823304 -104.36574669 147.99516236 -109.8125 145.9375 C-112.75034302 143.33541047 -114.1955624 140.78726374 -115 137 C-115.34323693 128.81723164 -112.62516097 120.92153676 -108.1015625 114.1640625 C-106.5601882 110.90193025 -106.5601882 110.90193025 -108.578125 107.4765625 C-109.44668773 106.17768098 -110.33903427 104.89450221 -111.25 103.625 C-112.19709786 102.21169953 -113.1410268 100.79627113 -114.08203125 99.37890625 C-114.81220459 98.29633545 -114.81220459 98.29633545 -115.55712891 97.19189453 C-121.04840639 88.84998434 -126.70642584 79.8031799 -129 70 C-129.20109375 69.19304687 -129.4021875 68.38609375 -129.609375 67.5546875 C-133.04041194 52.39321345 -129.22031549 40.66581697 -121.10693359 27.71777344 C-118.28476867 23.33825151 -115.42151163 18.93554155 -112 15 C-111.34 15 -110.68 15 -110 15 C-109.7525 14.443125 -109.505 13.88625 -109.25 13.3125 C-107.78414946 10.6006765 -105.94544301 8.3847366 -104 6 C-103.67 5.34 -103.34 4.68 -103 4 C-100.39787935 5.02192374 -97.82600051 6.07777627 -95.2734375 7.21875 C-94.31695312 7.6415625 -93.36046875 8.064375 -92.375 8.5 C-91.43398437 8.9228125 -90.49296875 9.345625 -89.5234375 9.78125 C-79.7975974 13.14539868 -69.90017058 13.44082326 -59.6875 13.4375 C-58.63743774 13.43910126 -58.63743774 13.43910126 -57.56616211 13.44073486 C-37.54612757 13.3968962 -17.76498172 0 0 0 Z " fill="#DADBDD" transform="translate(221,290)"/>
<path d="M0 0 C10.98051377 -0.43417848 19.7652031 3.25087709 28.25 10.19140625 C30.63454069 12.90743017 31.22403761 13.74139145 31.4375 17.44140625 C31.3446875 18.80265625 31.3446875 18.80265625 31.25 20.19140625 C31.745 19.86140625 32.24 19.53140625 32.75 19.19140625 C36.2734074 17.78204329 39.54214458 17.61876449 43.25 18.19140625 C48.04678945 20.58980098 50.88683712 23.3741896 53.25 28.19140625 C53.90154236 32.40080914 54.17425114 35.9116739 51.625 39.44140625 C51.17125 40.01890625 50.7175 40.59640625 50.25 41.19140625 C50.85968047 42.87975217 51.53837557 44.54343389 52.25 46.19140625 C52.71352822 51.05845256 52.76002609 53.20778451 50.5 57.56640625 C47.230326 61.38102591 45.27391076 61.96020059 40.375 63.06640625 C36.27417249 64.08970399 33.411141 65.25080997 30.25 68.19140625 C29.48375704 70.43275142 29.48375704 70.43275142 28.9375 72.94140625 C27.34114781 79.33626088 23.52829281 82.50371009 18.25 86.19140625 C8.66462965 91.516612 -4.67856391 93.01985096 -15.3125 90.25390625 C-26.29273261 86.06252714 -33.40109797 75.50542975 -38.125 65.25390625 C-39.75 61.50847942 -39.75 61.50847942 -39.75 59.19140625 C-40.45125 59.33578125 -41.1525 59.48015625 -41.875 59.62890625 C-45.77747773 59.03505094 -47.18004073 57.43252441 -49.58203125 54.39453125 C-51.67909959 50.4388572 -51.41389562 46.52885765 -50.75 42.19140625 C-50.09588315 40.5197743 -49.43346682 38.85125423 -48.75 37.19140625 C-49.38040043 35.84054818 -50.05251417 34.50887949 -50.75 33.19140625 C-51.45830832 28.58740215 -50.88592985 25.84457196 -48.3125 22.06640625 C-43.75511602 16.54619467 -38.20091469 13.49939196 -31.1875 12.25390625 C-26.75599833 11.44748047 -24.23289891 9.5221829 -20.78515625 6.71875 C-14.46063448 1.97232387 -7.75313462 0.53963579 0 0 Z " fill="#F9BF76" transform="translate(161.75,102.80859375)"/>
<path d="M0 0 C13.50735403 10.64486841 23.10143758 24.83159179 26 42 C27.29506517 56.43523861 24.06603438 68.06226911 16 80 C15.34 80.99 14.68 81.98 14 83 C13.02933594 82.83628906 12.05867188 82.67257813 11.05859375 82.50390625 C6.71723112 81.88371159 2.44002229 81.88873583 -1.9375 81.9375 C-3.10635742 81.94426758 -3.10635742 81.94426758 -4.29882812 81.95117188 C-6.19925268 81.96283092 -8.09963706 81.98076123 -10 82 C-9.70709159 77.74810374 -9.23572931 74.24093238 -6.14453125 71.13671875 C-2.47482403 68.5912936 0.94331266 66.8340899 5.3125 65.875 C9.22396059 64.94685681 10.56762167 64.11344426 13 61 C14.58263451 57.83473098 14.30634467 54.45636703 14 51 C13.4121875 49.63875 13.4121875 49.63875 12.8125 48.25 C12.4103125 47.13625 12.4103125 47.13625 12 46 C12.45375 45.4225 12.9075 44.845 13.375 44.25 C15.55997015 41.22465672 15.54292857 38.98823578 15.421875 35.3203125 C14.57615741 30.66886576 11.81957712 27.44311289 8.1875 24.5625 C2.78555471 23.17342835 -2.03809826 23.51904913 -7 26 C-6.896875 24.948125 -6.79375 23.89625 -6.6875 22.8125 C-6.65855114 18.95894826 -6.65855114 18.95894826 -9 16.375 C-19.70010388 7.90408443 -28.6195808 4.80704424 -42.34765625 6.24609375 C-49.11208155 7.43692724 -57.76711316 10.52232538 -62.49609375 15.609375 C-64.67413901 17.62335971 -66.79961263 17.76894117 -69.6875 18.3125 C-76.78141432 19.95286033 -81.39619697 22.82661506 -86 28.4375 C-87.76750089 32.96672102 -87.44819605 36.70521141 -85.875 41.25 C-85.58625 42.1575 -85.2975 43.065 -85 44 C-85.66 44.99 -86.32 45.98 -87 47 C-87.66388629 51.06018879 -87.87656252 55.18892041 -86.0546875 58.953125 C-84.68954726 60.83162651 -84.68954726 60.83162651 -82 63 C-81.2059375 63.03867188 -80.411875 63.07734375 -79.59375 63.1171875 C-76.42396135 64.19606135 -76.2315387 64.90879792 -74.76171875 67.81640625 C-74.05128464 69.38998461 -73.36051219 70.97255658 -72.6875 72.5625 C-72.32849609 73.36880859 -71.96949219 74.17511719 -71.59960938 75.00585938 C-70.71591989 76.99710635 -69.85048609 78.99439974 -69 81 C-70.19496094 81.16435547 -70.19496094 81.16435547 -71.4140625 81.33203125 C-77.19198699 82.19661119 -81.83378787 83.14498803 -87 86 C-87.66 85.67 -88.32 85.34 -89 85 C-88.505 84.01 -88.505 84.01 -88 83 C-89.35168411 80.69436184 -90.74306047 78.51336457 -92.25 76.3125 C-100.78205788 63.78356328 -102.95424299 51.077766 -100.31640625 36.125 C-95.90252983 19.421866 -85.05740876 6.22052617 -70.29296875 -2.62109375 C-47.59295642 -14.80677641 -21.36928043 -14.96135698 0 0 Z " fill="#DBDCDE" transform="translate(199,98)"/>
<path d="M0 0 C2 0.25 2 0.25 4 1 C9.41214403 17.23643208 5.50661596 45.39949166 -1 61 C-4.2 64 -4.2 64 -7 64 C-7.53537872 67.0601404 -8.0506887 70.12333716 -8.5625 73.1875 C-8.71396484 74.05181641 -8.86542969 74.91613281 -9.02148438 75.80664062 C-10.14441824 81.95940668 -10.14441824 81.95940668 -9 88 C-7.60985259 89.54752887 -7.60985259 89.54752887 -5.8125 90.75 C-1.54161651 94.13846954 1.39404251 98.22718409 4 103 C4 103.66 4 104.32 4 105 C4.72960938 105.27328125 5.45921875 105.5465625 6.2109375 105.828125 C8.87828365 106.94885868 11.1902249 108.193752 13.625 109.75 C14.38039062 110.21921875 15.13578125 110.6884375 15.9140625 111.171875 C18.64338706 113.56386732 19.81940916 115.56864245 21 119 C18.52141525 129.07957797 10.19832229 137.88425531 2.25 144.1875 C-1 146 -1 146 -3.625 146.125 C-10.46221187 142.88632069 -14.90542959 135.14185561 -19 129 C-19.928125 128.9175 -20.85625 128.835 -21.8125 128.75 C-25.92218219 127.78301595 -26.55288446 126.26599987 -28.703125 122.82421875 C-30.05755993 120.91903468 -31.34564163 119.89101668 -33.25 118.5625 C-36.06439808 115.9399927 -36.45516367 115.43589459 -37 111.875 C-37 108 -37 108 -35 105 C-34.814375 103.0509375 -34.814375 103.0509375 -34.625 101.0625 C-34.23561993 97.02911023 -32.90422798 95.81054321 -30 93 C-30.020625 91.989375 -30.04125 90.97875 -30.0625 89.9375 C-30.041875 88.968125 -30.02125 87.99875 -30 87 C-28.824375 86.319375 -28.824375 86.319375 -27.625 85.625 C-24.6280337 84.16746247 -24.6280337 84.16746247 -23.91015625 80.46875 C-23.09188087 76.78486438 -22.5656795 73.09847523 -22.11401367 69.35424805 C-15.57346553 15.57346553 -15.57346553 15.57346553 0 0 Z " fill="#42494C" transform="translate(54,101)"/>
<path d="M0 0 C2.53559482 2.07145204 4.67429713 4.30462191 6.8671875 6.734375 C11.5103115 11.66663127 16.71247453 13.63747752 23.40234375 14.203125 C34.95313843 14.41669902 46.04538706 12.72624655 55 5 C55.74765625 4.12085938 56.4953125 3.24171875 57.265625 2.3359375 C60.72115838 -0.6160753 63.34632039 -0.69543772 67.6875 -0.5 C68.39575928 -0.48155029 69.10401855 -0.46310059 69.83374023 -0.4440918 C78.36741912 -0.09115509 86.8188594 1.6822596 93 8 C95.3623613 11.86568213 96.03086431 14.1049349 95.875 18.625 C92.97171148 23.85091933 88.6040999 25.36730948 83 27 C79.85284288 27.35168804 77.17671186 27.26038622 74 27 C73.9071875 28.3303125 73.9071875 28.3303125 73.8125 29.6875 C72.80546264 33.79311386 71.21120491 35.32399591 68 38 C62.11242944 39.96252352 54.39490259 40.22623453 48.5234375 38.10546875 C46.625 37 46.625 37 44 35 C43.401875 35.94875 42.80375 36.8975 42.1875 37.875 C40 41 40 41 37 43 C30.0832626 43.97346674 24.27613391 43.62164582 18.55859375 39.4375 C16.46674918 37.50817969 15.12822157 35.60901239 14 33 C14 32.34 14 31.68 14 31 C12.906875 31.639375 11.81375 32.27875 10.6875 32.9375 C5.19531683 36.14990902 0.28373829 36.68301503 -6 36 C-9.5625 34.4375 -9.5625 34.4375 -12 32 C-12.875 28.25 -12.875 28.25 -13 25 C-13.59167969 24.95101562 -14.18335937 24.90203125 -14.79296875 24.8515625 C-23.11441915 24.06421483 -23.11441915 24.06421483 -27 22 C-28.641214 18.71757201 -28.62752867 15.5346513 -28 12 C-25.47438184 6.54645281 -21.05917274 4.30174531 -15.6875 2.0625 C-4.64142045 -1.66132023 -4.64142045 -1.66132023 0 0 Z " fill="#3784A4" transform="translate(130,179)"/>
<path d="M0 0 C0.66 0 1.32 0 2 0 C2.27674561 0.52843506 2.55349121 1.05687012 2.83862305 1.60131836 C4.12044195 4.0473116 5.40396316 6.49240784 6.6875 8.9375 C7.12255859 9.76830078 7.55761719 10.59910156 8.00585938 11.45507812 C10.57730911 16.35035652 13.2172914 21.18160234 16.02587891 25.94555664 C17.79308063 29.67262494 17.93289054 33.01781051 17 37 C11.18775065 50.64615065 -5.4833355 63.87059865 -18.8359375 69.34375 C-23.41150567 70.73128692 -27.28258026 70.64880301 -31.8125 68.9375 C-34.75034302 66.33541047 -36.1955624 63.78726374 -37 60 C-37.34355119 51.80973962 -34.61810892 43.91909939 -30.09765625 37.15234375 C-28.5473263 33.88602412 -28.5473263 33.88602412 -30.67578125 30.45703125 C-31.53093154 29.22534967 -32.41099544 28.01066988 -33.3125 26.8125 C-38 20.29639738 -38 20.29639738 -38 17 C-37.00033203 16.85304688 -37.00033203 16.85304688 -35.98046875 16.703125 C-22.82105796 14.56817164 -9.18828984 10.07747918 0 0 Z " fill="#3F4649" transform="translate(143,367)"/>
<path d="M0 0 C2.5625 0.375 2.5625 0.375 4.4375 1.875 C6.12894129 5.63375841 5.29937626 8.35567496 4.5625 12.375 C5.14 11.405625 5.7175 10.43625 6.3125 9.4375 C8.5625 6.375 8.5625 6.375 10.5 5.25 C13.81664493 5.45100878 15.26485558 7.07735558 17.5625 9.375 C20.17835492 13.65548987 19.67998453 17.66321823 18.5625 22.375 C16.8837821 28.00780646 14.25873626 32.95153734 11.26635742 37.97314453 C6.78900026 45.51137596 4.16394145 52.2320303 2.51171875 60.8515625 C1.46161219 64.74948892 0.12605251 67.26511662 -2.4375 70.375 C-6.73809003 72.3359344 -11.14459908 70.80160427 -15.4375 69.375 C-22.50863706 66.22111216 -29.21718331 62.17867587 -34.4375 56.375 C-34.4375 55.715 -34.4375 55.055 -34.4375 54.375 C-35.0975 54.375 -35.7575 54.375 -36.4375 54.375 C-35.96132405 49.35283177 -34.48816382 46.54470581 -31.4375 42.5625 C-30.715625 41.60730469 -29.99375 40.65210938 -29.25 39.66796875 C-27.4375 37.375 -27.4375 37.375 -26.4375 36.375 C-26.22366185 34.41658134 -26.01601473 32.45725641 -25.84228516 30.49487305 C-23.90836824 8.84586824 -23.90836824 8.84586824 -16.4375 1.375 C-10.5625 2.25 -10.5625 2.25 -9.4375 3.375 C-9.20557135 4.88969448 -9.02534762 6.41254562 -8.875 7.9375 C-8.74931641 9.17693359 -8.74931641 9.17693359 -8.62109375 10.44140625 C-8.56050781 11.07949219 -8.49992187 11.71757812 -8.4375 12.375 C-8.17195313 11.67632812 -7.90640625 10.97765625 -7.6328125 10.2578125 C-7.27960938 9.34773437 -6.92640625 8.43765625 -6.5625 7.5 C-6.21445312 6.59507812 -5.86640625 5.69015625 -5.5078125 4.7578125 C-4.13798669 1.70820029 -3.37200854 0.51877054 0 0 Z " fill="#43494D" transform="translate(287.4375,148.625)"/>
<path d="M0 0 C3.89111898 1.52147124 5.68024246 3.8459273 8.1875 7.125 C11.17399893 10.89508528 14.15355803 14.19092739 17.8125 17.3125 C22.81037259 21.61258933 26.61111909 25.64824773 27.1640625 32.546875 C26.1875702 47.14775987 18.96191515 62.42647095 8.4375 72.4375 C3.73157116 75.45412105 -0.52427756 76.61515319 -6.0390625 75.73828125 C-10.54340591 74.04242287 -12.90575823 69.91403202 -15.19921875 65.90234375 C-16.19327646 62.29949068 -15.88274507 59.30020639 -15.61645508 55.59887695 C-14.78284399 46.49535901 -14.78284399 46.49535901 -18.3359375 38.46875 C-21.11234424 35.99111669 -23.82596391 33.93381939 -27 32 C-27.99 31.34 -28.98 30.68 -30 30 C-30 29.01 -30 28.02 -30 27 C-29.41734375 26.88785156 -28.8346875 26.77570313 -28.234375 26.66015625 C-18.29228801 24.26842777 -9.75714177 18.5320801 -4.375 9.75 C-2.66871531 6.58561748 -1.29562593 3.35198634 0 0 Z " fill="#42484B" transform="translate(231,365)"/>
<path d="M0 0 C10.3497348 2.56807634 18.32013304 9.90262722 26.1328125 16.77734375 C27.16148437 17.65712891 27.16148437 17.65712891 28.2109375 18.5546875 C30.20830743 20.27091502 32.17363919 22.0175863 34.1328125 23.77734375 C34.61363281 24.20772949 35.09445313 24.63811523 35.58984375 25.08154297 C41.16017748 30.08433965 46.6400458 35.06711287 51.5703125 40.71484375 C59.73057712 50.02802649 69.11584193 58.24707548 78.92578125 65.77734375 C82.19718254 68.74187023 83.95813264 71.37990484 84.5078125 75.77734375 C84.0765602 79.22736218 83.26129735 81.04072038 81.1328125 83.77734375 C78.7310263 85.5786834 76.86613742 85.82349905 73.8828125 86.33984375 C63.67275078 84.80833449 55.80284356 71.88409636 49.7578125 64.27734375 C45.34733542 58.84205702 40.44278537 54.3131085 35.1328125 49.77734375 C29.82694963 45.23094762 24.73394294 40.53749422 19.7890625 35.6015625 C19.13450073 34.95032913 18.47993896 34.29909576 17.80554199 33.62812805 C16.43970093 32.26730335 15.07516822 30.90516427 13.71191406 29.54174805 C11.61541981 27.44746944 9.51101436 25.36135373 7.40625 23.27539062 C6.07503327 21.94710305 4.7442865 20.61834426 3.4140625 19.2890625 C2.78294556 18.66513107 2.15182861 18.04119965 1.50158691 17.39836121 C-2.8671875 13.00620287 -2.8671875 13.00620287 -2.8671875 10.77734375 C-3.5271875 10.77734375 -4.1871875 10.77734375 -4.8671875 10.77734375 C-6.40375712 8.33690965 -6.88808457 7.06990273 -6.6796875 4.15234375 C-5.42587535 0.4873544 -3.78280189 -0.29375982 0 0 Z " fill="#808A8F" transform="translate(205.8671875,46.22265625)"/>
<path d="M0 0 C2 2 2 2 2.5 4.5625 C1.77898371 9.51948703 -0.75876302 13.22135585 -4 17 C-4.66 17 -5.32 17 -6 17 C-6 17.66 -6 18.32 -6 19 C-6.66 19 -7.32 19 -8 19 C-8 19.66 -8 20.32 -8 21 C-17.94335626 28.77069377 -29.56107794 34.43798881 -42.1875 33.4375 C-51.76708583 33.13294987 -58.09867882 37.26212697 -65.80615234 42.51074219 C-68.07247282 44.04919699 -70.36736388 45.53337617 -72.67578125 47.0078125 C-75.59251356 48.8720049 -78.49788691 50.75114057 -81.390625 52.65234375 C-82.01654541 53.05888184 -82.64246582 53.46541992 -83.28735352 53.88427734 C-84.75477715 54.84024684 -86.21240292 55.81122714 -87.66796875 56.78515625 C-91.66892698 58.86940752 -95.61645203 58.77617628 -100 58 C-103.39351067 55.33367019 -103.89326125 53.74717122 -104.5 49.5 C-103.9062704 45.34389277 -102.85645371 44.01991914 -100 41 C-97.30541992 39.42602539 -97.30541992 39.42602539 -94.23046875 38.09765625 C-93.10157227 37.60289795 -91.97267578 37.10813965 -90.80957031 36.59838867 C-89.61428711 36.09154541 -88.41900391 35.58470215 -87.1875 35.0625 C-85.95236708 34.52744564 -84.71766759 33.99138962 -83.48339844 33.4543457 C-76.14350385 30.27493862 -68.75090268 27.2507066 -61.30078125 24.33984375 C-56.52162042 22.39990036 -51.87488154 20.19491097 -47.21484375 17.98828125 C-35.75208583 12.56207418 -24.2218588 7.2207327 -12.5 2.375 C-11.3759375 1.90835937 -10.251875 1.44171875 -9.09375 0.9609375 C-5.84222655 -0.04900539 -3.38209764 -0.3401535 0 0 Z " fill="#A1A8AB" transform="translate(175,24)"/>
<path d="M0 0 C3 1 3 1 4.6875 3.3125 C9.30975536 8.68431028 16.09931298 10.94024217 23 12 C27.83672516 12.23374374 32.65913117 12.18895457 37.5 12.125 C39.4490625 12.11146484 39.4490625 12.11146484 41.4375 12.09765625 C44.62519299 12.07421733 47.8124982 12.0414044 51 12 C50.67644531 13.08152344 50.35289062 14.16304688 50.01953125 15.27734375 C48.58255741 20.52422524 48.11305813 24.2602294 50.625 29.1875 C51.07875 30.115625 51.5325 31.04375 52 32 C49.0110438 40.0122805 40.78875372 43.2794749 33.5949707 46.63989258 C26.54414656 49.81345155 19.67823214 51.33838362 12 52 C1.75275124 34.49159802 1.75275124 34.49159802 0 27 C-0.20109375 26.19304687 -0.4021875 25.38609375 -0.609375 24.5546875 C-2.57496311 15.86891303 -2.48502642 8.54227831 0 0 Z " fill="#DADBDD" transform="translate(92,333)"/>
<path d="M0 0 C0.30292969 0.90621094 0.60585937 1.81242187 0.91796875 2.74609375 C1.33691406 3.96425781 1.75585938 5.18242187 2.1875 6.4375 C2.40510986 7.08058105 2.62271973 7.72366211 2.84692383 8.38623047 C4.20387033 12.24454785 5.79807939 15.32735574 8.1875 18.625 C9.44140625 20.71484375 9.44140625 20.71484375 10 23 C8.73415108 27.48588855 6.56044487 31.13162226 4 35 C3.61070312 35.61101562 3.22140625 36.22203125 2.8203125 36.8515625 C-1.56473553 42.83699302 -9.03652598 47.62896587 -16 50 C-18.8125 50.125 -18.8125 50.125 -21 50 C-21.33 50.66 -21.66 51.32 -22 52 C-46.74299938 22.28500311 -46.74299938 22.28500311 -49 11 C-48.0925 11.165 -47.185 11.33 -46.25 11.5 C-32.89798559 13.36495748 -18.22683621 11.65779554 -7.0078125 3.5625 C-2.93927557 0 -2.93927557 0 0 0 Z " fill="#D9DADC" transform="translate(222,342)"/>
<path d="M0 0 C0 4.62 0 9.24 0 14 C-17.76637732 23.54942781 -36.81722101 28.58126664 -57.03442383 28.39111328 C-59.06594614 28.37497262 -61.09548866 28.39110898 -63.12695312 28.41015625 C-74.99975018 28.43155594 -86.33161928 27.01453243 -96.875 21.3125 C-97.78185547 20.83200195 -97.78185547 20.83200195 -98.70703125 20.34179688 C-100.14625893 19.57649327 -101.57456852 18.79070287 -103 18 C-103 14.37 -103 10.74 -103 7 C-102.34 6.67 -101.68 6.34 -101 6 C-99.04085574 6.7092019 -97.08371212 7.42536463 -95.14550781 8.18994141 C-68.47249877 18.26061096 -34.09065305 12.59034372 -8 3 C-1.86111111 0 -1.86111111 0 0 0 Z " fill="#E65049" transform="translate(221,276)"/>
<path d="M0 0 C-0.33 0.66 -0.66 1.32 -1 2 C-3.484375 2.74609375 -3.484375 2.74609375 -6.75 3.4375 C-8.51923828 3.82808594 -8.51923828 3.82808594 -10.32421875 4.2265625 C-12.65667929 4.71734591 -14.99238773 5.19312586 -17.33203125 5.6484375 C-32.7511398 8.8180245 -44.5384413 16.3845884 -54 29 C-55.87369597 31.91463818 -57.49192293 34.88330739 -59 38 C-59.37125 38.598125 -59.7425 39.19625 -60.125 39.8125 C-61.83431545 44.08578864 -61.3532424 47.97952195 -59.875 52.25 C-59.58625 53.1575 -59.2975 54.065 -59 55 C-59.66 55.99 -60.32 56.98 -61 58 C-61.66388629 62.06018879 -61.87656252 66.18892041 -60.0546875 69.953125 C-58.68954726 71.83162651 -58.68954726 71.83162651 -56 74 C-55.2059375 74.03867188 -54.411875 74.07734375 -53.59375 74.1171875 C-50.42396135 75.19606135 -50.2315387 75.90879792 -48.76171875 78.81640625 C-48.05128464 80.38998461 -47.36051219 81.97255658 -46.6875 83.5625 C-46.32849609 84.36880859 -45.96949219 85.17511719 -45.59960938 86.00585938 C-44.71591989 87.99710635 -43.85048609 89.99439974 -43 92 C-44.19496094 92.16435547 -44.19496094 92.16435547 -45.4140625 92.33203125 C-51.19198699 93.19661119 -55.83378787 94.14498803 -61 97 C-61.66 96.67 -62.32 96.34 -63 96 C-62.505 95.01 -62.505 95.01 -62 94 C-63.35168411 91.69436184 -64.74306047 89.51336457 -66.25 87.3125 C-74.78205788 74.78356328 -76.95424299 62.077766 -74.31640625 47.125 C-69.90252983 30.421866 -59.05740876 17.22052617 -44.29296875 8.37890625 C-29.68094917 0.5349707 -16.19589956 -0.59193135 0 0 Z " fill="#D0D1D4" transform="translate(173,87)"/>
<path d="M0 0 C1.32 0.33 2.64 0.66 4 1 C3.95359375 1.64324219 3.9071875 2.28648437 3.859375 2.94921875 C3.5777243 10.00054531 4.84343165 15.68515977 7.125 22.34765625 C8 25 8 25 8 27 C15.49241834 22.36183626 21.73610172 17.48437313 26.6875 10.125 C29 7 29 7 30.94140625 6.27734375 C33.76288654 5.89722022 36.22877393 6.4331583 39 7 C37.33400669 18.59947845 27.10882194 27.89117806 19.1875 35.8125 C8.38815358 43.22381617 -3.80271101 45.69954817 -16.6953125 43.55078125 C-18.48141232 43.09945495 -20.2454062 42.56147002 -22 42 C-22.14715692 49.3905476 -21.70776992 56.64424835 -21 64 C-22.31127261 64.6690776 -23.6240545 65.33519806 -24.9375 66 C-25.66839844 66.37125 -26.39929688 66.7425 -27.15234375 67.125 C-29 68 -29 68 -30 68 C-30.03738281 66.76507813 -30.07476562 65.53015625 -30.11328125 64.2578125 C-30.58465708 51.36670816 -31.61325542 38.50490306 -35 26 C-34.04480469 26.5053125 -33.08960938 27.010625 -32.10546875 27.53125 C-19.93482949 33.74143723 -11.37705286 33.89793021 2 31 C1.71125 30.30777344 1.4225 29.61554688 1.125 28.90234375 C-1.98051321 20.71802247 -4.53636449 10.04080703 -0.9765625 1.5625 C-0.65429688 1.046875 -0.33203125 0.53125 0 0 Z " fill="#BBBDC0" transform="translate(242,212)"/>
<path d="M0 0 C2 0.25 2 0.25 4 1 C9.41214403 17.23643208 5.50661596 45.39949166 -1 61 C-4.2 64 -4.2 64 -7 64 C-7.33 65.65 -7.66 67.3 -8 69 C-9.79232337 68.69128878 -11.58384321 68.37790936 -13.375 68.0625 C-14.37273438 67.88847656 -15.37046875 67.71445313 -16.3984375 67.53515625 C-19 67 -19 67 -21 66 C-20.50372914 57.20907852 -18.84031616 48.86814345 -16.8125 40.3125 C-16.65693634 39.65280212 -16.50137268 38.99310425 -16.34109497 38.31341553 C-9.50752293 9.50752293 -9.50752293 9.50752293 0 0 Z " fill="#A2A8AC" transform="translate(54,101)"/>
<path d="M0 0 C2.97010718 1.50199337 4.83746456 3.62168324 7.1171875 6.0390625 C11.61472795 10.70607769 16.33694502 14.85102404 21.40234375 18.90625 C24.01739339 21.00907342 26.58207587 23.15311369 29.1171875 25.3515625 C29.83003906 25.96644531 30.54289062 26.58132812 31.27734375 27.21484375 C33.97870748 29.98745224 34.9588626 32.13830843 35.3671875 35.9765625 C35.00797523 39.49684275 34.21848226 41.25704067 32.0546875 44.0390625 C29.6529013 45.84040215 27.78801242 46.0852178 24.8046875 46.6015625 C14.53671533 45.06136667 6.59473072 31.97456988 0.4921875 24.3515625 C-3.00798079 20.02496558 -6.57793029 16.47721445 -10.9453125 13.0390625 C-10.44048992 8.74430327 -9.17614046 6.70174421 -6.1328125 3.6640625 C-5.10220703 2.60058594 -5.10220703 2.60058594 -4.05078125 1.515625 C-1.9453125 0.0390625 -1.9453125 0.0390625 0 0 Z " fill="#C9443E" transform="translate(254.9453125,85.9609375)"/>
<path d="M0 0 C2.76276177 0.52268466 5.3260876 1.10869587 8 2 C8 2.66 8 3.32 8 4 C10.31 4 12.62 4 15 4 C14.34 4.33 13.68 4.66 13 5 C13.15855469 5.51433594 13.31710938 6.02867187 13.48046875 6.55859375 C15.50231697 16.0597602 14.69721805 26.45725728 10 35 C7.51968031 38.51220842 4.86430708 41.79503503 2 45 C-5.98558176 41.6188707 -11.82973814 37.04572446 -18 31 C-18.88365234 30.18402344 -18.88365234 30.18402344 -19.78515625 29.3515625 C-21 28 -21 28 -21 26 C-19.53869848 24.80520634 -18.02863677 23.6698408 -16.5 22.5625 C-8.88447283 16.62130859 -3.24329408 9.1217646 0 0 Z " fill="#DADCDE" transform="translate(74,220)"/>
<path d="M0 0 C0.99 0 1.98 0 3 0 C6.84062704 8.16133246 6.84062704 8.16133246 6 12 C3.52201162 13.81739823 1.25826421 15.20502459 -1.4375 16.625 C-2.9954856 17.48990382 -4.55141728 18.35851589 -6.10546875 19.23046875 C-6.91161621 19.6795459 -7.71776367 20.12862305 -8.54833984 20.59130859 C-12.54710037 22.88894335 -16.39659029 25.40587725 -20.25 27.9375 C-22.26044281 29.25625448 -24.27096763 30.57462576 -26.28735352 31.88427734 C-27.75477715 32.84024684 -29.21240292 33.81122714 -30.66796875 34.78515625 C-34.66892698 36.86940752 -38.61645203 36.77617628 -43 36 C-46.39351067 33.33367019 -46.89326125 31.74717122 -47.5 27.5 C-46.9062704 23.34389277 -45.85645371 22.01991914 -43 19 C-40.30541992 17.42602539 -40.30541992 17.42602539 -37.23046875 16.09765625 C-36.10044434 15.60241455 -34.97041992 15.10717285 -33.80615234 14.59692383 C-32.61199707 14.09056396 -31.4178418 13.5842041 -30.1875 13.0625 C-28.96261953 12.53184343 -27.73817336 12.00018327 -26.51416016 11.4675293 C-18.87461258 8.167821 -11.19744954 4.97384965 -3.4296875 1.98828125 C-1.09079044 1.22031537 -1.09079044 1.22031537 0 0 Z " fill="#CD463E" transform="translate(118,46)"/>
<path d="M0 0 C3.59575309 3.10542312 6.34491631 5.75788629 7.09765625 10.62109375 C7.27897787 15.42217503 6.73279775 17.57871195 3.75 21.375 C4.35968047 23.06334592 5.03837557 24.72702764 5.75 26.375 C6.21352822 31.24204631 6.26002609 33.39137826 4 37.75 C0.80617978 41.4761236 0.80617978 41.4761236 -2.25 42.375 C-5.5 42.5 -5.5 42.5 -8.25 42.375 C-7.76466797 41.54162109 -7.76466797 41.54162109 -7.26953125 40.69140625 C-6.11254553 38.06269924 -5.95044787 36.17397869 -5.9375 33.3125 C-5.92074219 32.45527344 -5.90398437 31.59804687 -5.88671875 30.71484375 C-6.32159493 27.91386709 -7.00426372 27.05260252 -9.25 25.375 C-11.75 24.70833333 -11.75 24.70833333 -14.25 25.375 C-16.1124438 27.78358714 -16.1124438 27.78358714 -17.25 30.375 C-19.98598138 25.6037154 -19.92889977 20.76072652 -20.25 15.375 C-20.32734375 14.54742187 -20.4046875 13.71984375 -20.484375 12.8671875 C-20.73355143 8.78346274 -20.5828089 6.21750885 -18 2.9375 C-12.49546667 -2.19172424 -6.89429899 -3.44714949 0 0 Z " fill="#C8443C" transform="translate(208.25,122.625)"/>
<path d="M0 0 C1.65 0 3.3 0 5 0 C6.65778258 5.05886827 7.32170862 9.59520778 7.25 14.9375 C7.24613281 15.63681641 7.24226563 16.33613281 7.23828125 17.05664062 C7.15505318 22.01795841 6.5639127 26.30826191 5 31 C15.02957342 28.85776102 21.78413967 26.63313935 28 18 C29.32350658 14.78734084 29.32350658 14.78734084 30 12 C30.33 12 30.66 12 31 12 C31 19.26 31 26.52 31 34 C17.11895753 41.71169026 5.63937071 44.66027825 -10 41 C-10 37 -10 37 -8.828125 35.46484375 C-8.30734375 34.96082031 -7.7865625 34.45679688 -7.25 33.9375 C1.44912415 24.10460375 0.45999764 12.3304923 0 0 Z " fill="#BABCBF" transform="translate(87,225)"/>
<path d="M0 0 C3 1 3 1 4.6875 3.3125 C9.30975536 8.68431028 16.09931298 10.94024217 23 12 C27.83672516 12.23374374 32.65913117 12.18895457 37.5 12.125 C39.4490625 12.11146484 39.4490625 12.11146484 41.4375 12.09765625 C44.62519299 12.07421733 47.8124982 12.0414044 51 12 C50.01 15.63 49.02 19.26 48 23 C39.91571663 24.79650742 32.14005946 25.27365041 23.875 25.375 C22.35616211 25.41367187 22.35616211 25.41367187 20.80664062 25.453125 C12.72081354 25.47416814 6.19937246 23.69959658 -0.625 19.3125 C-3.52477849 14.43559982 -2.29603885 8.72496284 -1 3.4375 C-0.505 1.7359375 -0.505 1.7359375 0 0 Z " fill="#E75047" transform="translate(92,333)"/>
<path d="M0 0 C0.696553 1.95513161 1.38199565 3.91422476 2.0625 5.875 C2.44535156 6.96554687 2.82820313 8.05609375 3.22265625 9.1796875 C4 12 4 12 3 14 C-9.35613345 21.90514354 -25.88984299 29.52032237 -41 27 C-44.39363273 24.58154909 -45.65050007 21.87905585 -47 18 C-47.25652344 17.28714844 -47.51304687 16.57429688 -47.77734375 15.83984375 C-48.375 13.9375 -48.375 13.9375 -49 11 C-48.0925 11.165 -47.185 11.33 -46.25 11.5 C-32.89798559 13.36495748 -18.22683621 11.65779554 -7.0078125 3.5625 C-2.93927557 0 -2.93927557 0 0 0 Z " fill="#E6514A" transform="translate(222,342)"/>
<path d="M0 0 C0.6525053 6.26405092 -0.07623294 9.83143005 -3.69921875 14.96484375 C-5.49841211 17.77979792 -6.36126508 20.67988711 -7.3125 23.86328125 C-8 26 -8 26 -9.625 29.25 C-11.63256124 34.72516702 -11.74744336 40.20861508 -12 46 C-16.46579 46.34995969 -16.46579 46.34995969 -18.80078125 44.8203125 C-21.98628253 41.24794156 -23.40542408 38.73474721 -23.5 33.875 C-23.28725988 30.18004004 -22.40703823 27.41709285 -21 24 C-21.63040043 22.64914193 -22.30251417 21.31747324 -23 20 C-23.70830832 15.3959959 -23.13592985 12.65316571 -20.5625 8.875 C-14.95220237 2.08984005 -8.71825946 -0.79256904 0 0 Z " fill="#C8463D" transform="translate(134,116)"/>
<path d="M0 0 C0.46148437 0.36351562 0.92296875 0.72703125 1.3984375 1.1015625 C5.98369536 4.63565452 10.69151514 7.70863057 15.703125 10.60546875 C17.91773287 11.9500521 19.95599074 13.41073592 22 15 C21.01 15 20.02 15 19 15 C18.75507813 15.55945313 18.51015625 16.11890625 18.2578125 16.6953125 C14.26674828 24.00813203 7.16788359 30.77146436 0 35 C-0.66 35 -1.32 35 -2 35 C-2.65134925 33.43979133 -3.29582964 31.87671421 -3.9375 30.3125 C-4.29714844 29.44238281 -4.65679687 28.57226562 -5.02734375 27.67578125 C-7.20013807 21.69841536 -8.09596387 15.29323003 -7 9 C-5.04771847 5.60791084 -2.71661354 2.80670531 0 0 Z " fill="#DBDCDE" transform="translate(252,204)"/>
<path d="M0 0 C0.07357366 4.56156685 0.05254841 8.97065951 -0.5 13.5 C-1.46653663 22.41975232 -1.42323638 31.60930152 -0.6328125 40.546875 C-0.57077637 41.27374512 -0.50874023 42.00061523 -0.44482422 42.74951172 C-0.25963583 44.76987525 -0.04468773 46.78744579 0.171875 48.8046875 C0 52 0 52 -1.734375 53.9453125 C-4 55 -4 55 -8 55 C-9.02095399 50.33764343 -10.01891735 45.67091056 -11 41 C-11.21269531 39.989375 -11.42539063 38.97875 -11.64453125 37.9375 C-13.87724382 26.62937301 -12.46619748 17.14192791 -10 6 C-10.66 5.67 -11.32 5.34 -12 5 C-10.37750059 4.16180842 -8.75191503 3.3295884 -7.125 2.5 C-6.22007812 2.0359375 -5.31515625 1.571875 -4.3828125 1.09375 C-2 0 -2 0 0 0 Z " fill="#BFC1C4" transform="translate(221,290)"/>
<path d="M0 0 C1.9375 0.3125 1.9375 0.3125 4 1 C9.41214403 17.23643208 5.50661596 45.39949166 -1 61 C-4.2 64 -4.2 64 -7 64 C-7.33 65.65 -7.66 67.3 -8 69 C-8.66 68.67 -9.32 68.34 -10 68 C-9.20456509 55.57475817 -7.51243506 43.4485802 -5.0625 31.25 C-4.80968262 29.97817871 -4.55686523 28.70635742 -4.29638672 27.39599609 C-3.06002983 21.39819806 -1.71695506 15.57349678 0.38427734 9.81567383 C1.25201184 7.25685485 1.65724368 4.67349927 2 2 C0.02 2.99 0.02 2.99 -2 4 C-1.34 2.68 -0.68 1.36 0 0 Z " fill="#818B8F" transform="translate(54,101)"/>
<path d="M0 0 C3.03722197 2.44298288 4.84424433 4.7663665 7 8 C7.47364652 12.81540624 7.49199653 15.05114955 5.25 19.375 C1.83209501 23.36255582 0.31866245 23.8744131 -4.9375 24.375 C-8.09516598 24.29267724 -9.04689792 23.97145344 -11.875 22.25 C-15.00215758 18.93889197 -15.86822042 17.18601623 -16.375 12.625 C-15.84707718 7.5217461 -13.67932349 4.79927517 -10.25 1.125 C-6.8637956 -0.5681022 -3.64828805 -0.79058329 0 0 Z " fill="#DE4E45" transform="translate(158,233)"/>
<path d="M0 0 C3.53571429 0.53571429 3.53571429 0.53571429 5 2 C5.36760731 4.32817964 5.70241581 6.6618385 6 9 C7.10408203 8.91298828 7.10408203 8.91298828 8.23046875 8.82421875 C16.13722173 8.45864893 16.13722173 8.45864893 20.1875 11 C22.50061025 14.82859627 22.97908189 17.63382401 22 22 C20.20636089 24.8100346 18.98119065 26.50940468 16 28 C9.89534886 28.50872093 6.88047174 28.06705978 2 24 C-0.15421673 20.76867491 -0.17722889 20.20760851 0.0625 16.5625 C0.17968807 12.52602193 -0.48876271 11.16634267 -3 8 C-2.77962372 4.32706204 -2.63033454 2.63033454 0 0 Z " fill="#ED5A4B" transform="translate(136,140)"/>
<path d="M0 0 C2 2 2 2 2.5 4.5625 C1.77898371 9.51948703 -0.75876302 13.22135585 -4 17 C-4.66 17 -5.32 17 -6 17 C-6 17.66 -6 18.32 -6 19 C-6.66 19 -7.32 19 -8 19 C-8 19.66 -8 20.32 -8 21 C-17.58804935 28.49302282 -29.30532951 34.1528889 -41.5625 34.125 C-42.69816406 34.12757812 -43.83382812 34.13015625 -45.00390625 34.1328125 C-48 34 -48 34 -51 33 C-50.67 32.34 -50.34 31.68 -50 31 C-49.01 31.02320312 -48.02 31.04640625 -47 31.0703125 C-30.93977241 31.34303719 -19.00927422 27.59715479 -7.06640625 16.171875 C-3.1252503 12.02956364 -1.00611587 8.71090529 0 3 C-0.99290039 3.45886597 -0.99290039 3.45886597 -2.00585938 3.92700195 C-2.94236328 4.35972412 -3.87886719 4.79244629 -4.84375 5.23828125 C-5.89481934 5.72401611 -6.94588867 6.20975098 -8.02880859 6.71020508 C-10.35912025 7.78587222 -12.69018628 8.85990649 -15.02197266 9.93237305 C-21.0059116 12.68563231 -26.97887382 15.45678813 -32.9296875 18.28125 C-34.01443359 18.79131592 -35.09917969 19.30138184 -36.21679688 19.8269043 C-38.2928107 20.80344605 -40.36459527 21.78903913 -42.43164062 22.78442383 C-43.36943359 23.22294678 -44.30722656 23.66146973 -45.2734375 24.11328125 C-46.09247559 24.50298096 -46.91151367 24.89268066 -47.75537109 25.29418945 C-50.2907706 26.09143113 -51.53404986 25.89391575 -54 25 C-53.89453125 23.21875 -53.89453125 23.21875 -53 21 C-50.89177851 19.61342683 -48.95801726 18.55915903 -46.6875 17.5 C-45.67200073 17.00874634 -45.67200073 17.00874634 -44.63598633 16.50756836 C-8.71262546 -0.55612503 -8.71262546 -0.55612503 0 0 Z " fill="#888F93" transform="translate(175,24)"/>
<path d="M0 0 C2.83975454 2.07520524 4.68515678 3.71360941 5.53515625 7.19921875 C5.69770893 11.8280997 5.06380638 15.352534 1.9921875 18.97265625 C-0.97585667 21.28113505 -4.2604313 21.46474104 -7.97265625 21.33984375 C-11.82432301 20.64491731 -13.54937417 18.91078987 -16.0078125 15.97265625 C-17.06595371 12.89442727 -17.35529114 10.20819503 -17.0078125 6.97265625 C-15.41585299 3.72977576 -14.06176441 1.77220597 -11.1953125 -0.40234375 C-7.16708074 -1.55326711 -3.84260005 -1.96615528 0 0 Z " fill="#DB4C43" transform="translate(160.0078125,267.02734375)"/>
<path d="M0 0 C1.41925781 0.81404297 1.41925781 0.81404297 2.8671875 1.64453125 C13.0879804 7.25656171 22.44742596 9.71638066 34 11 C34 12.65 34 14.3 34 16 C33.443125 15.95359375 32.88625 15.9071875 32.3125 15.859375 C25.23134068 15.5244553 20.36228507 17.02821654 15.015625 21.75390625 C13.29069464 23.46101708 11.63436882 25.20661151 10 27 C8 29 8 29 5.1796875 29.1953125 C4.08914062 29.17210937 2.99859375 29.14890625 1.875 29.125 C0.77929688 29.10695313 -0.31640625 29.08890625 -1.4453125 29.0703125 C-2.28835937 29.04710937 -3.13140625 29.02390625 -4 29 C-2.60152296 24.82700434 -0.63966829 22.11990431 2.3125 18.875 C3.07175781 18.02679688 3.83101562 17.17859375 4.61328125 16.3046875 C6.93823666 14.05964055 9.16804665 12.53376588 12 11 C11.38511719 10.60167969 10.77023438 10.20335937 10.13671875 9.79296875 C9.32847656 9.26316406 8.52023438 8.73335938 7.6875 8.1875 C6.88699219 7.66542969 6.08648437 7.14335937 5.26171875 6.60546875 C3.25999732 5.18455769 1.58373481 3.87075471 0 2 C0 1.34 0 0.68 0 0 Z " fill="#BEC0C3" transform="translate(135,317)"/>
<path d="M0 0 C3.85870232 0.57526525 5.89498568 2.35772398 8.75 4.9375 C9.54921875 5.64777344 10.3484375 6.35804687 11.171875 7.08984375 C13 9 13 9 13 11 C13.66 11 14.32 11 15 11 C16.33984375 12.36328125 16.33984375 12.36328125 17.9375 14.3125 C25.82974519 23.5858881 35.11440263 34.2170264 46 40 C44.92598892 42.91517292 44.22189824 44.77810176 42 47 C33.47682411 39.33526638 25.23637194 31.42273826 17.13183594 23.31713867 C15.21566632 21.40320641 13.29155448 19.49748303 11.3671875 17.59179688 C10.14534744 16.3728827 8.92397457 15.15349999 7.703125 13.93359375 C7.12830383 13.3659581 6.55348267 12.79832245 5.96124268 12.21348572 C2 8.228889 2 8.228889 2 6 C1.34 6 0.68 6 0 6 C-1 3 -1 3 0 0 Z " fill="#9BA1A5" transform="translate(201,51)"/>
<path d="M0 0 C-1.61069264 11.21444753 -11.31558522 20.31558522 -19 28 C-21.25 28.0625 -21.25 28.0625 -24 27 C-26.21202816 24.82440524 -28.12458484 22.46832991 -30 20 C-29.38253906 19.53851563 -28.76507813 19.07703125 -28.12890625 18.6015625 C-17.6661474 10.56166511 -17.6661474 10.56166511 -10 0 C-6.30581799 -1.231394 -3.7943739 -0.64432764 0 0 Z " fill="#BABDC0" transform="translate(281,219)"/>
<path d="M0 0 C2.5625 0.375 2.5625 0.375 4.4375 1.875 C6.12894129 5.63375841 5.29937626 8.35567496 4.5625 12.375 C5.14 11.405625 5.7175 10.43625 6.3125 9.4375 C8.5625 6.375 8.5625 6.375 10.5 5.25 C13.81664493 5.45100878 15.26485558 7.07735558 17.5625 9.375 C20.17835492 13.65548987 19.67998453 17.66321823 18.5625 22.375 C16.8837821 28.00780646 14.25873626 32.95153734 11.26635742 37.97314453 C6.78900026 45.51137596 4.16394145 52.2320303 2.51171875 60.8515625 C1.47286889 64.7077048 0.00163642 67.23290163 -2.4375 70.375 C-4.4375 71.375 -4.4375 71.375 -6.4375 71.375 C-8.6875 70.4375 -8.6875 70.4375 -10.4375 69.375 C-7.7975 69.045 -5.1575 68.715 -2.4375 68.375 C-0.65985765 63.38067149 0.69778227 58.65641124 1.625 53.4375 C3.32286155 45.61257285 7.25313142 39.25617061 11.28515625 32.44140625 C14.41126159 27.03338118 15.84410277 22.41395155 15.8125 16.125 C15.81765625 15.08859375 15.8228125 14.0521875 15.828125 12.984375 C15.82386645 10.21512614 15.82386645 10.21512614 13.5625 8.375 C11.0827272 8.15151857 11.0827272 8.15151857 8.5625 9.375 C6.89679435 11.61379409 5.80204537 13.85000018 4.5625 16.375 C3.5725 16.375 2.5825 16.375 1.5625 16.375 C1.8925 11.755 2.2225 7.135 2.5625 2.375 C0.9125 2.705 -0.7375 3.035 -2.4375 3.375 C-4.03472513 6.28922937 -4.03472513 6.28922937 -5.0625 9.8125 C-7.14550187 16.18033458 -7.14550187 16.18033458 -10.4375 18.375 C-11.13923653 13.98914671 -11.54584375 9.81709357 -11.4375 5.375 C-13.9125 4.88 -13.9125 4.88 -16.4375 4.375 C-17.06708174 5.89394235 -17.69090464 7.41527195 -18.3125 8.9375 C-18.66054688 9.78441406 -19.00859375 10.63132813 -19.3671875 11.50390625 C-21.570738 17.41489027 -22.59190644 22.43574858 -22.625 28.75 C-22.97400338 35.30997085 -24.23375471 38.58915633 -28.6484375 43.3671875 C-31.34171084 46.38976937 -32.77021738 49.70697824 -34.4375 53.375 C-34.7675 53.375 -35.0975 53.375 -35.4375 53.375 C-35.4375 48.01108708 -34.20476016 45.92804541 -30.5 42.0625 C-25.8476957 36.64996125 -25.50677273 31.97815919 -25.01928711 25.140625 C-24.3985323 16.50969353 -22.78860887 7.72610887 -16.4375 1.375 C-10.5625 2.25 -10.5625 2.25 -9.4375 3.375 C-9.20557135 4.88969448 -9.02534762 6.41254562 -8.875 7.9375 C-8.74931641 9.17693359 -8.74931641 9.17693359 -8.62109375 10.44140625 C-8.56050781 11.07949219 -8.49992187 11.71757812 -8.4375 12.375 C-8.17195313 11.67632812 -7.90640625 10.97765625 -7.6328125 10.2578125 C-7.27960938 9.34773437 -6.92640625 8.43765625 -6.5625 7.5 C-6.21445312 6.59507812 -5.86640625 5.69015625 -5.5078125 4.7578125 C-4.13798669 1.70820029 -3.37200854 0.51877054 0 0 Z " fill="#0D1316" transform="translate(287.4375,148.625)"/>
<path d="M0 0 C8.95053821 10.9598427 11.09962035 25.33721721 10 39 C8.31347629 47.60510395 4.88289689 54.7733126 0 62 C-0.66 62.99 -1.32 63.98 -2 65 C-4.31 64.67 -6.62 64.34 -9 64 C-8.40213126 60.15400858 -6.57758802 57.94839011 -4.1875 54.9375 C4.78528013 42.6140228 5.64014463 29.93408838 4 15 C2.96048852 10.06107224 1.20333988 5.54045396 -1 1 C-0.67 0.67 -0.34 0.34 0 0 Z " fill="#C8CBCE" transform="translate(215,116)"/>
<path d="M0 0 C0.99 0 1.98 0 3 0 C3 0.66 3 1.32 3 2 C2.01 2 1.02 2 0 2 C0 8.02453349 1.17076481 10.51839127 5.25 15 C9.01979137 19.36007899 9.01979137 19.36007899 8.9296875 22.2734375 C8.1316249 24.35769809 7.19908861 26.12128356 6 28 C5.608125 28.825 5.21625 29.65 4.8125 30.5 C4.544375 30.995 4.27625 31.49 4 32 C2.68 32 1.36 32 0 32 C-0.33 32.99 -0.66 33.98 -1 35 C-3.18486483 34.62329917 -4.80490291 34.12283891 -6.6875 32.9375 C-8.71157345 29.94958204 -9.15175145 26.58422465 -9 23 C-8.01 21.515 -8.01 21.515 -7 20 C-6.87625 18.700625 -6.7525 17.40125 -6.625 16.0625 C-6.23561993 12.02911023 -4.90422798 10.81054321 -2 8 C-1.83318891 4.91652174 -1.83318891 4.91652174 -2 2 C-1.34 1.34 -0.68 0.68 0 0 Z " fill="#1E2427" transform="translate(26,186)"/>
<path d="M0 0 C1.65 0 3.3 0 5 0 C8.77099599 11.65991959 8.23193777 23.87768331 3 35 C0.875 38.25 0.875 38.25 -1 40 C-1.66 40 -2.32 40 -3 40 C-3 40.66 -3 41.32 -3 42 C-5.31 41.67 -7.62 41.34 -10 41 C-10 37 -10 37 -8.828125 35.46484375 C-8.30734375 34.96082031 -7.7865625 34.45679688 -7.25 33.9375 C1.44912415 24.10460375 0.45999764 12.3304923 0 0 Z " fill="#E4544B" transform="translate(87,225)"/>
<path d="M0 0 C3.84375 1.75 3.84375 1.75 5.25 4 C7.04497692 11.17990769 6.61699782 17.54107532 3 24 C1.1875 26.5 1.1875 26.5 -1 28 C-3.9375 28.1875 -3.9375 28.1875 -7 27 C-8.9713082 24.8382521 -10.51557226 22.51564523 -12 20 C-11.34 18.68 -10.68 17.36 -10 16 C-8.68 16 -7.36 16 -6 16 C-5.83177734 15.20335937 -5.83177734 15.20335937 -5.66015625 14.390625 C-4.83141323 11.38949642 -3.65240018 8.61591837 -2.4375 5.75 C-1.98246094 4.67234375 -1.52742188 3.5946875 -1.05859375 2.484375 C-0.70925781 1.66453125 -0.35992187 0.8446875 0 0 Z " fill="#E45446" transform="translate(36,202)"/>
<path d="M0 0 C3.89111898 1.52147124 5.68024246 3.8459273 8.1875 7.125 C11.17399893 10.89508528 14.15355803 14.19092739 17.8125 17.3125 C22.81037259 21.61258933 26.61111909 25.64824773 27.1640625 32.546875 C26.1875702 47.14775987 18.96191515 62.42647095 8.4375 72.4375 C3.73157116 75.45412105 -0.52427756 76.61515319 -6.0390625 75.73828125 C-10.54340591 74.04242287 -12.90575823 69.91403202 -15.19921875 65.90234375 C-16.19327646 62.29949068 -15.88274507 59.30020639 -15.61645508 55.59887695 C-14.78284399 46.49535901 -14.78284399 46.49535901 -18.3359375 38.46875 C-21.11234424 35.99111669 -23.82596391 33.93381939 -27 32 C-27.99 31.34 -28.98 30.68 -30 30 C-29.505 28.515 -29.505 28.515 -29 27 C-28.27296875 27.74443359 -28.27296875 27.74443359 -27.53125 28.50390625 C-26.8609375 29.18324219 -26.190625 29.86257813 -25.5 30.5625 C-24.4171875 31.68785156 -24.4171875 31.68785156 -23.3125 32.8359375 C-21.12977649 35.03867476 -21.12977649 35.03867476 -18.6875 36.3515625 C-15.90047001 38.05364153 -14.62085644 39.11989551 -13 42 C-12.41816244 46.42100375 -12.58636909 50.83089908 -12.85546875 55.2722168 C-13.24607934 62.0133012 -12.70186774 66.31425886 -8.60546875 71.90234375 C-5.12580055 74.28138697 -0.98336686 73.70433976 3 73 C11.63650551 69.12950983 15.69235635 60.35852022 19.1875 52.0625 C23.69580822 40.3158136 23.69580822 40.3158136 24 28 C22.06589604 24.92330657 19.59663331 22.5252482 17 20 C15.58894842 18.58894842 14.17796114 17.17783091 12.76879883 15.76489258 C11.37194463 14.37178518 9.96163637 12.99220754 8.55078125 11.61328125 C6 9 6 9 3.79296875 6.23046875 C2.19311563 3.92283784 2.19311563 3.92283784 0 3 C0 2.01 0 1.02 0 0 Z " fill="#0F161A" transform="translate(231,365)"/>
<path d="M0 0 C1.32 0.33 2.64 0.66 4 1 C3.95359375 1.64324219 3.9071875 2.28648437 3.859375 2.94921875 C3.47250136 12.63487675 5.05708556 22.11345155 11.5625 29.625 C12.68664209 30.77167501 13.83114211 31.8989413 15 33 C16.0011396 33.9988591 17.0015186 34.9984837 18 36 C15.8125 37.625 15.8125 37.625 13 39 C8.62138642 38.32636714 6.08013507 35.5003896 3.42578125 32.16015625 C-2.26349814 23.5405083 -3.02909287 14.06357097 -2 4 C-0.9765625 1.55859375 -0.9765625 1.55859375 0 0 Z " fill="#E3544C" transform="translate(242,212)"/>
<path d="M0 0 C1.84241041 0.22738609 3.67562004 0.53175326 5.5 0.875 C7.00046875 1.14957031 7.00046875 1.14957031 8.53125 1.4296875 C11 2 11 2 12 3 C12.34201376 9.27025224 11.40055535 14.89758025 10 21 C8.22844346 20.88570603 6.45773771 20.75816963 4.6875 20.625 C3.70136719 20.55539063 2.71523438 20.48578125 1.69921875 20.4140625 C-1 20 -1 20 -4 18 C-3.5359375 16.2984375 -3.5359375 16.2984375 -3.0625 14.5625 C-2.07016032 10.64904772 -1.58382689 6.80349135 -1.24609375 2.78515625 C-1 1 -1 1 0 0 Z " fill="#C2362B" transform="translate(33,167)"/>
<path d="M0 0 C10.38102072 -0.43932219 20.12063109 -0.14534174 28.5859375 6.5546875 C31.12250802 9.14731483 32.10046258 11.52178863 33 15 C32.875 18.625 32.875 18.625 31 22 C25.16359253 25.91394217 18.97881646 28.20324422 12 27 C9.3125 24.8125 9.3125 24.8125 7 22 C6.113125 21.113125 5.22625 20.22625 4.3125 19.3125 C2.875 17.875 1.4375 16.4375 0 15 C0 14.01 0 13.02 0 12 C4.41539907 13.37981221 7.56490699 15.82110303 11.1328125 18.66015625 C14.86095963 21.3353748 18.24904108 21.10644514 22.6875 21.0625 C23.86699219 21.05347656 25.04648438 21.04445312 26.26171875 21.03515625 C27.16535156 21.02355469 28.06898438 21.01195312 29 21 C29.6460607 14.63988109 29.6460607 14.63988109 26.8125 9.125 C22.23514821 5.17549426 22.23514821 5.17549426 16.625 4.3125 C15.75875 4.539375 14.8925 4.76625 14 5 C11.66698014 5.03824623 9.33288492 5.04574284 7 5 C7 4.34 7 3.68 7 3 C4.69 3 2.38 3 0 3 C0 2.01 0 1.02 0 0 Z " fill="#28627F" transform="translate(193,179)"/>
<path d="M0 0 C3.06164769 1.41523678 4.8747661 3.53222735 7.18359375 5.98046875 C11.6811342 10.64748394 16.40335127 14.79243029 21.46875 18.84765625 C24.08379964 20.95047967 26.64848212 23.09451994 29.18359375 25.29296875 C29.89644531 25.90785156 30.60929687 26.52273437 31.34375 27.15625 C34.04511373 29.92885849 35.02526885 32.07971468 35.43359375 35.91796875 C35.07438148 39.438249 34.28488851 41.19844692 32.12109375 43.98046875 C29.71930755 45.7818084 27.85441867 46.02662405 24.87109375 46.54296875 C14.59919343 45.0021837 6.64809792 31.88765397 0.49609375 24.29296875 C-2.76860569 20.26443149 -6.1189067 16.54764781 -9.87890625 12.98046875 C-9.54890625 12.32046875 -9.21890625 11.66046875 -8.87890625 10.98046875 C-0.54214855 19.06331505 7.15305687 27.35641957 14.13671875 36.66796875 C17.59298873 41.17997827 17.59298873 41.17997827 22.515625 43.67578125 C26.13284105 43.85109059 28.31010094 43.61943278 31.18359375 41.35546875 C32.47650627 38.08009035 32.79727603 36.49661658 32.12109375 32.98046875 C28.30526798 27.02375064 22.58146386 22.76724698 17.10546875 18.42578125 C13.30819715 15.31440426 9.73276946 11.99692687 6.1809082 8.61010742 C3.64823789 6.23040849 1.34807794 4.31550949 -1.87890625 2.98046875 C-2.45640625 3.76421875 -3.03390625 4.54796875 -3.62890625 5.35546875 C-5.70788262 7.78094119 -6.96930958 8.83741292 -9.87890625 9.98046875 C-8.36583024 6.04647111 -4.6548807 -0.04838753 0 0 Z " fill="#BF170A" transform="translate(254.87890625,86.01953125)"/>
<path d="M0 0 C0.45375 0.70125 0.9075 1.4025 1.375 2.125 C6.03575396 7.22963529 12.05718578 10.44873421 18.5625 12.6875 C19.696875 13.120625 20.83125 13.55375 22 14 C22.33 14.99 22.66 15.98 23 17 C21.59554165 19.2636564 19.8032087 21.0208685 18 23 C10.01441824 19.6188707 4.17026186 15.04572446 -2 9 C-2.58910156 8.45601562 -3.17820313 7.91203125 -3.78515625 7.3515625 C-5 6 -5 6 -5 4 C-3.37373596 2.61767557 -1.7074998 1.28062485 0 0 Z " fill="#B9BCBF" transform="translate(58,242)"/>
<path d="M0 0 C0.66 0.66 1.32 1.32 2 2 C-5.06522284 6.37418932 -12.6692708 9.13362777 -20.40039062 12.11328125 C-27.01188374 14.69986174 -33.33932842 17.57281741 -39.63012695 20.86767578 C-42 22 -42 22 -44 22 C-44.08131463 23.43655854 -44.13933559 24.8744483 -44.1875 26.3125 C-44.22230469 27.11300781 -44.25710937 27.91351563 -44.29296875 28.73828125 C-44.15807205 31.02986858 -44.15807205 31.02986858 -42.86328125 32.79296875 C-40.10589215 34.57920194 -38.228857 34.37302323 -35 34 C-32.30679816 32.89326545 -32.30679816 32.89326545 -29.6875 31.1875 C-28.64980469 30.55199219 -27.61210938 29.91648437 -26.54296875 29.26171875 C-21.77633263 26.23781163 -17.04276011 23.16161125 -12.31738281 20.07373047 C-6.32681193 16.16996099 -0.22770671 12.51583443 6 9 C6 9.99 6 10.98 6 12 C3.54831624 13.64468397 1.14266834 15.08280706 -1.4375 16.5 C-8.57988968 20.55003546 -15.5111043 24.83009876 -22.37670898 29.33203125 C-23.67849443 30.18547478 -24.9819346 31.03640196 -26.28735352 31.88427734 C-27.75477715 32.84024684 -29.21240292 33.81122714 -30.66796875 34.78515625 C-34.66892698 36.86940752 -38.61645203 36.77617628 -43 36 C-46.39351067 33.33367019 -46.89326125 31.74717122 -47.5 27.5 C-46.9062704 23.34389277 -45.85645371 22.01991914 -43 19 C-40.30541992 17.42602539 -40.30541992 17.42602539 -37.23046875 16.09765625 C-36.10044434 15.60241455 -34.97041992 15.10717285 -33.80615234 14.59692383 C-32.61199707 14.09056396 -31.4178418 13.5842041 -30.1875 13.0625 C-28.96261953 12.53184343 -27.73817336 12.00018327 -26.51416016 11.4675293 C-18.87461258 8.167821 -11.19744954 4.97384965 -3.4296875 1.98828125 C-1.09079044 1.22031537 -1.09079044 1.22031537 0 0 Z " fill="#C01E13" transform="translate(118,46)"/>
<path d="M0 0 C0.99 0 1.98 0 3 0 C-0.46973461 7.22995862 -4.0727162 12.244956 -11.65625 15.30859375 C-21.88984699 18.32750486 -35.18567366 18.8902941 -44.97265625 14.22265625 C-47.97146557 12.41412577 -50.45746697 10.4087155 -53 8 C-49.50324462 8 -47.80941996 9.18304071 -44.9140625 11.02734375 C-35.59581341 15.76253563 -22.3951264 12.98029364 -13 10 C-8.61454836 7.77612751 -5.09275924 5.09275924 -1.625 1.625 C-1.08875 1.08875 -0.5525 0.5525 0 0 Z " fill="#296683" transform="translate(189,180)"/>
<path d="M0 0 C0.93423645 3.01031744 1.04449911 3.86650268 0 7 C-3.97415868 9.22085338 -7.5214021 9.17563129 -12 9 C-12.04125 9.721875 -12.0825 10.44375 -12.125 11.1875 C-13.09007298 14.28952031 -14.33587248 16.05316614 -16.91015625 18.0546875 C-21.27715736 20.03004127 -26.3342952 19.66353586 -31 19 C-31.66 18.34 -32.32 17.68 -33 17 C-33 16.34 -33 15.68 -33 15 C-31.67935547 14.88785156 -31.67935547 14.88785156 -30.33203125 14.7734375 C-22.7473052 14.22224074 -22.7473052 14.22224074 -16.75 10.125 C-15.30757985 7.54924974 -14.60710694 5.80483407 -14 3 C-13.15695313 2.86722656 -12.31390625 2.73445312 -11.4453125 2.59765625 C-10.34960938 2.42105469 -9.25390625 2.24445313 -8.125 2.0625 C-7.03445312 1.88847656 -5.94390625 1.71445313 -4.8203125 1.53515625 C-2.06178454 1.14448841 -2.06178454 1.14448841 0 0 Z " fill="#CBCDCF" transform="translate(218,203)"/>
<path d="M0 0 C2.52151847 2.71063235 4.09969524 5.40398504 5 9 C3.94642256 13.04303855 2.16210083 16.44084941 0 20 C-0.33 19.34 -0.66 18.68 -1 18 C-1.99 17.67 -2.98 17.34 -4 17 C-5.38671875 14.78515625 -5.38671875 14.78515625 -6.6875 12.0625 C-7.12449219 11.16660156 -7.56148437 10.27070313 -8.01171875 9.34765625 C-9 7 -9 7 -9 5 C-9.66 4.67 -10.32 4.34 -11 4 C-9.73760288 3.13341385 -8.46472499 2.28207941 -7.1875 1.4375 C-6.47980469 0.96183594 -5.77210938 0.48617188 -5.04296875 -0.00390625 C-3 -1 -3 -1 0 0 Z " fill="#C0C2C5" transform="translate(227,356)"/>
<path d="M0 0 C0.72750788 1.40691607 1.43140353 2.82606022 2.125 4.25 C2.51945313 5.03890625 2.91390625 5.8278125 3.3203125 6.640625 C4 9 4 9 3.28125 11.15625 C1.55869976 13.63504181 -0.58381079 15.21965006 -3 17 C-4.8125 16.5 -4.8125 16.5 -7 15 C-9.22686726 10.85374088 -10.44351374 6.73081322 -10 2 C-10.66 1.67 -11.32 1.34 -12 1 C-7.93631321 0.22596442 -4.13574827 -0.0984702 0 0 Z " fill="#BEC1C4" transform="translate(140,356)"/>
<path d="M0 0 C3.875 1.75 3.875 1.75 5 4 C5.39771327 8.77255923 5.47453429 11.08482672 3.25 15.375 C0.05617978 19.1011236 0.05617978 19.1011236 -3 20 C-6.25 20.125 -6.25 20.125 -9 20 C-8.54625 19.154375 -8.0925 18.30875 -7.625 17.4375 C-5.90066778 14.04427603 -5.90066778 14.04427603 -5 10.375 C-4.05016907 7.16932061 -3.07922016 5.53122454 -1 3 C-0.67 2.01 -0.34 1.02 0 0 Z " fill="#B93D36" transform="translate(209,145)"/>
<path d="M0 0 C0.696553 1.95513161 1.38199565 3.91422476 2.0625 5.875 C2.44535156 6.96554687 2.82820312 8.05609375 3.22265625 9.1796875 C4 12 4 12 3 14 C-1.11111111 17 -1.11111111 17 -4.1875 17 C-6 16 -6 16 -7.25 13.6875 C-8 11 -8 11 -8 7 C-8.66 6.67 -9.32 6.34 -10 6 C-8.90398831 4.99106869 -7.79786082 3.99311775 -6.6875 3 C-6.07261719 2.443125 -5.45773438 1.88625 -4.82421875 1.3125 C-3 0 -3 0 0 0 Z " fill="#C54239" transform="translate(222,342)"/>
<path d="M0 0 C2.53998713 1.12888317 4.06867458 2.07296674 6 4.125 C10.79097072 7.1193567 15.515949 6.95555434 21 6 C24.34859534 4.37273316 27.16590287 2.40468848 30 0 C30.33 1.32 30.66 2.64 31 4 C24.99890264 9.30329534 20.72638428 11.49073788 12.5703125 11.3203125 C7.468411 10.68451323 3.54502352 8.54502352 -0.0625 4.9375 C-1 3 -1 3 0 0 Z " fill="#454C51" transform="translate(137,169)"/>
<path d="M0 0 C3.465 2.97 3.465 2.97 7 6 C6.01 6.33 5.02 6.66 4 7 C3.01 6.34 2.02 5.68 1 5 C0.401875 5.94875 -0.19625 6.8975 -0.8125 7.875 C-3 11 -3 11 -6 13 C-13.04000518 13.99081554 -18.6170263 13.50322836 -24.4765625 9.38671875 C-26 8 -26 8 -28 5 C-27.625 2.8125 -27.625 2.8125 -27 1 C-26.62875 1.78375 -26.2575 2.5675 -25.875 3.375 C-23.45861744 6.75793559 -22.05010705 7.17497819 -18 8 C-12.29208114 8.57283773 -7.86949566 8.36227082 -3 5 C-1.11868431 2.45211147 -1.11868431 2.45211147 0 0 Z " fill="#2B6783" transform="translate(173,209)"/>
<path d="M0 0 C0 4.62 0 9.24 0 14 C-6.75 18 -6.75 18 -9 18 C-9 13.38 -9 8.76 -9 4 C-2.25 0 -2.25 0 0 0 Z " fill="#C83D35" transform="translate(221,276)"/>
<path d="M0 0 C1 3 1 3 0.109375 5.19921875 C-0.56351563 6.43091797 -0.56351563 6.43091797 -1.25 7.6875 C-6.20280694 16.82105868 -8.35571307 26.31252488 -10.5625 36.375 C-10.86863746 37.74750816 -11.17527486 39.11990491 -11.48242188 40.4921875 C-12.94574451 47.06257428 -14.36327791 53.6259431 -15.48803711 60.26416016 C-15.65698486 60.8369873 -15.82593262 61.40981445 -16 62 C-16.99 62.495 -16.99 62.495 -18 63 C-17.50372021 54.20892016 -15.839558 45.86842577 -13.8125 37.3125 C-13.65760101 36.6534668 -13.50270203 35.99443359 -13.34310913 35.31542969 C-10.40216529 22.8709555 -7.44402766 10.58422776 0 0 Z " fill="#91989C" transform="translate(51,104)"/>
<path d="M0 0 C0.99 0.33 1.98 0.66 3 1 C2.505 1.53625 2.01 2.0725 1.5 2.625 C-0.37489544 5.59358445 -0.23501425 7.55312427 0 11 C3.95309766 12.00657579 7.42968783 12.81769409 11.16796875 10.87109375 C13.18229674 9.31651567 15.08872147 7.67887988 17 6 C18.15191952 5.18702482 19.31717397 4.39231337 20.5 3.625 C21.325 3.08875 22.15 2.5525 23 2 C23 7.02774186 19.23715408 10.17889654 15.87109375 13.6484375 C12.83913581 16.13175543 11.54000259 16.77774058 7.6875 16.8125 C4.24083286 16.39521483 1.02935765 15.75898186 -2 14 C-3.58873246 10.82253509 -3.41026221 7.45987798 -3 4 C-1.5 1.5 -1.5 1.5 0 0 Z " fill="#2B6784" transform="translate(105,187)"/>
<path d="M0 0 C0.99 0.66 1.98 1.32 3 2 C2.04194935 10.42294636 -0.52617835 16.48102972 -4.875 23.6875 C-9.45983999 31.62051524 -12.55196165 38.67292737 -14.15625 47.6875 C-15.11992734 51.47082584 -16.62089079 53.92545887 -19 57 C-21 58 -21 58 -23 58 C-25.25 57.0625 -25.25 57.0625 -27 56 C-24.36 55.67 -21.72 55.34 -19 55 C-17.22235765 50.00567149 -15.86471773 45.28141124 -14.9375 40.0625 C-13.23963845 32.23757285 -9.30936858 25.88117061 -5.27734375 19.06640625 C-2.48686201 14.2569943 -0.87998526 9.67983783 -0.375 4.125 C-0.30023438 3.34382812 -0.22546875 2.56265625 -0.1484375 1.7578125 C-0.09945313 1.17773438 -0.05046875 0.59765625 0 0 Z " fill="#11191D" transform="translate(304,162)"/>
<path d="M0 0 C10.38102072 -0.43932219 20.12063109 -0.14534174 28.5859375 6.5546875 C31.12250802 9.14731483 32.10046258 11.52178863 33 15 C32.64867768 17.5746907 31.95019933 19.54948593 31 22 C30.34 22 29.68 22 29 22 C29.05800781 21.33613281 29.11601562 20.67226562 29.17578125 19.98828125 C29.52881714 14.12019034 29.52881714 14.12019034 26.8125 9.0625 C25.884375 8.381875 24.95625 7.70125 24 7 C23.175 6.38125 22.35 5.7625 21.5 5.125 C18.40543867 3.7324474 17.23530192 4.15265902 14 5 C11.66698014 5.03824623 9.33288492 5.04574284 7 5 C7 4.34 7 3.68 7 3 C4.69 3 2.38 3 0 3 C0 2.01 0 1.02 0 0 Z " fill="#2B6F8E" transform="translate(193,179)"/>
<path d="M0 0 C0.66 0 1.32 0 2 0 C2.99 2.97 3.98 5.94 5 9 C1.7 11.31 -1.6 13.62 -5 16 C-8.10551666 12.89448334 -8.81323934 11.10801767 -10 7 C-6.7 5.35 -3.4 3.7 0 2 C0 1.34 0 0.68 0 0 Z " fill="#B53C36" transform="translate(119,46)"/>
<path d="M0 0 C3.27844613 2.74900762 4.95574198 6.38851348 6.875 10.125 C9.12640145 14.47099404 11.41760248 18.71365086 14 22.875 C16.41968981 27.28494661 17.15732542 31.05977505 16 36 C11.91968903 45.57986055 1.47072524 55.09115264 -7 61 C-7.66 60.67 -8.32 60.34 -9 60 C-8.154375 59.23816406 -7.30875 58.47632813 -6.4375 57.69140625 C7.0588574 46.76650018 7.0588574 46.76650018 13.5625 31.6875 C13.51335961 23.29677829 7.76445003 16.25502048 3.35546875 9.46875 C0 4.28566282 0 4.28566282 0 0 Z " fill="#0C1216" transform="translate(144,368)"/>
<path d="M0 0 C3.89111898 1.52147124 5.68024246 3.8459273 8.1875 7.125 C11.17399893 10.89508528 14.15355803 14.19092739 17.8125 17.3125 C22.80950444 21.61184239 26.59903738 25.64182505 27.16796875 32.53515625 C26.56662192 41.35957133 22.90698671 50.1444629 19 58 C17.62547337 53.87642012 19.05056083 50.95922774 20.375 47 C20.60960937 46.27554688 20.84421875 45.55109375 21.0859375 44.8046875 C22.04075595 41.86428068 23.02237102 38.93288693 24 36 C24.72337756 30.79609593 24.72337756 30.79609593 22.82421875 26.0859375 C20.97617522 23.94238343 19.02936475 21.97357465 17 20 C15.58894842 18.58894842 14.17796114 17.17783091 12.76879883 15.76489258 C11.37194463 14.37178518 9.96163637 12.99220754 8.55078125 11.61328125 C6 9 6 9 3.79296875 6.23046875 C2.19311563 3.92283784 2.19311563 3.92283784 0 3 C0 2.01 0 1.02 0 0 Z " fill="#0A1215" transform="translate(231,365)"/>
<path d="M0 0 C11.7898466 1.52958651 20.38182627 9.41649402 29 17 C29.68578125 17.58652344 30.3715625 18.17304687 31.078125 18.77734375 C33.07550042 20.49357599 35.04032136 22.24078232 37 24 C37.51804199 24.46229004 38.03608398 24.92458008 38.56982422 25.40087891 C40.34471496 26.98935877 42.11065538 28.5873197 43.875 30.1875 C44.44726318 30.69909668 45.01952637 31.21069336 45.60913086 31.73779297 C48.3803537 34.27079588 50.65919555 36.44432238 52 40 C49.1185354 38.69950909 47.11353344 37.34060182 44.93359375 35.05859375 C44.37140137 34.47940186 43.80920898 33.90020996 43.22998047 33.3034668 C42.63846191 32.68769775 42.04694336 32.07192871 41.4375 31.4375 C35.60923922 25.49637064 29.59357365 20.09244305 23 15 C22.02289063 14.2059375 21.04578125 13.411875 20.0390625 12.59375 C13.68103565 7.55963105 7.8227141 4.20206322 0 2 C0 1.34 0 0.68 0 0 Z " fill="#606C72" transform="translate(203,46)"/>
<path d="M0 0 C0.33 0.99 0.66 1.98 1 3 C-5.47576139 7.46108007 -10.1859134 8.90888923 -18 8 C-20.66052787 6.92356735 -22.62353416 5.65319362 -25 4 C-25 3.01 -25 2.02 -25 1 C-24.05125 1.165 -23.1025 1.33 -22.125 1.5 C-15.08458661 2.49762943 -7.97873274 2.33635308 -1 1 C-0.67 0.67 -0.34 0.34 0 0 Z " fill="#CBCDD0" transform="translate(142,212)"/>
<path d="M0 0 C-0.99 3.63 -1.98 7.26 -3 11 C-6.63 11.33 -10.26 11.66 -14 12 C-13.34 8.37 -12.68 4.74 -12 1 C-2.25 0 -2.25 0 0 0 Z " fill="#C34139" transform="translate(143,345)"/>
<path d="M0 0 C0.66 0.33 1.32 0.66 2 1 C2.64814782 18.34543276 3.34787716 39.86091266 -4 56 C-6.19382385 57.85631249 -8.37748829 58.73730918 -11 60 C-10.67 59.01 -10.34 58.02 -10 57 C-7.4375 55.8125 -7.4375 55.8125 -5 55 C-4.49800538 50.98852517 -3.99671205 46.97697619 -3.5 42.96484375 C-3.33333333 41.62239583 -3.16666667 40.27994792 -3 38.9375 C-2.9175 38.26912109 -2.835 37.60074219 -2.75 36.91210938 C-2.37013999 33.85839104 -1.97023408 30.81831764 -1.47265625 27.78125 C-0.79829229 22.3863383 -0.63409604 16.99306275 -0.4375 11.5625 C-0.39431641 10.44939453 -0.35113281 9.33628906 -0.30664062 8.18945312 C-0.20120112 5.45974156 -0.09907971 2.72994857 0 0 Z " fill="#606B71" transform="translate(57,106)"/>
<path d="M0 0 C3.71860179 1.53873177 4.35633541 2.47511388 7 6 C4.36 8.97 1.72 11.94 -1 15 C-2.98 13.35 -4.96 11.7 -7 10 C-7.99 10.495 -7.99 10.495 -9 11 C-9 10.01 -9 9.02 -9 8 C-7.34151823 6.98648336 -5.67334039 5.98879205 -4 5 C-1.72462308 2.42816686 -1.72462308 2.42816686 0 0 Z " fill="#A53935" transform="translate(253,88)"/>
<path d="M0 0 C3.3 0.33 6.6 0.66 10 1 C9.67 4.3 9.34 7.6 9 11 C4.99998285 12.00000429 2.94476647 11.80688405 -1 11 C-0.67 7.37 -0.34 3.74 0 0 Z " fill="#E75848" transform="translate(33,176)"/>
<path d="M0 0 C0 0.66 0 1.32 0 2 C-0.99515625 2.40089844 -1.9903125 2.80179688 -3.015625 3.21484375 C-11.30754001 6.57944579 -19.52793543 10.07516828 -27.6875 13.75 C-28.5237793 14.12632568 -29.36005859 14.50265137 -30.22167969 14.89038086 C-33.67279944 16.45371159 -37.08192754 18.04184322 -40.45703125 19.765625 C-43 21 -43 21 -45 21 C-44 18 -44 18 -41.19946289 16.43774414 C-39.96214223 15.87585519 -38.71940978 15.3257922 -37.47265625 14.78515625 C-36.80971054 14.48814316 -36.14676483 14.19113007 -35.46372986 13.88511658 C-33.33426413 12.93427252 -31.19852539 11.99850031 -29.0625 11.0625 C-27.65778904 10.43647519 -26.25348706 9.80953183 -24.84960938 9.18164062 C-4.24612777 0 -4.24612777 0 0 0 Z " fill="#6D787E" transform="translate(167,26)"/>
<path d="M0 0 C1.546875 0.433125 1.546875 0.433125 3.125 0.875 C2.74903791 3.65711944 2.45181541 5.4629284 0.6875 7.6875 C-0.875 8.875 -0.875 8.875 -2.875 8.875 C-2.875 9.535 -2.875 10.195 -2.875 10.875 C-5.185 10.545 -7.495 10.215 -9.875 9.875 C-9.875 5.25881201 -9.875 5.25881201 -7.3125 2.5625 C-4.52048406 -0.09624549 -4.1399683 -0.13354736 0 0 Z " fill="#CB433A" transform="translate(86.875,256.125)"/>
<path d="M0 0 C5.02692063 0.45699278 8.14896261 2.99241748 12 6 C11.67 7.32 11.34 8.64 11 10 C9.68 10 8.36 10 7 10 C7 10.66 7 11.32 7 12 C4.41851492 11.64393309 3.17954253 11.16671807 1.25 9.375 C-0.43754802 6.16865877 -0.20576047 3.56651486 0 0 Z " fill="#3E4547" transform="translate(19,208)"/>
<path d="M0 0 C1.1055189 0.93590504 2.20935453 1.87379858 3.3125 2.8125 C3.92738281 3.33457031 4.54226562 3.85664063 5.17578125 4.39453125 C6.85424679 5.87172469 8.43882034 7.40039131 10 9 C7.8125 10.625 7.8125 10.625 5 12 C0.51243333 11.10248667 -2.04879238 8.37280871 -5 5 C-5 4.34 -5 3.68 -5 3 C-2.5 1.375 -2.5 1.375 0 0 Z " fill="#C24138" transform="translate(250,239)"/>
<path d="M0 0 C0.66 0.66 1.32 1.32 2 2 C1.72285156 2.76441406 1.44570313 3.52882812 1.16015625 4.31640625 C-0.96822111 10.61064678 -2.19123767 16.08730862 -2.3125 22.75 C-2.5767004 29.17667475 -3.88574435 32.31101137 -8.2109375 36.9921875 C-10.90421084 40.01476937 -12.33271738 43.33197824 -14 47 C-14.33 47 -14.66 47 -15 47 C-15 41.63608708 -13.76726016 39.55304541 -10.0625 35.6875 C-5.41789626 30.28392016 -5.05440879 25.60908604 -4.59057617 18.77661133 C-4.12679799 12.07892253 -2.52001011 6.23885998 0 0 Z " fill="#0D181B" transform="translate(267,155)"/>
<path d="M0 0 C0.7734375 -0.00773437 1.546875 -0.01546875 2.34375 -0.0234375 C4.5 0.375 4.5 0.375 6.34375 1.6484375 C7.5 3.375 7.5 3.375 7.1875 5.5625 C6.8471875 6.4596875 6.8471875 6.4596875 6.5 7.375 C5.89671875 7.36339844 5.2934375 7.35179687 4.671875 7.33984375 C3.87265625 7.33082031 3.0734375 7.32179687 2.25 7.3125 C1.46109375 7.30089844 0.6721875 7.28929687 -0.140625 7.27734375 C-2.40691002 7.37114694 -4.3288895 7.74258937 -6.5 8.375 C-7.1875 6.0625 -7.1875 6.0625 -7.5 3.375 C-5.3248134 0.39208939 -3.61009679 -0.03610097 0 0 Z " fill="#584D4B" transform="translate(137.5,127.625)"/>
<path d="M0 0 C3.06164769 1.41523678 4.8747661 3.53222735 7.18359375 5.98046875 C11.84770735 10.85153891 16.7268716 15.01619343 22.1015625 19.10546875 C22.76800781 19.72421875 23.43445313 20.34296875 24.12109375 20.98046875 C24.12109375 21.97046875 24.12109375 22.96046875 24.12109375 23.98046875 C17.66715508 19.37995794 12.03256453 14.23770623 6.4140625 8.6640625 C5.78628906 8.05949219 5.15851563 7.45492187 4.51171875 6.83203125 C3.95516602 6.28369629 3.39861328 5.73536133 2.82519531 5.17041016 C0.92090509 3.59879145 0.92090509 3.59879145 -2.87890625 3.98046875 C-5.52477859 6.37632161 -5.52477859 6.37632161 -7.87890625 8.98046875 C-8.86890625 9.47546875 -8.86890625 9.47546875 -9.87890625 9.98046875 C-8.36583024 6.04647111 -4.6548807 -0.04838753 0 0 Z " fill="#C0241A" transform="translate(254.87890625,86.01953125)"/>
<path d="M0 0 C4.23394447 1.56812758 6.47032152 4.34601998 9 8 C9.3125 11.375 9.3125 11.375 9 14 C5.00301811 12.62960621 2.04161213 10.9571229 -1 8 C-1.9375 5.4375 -1.9375 5.4375 -2 3 C-1.34 2.01 -0.68 1.02 0 0 Z " fill="#43484B" transform="translate(23,197)"/>
<path d="M0 0 C0.33 0 0.66 0 1 0 C0.50089609 5.68978458 -0.61994416 9.82596558 -3 15 C-3 17.15634036 -2.5534764 18.92446352 -2 21 C-1.01 21 -0.02 21 1 21 C1 21.66 1 22.32 1 23 C-1.6875 22.9375 -1.6875 22.9375 -5 22 C-6.99364654 19.85695876 -8.51532107 17.51607093 -10 15 C-9.34 13.68 -8.68 12.36 -8 11 C-6.68 11 -5.36 11 -4 11 C-3.896875 10.484375 -3.79375 9.96875 -3.6875 9.4375 C-2.75736134 6.13973565 -1.38604488 3.13366668 0 0 Z " fill="#C4453E" transform="translate(34,207)"/>
<path d="M0 0 C0.33 1.32 0.66 2.64 1 4 C-1.92282987 7.24758875 -3.59685789 8.81181818 -8 9.40234375 C-11.06060911 9.4354513 -13.96860269 9.43111189 -17 9 C-17.66 8.34 -18.32 7.68 -19 7 C-19 6.34 -19 5.68 -19 5 C-18.09636719 4.87882813 -17.19273437 4.75765625 -16.26171875 4.6328125 C-15.08222656 4.46523437 -13.90273437 4.29765625 -12.6875 4.125 C-11.51574219 3.96257812 -10.34398437 3.80015625 -9.13671875 3.6328125 C-5.85469105 3.17699379 -5.85469105 3.17699379 -3 1 C-2.34 1 -1.68 1 -1 1 C-0.67 0.67 -0.34 0.34 0 0 Z " fill="#BBC2C7" transform="translate(204,213)"/>
<path d="M0 0 C0.66 1.32 1.32 2.64 2 4 C1.27554688 3.95230469 0.55109375 3.90460937 -0.1953125 3.85546875 C-3.370229 4.01907865 -5.0955059 4.8073107 -7.875 6.3125 C-8.73996094 6.76496094 -9.60492188 7.21742187 -10.49609375 7.68359375 C-11.32238281 8.11800781 -12.14867187 8.55242188 -13 9 C-19.45045045 12.18318318 -19.45045045 12.18318318 -23 11 C-22.34 11 -21.68 11 -21 11 C-21 10.01 -21 9.02 -21 8 C-19.39850114 7.32694982 -17.79368971 6.66177773 -16.1875 6 C-15.29417969 5.62875 -14.40085938 5.2575 -13.48046875 4.875 C-11 4 -11 4 -8 4 C-8.33 3.01 -8.66 2.02 -9 1 C-5.8035914 -0.06546953 -3.34252724 -0.07427838 0 0 Z " fill="#78878C" transform="translate(175,24)"/>
<path d="M0 0 C6.02117272 1.97553311 9.30626615 6.00506445 13 11 C13.68836513 12.99263591 14.36281399 14.99041337 15 17 C16.64487858 17.7187466 18.31619741 18.37788178 20 19 C25.60961514 22.0936748 29.75966588 24.72706446 32 31 C31.01 31.99 30.02 32.98 29 34 C28.7525 32.453125 28.7525 32.453125 28.5 30.875 C26.78024154 24.79442546 20.95030043 22.14723555 15.8125 19.125 C12.6347781 16.72405456 11.19151999 14.42695735 9.22265625 11.02734375 C6.73265097 6.89854905 3.49547682 3.31150435 0 0 Z " fill="#0E1418" transform="translate(43,189)"/>
<path d="M0 0 C3.53571429 0.53571429 3.53571429 0.53571429 5 2 C5.35897436 8.46153846 5.35897436 8.46153846 3 12 C1.125 11.6875 1.125 11.6875 -1 11 C-3 8 -3 8 -2.75 4.9375 C-2 2 -2 2 0 0 Z " fill="#323639" transform="translate(136,140)"/>
<path d="M0 0 C1.98 0 3.96 0 6 0 C6.99 1.98 7.98 3.96 9 6 C7.68 6.33 6.36 6.66 5 7 C5 6.34 5 5.68 5 5 C4.34 5 3.68 5 3 5 C4.61268692 7.71224618 6.24901874 10.37352812 8 13 C7.67 13.99 7.34 14.98 7 16 C0.32017937 9.59282511 0.32017937 9.59282511 -0.46484375 5.6875 C-0.4375 3.5 -0.4375 3.5 0 0 Z " fill="#43484B" transform="translate(26,188)"/>
<path d="M0 0 C-3.6632645 4.22684365 -6.9313863 5.72712795 -12.50390625 6.22265625 C-19.46014024 6.45554327 -19.46014024 6.45554327 -21.80078125 4.48046875 C-22.19652344 3.99191406 -22.59226562 3.50335938 -23 3 C-21.69675781 2.81824219 -21.69675781 2.81824219 -20.3671875 2.6328125 C-19.21476562 2.46523437 -18.06234375 2.29765625 -16.875 2.125 C-15.16957031 1.88136719 -15.16957031 1.88136719 -13.4296875 1.6328125 C-9.98454663 1.0792149 -9.98454663 1.0792149 -6.71875 -0.09375 C-3.88995187 -1.03668271 -2.73319333 -1.0512282 0 0 Z " fill="#286685" transform="translate(144,209)"/>
<path d="M0 0 C3.5625 0.25 3.5625 0.25 6.5625 2.25 C6.5625 3.9 6.5625 5.55 6.5625 7.25 C2.9325 6.92 -0.6975 6.59 -4.4375 6.25 C-4.7675 4.93 -5.0975 3.61 -5.4375 2.25 C-3.4375 0.25 -3.4375 0.25 0 0 Z " fill="#5B4D4B" transform="translate(167.4375,129.75)"/>
<path d="M0 0 C3.53571429 0.53571429 3.53571429 0.53571429 5 2 C5.1875 5.4375 5.1875 5.4375 5 9 C4.34 9.66 3.68 10.32 3 11 C0.375 10.625 0.375 10.625 -2 10 C-2.1953125 3.9453125 -2.1953125 3.9453125 -2 2 C-1.34 1.34 -0.68 0.68 0 0 Z " fill="#2A2C34" transform="translate(164,143)"/>
<path d="M0 0 C1.60533403 1.36104407 3.20361679 2.73095615 4.7734375 4.1328125 C7.01370439 6.08285615 7.01370439 6.08285615 9.7265625 7.8046875 C16.63424319 12.80545916 16.63424319 12.80545916 17.34472656 17.06835938 C17.49757395 22.11878159 16.83335126 27.02843184 16 32 C15.67 32 15.34 32 15 32 C14.93941406 31.11957031 14.87882813 30.23914063 14.81640625 29.33203125 C14.69072266 27.58986328 14.69072266 27.58986328 14.5625 25.8125 C14.48128906 24.66394531 14.40007812 23.51539063 14.31640625 22.33203125 C14.21199219 21.23246094 14.10757813 20.13289063 14 19 C13.92394531 18.13117188 13.84789062 17.26234375 13.76953125 16.3671875 C12.68400528 13.02795532 10.77402901 11.57377259 8.125 9.3125 C7.24070313 8.54550781 6.35640625 7.77851563 5.4453125 6.98828125 C2.97080366 4.91226172 2.97080366 4.91226172 0 3 C0 2.01 0 1.02 0 0 Z " fill="#181E25" transform="translate(201,392)"/>
<path d="M0 0 C4.1045531 1.82424582 7.70831818 4.15474026 10.3125 7.875 C11.6043844 11.86809723 11.47410987 14.90206136 9.8125 18.75 C7.66246214 21.41901252 6.32108532 22.2092654 3 23 C0.1875 22.625 0.1875 22.625 -2 22 C-2 21.67 -2 21.34 -2 21 C-0.906875 20.9175 0.18625 20.835 1.3125 20.75 C4.94669885 20.32656162 4.94669885 20.32656162 6.9375 18.3125 C8.42482538 15.07538005 8.68241405 13.54855304 8 10 C6.3474068 7.74608154 4.56312413 5.75065061 2.62890625 3.734375 C1 2 1 2 0 0 Z " fill="#C6180F" transform="translate(279,109)"/>
<path d="M0 0 C0.33 0.66 0.66 1.32 1 2 C1.99 2.33 2.98 2.66 4 3 C7 4 7 4 8 6 C6.96875 6.268125 5.9375 6.53625 4.875 6.8125 C2.30604502 7.52382419 0.59068691 8.24186683 -1.75 9.625 C-6.46901997 11.62150845 -10.94507462 11.24285229 -16 11 C-16 10.67 -16 10.34 -16 10 C-15.25234375 9.89042969 -14.5046875 9.78085938 -13.734375 9.66796875 C-12.74953125 9.50941406 -11.7646875 9.35085937 -10.75 9.1875 C-9.77546875 9.03667969 -8.8009375 8.88585937 -7.796875 8.73046875 C-4.83243451 7.95623639 -3.21639147 7.09325861 -1 5 C-0.1957792 2.40144267 -0.1957792 2.40144267 0 0 Z " fill="#C4C9CD" transform="translate(173,214)"/>
<path d="M0 0 C0.66 0.33 1.32 0.66 2 1 C1.505 2.19625 1.01 3.3925 0.5 4.625 C-0.85911235 8.21101476 -1.2899464 11.13404799 -1 15 C-1.99 15.33 -2.98 15.66 -4 16 C-5.57991444 12.84017111 -5.34420735 10.49944139 -5 7 C-3.55480176 4.3925794 -1.89879493 2.32602379 0 0 Z " fill="#B93830" transform="translate(116,122)"/>
<path d="M0 0 C3.45809994 0.29640857 4.95510879 0.96346065 7.6875 3.1875 C10.17204382 6.20924248 11.29466977 8.15986872 12 12 C11.125 15.375 11.125 15.375 10 18 C9.34 18 8.68 18 8 18 C8.05800781 17.33613281 8.11601562 16.67226562 8.17578125 15.98828125 C8.55017315 10.07908355 8.55017315 10.07908355 5.6875 5.0625 C4.800625 4.381875 3.91375 3.70125 3 3 C2 2 1 1 0 0 Z " fill="#1F6C9B" transform="translate(214,183)"/>
<path d="M0 0 C-0.33 0.66 -0.66 1.32 -1 2 C-1.99 1.9175 -2.98 1.835 -4 1.75 C-10.57786413 1.78978547 -15.33582135 5.1140735 -19.875 9.625 C-20.92442834 10.74276321 -21.96727129 11.86678958 -23 13 C-23.66 13.66 -24.32 14.32 -25 15 C-25 10.97087939 -23.52673546 9.68859462 -20.89453125 6.78515625 C-14.54664612 0.80374696 -8.58216431 -0.80625761 0 0 Z " fill="#B1B2B5" transform="translate(168,331)"/>
<path d="M0 0 C2.17854707 3.2678206 3.49760034 6.38058265 5 10 C5.99 9.67 6.98 9.34 8 9 C8.33 6.69 8.66 4.38 9 2 C9.33 2 9.66 2 10 2 C10 5.63 10 9.26 10 13 C5 13 5 13 2.1875 10.4375 C-0.40361534 7.04475835 -0.42320237 4.23202372 0 0 Z " fill="#BB2F27" transform="translate(111,148)"/>
<path d="M0 0 C1.65 0 3.3 0 5 0 C4.67 0.99 4.34 1.98 4 3 C3.34 2.67 2.68 2.34 2 2 C2.16113281 2.53496094 2.32226562 3.06992188 2.48828125 3.62109375 C3.1028387 6.4780822 3.16939801 9.14083825 3.1875 12.0625 C3.20167969 13.10535156 3.21585937 14.14820313 3.23046875 15.22265625 C3 18 3 18 1 21 C0.67 14.07 0.34 7.14 0 0 Z " fill="#E3463D" transform="translate(87,225)"/>
<path d="M0 0 C2.40279588 1.12988616 3.56523195 2.42138369 5.21875 4.48828125 C5.73953125 5.12894531 6.2603125 5.76960938 6.796875 6.4296875 C7.18359375 6.92339844 7.5703125 7.41710937 7.96875 7.92578125 C4.18244298 7.17011073 2.5646456 5.79980852 -0.03125 2.92578125 C-3.84809226 4.48079106 -6.22320732 6.9617362 -9.03125 9.92578125 C-9.03125 6.24505864 -8.29393257 5.73069378 -5.78125 3.17578125 C-5.17796875 2.5415625 -4.5746875 1.90734375 -3.953125 1.25390625 C-2.03125 -0.07421875 -2.03125 -0.07421875 0 0 Z " fill="#A42A25" transform="translate(255.03125,86.07421875)"/>
<path d="M0 0 C1.20369692 3.61109076 0.42717785 4.79428611 -1.20507812 8.09375 C-1.52927734 8.7228125 -1.85347656 9.351875 -2.1875 10 C-2.64479492 10.94359375 -2.64479492 10.94359375 -3.11132812 11.90625 C-4.91894165 15.48358158 -6.54344649 17.91533802 -10 20 C-10.66 19.34 -11.32 18.68 -12 18 C-11.01 18 -10.02 18 -9 18 C-8.74476563 17.48953125 -8.48953125 16.9790625 -8.2265625 16.453125 C-5.484375 10.96875 -2.7421875 5.484375 0 0 Z " fill="#BDC0C5" transform="translate(222,160)"/>
<path d="M0 0 C0.66 0.33 1.32 0.66 2 1 C2.33 1.99 2.66 2.98 3 4 C-1.43076923 7.07692308 -1.43076923 7.07692308 -4.3125 6.6875 C-4.869375 6.460625 -5.42625 6.23375 -6 6 C-5.67 5.67 -5.34 5.34 -5 5 C-6.65 5 -8.3 5 -10 5 C-6.76527494 2.84351662 -3.62848922 1.38542316 0 0 Z " fill="#235E7E" transform="translate(180,188)"/>
<path d="M0 0 C0.66 0 1.32 0 2 0 C2.309375 0.94875 2.61875 1.8975 2.9375 2.875 C5.63849424 9.28658342 11.15154934 14.15154934 16 19 C10.95604115 18.43956013 8.471088 14.75890957 5.3828125 11.06640625 C0.28872382 4.6195811 0.28872382 4.6195811 0 0 Z " fill="#13171B" transform="translate(36,228)"/>
<path d="M0 0 C1.98 0.495 1.98 0.495 4 1 C4 6.61 4 12.22 4 18 C1.8008587 13.60171741 1.48144941 10.81449408 1 6 C0.34 6.99 -0.32 7.98 -1 9 C-1.125 2.25 -1.125 2.25 0 0 Z " fill="#E54035" transform="translate(242,212)"/>
<path d="M0 0 C0.99 0.33 1.98 0.66 3 1 C2.505 1.53625 2.01 2.0725 1.5 2.625 C-0.37489544 5.59358445 -0.23501425 7.55312427 0 11 C1.65 11.33 3.3 11.66 5 12 C5 12.33 5 12.66 5 13 C3.35 13 1.7 13 0 13 C-0.33 13.66 -0.66 14.32 -1 15 C-3.45416273 11.3187559 -3.59384154 8.27738037 -3 4 C-1.5 1.5 -1.5 1.5 0 0 Z " fill="#266B8D" transform="translate(105,187)"/>
<path d="M0 0 C0.9075 0.61875 1.815 1.2375 2.75 1.875 C7.77762462 4.79827865 13.3113626 5.29008794 19 6 C19 6.33 19 6.66 19 7 C18.0925 7.144375 17.185 7.28875 16.25 7.4375 C13.14786241 7.90035441 13.14786241 7.90035441 10.8125 8.6875 C9 9 9 9 6 7 C5.319375 6.484375 4.63875 5.96875 3.9375 5.4375 C2.06034213 3.95776051 2.06034213 3.95776051 0 3 C0 2.01 0 1.02 0 0 Z " fill="#D2D1D4" transform="translate(174,213)"/>
<path d="M0 0 C3.36179774 1.44077046 5.59156268 3.24750021 8 6 C8 6.66 8 7.32 8 8 C7.01 8.33 6.02 8.66 5 9 C2.5 6.75 2.5 6.75 0 4 C0 2.68 0 1.36 0 0 Z " fill="#4C5052" transform="translate(137,169)"/>
<path d="M0 0 C-1.2065625 0.86625 -1.2065625 0.86625 -2.4375 1.75 C-5.37853204 3.90202155 -5.37853204 3.90202155 -6 8 C-2.37 8 1.26 8 5 8 C5 8.33 5 8.66 5 9 C0.38 9.66 -4.24 10.32 -9 11 C-7.5372617 2.58925477 -7.5372617 2.58925477 -5.0625 -0.125 C-3 -1 -3 -1 0 0 Z " fill="#E5E4E7" transform="translate(198,169)"/>
<path d="M0 0 C1.32 0.66 2.64 1.32 4 2 C3.34 4.31 2.68 6.62 2 9 C1.34 9 0.68 9 0 9 C-0.33 9.99 -0.66 10.98 -1 12 C-2.3609623 9.2780754 -1.70366248 7.8168043 -1.0625 4.875 C-0.86785156 3.96492187 -0.67320313 3.05484375 -0.47265625 2.1171875 C-0.31667969 1.41851562 -0.16070312 0.71984375 0 0 Z " fill="#D84F43" transform="translate(36,202)"/>
<path d="M0 0 C3.3 0.66 6.6 1.32 10 2 C10 2.99 10 3.98 10 5 C2.57142857 5.28571429 2.57142857 5.28571429 -1 3 C-0.67 2.01 -0.34 1.02 0 0 Z " fill="#3A454E" transform="translate(144,175)"/>
<path d="M0 0 C2.24973447 -0.054138 4.49984383 -0.09285491 6.75 -0.125 C8.00296875 -0.14820313 9.2559375 -0.17140625 10.546875 -0.1953125 C14 0 14 0 18 2 C9.585 2.495 9.585 2.495 1 3 C0.67 2.01 0.34 1.02 0 0 Z " fill="#E55A51" transform="translate(180,366)"/>
<path d="M0 0 C-0.33 1.65 -0.66 3.3 -1 5 C-7.75 5.125 -7.75 5.125 -10 4 C-7.75282684 -0.49434631 -4.47478037 -0.19887913 0 0 Z " fill="#C2C7CB" transform="translate(132,215)"/>
<path d="M0 0 C0.99 0.66 1.98 1.32 3 2 C2.71715982 3.77226453 2.42339502 5.542788 2.125 7.3125 C1.96257812 8.29863281 1.80015625 9.28476563 1.6328125 10.30078125 C1 13 1 13 -1 16 C-1.66 15.67 -2.32 15.34 -3 15 C-2.690625 14.195625 -2.38125 13.39125 -2.0625 12.5625 C-0.81434483 8.37750913 -0.3662304 4.33693899 0 0 Z " fill="#1A2329" transform="translate(304,162)"/>
<path d="M0 0 C0.66 0.33 1.32 0.66 2 1 C2 3.31 2 5.62 2 8 C0.02 8.99 0.02 8.99 -2 10 C-3.39195915 5.82412255 -1.82323219 3.86525224 0 0 Z " fill="#36383A" transform="translate(165,144)"/>
<path d="M0 0 C0.98484375 0.01804688 1.9696875 0.03609375 2.984375 0.0546875 C4.10585937 0.08949219 4.10585937 0.08949219 5.25 0.125 C4.59 1.445 3.93 2.765 3.25 4.125 C-1.12934119 3.60541715 -5.43803391 3.06824258 -9.75 2.125 C-6.40060119 0.09941119 -3.88037449 -0.09238987 0 0 Z " fill="#396B7F" transform="translate(171.75,191.875)"/>
<path d="M0 0 C0.33 0.66 0.66 1.32 1 2 C0.16855469 2.45439453 0.16855469 2.45439453 -0.6796875 2.91796875 C-5.37223874 5.55880713 -5.37223874 5.55880713 -8.5 9.8125 C-8.665 10.534375 -8.83 11.25625 -9 12 C-9.625 10.1875 -9.625 10.1875 -10 8 C-9.34 7.01 -8.68 6.02 -8 5 C-7.34 5 -6.68 5 -6 5 C-6 3.68 -6 2.36 -6 1 C-4.02 0.67 -2.04 0.34 0 0 Z " fill="#F9AD69" transform="translate(199,164)"/>
<path d="M0 0 C0.33 0.99 0.66 1.98 1 3 C-0.14453125 5.15625 -0.14453125 5.15625 -1.8125 7.5 C-2.35519531 8.2734375 -2.89789063 9.046875 -3.45703125 9.84375 C-4.22080078 10.91109375 -4.22080078 10.91109375 -5 12 C-5.66 12.99 -6.32 13.98 -7 15 C-6.72694671 8.44672101 -4.18788859 4.93069452 0 0 Z " fill="#191F22" transform="translate(259,187)"/>
<path d="M0 0 C-2.85508218 1.440578 -5.72317245 2.84334242 -8.625 4.1875 C-9.40101562 4.55230469 -10.17703125 4.91710937 -10.9765625 5.29296875 C-11.64429687 5.52628906 -12.31203125 5.75960937 -13 6 C-13.66 5.67 -14.32 5.34 -15 5 C-14.67 3.68 -14.34 2.36 -14 1 C-4.58997722 -0.14806378 -4.58997722 -0.14806378 0 0 Z " fill="#DAE2E7" transform="translate(125,178)"/>
<path d="M0 0 C0.99 0.99 1.98 1.98 3 3 C2.55149342 4.81495662 2.09090429 6.62693134 1.625 8.4375 C1.24214844 9.95150391 1.24214844 9.95150391 0.8515625 11.49609375 C0 14 0 14 -2 15 C-2.19392201 9.47322267 -1.7479503 5.24385089 0 0 Z " fill="#F3A66C" transform="translate(189,149)"/>
<path d="M0 0 C4.88049925 3.9419417 9.0580583 8.11950075 13 13 C10 13 10 13 7.51953125 10.6640625 C6.60862148 9.65873726 5.70656694 8.64533316 4.8125 7.625 C4.34908203 7.11710937 3.88566406 6.60921875 3.40820312 6.0859375 C0 2.27115933 0 2.27115933 0 0 Z " fill="#AC1711" transform="translate(245,97)"/>
<path d="M0 0 C0.66 0 1.32 0 2 0 C2.696553 1.95513161 3.38199565 3.91422476 4.0625 5.875 C4.44535156 6.96554687 4.82820312 8.05609375 5.22265625 9.1796875 C6 12 6 12 5 14 C3 13 3 13 2.1484375 10.8203125 C1.89320313 9.93085938 1.63796875 9.04140625 1.375 8.125 C1.11460937 7.24070312 0.85421875 6.35640625 0.5859375 5.4453125 C0 3 0 3 0 0 Z " fill="#C02D22" transform="translate(220,342)"/>
<path d="M0 0 C0.66 0.33 1.32 0.66 2 1 C1.52153935 5.30614589 0.34073619 7.24880549 -3 10 C-6.28976808 11.09658936 -7.71303767 10.79953138 -11 10 C-11 9.67 -11 9.34 -11 9 C-9.906875 8.9175 -8.81375 8.835 -7.6875 8.75 C-4.02500718 8.34926707 -4.02500718 8.34926707 -2.125 6.1875 C-1.05350162 4.10403092 -0.41077678 2.30034998 0 0 Z " fill="#C01E15" transform="translate(288,121)"/>
<path d="M0 0 C0.66 0.66 1.32 1.32 2 2 C-5.28571429 6.42857143 -5.28571429 6.42857143 -10 7 C-10.33 6.34 -10.66 5.68 -11 5 C-7.37 3.35 -3.74 1.7 0 0 Z " fill="#AB241D" transform="translate(118,46)"/>
<path d="M0 0 C-3.44833324 2.05257931 -5.31661591 3.0632763 -9.375 2.6875 C-10.24125 2.460625 -11.1075 2.23375 -12 2 C-12.33 2.66 -12.66 3.32 -13 4 C-13 2.68 -13 1.36 -13 0 C-11.58456585 -0.19658808 -10.16755969 -0.38187546 -8.75 -0.5625 C-7.96109375 -0.66691406 -7.1721875 -0.77132812 -6.359375 -0.87890625 C-3.99467126 -1.00027349 -2.2488963 -0.69633257 0 0 Z " fill="#E0E0E1" transform="translate(217,206)"/>
<path d="M0 0 C3.43927579 1.2419607 6.25207819 2.55740284 9 5 C9 5.66 9 6.32 9 7 C4.56909529 5.79157144 2.01887244 4.48331435 -1 1 C-0.67 0.67 -0.34 0.34 0 0 Z " fill="#353C40" transform="translate(264,184)"/>
<path d="M0 0 C-0.99 3.63 -1.98 7.26 -3 11 C-3.66 10.67 -4.32 10.34 -5 10 C-4.47731534 7.23723823 -3.89130413 4.6739124 -3 2 C-4.32 1.67 -5.64 1.34 -7 1 C-2.25 0 -2.25 0 0 0 Z " fill="#B9241A" transform="translate(143,345)"/>
<path d="M0 0 C2 1 2 1 3.3125 4 C4.68545206 7.23296223 4.68545206 7.23296223 7.6875 7.875 C8.8321875 7.936875 8.8321875 7.936875 10 8 C10 8.66 10 9.32 10 10 C7.3125 9.9375 7.3125 9.9375 4 9 C2.00635346 6.85695876 0.48467893 4.51607093 -1 2 C-0.67 1.34 -0.34 0.68 0 0 Z " fill="#9D150B" transform="translate(25,220)"/>
<path d="M0 0 C1.79240663 0.11389875 3.58394835 0.24147687 5.375 0.375 C6.87160156 0.47941406 6.87160156 0.47941406 8.3984375 0.5859375 C11 1 11 1 13 3 C11.39667209 3.08121924 9.79215974 3.13929134 8.1875 3.1875 C7.29417969 3.22230469 6.40085937 3.25710937 5.48046875 3.29296875 C2.58352485 2.95081002 1.77444972 2.24606427 0 0 Z " fill="#1F5C7C" transform="translate(105,200)"/>
<path d="M0 0 C4.29951803 1.59241408 6.39671947 4.35540725 9 8 C8.67 8.99 8.34 9.98 8 11 C7.59007812 10.50628906 7.18015625 10.01257813 6.7578125 9.50390625 C6.21898437 8.86324219 5.68015625 8.22257812 5.125 7.5625 C4.59132812 6.92441406 4.05765625 6.28632813 3.5078125 5.62890625 C2.0777243 3.89194996 2.0777243 3.89194996 0 3 C0 2.01 0 1.02 0 0 Z " fill="#13191B" transform="translate(231,365)"/>
<path d="M0 0 C0.93423645 3.01031744 1.04449911 3.86650268 0 7 C-2.97 6.505 -2.97 6.505 -6 6 C-2.25 1.125 -2.25 1.125 0 0 Z " fill="#CFD3D7" transform="translate(218,203)"/>
<path d="M0 0 C2.33528415 0.17298401 3.69177582 0.70225369 5.37890625 2.33203125 C9 6.57211538 9 6.57211538 9 9 C8.34 9 7.68 9 7 9 C7 8.34 7 7.68 7 7 C6.01 6.67 5.02 6.34 4 6 C2.60287726 4.04402816 1.26220093 2.04563599 0 0 Z " fill="#2D3538" transform="translate(24,196)"/>
<path d="M0 0 C0.66 0.33 1.32 0.66 2 1 C-0.66666667 3.66666667 -3.33333333 6.33333333 -6 9 C-6.99 8.67 -7.98 8.34 -9 8 C-6.03 5.36 -3.06 2.72 0 0 Z " fill="#2F3437" transform="translate(143,367)"/>
<path d="M0 0 C2.475 0.99 2.475 0.99 5 2 C5 2.66 5 3.32 5 4 C5.66 4.66 6.32 5.32 7 6 C5.02 6 3.04 6 1 6 C0.67 4.02 0.34 2.04 0 0 Z " fill="#DACDCC" transform="translate(91,352)"/>
<path d="M0 0 C0.99 0.33 1.98 0.66 3 1 C0.69 3.64 -1.62 6.28 -4 9 C-4.99 8.67 -5.98 8.34 -7 8 C-6.21625 7.236875 -5.4325 6.47375 -4.625 5.6875 C-1.92742283 3.09108195 -1.92742283 3.09108195 0 0 Z " fill="#D1C9CA" transform="translate(250,203)"/>
<path d="M0 0 C2.97 0.33 5.94 0.66 9 1 C8.67 1.99 8.34 2.98 8 4 C5.69 3.67 3.38 3.34 1 3 C0.67 2.01 0.34 1.02 0 0 Z " fill="#C23326" transform="translate(76,263)"/>
<path d="M0 0 C2.37948772 0.17625835 3.70225849 0.69719773 5.37890625 2.40234375 C6.62115486 3.90649092 7.81376056 5.45129851 9 7 C6.62051228 6.82374165 5.29774151 6.30280227 3.62109375 4.59765625 C2.37884514 3.09350908 1.18623944 1.54870149 0 0 Z " fill="#981B16" transform="translate(254,87)"/>
<path d="M0 0 C2.125 0.375 2.125 0.375 4 1 C4 1.99 4 2.98 4 4 C2.68 4.33 1.36 4.66 0 5 C0 4.34 0 3.68 0 3 C-0.66 2.67 -1.32 2.34 -2 2 C-1.34 1.34 -0.68 0.68 0 0 Z " fill="#252C35" transform="translate(136,140)"/>
<path d="M0 0 C0.99 0 1.98 0 3 0 C3.99 1.98 4.98 3.96 6 6 C5.01 6.99 4.02 7.98 3 9 C2.690625 7.88625 2.38125 6.7725 2.0625 5.625 C1.17673517 2.2054845 1.17673517 2.2054845 0 0 Z " fill="#233033" transform="translate(69,214)"/>
<path d="M0 0 C0.53625 0.78375 1.0725 1.5675 1.625 2.375 C4.30242842 5.33426299 6.18433025 6.04608256 10 7 C6.97786398 7.97140086 4.9812093 8.19248372 2 7 C0 4 0 4 0 0 Z " fill="#2D6B88" transform="translate(145,210)"/>
<path d="M0 0 C0.33 0 0.66 0 1 0 C0.64766839 5.4611399 0.64766839 5.4611399 0 8 C-2.0625 9.5 -2.0625 9.5 -4 10 C-3.71125 9.46375 -3.4225 8.9275 -3.125 8.375 C-1.83288192 5.64719516 -0.91441408 2.87387282 0 0 Z " fill="#A73E3A" transform="translate(34,207)"/>
<path d="M0 0 C0.66 0 1.32 0 2 0 C2 0.66 2 1.32 2 2 C3.65 1.67 5.3 1.34 7 1 C5.875 2.5 5.875 2.5 4 4 C0.8125 4.1875 0.8125 4.1875 -2 4 C-1.34 2.68 -0.68 1.36 0 0 Z " fill="#B5332B" transform="translate(202,161)"/>
<path d="M0 0 C0.33 0.99 0.66 1.98 1 3 C0.01 3.33 -0.98 3.66 -2 4 C-1.34 2.68 -0.68 1.36 0 0 Z M-4 5 C-4 8 -4 8 -4 8 Z " fill="#C4C5CB" transform="translate(112,109)"/>
<path d="M0 0 C2.97 0.33 5.94 0.66 9 1 C8.67 1.99 8.34 2.98 8 4 C5.125 3.6875 5.125 3.6875 2 3 C1.34 2.01 0.68 1.02 0 0 Z " fill="#215D7C" transform="translate(149,217)"/>
<path d="M0 0 C0.66 0.33 1.32 0.66 2 1 C0.35 2.32 -1.3 3.64 -3 5 C-5.475 4.01 -5.475 4.01 -8 3 C-8 2.67 -8 2.34 -8 2 C-6.865625 1.855625 -5.73125 1.71125 -4.5625 1.5625 C-1.19222799 1.38828522 -1.19222799 1.38828522 0 0 Z " fill="#ECAF7C" transform="translate(138,113)"/>
<path d="M0 0 C0.66 0 1.32 0 2 0 C3.32 2.64 4.64 5.28 6 8 C2 6 2 6 0.75 2.875 C0.5025 1.92625 0.255 0.9775 0 0 Z " fill="#E0342A" transform="translate(175,358)"/>
<path d="M0 0 C0.99 0.33 1.98 0.66 3 1 C1 4 1 4 -1.625 4.6875 C-2.800625 4.8421875 -2.800625 4.8421875 -4 5 C-4.33 4.34 -4.66 3.68 -5 3 C-3.35 2.67 -1.7 2.34 0 2 C0 1.34 0 0.68 0 0 Z " fill="#B6241C" transform="translate(257,246)"/>
<path d="M0 0 C0.99 0.33 1.98 0.66 3 1 C1.625 3 1.625 3 0 5 C-0.66 5 -1.32 5 -2 5 C-2.33 5.99 -2.66 6.98 -3 8 C-2.45276317 4.62537285 -1.9451 2.91765 0 0 Z " fill="#25769A" transform="translate(105,187)"/>
<path d="M0 0 C0.33 0 0.66 0 1 0 C1 3.3 1 6.6 1 10 C-0.32 10 -1.64 10 -3 10 C-3 9.34 -3 8.68 -3 8 C-2.34 7.67 -1.68 7.34 -1 7 C-0.59270772 4.67843403 -0.25561323 2.3431213 0 0 Z " fill="#BB3735" transform="translate(120,150)"/>
<path d="M0 0 C1.65 0 3.3 0 5 0 C3.35 1.65 1.7 3.3 0 5 C-0.66 4.67 -1.32 4.34 -2 4 C-1.34 2.68 -0.68 1.36 0 0 Z " fill="#F4A970" transform="translate(194,147)"/>
</svg>
