<svg xmlns="http://www.w3.org/2000/svg" width="263" height="335"><path fill="#B1411C" d="m225.875 29.813 1.805 1.394c1.975 2.682 1.712 4.54 1.32 7.793-1.18 2.438-1.18 2.438-2.875 5-3.62 5.882-6.534 11.957-9.375 18.25l-1.285 2.832A578 578 0 0 0 212 73l-.868 1.889c-2.976 6.976-3.695 14.665-4.82 22.111l-.681 4.371Q204.803 106.684 204 112l3.465-.98c4.412-1.099 8.566-1.353 13.097-1.332l2.17-.05c6.493-.005 11.17 1.451 16.08 5.924L241 118l2 2c2.25 10.653 2.656 23.83-3 33.375-2 2.625-2 2.625-4 4.625l2.125-1c3.217-1.119 5.493-1.368 8.875-1 1.875 1 1.875 1 3 3 .985 7.02-1.027 12.2-5 18-4.17 4.525-8.155 7.942-14 10l1.5 3.063c1.603 3.778 1.959 6.809 1.5 10.937-2.142 4.848-5.58 7.488-10 10.25-2.428.91-4.428.893-7 .75l-.043 1.793c-.258 4.274-.53 6.635-3.144 10.144-5.05 3.703-9.764 4.296-15.86 4.524L196 229a75 75 0 0 0-2 4c-1.945 1.484-1.945 1.484-4.125 2.75l-2.195 1.297L186 238l.863 1.672C188 242 188 242 188.98 244.516c3.833 8.683 9.719 11.773 17.935 15.524 3.489 1.607 6.906 3.356 10.335 5.085l4.012 2c13.722 6.87 23.2 12.532 29.113 27.313.855 4.874.786 9.627.625 14.562-17.716 9.275-36.562 14.62-56.187 18.25l-2.437.457c-17.097 2.988-34.113 3.668-51.439 3.606l-3.273-.007c-16.073-.051-31.807-.436-47.664-3.306l-3.361-.586C67.612 324.003 46.47 319.651 30 309c-3.025-6.05-1.174-14.32.813-20.437 1.35-3.805 2.884-7.233 5.187-10.563h2l.691-1.781c1.677-2.843 3.466-3.94 6.246-5.719 1.068-.69 2.135-1.382 3.235-2.094a924 924 0 0 1 8.531-5.312q2.493-1.546 4.984-3.094l2.494-1.55c5.256-3.318 9.896-6.74 14.323-11.122C80 246 80 246 82 246l1-3h2l2-5-1.723-.156c-6.177-.908-9.033-2.986-12.965-7.774-1.305-2.06-1.884-3.685-2.312-6.07l-1.758-.078c-6.866-.499-10.895-2.258-15.555-7.547-3.11-4.377-2.772-7.09-2.687-12.375l-3 .375c-4.326-.026-6.92-1.767-10.195-4.469C33.762 196.693 32.05 193.287 31 189c.141-4.378.573-6.36 3-10l-2.23-1.285c-7-4.208-12.098-7.7-14.77-15.715a119 119 0 0 1-.062-5.687l.027-3.012L17 151c5.18-1.351 7.319-.295 12 2l-1.242-1.758C22.457 143.557 20.004 137.436 21 128c1.214-3.399 2.12-5.266 4.875-7.562C28 120 28 120 30.5 121.125c2.397 1.798 4.386 3.761 6.5 5.875h2c.806-1.775.806-1.775 1-4-1.313-2.212-1.313-2.212-3.25-4.312-4.991-6.107-7.118-10.766-6.953-18.77C30 98 30 98 31 96h2v-2c8.224-.914 13.173 2.174 19.536 7.217a333 333 0 0 1 7.702 6.513c2.675 2.319 2.675 2.319 5.617 3.946L68 113v2h3l.148-2.887.227-3.8c.07-1.242.14-2.483.21-3.762.404-3.458.85-6.986 3.415-9.551.134-20.46-3.912-41.898-10.812-61.125-1.133-3.342-1.68-5.518-.188-8.875 6.45-8.263 17.165-10.296 27-12l2.417-.419c38.335-6.28 100.29-8.717 132.458 17.232"/><path fill="#354A43" d="m225.875 29.813 1.805 1.394c1.975 2.682 1.712 4.54 1.32 7.793-1.18 2.438-1.18 2.438-2.875 5-3.62 5.882-6.534 11.957-9.375 18.25l-1.285 2.832A578 578 0 0 0 212 73l-.868 1.889c-2.976 6.976-3.695 14.665-4.82 22.111l-.681 4.371Q204.803 106.684 204 112l3.465-.98c4.412-1.099 8.566-1.353 13.097-1.332l2.17-.05c6.495-.005 12.462 1.734 17.268 6.362 2.51 5.257 2.82 10.27 2 16-3.09 4.634-7.63 6.857-13 8-5.376.316-9.926-.497-15.062-1.875l-2.065-.527c-3.005-.78-5.945-1.624-8.87-2.668-7.888-2.442-16.317-2.218-24.503-2.493l-3.648-.13q-4.425-.159-8.852-.307v2c-33.122 7.118-77.824 11.044-110-2l-3.562-.25C49 131 49 131 47 128.313L45 125c-2.223-2.141-4.581-4.084-7-6l1-5-4-2 1-7h3v-7l2-1-6-1v-1c6.75.75 6.75.75 9 3l3.242.816c4.138 1.304 6.74 3.264 9.883 6.121 2.806 2.49 5.495 4.839 8.742 6.754L68 113v2h3l.148-2.887.227-3.8c.07-1.242.14-2.483.21-3.762.404-3.458.85-6.986 3.415-9.551.134-20.46-3.912-41.898-10.812-61.125-1.133-3.342-1.68-5.518-.188-8.875 6.45-8.263 17.165-10.296 27-12l2.417-.419c38.335-6.28 100.29-8.717 132.458 17.232"/><path fill="#732B19" d="M165 224c1.602 4.806-.825 8.059-2.957 12.465-5.398 9.865-14.68 17.253-23.267 24.26-1.645 1.364-3.218 2.813-4.776 4.275v5l2.57-1.687c7.355-4.796 14.795-9.32 22.47-13.586L162 253l2.352-1.121c2.863-3.264 2.33-7.378 2.398-11.566l.09-2.706q.105-3.303.16-6.607c11.159 3.055 11.159 3.055 15 6v2l2.32.648c3.495 1.763 3.972 3.444 5.555 6.977 4.09 7.402 9.677 10.1 17.056 13.43 3.488 1.593 6.896 3.343 10.319 5.07l4.012 2c13.722 6.87 23.2 12.532 29.113 27.313.855 4.874.786 9.627.625 14.562-17.716 9.275-36.562 14.62-56.187 18.25l-2.437.457c-17.097 2.988-34.113 3.668-51.439 3.606l-3.273-.007c-16.073-.051-31.807-.436-47.664-3.306l-3.361-.586C67.612 324.003 46.47 319.651 30 309c-3.025-6.05-1.174-14.32.813-20.437 1.35-3.805 2.884-7.233 5.187-10.563h2l.691-1.781c1.677-2.843 3.466-3.94 6.246-5.719l3.208-2.07Q50.07 267.212 52 266l2.392-1.507 2.557-1.61 2.588-1.631a1367 1367 0 0 1 5.139-3.215l2.394-1.498 2.15-1.337c1.918-1.213 1.918-1.213 3.78-3.202q2.491-1.021 5-2l3-2 3-1c1.709-3 1.709-3 3-6h3l1.54 2.816C95.202 250.43 98.783 256.475 104 262c1.342 1.66 2.68 3.323 4 5 2.824-.618 5.185-1.486 7.746-2.82a293 293 0 0 1 8.29-4.11c7.09-3.408 13.214-6.594 18.964-12.07h2v-2c1.272-1.031 2.595-2 3.938-2.937C155.515 238.109 161.605 231.59 165 224"/><path fill="#3B2C2F" d="m84 17-2 1v2h2q.976 3.53 1.938 7.063l.552 1.99C92.187 50.079 90.117 73.386 90 95l3.063-.937c8.66-2.46 17.454-2.302 26.374-2.313l2.177-.005C132.1 91.743 141.797 92.474 152 95q3.495.625 7 1.188l2.938.48c.68.11 1.36.22 2.062.332v-6h1c.118 6.02-.09 11.887-.781 17.871-.33 4.708-.257 9.412-.219 14.129a39372 39372 0 0 0 17.53-5.08l6.396-1.854 2.008-.58c2.706-.786 5.392-1.595 8.066-2.486.974-1.904.974-1.904 1.605-4.254l.791-2.588.792-2.72.826-2.733A728 728 0 0 0 204 94c1.112 3.91.9 7.19.563 11.25l-.31 3.828L204 112l3.465-.98c4.412-1.099 8.566-1.353 13.097-1.332l2.17-.05c6.495-.005 12.462 1.734 17.268 6.362 2.51 5.257 2.82 10.27 2 16-3.09 4.634-7.63 6.857-13 8-5.376.316-9.926-.497-15.062-1.875l-2.065-.527c-3.005-.78-5.945-1.624-8.87-2.668-7.888-2.442-16.317-2.218-24.503-2.493l-3.648-.13q-4.425-.159-8.852-.307v2c-33.122 7.118-77.824 11.044-110-2l-3.562-.25C49 131 49 131 47 128.313L45 125c-2.223-2.141-4.581-4.084-7-6l1-5-4-2 1-7h3v-7l2-1-6-1v-1c6.75.75 6.75.75 9 3l3.242.816c4.138 1.304 6.74 3.264 9.883 6.121 2.806 2.49 5.495 4.839 8.742 6.754L68 113v2h3l.148-2.887.227-3.8c.07-1.242.14-2.483.21-3.762.404-3.458.85-6.986 3.415-9.551.134-20.46-3.912-41.898-10.812-61.125-1.133-3.342-1.68-5.518-.188-8.875 4.767-6.459 12.26-8.263 20-8"/><path fill="#F5CDAA" d="M99 153h26l-4 7c-.305 2.626-.191 4.362.563 6.875.437 2.125.437 2.125-.25 5.375-.39 4.67.712 8.088 3.687 11.75 2.067.772 2.067.772 4 1l-.75-3.187C128 178 128 178 129.625 175.125c2.564-2.294 3.992-2.843 7.375-3.125l-1 2c-.467 5.202-.467 5.202 1.063 10 3.106 1.603 5.517 1.428 8.937 1 2.65-2.223 2.955-3.569 3.313-7-.3-2.87-.817-4.568-2.313-7 3.89 1.297 6.525 2.668 9 6 0 3.222-.726 4.645-2.687 7.188-5.099 3.995-11.07 4.285-17.313 4.812 1.52 1.52 2.881 1.316 5 1.438 5.121-.017 8.058-1.998 12.055-5.028C155 184 155 184 158 183l3-15 3 1v6h2l1-2 1.758 2.082 2.367 2.73 2.32 2.708c2.682 2.603 5.147 3.993 8.555 5.48q-.966 2.688-1.937 5.375l-1.09 3.023C178 197 178 197 177 199l3-1c1.58-3.283 2.848-6.545 4-10l9 1c.663 7.161-1.132 11.963-5 18-3.33 3.689-6.17 4.51-10.937 5.02-2.448-.024-4.673-.517-7.063-1.02-1.372 6.03-2.128 11.796-2.133 17.988l-.008 3.639q.016 3.715.102 7.43c-.076 8.77-.076 8.77-2.477 11.952-2.079 1.615-4.136 2.804-6.484 3.991l-2.264 1.315a220 220 0 0 1-6.923 3.81c-4.98 2.656-9.427 5.29-13.813 8.875h-2l-2-4q2.748-2.533 5.5-5.062l1.663-1.531a301 301 0 0 1 9.087-8.032c8.566-7.55 13.224-14.408 16.75-25.375l-1.137 1.54C153.651 241.275 153.651 241.275 147 246h-2v2c-7.433 6.598-16.111 10.786-25 15a860 860 0 0 0-4.625 2.375c-2.603 1.253-4.615 2.01-7.375 2.625-7.39-8.314-13.909-17.087-19-27-2.177 2.021-2.177 2.021-3.875 5.063C83 249 83 249 81 249.75l-2 .25a88 88 0 0 0-4 2 159 159 0 0 1 5-6h2l1-3h2l2-5-3-1 3-1-.93-2.104q-2.13-4.822-4.257-9.646l-1.463-3.309a644 644 0 0 1-2.907-6.698c-1.367-3.19-1.367-3.19-2.911-5.931-5.24-10.235-4.077-21.376-3.844-32.562q.037-3.17.068-6.34c.055-5.137.14-10.273.244-15.41h1l1 7 2-2c2.4 4.648 2.2 8.91 2 14l2.75-2.562c2.92-2.464 2.92-2.464 5.625-2.25L87 169l-2 1.063c-2.356 1.878-2.356 1.878-2.437 5.375.442 3.603.97 4.992 3.437 7.562 3.432-.264 3.432-.264 7-1 2.06-3.089 2.239-3.71 2.125-7.187L95 171c2.711.856 4.554 1.452 6.375 3.688 2.073 7.668-2.845 14.813-6.225 21.373-3.115 6.148-3.115 6.148-3.15 12.939 4.937 4.06 9.2 5.37 15.441 5.277 4.545-.492 8.716-1.77 12.559-4.277 1.301-3.111 1.301-3.111 1-6-5.804-.105-11.247.163-17 1-3.002.082-5.998.061-9 0 .6-4.033 1.925-6.998 3.875-10.562 4.59-9.014 7.758-18.358 5.125-28.438a111 111 0 0 0-3.941-8.75C99 155 99 155 99 153"/><path fill="#BF471C" d="M240 118c3 2 3 2 3.512 3.96 1.781 24.468 1.781 24.468-5.512 34.04l-2 2 2.125-1c3.217-1.119 5.493-1.368 8.875-1 1.875 1 1.875 1 3 3 .985 7.02-1.027 12.2-5 18-4.17 4.525-8.155 7.942-14 10l1.5 3.063c1.603 3.778 1.959 6.809 1.5 10.937-2.142 4.848-5.58 7.488-10 10.25-2.428.91-4.428.893-7 .75l-.043 1.793c-.258 4.274-.53 6.635-3.144 10.144-5.05 3.703-9.764 4.296-15.86 4.524L196 229a72 72 0 0 0-2 4c-1.875 1.414-1.875 1.414-4 2.625-2.358 1.36-4.06 2.436-6 4.375l-2-1v-2l-2.168-.867L167 231c-.355-7.215.84-13.124 3-20l1.977.105c5.419.168 9.512.252 14.023-3.105 4.916-5.588 6.11-11.776 7-19h-8l-5 10h-3l.656-2.336.844-3.039.844-3.023c.738-2.478.738-2.478.656-4.602l-2.75-1.812c-7.292-4.909-10.173-12.252-12-20.625-.74-10.544.059-21.038.75-31.563 4.083-.059 8.166-.094 12.25-.125l3.453-.05c9.824-.057 19.153.698 28.3 4.445 9.36 3.424 17.645 3.581 26.86-.102 2.44-1.119 2.44-1.119 4.137-4.168.28-2.642.28-2.642.188-5.5l-.02-2.906c-.065-2.709-.065-2.709-1.168-5.594"/><path fill="#293733" d="M167 231c11.159 3.055 11.159 3.055 15 6v2l2.32.648c3.495 1.763 3.972 3.444 5.555 6.977 4.09 7.402 9.677 10.1 17.056 13.43 3.488 1.593 6.896 3.343 10.319 5.07l4.012 2c13.722 6.87 23.2 12.532 29.113 27.313.855 4.874.786 9.627.625 14.562-14.492 7.588-29.22 11.941-45 16l-2.095.561c-11.87 3.136-23.718 2.749-35.905 2.439v1c-5.766.824-11.36 1.16-17.18 1.168l-2.584.01q-2.69.007-5.38.007c-2.717.002-5.433.02-8.149.04-8.486.026-16.442-.042-24.707-2.225-.415-7.472 1.394-13.385 3.832-20.39 1.579-4.573 2.656-8.794 3.168-13.61l8 1-.062 3.25c.05 3.006.28 4.941 1.062 7.75 2.042 7.627 2.541 15.122 3 23h15l-3-15h-2l1-5c3.516 1.055 6.746 2.323 10 4 5.777 2.927 12.46 5.91 19 4 3.987-3.975 6.179-8.035 8.125-13.312l.764-2.003c.716-1.89 1.414-3.787 2.111-5.685l1.012-2.66c2.843-7.866 5.278-19.579 2.101-27.57-1-1.93-1-1.93-3.113-2.77-12.084-.806-22.414.601-34 4-2.662.689-5.33 1.346-8 2 3.855-4.26 7.819-6.825 12.875-9.5A340 340 0 0 0 159 255l2.034-1.05c2.89-1.687 4.638-2.834 5.606-6.126.273-2.57.33-5.052.298-7.637l.048-2.677c.036-2.17.029-4.34.014-6.51"/><path fill="#31433E" d="M68 41c5.618 8.428 5.92 20.44 7.188 30.25q.267 2.014.537 4.027Q76.37 80.137 77 85h1v11l9-2-.402 2.719c-1.334 9.42-2.124 18.78-2.598 28.281 10.51 2.314 20.863 2.354 31.563 2.313l2.721-.003c25.405 1.244 25.405 1.244 48.716-5.31a109 109 0 0 1 5.55-1.656l3.307-.91 3.456-.934q3.369-.92 6.738-1.844l3.02-.818L192 115l3.253-.832c2.84-.898 2.84-.898 3.979-3.14l.666-2.38.762-2.578.715-2.695.785-2.719q.953-3.318 1.84-6.656c1.112 3.91.9 7.19.563 11.25l-.31 3.828L204 112l3.465-.98c4.412-1.099 8.566-1.353 13.097-1.332l2.17-.05c6.495-.005 12.462 1.734 17.268 6.362 2.51 5.257 2.82 10.27 2 16-3.09 4.634-7.63 6.857-13 8-5.376.316-9.926-.497-15.062-1.875l-2.065-.527c-3.005-.78-5.945-1.624-8.87-2.668-7.888-2.442-16.317-2.218-24.503-2.493l-3.648-.13q-4.425-.159-8.852-.307v2c-33.122 7.118-77.824 11.044-110-2l-3.562-.25C49 131 49 131 47 128.313L45 125c-2.223-2.141-4.581-4.084-7-6l1-5-4-2 1-7h3v-7l2-1-6-1v-1c6.75.75 6.75.75 9 3l3.242.816c4.138 1.304 6.74 3.264 9.883 6.121 2.806 2.49 5.495 4.839 8.742 6.754L68 113v2h3l.148-2.887.227-3.8c.07-1.242.14-2.483.21-3.762.404-3.458.85-6.986 3.415-9.551.1-15.168-2.35-30.864-6.121-45.527-.764-3.019-1.072-5.388-.879-8.473"/><path fill="#D39E7F" d="M166 134c-.01.735-.02 1.47-.032 2.228-.042 3.382-.067 6.765-.093 10.147l-.05 3.504c-.053 9.214.98 17.448 4.175 26.121l-3-2-3 1-1-5h-1l-.34 2.633c-1.584 9.256-1.584 9.256-4.722 12.496A54 54 0 0 1 150 189l-2 1.125c-2.314 1.012-4.044 1.175-6.562 1.188l-2.317.05c-2.6-.445-3.47-1.363-5.121-3.363l2.09-.113c6.396-.448 11.94-1.543 17.91-3.887 1.025-3.25 1.025-3.25 1-7-1.78-2.213-3.606-3.388-6-5l1 3c.404 3.714.237 5.564-1.562 8.875C146 186 146 186 142.5 186.563 139 186 139 186 136.563 184.5c-2.273-3.636-1.846-6.258-1.563-10.5-3.005-.325-3.005-.325-4.75 1.5-1.878 3.756-1 6.414-.25 10.5-3.046-.554-5.273-1.143-7.324-3.562-2.861-4.98-2.868-8.844-1.938-14.434L121 166l-1-1c.378-5.013.891-6.855 4-11l-25-1 2.938 5.875c4.752 10.418 4.955 18.32 1.062 29.125-1.7 3.805-3.612 7.49-5.574 11.164C95.85 201.77 95.85 201.77 96 204q2.906.039 5.813.063l3.269.035c2.983.038 2.983.038 5.918-1.098 7.05-.475 7.05-.475 10 1 .313 2.813.313 2.813 0 6-5.052 4.16-11.268 5.458-17.684 5.328-4.799-.68-8.914-2.926-12.316-6.328-.587-7.774 3.232-13.93 6.938-20.426 2.666-4.934 3.662-7.917 2.062-13.574-1.354-1.944-1.354-1.944-3-3h-1l.313 3.188C96 179 96 179 93.813 181.938 91 184 91 184 88.437 184.625 86 184 86 184 83.688 181.938 81.599 178.3 81.465 176.134 82 172c1.5-1.937 1.5-1.937 3-3-3.477 1.256-6.094 2.733-9 5l.035-2.555.028-3.32.035-3.305c.1-2.772.1-2.772-1.098-4.82l-3 3v-8l1.879 1.172c7.78 4.575 15.412 6.83 24.121 8.828-1.609-6.624-3.475-9.28-9-13-5.842-3.307-10.452-3.27-17-3v-13q3.25.215 6.5.438c1.207.08 2.413.162 3.656.246q3.82.314 7.619.825c3.9.494 7.736.635 11.67.659l2.074.013q3.303.013 6.606.006h2.284c15.91-.017 31.689-.8 47.349-3.82C162 134 162 134 166 134"/><path fill="#9D3717" d="M234 156c-1.375 1.5-1.375 1.5-3 3h-2v2c5.43-1.25 5.43-1.25 10.625-3.187 3.083-1.055 5.245-.54 8.375.187 1.158 9.334-1.266 15.61-7 23-6.247 6-6.247 6-10 6l1.5 3.063c1.603 3.778 1.959 6.809 1.5 10.937-2.142 4.848-5.58 7.488-10 10.25-2.428.91-4.428.893-7 .75l-.043 1.793c-.258 4.274-.53 6.635-3.144 10.144-5.05 3.703-9.764 4.296-15.86 4.524L196 229a72 72 0 0 0-2 4c-1.875 1.414-1.875 1.414-4 2.625-2.358 1.36-4.06 2.436-6 4.375l-2-1v-2l-2.168-.867L167 231c-.355-7.215.84-13.124 3-20l1.977.105c5.419.168 9.512.252 14.023-3.105 3.859-4.399 5.193-8.607 6.188-14.312.675-3.106.675-3.106 1.812-5.688 3.181-1.945 6.343-2.473 10-3 3.623-.924 3.623-.924 6.043-3.574a66 66 0 0 0 1.867-3.672c1.49-2.4 2.574-3.397 5.09-4.754 2.953-.456 5.891-.512 8.875-.562 5.434-.12 9.998-.385 15.125-2.438v-2l-3.219-.297c-7.698-.788-14.086-1.519-20.781-5.703v-3c6.078-2.85 10.376-4.728 17-3"/><path fill="#374945" d="M88 240c2.96 2.614 4.697 5.675 6.688 9.063 3.21 5.382 6.773 10.228 10.843 15.011C107 266 107 266 107 268q-2.938-.464-5.875-.937l-3.305-.528C95 266 95 266 93 265c-4.14-.243-8.29-.185-12.437-.187l-3.51-.038-3.362-.005-3.087-.013c-2.84.057-2.84.057-5.604 2.243a64 64 0 0 0-.375 8.313l.03 2.463c.297 11.65 2.976 28.145 11.83 36.595C79.94 316.61 81.942 316.56 86 316c2.457-1.173 4.675-2.57 7-4h3v15c-4.35-.621-8.672-1.261-13-2l2-1v-5h-3v5l-4.375-.437-2.46-.247L72 323l-2.137-.107c-7.338-.481-13.694-2.641-20.55-5.205l-3.3-1.186C31 310.998 31 310.998 29 307c-1.03-10.358 1.023-20.356 7-29h2l.691-1.781c1.677-2.843 3.466-3.94 6.246-5.719l3.208-2.07Q50.07 267.212 52 266l2.392-1.507 2.557-1.61 2.588-1.631a1367 1367 0 0 1 5.139-3.215l2.394-1.498 2.15-1.337c1.918-1.213 1.918-1.213 3.78-3.202q2.491-1.021 5-2l3-2 3-1a101 101 0 0 0 3-6z"/><path fill="#9F3B27" d="m170.875 261.75 2.473-.062c5.988-.04 5.988-.04 9.16 1.64 3.625 4.062 2.744 9.582 2.492 14.672-.588 7.692-2.758 14.668-5.375 21.875l-.885 2.45c-2.117 5.61-4.448 10.383-8.74 14.675-3.586-.388-6.7-1.586-10-3v-2h-4v-2l-2.5-.687c-6.669-2.501-11.605-6.16-16.5-11.313-1.966-1.713-3.978-3.354-6-5l2-1v-4h3v-2l2.23-.332c7.353-1.098 7.353-1.098 13.77-4.668v-1h-18v-2c5.443-3.873 11.046-6.388 17.266-8.79 2.592-1.147 4.498-2.499 6.734-4.21h2v-2c3.379-1.69 7.163-1.227 10.875-1.25"/><path fill="#D39E81" d="M171 182a166 166 0 0 1 11 4q-.966 2.688-1.937 5.375l-1.09 3.023C178 197 178 197 177 199l3-1c1.58-3.283 2.848-6.545 4-10l9 1c.663 7.161-1.132 11.963-5 18-3.33 3.689-6.17 4.51-10.937 5.02-2.448-.024-4.673-.517-7.063-1.02-1.372 6.03-2.128 11.796-2.133 17.988l-.008 3.639q.016 3.715.102 7.43c-.076 8.77-.076 8.77-2.477 11.952-2.079 1.615-4.136 2.804-6.484 3.991l-2.264 1.315a220 220 0 0 1-6.923 3.81c-4.98 2.656-9.427 5.29-13.813 8.875h-2l-2-4q2.748-2.533 5.5-5.062l1.663-1.531a301 301 0 0 1 9.087-8.032c8.566-7.55 13.224-14.408 16.75-25.375l-1.137 1.54C153.651 241.275 153.651 241.275 147 246h-2v2c-7.433 6.598-16.111 10.786-25 15a860 860 0 0 0-4.625 2.375c-2.603 1.253-4.615 2.01-7.375 2.625a312 312 0 0 1-3-3.312l-1.687-1.864C102 261 102 261 102 258l2.86-.297c13.991-1.63 26.327-4.133 35.519-15.695 7.09-9.696 11.538-19.311 14.747-30.815 1.993-6.98 4.717-12.805 9.499-18.318 2.672-3.235 3.854-5.996 5.375-9.875z"/><path fill="#F5DDC4" d="M170 70c13.574.714 25.458 6.246 37 13l.434-2.324c.577-2.73 1.47-5.117 2.566-7.676.625 1.75.625 1.75 1 4l-.91 1.774c-1.321 2.698-1.706 5.117-2.16 8.085l-.528 3.38-.527 3.511-.55 3.559q-.672 4.344-1.325 8.691h-1V96l-.742 3.578q-.564 2.337-1.133 4.672l-.469 2.355c-.88 3.433-1.6 5.693-4.624 7.703-2.646 1.102-5.27 1.922-8.032 2.692l-3.14.952a454 454 0 0 1-9.923 2.798l-3.45.957C164.172 124 164.172 124 163 124c-.194-8.608.364-16.955 1.375-25.5l.383-3.434c2.38-20.772 2.38-20.772 5.242-25.066"/><path fill="#313F3A" d="M199 20c10.878.05 20.555 4.502 28.926 11.313C229.606 33.95 229.34 35.94 229 39c-1.18 2.438-1.18 2.438-2.875 5-5.672 9.178-9.778 19.146-14.125 29h-2l-3 10c-4.365-1.679-8.451-3.726-12.598-5.879A27.5 27.5 0 0 0 188 75c-.719-16.138 2.597-29.452 7.852-44.598 1.163-3.446 2.175-6.898 3.148-10.402"/><path fill="#9D3B28" d="M75.125 263.75c1.24.015 2.48.03 3.758.047C82 264 82 264 84 265l-1 4 2.813-.125C89 269 89 269 92 271c.188 2.625.188 2.625 0 5l-3 1c-1.373 2.289-2.153 4.458-3 7l21 1c3 7 3 7 3 10a178 178 0 0 1-4 4 144 144 0 0 0-2.25 3.313C99.285 308.695 93.075 313.784 86 317c-4.473.706-6.235.528-9.98-2.059-3.442-3.016-5.071-6.377-6.77-10.566l-.899-2.163c-3.574-8.888-4.516-17.193-4.726-26.712l-.08-2.396c-.015-5.504-.015-5.504 2.033-8.12 3.289-1.336 6.006-1.308 9.547-1.234"/><path fill="#2F403B" d="m117 294 8 1-.062 3.25c.05 3.006.28 4.941 1.062 7.75 2.042 7.627 2.541 15.122 3 23h15l-3-15h-2l1-5c3.516 1.055 6.746 2.323 10 4 6.183 3.132 12.002 5.233 19 4 3.337-2.087 3.337-2.087 6-5l2.875-2.812L180 307l1 2h2v-3h-2c1.75-6.75 1.75-6.75 4-9 3.948-.538 5.737-.147 9.25 1.813 2.827 2.248 4.486 3.828 5.188 7.437-.63 3.954-2.582 6.954-5.438 9.75-2.172.703-2.172.703-4 1l-1 5h-2v3l-4 1h12c-3.912 1.956-5.253 2.242-9.422 2.195l-3.105-.02-3.223-.05-3.27-.027q-3.99-.036-7.98-.098v1c-5.766.824-11.36 1.16-17.18 1.168l-2.584.01q-2.69.007-5.38.007c-2.717.002-5.433.02-8.149.04-8.486.026-16.442-.042-24.707-2.225-.415-7.472 1.394-13.385 3.832-20.39 1.579-4.573 2.656-8.794 3.168-13.61"/><path fill="#2D3F39" d="M68 41c5.618 8.428 5.92 20.44 7.188 30.25q.267 2.014.537 4.027Q76.37 80.137 77 85h1v11l9-2-.402 2.719c-1.334 9.42-2.124 18.78-2.598 28.281q-2.186.29-4.375.563l-2.46.316C75 126 75 126 73 125l-1 3h-4v2l-3 1-1 2 1.906-.07c4.97-.105 9.151.228 13.975 1.562 12.097 2.9 25.539 1.62 37.869 1.57q3.242-.008 6.484-.013 7.883-.017 15.766-.049c-8.368 4.48-18.804 3.24-28.062 3.25l-2.277.005c-17.643.002-37.121-.55-53.661-7.255l-3.562-.25C49 131 49 131 47 128.313L45 125c-2.223-2.141-4.581-4.084-7-6l1-5-4-2 1-7h3v-7l2-1-6-1v-1c6.75.75 6.75.75 9 3l3.242.816c4.138 1.304 6.74 3.264 9.883 6.121 2.806 2.49 5.495 4.839 8.742 6.754L68 113v2h3l.148-2.887.227-3.8c.07-1.242.14-2.483.21-3.762.404-3.458.85-6.986 3.415-9.551.1-15.168-2.35-30.864-6.121-45.527-.764-3.019-1.072-5.388-.879-8.473"/><path fill="#283731" d="m84 17-2 1v2h2q.976 3.53 1.938 7.063l.552 1.99C92.102 49.766 90.12 72.708 90 94l-12 2-1-10h-1c-.105-.846-.21-1.692-.32-2.563q-.604-4.8-1.224-9.595-.264-2.06-.52-4.12c-.989-7.926-2.227-15.645-4.357-23.358C69 44 69 44 69 41h-2a353 353 0 0 1-2.062-5.187l-1.16-2.918c-.849-3.159-.773-4.809.222-7.895 4.767-6.459 12.26-8.263 20-8"/><path fill="#702B1A" d="M160 264c-4.507 4.056-9.589 6.401-15 9q-2.22 1.121-4.437 2.25C137 277 137 277 134 278v2l2.25-.5c7.18-.957 14.652-1.077 21.75.5v1l-3.25.875c-3.52.913-3.52.913-5.625 2.156-2.66 1.213-4.966 1.386-7.875 1.594l-2.984.227L136 286v2h-3l-1 5c1.387 1.157 2.785 2.3 4.188 3.438l2.355 1.933c2.565 1.7 4.43 2.247 7.457 2.629l-3 2 13 7v2h4v2l2.25.313c2.92.73 4.482 1.755 6.75 3.687-9.38.782-16.394-2.627-24.625-6.812-2.23-1.337-2.23-1.337-4.375-1.188l-1 4 3-1q.513 2.029 1 4.063l.563 2.285C144 322 144 322 144 329h-15l-1.846-11.63-.4-2.53-.394-2.485a297 297 0 0 1-.895-6.414c-.15-2.823-.15-2.823-1.465-3.941-.04-2-.043-4 0-6l-6-2v-3l12-2-.25-3.937c-.034-5.372 1.77-9.38 4.25-14.063h2l1-3c1.855-.66 1.855-.66 4.188-1.062 2.791-.525 5.193-1.078 7.875-2.063 3.798-1.131 6.983-1.011 10.937-.875"/><path fill="#384B47" d="m238 282 1.813 1c2.24 1.208 2.24 1.208 5.187 1q1.226 2.371 2.438 4.75l1.37 2.672c1.97 4.262 2.31 7.637 2.255 12.328l-.028 2.984L251 309c-7.505 3.93-14.952 7.349-23 10l-2.7.91c-4.525 1.455-8.486 2.584-13.3 2.09l-1-1a93 93 0 0 0-4-1q1.079-2.32 2.188-4.625l1.23-2.602c1.524-2.672 3.275-4.883 5.282-7.207 2.597-3.128 4.763-6.58 6.993-9.974 2.115-3.137 4.037-5.635 7.307-7.592h2v-2a125 125 0 0 1 6-4"/><path fill="#212C28" d="M240.438 117.875c2.342 4.685 2.436 8.992 1.562 14.125-3.09 4.634-7.63 6.857-13 8-5.376.316-9.926-.497-15.062-1.875l-2.065-.527c-2.93-.76-5.774-1.56-8.596-2.66-5.13-1.468-10.344-1.682-15.652-2.063l-3.387-.262q-4.118-.315-8.238-.613c3.35-2.666 5.77-3.577 10-4.375 4.505-.961 8.538-2.138 12.75-4 31.32-13.726 31.32-13.726 41.688-5.75"/><path fill="#6D2B1C" d="M110 287c2.969.33 4.792.857 7.27 2.563C119 292 119 292 118.62 295.609q-.556 2.081-1.183 4.141l-.605 2.187c-.992 3.506-2.09 6.933-3.458 10.313-1.884 5.14-2.61 10.346-3.375 15.75 6.515.752 12.924 1.15 19.48 1.133l2.598.003q2.691 0 5.382-.006c2.731-.005 5.463 0 8.194.007q2.633 0 5.264-.004l2.447.006c5.709-.023 11.173-.318 16.635-2.139 2.399.087 4.795.24 7.188.438l3.855.308L184 328v1c-14.383 1.853-28.569 2.363-43.062 2.313l-3.269-.006C113.38 331.237 90.642 328.725 67 323v-1c5.03.525 10.019 1.106 15 2v-5h3v5l11 3v-15l-2-1a141 141 0 0 1 5-5h2l.688-1.562c1.794-3.333 3.812-6.585 6.312-9.438h2z"/><path fill="#222E29" d="M88 240c2.96 2.614 4.697 5.675 6.688 9.063 3.21 5.382 6.773 10.228 10.843 15.011C107 266 107 266 107 268q-2.938-.464-5.875-.937l-3.305-.528C95 266 95 266 93 265c-4.14-.243-8.29-.185-12.437-.187l-3.51-.038-3.362-.005-3.087-.013c-2.84.057-2.84.057-5.604 2.243a67 67 0 0 0-.312 8.313l.025 2.433c.137 6.879.95 13.5 2.287 20.254h-2l-1-6c-5.364.374-7.496 1.996-11 6l-1 1c-.294 3.722-.148 4.778 2 8h-3c-2.312-2.625-2.312-2.625-4-6 .534-3.401 1.2-5.23 3.688-7.625L53 292l1.71-1.066C59.557 288 59.557 288 63 288l-1-16-2 1-2-9c2.313-1.125 2.313-1.125 5-2l3 2v-2h-2c1.183-4.601 3.4-6.415 7.191-8.937 2.19-1.287 4.424-2.202 6.809-3.063l3-2 3-1a101 101 0 0 0 3-6z"/><path fill="#D0724F" d="M33 94c6.463-.454 9.61.406 15 4l-2 1-2-1-1 2-1-4h-4l3 1-1 3a100 100 0 0 0 0 5l-2 1-2-1v7l4 1-.687 2.813L39 119a102 102 0 0 0 3 3c.827 3.861 1.257 6.23 0 10-2.461 2.885-4.2 4.457-8 5-1.16 4.25-.91 7.7 0 12l2 1v2h-4l2 1v2c-9.41-.964-9.41-.964-14-2l1 3a278 278 0 0 1-1 4c-.038 2-.045 4 0 6-2-1-2-1-3-4a119 119 0 0 1-.062-5.687l.027-3.012L17 151c5.18-1.351 7.319-.295 12 2l-1.242-1.758C22.457 143.557 20.004 137.436 21 128c1.214-3.399 2.12-5.266 4.875-7.562C28 120 28 120 30.5 121.125c2.397 1.798 4.386 3.761 6.5 5.875h2c.806-1.775.806-1.775 1-4-1.313-2.212-1.313-2.212-3.25-4.312-4.991-6.107-7.118-10.766-6.953-18.77C30 98 30 98 31 96h2z"/><path fill="#45534D" d="M204 94c1.112 3.91.9 7.19.563 11.25l-.31 3.828L204 112l3.465-.98c4.412-1.099 8.566-1.353 13.097-1.332l2.17-.05c6.778-.005 12.002 1.939 17.268 6.362l-1 2-3-2c-12.97-.917-26.956 3.718-38.625 9.063-3.978 1.82-7.822 3.039-12.062 4.124l-3.762.981A122 122 0 0 1 172 132c.375-2.937.375-2.937 1-6l2-1-5-2c3.083-2.65 5.443-3.496 9.43-4.156 11.297-1.77 11.297-1.77 20.278-8.027 2.586-5.362 3.588-10.942 4.292-16.817"/><path fill="#9F3924" d="M75.125 263.75c1.24.015 2.48.03 3.758.047C82 264 82 264 84 265l-1 4 2.813-.125C89 269 89 269 92 271c.188 2.625.188 2.625 0 5l-3 1c-1.092 1.933-1.092 1.933-2 4l-2 2-3-1c-1.014 3.62-1.499 7.278-2 11-5.75 1-5.75 1-8 1l-2 5c-2.495-2.495-2.36-3.673-2.625-7.125l-.227-2.758L67 287h-2c-1.705-3.41-1.269-7.179-1.312-10.937l-.088-2.499c-.063-5.96-.063-5.96 1.974-8.615 3.29-1.287 6.027-1.273 9.551-1.199"/><path fill="#212F2B" d="M167 231c11.159 3.055 11.159 3.055 15 6v2l2 1-1 3c-.15 1.79-.272 3.582-.375 5.375-.352 4.303-.922 7.134-3.625 10.625l-1 2 3 1-3.594.078c-11.036.347-20.795 1.882-31.406 4.922-2.662.685-5.33 1.344-8 2 3.855-4.26 7.819-6.825 12.875-9.5A340 340 0 0 0 159 255l2.034-1.05c2.89-1.687 4.638-2.834 5.606-6.126.273-2.57.33-5.052.298-7.637l.048-2.677c.036-2.17.029-4.34.014-6.51"/><path fill="#AF4018" d="m46 127 3 2v2l3.188-.125c3.733.122 5.449.717 8.812 2.125 2.622.57 5.25 1.062 7.89 1.535C71 135 71 135 72 136c.234 2.016.413 4.038.563 6.063l.253 3.347L73 148l3.875-.312c6.67.02 12.102 2.674 17.09 7.027 2.565 2.758 3.926 4.433 4.41 8.222L98 165c-11.5-.742-18.3-4.534-28-11v29h-1v-30h-2c-1.691-1.645-1.691-1.645-3.562-3.812l-1.88-2.145C60 145 60 145 59 142a178 178 0 0 0-4-2c-2.25-2-2.25-2-4-4v-2l-3-1c-1.187-3.062-1.187-3.062-2-6"/><path fill="#372924" d="m117 294 8 1-.062 3.25c.05 3.006.28 4.941 1.062 7.75 2.042 7.627 2.541 15.122 3 23h15l-3-15h-2l1-5c3.775 1.09 6.47 1.908 9 5l-5-1 1.023 1.672c1.188 2.831 1 4.555.602 7.578l-.336 2.703L145 327l3-1c2.188.938 2.188.938 4 2v2q-6.56.075-13.123.11-2.225.015-4.45.04c-8.33.096-16.315.042-24.427-2.15-.415-7.472 1.394-13.385 3.832-20.39 1.579-4.573 2.656-8.794 3.168-13.61"/><path fill="#554E4F" d="M68 41c5.618 8.428 5.92 20.44 7.188 30.25q.267 2.014.537 4.027Q76.37 80.137 77 85h1v11l9-2-.402 2.719c-1.334 9.42-2.124 18.78-2.598 28.281-8.687.124-15.246-2.378-23-6l1.875-.437c2.158-.495 2.158-.495 4.125-1.563l2-1 3 1-.07-3.324q-.029-2.183-.055-4.364l-.05-2.185c-.039-4.17.25-7.4 2.175-11.127l1-1c.1-15.168-2.35-30.864-6.121-45.527-.764-3.019-1.072-5.388-.879-8.473"/><path fill="#8B2F11" d="M166 132a2133 2133 0 0 1 12.25-.125l3.453-.05c9.403-.054 18.568.415 27.297 4.175-13.947 9.298-26.36 11.366-43 11z"/><path fill="#B64218" d="m148.125 149.688 2.09-.088c3.61-.045 5.63.305 8.726 2.216 2.534 2.688 2.811 4.553 3.059 8.184-3.254 1.085-3.938.847-7.125.125-8.641-1.077-17.346 4.11-24.875 7.875-6.157.448-6.157.448-9-1.062-1.637-3.172-.829-5.565 0-8.938 1.194-2.687 2.279-3.678 4.953-4.871 7.246-2.576 14.527-3.333 22.172-3.441"/><path fill="#A83814" d="M203 153c2.438.375 2.438.375 5 1 1.585 3.17 1.34 5.48 1 9-2.53 5.526-5.643 9.227-11.012 12.063-4.282 1.343-8.343 1.148-12.8 1.062l-2.678-.027c-2.17-.024-4.34-.06-6.51-.098l-1-2-3-1-1-5c3.969-1.812 7.55-2.411 11.875-2.875 5.75-.753 9.386-1.86 14.125-5.125l3-1c1.167-1.917 1.167-1.917 2-4z"/><path fill="#9A3A27" d="m117.926 267.863 3.386.45c4.526.572 8.211.628 12.688-.313v2l2 1-2 1c-2.532 5.671-3.585 10.824-4 17-4.154 1.583-7.548 2.484-12 2-2.375-1.375-2.375-1.375-4-3v-2h-2c-.081-2.25-.14-4.5-.187-6.75l-.106-3.797c.293-3.453.293-3.453 1.41-5.926C115 268 115 268 117.926 267.863"/><path fill="#B43E17" d="M42 123c4.798 2.46 4.798 2.46 5.75 5l.25 2c.744 2.977.744 2.977 2.563 4.563L52 136v2l1.688.688c2.977 1.69 4.948 3.836 7.312 6.312l1.652 1.59c1.488 1.431 2.922 2.918 4.348 4.41v2h2v4c-5.767-1.648-11.13-4.27-15-9v-2c-2.468 1.152-4.048 2.048-6 4v-5l-7 1v-2l-1.75.563c-2.457.477-3.894.194-6.25-.563l-1-6c3.248-2.49 6.319-4.16 10-6z"/><path fill="#D19679" d="M102 180h2c-.132 6.583-2.517 11.532-5.56 17.25-1.836 3.196-1.836 3.196-2.44 6.75q2.906.039 5.813.063l3.269.035c2.983.038 2.983.038 5.918-1.098 7.05-.475 7.05-.475 10 1 .313 2.813.313 2.813 0 6-5.052 4.16-11.268 5.458-17.684 5.328-4.799-.68-8.914-2.926-12.316-6.328.112-7.566 2.543-12.965 6.063-19.562l1.431-2.768A664 664 0 0 1 102 180"/><path fill="#D8A383" d="m155.688 159.438 3.574.308L162 160l-1 3h-2l1 3c.128 2.674.044 5.321 0 8l-.691-1.953c-1.125-2.262-1.125-2.262-3.524-2.656A440 440 0 0 0 147 169l-2.96-.191c-4.587-.195-7.446-.086-11.665 1.879-2.73 2.658-3.29 3.544-3.375 7.312.23 2.696.591 5.322 1 8-3.106-.565-5.311-1.133-7.324-3.668-2.59-4.7-3.164-8.018-1.676-13.332l2-2 3.11.09c4.76-.11 7.904-1.508 12.14-3.528 6.253-2.88 10.458-4.746 17.438-4.125"/><path fill="#A63B18" d="M71 203c3 1 3 1 4.626 4.035q.88 2.006 1.73 4.028l.928 2.14c.978 2.262 1.94 4.53 2.903 6.797q.99 2.294 1.983 4.586C88 235.79 88 235.79 88 237h-7v-2l-1.875-.75c-2.527-1.487-3-2.596-4.125-5.25l-2-3v-4l-1.977.105c-5.464.17-9.316.033-14.023-3.105l-1-2 2.438 1c2.259 1.06 2.259 1.06 3.562 1l1.938-1.5C66 216 66 216 68 216v-2h-4c1.11-3.487 2.263-6.775 4-10h3z"/><path fill="#2D3934" d="M68 300c2.265 3.398 3.878 6.923 5.586 10.625 1.541 2.589 2.836 3.842 5.414 5.375 6.086.804 9.004-.925 14-4h3v15c-4.35-.621-8.672-1.261-13-2l2-1v-5h-3v5c-8.382-.386-16.013-2.526-24-5v-1h6c3.328-6.285 4.452-10.887 4-18"/><path fill="#F6DFC5" d="M170 70c6.15.488 12.446 1.099 18 4l1 3-2.375.625c-2.934 1.182-2.934 1.182-3.937 4.5L182 85h-1l-1-6-3 1a75 75 0 0 0-2.187 7.563l-.538 2.154c-.436 1.758-.857 3.52-1.275 5.283l3 1h-2l1 4c-6.75 1.125-6.75 1.125-9 0-.57-23.146-.57-23.146 4-30"/><path fill="#A3614D" d="M165 224c1.602 4.806-.825 8.059-2.957 12.465-5.386 9.844-14.654 17.215-23.18 24.26l-1.87 1.56-1.677 1.371C133.73 265.08 133.73 265.08 133 268l-1.723-.621c-4.785-1.67-9.236-2.843-14.277-3.379 2.78-1.854 5.591-3.277 8.6-4.717 6.577-3.16 12.075-6.211 17.4-11.283h2v-2c1.272-1.031 2.595-2 3.938-2.937C155.515 238.109 161.605 231.59 165 224"/><path fill="#AD3D1A" d="M234 156c-1.375 1.5-1.375 1.5-3 3h-2v2c5.43-1.25 5.43-1.25 10.625-3.187 3.083-1.055 5.245-.54 8.375.187 1.03 8.311-.757 13.466-5.078 20.566-1.888 2.391-3.107 3.382-5.922 4.434l1-1.562c1.221-2.539 1.221-2.539 1-5.938 0-3.436.385-4.624 2-7.5l-3.219-.297c-7.698-.788-14.086-1.519-20.781-5.703v-3c6.078-2.85 10.376-4.728 17-3"/><path fill="#E7D1BB" d="m178 78 3 1 .184 1.863.254 2.45c.08.8.162 1.6.246 2.425.269 2.423.269 2.423 1.316 5.262 4.779-.29 7.117-2.583 10.45-5.723C195 84 195 84 197 84c-.294 4.285-1.826 6.189-5 8.996l-1.625 1.379a2169 2169 0 0 0-3.29 2.906c-.53.466-1.062.931-1.61 1.41-3.922 3.479-7.546 7.128-10.787 11.246L173 112h-2c-.75-2.687-.75-2.687-1-6a117 117 0 0 1 4-5c.419-2.67.419-2.67 0-5l-1-1c.425-5.105 1.235-13.235 5-17"/><path fill="#E1BFA4" d="M191.813 100.25 194 101v10h3l1-5 3-1c-.4 3.41-1.148 6.09-3 9-3.979 2.288-8.196 3.317-12.625 4.438l-3.488.982c-6.251 1.736-12.542 3.234-18.887 4.58v-12h3v2h21l-3-2c-.398-3.085-.624-5.045 0-8 2.596-3.041 3.775-4.109 7.813-3.75"/><path fill="#3E3029" d="M149.176 168.531c3.604 1.42 5.956 3.062 7.824 6.469v2l-8-4 1 2c.41 3.694.228 5.581-1.562 8.875C146 186 146 186 142.5 186.563 139 186 139 186 136.563 184.5c-2.273-3.636-1.846-6.258-1.563-10.5-3.517 0-4.371.824-7 3 .34-3.17.999-3.999 3.438-6.187 5.324-3.766 11.428-3.822 17.738-2.282"/><path fill="#3C3B32" d="m73 252 2 1-2 2h5l-1 7 6 1v1l-3.176.148-4.136.227-2.092.094c-3.666.212-5.475.45-8.596 2.531a67 67 0 0 0-.312 8.313l.025 2.433c.137 6.879.95 13.5 2.287 20.254h-2l-1-6c-5.364.374-7.496 1.996-11 6l-1 1c-.294 3.722-.148 4.778 2 8h-3c-2.312-2.625-2.312-2.625-4-6 .534-3.401 1.2-5.23 3.688-7.625L53 292l1.71-1.066C59.557 288 59.557 288 63 288l-1-16-2 1-2-9c2.313-1.125 2.313-1.125 5-2l3 2v-2h-2c1.362-5.295 4.603-7.237 9-10"/><path fill="#29201A" d="M83 164.625c6.233.196 12.696 2.708 17.125 7.125L102 174l-1 2-1.937-2c-1.704-2.116-1.704-2.116-3.063-2l.313 3.188C96 179 96 179 93.813 181.938 91 184 91 184 88.437 184.625 86 184 86 184 83.688 181.938 81.599 178.3 81.465 176.134 82 172c1.5-1.937 1.5-1.937 3-3-3.46 1.25-6.147 2.675-9 5 2.278-8.785 2.278-8.785 7-9.375"/><path fill="#F4C29E" d="M164 148h1l.332 3.84.48 5.097.213 2.518c.57 5.856 1.883 11.048 3.975 16.545l-3-2-3 1-1-5h-1l-.34 2.633c-1.584 9.256-1.584 9.256-4.722 12.496A54 54 0 0 1 150 189l-2 1.125c-2.314 1.012-4.044 1.175-6.562 1.188l-2.317.05c-2.6-.445-3.47-1.363-5.121-3.363l2.09-.113c9.392-.418 9.392-.418 17.91-3.887 1.734-2.984 2.308-5.562 2-9-2.167-3.002-2.167-3.002-5-5l-1-2a295 295 0 0 1 3.938.875l2.214.492C158 170 158 170 159 172v-9l2-1c.467-2.126.467-2.126.625-4.562l.227-2.504L162 153h2z"/><path fill="#822C0F" d="m46 127 3 2v2l3.188-.125c3.733.122 5.449.717 8.812 2.125 3.32.758 6.651 1.375 10 2v13l-1-2-3.25.125c-3.407-.114-4.957-.338-7.75-2.125v-2l-1.75-.75c-2.58-1.433-4.311-3.034-6.25-5.25v-2l-3-1c-1.187-3.062-1.187-3.062-2-6"/><path fill="#F0D3B7" d="M165 92c1.376 2.662 2.37 5.063 3 8h7l-2 2.625c-2.127 3.59-2.388 5.302-2 9.375l2.063-2.375C176.26 106.767 179.562 105 184 105l.313 3.313c.698 3.747 1.001 4.347 3.687 6.687q-3.531.04-7.062.063l-3.973.035C173 115 173 115 169.129 114.37L166 114l-2 2c-.096-8.079-.125-15.983 1-24"/><path fill="#7B3028" d="M82 264c8.714-.629 15.81 1.083 24 4l-2 2h-3l1.5 1.875C104 274 104 274 104 276l3 1v1q-3.937.33-7.875.625l-2.262.195c-1.95.14-3.908.168-5.863.18l-2-2 2-1c.656-2.527.656-2.527 1-5l-9-2 1-4z"/><path fill="#B06F55" d="M135 220h3l2 6-1.96-.684c-4.372-.455-7.616 1.082-11.665 2.621C116.535 231.444 109.1 232.24 99 229c-2.664-.43-5.315-.717-8-1v-4c6.513-.125 6.513-.125 8.917.493 4.292 1.044 8.814.692 13.208.695l3.016.037c6.521.012 12.522-.682 18.859-2.225z"/><path fill="#32413B" d="M239 115v3l-3-2c-8.521-.345-16.292 1.377-24.258 4.258-2.793.756-4.077.75-6.742-.258l-1-4 2-1h-2v-2c12.017-3.373 23.598-3.31 35 2"/><path fill="#363B32" d="m47 126 2.195.875C56.37 129.701 56.37 129.701 64 130v3l1.906-.07c4.97-.105 9.151.228 13.975 1.562 12.097 2.9 25.539 1.62 37.869 1.57q3.242-.008 6.484-.013 7.883-.017 15.766-.049c-8.368 4.48-18.804 3.24-28.062 3.25l-2.277.005c-17.643.002-37.121-.55-53.661-7.255-2.326-.381-4.66-.725-7-1z"/><path fill="#C1BDBB" d="M82 319h3v5c5.44 1.855 10.597 2.398 16.328 2.754C104 327 104 327 107 328c10.166 1.31 20.457 1.155 30.686 1.13 2.705-.005 5.41 0 8.115.007q2.611 0 5.222-.004l2.419.006c5.682-.024 11.123-.327 16.558-2.139 2.399.087 4.795.24 7.188.438l3.855.308L184 328v1c-14.383 1.853-28.569 2.363-43.062 2.313l-3.269-.006C113.38 331.237 90.642 328.725 67 323v-1c5.03.525 10.019 1.106 15 2z"/><path fill="#BF957B" d="M73 136q3 .215 6 .438l3.375.246q3.625.316 7.229.816c4.785.604 9.546.725 14.365.816l2.79.063q4.37.096 8.741.184l5.96.13q7.27.16 14.54.307v1c-5.42.764-10.656 1.16-16.125 1.125l-2.2-.006c-6.92-.054-13.783-.507-20.675-1.119v2l2 1q-5.094-.212-10.187-.437l-2.909-.12-2.822-.127-2.587-.11c-2.56-.211-4.988-.654-7.495-1.206z"/><path fill="#30423B" d="M33 94c6.463-.454 9.61.406 15 4l-2 1-2-1-1 2-1-4h-4l3 1-1 3a100 100 0 0 0 0 5l-2 1-2-1v7l4 1-2 5c-3.693-1.23-3.952-2.123-5.687-5.5-2.353-4.917-3.128-9.1-2.313-14.5l1-2h2z"/><path fill="#953925" d="M96 285h11c3 6.625 3 6.625 3 10a178 178 0 0 1-4 4 161 161 0 0 0-2.375 3.5c-2.384 3.421-4.926 5.49-8.625 7.5h-3l.938-2.312A111 111 0 0 0 95 302l-3-2c-.187-3.125-.187-3.125 0-6h1v5c5.015-.33 5.015-.33 9-3 .613-2.32 1.014-4.643 1.438-7.004L104 287l2-1H96z"/><path fill="#2C2D28" d="M96 312v15c-4.35-.621-8.672-1.261-13-2l2-1v-5h-3v5l-4-1h2v-5l2.082-.805 2.73-1.07 2.708-1.055C94.635 312 94.635 312 96 312"/><path fill="#F8EFE4" d="M85.234 168.316 87 169l-2 1.063c-2.356 1.878-2.356 1.878-2.437 5.375.442 3.603.97 4.992 3.437 7.562 3.432-.264 3.432-.264 7-1 2.06-3.089 2.239-3.71 2.125-7.187L95 171c4.598 1.452 4.598 1.452 6.375 3.875.758 2.576.73 3.678-.375 6.125-4.281 3.986-9.087 4.418-14.746 4.344-4.007-.611-5.569-2.332-8.254-5.344-1.375-3.312-1.375-3.312-2-6a181 181 0 0 1 3.25-3.062l1.828-1.723C83 168 83 168 85.234 168.316"/><path fill="#AF3A14" d="M234 156c-1.375 1.5-1.375 1.5-3 3h-2v2l10-2-2 6 3 1c-5.553 1.851-12.114 1.08-17.566-.96-1.853-.936-3.651-1.977-5.434-3.04v-3c6.078-2.85 10.376-4.728 17-3"/><path fill="#B6795E" d="M102 180h2c-.13 6.497-2.43 11.36-5.473 16.987C96.142 201.443 95 204.96 95 210h10v2h-2v2c-3.762-.295-6.61-.805-10-2.5-2-2.5-2-2.5-1.941-6.496.789-5.768 3.29-10.48 6.004-15.566l1.431-2.768A664 664 0 0 1 102 180"/><path fill="#3B2A22" d="M197 84c-.294 4.285-1.826 6.189-5 8.996l-1.625 1.379a2169 2169 0 0 0-3.29 2.906c-.53.466-1.062.931-1.61 1.41-3.922 3.479-7.546 7.128-10.787 11.246L173 112h-2l-1-3c4.978-7.806 11.99-14.06 19-20l1.895-1.668C194.73 84 194.73 84 197 84"/><path fill="#DCA585" d="m72 155 1.879 1.137c6.248 3.61 12.347 6.15 19.256 8.125 1.65.495 3.262 1.108 4.865 1.738l1 3h4l1 8-1.375-2.187c-4.807-5.151-12.133-8.63-19.187-9-3.503-.193-3.503-.193-5.438 2.187a89 89 0 0 0-2 4l.035-2.117.028-2.758.035-2.742c.064-2.4.064-2.4-1.098-4.383l-3 3z"/><path fill="#E4A989" d="M159 143h5c.95 3.695.95 6.305 0 10h-2l-1 3-2.023-2.473c-3.613-3.067-6.085-3.193-10.602-2.964l-2.132.054c-7.273.265-14.207 1.592-21.243 3.383v-2c3.711-1.66 7-2.393 11.035-2.816 1.139-.125 2.278-.25 3.451-.377l3.577-.37q3.517-.373 7.035-.753l3.14-.327c2.698-.286 2.698-.286 5.006-.962C160 146 160 146 162 147v-3z"/><path fill="#46382F" d="M83 164.625c6.233.196 12.696 2.708 17.125 7.125L102 174l-1 2-1.375-1.937C95.75 171.018 91.808 171.183 87 171l-.812 3.438L85 178l-3 1c-.37-6.523-.37-6.523 1.5-8.937L85 169c-3.46 1.25-6.147 2.675-9 5 2.278-8.785 2.278-8.785 7-9.375"/><path fill="#2F3E38" d="M183 240h2q.971 2.155 1.938 4.313l1.09 2.425C189 249 189 249 190 252c-2.638 2.638-4.622 4.366-8 6v4h2l1 6c-6.224-5.897-6.224-5.897-7-9l1.313-2.062c2.19-3.813 2.227-7.08 2.476-11.415C182 243 182 243 183 240"/><path fill="#6C2816" d="M160 264c-4.484 4.036-9.564 6.503-15 9-.866.4-1.733.8-2.625 1.21C140 275 140 275 137 274c-1.687-1.562-1.687-1.562-3-3h2l1-3c1.855-.66 1.855-.66 4.188-1.062 2.791-.525 5.193-1.078 7.875-2.063 3.798-1.131 6.983-1.011 10.937-.875"/><path fill="#2C3E3A" d="M88 242c2.325 2.853 3.75 5.54 5 9-4.111 3.524-7.465 6-13 6v-9l1.75-.187c3.137-1.133 4.342-3.155 6.25-5.813"/><path fill="#CD9C7F" d="m122 167 7 1-1 2.875c-1.102 2.896-1.102 2.896-1 5.125l2 2c.565 2.655.738 5.291 1 8-3.106-.565-5.311-1.133-7.324-3.668-2.607-4.729-3.068-7.976-1.676-13.332z"/><path fill="#752813" d="m54 131 17 4v8l-6-1v-2h-8v-3l-2-1z"/><path fill="#443125" d="M191.813 100.25 194 101c.317 4.041.358 6.378-1.687 9.938-2.313 2.062-2.313 2.062-5 2.437C185 113 185 113 184 112c-.288-2.93-.492-5.15 0-8 2.596-3.041 3.775-4.109 7.813-3.75"/><path fill="#863420" d="M126.578 264.906A98 98 0 0 1 133 268v1c-6.232 1.039-11.747.833-18 0-2.425 3.637-2.387 5.857-2.625 10.188l-.227 3.855L112 286h-1l.07-3.43q.029-2.222.055-4.445l.05-2.262c.018-1.955-.072-3.91-.175-5.863l-2-2c5.596-4.591 10.644-5.531 17.578-3.094"/><path fill="#23261C" d="M167 231c10.558 2.89 10.558 2.89 15 6l-1 2-6-3-2 3-3-1-.113 2.012c-.675 9.062-.675 9.062-3.887 12.988-2.187 1.813-2.187 1.813-4 3l-2-1 2.945-1.887c2.06-1.717 2.943-2.694 3.644-5.307.225-2.553.294-5.056.286-7.619l.063-2.677c.046-2.17.058-4.34.062-6.51"/><path fill="#D97F42" d="M168 294c1.875 1.688 1.875 1.688 3 4-.24 3.37-.588 4.588-3 7-3.625-.375-3.625-.375-7-1-1.334-6.425-1.334-6.425.125-8.937 2.539-1.439 4.003-1.566 6.875-1.063"/><path fill="#E6B391" d="M72 136h1v5l3.188.375c3.29.54 5.847 1.142 8.812 2.625l1 2 3 2-1 2-2.375-.5c-4.592-.633-8.99-.563-13.625-.5z"/><path fill="#F4EFE4" d="m134 172 3 1-1 1c-.547 5.87-.547 5.87 2 11l2 2c-7.375.363-7.375.363-9.937-1.125-1.552-2.737-2-4.72-2.063-7.875 1.77-2.747 3.063-4.531 6-6"/><path fill="#B48469" d="M166 134v6c-3.9 2.6-7.474 2.15-12 2v-2l-4-2v-2q2.874-.505 5.75-1l3.234-.562C162 134 162 134 166 134"/><path fill="#983C26" d="M154 268v3l-5 1 1 7-16 1v-2c6.226-4.43 12.908-7.222 20-10"/><path fill="#D19484" d="M225 182h2v2l3-1c2.333-.04 4.667-.044 7 0a91 91 0 0 1-4 4h-2l1.5 3.063c1.603 3.778 1.959 6.809 1.5 10.937-1.825 4.13-4.384 6.361-8 9l-2-1 1.531-.926c2.216-1.56 3.83-2.902 5.469-5.074.61-3.739.42-7.246 0-11h-3l-2-6h-2z"/><path fill="#973C26" d="M89 268c3.953.58 6.73 1.788 10.125 3.875l2.57 1.555c2.035 1.386 3.648 2.762 5.305 4.57q-3.937.33-7.875.625l-2.262.195c-1.95.14-3.908.168-5.863.18l-2-2 2-1c.656-2.527.656-2.527 1-5l-3-1z"/><path fill="#2C291E" d="M155.594 260.716c4.78.564 9.6.386 14.406.347l3.215-.014q3.893-.018 7.785-.049v1l-3.594.078c-11.036.347-20.795 1.882-31.406 4.922-2.662.685-5.33 1.344-8 2 5.333-5.818 9.422-9.526 17.594-8.284"/><path fill="#BD3F19" d="m29 157 4 1v3l-2 2a90 90 0 0 0-1 6h2l-1 4h-3l2 2c-4.252-.472-6.3-2.85-9-6v-3l5 1v-3c2-2.187 2-2.187 4-4h-2z"/><path fill="#9A3B28" d="m171 306 5 2c-3.41 7.306-3.41 7.306-6 9-3.422-.088-4.745-.773-7.312-3.062L161 312h3v-3l2.938-.937c2.903-.758 2.903-.758 4.062-2.063"/><path fill="#D98041" d="M77.125 283.188C79 284 79 284 81 286c-.375 3.625-.375 3.625-1 7-5.447 1.332-5.447 1.332-7.875-.125-1.52-2.533-1.633-3.971-1.125-6.875 2.056-2.203 3.074-3.082 6.125-2.812"/><path fill="#EBD1B8" d="M95 235c-.796 4.093-1.681 8.043-3 12l-3-6c-2.177 2.021-2.177 2.021-3.875 5.063C83 249 83 249 81 249.75l-2 .25a88 88 0 0 0-4 2 159 159 0 0 1 5-6h2l1-3h2l2-5-3-1h4l1-2c3.51-1.245 3.51-1.245 6 0"/><path fill="#292219" d="m141 171 6 3c.125 3.375.125 3.375 0 7-2 2-2 2-4.5 2.25C140 183 140 183 138 181c-.38-3.503-.402-5.363 1.5-8.375z"/><path fill="#A33B20" d="M167 263q2.874-.079 5.75-.125l3.234-.07C179 263 179 263 183 265v14h-3l.5-1.75c.645-2.517.645-2.517.5-6.25-1.978-2.895-1.978-2.895-5-5-3.71-.418-3.71-.418-7 0l-2 6c-1.125-1.687-1.125-1.687-2-4 .945-2.645.945-2.645 2-5"/><path fill="#DB8144" d="M172.438 264.75 176 265c2 3 2 3 1.688 5.625C177 273 177 273 176 274c-4.032.263-5.559.294-9-2 1.032-6.93 1.032-6.93 5.438-7.25"/><path fill="#F7F2EB" d="M147 171c3.89 1.297 6.525 2.668 9 6 0 3.222-.726 4.645-2.687 7.188-2.725 2.135-4.944 3.04-8.313 3.812-2.375-.375-2.375-.375-4-1l2.875-1.312c3.325-1.481 3.325-1.481 5.125-4.688.337-3.96.094-6.597-2-10"/><path fill="#CCA086" d="M157 176c2 2 2 2 2.39 4.426C159 183 159 183 157.173 184.73l-2.422 1.458-2.39 1.48L150 189l-2.012 1.156c-2.303.978-4.055 1.144-6.55 1.156l-2.317.051c-2.6-.445-3.47-1.363-5.121-3.363l2.09-.113c9.341-.512 9.341-.512 17.91-3.887 1.622-3.504 1.622-3.504 2-7z"/><path fill="#342010" d="M149.176 168.531c3.604 1.42 5.956 3.062 7.824 6.469v2c-2.54-1.13-4.133-2.133-6.125-4.125-4.218-2.751-7.972-2.655-12.875-1.875-2.68 1.068-4.596 2.332-7 4l-3 2c.34-3.17.999-3.999 3.438-6.187 5.324-3.766 11.428-3.822 17.738-2.282"/><path fill="#B24B26" d="M71 136h1l1 12 3.938-.25c5.371-.034 9.38 1.77 14.062 4.25-3.725 1.242-4.478.475-8-1a127 127 0 0 0-6-1l1 5c-2.763-.523-5.326-1.109-8-2z"/><path fill="#933925" d="M146 285v1l-7 2 3.375 1.375C146 291 146 291 148 293c.125 2.625.125 2.625 0 5l-.875-1.875c-1.062-2.258-1.062-2.258-3.125-4.125-2.584-.167-2.584-.167-5 0l-2 5-6-4 2-1v-4h3v-2c3.473-1.158 6.36-1.069 10-1"/><path fill="#8B3726" d="m109 292 1 3-1.687 1.563c-1.861 1.96-3.21 3.712-4.688 5.937-2.384 3.421-4.926 5.49-8.625 7.5h-3l.938-2.25c.871-2.257 1.539-4.395 2.062-6.75l3.188-.687c3.986-1.106 6.019-3.28 8.812-6.313h2z"/><path fill="#D6823C" d="M86.438 268.75C89 269 89 269 92 271c.375 2.5.375 2.5 0 5-3 2-3 2-6.125 1.688C83 277 83 277 82 276c-.187-2.437-.187-2.437 0-5 2-2 2-2 4.438-2.25"/><path fill="#4D514C" d="m73 252 2 1-2 2h5l-1 7 6 1v1H72l-1-3c-3.008-1.225-3.008-1.225-6-2 2.516-2.606 5.051-4.894 8-7"/><path fill="#852F11" d="m195 189 4 1c-.312 1.875-.312 1.875-1 4l-3 2 .125 2.25C195 201 195 201 192.438 204.063c-2.742 2.608-2.742 2.608-2.25 5.312L191 211c-2.892.826-4.887 1-8 1v-2l2.25-2.125c5.093-5.324 7.304-12.026 9.75-18.875"/><path fill="#A43513" d="m60 144 10 2c.9 4.504 1.042 7.943.879 12.488l-.072 2.131q-.116 3.347-.245 6.694l-.158 4.556Q70.211 177.434 70 183h-1v-30h-2c-1.727-1.715-1.727-1.715-3.625-3.937l-1.914-2.215C60 145 60 145 60 144"/><path fill="#D6A799" d="m52 214 1.293 1.242c4.441 3.828 7.648 5.124 13.52 5.696 5.806.636 5.806.636 7.617 2.66.757 1.902.757 1.902 1.57 5.402l2 2 1 3 2 2c-3.473-.565-4.95-1.626-7.187-4.312l-1.543-1.801c-1.331-1.978-1.843-3.558-2.27-5.887l-1.758-.078c-6.477-.47-10.163-2.254-15.117-6.547C52 216 52 216 52 214"/><path fill="#DB814B" d="M141.5 290.75c2.5.25 2.5.25 4.5 2.25.188 3.063.188 3.063 0 6-1 1-1 1-3.937 1.188C139 300 139 300 137 298c-.25-2.5-.25-2.5 0-5 2-2 2-2 4.5-2.25"/><path fill="#D97E4B" d="m102 291 1 5c-2.187 2.063-2.187 2.063-5 4-2.812-.25-2.812-.25-5-1 .256-2.343.593-4.678 1-7 2.709-1.354 5.01-1.065 8-1"/><path fill="#AC4A2B" d="M80 225c7.241 6.88 7.241 6.88 8 12h-7v-2l-4-2c1.875-6.875 1.875-6.875 3-8"/><path fill="#B8775E" d="M91 224c3.9-.075 7.24.06 11 1q2.38.211 4.766.316l2.695.127 2.789.12 2.836.13q3.457.159 6.914.307v1h-17l-1 3-13-2z"/><path fill="#3C2C22" d="m178 78 3 1c-.497 5.661-1.545 9.877-4 15h-4c1.618-12.618 1.618-12.618 5-16"/><path fill="#F5DACC" d="M247 156c1.875 1 1.875 1 3 3 .977 6.963-1.159 12.179-5 18l-3 2c1.124-2.248 2.252-4.413 3.563-6.562 1.98-4.738 2.174-9.348 2.437-14.438-1.418.115-2.834.243-4.25.375l-2.39.21c-2.457.432-4.153 1.293-6.36 2.415-3.25.125-3.25.125-6 0v-2c5.625-2 5.625-2 9-2 3.276-1.092 5.568-1.286 9-1"/><path fill="#E1AF9E" d="M24 151c1.68.634 3.35 1.293 5 2l-1-3h2v2l4 1v2c-9.41-.964-9.41-.964-14-2l1 3a278 278 0 0 1-1 4c-.038 2-.045 4 0 6-2-1-2-1-3-4a119 119 0 0 1-.062-5.687l.027-3.012L17 151c2.73-1.365 4.072-.749 7 0"/><path fill="#DE864D" d="m157 272 2 2c-.375 2.625-.375 2.625-1 5-6.152.098-6.152.098-8 0-1-1-1-1-1.062-4.062L149 272c2.907-1.454 4.896-.711 8 0"/><path fill="#CD9577" d="M111 203c7.75-.125 7.75-.125 10 1v6c-3.695.95-6.305.95-10 0z"/><path fill="#1E2E2B" d="m62 290-1.68 1.207-2.195 1.606-2.18 1.582c-2.57 2.12-3.86 3.748-4.195 7.105.078 2.75.078 2.75 2.25 5.5h-3c-2.312-2.625-2.312-2.625-4-6 .541-3.45 1.232-5.26 3.75-7.687 7.705-4.495 7.705-4.495 11.25-3.313"/><path fill="#98412E" d="m75.25 263.813 3.828.082L82 264v1l-3.875.375c-3.473.315-3.473.315-6.125 2.625h-2c-2.98 2.264-3.908 3.514-4.61 7.234l-.14 3.516-.172 3.547L65 285h-1a575 575 0 0 1-.25-8.812l-.102-2.526c-.097-6.07-.097-6.07 1.914-8.724 3.333-1.282 6.127-1.224 9.688-1.125"/><path fill="#81301F" d="M147 306c3.083 1.199 6.063 2.477 9 4v2h4v2l2.25.313c2.92.73 4.482 1.755 6.75 3.687-6.188.505-8.95-.76-14-4l-2.375-1.125C151 312 151 312 150 310l-3-1z"/><path fill="#AA4326" d="M26 122c3.782.108 5.536 1.309 8.063 3.938l1.511 1.628c1.639 1.648 3.26 2.601 5.426 3.434-2.187.313-2.187.313-5 0l-5-5-6-1v17c-2.97-2.97-2.943-5.226-3.25-9.375.281-4.079 1.271-7.646 4.25-10.625"/><path fill="#39443F" d="M60 109c2.972 1.125 5.334 2.223 8 4v2h3v2h-3l-1 2h-8l2-3v-3l-3 1z"/><path fill="#46251A" d="m117 294 4 1-.937 1.563c-1.352 3.1-1.63 6.096-2.063 9.437l-1 2-.437 2.5C116 313 116 313 114 315c-.707 1.65-1.38 3.316-2 5-1.717-4.085-.08-7.406 1.375-11.312 1.81-4.926 3.043-9.46 3.625-14.688"/><path fill="#AE3A18" d="M226 186c2 2 2 2 2 6h2v2h-2l1 3h2l-1 6h-3l-1 2-2-1c.875-6.75.875-6.75 2-9l-.5-1.812c-.61-2.67-.158-4.558.5-7.188"/><path fill="#CEA084" d="m77 179 2.75 2.438c4.925 3.594 10.339 3.455 16.25 3.562-3.852 3.345-6.61 3.569-11.582 3.422C82 188 82 188 78.875 185.75 77 183 77 183 77 179"/><path fill="#CF8F7C" d="m224 211-7 1-.043 1.793c-.276 4.565-.49 6.649-3.52 10.27L211 226l-3-1 2-2c.643-2.069.643-2.069 1-4l-3-1 2-1v-2l3-1v4l2-1c.658-3.03.658-3.03 1-6 3.053-.981 4.947-.981 8 0"/><path fill="#B3775A" d="m94 202 1 8h10v2h-2v2c-5.18-.406-8.466-1.038-12-5-.312-3.25-.312-3.25 0-6 2-1 2-1 3-1"/><path fill="#3B3D34" d="m47 126 2.195.875C56.37 129.701 56.37 129.701 64 130v3h10v3a958 958 0 0 1-6.187-.875l-3.481-.492c-3.035-.577-5.5-1.446-8.332-2.633-2.326-.381-4.66-.725-7-1z"/><path fill="#2D271B" d="M101 260c4.875 4.625 4.875 4.625 6 8q-2.938-.464-5.875-.937l-3.305-.528C95 266 95 266 93 265a295 295 0 0 0-8.125-1.062l-2.285-.276q-2.794-.335-5.59-.662v-1q4.532.173 9.063.375c.847.03 1.695.062 2.568.094 5.106.236 9.517.911 14.369 2.531z"/><path fill="#40372E" d="M95 172h1c.429 4.374.485 6.348-2.187 9.938C91 184 91 184 88.375 184.563 86 184 86 184 84.188 182L83 180c3.695-.95 6.305-.95 10 0v-5h2z"/><path fill="#C0451E" d="M31 140c1.267 2.28 2.02 4.103 2.5 6.688L34 149l2 1v2h-6v-2l-4-1-1-5 5 1z"/><path fill="#3C281A" d="M83 164.625c5.039.107 9.475 2.335 14 4.375-3 1-3 1-5.312 0-3.475-1.293-5.14-1.065-8.688 0-2.487 1.524-4.693 3.2-7 5 2.278-8.785 2.278-8.785 7-9.375"/><path fill="#CFD3D1" d="M185 240c2.957 2.52 4.394 4.833 5.938 8.313 3.34 6.425 9.743 8.81 16.062 11.687l-2 1c-7.67-2.941-14.914-6.066-18.437-13.875-.89-2.507-1.563-4.472-1.563-7.125"/><path fill="#B34923" d="m127 153 1 2h-2v2l2 1h-5l-1 6 4-1v2h5v1h-6v2c-3.875-1.875-3.875-1.875-5-3 .34-4.508.736-7.736 4-11z"/><path fill="#AE4D29" d="m237 136 2 1c-7.914 4.778-14.57 4.645-23.562 3.438-3.291-.743-3.291-.743-5.438.562a76 76 0 0 1-5-1l3-1v-2q2.656.212 5.313.438c.986.08 1.972.162 2.988.246C219 138 219 138 222 139c4.233.332 7.408-.008 11.313-1.562z"/><path fill="#554235" d="M192 101h2c.125 6.75.125 6.75-1 9-1.875.75-1.875.75-4 1l-3-2v-4l6-2z"/><path fill="#202E29" d="M56 108c2.625.938 2.625.938 5 2l-2 3h2l1 4c-1.687.688-1.687.688-4 1-2.75-1.437-2.75-1.437-5-3 .375-2.937.375-2.937 1-6z"/><path fill="#3C3E38" d="m73 312 2.688 1.938c3.004 1.87 4.863 2.656 8.312 3.062l-3 2c-.724 2.06-.724 2.06-1 4l-4 1c-1-3-1-3 0-6h-2z"/><path fill="#3C2C23" d="M204 94c1.336 3.824.83 7.157.313 11.125l-.45 3.758C203 112 203 112 200.918 113.43L199 114c.647-6.95 2.86-13.382 5-20"/><path fill="#642F25" d="M127 301h1l2 20 3 1v2h-2v5h-2c-1.617-9.5-2.263-18.368-2-28"/><path fill="#D2A689" d="M102 258h9l-2 1c-.27 4.65-.27 4.65 1 9-3.796-1.491-5.717-3.657-8-7z"/><path fill="#A83D21" d="m215.75 207.75 2.25.25v2h-2v7l-3 1-1-3c-2.015-.733-2.015-.733-4-1 1.796-3.592 3.64-5.876 7.75-6.25"/><path fill="#808B86" d="m31 96 2 1 3 1-1 4h-2v9c-2.01-1.927-2.938-3.414-3.234-6.2-.04-6.25-.04-6.25 1.234-8.8"/><path fill="#F7E6CF" d="M179 72c1.482.254 2.96.53 4.438.813l2.496.457L188 74l1 3-2.375.625c-2.934 1.182-2.934 1.182-3.937 4.5L182 85h-1v-9a89 89 0 0 0-2-4"/><path fill="#84351F" d="M82 264q2.687-.079 5.375-.125l3.023-.07C93 264 93 264 95 266h-4v2c-2.709 1.354-5.01 1.065-8 1l1-4z"/><path fill="#A15C44" d="m182 186 3 2-.812 1.563c-1.511 3.101-2.844 6.26-4.188 9.437h-3q.676-2.69 1.375-5.375l.773-3.023C180 188 180 188 182 186"/><path fill="#E6B99B" d="M160 167h1c.077 4.516.102 8.59-1 13l-1.687-2.187c-2.286-2.873-2.286-2.873-5-5.5C151 170 151 170 150 168a295 295 0 0 1 3.938.875l2.214.492C158 170 158 170 159 172z"/><path fill="#AE846B" d="M148 138v1l-10 1v3h-7l2-3-5-1v-1c13.633-1.333 13.633-1.333 20 0"/><path fill="#B43D14" d="M42 123c2.438 1.125 2.438 1.125 5 3 .813 3.188.813 3.188 1 6-1.875 1.063-1.875 1.063-4 2l-2-1z"/><path fill="#F4E3CB" d="m188 95 2 1-1.5 1.313c-1.832 1.684-1.832 1.684-1.5 4.687a102 102 0 0 1-3 3c-1.176 2.1-1.176 2.1-2 4l-1-3-3-1z"/><path fill="#492619" d="M140 309c3.775 1.09 6.47 1.908 9 5l-5-1v9c-1.461-2.923-2.341-4.925-3-8h-2z"/><path fill="#DBADA0" d="M32 182h1v7h2l.875 2.75c.893 2.58 1.842 4.855 3.125 7.25l1 2c-3.794-1.22-5.344-3.54-7.18-6.988-1.369-3.358-1.636-6.393-1.82-10.012z"/><path fill="#44352D" d="M186.234 94.316 188 95a271 271 0 0 1-2.812 3.5l-1.583 1.969C182 102 182 102 179 102l-2-2a181 181 0 0 1 3.25-3.062l1.828-1.723C184 94 184 94 186.234 94.316"/><path fill="#D39E80" d="M116 210v3c-4.462 1.806-7.31 2.117-12 1 3.223-4.834 6.553-4.103 12-4"/><path fill="#BC4A24" d="m34 155-1.75.813c-2.306 1.216-4.27 2.49-6.25 4.187v2l-4-1v-5c3.996-2.83 7.427-1.762 12-1"/><path fill="#C08E71" d="M73 136h6l1 3h6v1l-13 1z"/><path fill="#7E8684" d="M48 99c3.239 1.444 5.62 3.258 8.25 5.625l2.14 1.914L60 108c-2.076.553-3.844 1-6 1l-.187-2.187c-1.058-3.66-3.019-5.305-5.813-7.813m5 10c2 2 2 2 2 4l-5-1v-2z"/><path fill="#583123" d="m156 265-6 3v1l-3.375.438c-3.446.346-3.446.346-5.625 1.562-1.666.04-3.334.044-5 0l1-3c1.855-.66 1.855-.66 4.188-1.062 2.878-.54 5.349-1.13 8.125-2.125 2.782-.842 4.014-.84 6.687.187"/><path fill="#A1381A" d="m234 157-5 2v2l10-2-2 4h-8l-2-6c4.75-1.125 4.75-1.125 7 0m-10 2 3 1-3 1z"/><path fill="#202C28" d="m67 116 5 2v2l2 1c-1.703 1.117-1.703 1.117-4 2-2.36-.68-2.36-.68-4.75-1.875l-2.422-1.18L61 119l1.875-.437c2.158-.495 2.158-.495 4.125-1.563z"/><path fill="#D87D4A" d="M77.188 283.188C79 284 79 284 80 286l-6-1v6h6v2c-5.447 1.332-5.447 1.332-7.875-.125-1.52-2.533-1.633-3.971-1.125-6.875 2.086-2.235 3.097-3.077 6.188-2.812"/><path fill="#D49A7D" d="m115 259-5 1v2h3v2l2 1-5 3-2-2c.25-3.562.25-3.562 1-7 2.49-1.245 3.41-.777 6 0"/><path fill="#782D16" d="m167 228 1.688.563c2.711.513 4.656.101 7.312-.563l1 5c-4.176 1.392-6.135-.177-10-2z"/><path fill="#BA4110" d="m25 156 1 3c2.015.733 2.015.733 4 1l-2 4h-2v3h-4l1-5h3z"/><path fill="#B0785B" d="M135 220h3l2 6-2.062-.625c-3.089-.594-3.089-.594-6.563.688L128 227l-3-2 10-2z"/><path fill="#5C301D" d="M166 132h26v1c-1.936.09-1.936.09-3.91.184l-5.153.254-2.568.119c-4.849.243-9.575.669-14.369 1.443z"/><path fill="#DC834A" d="M86.625 268.875 89 269v3l-1.937.313L85 273l-1 3h6l-1 2c-5.875-.875-5.875-.875-7-2-.187-2.437-.187-2.437 0-5 2-2 2-2 4.625-2.125"/><path fill="#AA3C19" d="M233 176c2.438.25 2.438.25 5 1l2 3c-1.187 1.5-1.187 1.5-3 3-2.687.188-2.687.188-5 0l1-2 1-3-2-1z"/><path fill="#DFAE90" d="m130 167 5 1-2.25 2.188c-2.443 2.498-4.618 5.048-6.75 7.812 0-5.043 1.402-6.78 4-11"/><path fill="#662B16" d="m54 131 17 4c-5.771 1.443-10.117 2.26-16 1z"/><path fill="#8B9491" d="M57 315c2.125.938 2.125.938 4 2l-2 1 8 3v1c-5.65-.601-10.662-2.075-16-4z"/><path fill="#953616" d="M103 291h1c.75 2.75.75 2.75 1 6-1.437 2.375-1.437 2.375-4 4-2.803.386-5.14.234-8 0-1-1-1-1-1.062-4.062L92 294h1v5c5.015-.33 5.015-.33 9-3 .648-2.57.648-2.57 1-5"/><path fill="#293430" d="M218 44q2.514.428 5 1c-1.118 3.868-2.029 6.29-5 9q-.29-2.218-.562-4.437l-.317-2.497L217 45z"/><path fill="#9DA29F" d="M64 25c2.808 2.278 3.917 3.362 4.39 7.016l-.14 3.234-.11 3.266L68 41c-3.06-3.06-4.024-6.837-5-11 .313-3.062.313-3.062 1-5"/><path fill="#A5ADAA" d="M187 16c6.762.41 12.672 1.57 19 4-3.133 1.044-3.99.934-7 0v2h-2v-3l-5 1v-2l-5-1z"/><path fill="#7F8686" d="M82 319h3v5c-5.533 2.767-12.393.602-18-1v-1c5.03.525 10.019 1.106 15 2z"/><path fill="#1E2A23" d="m65 259 1.875.563c2.167.674 2.167.674 4.125-.563l1 2 3 2-9 1v-2h-2z"/><path fill="#4E2719" d="M122 294h4c1.067 3.462 1.102 6.64 1.063 10.25l-.028 3.266L127 310c-2.25-3.901-2.394-7.338-2.656-11.758-.148-2.44-.148-2.44-2.344-4.242"/><path fill="#403831" d="m185 268 2 1c.081 1.937.14 3.875.188 5.813l.105 3.269C187 281 187 281 184 284z"/><path fill="#772B11" d="m170 211 12 1v1l-12 3z"/><path fill="#F9DEC6" d="M191 97c2.412 1.528 3.892 2.83 5.438 5.25.814 3.984-.551 6.246-2.438 9.75l-2 1 .5-2.062c.587-3.447.823-6.45.5-9.938-1.861-1.982-1.861-1.982-4-3z"/><path fill="#E5D0B9" d="M180 83c1.945 2.918 2.453 4.625 3 8h3c-1.75 3.875-1.75 3.875-4 5l-1-3-1.125-1.812c-1.196-2.99-.576-5.106.125-8.188"/><path fill="#42312A" d="m177 85 2 3c-.875 3.188-.875 3.188-2 6h-4c.615-5.538.615-5.538 2.563-7.875z"/><path fill="#18251F" d="M89 319h3l-.125 2.375c-.162 2.786-.162 2.786 2.125 4.625l-11-1v-1h5z"/><path fill="#973619" d="M146.875 291.25c1.5 2.332 1.345 4.034 1.125 6.75l-.875-1.875c-1.062-2.258-1.062-2.258-3.125-4.125-3.484-.282-6.606.224-10 1l1-3c3.938-1.75 8.334-1.11 11.875 1.25"/><path fill="#909896" d="m83 243 4 1c-3.455 4.813-3.455 4.813-6 5.688L79 250a88 88 0 0 0-4 2 159 159 0 0 1 5-6h2z"/><path fill="#E59D79" d="m155 159 1 2-6.055.488c-2.34.386-2.34.386-3.945 3.512h-2v-2l-3-1c4.93-2.04 8.58-3.407 14-3"/><path fill="#EECEB4" d="m201 96 2 1-2 8h-2c-2.125-4.625-2.125-4.625-1-8h2z"/><path fill="#F3DEC5" d="m179 89 2 3 2 1c-.187 1.875-.187 1.875-1 4-2.562 1.25-2.562 1.25-5 2q.212-2.22.438-4.437c.08-.824.162-1.648.246-2.497C178 90 178 90 179 89"/><path fill="#293025" d="M147 314c4.571.549 8.674 1.417 13 3v1l-9 1v-3l-4-1z"/><path fill="#1F2A25" d="m78 250 3 1-2 5h-7z"/><path fill="#DEC7B1" d="M205 83h2a564 564 0 0 1-.875 5.375l-.492 3.023C205 94 205 94 203 96c0-10 0-10 2-13"/><path fill="#743229" d="M110 318c1.534 3.069.55 5.7 0 9h-4c-.25-2.812-.25-2.812 0-6 2-1.875 2-1.875 4-3"/><path fill="#D6843B" d="M97 292c2.063.438 2.063.438 4 1l-1 4-5 1c.875-4.875.875-4.875 2-6"/><path fill="#C48F6F" d="M107 237h11v2c-2.986 1.493-5.709 1.118-9 1l-2-1z"/><path fill="#7D290C" d="M190 203c1 3 1 3 1 6l-1 2c-3 1-3 1-7 1 0-2 0-2 2.375-4.5L188 205z"/><path fill="#B14820" d="M168 171c1.89.258 1.89.258 4 1 1.047 1.742 1.047 1.742 1.75 3.875l.734 2.117C175 180 175 180 175 183c-3.533-3.905-5.639-6.802-7-12"/><path fill="#372316" d="M204 134c6.56.39 11.945 1.421 18 4-5.736 1.912-12.642-.5-18-3z"/><path fill="#E7C3AE" d="M171 117c3.04-.293 3.04-.293 6.625-.187l3.602.082L184 117c-4.107 2.738-7.964 4.26-12.937 3.625L169 120z"/><path fill="#414C40" d="m176 67 2 1v2l3.875.438c2.382.268 3.97.484 6.125 1.562v2c-5.446-1.029-10.118-2.246-15-5z"/><path fill="#B84B28" d="M230.848 151.902 237 152l-1 5-4-1v-2l-4-1c1-1 1-1 2.848-1.098"/><path fill="#37322C" d="m144 315 2 2c-.023 2.383-.023 2.383-.375 5.125l-.336 2.758L145 327l3-1c2.188 1.438 2.188 1.438 4 3h-8z"/><path fill="#D78639" d="m151 273 5 1v4l-5-1z"/><path fill="#C2896B" d="m99 186 2 3h-2c-.182.71-.364 1.42-.55 2.152l-.763 2.786-.738 2.777L96 199l-3 1c1.492-4.972 3.605-9.418 6-14"/><path fill="#C5967B" d="M84 185h12c-4.423 3.317-5.72 3.305-11 3z"/><path fill="#923112" d="M56 140c5.57 1.772 5.57 1.772 8.125 3.125 2.134 1.157 2.134 1.157 5.875.875v2c-7.429.286-7.429.286-11-2v-2l-3-1z"/><path fill="#DDC3AC" d="M184 105v6c-5.75-1.75-5.75-1.75-8-4 2.906-1.257 4.796-2 8-2"/><path fill="#808A88" d="m47 313 3 1 1 3q-2.19-.425-4.375-.875l-2.46-.492C42 315 42 315 40 313c2.698-1.349 4.118-.703 7 0"/><path fill="#D7A081" d="M128 168c0 3.867-1.42 6.509-3 10l-2-1c.875-5.75.875-5.75 2-8z"/><path fill="#ECE4DC" d="M85.234 168.316 87 169l-2.312 1.375A153 153 0 0 0 79 174v4h-2l-1-4a181 181 0 0 1 3.25-3.062l1.828-1.723C83 168 83 168 85.234 168.316"/><path fill="#D89F90" d="m20 166 5 2v2l2 1a100 100 0 0 1 3 4c-4.257-.473-6.257-2.886-9-6z"/><path fill="#612714" d="m101 304 2 1-2 1zm-2 2 2 1-2 4h-2v5l-.375-1.937L96 312l-2-1z"/><path fill="#858E8C" d="M185 240c5.951 5.753 5.951 5.753 6.125 10.188L191 253c-3.43-3.756-4.564-8.235-6-13"/><path fill="#8C3317" d="M186 210h3c0 3 0 3-1.5 4.688L186 216l-4-2v-2l-2-1c1.207.03 1.207.03 2.438.063 2.496.233 2.496.233 3.562-1.063"/><path fill="#D19E7C" d="M160 166v8c-4.875-4.625-4.875-4.625-6-8 3-1 3-1 6 0"/><path fill="#6F7C79" d="m33 111 7 2-2 5c-3-1-3-1-5-4z"/><path fill="#222C27" d="M210 70c1.236 3.708.568 4.675-.937 8.188l-1.153 2.73L207 83h-2l-1-4 3-1c1.17-2.93 1.17-2.93 2-6z"/><path fill="#D88238" d="m140 293 5 1-1 5-4-1z"/><path fill="#D58236" d="m74 285 5 1-2 5-4-2z"/><path fill="#7E2D1C" d="m98 268 5 1-2 1 3 5c-5.75-1.625-5.75-1.625-8-5h2z"/><path fill="#D68339" d="m172 267 5 2c-2 3-2 3-3 4-2.062-.437-2.062-.437-4-1 .875-3.875.875-3.875 2-5"/><path fill="#392B1B" d="m167 231 7 2c-3.875 1-3.875 1-5 1l-1 11h-1z"/><path fill="#C38879" d="m190 229 3 1 2-1c-.386 2.798-.801 3.82-2.937 5.75C190 236 190 236 188 236a85 85 0 0 1 2-7"/><path fill="#B98266" d="M102 180h2l-1 8h-3c.875-5.75.875-5.75 2-8"/><path fill="#B3BAB8" d="M33 94c6.463-.454 9.61.406 15 4l-2 1-2-1-1 2-1-4h-9z"/><path fill="#3C281F" d="M179 299c.857 3.155 1.188 4.893 0 8a149 149 0 0 1-4 6l-1-2a92 92 0 0 1 2.438-6.125l1.433-3.32z"/><path fill="#34342E" d="M63 287c2.034 1.415 2.904 2.55 3.422 4.98.24 2.002.413 4.011.578 6.02h-2l-.312-2.875c-.373-3.416-.373-3.416-3.688-5.125l-1-2z"/><path fill="#7F2A17" d="M117 264h7l1 5c-3.437-.812-3.437-.812-7-2z"/><path fill="#C68367" d="m122 167 6 1-3 1c-.733 2.015-.733 2.015-1 4h-2l-1 2c-.125-5.75-.125-5.75 1-8"/><path fill="#E9DCC9" d="m191 104-1 5h-4v-4c2-1 2-1 5-1"/><path fill="#283127" d="m193 72 2 1-1 1 5 1v3l2 1c-3.344-.557-6.033-1.352-9-3z"/><path fill="#4B4137" d="M141 170h7c.625 1.875.625 1.875 1 4l-2 2v-2l-2.437-.875C142 172 142 172 141 170"/><path fill="#F9F7F1" d="M81 171h1v7l-4-1c.573-2.867.861-3.861 3-6"/><path fill="#DFB096" d="m96 168 7 1 1 8-1.75-2.25A77 77 0 0 0 96 168"/><path fill="#F1C3A3" d="m74 159 3 3-2 4h-3c.875-4.75.875-4.75 2-7"/><path fill="#C44A22" d="M34 153h5l1 3-3 3-2-1c-.625-2.562-.625-2.562-1-5"/><path fill="#6A240F" d="m64 135 7 1v7h-1v-6l-2.375 1.563L65 140l-2-1z"/><path fill="#F8DBBF" d="M166 105h3l-2 5h-1l-1 6h-1v-9h2z"/><path fill="#31231B" d="m193 90-4 5-4-2c2.466-3.115 4.108-3.316 8-3"/><path fill="#161F1B" d="M30 299h1v5l3 1-1 3 3 1-2 1c-2-1.562-2-1.562-4-4-.25-3.75-.25-3.75 0-7"/><path fill="#9D462F" d="M51 205h2c1.354 2.709 1.065 5.01 1 8l-2 1z"/><path fill="#F7F7F2" d="m132 173 2 1-1 2h-2v2h3v2h-5c.75-4.75.75-4.75 3-7"/><path fill="#BD5330" d="m41 126 2 3-1 3h-7v-3h2l3-1z"/><path fill="#929494" d="M60 109c2.972 1.125 5.334 2.223 8 4l-1 2-2.25-1.062c-2.882-.983-3.962-.97-6.75.062z"/><path fill="#4A3628" d="M172 106h3l1 3c-1.375 1.5-1.375 1.5-3 3h-2l-1-3z"/><path fill="#DFCBB5" d="m197 78 3 2v3h-2l-1 4-2-8z"/><path fill="#ECECEB" d="m96 174 1 4h2v4h-5z"/><path fill="#CF9976" d="M166 140v9h-1l-1-5-6-1c5.8-3 5.8-3 8-3"/><path fill="#A6472E" d="M42 123c2.438 1.125 2.438 1.125 5 3 .813 3.188.813 3.188 1 6h-2l-2-6h-2z"/><path fill="#4D372B" d="m192 110-2 3c-2.625.188-2.625.188-5 0l-1-3c2.862-1.43 4.934-.6 8 0"/><path fill="#D3B19A" d="M199 105h2l-3 9-2-2z"/><path fill="#852D1E" d="m97 302 1 3-2 3-1 2h-3c1.186-3.375 2.276-5.647 5-8"/><path fill="#7B2E1C" d="m160 265-6 4c-2-1-2-1-3-3 3.426-1.618 5.38-2.34 9-1"/><path fill="#D89779" d="m186 203 4 1-5 5-1-3z"/><path fill="#95593F" d="M180 191h1v7l-4 1c1.875-5.75 1.875-5.75 3-8"/><path fill="#F2B590" d="M170 177c2.648 2.578 4.944 4.916 7 8l-2.937-1c-2.684-1.052-2.684-1.052-4.063-1z"/><path fill="#D2A488" d="M157 176c2 2 2 2 2.125 4.625L159 183h-3c-.043-2-.04-4 0-6z"/><path fill="#DAD5D1" d="m134 172 3 1-2 7-1-2h-3v-2h2z"/><path fill="#EBB290" d="m72 155 5 3-5 5z"/><path fill="#E6A47C" d="M161 148h1v8a318 318 0 0 1-6-5v-1h5z"/><path fill="#B23E1B" d="m240 146 1 3-3 3-3-2 1-3 3 1z"/><path fill="#3D271B" d="m240 131 2 1a141 141 0 0 1-5 5h-2l1-4h4z"/><path fill="#2D372D" d="m45 117 1 4-2-2zm-6 1c2.438.75 2.438.75 5 2 .813 2.125.813 2.125 1 4-2.622-1.049-3.794-1.65-5.25-4.125z"/><path fill="#A45E46" d="M105 227h11v1h-8v2l-4-1z"/><path fill="#D7A987" d="M171 182h2c-.564 3.27-1.5 4.826-4 7l-1-2c1.313-2.625 1.313-2.625 3-5"/><path fill="#EBC7A5" d="m73 169 2 1c.625 3.063.625 3.063 1 6l-3 1z"/><path fill="#4A3529" d="M152 170a141 141 0 0 1 5 5v2c-1.937-.687-1.937-.687-4-2-.75-2.625-.75-2.625-1-5"/><path fill="#C84721" d="M240 134h1v9l-2-1c-.75-2.375-.75-2.375-1-5z"/><path fill="#603524" d="m47 126 7 3v2h-5z"/><path fill="#E7C3A6" d="m100 251 1 2h2l-2 4-4-2 1-2h2z"/><path fill="#9D5B42" d="M128 226c-2.762 2.762-5.207 2.579-9 3v-2c3.196-1.065 5.657-1.074 9-1"/><path fill="#BE7D63" d="M113 206h3v4h-5z"/><path fill="#DFB9A7" d="m101 180 1 2-3 4-6-1 1.75-.812c2.283-1.205 4.224-2.596 6.25-4.188"/><path fill="#CC8A76" d="M239 176h3c-.25 2.375-.25 2.375-1 5-2.062 1.313-2.062 1.313-4 2l1-1.812c1.208-2.242 1.208-2.242 1-5.188"/><path fill="#3F2A1E" d="m132 170 2 1v2a125 125 0 0 1-6 4c.564-3.27 1.5-4.826 4-7"/><path fill="#D5B298" d="M76 164h6l-1.875 1.75C78.187 167.802 77.1 169.434 76 172z"/><path fill="#BB6546" d="M25 144h2v2h3v4l-4-1z"/><path fill="#FAEBD0" d="m188 95 2 1-1.5 1.313c-1.832 1.684-1.832 1.684-1.5 4.687l-4-2z"/><path fill="#9FA5A2" d="m220 51 1 3c-1.937 2.688-1.937 2.688-4 5-.625-1.812-.625-1.812-1-4l2-3 1 1z"/></svg>