<?xml version="1.0" encoding="iso-8859-1"?>
<!-- Uploaded to: SVG Repo, www.svgrepo.com, Generator: SVG Repo Mixer Tools -->
<svg height="800px" width="800px" version="1.1" id="Layer_1" xmlns="http://www.w3.org/2000/svg" xmlns:xlink="http://www.w3.org/1999/xlink" 
	 viewBox="0 0 496 496" xml:space="preserve">
<circle style="fill:#1ABCE8;" cx="248" cy="264.8" r="208"/>
<path style="fill:#1881EA;" d="M40,264.8c0-115.2,92.8-208,208-208s208,92.8,208,208"/>
<circle style="fill:#1C91F2;" cx="248" cy="264.8" r="182.4"/>
<path style="fill:#1881EA;" d="M119.2,136c71.2-71.2,186.4-71.2,257.6,0s71.2,186.4,0,257.6"/>
<path style="fill:#D81A71;" d="M295.2,481.6c0,8-20.8,14.4-47.2,14.4s-47.2-6.4-47.2-14.4s20.8-55.2,47.2-55.2
	S295.2,473.6,295.2,481.6z"/>
<path style="fill:#FF50A8;" d="M109.6,179.2c0-69.6,62.4-154.4,138.4-154.4c76.8,0,138.4,84,138.4,154.4S324.8,326.4,248,326.4
	S109.6,248.8,109.6,179.2z"/>
<path style="fill:#EF337F;" d="M109.6,179.2C109.6,109.6,172,44,248,44c76.8,0,138.4,65.6,138.4,135.2S324.8,326.4,248,326.4
	S109.6,248.8,109.6,179.2z"/>
<g>
	<path style="fill:#D81A71;" d="M369.6,269.6c0,51.2-65.6,224-121.6,224s-121.6-172.8-121.6-224S192,163.2,248,163.2
		S369.6,219.2,369.6,269.6z"/>
	<path style="fill:#D81A71;" d="M308,168c0,53.6-32.8,35.2-60,35.2s-60,18.4-60-35.2s32.8-116.8,60-116.8S308,115.2,308,168z"/>
</g>
<path style="fill:#EF337F;" d="M199.2,256.8c0,26.4-0.8,57.6-26.4,57.6c-26.4,0-68-31.2-68-57.6s20.8-62.4,47.2-62.4
	S199.2,231.2,199.2,256.8z"/>
<path style="fill:#D81A71;" d="M199.2,256.8c0,26.4-0.8,57.6-26.4,57.6c-26.4,0-68-31.2-68-57.6s23.2-19.2,49.6-19.2
	C180,237.6,199.2,231.2,199.2,256.8z"/>
<path style="fill:#EF337F;" d="M391.2,256.8c0,26.4-41.6,57.6-68,57.6s-26.4-31.2-26.4-57.6s20.8-62.4,47.2-62.4
	S391.2,231.2,391.2,256.8z"/>
<path style="fill:#D81A71;" d="M391.2,256.8c0,26.4-41.6,57.6-68,57.6s-26.4-31.2-26.4-57.6s20.8-16,47.2-16
	S391.2,231.2,391.2,256.8z"/>
<g>
	<path style="fill:#C4126B;" d="M233.6,252c0,12,8,44.8,2.4,44.8S218.4,272,218.4,260s4-11.2,9.6-11.2S233.6,240.8,233.6,252z"/>
	<path style="fill:#C4126B;" d="M262.4,252c0,12-8,44.8-2.4,44.8s17.6-24.8,17.6-36.8s-4-11.2-9.6-11.2S262.4,240.8,262.4,252z"/>
	<path style="fill:#C4126B;" d="M284,311.2c0,6.4-21.6,43.2-36,43.2s-36-36-36-43.2s21.6,13.6,36,13.6
		C262.4,324.8,284,304.8,284,311.2z"/>
</g>
<path style="fill:#AD0B64;" d="M284,311.2c0,6.4-21.6,26.4-36,26.4s-36-20-36-26.4s21.6,16,36,16S284,304.8,284,311.2z"/>
<g>
	<path style="fill:#EF337F;" d="M224.8,296c0.8-0.8,2.4-0.8,3.2-1.6c-0.8,0-2.4-0.8-4-0.8c-8,0-14.4,5.6-14.4,12.8
		c0,0.8,0,1.6,0.8,3.2C212,304,217.6,299.2,224.8,296z"/>
	<path style="fill:#EF337F;" d="M271.2,296c-0.8-0.8-2.4-0.8-3.2-1.6c0.8,0,2.4-0.8,4-0.8c8,0,14.4,5.6,14.4,12.8
		c0,0.8,0,1.6-0.8,3.2C284,304,278.4,299.2,271.2,296z"/>
</g>
<path style="fill:#B20D67;" d="M280,256.8c0,8-14.4-5.6-32-5.6s-32,13.6-32,5.6s14.4-24.8,32-24.8C265.6,231.2,280,248,280,256.8z"
	/>
<path style="fill:#EF337F;" d="M189.6,237.6c20.8,7.2,44-0.8,39.2,10.4c-4.8,11.2-24.8,24-45.6,16.8s-40-38.4-32.8-48
	C161.6,200,168.8,230.4,189.6,237.6z"/>
<path style="fill:#B20D67;" d="M189.6,240c20.8,7.2,44-3.2,39.2,8c-4.8,11.2-28,32-48,24.8c-20.8-7.2-30.4-39.2-25.6-50.4
	C159.2,212,168.8,232.8,189.6,240z"/>
<path style="fill:#591035;" d="M189.6,240c20.8,7.2,44-3.2,39.2,8c-4.8,11.2-24.8,24-45.6,16.8s-33.6-31.2-28.8-41.6
	C159.2,212,168.8,232.8,189.6,240z"/>
<path style="fill:#1E0313;" d="M188,257.6c16,5.6,32-0.8,40.8-9.6c4-10.4-19.2-0.8-39.2-8c-16-5.6-24.8-19.2-31.2-20
	C158.4,232,170.4,251.2,188,257.6z"/>
<path style="fill:#EF337F;" d="M306.4,237.6c-20.8,7.2-44-0.8-39.2,10.4c4.8,11.2,24.8,24,45.6,16.8c20.8-7.2,40-38.4,32.8-48
	C334.4,200,327.2,230.4,306.4,237.6z"/>
<path style="fill:#B20D67;" d="M306.4,240c-20.8,7.2-44-3.2-39.2,8c4.8,11.2,28,32,48,24.8c20.8-7.2,30.4-39.2,25.6-50.4
	C336.8,212,327.2,232.8,306.4,240z"/>
<path style="fill:#591035;" d="M306.4,240c-20.8,7.2-44-3.2-39.2,8c4.8,11.2,24.8,24,45.6,16.8c20.8-7.2,33.6-31.2,28.8-41.6
	C336.8,212,327.2,232.8,306.4,240z"/>
<path style="fill:#1E0313;" d="M308,257.6c-16,5.6-32-0.8-40.8-9.6c-4-10.4,19.2-0.8,39.2-8c16-5.6,24.8-19.2,31.2-20
	C337.6,232,325.6,251.2,308,257.6z"/>
<g>
	<path style="fill:#EF337F;" d="M248,194.4c-25.6,0-46.4-27.2-48.8-62.4c0,1.6,0,3.2,0,5.6c0,37.6,21.6,67.2,48.8,67.2
		s48.8-30.4,48.8-67.2c0-1.6,0-3.2,0-5.6C294.4,167.2,273.6,194.4,248,194.4z"/>
	<path style="fill:#EF337F;" d="M248,218.4c-25.6,0-46.4-27.2-48.8-62.4c0,1.6,0,3.2,0,5.6c0,37.6,21.6,67.2,48.8,67.2
		s48.8-30.4,48.8-67.2c0-1.6,0-3.2,0-5.6C294.4,191.2,273.6,218.4,248,218.4z"/>
</g>
<path style="fill:#D3B524;" d="M216.8,427.2c0,0,0.8-34.4-12.8-50.4c0,0,28,16,22.4,60c0,0-1.6,1.6-6.4,0.8
	C216,436,216.8,427.2,216.8,427.2z"/>
<g>
	<path style="fill:#C4126B;" d="M178.4,332.8c0,0-6.4,28-16,52c2.4,4.8,4.8,10.4,8,15.2c9.6-9.6,20-25.6,30.4-50.4
		c0,0-14.4-12.8-17.6-14.4C179.2,332.8,178.4,332.8,178.4,332.8z"/>
	<path style="fill:#C4126B;" d="M317.6,332.8c0,0,6.4,28,16,52c-2.4,4.8-4.8,10.4-8,15.2c-9.6-9.6-20.8-25.6-30.4-50.4
		c0,0,14.4-12.8,17.6-14.4C316.8,332.8,317.6,332.8,317.6,332.8z"/>
</g>
<path style="fill:#B20D67;" d="M130.4,296.8c5.6,24.8,17.6,56.8,32,88c7.2-17.6,4.8-40.8-7.2-61.6
	C148,311.2,139.2,302.4,130.4,296.8z"/>
<g>
	<path style="fill:#EF337F;" d="M248,352.8c-6.4,0-29.6-10.4-57.6-34.4c-31.2-26.4-43.2-13.6-43.2-13.6s42.4,54.4,57.6,106.4
		c9.6,33.6-0.8,51.2,25.6,48.8c14.4-1.6,15.2-6.4,17.6-6.4V352.8z"/>
	<path style="fill:#EF337F;" d="M248,352.8c6.4,0,29.6-10.4,57.6-34.4c31.2-26.4,43.2-13.6,43.2-13.6s-42.4,54.4-57.6,106.4
		c-9.6,33.6,0.8,51.2-25.6,48.8c-14.4-1.6-15.2-6.4-17.6-6.4V352.8z"/>
</g>
<path style="fill:#1E0313;" d="M300.8,327.2c-28,24-46.4,25.6-52.8,25.6c-6.4,0-24.8-1.6-52.8-25.6c-31.2-26.4-36.8-16.8-36.8-16.8
	s32.8,48.8,47.2,100.8c9.6,33.6,7.2,42.4,32.8,42.4c4,0,7.2,0,9.6,0l0,0l0,0l0,0l0,0c2.4,0,5.6,0,10.4,0
	c26.4-0.8,23.2-8.8,32.8-42.4c14.4-52,47.2-100.8,47.2-100.8S332,300.8,300.8,327.2z"/>
<path style="fill:#591035;" d="M300.8,327.2c-28,24-46.4,25.6-52.8,25.6c-6.4,0-24.8-1.6-52.8-25.6c-10.4-8.8-17.6-13.6-23.2-16
	c10.4,18.4,28,51.2,37.6,85.6c9.6,33.6,7.2,42.4,32.8,42.4c2.4,0,4,0,5.6,0l0,0l0,0l0,0l0,0c1.6,0,3.2,0,5.6,0
	c26.4-0.8,23.2-8.8,32.8-42.4c9.6-34.4,27.2-67.2,37.6-85.6C319.2,313.6,311.2,318.4,300.8,327.2z"/>
<path style="fill:#7C154E;" d="M300.8,327.2c-28,24-46.4,25.6-52.8,25.6c-6.4,0-24.8-1.6-52.8-25.6c-0.8,0-0.8-0.8-1.6-0.8
	c6.4,14.4,12.8,29.6,16.8,45.6c9.6,33.6,7.2,42.4,32.8,42.4c1.6,0,3.2,0,4,0l0,0l0,0l0,0l0,0c1.6,0,2.4,0,4,0
	c26.4-0.8,23.2-8.8,32.8-42.4c4.8-16,10.4-32,16.8-45.6C301.6,327.2,301.6,327.2,300.8,327.2z"/>
<path style="fill:#C4A41A;" d="M176,313.6c0,0-18.4,76.8-37.6,84c0,0,32-0.8,59.2-67.2c0,0-14.4-12.8-17.6-14.4
	C176.8,313.6,176,313.6,176,313.6z"/>
<g>
	<path style="fill:#EFC618;" d="M176,313.6c0,0-8.8,36.8-20.8,61.6c10.4-7.2,24.8-20.8,37.6-49.6c-4.8-4-10.4-9.6-12.8-10.4
		C176.8,313.6,176,313.6,176,313.6z"/>
	<path style="fill:#EFC618;" d="M214.4,355.2c1.6,10.4,5.6,14.4,13.6,13.6c4.8-0.8,4-12,2.4-19.2c-6.4-2.4-14.4-6.4-23.2-12.8
		C209.6,342.4,212.8,350.4,214.4,355.2z"/>
</g>
<path style="fill:#C4A41A;" d="M229.6,349.6c-6.4-2.4-14.4-6.4-23.2-12.8c3.2,6.4,6.4,13.6,7.2,18.4"/>
<path style="fill:#EFC618;" d="M248,378.4v-25.6c-3.2,0-9.6,0-18.4-4c0.8,5.6,2.4,13.6,2.4,20c0,9.6,8.8,17.6,15.2,11.2
	C247.2,380,248,379.2,248,378.4z"/>
<path style="fill:#C4A41A;" d="M217.6,427.2c0,0,0.8-34.4-12.8-50.4c0,0,28,16,22.4,60c0,0-1.6,1.6-6.4,0.8
	C216.8,436,217.6,427.2,217.6,427.2z"/>
<g>
	<path style="fill:#D3B524;" d="M207.2,377.6c-1.6-0.8-2.4-1.6-2.4-1.6c13.6,16,12.8,50.4,12.8,50.4s0,3.2,0,5.6
		C224,403.2,213.6,385.6,207.2,377.6z"/>
	<path style="fill:#D3B524;" d="M239.2,436.8c0,4-3.2,7.2-7.2,7.2l0,0c-4,0-7.2-3.2-7.2-7.2v-3.2c0-4,3.2-7.2,7.2-7.2l0,0
		c4,0,7.2,3.2,7.2,7.2V436.8z"/>
	<path style="fill:#D3B524;" d="M248,428c-0.8,0-1.6-0.8-2.4-0.8c-4.8,0-9.6,4-9.6,9.6v4c0,4.8,4,9.6,9.6,9.6c0.8,0,1.6,0,2.4-0.8
		V428z"/>
</g>
<path style="fill:#B20D67;" d="M365.6,296.8c-5.6,24.8-17.6,56.8-32,88c-7.2-17.6-4.8-40.8,7.2-61.6
	C348,311.2,356.8,302.4,365.6,296.8z"/>
<path style="fill:#C4A41A;" d="M320,313.6c0,0,18.4,76.8,37.6,84c0,0-32-0.8-59.2-67.2c0,0,14.4-12.8,17.6-14.4
	C319.2,313.6,320,313.6,320,313.6z"/>
<g>
	<path style="fill:#EFC618;" d="M320,313.6c0,0,8.8,36.8,20.8,61.6c-10.4-7.2-24.8-20.8-37.6-49.6c4.8-4,10.4-9.6,12.8-10.4
		C319.2,313.6,320,313.6,320,313.6z"/>
	<path style="fill:#EFC618;" d="M281.6,355.2c-1.6,10.4-5.6,14.4-13.6,13.6c-4.8-0.8-4-12-2.4-19.2c6.4-2.4,14.4-6.4,23.2-12.8
		C286.4,342.4,283.2,350.4,281.6,355.2z"/>
</g>
<path style="fill:#C4A41A;" d="M266.4,349.6c6.4-2.4,14.4-6.4,23.2-12.8c-3.2,6.4-6.4,13.6-7.2,18.4"/>
<path style="fill:#EFC618;" d="M248,378.4v-25.6c3.2,0,9.6,0,18.4-4c-0.8,5.6-2.4,13.6-2.4,20c0,9.6-8.8,17.6-15.2,11.2
	C248.8,380,248,379.2,248,378.4z"/>
<g>
	<path style="fill:#C4A41A;" d="M266.4,349.6c-8.8,3.2-15.2,4-18.4,4c-3.2,0-9.6,0-18.4-4c0.8,5.6,2.4,13.6,2.4,20l16,9.6l0,0l0,0
		l0,0l0,0l16-9.6C264,363.2,265.6,355.2,266.4,349.6z"/>
	<path style="fill:#C4A41A;" d="M278.4,427.2c0,0-0.8-34.4,12.8-50.4c0,0-28,16-22.4,60c0,0,1.6,1.6,6.4,0.8
		C279.2,436,278.4,427.2,278.4,427.2z"/>
</g>
<g>
	<path style="fill:#D3B524;" d="M288.8,377.6c1.6-0.8,2.4-1.6,2.4-1.6c-13.6,16-12.8,50.4-12.8,50.4s0,3.2,0,5.6
		C272,403.2,282.4,385.6,288.8,377.6z"/>
	<path style="fill:#D3B524;" d="M256.8,436.8c0,4,3.2,7.2,7.2,7.2l0,0c4,0,7.2-3.2,7.2-7.2v-3.2c0-4-3.2-7.2-7.2-7.2l0,0
		c-4,0-7.2,3.2-7.2,7.2V436.8z"/>
	<path style="fill:#D3B524;" d="M248,428c0.8,0,1.6-0.8,2.4-0.8c4.8,0,9.6,4,9.6,9.6v4c0,4.8-4,9.6-9.6,9.6c-0.8,0-1.6,0-2.4-0.8
		V428z"/>
</g>
<g>
	<path style="fill:#EF337F;" d="M260.8,322.4c0,3.2-5.6,14.4-12.8,14.4s-12.8-11.2-12.8-14.4s5.6,2.4,12.8,2.4
		C255.2,324.8,260.8,319.2,260.8,322.4z"/>
	<path style="fill:#EF337F;" d="M168,273.6c14.4,7.2,28.8,7.2,27.2,10.4c-1.6,3.2-15.2,0-29.6-7.2c-14.4-7.2-24.8-16-22.4-20
		C145.6,253.6,153.6,265.6,168,273.6z"/>
	<path style="fill:#EF337F;" d="M328,273.6c-14.4,7.2-28.8,7.2-27.2,10.4s15.2,0,29.6-7.2s24.8-16,22.4-20
		C350.4,253.6,342.4,265.6,328,273.6z"/>
	<path style="fill:#EF337F;" d="M280,477.6c0,2.4-14.4-5.6-32-5.6s-32,8-32,5.6s14.4-15.2,32-15.2C265.6,463.2,280,475.2,280,477.6z
		"/>
</g>
<path style="fill:#D81A71;" d="M136,136l-25.6,25.6c-0.8,5.6-1.6,12-1.6,17.6c0,9.6,0.8,18.4,3.2,28l48-47.2L136,136z"/>
<path style="fill:#C4A41A;" d="M175.2,135.2c-36,0-65.6-37.6-65.6-84c0-19.2,4.8-36.8,13.6-51.2C104,12,90.4,42.4,90.4,77.6
	c0,46.4,11.2,100,40,100c14.4,0,39.2-26.4,48.8-42.4C178.4,135.2,176.8,135.2,175.2,135.2z"/>
<path style="fill:#EFC618;" d="M145.6,159.2c8,0,19.2-8,28.8-17.6c1.6-2.4,3.2-4.8,4-6.4c-1.6,0-2.4,0-4,0c-36,0-65.6-37.6-65.6-84
	c0-19.2,4.8-36.8,13.6-51.2c-0.8,0.8-2.4,1.6-3.2,2.4c-8.8,15.2-14.4,35.2-14.4,57.6C105.6,106.4,117.6,159.2,145.6,159.2z"/>
<path style="fill:#D81A71;" d="M360,136l25.6,25.6c0.8,5.6,1.6,12,1.6,17.6c0,9.6-0.8,18.4-3.2,28L336,160L360,136z"/>
<path style="fill:#C4A41A;" d="M320.8,135.2c36,0,65.6-37.6,65.6-84c0-19.2-4.8-36.8-13.6-51.2c19.2,12,32.8,42.4,32.8,77.6
	c0,46.4-11.2,100-40,100c-14.4,0-39.2-26.4-48.8-42.4C317.6,135.2,319.2,135.2,320.8,135.2z"/>
<path style="fill:#EFC618;" d="M350.4,159.2c-8,0-19.2-8-28.8-17.6c-1.6-2.4-3.2-4.8-4-6.4c1.6,0,2.4,0,4,0c36,0,65.6-37.6,65.6-84
	c0-19.2-4.8-36.8-13.6-51.2c0.8,0.8,2.4,1.6,3.2,2.4c8.8,15.2,14.4,35.2,14.4,57.6C390.4,106.4,378.4,159.2,350.4,159.2z"/>
<g>
	<path style="fill:#FF50A8;" d="M139.2,195.2c8.8-9.6,29.6-4.8,47.2,11.2c7.2,6.4,12,12.8,15.2,20c-2.4-9.6-8.8-20-19.2-28.8
		c-17.6-16-38.4-20.8-47.2-11.2c-5.6,5.6-4.8,16,0.8,26.4C135.2,204.8,136,199.2,139.2,195.2z"/>
	<path style="fill:#FF50A8;" d="M356.8,195.2c-8.8-9.6-29.6-4.8-47.2,11.2c-7.2,6.4-12,12.8-15.2,20c2.4-9.6,8.8-20,19.2-28.8
		c17.6-16,38.4-20.8,47.2-11.2c5.6,5.6,4.8,16-0.8,26.4C360.8,204.8,360,199.2,356.8,195.2z"/>
</g>
</svg>