<?xml version="1.0" encoding="UTF-8"?>
<svg version="1.1" xmlns="http://www.w3.org/2000/svg" width="127" height="373">
<path d="M0 0 C1.36125 1.2684375 1.36125 1.2684375 2.75 2.5625 C3.32621094 3.0678125 3.90242188 3.573125 4.49609375 4.09375 C26.96275814 26.15357339 36.57803953 69.00573247 36.93588257 99.39872742 C36.94157257 100.32160049 36.94726257 101.24447357 36.953125 102.1953125 C36.95970123 103.12861893 36.96627747 104.06192535 36.97305298 105.02351379 C36.99359021 108.88490343 37.00645927 112.74555 36.97998047 116.60693359 C36.92343194 127.45877915 36.90581247 136.3547684 42.36621094 145.99951172 C44.65173292 150.23264682 44.87548874 154.30178906 44.89044189 159.05197144 C44.89615204 160.14256866 44.90186218 161.23316589 44.90774536 162.35681152 C44.90942215 164.136745 44.90942215 164.136745 44.91113281 165.95263672 C44.91858017 167.8388121 44.91858017 167.8388121 44.92617798 169.76309204 C44.9392605 173.20530444 44.94573853 176.64749738 44.95018864 180.08973074 C44.9531254 182.24248228 44.95723129 184.39522856 44.96169281 186.54797745 C44.97535534 193.28998408 44.9850287 200.03197863 44.9888947 206.77399814 C44.99337588 214.54494415 45.01093165 222.31571431 45.0398953 230.08660686 C45.06153472 236.10205756 45.07160015 242.11745885 45.07293582 248.13294804 C45.07398201 251.72194958 45.07985031 255.31078553 45.09775543 258.89974594 C45.11734769 262.90446346 45.11293819 266.90881401 45.10644531 270.91357422 C45.1156601 272.09614807 45.12487488 273.27872192 45.1343689 274.49713135 C45.09625948 281.99862164 44.54394074 287.19333616 39.625 293.125 C37.43707873 295.96929765 37.07840998 298.03209269 36.75 301.5625 C37.348125 301.665625 37.94625 301.76875 38.5625 301.875 C41.21104026 302.70739837 42.2030279 303.24204185 43.75 305.5625 C44.25 309 44.25 309 43.75 312.5625 C40.92468312 315.74562098 38.63509291 316.8107235 34.4931488 317.0771637 C32.7761468 317.10389664 31.05871592 317.10864153 29.34155273 317.09594727 C28.40115143 317.10456284 27.46075012 317.11317841 26.49185181 317.12205505 C23.38881781 317.14472605 20.2866859 317.13797498 17.18359375 317.12890625 C15.02555574 317.13414062 12.86752002 317.14041641 10.70948792 317.14768982 C6.18943505 317.15809561 1.66969699 317.15352875 -2.8503418 317.13891602 C-8.64687682 317.12171169 -14.44242216 317.1452435 -20.23884678 317.18040562 C-24.69380784 317.20234687 -29.14853079 317.20094631 -33.60352898 317.1926403 C-35.74099756 317.19181931 -37.87848337 317.19871087 -40.01590157 317.21341133 C-43.00153965 317.23080022 -45.98538201 317.21636242 -48.97094727 317.19360352 C-49.85573257 317.20529572 -50.74051788 317.21698792 -51.65211487 317.22903442 C-57.60975462 317.13647118 -57.60975462 317.13647118 -60.8299408 314.24961853 C-62.78009492 310.5594236 -62.42152802 308.51640706 -61.25 304.5625 C-59.4375 302.625 -59.4375 302.625 -57.25 301.5625 C-55.93 301.5625 -54.61 301.5625 -53.25 301.5625 C-54.73825164 297.64604831 -56.12112665 294.48943216 -58.875 291.3125 C-62.12013204 287.55497869 -62.37592966 285.01653964 -62.39717102 280.21983337 C-62.40432632 279.11107849 -62.41148163 278.00232361 -62.41885376 276.85997009 C-62.42154266 275.64281815 -62.42423157 274.4256662 -62.42700195 273.17163086 C-62.43357315 271.89003082 -62.44014435 270.60843079 -62.44691467 269.28799438 C-62.46794375 265.03445688 -62.47831951 260.78091908 -62.48828125 256.52734375 C-62.49232996 255.06057784 -62.49644692 253.59381212 -62.50063133 252.12704659 C-62.51968454 245.23179055 -62.53391239 238.3365452 -62.5422433 231.44126791 C-62.55200105 223.49709073 -62.57828145 215.55319328 -62.61874419 207.60911459 C-62.64898095 201.4603264 -62.66371952 195.31161802 -62.66702431 189.16275698 C-62.66936722 185.49476586 -62.67822696 181.82707349 -62.70348549 178.15916252 C-62.7312635 174.05897548 -62.7269121 169.95940625 -62.7199707 165.85913086 C-62.73918579 164.05465736 -62.73918579 164.05465736 -62.75878906 162.21372986 C-62.70179265 152.95079972 -60.89212544 145.95959433 -55.25 138.5625 C-54.21059916 135.58205728 -54.11616809 132.79437548 -54.09228516 129.65234375 C-54.07689194 128.18800903 -54.07689194 128.18800903 -54.06118774 126.6940918 C-54.05388641 125.6400415 -54.04658508 124.58599121 -54.0390625 123.5 C-54.01094311 121.23436841 -53.98227847 118.96874352 -53.953125 116.703125 C-53.91228943 113.15820885 -53.87538418 109.61341113 -53.84863281 106.06835938 C-53.69955931 87.86083068 -53.14606393 69.71001187 -47.4375 52.25 C-47.04957275 51.01793823 -47.04957275 51.01793823 -46.65380859 49.76098633 C-40.95766769 32.01876671 -33.64701043 10.11270811 -17.2890625 -0.73828125 C-11.76727095 -2.63176916 -5.27874208 -2.33482823 0 0 Z " fill="#2E2F30" transform="translate(69.25,34.4375)"/>
<path d="M0 0 C20.79 0 41.58 0 63 0 C63.495 14.355 63.495 14.355 64 29 C65.98 32.63 67.96 36.26 70 40 C70.49108952 43.4152724 70.72019953 46.0291419 70.5859375 49.38671875 C70.57744781 50.21460403 70.56895813 51.04248932 70.56021118 51.89546204 C70.52709367 54.49423382 70.45191109 57.08969501 70.375 59.6875 C70.34484586 61.46805358 70.31747972 63.24865667 70.29296875 65.02929688 C70.22744173 69.35410582 70.12422948 73.6764954 70 78 C67.72945072 75.78645195 65.76667067 73.68431914 63.875 71.125 C57.11712816 62.99090502 45.58410633 58.75590062 35.359375 57.58203125 C23.34292011 57.12461476 13.23177013 60.32922662 4 68.1015625 C-0.48984453 72.36340711 -4.30249483 77.05094262 -8 82 C-8.12408068 76.43164093 -8.21456522 70.86409564 -8.2746582 65.29467773 C-8.29972197 63.40228243 -8.33378253 61.50998317 -8.37719727 59.61791992 C-8.4382101 56.88956957 -8.46629069 54.1625045 -8.48828125 51.43359375 C-8.51408768 50.59477158 -8.5398941 49.7559494 -8.56648254 48.89170837 C-8.56895289 43.65671101 -7.71412636 40.68300007 -4.27189636 36.68788147 C3.22876041 26.73406766 -0.33031212 9.9093635 0 0 Z " fill="#FC4E1E" transform="translate(29,146)"/>
<path d="M0 0 C4.77060812 1.10944375 6.68189904 5.65824053 9.1796875 9.55859375 C18.17408933 24.56662957 22.97846774 41.26546409 27.26953125 58.0859375 C27.48053467 58.91077637 27.69153809 59.73561523 27.90893555 60.58544922 C29.93437134 68.77861543 30.51953125 76.03011206 30.51953125 84.5859375 C10.38953125 84.5859375 -9.74046875 84.5859375 -30.48046875 84.5859375 C-30.48046875 75.7288154 -30.29241881 68.26099841 -28.54296875 59.7734375 C-28.21462036 58.17326782 -28.21462036 58.17326782 -27.87963867 56.54077148 C-24.96275719 43.21750652 -15.94801425 3.76724746 0 0 Z " fill="#FC4E1E" transform="translate(60.48046875,47.4140625)"/>
<path d="M0 0 C1.55047443 2.06729924 3.09288982 4.14709608 4.47265625 6.33203125 C10.7311445 16.09650309 18.39486171 21.29602869 29.57421875 24.34375 C41.81874436 26.68933757 54.35819869 25.48774407 64.8125 18.4375 C69.44693701 14.83591871 72.64245069 10.85505441 75.7578125 5.90625 C76.16773437 5.2771875 76.57765625 4.648125 77 4 C77.33 4 77.66 4 78 4 C78 18.19 78 32.38 78 47 C52.26 47 26.52 47 0 47 C0 31.49 0 15.98 0 0 Z " fill="#FC4F1E" transform="translate(21,267)"/>
<path d="M0 0 C1.36125 1.2684375 1.36125 1.2684375 2.75 2.5625 C3.32621094 3.0678125 3.90242188 3.573125 4.49609375 4.09375 C26.96275814 26.15357339 36.57803953 69.00573247 36.93588257 99.39872742 C36.94157257 100.32160049 36.94726257 101.24447357 36.953125 102.1953125 C36.95970123 103.12861893 36.96627747 104.06192535 36.97305298 105.02351379 C36.99359021 108.88490343 37.00645927 112.74555 36.97998047 116.60693359 C36.92343194 127.45877915 36.90581247 136.3547684 42.36621094 145.99951172 C44.65173292 150.23264682 44.87548874 154.30178906 44.89044189 159.05197144 C44.89615204 160.14256866 44.90186218 161.23316589 44.90774536 162.35681152 C44.90942215 164.136745 44.90942215 164.136745 44.91113281 165.95263672 C44.91858017 167.8388121 44.91858017 167.8388121 44.92617798 169.76309204 C44.9392605 173.20530444 44.94573853 176.64749738 44.95018864 180.08973074 C44.9531254 182.24248228 44.95723129 184.39522856 44.96169281 186.54797745 C44.97535534 193.28998408 44.9850287 200.03197863 44.9888947 206.77399814 C44.99337588 214.54494415 45.01093165 222.31571431 45.0398953 230.08660686 C45.06153472 236.10205756 45.07160015 242.11745885 45.07293582 248.13294804 C45.07398201 251.72194958 45.07985031 255.31078553 45.09775543 258.89974594 C45.11734769 262.90446346 45.11293819 266.90881401 45.10644531 270.91357422 C45.1156601 272.09614807 45.12487488 273.27872192 45.1343689 274.49713135 C45.09625948 281.99862164 44.54394074 287.19333616 39.625 293.125 C37.43707873 295.96929765 37.07840998 298.03209269 36.75 301.5625 C37.348125 301.665625 37.94625 301.76875 38.5625 301.875 C41.21104026 302.70739837 42.2030279 303.24204185 43.75 305.5625 C44.25 309 44.25 309 43.75 312.5625 C40.92468312 315.74562098 38.63509291 316.8107235 34.4931488 317.0771637 C32.7761468 317.10389664 31.05871592 317.10864153 29.34155273 317.09594727 C28.40115143 317.10456284 27.46075012 317.11317841 26.49185181 317.12205505 C23.38881781 317.14472605 20.2866859 317.13797498 17.18359375 317.12890625 C15.02555574 317.13414062 12.86752002 317.14041641 10.70948792 317.14768982 C6.18943505 317.15809561 1.66969699 317.15352875 -2.8503418 317.13891602 C-8.64687682 317.12171169 -14.44242216 317.1452435 -20.23884678 317.18040562 C-24.69380784 317.20234687 -29.14853079 317.20094631 -33.60352898 317.1926403 C-35.74099756 317.19181931 -37.87848337 317.19871087 -40.01590157 317.21341133 C-43.00153965 317.23080022 -45.98538201 317.21636242 -48.97094727 317.19360352 C-49.85573257 317.20529572 -50.74051788 317.21698792 -51.65211487 317.22903442 C-57.60975462 317.13647118 -57.60975462 317.13647118 -60.8299408 314.24961853 C-62.78009492 310.5594236 -62.42152802 308.51640706 -61.25 304.5625 C-59.4375 302.625 -59.4375 302.625 -57.25 301.5625 C-55.93 301.5625 -54.61 301.5625 -53.25 301.5625 C-54.73825164 297.64604831 -56.12112665 294.48943216 -58.875 291.3125 C-62.12013204 287.55497869 -62.37592966 285.01653964 -62.39717102 280.21983337 C-62.40432632 279.11107849 -62.41148163 278.00232361 -62.41885376 276.85997009 C-62.42154266 275.64281815 -62.42423157 274.4256662 -62.42700195 273.17163086 C-62.43357315 271.89003082 -62.44014435 270.60843079 -62.44691467 269.28799438 C-62.46794375 265.03445688 -62.47831951 260.78091908 -62.48828125 256.52734375 C-62.49232996 255.06057784 -62.49644692 253.59381212 -62.50063133 252.12704659 C-62.51968454 245.23179055 -62.53391239 238.3365452 -62.5422433 231.44126791 C-62.55200105 223.49709073 -62.57828145 215.55319328 -62.61874419 207.60911459 C-62.64898095 201.4603264 -62.66371952 195.31161802 -62.66702431 189.16275698 C-62.66936722 185.49476586 -62.67822696 181.82707349 -62.70348549 178.15916252 C-62.7312635 174.05897548 -62.7269121 169.95940625 -62.7199707 165.85913086 C-62.73918579 164.05465736 -62.73918579 164.05465736 -62.75878906 162.21372986 C-62.70179265 152.95079972 -60.89212544 145.95959433 -55.25 138.5625 C-54.21059916 135.58205728 -54.11616809 132.79437548 -54.09228516 129.65234375 C-54.07689194 128.18800903 -54.07689194 128.18800903 -54.06118774 126.6940918 C-54.05388641 125.6400415 -54.04658508 124.58599121 -54.0390625 123.5 C-54.01094311 121.23436841 -53.98227847 118.96874352 -53.953125 116.703125 C-53.91228943 113.15820885 -53.87538418 109.61341113 -53.84863281 106.06835938 C-53.69955931 87.86083068 -53.14606393 69.71001187 -47.4375 52.25 C-47.04957275 51.01793823 -47.04957275 51.01793823 -46.65380859 49.76098633 C-40.95766769 32.01876671 -33.64701043 10.11270811 -17.2890625 -0.73828125 C-11.76727095 -2.63176916 -5.27874208 -2.33482823 0 0 Z M-27.02929688 11.84814453 C-34.34163415 22.117591 -39.026285 33.84457828 -43.125 45.6875 C-43.48207031 46.69095459 -43.83914062 47.69440918 -44.20703125 48.72827148 C-51.16523431 69.93273888 -51.84766462 91.75801608 -51.43896484 113.86376953 C-51.38738198 117.11831085 -51.38631133 120.37011509 -51.390625 123.625 C-51.35866028 124.57439453 -51.32669556 125.52378906 -51.29376221 126.50195312 C-51.3329812 132.16308766 -52.31704637 135.96007206 -55.12896633 140.90884686 C-62.16099689 153.50178568 -61.34253559 166.70746601 -61.1599462 180.74324775 C-61.12055341 184.37848572 -61.12519226 188.01370983 -61.12397766 191.64912415 C-61.11571296 197.73707251 -61.07741937 203.82420807 -61.01831055 209.91186523 C-60.95026076 216.9371436 -60.92064894 223.96173207 -60.9133355 230.9873206 C-60.90545449 238.5047234 -60.87468319 246.02188674 -60.83454156 253.53918099 C-60.82424652 255.69340887 -60.81766671 257.84762347 -60.81171227 260.00186729 C-60.79887862 264.01284781 -60.75979353 268.02315732 -60.7175293 272.03393555 C-60.71574677 273.21995361 -60.71396423 274.40597168 -60.71212769 275.62792969 C-60.60793724 282.89721143 -59.86893879 288.20825546 -54.5625 293.5625 C-51.952743 296.9481307 -51.75480485 298.40286073 -52.25 302.5625 C-53.673125 302.995625 -53.673125 302.995625 -55.125 303.4375 C-58.30211578 304.33075109 -58.30211578 304.33075109 -60.25 306.5625 C-60.15304884 310.90444936 -60.15304884 310.90444936 -58.25 314.5625 C-55.21679988 314.67380388 -52.20616018 314.71990425 -49.17211914 314.72363281 C-48.21933578 314.72859772 -47.26655243 314.73356262 -46.28489685 314.73867798 C-43.11830944 314.75333943 -39.95177209 314.76010779 -36.78515625 314.765625 C-34.59419248 314.77137264 -32.40322873 314.77713042 -30.21226501 314.78289795 C-25.61294316 314.79341893 -21.01363885 314.79925458 -16.41430664 314.80273438 C-10.50786726 314.80822505 -4.60165774 314.83226079 1.30470943 314.86070633 C5.83159574 314.87928714 10.35842614 314.88453584 14.88534737 314.88607025 C17.06354595 314.88910703 19.24174332 314.89716975 21.41990471 314.91025543 C24.46102504 314.92722284 27.50157677 314.92545868 30.54272461 314.91894531 C31.45033539 314.9281601 32.35794617 314.93737488 33.2930603 314.9468689 C36.0422894 314.96412946 36.0422894 314.96412946 39.75 314.5625 C42.31687367 310.7121895 41.58288724 308.97680237 40.75 304.5625 C38.77 303.9025 36.79 303.2425 34.75 302.5625 C34.95428825 297.76172614 35.72441898 295.39548962 38.75616455 291.65229797 C42.8204775 285.69615018 42.59521935 280.08820801 42.52636719 273.06323242 C42.5345132 271.72176919 42.54520513 270.38031941 42.55822754 269.03889465 C42.58542418 265.41856358 42.57504005 261.79926617 42.55595303 258.1789186 C42.54067117 254.37285867 42.55487631 250.56688221 42.56427002 246.76081848 C42.57516368 240.36797346 42.56086349 233.97554528 42.53222656 227.58276367 C42.49961845 220.21900717 42.51012457 212.85624877 42.543185 205.4925167 C42.57052726 199.14561726 42.5741985 192.79901612 42.55855298 186.45207673 C42.5492556 182.67228872 42.54779178 178.89296765 42.56777191 175.11321068 C42.58527134 171.55452276 42.57278555 167.99710361 42.53840637 164.43855095 C42.52685258 162.53012653 42.54437527 160.62159315 42.56317139 158.71322632 C42.45207767 151.065912 40.96563717 145.82109862 37.10604 139.19575214 C34.9465456 135.00229675 34.94847311 131.10048295 35.05078125 126.46875 C35.04418991 125.55653687 35.03759857 124.64432373 35.0308075 123.70446777 C35.01354782 120.82304017 35.03503805 117.94381799 35.0625 115.0625 C35.13425471 97.23069013 34.05806485 79.96333761 29.5625 62.625 C29.35455811 61.81619385 29.14661621 61.0073877 28.93237305 60.17407227 C23.75908483 40.90796955 15.79316351 15.62919532 -0.25 2.5625 C-11.55194708 -2.94807668 -20.02961486 2.74002171 -27.02929688 11.84814453 Z " fill="#050505" transform="translate(69.25,34.4375)"/>
<path d="M0 0 C5.28 0 10.56 0 16 0 C17.04589284 28.72719003 17.04589284 28.72719003 9.40234375 37.921875 C7.590491 40.606849 7.30655006 42.7986832 6.875 46 C6.71515625 47.14597656 6.5553125 48.29195312 6.390625 49.47265625 C6.02245753 52.79720849 5.80841308 56.0985483 5.625 59.4375 C5.24195705 64.38459714 4.30804273 67.1555179 1 71 C0.50757813 71.58394531 0.01515625 72.16789062 -0.4921875 72.76953125 C-1.49407118 73.95334903 -2.50735551 75.12767493 -3.53515625 76.2890625 C-5.11336948 78.13241556 -6.55183345 80.05354768 -8 82 C-8.12408068 76.43164093 -8.21456522 70.86409564 -8.2746582 65.29467773 C-8.29972197 63.40228243 -8.33378253 61.50998317 -8.37719727 59.61791992 C-8.4382101 56.88956957 -8.46629069 54.1625045 -8.48828125 51.43359375 C-8.51408768 50.59477158 -8.5398941 49.7559494 -8.56648254 48.89170837 C-8.56900512 43.54602844 -7.58533281 40.68598309 -4.22731018 36.53143311 C-0.88754795 32.36409014 -0.71822714 28.1305629 -0.5859375 22.94921875 C-0.56657135 22.29041214 -0.5472052 21.63160553 -0.5272522 20.95283508 C-0.46784059 18.86451857 -0.42122709 16.77614576 -0.375 14.6875 C-0.33678468 13.26495095 -0.29773091 11.84242416 -0.2578125 10.41992188 C-0.16060379 6.94673552 -0.0807358 3.47376403 0 0 Z " fill="#E04519" transform="translate(29,146)"/>
<path d="M0 0 C0.7425 0.0825 1.485 0.165 2.25 0.25 C2.25 1.24 2.25 2.23 2.25 3.25 C1.26 3.58 0.27 3.91 -0.75 4.25 C-1.47713299 6.07652602 -1.47713299 6.07652602 -1.79296875 8.296875 C-2.37834049 11.35214169 -3.00412384 14.33758223 -3.86328125 17.328125 C-4.05688232 18.00343262 -4.2504834 18.67874023 -4.44995117 19.37451172 C-4.65209229 20.07592285 -4.8542334 20.77733398 -5.0625 21.5 C-10.86657178 42.05963193 -14.90078965 61.88565536 -15.75 83.25 C-20.7 83.25 -25.65 83.25 -30.75 83.25 C-30.93872699 75.04341997 -30.45505946 67.53641509 -28.8125 59.5 C-28.59360107 58.4287085 -28.37470215 57.35741699 -28.14916992 56.25366211 C-25.53008629 44.24139636 -15.54099915 1.4128181 0 0 Z " fill="#E14519" transform="translate(60.75,47.75)"/>
<path d="M0 0 C1.36125 1.2684375 1.36125 1.2684375 2.75 2.5625 C3.32621094 3.0678125 3.90242188 3.573125 4.49609375 4.09375 C20.38108272 19.69108324 29.22631863 47.05336165 32.75 68.5625 C31.76 68.5625 30.77 68.5625 29.75 68.5625 C29.481875 67.42296875 29.21375 66.2834375 28.9375 65.109375 C24.06068387 45.11955335 16.43502543 17.16147398 -0.25 3.5625 C-5.63121571 0.9605935 -10.60780008 0.73681252 -16.25 2.5 C-30.29442892 12.15554488 -36.77572161 30.21212164 -42.125 45.6875 C-42.48198975 46.69087402 -42.83897949 47.69424805 -43.20678711 48.72802734 C-50.16594979 69.93205944 -50.84766007 91.7582624 -50.43896484 113.86376953 C-50.20449861 128.65705479 -51.35040484 139.82149075 -59.25 152.5625 C-59.58 152.8925 -59.91 153.2225 -60.25 153.5625 C-60.35840824 155.27037067 -60.39686398 156.9827148 -60.40821838 158.69398499 C-60.42290161 160.36204948 -60.42290161 160.36204948 -60.43788147 162.06381226 C-60.44363693 163.29451447 -60.4493924 164.52521667 -60.45532227 165.79321289 C-60.46522186 167.08083023 -60.47512146 168.36844757 -60.48532104 169.69508362 C-60.51243357 173.23621371 -60.53340863 176.77735723 -60.55332303 180.31853414 C-60.57514358 184.01547666 -60.60255144 187.71237753 -60.62937927 191.4092865 C-60.67935949 198.41450878 -60.72427847 205.41975411 -60.76740164 212.42502159 C-60.81672857 220.39831833 -60.8716635 228.3715733 -60.92708123 236.34482968 C-61.04098305 252.75068131 -61.14780413 269.15657119 -61.25 285.5625 C-61.58 285.5625 -61.91 285.5625 -62.25 285.5625 C-62.34361108 268.3941996 -62.4140611 251.22597932 -62.45724869 234.05748177 C-62.47783809 226.08510917 -62.50588898 218.11289554 -62.55175781 210.140625 C-62.591737 203.18867153 -62.61745912 196.23683323 -62.62635398 189.28476799 C-62.6315501 185.60665297 -62.64368616 181.92886733 -62.67292023 178.25085831 C-62.70535852 174.13600559 -62.70595235 170.02171859 -62.70410156 165.90673828 C-62.71848267 164.69904282 -62.73286377 163.49134735 -62.74768066 162.24705505 C-62.70262582 152.96489028 -60.90312925 145.97509426 -55.25 138.5625 C-54.21059916 135.58205728 -54.11616809 132.79437548 -54.09228516 129.65234375 C-54.07689194 128.18800903 -54.07689194 128.18800903 -54.06118774 126.6940918 C-54.05388641 125.6400415 -54.04658508 124.58599121 -54.0390625 123.5 C-54.01094311 121.23436841 -53.98227847 118.96874352 -53.953125 116.703125 C-53.91228943 113.15820885 -53.87538418 109.61341113 -53.84863281 106.06835938 C-53.69955931 87.86083068 -53.14606393 69.71001187 -47.4375 52.25 C-47.04957275 51.01793823 -47.04957275 51.01793823 -46.65380859 49.76098633 C-40.95766769 32.01876671 -33.64701043 10.11270811 -17.2890625 -0.73828125 C-11.76727095 -2.63176916 -5.27874208 -2.33482823 0 0 Z " fill="#111111" transform="translate(69.25,34.4375)"/>
<path d="M0 0 C20.79 0 41.58 0 63 0 C63 2.97 63 5.94 63 9 C42.21 9 21.42 9 0 9 C0 6.03 0 3.06 0 0 Z " fill="#F04E1D" transform="translate(29,328)"/>
<path d="M0 0 C2.84081782 3.78775709 5.51836724 7.65111612 8.18359375 11.5625 C9.9572467 13.94262784 11.85034396 15.95900789 14 18 C13.67 18.33 13.34 18.66 13 19 C12.55636752 28.02922581 13.20092373 37.010392 14 46 C9.38 46.33 4.76 46.66 0 47 C0 31.49 0 15.98 0 0 Z " fill="#E04519" transform="translate(21,267)"/>
<path d="M0 0 C0.33 0 0.66 0 1 0 C1.14032536 16.81163987 1.24604655 33.62309628 1.31087303 50.43518829 C1.34177676 58.24182239 1.38388977 66.04809205 1.45263672 73.85449219 C1.51254649 80.66066663 1.55117448 87.46657707 1.56453097 94.27300787 C1.57233548 97.87523435 1.59060254 101.47670575 1.63438034 105.07868958 C1.68292223 109.10553094 1.68393252 113.13106993 1.68115234 117.15820312 C1.71350983 118.93845383 1.71350983 118.93845383 1.746521 120.75466919 C1.69666854 127.43252486 0.97182334 131.37536603 -3.62599754 136.35967255 C-5.59852447 138.71453738 -5.84971445 140.99428903 -6 144 C-5.071875 144.1546875 -5.071875 144.1546875 -4.125 144.3125 C-2 145 -2 145 0 148 C-0.66 148.33 -1.32 148.66 -2 149 C-2 148.34 -2 147.68 -2 147 C-4.31 146.34 -6.62 145.68 -9 145 C-8.79572169 140.19945961 -8.01331833 137.80888441 -4.99935913 134.05006409 C-1.04996035 128.26560252 -1.11853371 122.97494813 -1.13525391 116.13647461 C-1.10467896 114.24718735 -1.10467896 114.24718735 -1.07348633 112.31973267 C-1.01868229 108.8925949 -0.99982494 105.4661205 -0.98777819 102.03860164 C-0.96892121 98.44690334 -0.91650847 94.85569214 -0.86776733 91.26429749 C-0.78067283 84.47545367 -0.72343589 77.68670503 -0.67712057 70.89747387 C-0.62288939 63.16315205 -0.5350754 55.42932315 -0.44454312 47.69535434 C-0.25918909 31.79715689 -0.11567423 15.89886645 0 0 Z " fill="#101110" transform="translate(112,192)"/>
<path d="M0 0 C0.83789062 -0.01611328 1.67578125 -0.03222656 2.5390625 -0.04882812 C7.6745727 -0.05286548 11.13614561 0.54169248 15.625 3.3125 C6.31156716 11.21480665 6.31156716 11.21480665 0.1875 11.4375 C-5.30272252 9.70374552 -9.3380887 6.3494113 -13.375 2.3125 C-8.91225616 -0.22008507 -5.02217208 -0.01913938 0 0 Z " fill="#E54817" transform="translate(59.375,216.6875)"/>
<path d="M0 0 C0.68359375 1.609375 0.68359375 1.609375 1 4 C-0.15234375 6.828125 -0.15234375 6.828125 -1.9375 10.25 C-9.66221471 25.87732715 -14.74739489 42.7300275 -17 60 C-17.66 60 -18.32 60 -19 60 C-19 61.98 -19 63.96 -19 66 C-19.33 66 -19.66 66 -20 66 C-20.62252103 43.2001672 -11.49354361 19.34950294 0 0 Z " fill="#121312" transform="translate(37,51)"/>
<path d="M0 0 C0.66 0 1.32 0 2 0 C6.3449235 7.15360619 7.71404789 12.65357353 7 21 C0.01612725 16.49928201 0.01612725 16.49928201 -2 14 C-2.8494418 9.12255999 -2.27611503 4.40997287 0 0 Z " fill="#EC4E1D" transform="translate(85,231)"/>
<path d="M0 0 C4.29 0 8.58 0 13 0 C11.10956077 3.78087845 9.75565798 5.43904924 6.6875 8.1875 C5.92824219 8.88230469 5.16898438 9.57710938 4.38671875 10.29296875 C1.84628483 12.10994031 0.07161418 12.63575549 -3 13 C-2.68991116 11.39536551 -2.37683713 9.79130769 -2.0625 8.1875 C-1.88847656 7.29417969 -1.71445313 6.40085937 -1.53515625 5.48046875 C-1 3 -1 3 0 0 Z " fill="#DF4514" transform="translate(73,265)"/>
<path d="M0 0 C2.6944705 2.93942237 4.20765534 6.04706582 5.1171875 9.89453125 C4.91153414 13.58943671 2.43035709 15.39040004 -0.203125 17.75 C-2 19 -2 19 -4 19 C-4 19.66 -4 20.32 -4 21 C-4.66 21 -5.32 21 -6 21 C-5.71483617 14.29864995 -5.03972129 5.03972129 0 0 Z " fill="#DA4617" transform="translate(35,231)"/>
<path d="M0 0 C0.33 0 0.66 0 1 0 C0.91564222 7.64099752 0.82077672 15.28180312 0.71247292 22.92249775 C0.6625143 26.47034604 0.61618445 30.01816463 0.578125 33.56616211 C0.53421731 37.64456014 0.4745677 41.72259545 0.4140625 45.80078125 C0.40251129 47.07585037 0.39096008 48.35091949 0.37905884 49.66462708 C0.35918915 50.84562485 0.33931946 52.02662262 0.31884766 53.2434082 C0.30552399 54.28487503 0.29220032 55.32634186 0.2784729 56.39936829 C0 59 0 59 -2 62 C-2.94280675 58.83624993 -3.09368242 56.06635075 -3.02172852 52.77246094 C-3.00163223 51.73168396 -2.98153595 50.69090698 -2.96083069 49.61859131 C-2.93379562 48.50179993 -2.90676056 47.38500854 -2.87890625 46.234375 C-2.85529526 45.08584045 -2.83168427 43.93730591 -2.80735779 42.75396729 C-2.73078927 39.08585034 -2.64673513 35.41794812 -2.5625 31.75 C-2.50927253 29.26303134 -2.45653217 26.7760522 -2.40429688 24.2890625 C-2.27518326 18.1925755 -2.13992344 12.09624796 -2 6 C-1.34 6 -0.68 6 0 6 C0 4.02 0 2.04 0 0 Z " fill="#020202" transform="translate(18,111)"/>
<path d="M0 0 C0.66 0 1.32 0 2 0 C2.3125 3.25 2.3125 3.25 2 7 C-0.08892458 9.36953814 -1.79610243 10.78255822 -4.96172523 11.35431671 C-7.38280635 11.49323578 -9.77174926 11.49460255 -12.1965332 11.45410156 C-13.57288185 11.45497772 -13.57288185 11.45497772 -14.97703552 11.45587158 C-18.00200575 11.45309067 -21.02598372 11.42199799 -24.05078125 11.390625 C-26.15113283 11.38316265 -28.25149138 11.37746969 -30.35185242 11.37347412 C-35.87414851 11.35821744 -41.39602235 11.31893496 -46.91815186 11.2746582 C-52.55540251 11.23370646 -58.19272153 11.21546329 -63.83007812 11.1953125 C-74.88690405 11.15244105 -85.94341688 11.084189 -97 11 C-97 10.67 -97 10.34 -97 10 C-95.84155075 9.99413376 -94.6831015 9.98826752 -93.48954773 9.98222351 C-82.58568122 9.92507314 -71.68201563 9.85235201 -60.77835369 9.76428509 C-55.1723187 9.71950933 -49.56635759 9.68026915 -43.96020508 9.65356445 C-38.55250348 9.62760332 -33.14508514 9.58725214 -27.73755836 9.53681374 C-25.67187834 9.52009626 -23.60614928 9.50861249 -21.540411 9.50238609 C-18.65253194 9.49279799 -15.7653856 9.46480255 -12.87768555 9.43237305 C-12.01885269 9.43380814 -11.16001984 9.43524323 -10.27516174 9.4367218 C-6.00340513 9.4974562 -6.00340513 9.4974562 -2.29975605 7.67429829 C-0.44254732 5.28190981 -0.32872277 2.95850497 0 0 Z " fill="#000000" transform="translate(111,340)"/>
<path d="M0 0 C1.65 4.29 3.3 8.58 5 13 C-2.55373055 11.48925389 -7.5614426 7.28795632 -12 1 C-7.81823821 0.20347395 -4.34015506 0 0 0 Z " fill="#E24816" transform="translate(48,266)"/>
<path d="M0 0 C0.33 0 0.66 0 1 0 C1.3396019 1.87387477 1.67138691 3.74916697 2 5.625 C2.185625 6.66914062 2.37125 7.71328125 2.5625 8.7890625 C2.98879664 11.91777533 3.14792921 14.8472587 3 18 C2 19 2 19 -0.47401428 19.12025452 C-1.57321701 19.11803391 -2.67241974 19.11581329 -3.80493164 19.11352539 C-5.66674828 19.11341209 -5.66674828 19.11341209 -7.56617737 19.11329651 C-8.9308374 19.10818911 -10.29549702 19.1029731 -11.66015625 19.09765625 C-13.04878183 19.095792 -14.43740807 19.09436813 -15.82603455 19.09336853 C-19.48721115 19.08954387 -23.1483483 19.07971403 -26.80950928 19.06866455 C-30.54292263 19.05844932 -34.27634234 19.05387067 -38.00976562 19.04882812 C-45.33986177 19.03809171 -52.66992536 19.02101591 -60 19 C-60 18.67 -60 18.34 -60 18 C-39.87 17.67 -19.74 17.34 1 17 C0.67 11.39 0.34 5.78 0 0 Z " fill="#1D2D32" transform="translate(90,115)"/>
<path d="M0 0 C2.9375 0.25 2.9375 0.25 6 1 C8 4 8 4 7.625 6.6875 C7.41875 7.450625 7.2125 8.21375 7 9 C1.58860759 9.36075949 1.58860759 9.36075949 -0.9375 7.8125 C-2 6 -2 6 -1.75 3.375 C-1 1 -1 1 0 0 Z " fill="#E24716" transform="translate(58,246)"/>
<path d="M0 0 C0.33 0 0.66 0 1 0 C1.46806667 4.65250831 0.03721081 6.92229009 -2.44140625 10.79296875 C-6.82792545 18.62990694 -7.01280801 25.49320986 -6.9375 34.3125 C-6.95064957 35.74677686 -6.96690948 37.18102869 -6.98632812 38.61523438 C-7.02659481 42.07727588 -7.02530001 45.53774171 -7 49 C-7.33 49 -7.66 49 -8 49 C-8.09991855 44.62587332 -8.17195484 40.25237563 -8.21972656 35.87744141 C-8.23966981 34.39359952 -8.2668349 32.90983445 -8.30175781 31.42626953 C-8.50434437 22.58992078 -8.3175767 14.97509221 -4 7 C-3.62101563 6.29166016 -3.24203125 5.58332031 -2.8515625 4.85351562 C-1.9387891 3.21408398 -0.97563045 1.60282146 0 0 Z " fill="#131313" transform="translate(15,170)"/>
<path d="M0 0 C0.703125 1.55078125 0.703125 1.55078125 1 4 C0.00870603 6.50447505 -1.0295028 8.80068378 -2.25 11.1875 C-4.39271547 15.52876375 -6.36992643 19.7172517 -7.75 24.375 C-8.36875 26.169375 -8.36875 26.169375 -9 28 C-9.99 28.33 -10.98 28.66 -12 29 C-10.7216952 22.07061005 -8.54959783 16.30285847 -5.4375 10 C-4.8197168 8.71416016 -4.8197168 8.71416016 -4.18945312 7.40234375 C-1.17397513 1.17397513 -1.17397513 1.17397513 0 0 Z " fill="#191919" transform="translate(37,51)"/>
<path d="M0 0 C3.3 0 6.6 0 10 0 C10.33 1.98 10.66 3.96 11 6 C7.37 6 3.74 6 0 6 C0 4.02 0 2.04 0 0 Z " fill="#DE4618" transform="translate(31,329)"/>
<path d="M0 0 C0.33 0 0.66 0 1 0 C1.40504471 4.54831461 0.10663029 7.31868008 -2 11.3125 C-2.556875 12.38113281 -3.11375 13.44976562 -3.6875 14.55078125 C-4.3371875 15.76314453 -4.3371875 15.76314453 -5 17 C-5.33 17 -5.66 17 -6 17 C-6.34884724 12.10160332 -5.46792622 9.34104063 -3 5.125 C-2.443125 4.15820312 -1.88625 3.19140625 -1.3125 2.1953125 C-0.879375 1.47085938 -0.44625 0.74640625 0 0 Z " fill="#0C0C0C" transform="translate(15,170)"/>
<path d="M0 0 C1.69433918 3.0469629 2.49467112 5.82821466 3.125 9.25 C3.29257813 10.14203125 3.46015625 11.0340625 3.6328125 11.953125 C3.75398438 12.62859375 3.87515625 13.3040625 4 14 C3.01 14 2.02 14 1 14 C0.63495397 12.41913952 0.28339494 10.83516093 -0.0625 9.25 C-0.25972656 8.36828125 -0.45695312 7.4865625 -0.66015625 6.578125 C-0.99825872 4.01320972 -0.81158635 2.42908361 0 0 Z " fill="#141313" transform="translate(98,89)"/>
<path d="M0 0 C2 3 2 3 3 6 C-1.31392226 5.5206753 -3.16569547 4.2542015 -6 1 C-4.7934375 1.0309375 -4.7934375 1.0309375 -3.5625 1.0625 C-1.06645115 1.29633621 -1.06645115 1.29633621 0 0 Z " fill="#D64518" transform="translate(50,273)"/>
<path d="M0 0 C0.33 1.32 0.66 2.64 1 4 C1.763125 3.9175 2.52625 3.835 3.3125 3.75 C6 4 6 4 7.8125 6 C8.204375 6.66 8.59625 7.32 9 8 C8.01 8.495 8.01 8.495 7 9 C7 8.34 7 7.68 7 7 C4.69 6.34 2.38 5.68 0 5 C0 3.35 0 1.7 0 0 Z " fill="#0C0D0D" transform="translate(103,332)"/>
<path d="M0 0 C1.5625 1.75 1.5625 1.75 3 4 C2.6875 6.25 2.6875 6.25 2 8 C2 7.34 2 6.68 2 6 C0.68 6 -0.64 6 -2 6 C-1.125 1.125 -1.125 1.125 0 0 Z " fill="#EA4816" transform="translate(35,231)"/>
<path d="M0 0 C0 0.33 0 0.66 0 1 C-1.670625 1.2165625 -1.670625 1.2165625 -3.375 1.4375 C-6.82142047 1.78372035 -6.82142047 1.78372035 -9 3 C-9.66 2.34 -10.32 1.68 -11 1 C-7.2297564 -1.56376565 -4.32597804 -0.83191885 0 0 Z " fill="#D54A18" transform="translate(57,218)"/>
</svg>
