<svg width="150" height="512" viewBox="0 0 150 512" fill="none" xmlns="http://www.w3.org/2000/svg">
<g clip-path="url(#clip0_14_2)">
<path d="M133.677 248.362H14.3269V503.854H133.677V248.362Z" fill="#555DC9"/>
<path d="M126.346 173.66V177.592H74.8351C74.3021 177.592 74.0351 177.592 74.0351 177.592C74.0351 177.592 50.5121 177.592 21.7241 177.592V175.593C21.9241 120.882 30.6531 75.968 41.6491 45.314C52.1111 16.327 64.5731 0 74.0351 0C74.3011 0 74.5681 0 74.8351 0.067C74.9021 0.067 74.9681 0.067 75.0351 0.134C75.5681 0.134 76.1681 0.267 76.7011 0.468C77.3671 0.601 77.9671 0.868 78.6331 1.201C79.2991 1.467 79.8991 1.867 80.5651 2.267C80.6321 2.334 80.6321 2.334 80.6981 2.4C81.3641 2.799 81.9641 3.266 82.6301 3.866C83.2971 4.399 83.9631 4.932 84.6291 5.599C87.9611 8.864 91.4261 13.529 94.8251 19.526C95.5581 20.793 96.2911 22.125 97.0241 23.524C97.0241 23.524 97.0911 23.524 97.0911 23.591C97.7571 24.99 98.4901 26.389 99.2231 27.856C100.023 29.655 100.889 31.454 101.755 33.387C102.955 36.186 104.087 39.119 105.354 42.251C106.087 44.25 106.82 46.382 107.553 48.515C108.885 52.381 110.152 56.378 111.351 60.644C116.416 78.102 120.681 98.894 123.346 122.551C123.812 126.816 124.212 131.148 124.612 135.546C124.945 139.744 125.278 144.009 125.545 148.407C125.812 153.805 126.078 159.336 126.212 164.933V165.866C126.28 168.462 126.346 171.061 126.346 173.66Z" fill="#555DC9"/>
<path d="M127.08 175.593H20.991V216.176H127.08V175.593Z" fill="#555DC9"/>
<path d="M138.608 237.7C138.941 241.431 135.743 245.03 131.344 245.03C108.821 245.03 91.7611 245.097 74.8351 245.097C57.2421 245.097 39.7831 245.097 16.3271 245.03C11.9291 245.03 8.7301 241.431 9.0631 237.7C9.0631 236.9 9.2631 236.167 9.6631 235.368C13.0611 228.371 14.9271 224.905 18.5921 217.909C19.1921 216.843 19.9921 215.976 20.9911 215.377C22.1911 214.511 23.6571 214.111 25.1231 214.044C45.0481 213.977 59.9081 213.977 74.8361 213.977C89.0971 213.977 103.49 213.977 122.549 214.044C124.215 214.111 125.814 214.643 127.08 215.643V215.71C127.213 215.71 127.346 215.843 127.48 215.976C127.613 216.109 127.813 216.243 127.947 216.442C128.413 216.909 128.813 217.376 129.08 217.909C132.745 224.906 134.611 228.371 138.009 235.368C138.209 235.702 138.342 236.101 138.409 236.5C138.541 236.9 138.608 237.3 138.608 237.7Z" fill="#555DC9"/>
<path d="M149.67 511.984H0L4.398 509.118L8.596 506.385C8.596 503.32 11.128 500.921 14.327 500.788H135.143C138.408 500.788 141.074 503.254 141.074 506.385L149.67 511.984Z" fill="#555DC9"/>
<path d="M139.141 237.7H8.92896V493.258H139.141V237.7Z" fill="#555DC9"/>
<path opacity="0.06" d="M47.717 41.764C42.163 56.584 42.691 70.319 48.895 72.442C55.099 74.565 64.631 64.271 70.185 49.451C75.739 34.631 75.211 20.896 69.007 18.773C62.803 16.65 53.27 26.943 47.717 41.764Z" fill="white"/>
<path opacity="0.1" d="M141.053 506.378C141.053 503.287 138.406 500.757 135.169 500.757H133.708V493.261H139.154V237.727H138.603C138.552 236.933 138.402 236.134 138.018 235.353C134.589 228.384 132.775 224.895 129.059 217.909C128.575 216.999 127.855 216.268 127.046 215.651V175.575H126.316C125.917 70.727 94.399 1.93702 74.835 0.0930176V512H149.702L141.053 506.378Z" fill="#040000"/>
</g>
<defs>
<clipPath id="clip0_14_2">
<rect width="150" height="512" fill="white"/>
</clipPath>
</defs>
</svg>
