<?xml version="1.0" encoding="UTF-8"?>
<svg version="1.1" xmlns="http://www.w3.org/2000/svg" width="271" height="249">
<path d="M0 0 C0.99 0 1.98 0 3 0 C5.83193773 6.65041115 8.54562493 13.30463977 10.91015625 20.13671875 C12.44324685 24.16451591 14.22273956 28.07497007 16 32 C16.91813477 32.04487549 17.83626953 32.08975098 18.78222656 32.13598633 C22.19721312 32.30950153 25.61105895 32.49541042 29.02490234 32.68969727 C30.50087388 32.77115587 31.9771251 32.84770426 33.45361328 32.91918945 C35.57938231 33.02297279 37.70351042 33.14453824 39.828125 33.26953125 C41.7447998 33.37164917 41.7447998 33.37164917 43.70019531 33.47583008 C47.10365819 34.01646598 48.68806724 34.46072961 51 37 C51 38.32 51 39.64 51 41 C49.12109375 42.75390625 49.12109375 42.75390625 46.4375 44.5625 C45.45007813 45.24441406 44.46265625 45.92632812 43.4453125 46.62890625 C42.89907227 47.00160645 42.35283203 47.37430664 41.79003906 47.75830078 C38.41278024 50.10100923 35.11958959 52.55977531 31.8125 55 C30.50675855 55.95867139 29.20078912 56.91703239 27.89453125 57.875 C26.93933594 58.57625 25.98414063 59.2775 25 60 C25.59872973 62.64717561 26.20246622 65.29292114 26.8125 67.9375 C26.99264648 68.71931641 27.17279297 69.50113281 27.35839844 70.30664062 C28.29702482 74.29704873 29.31212559 78.15420193 30.75 82 C32.34462863 86.40462287 32.22165621 90.34521952 32 95 C26.88961987 95.64469411 24.46668847 94.35648989 20.54492188 91.39160156 C19.91134766 90.89112305 19.27777344 90.39064453 18.625 89.875 C17.63209961 89.12428223 17.63209961 89.12428223 16.61914062 88.35839844 C13.8567601 86.26284625 11.14993753 84.12564859 8.4921875 81.8984375 C5.135973 78.96196544 5.135973 78.96196544 0.96875 77.8671875 C-1.19873479 78.09996757 -1.19873479 78.09996757 -4 79 C-4 79.66 -4 80.32 -4 81 C-5.3969614 81.98969018 -6.80265678 82.96927831 -8.24902344 83.88525391 C-9.97070511 84.98134963 -11.62995245 86.13596393 -13.2890625 87.32421875 C-13.83820313 87.71287109 -14.38734375 88.10152344 -14.953125 88.50195312 C-16.0784438 89.29993036 -17.20079892 90.10210176 -18.3203125 90.90820312 C-24.03116344 94.92869607 -24.03116344 94.92869607 -27 95 C-28.7890625 93.91796875 -28.7890625 93.91796875 -30 92 C-29.90863248 85.83269226 -28.13766461 79.75486321 -25.796875 74.08203125 C-24.02035992 69.4404502 -22 64.00315678 -22 59 C-23.32 58.34 -24.64 57.68 -26 57 C-26 56.34 -26 55.68 -26 55 C-26.73605469 54.73703125 -27.47210938 54.4740625 -28.23046875 54.203125 C-31.01234951 52.99463519 -32.96620782 51.65448579 -35.3125 49.75 C-38.36442364 47.30743695 -41.4297882 44.90092495 -44.5625 42.5625 C-45.22378906 42.06878906 -45.88507813 41.57507813 -46.56640625 41.06640625 C-47.27603516 40.53853516 -47.27603516 40.53853516 -48 40 C-47.75 38.125 -47.75 38.125 -47 36 C-43.52577952 33.61476141 -40.17038337 33.69077246 -36.046875 33.5859375 C-35.38665344 33.56657135 -34.72643188 33.5472052 -34.04620361 33.5272522 C-31.94759847 33.46770651 -29.84893772 33.42117278 -27.75 33.375 C-26.3228934 33.33679706 -24.89580928 33.29774398 -23.46875 33.2578125 C-19.97937309 33.1620267 -16.48982714 33.07790358 -13 33 C-12.85594727 32.0622876 -12.71189453 31.1245752 -12.56347656 30.15844727 C-12.00656272 27.03678591 -11.13496476 24.77317152 -9.75 21.9375 C-7.24234312 16.63871198 -5.14200731 11.24804588 -3.11328125 5.75 C-2 3 -2 3 0 0 Z " fill="#FAB935" transform="translate(132,75)"/>
<path d="M0 0 C7.38533178 -0.48428405 7.38533178 -0.48428405 10.0625 1.625 C11.41406968 5.04897651 11.21540357 6.48883412 10 10 C4.50174193 17.52604301 -2.80428647 23.9904297 -9.38110352 30.56640625 C-11.33052781 32.51804832 -13.27177624 34.4775967 -15.21289062 36.4375 C-16.45003249 37.67757071 -17.68764535 38.91717177 -18.92578125 40.15625 C-19.50596512 40.74361938 -20.08614899 41.33098877 -20.68391418 41.93615723 C-24.77113745 46 -24.77113745 46 -27 46 C-27 46.66 -27 47.32 -27 48 C-28.40950215 48.97322767 -29.82581129 49.93830377 -31.27734375 50.84765625 C-33.0487425 52.03260552 -34.59250304 53.3388874 -36.1875 54.75 C-39 57 -39 57 -42 57 C-40.50437965 46.76776809 -32.00313383 38.29960346 -25.71484375 30.44140625 C-23.24719805 27.34493964 -20.92175554 24.16337782 -18.625 20.9375 C-15.99058436 17.27176141 -13.28236378 14.11403743 -10 11 C-8.16319712 8.87444208 -6.34960148 6.73200532 -4.55078125 4.57421875 C-3.78314453 3.79498047 -3.78314453 3.79498047 -3 3 C-2.34 3 -1.68 3 -1 3 C-0.67 2.01 -0.34 1.02 0 0 Z " fill="#327B99" transform="translate(212,35)"/>
<path d="M0 0 C-0.53543505 4.60644121 -2.38575208 7.38765385 -5.0625 11.125 C-5.46807129 11.69484619 -5.87364258 12.26469238 -6.29150391 12.85180664 C-7.1245039 14.01907916 -7.96141515 15.18357055 -8.80224609 16.34521484 C-9.87279728 17.82426008 -10.93136496 19.31196204 -11.98828125 20.80078125 C-17.03524361 27.85398952 -22.37152938 34.67465846 -27.77539062 41.45605469 C-28.93000745 42.91175581 -30.06716332 44.38125749 -31.203125 45.8515625 C-33.64878416 48.77572019 -34.53338482 48.94815387 -38.375 49.375 C-42 49 -42 49 -44.5 46.875 C-46 44 -46 44 -46.08984375 41.34375 C-44.42346747 36.23114035 -40.89022595 33.28400164 -37.0625 29.625 C-36.32064453 28.88894531 -35.57878906 28.15289062 -34.81445312 27.39453125 C-29.29481679 22 -29.29481679 22 -27 22 C-26.34 20.68 -25.68 19.36 -25 18 C-24.34 18 -23.68 18 -23 18 C-22.34 16.68 -21.68 15.36 -21 14 C-20.34 14 -19.68 14 -19 14 C-18.34 12.68 -17.68 11.36 -17 10 C-16.34 10 -15.68 10 -15 10 C-15 9.34 -15 8.68 -15 8 C-13.5390625 6.4921875 -13.5390625 6.4921875 -11.625 4.875 C-10.99851563 4.33617187 -10.37203125 3.79734375 -9.7265625 3.2421875 C-8 2 -8 2 -6 2 C-6 1.34 -6 0.68 -6 0 C-3 -1 -3 -1 0 0 Z " fill="#EC837D" transform="translate(92,166)"/>
<path d="M0 0 C1.97944936 2.96917403 2.29350581 3.65702279 2.3125 7 C2.32925781 7.680625 2.34601563 8.36125 2.36328125 9.0625 C1.88158887 11.63152604 1.04071762 12.39047124 -1 14 C-3.21386719 14.37231445 -3.21386719 14.37231445 -5.796875 14.36328125 C-7.22326294 14.36448975 -7.22326294 14.36448975 -8.6784668 14.36572266 C-9.69207275 14.34815918 -10.70567871 14.3305957 -11.75 14.3125 C-12.79260986 14.3026709 -13.83521973 14.2928418 -14.90942383 14.28271484 C-21.77480776 14.16909701 -28.37443345 13.65479217 -35.15625 12.5703125 C-40.84638861 11.72604397 -46.56940555 11.25569132 -52.30151367 10.78564453 C-53.11338135 10.71200684 -53.92524902 10.63836914 -54.76171875 10.5625 C-55.48319092 10.50191406 -56.20466309 10.44132813 -56.94799805 10.37890625 C-59.24098521 9.9555016 -60.97041798 9.12859268 -63 8 C-63 7.01 -63 6.02 -63 5 C-62.44014404 4.94465088 -61.88028809 4.88930176 -61.3034668 4.83227539 C-58.76444195 4.5792418 -56.225981 4.3209302 -53.6875 4.0625 C-52.80642578 3.97548828 -51.92535156 3.88847656 -51.01757812 3.79882812 C-49.74624023 3.66831055 -49.74624023 3.66831055 -48.44921875 3.53515625 C-47.27879028 3.41732788 -47.27879028 3.41732788 -46.0847168 3.29711914 C-43.81117999 3.03662003 -43.81117999 3.03662003 -41 2 C-36.54310865 1.42458138 -32.06968621 1.01195613 -27.59619141 0.58789062 C-25.40295434 0.37767929 -23.21136884 0.15395937 -21.01953125 -0.0703125 C-6.82578578 -1.4658412 -6.82578578 -1.4658412 0 0 Z " fill="#5C9AB4" transform="translate(257,123)"/>
<path d="M0 0 C1.72215098 1.6092705 3.38008576 3.28785707 5 5 C5.9520241 5.94774682 6.90784554 6.89169253 7.8671875 7.83203125 C23.39816701 23.19450104 23.39816701 23.19450104 25 28 C25.598125 28.28875 26.19625 28.5775 26.8125 28.875 C29.72346154 30.37206594 31.14012721 32.34303887 33 35 C33 35.66 33 36.32 33 37 C33.66 37 34.32 37 35 37 C36.7265625 39.1875 36.7265625 39.1875 38.625 42 C39.25664063 42.928125 39.88828125 43.85625 40.5390625 44.8125 C41.02117187 45.534375 41.50328125 46.25625 42 47 C41.505 47.99 41.505 47.99 41 49 C40.01 49 39.02 49 38 49 C38 48.34 38 47.68 38 47 C37.29875 46.7525 36.5975 46.505 35.875 46.25 C32.60485452 44.82819762 29.858878 43.12753712 27 41 C27 40.34 27 39.68 27 39 C26.29875 38.7525 25.5975 38.505 24.875 38.25 C21.09319758 36.60573808 17.58351994 34.58810985 14.65234375 31.6484375 C9.86523613 26.87264692 4.37140586 22.52127923 -1.3125 18.875 C-5.84502389 15.71277403 -9.53739498 12.35928558 -10.625 6.8125 C-9.31326603 0.90969712 -5.86194737 -1.07668421 0 0 Z " fill="#B6D4DE" transform="translate(51,42)"/>
<path d="M0 0 C0.99 0 1.98 0 3 0 C4.16489106 2.32978212 4.27810606 4.05455675 4.5 6.6484375 C4.62375 8.03289062 4.62375 8.03289062 4.75 9.4453125 C4.87375 10.89550781 4.87375 10.89550781 5 12.375 C5.16377606 14.2788967 5.33033927 16.18255617 5.5 18.0859375 C5.5721875 18.9320459 5.644375 19.7781543 5.71875 20.64990234 C5.98141967 22.84474459 6.45022514 24.86326882 7 27 C7.80768847 35.405943 8.11791002 43.87058402 8.25 52.3125 C8.2713501 53.03526123 8.2927002 53.75802246 8.31469727 54.50268555 C8.33371685 57.40369093 8.33106712 59.48443727 6.73828125 61.96484375 C3.541533 63.86852529 0.65038601 63.23177054 -3 63 C-5 62 -5 62 -6 59 C-6.45484232 50.28233551 -5.78678039 41.50812192 -5.1875 32.8125 C-5.10056885 31.54760742 -5.0136377 30.28271484 -4.92407227 28.97949219 C-2.99571885 2.99571885 -2.99571885 2.99571885 0 0 Z " fill="#5595B0" transform="translate(132,181)"/>
<path d="M0 0 C3.69689719 0.28995272 4.75374502 0.47155011 7.1875 3.25 C7.74157158 6.41959748 7.60620885 9.54312242 7.5 12.75 C7.48235596 13.68473145 7.46471191 14.61946289 7.4465332 15.58251953 C7.3828953 18.47280204 7.28760693 21.36077514 7.1875 24.25 C7.15414551 25.53922363 7.15414551 25.53922363 7.12011719 26.85449219 C6.83628954 37.61876144 5.68012404 47.76216679 3.1875 58.25 C1.7025 58.745 1.7025 58.745 0.1875 59.25 C-9.49400962 49.56849038 -6.82588105 21.13833077 -6.98144531 8.27075195 C-6.60264152 3.73988635 -4.47023677 0.39735438 0 0 Z " fill="#E89B94" transform="translate(132.8125,1.75)"/>
<path d="M0 0 C4.07190091 1.39628918 6.89584244 3.30567602 10.1875 6.0625 C11.62609375 7.26712891 11.62609375 7.26712891 13.09375 8.49609375 C16.66276244 11.57100904 20.17451213 14.70177055 23.65625 17.875 C25.80692711 19.82494724 27.98824971 21.73026129 30.1875 23.625 C31.46046153 24.74759133 32.73131857 25.87257382 34 27 C34.67675781 27.58652344 35.35351562 28.17304688 36.05078125 28.77734375 C40.8145413 33.14014604 40.8145413 33.14014604 41.6875 37.1875 C40.8049523 40.79792242 40.20193545 42.04760033 37 44 C33.05201138 44.43457337 29.4838843 44.17958545 26.3046875 41.65234375 C23 37.80946429 23 37.80946429 23 35 C22.34 35 21.68 35 21 35 C20.34 33.35 19.68 31.7 19 30 C18.34 30 17.68 30 17 30 C15.3359375 27.98046875 15.3359375 27.98046875 13.375 25.1875 C12.66859375 24.19105469 11.9621875 23.19460937 11.234375 22.16796875 C10.49703125 21.12253906 9.7596875 20.07710937 9 19 C7.54474819 16.99775669 6.08656004 14.9976432 4.625 13 C-1.03406705 5.24414716 -1.03406705 5.24414716 -0.625 2.3125 C-0.41875 1.549375 -0.2125 0.78625 0 0 Z " fill="#DF5750" transform="translate(176,176)"/>
<path d="M0 0 C0.78713379 0.04626526 1.57426758 0.09253052 2.38525391 0.14019775 C4.90386504 0.29197905 7.42037331 0.46609907 9.9375 0.640625 C11.60017162 0.74363096 13.26293243 0.84520789 14.92578125 0.9453125 C19.59847291 1.23228762 24.26816831 1.55369957 28.9375 1.890625 C30.16307617 1.97820068 31.38865234 2.06577637 32.65136719 2.15600586 C38.03196143 2.56917326 42.81708722 3.14502973 47.9375 4.890625 C47.0625 8.765625 47.0625 8.765625 45.9375 9.890625 C43.55387924 10.18088421 41.18876011 10.41377965 38.796875 10.609375 C38.07767883 10.67217651 37.35848267 10.73497803 36.61749268 10.79968262 C34.30783971 11.00092441 31.99773817 11.19622515 29.6875 11.390625 C27.39160331 11.5856005 25.09584899 11.78191596 22.800354 11.98156738 C21.37038382 12.10577406 19.940172 12.22723827 18.50970459 12.34558105 C14.91937731 12.6557163 11.46396934 13.16612197 7.9375 13.890625 C5.06360802 14.11319819 2.19427191 14.1209542 -0.6875 14.140625 C-1.450625 14.16125 -2.21375 14.181875 -3 14.203125 C-8.50866854 14.24178232 -8.50866854 14.24178232 -11.05859375 12.625 C-12.24921484 10.5680515 -12.49550762 9.26259983 -12.5 6.890625 C-12.51933594 6.21 -12.53867188 5.529375 -12.55859375 4.828125 C-12.0625 2.890625 -12.0625 2.890625 -10.53540039 1.26269531 C-7.02878674 -0.68292308 -3.87134828 -0.28914678 0 0 Z " fill="#F5B836" transform="translate(20.0625,122.109375)"/>
<path d="M0 0 C3.50537449 0.28732578 5.73610956 1.05561187 8.89672852 2.47241211 C12.10431765 3.87897694 15.40053055 5.04394693 18.6875 6.25 C24.49250233 8.41086517 30.24138836 10.59219143 35.8125 13.3125 C36.78574219 13.77527344 37.75898437 14.23804687 38.76171875 14.71484375 C40.27185547 15.47474609 40.27185547 15.47474609 41.8125 16.25 C42.740625 16.71277344 43.66875 17.17554687 44.625 17.65234375 C46.8125 19.3125 46.8125 19.3125 47.625 22.00390625 C47.686875 22.76574219 47.74875 23.52757813 47.8125 24.3125 C40.28326114 24.1336196 33.58214719 22.53335015 26.44580078 20.32592773 C21.41413821 18.77004803 16.37089304 17.41627292 11.25 16.1875 C-3.3084491 12.63107635 -3.3084491 12.63107635 -6.1875 8.3125 C-5.77824006 3.29906573 -5.47961763 0.53721741 0 0 Z " fill="#F4B2AA" transform="translate(20.1875,79.6875)"/>
<path d="M0 0 C3.25737946 0.7061452 6.13523288 1.85724536 9.1875 3.1875 C14.21161267 5.3196844 19.27817177 7.17129556 24.4375 8.9375 C46.57454588 16.57454588 46.57454588 16.57454588 53 23 C53.25 26 53.25 26 53 29 C51 31 51 31 48.1875 31.3125 C44.5394307 30.95484615 43.02755367 30.01836911 40 28 C36.44243204 26.19000929 32.87192415 24.41847363 29.2734375 22.69140625 C18.30605661 17.35240421 7.81975763 11.5266539 -1 3 C-0.67 2.01 -0.34 1.02 0 0 Z " fill="#F9DE99" transform="translate(184,146)"/>
<path d="M0 0 C5.16689433 6.22773012 7.61074427 15.92889155 10.4375 23.4375 C10.80407715 24.3968042 11.1706543 25.3561084 11.54833984 26.34448242 C11.88172363 27.26076416 12.21510742 28.1770459 12.55859375 29.12109375 C12.86079834 29.9402124 13.16300293 30.75933105 13.47436523 31.60327148 C14.08393484 34.38271635 13.73261533 36.27474372 13 39 C9.71459196 38.71919589 8.37246812 38.436021 6.19140625 35.8828125 C5.65386719 34.97273438 5.11632812 34.06265625 4.5625 33.125 C3.96953125 32.13242187 3.3765625 31.13984375 2.765625 30.1171875 C0.58582611 26.2687815 -1.56877047 22.41135864 -3.6484375 18.5078125 C-4.81625383 16.34093942 -6.04379765 14.23341902 -7.3125 12.125 C-8.87036999 9.24005558 -9.82389241 7.25799045 -10 4 C-8.04179936 -1.42270947 -5.29261838 -1.48220387 0 0 Z " fill="#F6BA36" transform="translate(93,29)"/>
<path d="M0 0 C1.32 0.33 2.64 0.66 4 1 C4.2475 2.0725 4.495 3.145 4.75 4.25 C6.48884982 9.46654947 8.46921286 11.17573 13.25 13.75 C14.61125 14.36875 14.61125 14.36875 16 15 C16 15.99 16 16.98 16 18 C15.43410156 18.26554687 14.86820313 18.53109375 14.28515625 18.8046875 C13.55167969 19.15789062 12.81820312 19.51109375 12.0625 19.875 C11.33160156 20.22304687 10.60070312 20.57109375 9.84765625 20.9296875 C7.83667541 21.8684977 7.83667541 21.8684977 7 24 C6.34 24 5.68 24 5 24 C4.34 26.31 3.68 28.62 3 31 C2.01 31 1.02 31 0 31 C-0.433125 29.906875 -0.86625 28.81375 -1.3125 27.6875 C-3.69714866 22.20060008 -6.56425324 20.53668182 -12 18 C-12 17.01 -12 16.02 -12 15 C-10.13671875 13.7109375 -10.13671875 13.7109375 -7.6875 12.375 C-3.0451104 9.48445553 -1.65894019 6.98246897 -0.33984375 1.7578125 C-0.22769531 1.17773438 -0.11554687 0.59765625 0 0 Z " fill="#3686A9" transform="translate(51,145)"/>
<path d="M0 0 C2 2 2 2 2 5.4375 C0.24423087 16.42585284 -9.19177295 29.19177295 -17 37 C-19.125 36.625 -19.125 36.625 -21 36 C-20.7216813 29.87698856 -18.37216892 25.45197481 -15.5546875 20.06640625 C-13.75593411 16.51861377 -12.30867997 12.90353844 -10.87109375 9.19921875 C-7.01884514 -0.52641339 -7.01884514 -0.52641339 0 0 Z " fill="#F5CC70" transform="translate(180,29)"/>
<path d="M0 0 C-0.35240854 4.111433 -1.60093335 5.62792347 -4.50024414 8.40991211 C-8.27048595 12.40723995 -11.21903766 17.17513724 -14.359375 21.66992188 C-14.91367188 22.45302734 -15.46796875 23.23613281 -16.0390625 24.04296875 C-16.53615723 24.75477295 -17.03325195 25.46657715 -17.54541016 26.19995117 C-19 28 -19 28 -22 30 C-22.99 30 -23.98 30 -25 30 C-25.99 31.485 -25.99 31.485 -27 33 C-27.66 31.68 -28.32 30.36 -29 29 C-33.29238623 30.65091778 -35.8793915 33.73754566 -39 37 C-39.66 36.67 -40.32 36.34 -41 36 C-32 27 -32 27 -29.8046875 24.875 C-27.85147006 22.98984637 -27.85147006 22.98984637 -26.375 20.25 C-25.92125 19.5075 -25.4675 18.765 -25 18 C-24.34 18 -23.68 18 -23 18 C-22.34 16.68 -21.68 15.36 -21 14 C-20.34 14 -19.68 14 -19 14 C-18.34 12.68 -17.68 11.36 -17 10 C-16.34 10 -15.68 10 -15 10 C-15 9.34 -15 8.68 -15 8 C-13.5390625 6.4921875 -13.5390625 6.4921875 -11.625 4.875 C-10.68527344 4.06675781 -10.68527344 4.06675781 -9.7265625 3.2421875 C-8 2 -8 2 -6 2 C-6 1.34 -6 0.68 -6 0 C-3 -1 -3 -1 0 0 Z " fill="#DF5752" transform="translate(92,166)"/>
<path d="M0 0 C0.99 0 1.98 0 3 0 C3.391875 1.0725 3.78375 2.145 4.1875 3.25 C5.74862329 6.90495216 7.62901161 8.80885755 11 11 C11.99 11.33 12.98 11.66 14 12 C13.875 13.8125 13.875 13.8125 13 16 C11.00892752 17.01765927 9.00781177 18.01577854 7 19 C4.42711133 21.78729606 2.53924636 24.53669569 1 28 C0.01 27.67 -0.98 27.34 -2 27 C-2.474375 25.88625 -2.94875 24.7725 -3.4375 23.625 C-5.57589466 18.66392439 -8.25137649 17.20471806 -13 15 C-13 14.01 -13 13.02 -13 12 C-11.63875 11.38125 -11.63875 11.38125 -10.25 10.75 C-6.08064321 8.50496173 -3.77387876 6.36202663 -1.4375 2.25 C-0.963125 1.5075 -0.48875 0.765 0 0 Z " fill="#D67870" transform="translate(211,84)"/>
<path d="M0 0 C7.38533178 -0.48428405 7.38533178 -0.48428405 10.0625 1.625 C11.41406968 5.04897651 11.21540357 6.48883412 10 10 C3.9762572 18.27729466 -4.19344601 25.30410039 -11.4375 32.5 C-12.75479059 33.81226585 -14.07184986 35.12476395 -15.38867188 36.4375 C-18.5897861 39.62768506 -21.79401865 42.81470651 -25 46 C-25.66 45.67 -26.32 45.34 -27 45 C-26.22809326 44.23856689 -25.45618652 43.47713379 -24.66088867 42.69262695 C-21.78760342 39.85564966 -18.92103043 37.01197025 -16.05639648 34.16625977 C-14.8176473 32.93754356 -13.57710577 31.7106315 -12.3347168 30.4855957 C-10.54517467 28.72042059 -8.76226268 26.9487731 -6.98046875 25.17578125 C-6.42723434 24.63286942 -5.87399994 24.08995758 -5.30400085 23.53059387 C-2.35391604 20.58136555 0.18381603 17.81229338 2 14 C2 12.68 2 11.36 2 10 C2.61344757 8.31301918 3.27095914 6.64034193 4 5 C3.01 4.67 2.02 4.34 1 4 C0.68289062 4.4846875 0.36578125 4.969375 0.0390625 5.46875 C-2.78810149 9.52986955 -5.53923757 12.54311382 -9.5625 15.4375 C-16.56385649 20.78091838 -21.38956766 27.90631393 -26.52392578 34.97021484 C-27.82391518 36.75786153 -29.1391042 38.53220825 -30.46484375 40.30078125 C-33.9918105 45.04937894 -37.21561345 49.77927522 -40 55 C-37.69 53.02 -35.38 51.04 -33 49 C-32.34 49.33 -31.68 49.66 -31 50 C-32.26257233 51.17560179 -33.53537084 52.34022865 -34.8125 53.5 C-35.87404297 54.47453125 -35.87404297 54.47453125 -36.95703125 55.46875 C-39 57 -39 57 -42 57 C-40.50437965 46.76776809 -32.00313383 38.29960346 -25.71484375 30.44140625 C-23.24719805 27.34493964 -20.92175554 24.16337782 -18.625 20.9375 C-15.99058436 17.27176141 -13.28236378 14.11403743 -10 11 C-8.16319712 8.87444208 -6.34960148 6.73200532 -4.55078125 4.57421875 C-3.78314453 3.79498047 -3.78314453 3.79498047 -3 3 C-2.34 3 -1.68 3 -1 3 C-0.67 2.01 -0.34 1.02 0 0 Z " fill="#8EB8C9" transform="translate(212,35)"/>
<path d="M0 0 C0.99 0.33 1.98 0.66 3 1 C1.76746675 13.81834585 -1.53313095 28.31364975 -9 39 C-11.5625 39.5 -11.5625 39.5 -14 39 C-16.13012895 35.80480657 -16.26207027 34.78700185 -15.59765625 31.12890625 C-14.30295825 26.51707352 -12.10536926 22.28593028 -10 18 C-9.71253906 17.40606445 -9.42507812 16.81212891 -9.12890625 16.20019531 C-3.19078806 3.93530527 -3.19078806 3.93530527 0 0 Z " fill="#FADF9D" transform="translate(107,189)"/>
<path d="M0 0 C5.11701193 0.86971332 7.5639813 4.02018036 11.04296875 7.6953125 C11.70619141 8.36046875 12.36941406 9.025625 13.05273438 9.7109375 C16.67227776 13.42889747 19.23498706 16.77648425 21.35546875 21.5703125 C22.09796875 22.4571875 22.84046875 23.3440625 23.60546875 24.2578125 C24.18296875 25.0209375 24.76046875 25.7840625 25.35546875 26.5703125 C25.02546875 27.5603125 24.69546875 28.5503125 24.35546875 29.5703125 C19.76407668 27.59455454 16.07853963 24.31070331 12.22070312 21.203125 C9.02056629 18.67886304 6.11281492 17.06442499 2.35546875 15.5703125 C0.3359375 13.80078125 0.3359375 13.80078125 -1.45703125 11.7578125 C-2.06160156 11.09136719 -2.66617188 10.42492187 -3.2890625 9.73828125 C-4.93520127 7.10540801 -5.0633698 5.6232923 -4.64453125 2.5703125 C-2.64453125 0.5703125 -2.64453125 0.5703125 0 0 Z " fill="#35809F" transform="translate(48.64453125,44.4296875)"/>
<path d="M0 0 C2.5 0.8125 2.5 0.8125 5.5 2.8125 C4.84 11.3925 4.18 19.9725 3.5 28.8125 C3.17 28.1525 2.84 27.4925 2.5 26.8125 C1.84 26.8125 1.18 26.8125 0.5 26.8125 C-0.16 29.1225 -0.82 31.4325 -1.5 33.8125 C-2.16 33.8125 -2.82 33.8125 -3.5 33.8125 C-3.83 30.5125 -4.16 27.2125 -4.5 23.8125 C-4.83 23.8125 -5.16 23.8125 -5.5 23.8125 C-5.58703823 20.37515937 -5.64040272 16.93810163 -5.6875 13.5 C-5.71263672 12.52353516 -5.73777344 11.54707031 -5.76367188 10.54101562 C-5.77333984 9.60322266 -5.78300781 8.66542969 -5.79296875 7.69921875 C-5.8086792 6.83514404 -5.82438965 5.97106934 -5.84057617 5.08081055 C-5.5 2.8125 -5.5 2.8125 -4.13793945 0.99536133 C-2.5 -0.1875 -2.5 -0.1875 0 0 Z " fill="#E7534B" transform="translate(133.5,3.1875)"/>
<path d="M0 0 C8.47955977 3.00598151 14.93696519 9.84727832 21.5 15.8125 C22.0163501 16.28034912 22.5327002 16.74819824 23.06469727 17.23022461 C25.40436574 19.38683262 27.22367524 21.33551285 29 24 C28.01 24.33 27.02 24.66 26 25 C26.33 26.32 26.66 27.64 27 29 C25.35 29.66 23.7 30.32 22 31 C15.90682893 23.5248726 9.88341498 16.01800889 4.25 8.1875 C3.60538818 7.29973877 3.60538818 7.29973877 2.94775391 6.39404297 C0 2.24575814 0 2.24575814 0 0 Z " fill="#D9544C" transform="translate(176,178)"/>
<path d="M0 0 C7.55771044 -0.68788742 12.98821985 1.66890459 19.8125 4.75 C20.84826172 5.1934375 21.88402344 5.636875 22.95117188 6.09375 C31.72815754 9.97182034 31.72815754 9.97182034 34 14 C33.1875 16.75 33.1875 16.75 32 19 C24.97775371 17.9313973 18.26598201 14.37388592 13.375 9.25 C10.00925401 6.06139854 6.48934769 5.65530783 2 5 C2 4.34 2 3.68 2 3 C1.01 2.67 0.02 2.34 -1 2 C-0.67 1.34 -0.34 0.68 0 0 Z " fill="#F3BA3D" transform="translate(202,157)"/>
<path d="M0 0 C0.625 2.875 0.625 2.875 1 6 C-2.75752183 9.75752183 -8.91686393 8.88760905 -14 9 C-19.34530046 8.85375047 -24.67242434 8.44453455 -30 8 C-30 7.34 -30 6.68 -30 6 C-30.99 5.67 -31.98 5.34 -33 5 C-29.91111478 2.94074319 -29.29064073 2.7609626 -25.8125 2.875 C-23.9253125 2.936875 -23.9253125 2.936875 -22 3 C-22 2.34 -22 1.68 -22 1 C-7.40318907 -1.48063781 -7.40318907 -1.48063781 0 0 Z " fill="#3683A3" transform="translate(240,126)"/>
<path d="M0 0 C0.78713379 0.04626526 1.57426758 0.09253052 2.38525391 0.14019775 C4.90386504 0.29197905 7.42037331 0.46609907 9.9375 0.640625 C11.60017162 0.74363096 13.26293243 0.84520789 14.92578125 0.9453125 C19.59847291 1.23228762 24.26816831 1.55369957 28.9375 1.890625 C30.16307617 1.97820068 31.38865234 2.06577637 32.65136719 2.15600586 C38.03196143 2.56917326 42.81708722 3.14502973 47.9375 4.890625 C47.0625 8.765625 47.0625 8.765625 45.9375 9.890625 C43.55387924 10.18088421 41.18876011 10.41377965 38.796875 10.609375 C38.07767883 10.67217651 37.35848267 10.73497803 36.61749268 10.79968262 C34.30783971 11.00092441 31.99773817 11.19622515 29.6875 11.390625 C27.39160331 11.5856005 25.09584899 11.78191596 22.800354 11.98156738 C21.37038382 12.10577406 19.940172 12.22723827 18.50970459 12.34558105 C14.91937731 12.6557163 11.46396934 13.16612197 7.9375 13.890625 C5.06360802 14.11319819 2.19427191 14.1209542 -0.6875 14.140625 C-1.450625 14.16125 -2.21375 14.181875 -3 14.203125 C-8.50866854 14.24178232 -8.50866854 14.24178232 -11.05859375 12.625 C-12.24921484 10.5680515 -12.49550762 9.26259983 -12.5 6.890625 C-12.51933594 6.21 -12.53867188 5.529375 -12.55859375 4.828125 C-12.0625 2.890625 -12.0625 2.890625 -10.53540039 1.26269531 C-7.02878674 -0.68292308 -3.87134828 -0.28914678 0 0 Z M-11.0625 3.890625 C-11.56260524 6.84831677 -11.56260524 6.84831677 -11.0625 9.890625 C-9.00535655 11.88827635 -7.63607336 12.80009968 -4.78857422 13.24951172 C3.16598361 13.0802009 10.94094993 12.14356053 18.8125 11.015625 C20.10414062 10.84160156 21.39578125 10.66757813 22.7265625 10.48828125 C30.52475262 9.42143565 30.52475262 9.42143565 37.9375 6.890625 C37.9375 6.560625 37.9375 6.230625 37.9375 5.890625 C25.47373419 2.95905878 13.6047694 1.8184095 0.8125 1.703125 C-0.5943103 1.68342651 -0.5943103 1.68342651 -2.02954102 1.66333008 C-3.3490979 1.66175903 -3.3490979 1.66175903 -4.6953125 1.66015625 C-5.48824707 1.65604736 -6.28118164 1.65193848 -7.09814453 1.64770508 C-9.29707586 1.71521509 -9.29707586 1.71521509 -11.0625 3.890625 Z " fill="#FCF1C8" transform="translate(20.0625,122.109375)"/>
<path d="M0 0 C2.1875 0 2.1875 0 5 1 C9.57682744 6.35075162 12.6655847 13.38831481 13.3125 20.375 C13 23 13 23 11 25 C8.375 25.125 8.375 25.125 6 25 C2.15592638 17.97462408 -1.37908661 10.47322201 -0.6875 2.3125 C-0.460625 1.549375 -0.23375 0.78625 0 0 Z " fill="#F0ABA6" transform="translate(158,198)"/>
<path d="M0 0 C6.51992551 1.27662877 12.34400865 3.12209259 18.4375 5.75 C19.26354736 6.10126953 20.08959473 6.45253906 20.94067383 6.81445312 C26.92891439 9.41173389 32.58898488 12.32774295 38 16 C37.67 16.66 37.34 17.32 37 18 C29.36920735 16.42614902 21.76250851 14.7608588 14.1875 12.9375 C13.48818359 12.77540039 12.78886719 12.61330078 12.06835938 12.44628906 C10.36204331 12.02777472 8.67777945 11.52127236 7 11 C6.67 10.34 6.34 9.68 6 9 C6.9375 6.375 6.9375 6.375 8 4 C5.36 3.01 2.72 2.02 0 1 C0 0.67 0 0.34 0 0 Z " fill="#DF5A52" transform="translate(29,85)"/>
<path d="M0 0 C0.66 0.33 1.32 0.66 2 1 C3.16647493 5.54925224 3.27283285 7.90890086 1 12 C-1.56096382 16.32714577 -3.58978002 18.62526616 -8 21 C-8.556875 21.556875 -9.11375 22.11375 -9.6875 22.6875 C-10.3371875 23.3371875 -10.3371875 23.3371875 -11 24 C-11.66 24 -12.32 24 -13 24 C-13.33 24.99 -13.66 25.98 -14 27 C-14.89130413 24.3260876 -15.47731534 21.76276177 -16 19 C-15.01 18.67 -14.02 18.34 -13 18 C-12.9175 17.2575 -12.835 16.515 -12.75 15.75 C-11.85190201 12.45697405 -10.61583926 11.14023212 -8 9 C-7.34 9 -6.68 9 -6 9 C-5.7525 8.443125 -5.505 7.88625 -5.25 7.3125 C-3.78393985 4.60028873 -1.97010529 2.36412635 0 0 Z " fill="#3483A5" transform="translate(213,38)"/>
<path d="M0 0 C5.16689433 6.22773012 7.61074427 15.92889155 10.4375 23.4375 C10.80407715 24.3968042 11.1706543 25.3561084 11.54833984 26.34448242 C11.88172363 27.26076416 12.21510742 28.1770459 12.55859375 29.12109375 C12.86079834 29.9402124 13.16300293 30.75933105 13.47436523 31.60327148 C14.08393484 34.38271635 13.73261533 36.27474372 13 39 C10.7421875 38.8359375 10.7421875 38.8359375 8 38 C5.9453125 35.6015625 5.9453125 35.6015625 4.125 32.625 C3.50882813 31.64789063 2.89265625 30.67078125 2.2578125 29.6640625 C1 27 1 27 2 24 C2.66 25.98 3.32 27.96 4 30 C5.32 30 6.64 30 8 30 C8 28.35 8 26.7 8 25 C7.34 25 6.68 25 6 25 C5.91363281 24.24976562 5.82726562 23.49953125 5.73828125 22.7265625 C4.82542676 16.07696192 3.30648815 10.82488346 0.0234375 4.9609375 C-1 3 -1 3 -1 1 C-2.98 1.33 -4.96 1.66 -7 2 C-6.56759354 7.18887752 -5.3210115 10.77450051 -2.7421875 15.30078125 C-2.37480469 16.14189453 -2.37480469 16.14189453 -2 17 C-2.33 17.66 -2.66 18.32 -3 19 C-3.9884096 17.44333045 -4.96535082 15.87937574 -5.9375 14.3125 C-6.48277344 13.44238281 -7.02804688 12.57226562 -7.58984375 11.67578125 C-8.98711613 9.02444723 -9.66872062 6.96645628 -10 4 C-8.04179936 -1.42270947 -5.29261838 -1.48220387 0 0 Z " fill="#F8E4AE" transform="translate(93,29)"/>
<path d="M0 0 C1.32 0.33 2.64 0.66 4 1 C4.2475 2.0725 4.495 3.145 4.75 4.25 C6.48884982 9.46654947 8.46921286 11.17573 13.25 13.75 C14.61125 14.36875 14.61125 14.36875 16 15 C16 15.99 16 16.98 16 18 C14.1875 19.0625 14.1875 19.0625 12 20 C11.01 19.67 10.02 19.34 9 19 C10.32 18.01 11.64 17.02 13 16 C8.56906802 14.18698242 8.56906802 14.18698242 4 15 C2.68 15 1.36 15 0 15 C-0.66 15.66 -1.32 16.32 -2 17 C-2.66 16.01 -3.32 15.02 -4 14 C-5.98 14.66 -7.96 15.32 -10 16 C-9.45730469 16.38671875 -8.91460937 16.7734375 -8.35546875 17.171875 C-7.64003906 17.69265625 -6.92460938 18.2134375 -6.1875 18.75 C-5.47980469 19.26046875 -4.77210937 19.7709375 -4.04296875 20.296875 C-1.91791247 22.06843243 -0.4322145 23.63255394 1 26 C1 27.32 1 28.64 1 30 C1.66 30.33 2.32 30.66 3 31 C2.01 31 1.02 31 0 31 C-0.433125 29.906875 -0.86625 28.81375 -1.3125 27.6875 C-3.69714866 22.20060008 -6.56425324 20.53668182 -12 18 C-12 17.01 -12 16.02 -12 15 C-10.13671875 13.7109375 -10.13671875 13.7109375 -7.6875 12.375 C-3.0451104 9.48445553 -1.65894019 6.98246897 -0.33984375 1.7578125 C-0.22769531 1.17773438 -0.11554687 0.59765625 0 0 Z " fill="#9BC3D2" transform="translate(51,145)"/>
<path d="M0 0 C4.07190091 1.39628918 6.89584244 3.30567602 10.1875 6.0625 C11.62609375 7.26712891 11.62609375 7.26712891 13.09375 8.49609375 C16.66276244 11.57100904 20.17451213 14.70177055 23.65625 17.875 C25.80692711 19.82494724 27.98824971 21.73026129 30.1875 23.625 C31.46046153 24.74759133 32.73131857 25.87257382 34 27 C34.67675781 27.58652344 35.35351562 28.17304688 36.05078125 28.77734375 C40.8145413 33.14014604 40.8145413 33.14014604 41.6875 37.1875 C40.8049523 40.79792242 40.20193545 42.04760033 37 44 C33.05201138 44.43457337 29.4838843 44.17958545 26.3046875 41.65234375 C23 37.80946429 23 37.80946429 23 35 C22.34 35 21.68 35 21 35 C20.34 33.35 19.68 31.7 19 30 C18.34 30 17.68 30 17 30 C15.3359375 27.98046875 15.3359375 27.98046875 13.375 25.1875 C12.66859375 24.19105469 11.9621875 23.19460937 11.234375 22.16796875 C10.49703125 21.12253906 9.7596875 20.07710937 9 19 C7.54474819 16.99775669 6.08656004 14.9976432 4.625 13 C-1.03406705 5.24414716 -1.03406705 5.24414716 -0.625 2.3125 C-0.41875 1.549375 -0.2125 0.78625 0 0 Z M0 2 C1.45009386 6.26452334 3.58389241 9.29425921 6.375 12.8125 C7.27323121 13.95486841 8.17031327 15.09814106 9.06640625 16.2421875 C9.54094238 16.84643555 10.01547852 17.45068359 10.50439453 18.07324219 C13.6670673 22.14764857 16.72696969 26.30065057 19.80029297 30.44262695 C21.18850661 32.30434165 22.58904675 34.15547126 24 36 C24.44255127 36.58265625 24.88510254 37.1653125 25.34106445 37.765625 C27.72235311 40.78285409 28.79347739 41.93478233 32.5625 43.125 C36.01594847 43.29438021 36.01594847 43.29438021 38.5 41.375 C40.25254656 39.12482616 40.25254656 39.12482616 39.81030273 36.58105469 C38.87214703 33.59275034 37.83355568 32.42474885 35.53515625 30.328125 C34.82238525 29.66804443 34.10961426 29.00796387 33.37524414 28.32788086 C32.61203857 27.64218018 31.84883301 26.95647949 31.0625 26.25 C30.28704834 25.5391626 29.51159668 24.8283252 28.71264648 24.09594727 C27.17346 22.68761173 25.6300164 21.28391255 24.08203125 19.88525391 C22.37315308 18.33788557 20.68070936 16.77696681 19 15.19921875 C10.49341673 6.45980874 10.49341673 6.45980874 0 2 Z " fill="#FCE1DC" transform="translate(176,176)"/>
<path d="M0 0 C1.18660933 3.55982798 0.75500407 4.31492696 -0.58203125 7.7109375 C-0.93716797 8.62617187 -1.29230469 9.54140625 -1.65820312 10.484375 C-2.03912109 11.43828125 -2.42003906 12.3921875 -2.8125 13.375 C-3.36647461 14.79425781 -3.36647461 14.79425781 -3.93164062 16.2421875 C-5.5985788 20.50380323 -7.29945064 24.75170645 -9 29 C-9.82725586 29.01981934 -10.65451172 29.03963867 -11.50683594 29.06005859 C-15.25487806 29.15531212 -19.00236317 29.26499109 -22.75 29.375 C-24.05195312 29.4059375 -25.35390625 29.436875 -26.6953125 29.46875 C-27.94570312 29.50742188 -29.19609375 29.54609375 -30.484375 29.5859375 C-32.21252441 29.63306885 -32.21252441 29.63306885 -33.97558594 29.68115234 C-36.88552102 29.9879311 -38.61752003 30.32804724 -41 32 C-41.33 32.99 -41.66 33.98 -42 35 C-41.27683594 35.27199219 -40.55367188 35.54398438 -39.80859375 35.82421875 C-32.66090351 38.81650632 -23.69389369 43.46936061 -19.625 50.3125 C-19.41875 50.869375 -19.2125 51.42625 -19 52 C-20.32 51.67 -21.64 51.34 -23 51 C-23 50.34 -23 49.68 -23 49 C-23.73605469 48.73703125 -24.47210938 48.4740625 -25.23046875 48.203125 C-28.01234951 46.99463519 -29.96620782 45.65448579 -32.3125 43.75 C-35.36442364 41.30743695 -38.4297882 38.90092495 -41.5625 36.5625 C-42.22378906 36.06878906 -42.88507813 35.57507813 -43.56640625 35.06640625 C-44.27603516 34.53853516 -44.27603516 34.53853516 -45 34 C-44.75 32.125 -44.75 32.125 -44 30 C-40.52577952 27.61476141 -37.17038337 27.69077246 -33.046875 27.5859375 C-32.05654266 27.55688828 -32.05654266 27.55688828 -31.04620361 27.5272522 C-28.94759847 27.46770651 -26.84893772 27.42117278 -24.75 27.375 C-23.3228934 27.33679706 -21.89580928 27.29774398 -20.46875 27.2578125 C-16.97937309 27.1620267 -13.48982714 27.07790358 -10 27 C-9.78500854 25.59669434 -9.78500854 25.59669434 -9.56567383 24.16503906 C-8.99838951 20.99098907 -8.08560918 18.64144562 -6.6875 15.75 C-4.24528451 10.57449102 -2.07095183 5.33356867 0 0 Z " fill="#FDF4CF" transform="translate(129,81)"/>
<path d="M0 0 C0.44730469 0.39832031 0.89460938 0.79664063 1.35546875 1.20703125 C4.05437295 3.57216905 6.57629833 5.75366182 9.6875 7.5625 C12.50376691 9.31315241 14.1213107 11.28633768 16 14 C16 14.66 16 15.32 16 16 C16.66 16 17.32 16 18 16 C19.7265625 18.1875 19.7265625 18.1875 21.625 21 C22.25664063 21.928125 22.88828125 22.85625 23.5390625 23.8125 C24.02117187 24.534375 24.50328125 25.25625 25 26 C24.67 26.66 24.34 27.32 24 28 C23.01 28 22.02 28 21 28 C21 27.34 21 26.68 21 26 C20.29875 25.7525 19.5975 25.505 18.875 25.25 C15.59413398 23.82353651 12.8613016 22.1459762 10 20 C9.67 19.01 9.34 18.02 9 17 C7.67151309 15.99357052 6.33849671 14.99307821 5 14 C5 13.34 5 12.68 5 12 C5.99 11.67 6.98 11.34 8 11 C7.50628906 10.45730469 7.01257813 9.91460937 6.50390625 9.35546875 C5.86324219 8.64003906 5.22257812 7.92460938 4.5625 7.1875 C3.92441406 6.47980469 3.28632812 5.77210937 2.62890625 5.04296875 C1 3 1 3 0 0 Z " fill="#72A3B5" transform="translate(68,63)"/>
<path d="M0 0 C0.66 0.33 1.32 0.66 2 1 C2 1.66 2 2.32 2 3 C1.34 3 0.68 3 0 3 C-0.33 4.32 -0.66 5.64 -1 7 C-0.01 7 0.98 7 2 7 C0.74155722 10.88019859 -0.42416203 12.9411842 -4 15 C-4.99 15 -5.98 15 -7 15 C-7.99 16.485 -7.99 16.485 -9 18 C-9.66 16.68 -10.32 15.36 -11 14 C-15.29238623 15.65091778 -17.8793915 18.73754566 -21 22 C-21.66 21.67 -22.32 21.34 -23 21 C-20.7682219 18.7682219 -18.53603382 16.53689375 -16.30078125 14.30859375 C-14.68098683 12.68329917 -13.08250188 11.03662698 -11.5 9.375 C-7.89736786 5.95249947 -3.96077118 2.9943085 0 0 Z " fill="#E3534B" transform="translate(74,181)"/>
<path d="M0 0 C0.66 0 1.32 0 2 0 C2.33 0.99 2.66 1.98 3 3 C3.33 2.01 3.66 1.02 4 0 C4.66 0.99 5.32 1.98 6 3 C6.66 2.01 7.32 1.02 8 0 C9.00596297 0.9520721 10.00461563 1.91187346 11 2.875 C11.8353125 3.67550781 11.8353125 3.67550781 12.6875 4.4921875 C14 6 14 6 14 8 C14.66 8 15.32 8 16 8 C17.54296875 9.64453125 17.54296875 9.64453125 19.1875 11.8125 C20.01314453 12.87404297 20.01314453 12.87404297 20.85546875 13.95703125 C21.23316406 14.63121094 21.61085938 15.30539063 22 16 C21.67 16.99 21.34 17.98 21 19 C17.12037659 17.30621319 13.93547911 14.77714898 10.625 12.1875 C10.07328125 11.76146484 9.5215625 11.33542969 8.953125 10.89648438 C5.23302003 8.0103466 1.60268651 5.03126342 -2 2 C-1.34 1.34 -0.68 0.68 0 0 Z " fill="#3785A8" transform="translate(52,55)"/>
<path d="M0 0 C0.99 0 1.98 0 3 0 C3.391875 1.0725 3.78375 2.145 4.1875 3.25 C5.74862329 6.90495216 7.62901161 8.80885755 11 11 C11.99 11.33 12.98 11.66 14 12 C13.67 12.99 13.34 13.98 13 15 C13 14.34 13 13.68 13 13 C12.278125 12.9175 11.55625 12.835 10.8125 12.75 C7.44686746 11.85249799 5.58387184 10.2885722 3 8 C3.66 8.61875 4.32 9.2375 5 9.875 C7 12 7 12 7 14 C6.01 14.495 6.01 14.495 5 15 C5 15.66 5 16.32 5 17 C4.01 17.66 3.02 18.32 2 19 C1.34 19.99 0.68 20.98 0 22 C-0.2475 21.21625 -0.495 20.4325 -0.75 19.625 C-2.18600823 16.60938271 -3.00220692 16.21785344 -6 15 C-6.66 14.34 -7.32 13.68 -8 13 C-7.05125 12.4225 -6.1025 11.845 -5.125 11.25 C-2.23865902 9.17183449 -1.15904259 8.24531925 0 5 C0.66 5 1.32 5 2 5 C2 3.68 2 2.36 2 1 C1.34 0.67 0.68 0.34 0 0 Z " fill="#EF766E" transform="translate(211,84)"/>
<path d="M0 0 C0 0.33 0 0.66 0 1 C-2.04071515 1.33910994 -4.08262621 1.67102704 -6.125 2 C-7.83042969 2.2784375 -7.83042969 2.2784375 -9.5703125 2.5625 C-12.76137602 2.96956049 -15.78817791 3.07809902 -19 3 C-19 3.66 -19 4.32 -19 5 C-22.3 5.66 -25.6 6.32 -29 7 C-28.34 7.66 -27.68 8.32 -27 9 C-28.91635217 9.05423638 -30.83314925 9.09289963 -32.75 9.125 C-34.35101563 9.15980469 -34.35101563 9.15980469 -35.984375 9.1953125 C-38.92470106 9.00487687 -40.52361878 8.52670104 -43 7 C-43 6.01 -43 5.02 -43 4 C-42.44014404 3.94465088 -41.88028809 3.88930176 -41.3034668 3.83227539 C-38.76444195 3.5792418 -36.225981 3.3209302 -33.6875 3.0625 C-32.80642578 2.97548828 -31.92535156 2.88847656 -31.01757812 2.79882812 C-29.74624023 2.66831055 -29.74624023 2.66831055 -28.44921875 2.53515625 C-27.27879028 2.41732788 -27.27879028 2.41732788 -26.0847168 2.29711914 C-23.81117999 2.03662003 -23.81117999 2.03662003 -21 1 C-14.0056996 0.14934184 -7.03898166 -0.11731636 0 0 Z " fill="#9DC2D0" transform="translate(237,124)"/>
<path d="M0 0 C0.99 0.33 1.98 0.66 3 1 C2.30011914 8.27876095 1.29638635 16.4072273 -2 23 C-2.66 23 -3.32 23 -4 23 C-4.33 23.66 -4.66 24.32 -5 25 C-5.33 24.34 -5.66 23.68 -6 23 C-6.66 23.33 -7.32 23.66 -8 24 C-8 22.35 -8 20.7 -8 19 C-7.34 19 -6.68 19 -6 19 C-6.0825 18.154375 -6.165 17.30875 -6.25 16.4375 C-5.98558785 12.80183293 -4.94175368 10.80043405 -3.0234375 7.74609375 C-1.58643227 5.29440926 -0.79507431 2.71650388 0 0 Z " fill="#F6DD9E" transform="translate(107,189)"/>
<path d="M0 0 C0.66 0.33 1.32 0.66 2 1 C1.47792969 1.55945312 0.95585937 2.11890625 0.41796875 2.6953125 C-5.0685183 8.67183605 -10.12879628 14.86744348 -15.09375 21.27734375 C-17.0812218 23.83974335 -19.10328621 26.36868 -21.15625 28.87890625 C-26.67632008 35.63914585 -31.85494104 42.27346465 -36 50 C-33.77885534 50 -31.64121052 47.34663427 -30 46 C-29.34 46.33 -28.68 46.66 -28 47 C-29.26257233 48.17560179 -30.53537084 49.34022865 -31.8125 50.5 C-32.87404297 51.47453125 -32.87404297 51.47453125 -33.95703125 52.46875 C-36 54 -36 54 -39 54 C-37.50437965 43.76776809 -29.00313383 35.29960346 -22.71484375 27.44140625 C-20.24719805 24.34493964 -17.92175554 21.16337782 -15.625 17.9375 C-12.99058436 14.27176141 -10.28236378 11.11403743 -7 8 C-4.63191164 5.36326296 -2.3124196 2.68560547 0 0 Z " fill="#DBEEF5" transform="translate(209,38)"/>
<path d="M0 0 C0.33 0 0.66 0 1 0 C1.14099121 0.54414551 1.28198242 1.08829102 1.42724609 1.64892578 C2.0743739 4.14150734 2.72466167 6.63325425 3.375 9.125 C3.59671875 9.9809375 3.8184375 10.836875 4.046875 11.71875 C4.98393635 15.30163165 5.93499804 18.81377818 7.15625 22.3125 C8.00213641 25.00680487 8.21006684 27.06779441 8.125 29.875 C8.10695312 30.65617187 8.08890625 31.43734375 8.0703125 32.2421875 C8.04710937 32.82226562 8.02390625 33.40234375 8 34 C2.84646193 34.66111849 0.36010116 33.3003515 -3.61523438 30.33398438 C-4.25783203 29.83189453 -4.90042969 29.32980469 -5.5625 28.8125 C-6.53219727 28.08836914 -6.53219727 28.08836914 -7.52148438 27.34960938 C-11.31369514 24.4755534 -14.71909313 21.44463735 -18 18 C-14.3396263 19.30360677 -11.63307361 20.86368918 -8.625 23.3125 C-7.85027344 23.92996094 -7.07554687 24.54742187 -6.27734375 25.18359375 C-5.15005859 26.08271484 -5.15005859 26.08271484 -4 27 C-0.3775422 29.7859607 2.47328127 31.86832032 7 33 C6.67 30.03 6.34 27.06 6 24 C5.34 24 4.68 24 4 24 C3.67 21.69 3.34 19.38 3 17 C2.01 17 1.02 17 0 17 C0 11.39 0 5.78 0 0 Z " fill="#FDF1CA" transform="translate(156,136)"/>
<path d="M0 0 C0.99 0 1.98 0 3 0 C8.55580866 12.48519362 8.55580866 12.48519362 9 19 C8.34 18.34 7.68 17.68 7 17 C7 16.01 7 15.02 7 14 C6.01 13.67 5.02 13.34 4 13 C4 12.01 4 11.02 4 10 C-0.09026525 11.52393539 -1.69054657 12.3818128 -3.6796875 16.35546875 C-4.10083924 17.62550446 -4.49891387 18.9033977 -4.875 20.1875 C-5.08640625 20.84169922 -5.2978125 21.49589844 -5.515625 22.16992188 C-6.03066971 23.77358381 -6.51816037 25.38605043 -7 27 C-7.66 27 -8.32 27 -9 27 C-7.62291436 22.23391638 -6.24288561 17.49899783 -4.4375 12.875 C-3.37059358 10.13232433 -2.56129821 7.4246177 -1.875 4.5625 C-1 1 -1 1 0 0 Z " fill="#F5CD7B" transform="translate(132,75)"/>
<path d="M0 0 C2.375 -0.125 2.375 -0.125 5 0 C7 2 7 2 7 5.4375 C5.24423087 16.42585284 -4.19177295 29.19177295 -12 37 C-12.99 36.67 -13.98 36.34 -15 36 C-14.278125 35.484375 -13.55625 34.96875 -12.8125 34.4375 C-8.22495295 30.46162589 -4.9625515 26.73016335 -4.1875 20.5625 C-4.125625 19.386875 -4.06375 18.21125 -4 17 C-3.34 17 -2.68 17 -2 17 C-2 16.01 -2 15.02 -2 14 C-1.34 14 -0.68 14 0 14 C0.144375 13.38125 0.28875 12.7625 0.4375 12.125 C1 10 1 10 2 8 C2.66 8 3.32 8 4 8 C4 5.69 4 3.38 4 1 C2.68 0.67 1.36 0.34 0 0 Z " fill="#F7D78C" transform="translate(175,29)"/>
<path d="M0 0 C2.64 0 5.28 0 8 0 C7.34 1.32 6.68 2.64 6 4 C8.64 4.66 11.28 5.32 14 6 C14 6.66 14 7.32 14 8 C6.74 7.67 -0.52 7.34 -8 7 C-8 6.34 -8 5.68 -8 5 C-8.99 4.67 -9.98 4.34 -11 4 C-7.91111478 1.94074319 -7.29064073 1.7609626 -3.8125 1.875 C-1.9253125 1.936875 -1.9253125 1.936875 0 2 C0 1.34 0 0.68 0 0 Z " fill="#4D8EA8" transform="translate(218,127)"/>
<path d="M0 0 C1.32 0.66 2.64 1.32 4 2 C1.17108747 10.38131228 1.17108747 10.38131228 -3.3125 12.75 C-5.1378125 13.36875 -5.1378125 13.36875 -7 14 C-9.4384956 15.55133864 -11.69069244 17.25623715 -14 19 C-12.49187765 15.88994864 -10.8248297 12.91059056 -9.0625 9.9375 C-8.30646484 8.65166016 -8.30646484 8.65166016 -7.53515625 7.33984375 C-5.35648577 4.01917297 -3.31031379 2.20687586 0 0 Z " fill="#498FAC" transform="translate(185,72)"/>
<path d="M0 0 C0.99 0.33 1.98 0.66 3 1 C3.33 7.93 3.66 14.86 4 22 C3.01 22.33 2.02 22.66 1 23 C-2.25223129 19.74776871 -2.07454926 16.04513887 -2.1875 11.625 C-2.15223855 7.41478342 -1.3530064 3.9744563 0 0 Z " fill="#EE7B73" transform="translate(132,38)"/>
<path d="M0 0 C5.94 0.33 11.88 0.66 18 1 C17 5 17 5 16 6 C14.32899245 6.22839355 12.64947199 6.39514395 10.96875 6.53515625 C9.92976563 6.62216797 8.89078125 6.70917969 7.8203125 6.79882812 C6.17675781 6.9293457 6.17675781 6.9293457 4.5 7.0625 C3.43523438 7.15337891 2.37046875 7.24425781 1.2734375 7.33789062 C-4.84125768 7.83743268 -10.86550783 8.09665691 -17 8 C-17 7.67 -17 7.34 -17 7 C-16.40985107 6.91435791 -15.81970215 6.82871582 -15.21166992 6.74047852 C-12.53652607 6.35064401 -9.86201571 5.95661986 -7.1875 5.5625 C-6.25873047 5.42779297 -5.32996094 5.29308594 -4.37304688 5.15429688 C-3.48037109 5.02216797 -2.58769531 4.89003906 -1.66796875 4.75390625 C-0.43469849 4.57323608 -0.43469849 4.57323608 0.82348633 4.38891602 C3.16924057 4.02382108 3.16924057 4.02382108 6 3 C4.02 2.34 2.04 1.68 0 1 C0 0.67 0 0.34 0 0 Z " fill="#F4D78E" transform="translate(50,126)"/>
<path d="M0 0 C0.99 0.33 1.98 0.66 3 1 C4.69262664 5.380916 5.30153263 10.32624426 5 15 C5.66 15 6.32 15 7 15 C7 16.65 7 18.3 7 20 C5.68 20 4.36 20 3 20 C0.44688635 15.35797517 -0.82536644 11.11804621 -2 6 C-2.33 5.01 -2.66 4.02 -3 3 C-2.01 2.01 -1.02 1.02 0 0 Z " fill="#F8BA39" transform="translate(94,39)"/>
<path d="M0 0 C-0.4793247 4.31392226 -1.7457985 6.16569547 -5 9 C-3.125 4.25 -3.125 4.25 -2 2 C-7.09974947 3.34993368 -10.19497536 6.67197229 -13 11 C-13 11.99 -13 12.98 -13 14 C-13 14.66 -13 15.32 -13 16 C-13.99 16.33 -14.98 16.66 -16 17 C-16.66 16.67 -17.32 16.34 -18 16 C-20.64 17.98 -23.28 19.96 -26 22 C-26 21.01 -26 20.02 -26 19 C-25.01 18.67 -24.02 18.34 -23 18 C-21.79117904 15.99983534 -21.79117904 15.99983534 -21 14 C-20.34 14 -19.68 14 -19 14 C-18.34 12.68 -17.68 11.36 -17 10 C-16.34 10 -15.68 10 -15 10 C-15 9.34 -15 8.68 -15 8 C-13.5390625 6.4921875 -13.5390625 6.4921875 -11.625 4.875 C-10.68527344 4.06675781 -10.68527344 4.06675781 -9.7265625 3.2421875 C-8 2 -8 2 -6 2 C-6 1.34 -6 0.68 -6 0 C-3 -1 -3 -1 0 0 Z " fill="#F2B5B0" transform="translate(92,166)"/>
<path d="M0 0 C0 1.32 0 2.64 0 4 C-0.99 4 -1.98 4 -3 4 C-3 4.66 -3 5.32 -3 6 C-2.01 6.33 -1.02 6.66 0 7 C0 8.32 0 9.64 0 11 C-6.40096618 12.32850242 -6.40096618 12.32850242 -8.9375 10.9375 C-10.46880951 8.14511207 -10.39907251 6.12606798 -10 3 C-6.64781163 0.76520776 -4.01177204 0 0 0 Z " fill="#E2544C" transform="translate(58,202)"/>
<path d="M0 0 C0.33 0 0.66 0 1 0 C1 4.29 1 8.58 1 13 C0.34 13 -0.32 13 -1 13 C-1.02464775 18.53588533 -1.04283496 24.071739 -1.05493164 29.60766602 C-1.05997244 31.4924373 -1.06680498 33.37720465 -1.07543945 35.26196289 C-1.08751617 37.96501636 -1.09323068 40.66801831 -1.09765625 43.37109375 C-1.10281754 44.21900986 -1.10797882 45.06692596 -1.11329651 45.9405365 C-1.11349195 47.96071068 -1.06206211 49.98077934 -1 52 C0.96822886 53.96822886 4.34808709 53.66248381 7 54 C7 54.33 7 54.66 7 55 C-0.75 55.125 -0.75 55.125 -3 54 C-5.98939777 45.0318067 -3.77286417 33.65782994 -3.125 24.375 C-3.04636719 23.12976563 -2.96773438 21.88453125 -2.88671875 20.6015625 C-2.40613597 13.59244751 -1.6184674 6.84125175 0 0 Z " fill="#CDE2E9" transform="translate(130,189)"/>
<path d="M0 0 C4.24465971 0.27682563 6.81617671 1.18354094 10 4 C8.02 4.66 6.04 5.32 4 6 C6.40436026 9.60654039 7.94679607 9.85452932 12 11 C8.97133918 11.9507007 6.94969123 12.02159552 3.875 11.25 C3.19179688 11.09015625 2.50859375 10.9303125 1.8046875 10.765625 C0 10 0 10 -2 7 C-2.25 4.4375 -2.25 4.4375 -2 2 C-1.34 1.34 -0.68 0.68 0 0 Z " fill="#DA574F" transform="translate(18,81)"/>
<path d="M0 0 C1.98 0 3.96 0 6 0 C6 0.66 6 1.32 6 2 C6.66 2.103125 7.32 2.20625 8 2.3125 C11.83841009 3.19213564 15.33096691 4.56969896 19 6 C18.34 7.32 17.68 8.64 17 10 C14.5625 9.625 14.5625 9.625 12 9 C11.67 8.34 11.34 7.68 11 7 C8.88153715 6.31270746 8.88153715 6.31270746 6.4375 5.875 C5.61121094 5.70742187 4.78492188 5.53984375 3.93359375 5.3671875 C3.29550781 5.24601563 2.65742188 5.12484375 2 5 C2 4.34 2 3.68 2 3 C1.01 2.67 0.02 2.34 -1 2 C-0.67 1.34 -0.34 0.68 0 0 Z " fill="#FBB92F" transform="translate(202,157)"/>
<path d="M0 0 C1.32 0 2.64 0 4 0 C4 2.31 4 4.62 4 7 C3.34 7 2.68 7 2 7 C1.67 7.99 1.34 8.98 1 10 C0.67 10.99 0.34 11.98 0 13 C-0.66 13 -1.32 13 -2 13 C-2 13.99 -2 14.98 -2 16 C-2.66 16 -3.32 16 -4 16 C-4 17.98 -4 19.96 -4 22 C-4.66 21.67 -5.32 21.34 -6 21 C-6.19622241 16.78121808 -5.80230168 13.82989106 -4 10 C-3.34 10 -2.68 10 -2 10 C-2.04125 8.906875 -2.0825 7.81375 -2.125 6.6875 C-2 3 -2 3 0 0 Z " fill="#F8B931" transform="translate(175,30)"/>
<path d="M0 0 C1.98 0 3.96 0 6 0 C5.01 0.66 4.02 1.32 3 2 C2.67 2.99 2.34 3.98 2 5 C2.72316406 5.27199219 3.44632812 5.54398437 4.19140625 5.82421875 C11.33909649 8.81650632 20.30610631 13.46936061 24.375 20.3125 C24.684375 21.1478125 24.684375 21.1478125 25 22 C23.68 21.67 22.36 21.34 21 21 C21 20.34 21 19.68 21 19 C20.26394531 18.73703125 19.52789062 18.4740625 18.76953125 18.203125 C15.98765049 16.99463519 14.03379218 15.65448579 11.6875 13.75 C8.63557636 11.30743695 5.5702118 8.90092495 2.4375 6.5625 C1.44556641 5.82193359 1.44556641 5.82193359 0.43359375 5.06640625 C-0.03949219 4.71449219 -0.51257813 4.36257812 -1 4 C-0.67 2.68 -0.34 1.36 0 0 Z " fill="#F8E7B7" transform="translate(85,111)"/>
<path d="M0 0 C2.5 0.8125 2.5 0.8125 5.5 2.8125 C5.17 6.1125 4.84 9.4125 4.5 12.8125 C4.17 12.1525 3.84 11.4925 3.5 10.8125 C2.51 10.8125 1.52 10.8125 0.5 10.8125 C0.17 9.8225 -0.16 8.8325 -0.5 7.8125 C-1.49 7.8125 -2.48 7.8125 -3.5 7.8125 C-3.5 6.4925 -3.5 5.1725 -3.5 3.8125 C-4.16 3.4825 -4.82 3.1525 -5.5 2.8125 C-3.6713864 0.40642948 -3.1013698 -0.23260274 0 0 Z " fill="#E05B53" transform="translate(133.5,3.1875)"/>
<path d="M0 0 C3.27034459 -0.36337162 4.60883753 -0.28544288 7.3125 1.6875 C9.28544288 4.39116247 9.36337162 5.72965541 9 9 C6.36 9.33 3.72 9.66 1 10 C1.33 9.34 1.66 8.68 2 8 C1.484375 7.608125 0.96875 7.21625 0.4375 6.8125 C-0.036875 6.214375 -0.51125 5.61625 -1 5 C-0.6875 2.3125 -0.6875 2.3125 0 0 Z " fill="#EA574E" transform="translate(205,207)"/>
<path d="M0 0 C1.7265625 2.1875 1.7265625 2.1875 3.625 5 C4.25664063 5.928125 4.88828125 6.85625 5.5390625 7.8125 C6.26222656 8.8953125 6.26222656 8.8953125 7 10 C6.67 10.66 6.34 11.32 6 12 C5.01 12 4.02 12 3 12 C3 11.34 3 10.68 3 10 C2.29875 9.7525 1.5975 9.505 0.875 9.25 C-2.39514548 7.82819762 -5.141122 6.12753712 -8 4 C-8 3.34 -8 2.68 -8 2 C-2.25 0 -2.25 0 0 0 Z " fill="#A8CDD9" transform="translate(86,79)"/>
<path d="M0 0 C0.99 0.33 1.98 0.66 3 1 C-15.43852279 15.28215524 -15.43852279 15.28215524 -23 20 C-21.63016497 16.83884224 -21.0109362 16.0072908 -18 14 C-17.855625 13.34 -17.71125 12.68 -17.5625 12 C-17 10 -17 10 -14.9375 8.75 C-14.298125 8.5025 -13.65875 8.255 -13 8 C-13.33 7.34 -13.66 6.68 -14 6 C-12.7625 6.185625 -12.7625 6.185625 -11.5 6.375 C-7.0463111 5.89781905 -5.14068566 4.09278575 -1.83203125 1.21484375 C-1.22746094 0.81394531 -0.62289062 0.41304688 0 0 Z " fill="#F8DE9D" transform="translate(178,116)"/>
<path d="M0 0 C0.66 0.33 1.32 0.66 2 1 C-0.58954148 3.61794596 -3.19332077 6.17923262 -5.89453125 8.68359375 C-6.86726079 9.60148484 -7.83991664 10.51945402 -8.8125 11.4375 C-9.31458984 11.88931641 -9.81667969 12.34113281 -10.33398438 12.80664062 C-12.90228762 15.27011517 -13.95189267 16.65488222 -14.44921875 20.22265625 C-14.25629824 23.13378979 -14.25629824 23.13378979 -12 25 C-10.0068433 25.02375926 -10.0068433 25.02375926 -7.875 24.625 C-6.59625 24.41875 -5.3175 24.2125 -4 24 C-4 24.66 -4 25.32 -4 26 C-7.12860495 27.56430248 -9.55602925 27.35627284 -13 27 C-15.5 24.875 -15.5 24.875 -17 22 C-17.12351433 18.64041018 -16.51710615 16.64586606 -14.41162109 14.01611328 C-12.31059878 11.81808143 -10.14800703 9.71280595 -7.9375 7.625 C-7.17888672 6.88894531 -6.42027344 6.15289062 -5.63867188 5.39453125 C-3.7699074 3.58453295 -1.89049188 1.78724707 0 0 Z " fill="#FADED9" transform="translate(63,188)"/>
<path d="M0 0 C0.66 0 1.32 0 2 0 C3.18005182 3.68766192 3.20993972 7.15110517 3 11 C2.01 12.485 2.01 12.485 1 14 C-0.32 13.67 -1.64 13.34 -3 13 C-3.38281159 7.76824163 -2.21854707 4.62197306 0 0 Z " fill="#F1B93C" transform="translate(96,213)"/>
<path d="M0 0 C3.63 0.33 7.26 0.66 11 1 C11.33 1.99 11.66 2.98 12 4 C13.65 4.33 15.3 4.66 17 5 C17 5.66 17 6.32 17 7 C19.31 8.32 21.62 9.64 24 11 C21 12 21 12 17.5625 10.4375 C16.8715625 10.06753906 16.180625 9.69757813 15.46875 9.31640625 C11.52089316 7.21129904 7.4696038 5.31322536 3.44140625 3.3671875 C1 2 1 2 0 0 Z " fill="#F5D480" transform="translate(203,162)"/>
<path d="M0 0 C3.44095737 0.73734801 6.51826518 1.99355895 9.75 3.375 C14.46420694 5.36813896 19.19309883 7.24363226 24 9 C21.23143429 10.09285489 20.07407391 10.02445058 17.1953125 9.07421875 C16.18210938 8.61660156 15.16890625 8.15898437 14.125 7.6875 C10.12726107 5.90334285 6.17398635 4.32695387 2 3 C3.32 4.65 4.64 6.3 6 8 C3.11562221 6.70700306 1.12780579 5.34058637 -1 3 C-0.67 2.01 -0.34 1.02 0 0 Z " fill="#FCF1CB" transform="translate(184,146)"/>
<path d="M0 0 C3.23238414 0.07696153 5.33227795 0.37438655 7.734375 2.625 C9.21851673 4.37770071 10.63844334 6.15079362 12 8 C12.7425 7.236875 13.485 6.47375 14.25 5.6875 C18.70794824 1.33086876 18.70794824 1.33086876 21 0 C23.25 0.3125 23.25 0.3125 25 1 C24.0925 1.391875 23.185 1.78375 22.25 2.1875 C17.59244951 4.78498008 15.14323323 8.17772523 13 13 C12.01 12.67 11.02 12.34 10 12 C9.525625 10.88625 9.05125 9.7725 8.5625 8.625 C7.00604141 5.01401607 6.26631146 3.93937243 3 2 C2.01 1.34 1.02 0.68 0 0 Z " fill="#FCE2DF" transform="translate(199,99)"/>
<path d="M0 0 C3.625 -0.1875 3.625 -0.1875 7 0 C7.33 0.66 7.66 1.32 8 2 C6.02 2.66 4.04 3.32 2 4 C1.79913557 7.71599191 1.8480563 8.77208445 4 12 C1.5625 11.625 1.5625 11.625 -1 11 C-2.38550197 8.22899606 -2.1877467 6.0665294 -2 3 C-1.34 2.01 -0.68 1.02 0 0 Z " fill="#81A8B6" transform="translate(43,43)"/>
<path d="M0 0 C1.32 0.66 2.64 1.32 4 2 C4.125 4.875 4.125 4.875 4 8 C2 10 2 10 -0.5625 10.1875 C-3 10 -3 10 -4 9 C-4.04080783 7.00041636 -4.04254356 4.99954746 -4 3 C-2.68 3.99 -1.36 4.98 0 6 C0 4.02 0 2.04 0 0 Z " fill="#E39D99" transform="translate(167,213)"/>
<path d="M0 0 C2.4375 0.75 2.4375 0.75 5 2 C5.33333333 3.33333333 5.66666667 4.66666667 6 6 C8.39068734 7.10636395 8.39068734 7.10636395 11 8 C12.8125 9.625 12.8125 9.625 14 11 C13.67 11.99 13.34 12.98 13 14 C11.125 13.3125 11.125 13.3125 9 12 C8.67 11.154375 8.34 10.30875 8 9.4375 C7.67 8.633125 7.34 7.82875 7 7 C5.05396726 6.40929986 5.05396726 6.40929986 3 6 C0 2.67857143 0 2.67857143 0 0 Z " fill="#EE554E" transform="translate(176,178)"/>
<path d="M0 0 C0.33 0 0.66 0 1 0 C3.54824033 7.99730769 4.61387352 15.62504986 5 24 C3 22 3 22 2.875 19.375 C2.91625 18.59125 2.9575 17.8075 3 17 C2.01 17 1.02 17 0 17 C0 11.39 0 5.78 0 0 Z " fill="#F3D487" transform="translate(156,136)"/>
<path d="M0 0 C0.87785156 -0.01675781 1.75570312 -0.03351563 2.66015625 -0.05078125 C3.41167969 0.06910156 4.16320312 0.18898437 4.9375 0.3125 C5.5975 1.3025 6.2575 2.2925 6.9375 3.3125 C5.20776886 5.04223114 2.91233037 4.48458117 0.5625 4.5 C-0.41460937 4.51417969 -1.39171875 4.52835938 -2.3984375 4.54296875 C-5.0625 4.3125 -5.0625 4.3125 -8.0625 2.3125 C-4.83214467 0.15892978 -3.75116542 0.01657363 0 0 Z " fill="#3680A1" transform="translate(215.0625,128.6875)"/>
<path d="M0 0 C0 0.66 0 1.32 0 2 C0.99 2.33 1.98 2.66 3 3 C2.34 3.66 1.68 4.32 1 5 C0.67 4.67 0.34 4.34 0 4 C-2.85877909 3.76298761 -5.69883297 3.57780818 -8.5625 3.4375 C-9.36880859 3.39431641 -10.17511719 3.35113281 -11.00585938 3.30664062 C-13.00368805 3.20024738 -15.0018207 3.09959112 -17 3 C-17 2.34 -17 1.68 -17 1 C-5.47835991 -0.14806378 -5.47835991 -0.14806378 0 0 Z " fill="#8DB3C3" transform="translate(254,122)"/>
<path d="M0 0 C2.97 0.495 2.97 0.495 6 1 C6 1.66 6 2.32 6 3 C4.2614204 4.42168132 2.45776019 5.76449118 0.625 7.0625 C-0.37273437 7.77535156 -1.37046875 8.48820312 -2.3984375 9.22265625 C-5 11 -5 11 -7 12 C-5.61735163 9.13132769 -4.07851447 6.43975968 -2.375 3.75 C-1.92898437 3.04359375 -1.48296875 2.3371875 -1.0234375 1.609375 C-0.68570313 1.07828125 -0.34796875 0.5471875 0 0 Z " fill="#387E9C" transform="translate(178,79)"/>
<path d="M0 0 C2.35119399 3.52679099 2.21443452 5.02879485 2.125 9.1875 C2.10695312 10.27417969 2.08890625 11.36085937 2.0703125 12.48046875 C2.03550781 13.72763672 2.03550781 13.72763672 2 15 C1.34 14.34 0.68 13.68 0 13 C-0.33 14.65 -0.66 16.3 -1 18 C-1.33 18 -1.66 18 -2 18 C-2.20852314 11.59370576 -2.1583195 6.07027358 0 0 Z " fill="#387995" transform="translate(133,182)"/>
<path d="M0 0 C3.48539917 0.64544429 6.02819057 2.10134397 9 4 C8.67 4.66 8.34 5.32 8 6 C6.57107422 5.69255859 6.57107422 5.69255859 5.11328125 5.37890625 C3.85902344 5.10949219 2.60476562 4.84007813 1.3125 4.5625 C0.07113281 4.29566406 -1.17023437 4.02882813 -2.44921875 3.75390625 C-5.29612015 3.14944864 -8.14455626 2.56235316 -11 2 C-11 1.67 -11 1.34 -11 1 C-7.37 1 -3.74 1 0 1 C0 0.67 0 0.34 0 0 Z " fill="#D8615A" transform="translate(58,97)"/>
<path d="M0 0 C1.62610337 4.22786875 0.65453403 5.03639791 -1 10 C-10.57 9.67 -20.14 9.34 -30 9 C-30 8.67 -30 8.34 -30 8 C-20.76 8 -11.52 8 -2 8 C-1.67 6.35 -1.34 4.7 -1 3 C-0.67 2.01 -0.34 1.02 0 0 Z " fill="#F0BD4D" transform="translate(122,102)"/>
<path d="M0 0 C0.66 0.33 1.32 0.66 2 1 C2.625 3.5625 2.625 3.5625 3 6 C1.35 6.66 -0.3 7.32 -2 8 C-1.34 5.36 -0.68 2.72 0 0 Z M-4 8 C-3.34 8 -2.68 8 -2 8 C0.39763185 10.39763185 0.34280586 11.33273498 0.625 14.625 C0.69976562 15.44226562 0.77453125 16.25953125 0.8515625 17.1015625 C0.92503906 18.04128906 0.92503906 18.04128906 1 19 C-2 17 -2 17 -2.73046875 14.8359375 C-2.88128906 14.02382813 -3.03210938 13.21171875 -3.1875 12.375 C-3.34605469 11.55773438 -3.50460938 10.74046875 -3.66796875 9.8984375 C-3.77753906 9.27195313 -3.88710937 8.64546875 -4 8 Z " fill="#F2B73F" transform="translate(93,34)"/>
<path d="M0 0 C0.99 0.66 1.98 1.32 3 2 C4.32 1.34 5.64 0.68 7 0 C6.34 1.32 5.68 2.64 5 4 C4.34 4 3.68 4 3 4 C2.67 5.98 2.34 7.96 2 10 C1.01 10 0.02 10 -1 10 C-2.25 3.375 -2.25 3.375 0 0 Z " fill="#75A8BD" transform="translate(53,165)"/>
<path d="M0 0 C2 2 2 2 2.125 5.625 C2.08375 6.73875 2.0425 7.8525 2 9 C-2.31392226 8.5206753 -4.16569547 7.2542015 -7 4 C-5.68 4.33 -4.36 4.66 -3 5 C-3 4.01 -3 3.02 -3 2 C-2.34 2 -1.68 2 -1 2 C-0.67 1.34 -0.34 0.68 0 0 Z " fill="#EEB73F" transform="translate(161,160)"/>
<path d="M0 0 C5.75 1.75 5.75 1.75 8 4 C7.45730469 4.26554688 6.91460937 4.53109375 6.35546875 4.8046875 C5.64003906 5.15789062 4.92460938 5.51109375 4.1875 5.875 C3.47980469 6.22304687 2.77210937 6.57109375 2.04296875 6.9296875 C-0.21246418 8.0656486 -0.21246418 8.0656486 -3 10 C-2.01 6.7 -1.02 3.4 0 0 Z " fill="#347D95" transform="translate(58,158)"/>
<path d="M0 0 C1.46067199 0.45082469 2.91848032 0.91093537 4.375 1.375 C5.18710938 1.63023437 5.99921875 1.88546875 6.8359375 2.1484375 C9 3 9 3 11 5 C10.34 5 9.68 5 9 5 C9.66 6.65 10.32 8.3 11 10 C5.36310966 8.67367286 3.06814317 4.53368235 0 0 Z " fill="#EFC971" transform="translate(185,148)"/>
<path d="M0 0 C0.66 0 1.32 0 2 0 C1.58997722 14.78132118 1.58997722 14.78132118 -3 21 C-4.6064023 16.96883952 -3.31533074 13.94908934 -2.0625 9.9375 C-0.49228469 5.05036899 -0.49228469 5.05036899 0 0 Z " fill="#F9DFA5" transform="translate(110,133)"/>
<path d="M0 0 C9.59453303 1.74259681 9.59453303 1.74259681 13 5 C12.01 5.495 12.01 5.495 11 6 C11.66 6.66 12.32 7.32 13 8 C12.67 8.66 12.34 9.32 12 10 C10.02 10 8.04 10 6 10 C6.66 8.02 7.32 6.04 8 4 C5.36 3.01 2.72 2.02 0 1 C0 0.67 0 0.34 0 0 Z " fill="#D85148" transform="translate(29,85)"/>
<path d="M0 0 C0.66 0.33 1.32 0.66 2 1 C2 3.97 2 6.94 2 10 C0.68 9.34 -0.64 8.68 -2 8 C-2 7.34 -2 6.68 -2 6 C-2.66 6 -3.32 6 -4 6 C-3.67 4.35 -3.34 2.7 -3 1 C-2.01 0.67 -1.02 0.34 0 0 Z " fill="#E3544D" transform="translate(166,210)"/>
<path d="M0 0 C1.231394 2.46278801 1.07159196 4.2795055 1 7 C0.175 7 -0.65 7 -1.5 7 C-6.68876457 8.48250416 -9.46517835 12.06145507 -13 16 C-13.66 15.67 -14.32 15.34 -15 15 C-10 10 -5 5 0 0 Z " fill="#D05750" transform="translate(66,187)"/>
<path d="M0 0 C0.99 0.33 1.98 0.66 3 1 C1.02 3.97 1.02 3.97 -1 7 C-1.33 6.01 -1.66 5.02 -2 4 C-3.98 5.98 -5.96 7.96 -8 10 C-8.66 9.67 -9.32 9.34 -10 9 C-8.89902432 7.87187697 -7.79408444 6.74762189 -6.6875 5.625 C-6.07261719 4.99851563 -5.45773438 4.37203125 -4.82421875 3.7265625 C-3 2 -3 2 0 0 Z " fill="#C9534D" transform="translate(88,167)"/>
<path d="M0 0 C2.25 -0.25 2.25 -0.25 5 0 C7.3125 1.875 7.3125 1.875 9 4 C9 4.66 9 5.32 9 6 C5.21213403 5.4739075 2.82847776 4.61896089 0 2 C0 1.34 0 0.68 0 0 Z " fill="#3A809B" transform="translate(73,75)"/>
<path d="M0 0 C1.32 0.33 2.64 0.66 4 1 C4 1.66 4 2.32 4 3 C4.66 3 5.32 3 6 3 C6.0825 3.5775 6.165 4.155 6.25 4.75 C7.20531013 7.6159304 8.78469173 8.9990764 11 11 C7.20450741 10.45418801 5.69020705 8.94590705 3.25 6.0625 C2.63640625 5.35222656 2.0228125 4.64195313 1.390625 3.91015625 C0 2 0 2 0 0 Z " fill="#337E99" transform="translate(44,50)"/>
<path d="M0 0 C1.5625 1.25 1.5625 1.25 3 3 C2.6875 5.1875 2.6875 5.1875 2 7 C-0.86724686 6.42655063 -1.8614515 6.1385485 -4 4 C-3.67 3.01 -3.34 2.02 -3 1 C-2.34 1 -1.68 1 -1 1 C-0.67 0.67 -0.34 0.34 0 0 Z " fill="#EC5552" transform="translate(194,193)"/>
<path d="M0 0 C5.40445384 1.63771328 10.4596461 5.19845018 13.20703125 10.1953125 C13.46871094 10.79085937 13.73039062 11.38640625 14 12 C12.68 11.67 11.36 11.34 10 11 C10 10.34 10 9.68 10 9 C9.34 9 8.68 9 8 9 C6.63360658 7.3603279 5.3050581 5.68889872 4 4 C2.68505488 2.64852862 1.35735142 1.30887458 0 0 Z " fill="#F1CC7C" transform="translate(96,121)"/>
<path d="M0 0 C0.99 0.66 1.98 1.32 3 2 C2.6875 4.875 2.6875 4.875 2 8 C-1 10 -1 10 -4.1875 9.625 C-5.5796875 9.315625 -5.5796875 9.315625 -7 9 C-7 8.67 -7 8.34 -7 8 C-4.36 7.67 -1.72 7.34 1 7 C0.67 4.69 0.34 2.38 0 0 Z " fill="#D05653" transform="translate(213,209)"/>
<path d="M0 0 C4 2 4 2 4.75 4.125 C4.8325 4.74375 4.915 5.3625 5 6 C4.34 5.67 3.68 5.34 3 5 C3 6.65 3 8.3 3 10 C2.34 10 1.68 10 1 10 C0.67 6.7 0.34 3.4 0 0 Z " fill="#CB5351" transform="translate(159,199)"/>
<path d="M0 0 C0.66 0.33 1.32 0.66 2 1 C1.67 1.66 1.34 2.32 1 3 C2.98 4.32 4.96 5.64 7 7 C6.67 7.99 6.34 8.98 6 10 C5.0925 9.236875 4.185 8.47375 3.25 7.6875 C0.885444 5.71516893 -1.51305942 3.81737966 -4 2 C-2.125 0.9375 -2.125 0.9375 0 0 Z " fill="#38758F" transform="translate(44,159)"/>
<path d="M0 0 C0.99 0.33 1.98 0.66 3 1 C3.33 1.99 3.66 2.98 4 4 C2.68 4 1.36 4 0 4 C2.475 6.97 2.475 6.97 5 10 C2.15576074 9.10181918 0.40333211 8.52608536 -1.4375 6.125 C-2 4 -2 4 -1.125 1.75 C-0.75375 1.1725 -0.3825 0.595 0 0 Z " fill="#82B4CB" transform="translate(73,71)"/>
<path d="M0 0 C0.66 0 1.32 0 2 0 C3.7265625 2.1875 3.7265625 2.1875 5.625 5 C6.25664063 5.928125 6.88828125 6.85625 7.5390625 7.8125 C8.26222656 8.8953125 8.26222656 8.8953125 9 10 C8.67 10.66 8.34 11.32 8 12 C7.01 12 6.02 12 5 12 C5 10.68 5 9.36 5 8 C3.94070918 6.32164022 3.94070918 6.32164022 2.5 4.875 C0 2 0 2 0 0 Z " fill="#DEECF2" transform="translate(84,79)"/>
<path d="M0 0 C0.99 0 1.98 0 3 0 C3 0.66 3 1.32 3 2 C4.65 1.67 6.3 1.34 8 1 C7.67 2.32 7.34 3.64 7 5 C5.68 5.33 4.36 5.66 3 6 C2.67 5.01 2.34 4.02 2 3 C1.34 2.67 0.68 2.34 0 2 C0 1.34 0 0.68 0 0 Z " fill="#E68C83" transform="translate(55,206)"/>
<path d="M0 0 C5.15464734 0.48324819 8.81550319 3.18610761 13 6 C10 7 10 7 7.51953125 5.8203125 C6.62621094 5.26085937 5.73289063 4.70140625 4.8125 4.125 C3.91144531 3.57070312 3.01039063 3.01640625 2.08203125 2.4453125 C1.39496094 1.96835938 0.70789063 1.49140625 0 1 C0 0.67 0 0.34 0 0 Z " fill="#FAF1C4" transform="translate(203,162)"/>
<path d="M0 0 C1.98 0.66 3.96 1.32 6 2 C6 2.99 6 3.98 6 5 C3.6568787 4.74438677 1.32156597 4.40729228 -1 4 C-1.33 3.34 -1.66 2.68 -2 2 C-1.34 1.34 -0.68 0.68 0 0 Z " fill="#C95850" transform="translate(60,98)"/>
<path d="M0 0 C0.66 0 1.32 0 2 0 C2.66 1.98 3.32 3.96 4 6 C2.02 6 0.04 6 -2 6 C-1.34 4.02 -0.68 2.04 0 0 Z " fill="#EFB54A" transform="translate(132,77)"/>
<path d="M0 0 C0.66 0.33 1.32 0.66 2 1 C2.25 3.3125 2.25 3.3125 2 6 C0 7.8125 0 7.8125 -2 9 C-2 7.35 -2 5.7 -2 4 C-1.34 4 -0.68 4 0 4 C0 2.68 0 1.36 0 0 Z " fill="#FBBB2E" transform="translate(101,204)"/>
<path d="M0 0 C0.33 0.66 0.66 1.32 1 2 C-0.22934015 5.68802044 -1.93859378 6.72356973 -5 9 C-5.66 8.67 -6.32 8.34 -7 8 C-4.69 5.36 -2.38 2.72 0 0 Z " fill="#317B92" transform="translate(200,51)"/>
<path d="M0 0 C1.32 0.66 2.64 1.32 4 2 C1.36 3.98 -1.28 5.96 -4 8 C-2.66666667 5.33333333 -1.33333333 2.66666667 0 0 Z " fill="#3E708A" transform="translate(175,83)"/>
<path d="M0 0 C1.85776765 3.13498292 2.20140476 5.37471432 2 9 C-1 7 -1 7 -1.6875 3.875 C-1.790625 2.92625 -1.89375 1.9775 -2 1 C-1.34 0.67 -0.68 0.34 0 0 Z " fill="#F1D578" transform="translate(92,44)"/>
<path d="M0 0 C0.66 0.33 1.32 0.66 2 1 C1.34 3.64 0.68 6.28 0 9 C-0.33 8.34 -0.66 7.68 -1 7 C-1.66 6.67 -2.32 6.34 -3 6 C-2.01 4.02 -1.02 2.04 0 0 Z " fill="#E8BA54" transform="translate(107,191)"/>
<path d="M0 0 C0.66 0.33 1.32 0.66 2 1 C-2.625 6.875 -2.625 6.875 -6 8 C-5.34 6.68 -4.68 5.36 -4 4 C-3.34 4 -2.68 4 -2 4 C-1.34 2.68 -0.68 1.36 0 0 Z " fill="#FDDEDD" transform="translate(71,180)"/>
<path d="M0 0 C2.475 0.99 2.475 0.99 5 2 C5 5 5 5 4 7 C0 2.25 0 2.25 0 0 Z " fill="#CA5750" transform="translate(176,178)"/>
<path d="M0 0 C2.64752004 2.57784846 4.94432065 4.91648098 7 8 C3.63408134 6.55746343 1.48952921 4.66735273 -1 2 C-0.67 1.34 -0.34 0.68 0 0 Z " fill="#3C7185" transform="translate(84,81)"/>
<path d="M0 0 C2.44839588 3.67259383 4 6.54648201 4 11 C3.34 11 2.68 11 2 11 C0.19769832 7.17010894 -0.19622241 4.21878192 0 0 Z " fill="#C6564D" transform="translate(131,48)"/>
<path d="M0 0 C0 1.32 0 2.64 0 4 C-0.5775 3.79375 -1.155 3.5875 -1.75 3.375 C-4.51967567 2.91338739 -5.64561267 3.57055055 -8 5 C-3.375 0 -3.375 0 0 0 Z " fill="#407F9D" transform="translate(217,36)"/>
<path d="M0 0 C0.99 0 1.98 0 3 0 C3 1.98 3 3.96 3 6 C2.01 6 1.02 6 0 6 C0 4.02 0 2.04 0 0 Z " fill="#F5BA3C" transform="translate(103,198)"/>
<path d="M0 0 C0.66 0.33 1.32 0.66 2 1 C1.34 3.31 0.68 5.62 0 8 C-0.99 7.34 -1.98 6.68 -3 6 C-3 3 -3 3 -1.5 1.3125 C-0.7575 0.6628125 -0.7575 0.6628125 0 0 Z " fill="#FABA2A" transform="translate(94,39)"/>
<path d="M0 0 C0.66 0 1.32 0 2 0 C2.66 2.31 3.32 4.62 4 7 C3.01 6.67 2.02 6.34 1 6 C-0.1875 3.4375 -0.1875 3.4375 -1 1 C-0.67 0.67 -0.34 0.34 0 0 Z " fill="#ECB53E" transform="translate(101,60)"/>
</svg>
