<?xml version="1.0" encoding="UTF-8"?>
<svg version="1.1" xmlns="http://www.w3.org/2000/svg" width="296" height="155">
<path d="M0 0 C0.63164062 0.41378906 1.26328125 0.82757813 1.9140625 1.25390625 C2.60757813 1.67800781 3.30109375 2.10210938 4.015625 2.5390625 C10.75254655 7.06819141 15.83960087 13.97514498 18.4453125 21.69921875 C20.70429404 34.01066815 19.53628447 46.19081948 12.4765625 56.62890625 C10.64902358 59.13921698 8.98167314 61.19542594 6.62890625 63.23046875 C4.63113242 65.12959019 4.63113242 65.12959019 4.9921875 67.75 C5.93997002 70.32427372 7.02572031 72.12491244 8.6640625 74.31640625 C17.48909115 87.01168843 19.07417766 100.21777685 17.9140625 115.25390625 C16.15667194 124.40080652 11.04375172 131.2301065 4.4765625 137.62890625 C-3.16728168 142.47622207 -11.79868599 144.03407615 -20.76171875 142.921875 C-28.78204642 140.98851452 -34.79632503 135.97452652 -39.0859375 129.00390625 C-42.35010622 120.02744228 -42.0626594 110.95393768 -38.0859375 102.25390625 C-34.33238215 94.4175363 -28.86436757 88.54885914 -22.9453125 82.328125 C-19.66186974 78.85475761 -16.84180152 75.15804695 -14.0859375 71.25390625 C-15.5709375 70.49207031 -15.5709375 70.49207031 -17.0859375 69.71484375 C-30.2354565 62.89281268 -41.01636011 56.34816529 -47.0859375 42.25390625 C-47.4984375 41.34640625 -47.9109375 40.43890625 -48.3359375 39.50390625 C-50.28036091 31.07807146 -49.75987975 22.13032279 -46.0859375 14.25390625 C-36.50917793 -0.76150691 -16.80971637 -9.3134915 0 0 Z " fill="#EA5A47" transform="translate(159.0859375,7.74609375)"/>
<path d="M0 0 C0.63164062 0.41378906 1.26328125 0.82757813 1.9140625 1.25390625 C2.60757813 1.67800781 3.30109375 2.10210938 4.015625 2.5390625 C10.75254655 7.06819141 15.83960087 13.97514498 18.4453125 21.69921875 C20.70429404 34.01066815 19.53628447 46.19081948 12.4765625 56.62890625 C10.18513029 59.77642164 7.81378455 62.64594268 4.9140625 65.25390625 C4.2540625 65.25390625 3.5940625 65.25390625 2.9140625 65.25390625 C2.5634375 64.09890625 2.2128125 62.94390625 1.8515625 61.75390625 C-1.64436883 52.73725079 -8.38765994 48.19780323 -16.23852539 43.18725586 C-25.15067845 37.41680498 -37.24657405 28.90151918 -40.0859375 18.25390625 C-40.62706509 14.7860348 -40.82623989 11.70128453 -40.0859375 8.25390625 C-38.09051807 5.69294013 -35.74047147 4.07854309 -33.0859375 2.25390625 C-32.63863281 1.74730469 -32.19132812 1.24070312 -31.73046875 0.71875 C-24.54394378 -5.68254897 -7.91343609 -4.38447135 0 0 Z " fill="#3A7A98" transform="translate(159.0859375,7.74609375)"/>
<path d="M0 0 C6.53042473 -0.41948909 10.65675021 1.63344737 16 5.23046875 C16.886875 5.80796875 17.77375 6.38546875 18.6875 6.98046875 C25.91645259 14.01404424 30.03207791 22.29281085 30.35058594 32.34936523 C30.42880601 39.57768177 30.17301477 46.57878183 27 53.23046875 C26.34 53.89046875 25.68 54.55046875 25 55.23046875 C24.81566406 54.54082031 24.63132813 53.85117187 24.44140625 53.140625 C20.89635665 41.65466431 13.31703777 35.99949542 3.78515625 29.26953125 C-10.63830726 18.7098567 -10.63830726 18.7098567 -12.46875 10 C-12.5 8.04296875 -12.5 8.04296875 -12 4.23046875 C-8.39938662 1.04135404 -4.63898128 0.53457011 0 0 Z " fill="#AF4540" transform="translate(148,5.76953125)"/>
<path d="M0 0 C3.79951706 1.49266742 5.8354862 3.55281135 8 7 C7.8400017 12.06661276 4.80734555 15.25301725 1.8125 19.0625 C-5.0324403 28.05161176 -12.29681966 38.17211035 -11 50 C-9.65059348 53.31217963 -8.5207227 55.4792773 -6 58 C-3.34462628 58.56520003 -0.70855287 58.73788198 2 59 C-3.85084032 62.90056021 -10.29234008 63.42796908 -17.27734375 62.79296875 C-19.125 62.375 -19.125 62.375 -22 61 C-23.25 58.75 -23.25 58.75 -24 56 C-24.53625 55.154375 -25.0725 54.30875 -25.625 53.4375 C-28.24892034 46.87769915 -27.91614655 39.71876936 -25.625 33.0625 C-21.01268474 22.92839887 -12.66170506 14.38047169 -5.12890625 6.33984375 C-3.27383834 4.30097095 -1.60649908 2.23670129 0 0 Z " fill="#F8BF42" transform="translate(156,88)"/>
<path d="M0 0 C3.85829052 1.33044501 6.42259618 3.90711541 9 7 C8.77408427 10.93260719 6.32944555 13.33794596 3.875 16.25 C3.06160156 17.22195312 2.24820313 18.19390625 1.41015625 19.1953125 C-0.5966908 21.53067098 -2.63086746 23.83371811 -4.6875 26.125 C-12.64063228 35.16684413 -17.68705354 43.68599491 -17.4375 55.9453125 C-16.73322541 60.86265833 -14.59172504 64.81621529 -12 69 C-17.86185321 68.21365384 -21.0333423 65.19897822 -25 61 C-29.39431523 53.77064269 -30.15085231 45.91030935 -28.5390625 37.6328125 C-25.05375877 26.11080839 -17.47891426 17.92777897 -9.35644531 9.44189453 C-7.62547226 7.6018789 -5.99240801 5.69009286 -4.375 3.75 C-2 1 -2 1 0 0 Z " fill="#458BA8" transform="translate(147,79)"/>
<path d="M0 0 C0.66 0.33 1.32 0.66 2 1 C0 3 0 3 -2.625 4.5 C-5.30439079 7.32041136 -5.419201 8.01276206 -5.5625 11.75 C-5.04192305 20.63885136 -0.77904086 25.83707539 5.515625 31.84375 C9.44551685 35.25459953 13.675891 38.11726067 18 41 C34.78894412 52.43963917 34.78894412 52.43963917 37.5 60.75 C37.96802272 63.79214768 37.84110652 65.15508088 37 68 C36.40936768 67.56212158 35.81873535 67.12424316 35.21020508 66.6730957 C28.96804416 62.15996404 22.5835551 58.59044774 15.6875 55.1875 C-5.59653831 44.39174381 -5.59653831 44.39174381 -12 35 C-12.66 35.99 -13.32 36.98 -14 38 C-16.65301113 30.04096662 -15.5160938 20.53801163 -12 13 C-8.72720409 7.86857926 -5.02228458 3.50038016 0 0 Z " fill="#F4AC3F" transform="translate(125,9)"/>
<path d="M0 0 C0.70382813 0.73089844 1.40765625 1.46179687 2.1328125 2.21484375 C10.5218332 10.3638516 20.34045143 15.86553401 30.6875 21.125 C46.75447618 29.31823944 55.97942307 36.23410014 63.1171875 53.203125 C63.99494809 55.98399484 64.17950157 58.10685705 64 61 C61.2289312 58.65408148 60.47940716 56.85223799 59.8125 53.3125 C59.65394531 52.50425781 59.49539062 51.69601563 59.33203125 50.86328125 C59.22246094 50.24839844 59.11289063 49.63351563 59 49 C57.35 48.67 55.7 48.34 54 48 C54 49.32 54 50.64 54 52 C50.97484531 51.67587628 50.08758661 51.10171348 48.0625 48.75 C47.381875 47.8425 46.70125 46.935 46 46 C44.3540349 44.31288577 42.68762851 42.6454378 41 41 C40.319375 40.2575 39.63875 39.515 38.9375 38.75 C37.21276987 36.90530919 37.21276987 36.90530919 35.33203125 36.62109375 C22.8286332 33.29104301 9.65396254 23.88479828 2.7421875 13.0234375 C0.23353632 8.47979656 -0.43033482 5.16401785 0 0 Z " fill="#E75F51" transform="translate(112,43)"/>
<path d="M0 0 C6.8560565 0.68560565 10.89567819 5.0259133 15.13671875 10.11328125 C20.37635173 17.45891683 21.35600845 24.52054322 20.75 33.375 C16.38371814 31.89793067 12.97603732 29.55625653 9.375 26.75 C8.80426758 26.307771 8.23353516 25.86554199 7.64550781 25.40991211 C2.42119625 21.27164483 -3.09195642 16.84913074 -5.25 10.375 C-5.48188622 7.65168512 -5.38093368 5.12460731 -5.25 2.375 C-3.25 0.375 -3.25 0.375 0 0 Z " fill="#C64640" transform="translate(141.25,7.625)"/>
<path d="M0 0 C2.75612619 1.96632718 2.89562073 3.71086505 3.6015625 6.97265625 C4.00511431 8.79813472 4.45231364 10.61561207 4.9765625 12.41015625 C5.6365625 12.74015625 6.2965625 13.07015625 6.9765625 13.41015625 C7.55637088 28.95224195 6.99011526 40.42701307 -4.0234375 52.41015625 C-8.03059314 56.32190342 -8.03059314 56.32190342 -11.8359375 56.66015625 C-12.5578125 56.57765625 -13.2796875 56.49515625 -14.0234375 56.41015625 C-13.0334375 55.91515625 -13.0334375 55.91515625 -12.0234375 55.41015625 C-12.0234375 54.09015625 -12.0234375 52.77015625 -12.0234375 51.41015625 C-10.37460368 50.38101836 -8.70552385 49.38399571 -7.0234375 48.41015625 C-0.48774212 39.23377587 -0.04001721 27.19588248 -1.7734375 16.41015625 C-2.70750143 12.13009619 -4.10173588 8.34090957 -6.0234375 4.41015625 C-5.3634375 4.41015625 -4.7034375 4.41015625 -4.0234375 4.41015625 C-4.0234375 3.09015625 -4.0234375 1.77015625 -4.0234375 0.41015625 C-2.0234375 -0.58984375 -2.0234375 -0.58984375 0 0 Z " fill="#D05147" transform="translate(170.0234375,90.58984375)"/>
<path d="M0 0 C5.56676732 4.4096303 10.48940033 8.65580145 12.125 15.875 C12.52407153 20.39491888 10.44608926 22.88125727 7.640625 26.23828125 C7.09921875 26.81964844 6.5578125 27.40101562 6 28 C5.47921875 28.57105469 4.9584375 29.14210938 4.421875 29.73046875 C3 31 3 31 1 31 C0.62875 29.845 0.2575 28.69 -0.125 27.5 C-1.90983609 22.67145792 -4.75471853 18.94895091 -8 15 C-6.68 15 -5.36 15 -4 15 C-1.94637945 9.91059256 -0.56820748 5.45479185 0 0 Z " fill="#34677F" transform="translate(161,42)"/>
<path d="M0 0 C3.24854967 2.99095543 5.41972992 6.05706545 7.625 9.875 C8.21539062 10.88304688 8.80578125 11.89109375 9.4140625 12.9296875 C11.84206447 17.63020363 13.3128048 21.68231844 13 27 C10.2289312 24.65408148 9.47940716 22.85223799 8.8125 19.3125 C8.65394531 18.50425781 8.49539062 17.69601563 8.33203125 16.86328125 C8.22246094 16.24839844 8.11289063 15.63351563 8 15 C5.525 14.505 5.525 14.505 3 14 C3 15.32 3 16.64 3 18 C-0.02515469 17.67587628 -0.91241339 17.10171348 -2.9375 14.75 C-3.9584375 13.38875 -3.9584375 13.38875 -5 12 C-6.64783606 10.31471312 -8.31002677 8.64302953 -10 7 C-9.01 6.67 -8.02 6.34 -7 6 C-6.26676204 3.98491642 -6.26676204 3.98491642 -6 2 C-5.34 2 -4.68 2 -4 2 C-4 3.65 -4 5.3 -4 7 C-0.77595022 5.33045181 -0.77595022 5.33045181 -0.3125 2.375 C-0.209375 1.59125 -0.10625 0.8075 0 0 Z " fill="#E46251" transform="translate(163,77)"/>
<path d="M0 0 C0.99 0.66 1.98 1.32 3 2 C1.63679666 7.14987929 -1.61312055 10.20407039 -6 13 C-8.9375 13.375 -8.9375 13.375 -11 13 C-10.34 12.67 -9.68 12.34 -9 12 C-9 10.68 -9 9.36 -9 8 C-7.329375 7.13375 -7.329375 7.13375 -5.625 6.25 C-2.66807857 4.57739798 -1.07684279 3.35017758 0 0 Z " fill="#D16C65" transform="translate(167,134)"/>
<path d="M0 0 C0.66 0.33 1.32 0.66 2 1 C0 3 0 3 -2.5625 4.5 C-6.16601201 8.19590976 -5.89518156 12.00683045 -6 17 C-6.33 16.34 -6.66 15.68 -7 15 C-7.66 15 -8.32 15 -9 15 C-9.33 15.66 -9.66 16.32 -10 17 C-10.33 16.67 -10.66 16.34 -11 16 C-11.99 18.475 -11.99 18.475 -13 21 C-14 18 -14 18 -12.5625 14.375 C-9.77709888 9.10717122 -5.43125232 2.71562616 0 0 Z " fill="#D6C693" transform="translate(125,9)"/>
<path d="M0 0 C0.33 0.99 0.66 1.98 1 3 C1.99 2.67 2.98 2.34 4 2 C4.73080266 3.97746603 5.39421747 5.98072489 6 8 C5.67 8.66 5.34 9.32 5 10 C1.76138697 8.55575365 -0.61969163 6.74227753 -3.25 4.375 C-3.95640625 3.74335938 -4.6628125 3.11171875 -5.390625 2.4609375 C-5.92171875 1.97882812 -6.4528125 1.49671875 -7 1 C-3.375 -1.125 -3.375 -1.125 0 0 Z " fill="#BA4C48" transform="translate(148,25)"/>
<path d="M0 0 C2.99975913 1.0447879 3.90171753 1.82490202 5.484375 4.64453125 C5.90203125 5.68996094 6.3196875 6.73539062 6.75 7.8125 C7.17796875 8.85019531 7.6059375 9.88789062 8.046875 10.95703125 C8.9541996 13.85377658 9.20003788 15.99387513 9 19 C6.2289312 16.65408148 5.47940716 14.85223799 4.8125 11.3125 C4.57466797 10.10013672 4.57466797 10.10013672 4.33203125 8.86328125 C4.22246094 8.24839844 4.11289063 7.63351563 4 7 C2.68 6.67 1.36 6.34 0 6 C0 4.02 0 2.04 0 0 Z " fill="#D46F69" transform="translate(167,85)"/>
<path d="M0 0 C2.5 2.3125 2.5 2.3125 5 5 C5 5.99 5 6.98 5 8 C4.34 8 3.68 8 3 8 C3.33 9.65 3.66 11.3 4 13 C1.7522025 10.94766315 0.9977758 9.99332739 0 7 C-0.03954234 4.66700175 -0.04401732 2.33291811 0 0 Z " fill="#E56E63" transform="translate(112,43)"/>
<path d="M0 0 C2 1.1875 2 1.1875 4 3 C4.25 5.6875 4.25 5.6875 4 8 C2.02 8.99 2.02 8.99 0 10 C0 8.35 0 6.7 0 5 C-0.66 4.67 -1.32 4.34 -2 4 C-1.34 2.68 -0.68 1.36 0 0 Z " fill="#E95B47" transform="translate(159,74)"/>
<path d="M0 0 C1.98 0.66 3.96 1.32 6 2 C6 2.66 6 3.32 6 4 C6.66 4 7.32 4 8 4 C8.33 3.34 8.66 2.68 9 2 C9.99 3.98 10.98 5.96 12 8 C6.73610189 7.68097587 3.55597551 4.60721435 0 1 C0 0.67 0 0.34 0 0 Z " fill="#72A7B6" transform="translate(123,140)"/>
<path d="M0 0 C0.33 0 0.66 0 1 0 C1.10049204 3.51722154 0.71886813 6.56540782 0 10 C-0.36769712 12.66331966 -0.68321141 15.32992478 -1 18 C-3 16 -3 16 -3.3125 12.375 C-3.21983697 7.77554395 -1.80103851 4.20242319 0 0 Z " fill="#E96A3F" transform="translate(147,122)"/>
<path d="M0 0 C1.32 0 2.64 0 4 0 C4.33 0.66 4.66 1.32 5 2 C5.99 3.485 5.99 3.485 7 5 C7 5.99 7 6.98 7 8 C4.13792848 6.71700242 1.9754912 5.469364 0 3 C0 2.01 0 1.02 0 0 Z " fill="#A33C37" transform="translate(165,43)"/>
<path d="M0 0 C0.99 0.33 1.98 0.66 3 1 C3.33 2.65 3.66 4.3 4 6 C1.69 5.67 -0.62 5.34 -3 5 C-2.01 3.35 -1.02 1.7 0 0 Z " fill="#FAB33A" transform="translate(153,64)"/>
<path d="M0 0 C1.04449911 3.13349732 0.93423645 3.98968256 0 7 C-1.65 7 -3.3 7 -5 7 C-4.34 6.67 -3.68 6.34 -3 6 C-3 4.68 -3 3.36 -3 2 C-2.01 1.34 -1.02 0.68 0 0 Z " fill="#DD6B5F" transform="translate(161,140)"/>
<path d="M0 0 C0.66 0 1.32 0 2 0 C2 0.99 2 1.98 2 3 C2.66 3 3.32 3 4 3 C4.33 3.99 4.66 4.98 5 6 C4.34 6.66 3.68 7.32 3 8 C0.9375 5.6875 0.9375 5.6875 -1 3 C-0.67 2.01 -0.34 1.02 0 0 Z " fill="#39778C" transform="translate(122,28)"/>
<path d="M0 0 C1.98 1.65 3.96 3.3 6 5 C5.01 5.495 5.01 5.495 4 6 C3.67 6.66 3.34 7.32 3 8 C2.67 7.01 2.34 6.02 2 5 C1.34 5.66 0.68 6.32 0 7 C0 4.69 0 2.38 0 0 Z " fill="#DEA84B" transform="translate(123,34)"/>
<path d="M0 0 C1.24546405 2.49092811 0.7767578 3.41080733 0 6 C-1.65 6.33 -3.3 6.66 -5 7 C-3.47793991 4.37098712 -2.15634036 2.15634036 0 0 Z " fill="#E4C051" transform="translate(152,93)"/>
<path d="M0 0 C0.99 0.495 0.99 0.495 2 1 C2.59355614 3.64860427 2.74209269 6.29197322 3 9 C1.5 7.875 1.5 7.875 0 6 C-0.1875 2.8125 -0.1875 2.8125 0 0 Z " fill="#D07B77" transform="translate(173,95)"/>
<path d="M0 0 C0.33 0.66 0.66 1.32 1 2 C0.67 2.99 0.34 3.98 0 5 C-0.99 5.33 -1.98 5.66 -3 6 C-3.33 6.66 -3.66 7.32 -4 8 C-4.66 7.67 -5.32 7.34 -6 7 C-4.02 4.69 -2.04 2.38 0 0 Z " fill="#D5BD5B" transform="translate(146,100)"/>
<path d="M0 0 C1.32 0.33 2.64 0.66 4 1 C3.67 2.32 3.34 3.64 3 5 C2.01 5 1.02 5 0 5 C0 3.35 0 1.7 0 0 Z " fill="#EB574A" transform="translate(153,78)"/>
<path d="M0 0 C1.42944945 2.35438733 2.08661261 3.48032433 1.625 6.25 C1.41875 6.8275 1.2125 7.405 1 8 C-0.65 6.35 -2.3 4.7 -4 3 C-2.68 3.33 -1.36 3.66 0 4 C0 2.68 0 1.36 0 0 Z " fill="#EFB46A" transform="translate(161,69)"/>
</svg>
