<?xml version="1.0" encoding="UTF-8"?>
<svg version="1.1" xmlns="http://www.w3.org/2000/svg" width="186" height="225">
<path d="M0 0 C4.14359158 3.57855637 6.24651463 6.67631843 7.23828125 11.9921875 C7.50867205 15.82007301 7.55406562 18.98492046 5.59765625 22.3671875 C3.74454228 24.47855941 1.7534893 26.40535343 -0.25 28.375 C-2.20619039 30.57069464 -4.10098836 32.81732862 -6 35.0625 C-7.04501494 36.2856332 -8.09059249 37.50828591 -9.13671875 38.73046875 C-9.65669434 39.33938965 -10.17666992 39.94831055 -10.71240234 40.57568359 C-11.70379386 41.7358226 -12.69622904 42.89507095 -13.68994141 44.05322266 C-19.42333424 50.73581276 -25.02026361 57.49565041 -30.37792969 64.48510742 C-32.92688834 67.79046815 -35.58511632 70.7509024 -38.5625 73.6875 C-40.50437609 75.84104979 -41.25722225 76.68647859 -41.2265625 79.609375 C-40.74131157 81.92049518 -40.74131157 81.92049518 -39.93359375 84.00390625 C-38.10555828 90.34457786 -39.59500832 95.22132555 -42.5625 100.875 C-42.91642822 101.56424561 -43.27035645 102.25349121 -43.63500977 102.96362305 C-47.73027142 110.66847624 -52.85028903 117.54601175 -58.25 124.375 C-59.43142578 125.87546875 -59.43142578 125.87546875 -60.63671875 127.40625 C-65.61820753 133.59616276 -70.83451942 139.56187923 -76.25 145.375 C-76.94609375 146.12523437 -77.6421875 146.87546875 -78.359375 147.6484375 C-95.17173038 165.13574145 -117.4095269 179.28297635 -142.140625 180.51953125 C-148.75311634 180.62344183 -148.75311634 180.62344183 -151.25 179.375 C-152.125 176.1875 -152.125 176.1875 -152.25 172.375 C-149.58581147 167.80871943 -146.26355937 163.85453843 -142.8125 159.875 C-142.29461914 159.27333008 -141.77673828 158.67166016 -141.24316406 158.05175781 C-137.4261812 153.64930604 -133.48893772 149.37151412 -129.5 145.125 C-125.1962974 140.54307061 -121.12522318 135.88301742 -117.26171875 130.91796875 C-114.89292985 127.9236356 -112.41959609 125.02509696 -109.9375 122.125 C-105.66601811 117.11654746 -101.55407171 112.00551264 -97.51196289 106.81079102 C-94.02898451 102.34195992 -90.4654379 97.94526971 -86.875 93.5625 C-80.59060848 85.87875005 -74.55830629 78.01464763 -68.57373047 70.09619141 C-67.45853467 68.64614891 -66.2985025 67.23074978 -65.12890625 65.82421875 C-63.272595 63.40445335 -61.80869913 60.89499639 -60.33105469 58.23193359 C-58.39330803 54.90345548 -56.12009915 51.81324246 -53.875 48.6875 C-52.80682847 47.18782981 -51.73914059 45.68781505 -50.671875 44.1875 C-50.11435547 43.40503906 -49.55683594 42.62257812 -48.98242188 41.81640625 C-46.00677425 37.62299077 -43.06816977 33.40373939 -40.125 29.1875 C-35.97789745 23.25689312 -31.82276687 17.3323891 -27.625 11.4375 C-26.86960937 10.37660156 -26.11421875 9.31570312 -25.3359375 8.22265625 C-18.68241179 -0.86052772 -18.68241179 -0.86052772 -14.0625 -2.3125 C-8.76263064 -2.90137437 -4.71348506 -2.35674253 0 0 Z " fill="#A1A7AA" transform="translate(161.25,24.625)"/>
<path d="M0 0 C3.92483121 1.19067913 5.59098743 2.35137242 8.2734375 5.5703125 C10.53318995 10.40679625 10.85633119 15.37545186 9.7734375 20.5703125 C7.94212093 23.73631742 5.36863124 26.01895649 2.7734375 28.5703125 C0.81724711 30.76600714 -1.07755086 33.01264112 -2.9765625 35.2578125 C-4.02157744 36.4809457 -5.06715499 37.70359841 -6.11328125 38.92578125 C-6.63325684 39.53470215 -7.15323242 40.14362305 -7.68896484 40.77099609 C-8.68035636 41.9311351 -9.67279154 43.09038345 -10.66650391 44.24853516 C-16.37741715 50.90492404 -21.90912217 57.66297371 -27.28857422 64.59033203 C-31.06876242 69.43331198 -35.05829838 74.05568832 -39.2265625 78.5703125 C-39.9278125 78.12300781 -40.6290625 77.67570312 -41.3515625 77.21484375 C-46.96064176 73.64057993 -52.5804643 70.0858076 -58.2265625 66.5703125 C-57.89806967 60.44488734 -54.93269432 56.89190376 -51.3515625 52.1953125 C-50.15597251 50.58580757 -48.9619894 48.97510788 -47.76953125 47.36328125 C-47.17060059 46.55810059 -46.57166992 45.75291992 -45.95458984 44.92333984 C-43.44433982 41.50517232 -41.04798978 38.01472507 -38.6640625 34.5078125 C-13.31144839 -2.568876 -13.31144839 -2.568876 0 0 Z " fill="#C2423C" transform="translate(158.2265625,24.4296875)"/>
<path d="M0 0 C0.99 0 1.98 0 3 0 C3.495 1.98 3.495 1.98 4 4 C4.66 4 5.32 4 6 4 C6 8.29 6 12.58 6 17 C5.34 17 4.68 17 4 17 C4.35384766 18.04800781 4.35384766 18.04800781 4.71484375 19.1171875 C5.11032185 23.11530856 3.73290905 24.78527794 1.5625 28.125 C1.19632568 28.6926709 0.83015137 29.2603418 0.45288086 29.84521484 C-8.21420013 43.13436793 -18.19245607 55.39889515 -29 67 C-29.69609375 67.75023437 -30.3921875 68.50046875 -31.109375 69.2734375 C-47.81604253 86.65081066 -70.2813727 101.19772881 -94.9609375 102.109375 C-97.31248832 102.12254895 -99.65057581 102.09356114 -102 102 C-102.33 99.69 -102.66 97.38 -103 95 C-101.7625 94.773125 -100.525 94.54625 -99.25 94.3125 C-90.24618251 92.29123485 -82.15265326 88.35471167 -74.375 83.46875 C-72.06494843 82.04016548 -69.71459357 80.76596824 -67.3125 79.5 C-63.56446989 77.45984886 -60.51654203 75.05216829 -57.41015625 72.13671875 C-56 71 -56 71 -54 71 C-54 70.34 -54 69.68 -54 69 C-52.56640625 67.58984375 -52.56640625 67.58984375 -50.5625 65.9375 C-43.56352368 59.96487533 -37.25772519 53.64741162 -31.7265625 46.28515625 C-29.97863463 43.9717223 -28.15403266 41.73939465 -26.3125 39.5 C-16.93787001 27.79083181 -8.52000601 15.43468499 -1.50390625 2.171875 C-1.00761719 1.45515625 -0.51132813 0.7384375 0 0 Z " fill="#848D91" transform="translate(114,103)"/>
<path d="M0 0 C2.5 2.0625 2.5 2.0625 4 4 C2.7934375 3.505 2.7934375 3.505 1.5625 3 C-3.56191568 1.56156753 -8.24894966 0.46144962 -13.109375 3.1796875 C-17.86643767 7.03327703 -20.90563451 11.66160452 -24.03515625 16.86328125 C-26.2767362 20.44178762 -28.72742884 23.8044112 -31.25 27.1875 C-35.14518792 32.43254539 -38.93645786 37.73245894 -42.625 43.125 C-43.08430908 43.79619873 -43.54361816 44.46739746 -44.0168457 45.15893555 C-45.73505586 47.67393466 -47.45003849 50.19111079 -49.16259766 52.70996094 C-61.82505752 71.3098689 -75.80357023 88.90363095 -90.015625 106.33203125 C-92.34161088 109.18592613 -94.64709557 112.05491835 -96.9375 114.9375 C-108.80172615 129.79270754 -120.95022611 144.42761155 -133.875 158.375 C-135.58786562 160.24586054 -137.29657217 162.12054226 -139 164 C-140.10794922 165.21816406 -140.10794922 165.21816406 -141.23828125 166.4609375 C-144.35855 170.12522104 -146.40293943 172.62897902 -146.4375 177.5625 C-146.2209375 179.2640625 -146.2209375 179.2640625 -146 181 C-146.66 181 -147.32 181 -148 181 C-149.48094886 174.82937975 -149.48094886 174.82937975 -147.35546875 171.1640625 C-144.87083394 167.82649335 -142.28726881 164.64202713 -139.5625 161.5 C-139.04461914 160.89833008 -138.52673828 160.29666016 -137.99316406 159.67675781 C-134.1761812 155.27430604 -130.23893772 150.99651412 -126.25 146.75 C-121.9462974 142.16807061 -117.87522318 137.50801742 -114.01171875 132.54296875 C-111.64292985 129.5486356 -109.16959609 126.65009696 -106.6875 123.75 C-102.41601811 118.74154746 -98.30407171 113.63051264 -94.26196289 108.43579102 C-90.77898451 103.96695992 -87.2154379 99.57026971 -83.625 95.1875 C-77.34060848 87.50375005 -71.30830629 79.63964763 -65.32373047 71.72119141 C-64.20853467 70.27114891 -63.0485025 68.85574978 -61.87890625 67.44921875 C-60.022595 65.02945335 -58.55869913 62.51999639 -57.08105469 59.85693359 C-55.14330803 56.52845548 -52.87009915 53.43824246 -50.625 50.3125 C-49.55682847 48.81282981 -48.48914059 47.31281505 -47.421875 45.8125 C-46.86435547 45.03003906 -46.30683594 44.24757812 -45.73242188 43.44140625 C-42.75677425 39.24799077 -39.81816977 35.02873939 -36.875 30.8125 C-32.72789745 24.88189312 -28.57276687 18.9573891 -24.375 13.0625 C-23.61960937 12.00160156 -22.86421875 10.94070312 -22.0859375 9.84765625 C-15.43241179 0.76447228 -15.43241179 0.76447228 -10.8125 -0.6875 C-7.07512974 -1.10276336 -3.63726089 -1.01752184 0 0 Z " fill="#EFF2F3" transform="translate(158,23)"/>
<path d="M0 0 C-0.33 0.99 -0.66 1.98 -1 3 C-0.34 3.33 0.32 3.66 1 4 C0.46568096 8.1123483 -1.69810275 10.12656137 -4.5 13.0625 C-7.92739813 16.71598141 -11.22487109 20.41234039 -14.375 24.3125 C-17.97754684 28.74837618 -21.58487386 33.17818142 -25.25 37.5625 C-25.7454834 38.1706958 -26.2409668 38.7788916 -26.75146484 39.40551758 C-29.55644246 42.73554398 -31.66309396 44.7891485 -36 46 C-36.33 45.34 -36.66 44.68 -37 44 C-33.66666667 39 -30.33333333 34 -27 29 C-26.34 29 -25.68 29 -25 29 C-24.79375 28.34 -24.5875 27.68 -24.375 27 C-21.48974564 20.70489957 -16.91915005 15.7961713 -12 11 C-10.96880261 9.8214887 -9.9484571 8.63341918 -8.9375 7.4375 C-2.62049672 0 -2.62049672 0 0 0 Z " fill="#AC4240" transform="translate(164,42)"/>
<path d="M0 0 C0 0.99 0 1.98 0 3 C0.31088368 4.67099977 0.64080332 6.33871537 1 8 C0.34 8 -0.32 8 -1 8 C-1.33 8.66 -1.66 9.32 -2 10 C-1.39238047 12.13252737 -1.39238047 12.13252737 0 14 C1.81296615 14.62092718 1.81296615 14.62092718 4 15 C7.65663245 16.67595654 10.86943719 18.4714685 14 21 C13.49477778 25.37859255 10.82172778 27.81651224 8 31 C7.29875 30.55269531 6.5975 30.10539062 5.875 29.64453125 C0.26592074 26.07026743 -5.3539018 22.5154951 -11 19 C-10.55424676 13.69076055 -8.76695208 10.83839006 -5.5 6.6875 C-5.08363281 6.15060547 -4.66726562 5.61371094 -4.23828125 5.06054688 C-1.33450893 1.33450893 -1.33450893 1.33450893 0 0 Z " fill="#A03935" transform="translate(111,72)"/>
<path d="M0 0 C2.5 2.0625 2.5 2.0625 4 4 C3.195625 3.67 2.39125 3.34 1.5625 3 C-3.56191568 1.56156753 -8.24894966 0.46144962 -13.109375 3.1796875 C-17.86643767 7.03327703 -20.90563451 11.66160452 -24.03515625 16.86328125 C-26.2767362 20.44178762 -28.72742884 23.8044112 -31.25 27.1875 C-36.57587299 34.35902707 -41.64974122 41.68377889 -46.68017578 49.06445312 C-48.80000841 52.17322728 -50.92854212 55.27590919 -53.0625 58.375 C-54.13177734 59.93347656 -54.13177734 59.93347656 -55.22265625 61.5234375 C-57 64 -57 64 -59 66 C-58.44662258 62.28041183 -57.52243081 59.88575048 -55.33203125 56.83984375 C-54.77547852 56.05625488 -54.21892578 55.27266602 -53.64550781 54.46533203 C-53.04061523 53.63114746 -52.43572266 52.79696289 -51.8125 51.9375 C-50.53229675 50.14210912 -49.25235633 48.34653081 -47.97265625 46.55078125 C-47.31410645 45.63248535 -46.65555664 44.71418945 -45.97705078 43.76806641 C-42.86572002 39.41189597 -39.8108297 35.01671722 -36.75 30.625 C-15.98103141 0.93689559 -15.98103141 0.93689559 -10.8125 -0.6875 C-7.07512974 -1.10276336 -3.63726089 -1.01752184 0 0 Z " fill="#F9DED9" transform="translate(158,23)"/>
<path d="M0 0 C2.79921583 4.19882375 1.86558093 6.12127113 1 11 C0.67 11.33 0.34 11.66 0 12 C3.465 13.485 3.465 13.485 7 15 C7 15.66 7 16.32 7 17 C9.33214148 18.20628008 11.49642139 19.1654738 14 20 C13.67 20.99 13.34 21.98 13 23 C12.05640625 22.32904297 12.05640625 22.32904297 11.09375 21.64453125 C5.82295773 17.92163731 0.5061841 14.36489028 -5 11 C-4.54663921 6.12637153 -3.2910841 3.60957611 0 0 Z " fill="#923634" transform="translate(105,80)"/>
<path d="M0 0 C4.08048943 0.83464557 5.72251625 1.65679642 8.375 4.9375 C10.72587092 9.609733 10.90083199 14.90340099 10 20 C8.47265625 21.828125 8.47265625 21.828125 7 23 C7 22.34 7 21.68 7 21 C6.01 20.67 5.02 20.34 4 20 C4.25136719 19.41992188 4.50273437 18.83984375 4.76171875 18.2421875 C6.83352567 13.03827494 6.83352567 13.03827494 5.9375 7.625 C4.11625311 5.15750421 2.49677494 3.72191375 0 2 C0 1.34 0 0.68 0 0 Z " fill="#AE4D48" transform="translate(158,25)"/>
<path d="M0 0 C0.66 1.32 1.32 2.64 2 4 C0.02 4.99 -1.96 5.98 -4 7 C-3.896875 7.763125 -3.79375 8.52625 -3.6875 9.3125 C-3.8421875 10.6428125 -3.8421875 10.6428125 -4 12 C-6.25 13.5625 -6.25 13.5625 -9 15 C-11.68020392 17.38240349 -12.85537608 18.56612823 -14 22 C-14.99 22.33 -15.98 22.66 -17 23 C-15.87548273 20.0280615 -14.77706209 17.66559313 -13 15 C-12.34 15 -11.68 15 -11 15 C-10.79375 14.34 -10.5875 13.68 -10.375 13 C-7.98768864 7.79132066 -4.78619079 3.19079386 0 0 Z " fill="#AE3731" transform="translate(150,56)"/>
<path d="M0 0 C-0.33 0.99 -0.66 1.98 -1 3 C-0.34 3.33 0.32 3.66 1 4 C0.65120368 7.25543229 -0.02133261 8.01873107 -2.5625 10.25 C-3.366875 10.8275 -4.17125 11.405 -5 12 C-5 11.34 -5 10.68 -5 10 C-5.66 10 -6.32 10 -7 10 C-6.67506385 6.4257023 -6.36129314 4.44287547 -4.0625 1.625 C-2 0 -2 0 0 0 Z " fill="#9E3F3B" transform="translate(164,42)"/>
<path d="M0 0 C-0.59283621 3.39192363 -1.76743189 5.2107757 -4.0625 7.75 C-4.61035156 8.36359375 -5.15820312 8.9771875 -5.72265625 9.609375 C-6.14417969 10.06828125 -6.56570312 10.5271875 -7 11 C-8.10732122 7.67803635 -7.85064093 6.31749961 -7 3 C-5.40442685 -0.19114631 -3.35905282 0 0 0 Z " fill="#AA4746" transform="translate(152,61)"/>
<path d="M0 0 C2.5 2.0625 2.5 2.0625 4 4 C3.195625 3.67 2.39125 3.34 1.5625 3 C-3.22196585 1.65699204 -8.24808853 0.70564491 -12.91015625 2.8984375 C-14.74387183 4.08154985 -14.74387183 4.08154985 -17 6 C-16.6875 4.125 -16.6875 4.125 -16 2 C-10.93292674 -1.37804884 -5.81019589 -1.62539927 0 0 Z " fill="#F8D1D0" transform="translate(158,23)"/>
<path d="M0 0 C0 0.99 0 1.98 0 3 C0.31088368 4.67099977 0.64080332 6.33871537 1 8 C0.34 8 -0.32 8 -1 8 C-2.1490712 9.9254644 -2.1490712 9.9254644 -2 12 C-2.33 12.66 -2.66 13.32 -3 14 C-5 13 -5 13 -6 10.375 C-6 5.90984262 -4.32683964 4.45558067 -1.34765625 1.3203125 C-0.90292969 0.88460937 -0.45820312 0.44890625 0 0 Z " fill="#B13D39" transform="translate(111,72)"/>
<path d="M0 0 C0.66 0 1.32 0 2 0 C0.86989727 2.54273114 -0.19128642 4.20253856 -2.125 6.25 C-4.72826885 10.06812765 -4.30849028 12.44976841 -4 17 C-4.66 17 -5.32 17 -6 17 C-7.02528944 12.72796065 -7.40479288 10.73730133 -5.25 6.8125 C-4.5075 5.884375 -3.765 4.95625 -3 4 C-2.46375 3.21625 -1.9275 2.4325 -1.375 1.625 C-0.694375 0.820625 -0.694375 0.820625 0 0 Z " fill="#E9ECED" transform="translate(16,187)"/>
<path d="M0 0 C0.99 1.32 1.98 2.64 3 4 C0.64722731 6.72426311 -1.62496331 7.8141763 -5 9 C-3.7508258 5.54074837 -2.32472205 2.85306797 0 0 Z " fill="#B83F37" transform="translate(136,36)"/>
<path d="M0 0 C0.99 0 1.98 0 3 0 C3 1.65 3 3.3 3 5 C1.35 5.66 -0.3 6.32 -2 7 C-2.33 6.34 -2.66 5.68 -3 5 C-1.75 2.375 -1.75 2.375 0 0 Z " fill="#AB3633" transform="translate(130,81)"/>
<path d="M0 0 C-0.66 2.31 -1.32 4.62 -2 7 C-3.65 7 -5.3 7 -7 7 C-5.84933177 3.5479953 -4.01648928 0 0 0 Z " fill="#AE352E" transform="translate(164,42)"/>
<path d="M0 0 C1.65 0 3.3 0 5 0 C2.03 3.96 2.03 3.96 -1 8 C-2.2077558 4.37673261 -1.54311128 3.35853631 0 0 Z " fill="#AD5B58" transform="translate(127,87)"/>
<path d="M0 0 C4.35535069 1.16142685 6.64619703 2.07699505 9 6 C8.67 6.66 8.34 7.32 8 8 C6.66102417 7.04956626 5.32894573 6.08940853 4 5.125 C3.2575 4.59132813 2.515 4.05765625 1.75 3.5078125 C1.1725 3.01023437 0.595 2.51265625 0 2 C0 1.34 0 0.68 0 0 Z " fill="#C87A77" transform="translate(158,25)"/>
<path d="M0 0 C6.75 -0.125 6.75 -0.125 9 1 C8.67 1.66 8.34 2.32 8 3 C5.4375 3.625 5.4375 3.625 3 4 C3 3.34 3 2.68 3 2 C2.01 1.34 1.02 0.68 0 0 Z " fill="#B03A32" transform="translate(149,24)"/>
<path d="M0 0 C0.33 0.99 0.66 1.98 1 3 C-0.65 4.32 -2.3 5.64 -4 7 C-4.33 5.68 -4.66 4.36 -5 3 C-3.35 2.01 -1.7 1.02 0 0 Z " fill="#8D9598" transform="translate(90,161)"/>
<path d="M0 0 C0.66 0 1.32 0 2 0 C1.625 2.4375 1.625 2.4375 1 5 C0.01 5.495 0.01 5.495 -1 6 C-1.66 5.34 -2.32 4.68 -3 4 C-1.625 2 -1.625 2 0 0 Z " fill="#B53833" transform="translate(125,87)"/>
</svg>
