<svg xmlns="http://www.w3.org/2000/svg" width="255" height="344"><path fill="#202D39" d="M92 28c9.084-.21 18.168-.369 27.254-.466 4.22-.047 8.438-.11 12.657-.213 4.079-.098 8.156-.152 12.235-.175q2.326-.024 4.648-.098c7.833-.237 13.787-.262 19.971 5.242A149 149 0 0 1 173 37a449 449 0 0 0 4.266 4.238q3.013 3.071 6.007 6.162c2.893 2.942 5.638 5.69 9.125 7.916C195 57 195 57 196.375 59.625c.831 4.489.787 8.825.625 13.375l1.895.91c3.489 1.806 4.859 3.351 6.105 7.09.133 2.94.212 5.856.238 8.797l.025 2.627q.02 2.754.032 5.508c.017 2.794.061 5.587.105 8.38q.015 2.68.026 5.36l.053 2.513c-.025 6.753-1.843 10.663-6.218 15.895l-1.714 1.666-1.875 1.846-1.922 1.845-1.969 1.928A764 764 0 0 1 187 142l1.845-.035c21.09-.224 21.09-.224 28.885 6.765L220 151q2.559 2.192 5.125 4.375c3.727 3.33 3.727 3.33 4.875 5.625.103 2.103.183 4.208.25 6.313.396 5.934 1.385 7.642 5.75 11.687 1.905 5.685 2.06 11.371 1.875 17.313-.094 5.234.85 7.502 4.125 11.687 1.152 2.612 2.165 5.254 3.168 7.926.656 2.03.656 2.03 1.832 3.074.138 2.753.213 5.48.238 8.234l.025 2.516q.02 2.643.032 5.286c.017 2.69.061 5.377.105 8.066q.015 2.565.026 5.132l.053 2.431c-.02 5.19-.902 7.378-4.479 11.335-.577 2.117-.577 2.117-.504 4.25l-.057 2.344-.001 2.406c-.06 10.474-3.83 14.739-11.125 22l-2.069 2.117c-3.4 3.403-6.502 6.149-10.744 8.445-1.978 1.088-1.978 1.088-3.5 2.438-.852 3.4-.852 3.4-.312 7 .466 5.212.596 7.834-2.688 12l-1.534 1.968c-3.66 4.208-6.304 6.529-11.976 7.004a159 159 0 0 1-6.252-.05l-3.36-.006a434 434 0 0 1-6.996-.093c-3.57-.073-7.134-.082-10.704-.08q-3.407-.03-6.815-.071l-3.226-.014c-4.56-.117-7.373-.202-11.347-2.575C148 329 148 329 148 327l-3-1c-3.274-4.071-3.454-7.938-3.434-12.969l-.015-2.297q-.01-2.394.003-4.79c.008-2.437-.02-4.87-.052-7.307q-.003-2.334.002-4.668l-.034-2.194c.067-4.928 1.23-7.196 4.53-10.775 0-2.739-.653-3.638-2.532-5.599-3.56-2.021-6.972-1.772-10.952-1.694l-2.472.013c-2.598.017-5.196.054-7.794.092q-2.646.024-5.293.042-6.48.051-12.957.146c-.712 3.369-.712 3.369-1 7 2.292 2.792 2.292 2.792 5 5 1.69 5.072 1.225 10.46 1.24 15.769.01 2.092.041 4.182.073 6.274q.009 2.005.015 4.012l.028 3.671c-.57 5.24-3.178 8.373-6.856 11.962l-1.781 1.761c-3.04 2.742-5.026 3.802-9.048 3.905l-2.641.078-2.85.045-2.95.048q-3.093.042-6.188.065c-3.136.035-6.267.122-9.401.21-16.828.26-16.828.26-22.508-4.714-3.77-4.358-4.33-7.135-4.446-12.899l-.113-3.707c.644-5.263 3.24-7.482 7.176-10.793L50 300c-1.309-3.122-1.309-3.122-4-5l-1.5 2.625c-2.793 4.088-6.012 7.213-10.5 9.375-5.712.912-10.778.569-16-2-2.983-2.375-5.434-5.188-8-8l-2.133-2.223c-6.642-7.799-7.004-14.49-6.69-24.286.074-2.384.082-4.762.08-7.147q.03-2.294.071-4.586l.014-2.137C1.527 251.784 2.795 249.534 6 246c1.019-4.246.98-8.232.875-12.562-.019-4.62.302-7.613 3.125-11.438a82 82 0 0 1 3.5-2.375c4.283-2.762 5.116-5.823 6.5-10.625h2l-1.973-2.309c-3.038-4.57-2.573-9.444-2.465-14.754l-.021-2.97c.079-8.912.079-8.912 3.459-12.967l2.125-1.75c2.471-2.966 2.285-5.165 2.527-8.922.555-3.716 2.297-6.218 4.348-9.328h2l.758-1.773c1.407-2.522 2.93-3.978 5.117-5.852l2.055-1.79c4.969-3.806 8.711-3.842 14.82-3.71l2.402.027c1.95.024 3.899.06 5.848.098-.648-5.96-1.497-7.997-6-12-3.892-3.528-6.297-6.413-6.875-11.75-.08-2.082-.115-4.166-.125-6.25l-.078-4.441a402 402 0 0 1 .05-12.257c.025-2.083.002-4.168-.027-6.251.126-8.157 2.031-12.25 7.23-18.485 1.96-2.755 2.251-4.076 2.45-7.379.906-7.707 8.564-12.927 14.008-17.833 1.488-1.33 1.488-1.33 2.367-3.354h2l.688-1.703C80.369 38.354 82.47 36.5 85 34.25l2.688-2.422C90 30 90 30 92 30z"/><path fill="#FAFBFB" d="M92 28c9.084-.21 18.168-.369 27.254-.466 4.22-.047 8.438-.11 12.657-.213 4.079-.098 8.156-.152 12.235-.175q2.326-.024 4.648-.098c7.833-.237 13.787-.262 19.971 5.242A149 149 0 0 1 173 37a449 449 0 0 0 4.266 4.238q3.013 3.071 6.007 6.162c2.893 2.942 5.638 5.69 9.125 7.916C195 57 195 57 196.375 59.625c.831 4.489.787 8.825.625 13.375l1.895.91c3.489 1.806 4.859 3.351 6.105 7.09.133 2.94.212 5.856.238 8.797l.025 2.627q.02 2.754.032 5.508c.017 2.794.061 5.587.105 8.38q.015 2.68.026 5.36l.053 2.513c-.025 6.753-1.843 10.663-6.218 15.895l-1.714 1.666-1.875 1.846-1.922 1.845-1.969 1.928A764 764 0 0 1 187 142l1.845-.035c21.09-.224 21.09-.224 28.885 6.765L220 151q2.559 2.192 5.125 4.375c3.727 3.33 3.727 3.33 4.875 5.625.103 2.103.183 4.208.25 6.313.396 5.934 1.385 7.642 5.75 11.687 1.905 5.685 2.06 11.371 1.875 17.313-.094 5.234.85 7.502 4.125 11.687 1.152 2.612 2.165 5.254 3.168 7.926.656 2.03.656 2.03 1.832 3.074.138 2.753.213 5.48.238 8.234l.025 2.516q.02 2.643.032 5.286c.017 2.69.061 5.377.105 8.066q.015 2.565.026 5.132l.053 2.431c-.02 5.19-.902 7.378-4.479 11.335-.577 2.117-.577 2.117-.504 4.25l-.057 2.344-.001 2.406c-.06 10.474-3.83 14.739-11.125 22l-2.069 2.117c-3.4 3.403-6.502 6.149-10.744 8.445-1.978 1.088-1.978 1.088-3.5 2.438-.852 3.4-.852 3.4-.312 7 .466 5.212.596 7.834-2.688 12l-1.534 1.968c-3.66 4.208-6.304 6.529-11.976 7.004a159 159 0 0 1-6.252-.05l-3.36-.006a434 434 0 0 1-6.996-.093c-3.57-.073-7.134-.082-10.704-.08q-3.407-.03-6.815-.071l-3.226-.014c-4.56-.117-7.373-.202-11.347-2.575C148 329 148 329 148 327l-3-1c-3.274-4.071-3.454-7.938-3.434-12.969l-.015-2.297q-.01-2.394.003-4.79c.008-2.437-.02-4.87-.052-7.307q-.003-2.334.002-4.668l-.034-2.194c.067-4.928 1.23-7.196 4.53-10.775 0-2.739-.653-3.638-2.532-5.599-3.56-2.021-6.972-1.772-10.952-1.694l-2.472.013c-2.598.017-5.196.054-7.794.092q-2.646.024-5.293.042-6.48.051-12.957.146c-.712 3.369-.712 3.369-1 7 2.292 2.792 2.292 2.792 5 5 1.69 5.072 1.225 10.46 1.24 15.769.01 2.092.041 4.182.073 6.274q.009 2.005.015 4.012l.028 3.671c-.57 5.24-3.178 8.373-6.856 11.962l-1.781 1.761c-3.04 2.742-5.026 3.802-9.048 3.905l-2.641.078-2.85.045-2.95.048q-3.093.042-6.188.065c-3.136.035-6.267.122-9.401.21-16.828.26-16.828.26-22.508-4.714-3.77-4.358-4.33-7.135-4.446-12.899l-.113-3.707c.644-5.263 3.24-7.482 7.176-10.793L50 300c-1.309-3.122-1.309-3.122-4-5l-1.5 2.625c-2.793 4.088-6.012 7.213-10.5 9.375-5.712.912-10.778.569-16-2-2.983-2.375-5.434-5.188-8-8l-2.133-2.223c-6.642-7.799-7.004-14.49-6.69-24.286.074-2.384.082-4.762.08-7.147q.03-2.294.071-4.586l.014-2.137C1.527 251.784 2.795 249.534 6 246c1.019-4.246.98-8.232.875-12.562-.019-4.62.302-7.613 3.125-11.438a82 82 0 0 1 3.5-2.375c4.283-2.762 5.116-5.823 6.5-10.625h2l-1.973-2.309c-3.038-4.57-2.573-9.444-2.465-14.754l-.021-2.97c.079-8.912.079-8.912 3.459-12.967l2.125-1.75c2.471-2.966 2.285-5.165 2.527-8.922.555-3.716 2.297-6.218 4.348-9.328h2l.758-1.773c1.407-2.522 2.93-3.978 5.117-5.852l2.055-1.79c4.969-3.806 8.711-3.842 14.82-3.71l2.402.027c1.95.024 3.899.06 5.848.098-.648-5.96-1.497-7.997-6-12-3.892-3.528-6.297-6.413-6.875-11.75-.08-2.082-.115-4.166-.125-6.25l-.078-4.441a402 402 0 0 1 .05-12.257c.025-2.083.002-4.168-.027-6.251.126-8.157 2.031-12.25 7.23-18.485 1.96-2.755 2.251-4.076 2.45-7.379.906-7.707 8.564-12.927 14.008-17.833 1.488-1.33 1.488-1.33 2.367-3.354h2l.688-1.703C80.369 38.354 82.47 36.5 85 34.25l2.688-2.422C90 30 90 30 92 30zm2 11v8h-9v8h-8v9h-7v16h-7v43h7v8l8 1v7h7v8h9v7H80v9H62v-8H46v7h-9v18h-7v19h7v13h-7v16H19v22h-6v37h8v7h14v-7h-6v-9h8v-16h8v-10h8v-7h10v-16h-8v-33h8v25h8v7h8l-.5 3.438c-.576 4.533-.595 9-.5 13.562h-6v8H62l1 16h-8v18h9v19h-7v5h-4v10h43v-34h-8v-17h9v-8h56v10h9v15h-8v34h49v-14h-5v-2h-3v-18h6v-18h-7v-16h-8v-8h-8v-18h8v-6h7v-25h9v23h9v11h-8v23l4 1v8h8v16h-6v16h7v-7h8v-9h6v-25h7v-32h-6v-15h-5v-26h-8v-18h-8v-7c-5.173-1.063-10.124-1.117-15.375-1.062l-2.52.013q-3.053.02-6.105.049l-1 8h-7v-7h-8v-16h8v-9h8v-8h8V80h-8V64h-7v-9h-9v-8h-8v-8z"/><path fill="#161B1F" d="M46 155h16v8h18v8h-8v49h23v-7h-8v-17h8v-9h-8v-7h50v7h-26l1 8 26 1v-8h8v24h-9v16H96v18h8l1 6 40 1v-8h15v5l2 1v2h-8v8h8v9h8v8h8v9h8v-9h8v-8h7v17h-6v18h3v2h5v14h-49v-34h8v-15h-9v-10H97v8h-9v17h8v34H53v-10h4v-5h7v-19h-9v-18h8l-1-16h10v-8h6l-.035-1.687c-.062-5.21.285-10.157 1.035-15.313h-8v-7h-8v-25h-8v33h8v16H53v7h-8v10h-8v16h-8v9h6v7H21v-7h-8v-37h6v-22h11v-16h7v-13h-7v-19h7v-18h9z"/><path fill="#161D20" d="M71 65h7v7l57 1 2 8h-9v9l9-1 1-8h24v43h-8v7H85v-7h-6v7l7 1v6h-8v-6l-8-1v-8h-7V81h8v42l6-1v-22h1l1-20h-8z"/><path fill="#282A2F" d="M62 253h35v8h65v9h8v8h8v9h8v-9h8v-8h7v17h-6v18h3v2h5v14h-49v-34h8v-15h-9v-10H97v8h-9v17h8v34H53v-10h4v-5h7v-19h-9v-18h8z"/><path fill="#15191F" d="M186 154q4.313-.04 8.625-.062l2.45-.026c4.428-.018 8.564.192 12.925 1.088v7h8v18h8v26h5v15h6v32h-7v25h-6v9h-8v7h-7v-16h6v-16h-8v-8l-4-1v-23h8v-11h-9v-23h-9v24h-8l1-24h-8v-33h8z"/><path fill="#407167" d="M94 155h9l1 16h42v-16h16v8h8v17h-8v40h-9v8h9v9H96v-9h41v-16h9v-24h-8v8c-4.312.029-8.625.047-12.937.063l-3.733.025-3.545.01-3.285.016C112 196 112 196 111 195v-8h26v-7H87v7h8v9h-8v17h8v7H72v-49h8v-8h14z"/><path fill="#15191E" d="M46 155h16v25h-7l-1 49h9v16H53v7h-8v10h-8v16h-8v9h6v7H21v-7h-8v-37h6v-22h11v-16h7v-13h-7v-19h7v-18h9z"/><path fill="#1C1D22" d="M94 39h68v8h8v8h9v9h7v16h8v42h-8v8h-8l-1-14h-6c-1.3-2.6-1.16-4.549-1.205-7.46l-.06-3.457-.051-3.747-.063-3.825q-.082-5.035-.153-10.071-.077-5.138-.161-10.276Q169.146 67.082 169 57l-16-1v8h-8v-8h-2l-1 8h-2v-9l-2 1c-2.884.072-5.742.093-8.625.063l-2.43-.014q-2.972-.02-5.945-.049v8h-10v-8h9v-8h-17v8H86v-8h8z"/><path fill="#151A20" d="M86 139h66v1h-40v5l49 1v-7c6.152-.098 6.152-.098 8 0 1 1 1 1 1.098 4.379q-.01 2.091-.036 4.184l-.013 2.154q-.02 2.64-.049 5.283h7v7h-15v-7h-16v16h-42l-1-16h-9v8H80v-9h14v-7h-8z"/><path fill="#1B1F28" d="M87 180h50v7h-26l1 8 26 1v-8h8v24h-9l.035 3.027.028 3.91.035 3.903C137 226 137 226 136 227c-2.075.1-4.153.13-6.23.133l-3.874.004-2.032-.007c-2.026-.005-4.051 0-6.077.007l-3.892-.004-3.568-.004c-3.194-.124-6.19-.529-9.327-1.129l1-3 2-1-1-1c-.141-2.67-.042-5.324 0-8-1.702.03-1.702.03-3.437.063C96 213 96 213 95 212c-.087-1.854-.107-3.71-.098-5.566l.01-3.409.025-3.588.014-3.6Q94.97 191.42 95 187h-8z"/><path fill="#2E3135" d="M77 269h10v18h9v34H53v-10h4v-5h7v-19h-9v-17h9v12h7v-4h7z"/><path fill="#101A1A" d="M71 65h7v7l57 1 2 8h-9v9h-8v7h8v10h-7v8h-2l-2-8-1 5h-2l-2 4h-7v6h-1v-8h7v-7h-7v-9h8V88h-8v-7h-8v9h8v7h-9v9H85v8h-1q-.04-2.22-.062-4.437l-.036-2.497C84 105 84 105 85 104q3.5-.061 7 0l1-6h-6v-1l7-1 1-6h-9v7l-4-4-2 5 2 1h-2v17l5-1a88 88 0 0 1 4.813-.062l2.394.027L94 115v7h-4l1 5-2 1 64 1v1H86v-7h-7V80h-8z"/><path fill="#2F4B5D" d="M170 114c6.875.875 6.875.875 8 2a91 91 0 0 1 .098 5.129l-.01 3.135-.025 3.299-.014 3.31q-.018 4.064-.049 8.127c-5.97.773-11.047.974-17 0v7h-49c-1-2-1-2 0-6l-26-1v8h-1v-8h-7v-1h8v-6l-7-1v-7h6v7h69v-7l16-1z"/><path fill="#314B5C" d="m186 154 8.625-.062 2.682-.028c4.348-.015 8.413.21 12.693 1.09v7h8v18h8v26h5v15h6v32h-1v-31l-7 1-2 5h-3v-6l-8-1v-8h-7v-26h-7v-7h15v-17h-7v8h-16v9h-8z"/><path fill="#31505F" d="M94 39h68v8h8v1h-8v8h-9v8h-8v-8h-2l-1 8h-2v-9l-2 1c-2.884.072-5.742.093-8.625.063l-2.43-.014q-2.972-.02-5.945-.049v8h-10v-8h9v-8h-17v8H86v-8h8z"/><path fill="#13161C" d="M203 230h26a819 819 0 0 1 1 48h-6v9h-8v7h-7v-16h6v-16h-8v-8l-4-1z"/><path fill="#233543" d="M177 155h1v7h7v1h-7l.527 3.715c.665 5.978.35 11.854.036 17.847l-.159 3.346A1751 1751 0 0 1 178 196h8q.04 4.031.063 8.063l.025 2.279c.02 4.664-.312 9.057-1.088 13.658-5.08.847-9.848 1.09-15 1v7h-2v9h-6v-9h-9v-8h9v-40h8v-17h-8v-1h15z"/><path fill="#55847A" d="M85 47h9v1h-8v8l16-1 1-7h17v8h-9v8h10v-8l19-1v9h2l1-8h2v8h8v8H84l1-16h-7v8h-1v-9h8z"/><path fill="#14181D" d="M88 229h7c.832 5.72 1.12 11.222 1 17h8l1 6 40 1v-8h15v5l2 1v2h-8v8H97v-8H72v-8h6l1-3v3h7l-.07-2.23-.055-2.958-.07-2.917c.204-3.023.926-5.163 2.195-7.895"/><path fill="#213241" d="M96 237h66v7c-1 1-1 1-4.598 1.098a675 675 0 0 1-4.464-.036l-2.3-.013q-2.818-.02-5.638-.049v8q-8.518.037-17.035.055-2.9.008-5.8.02c-2.772.013-5.545.018-8.317.023l-2.636.015c-2.071 0-4.142-.05-6.212-.113-1-1-1-1-1.062-4.062L104 246h-8z"/><path fill="#4C686E" d="M62 253h35v8h57v11h-1v-10H97v8h-9v17h-1v-18l-9 1v8h-7v4h-7v-12h-9v-1h8z"/><path fill="#15191E" d="M154 261h8v9h8v8h8v9h8v-9h8v-8h7v17h-7v18h-7v-8h-17v-10h-8v-15h-8z"/><path fill="#347064" d="M46 155h16v25h-7v7l-8 1-1 7h-9v-33h9z"/><path fill="#25313B" d="M71 171h1v49h23v-7h-8v-17h8l1 16 7 1v8h25v1l-2.156.044c-3.22.075-6.438.171-9.656.268l-3.393.069-3.252.107-3 .08c-2.936.246-2.936.246-5.543 3.432h36v2H96v9h-1v-8l-7 1-2 15h-7c-.893-5.936-.97-11.07 0-17h-8z"/><path fill="#12171C" d="M95 40h66v7h-58v9H86v-8l8-1z"/><path fill="#56847A" d="M79 124h6v7h67v8H86v8h-1v-8h-7v-1h8v-6l-7-1z"/><path fill="#1DC05B" d="M120 90h8v6l17 1v9h8v8h-8v7h-17v-7h-7v-7h7V97h-8z"/><path fill="#16191F" d="M77 269h10l-1 18h-7v6h-8v13h-7v-19h-9v-17h9v12h7v-4h7z"/><path fill="#1F2B38" d="M71 65h7v7l57 1 1 7-2.047-.035-2.703-.028-2.672-.035c-2.488 0-2.488 0-4.465.602-3.073.721-6.026.549-9.175.496-5.062-.115-5.062-.115-9.938 1v-2l-1.625.219C92.727 81.479 81.603 81.767 71 80z"/><path fill="#3CBE72" d="M96 81h8v7h8v10h-8v9h7v7h-7v7h-9v-7h-9v-8h9v-9h9v-7h-8z"/><path fill="#3F555F" d="m186 154 8.625-.062 2.682-.028c4.348-.015 8.413.21 12.693 1.09v7h8v1h-8v8h-16v9h-8z"/><path fill="#D7D7D7" d="M246 221h1q.149 7.552.22 15.106.03 2.568.082 5.136c.048 2.465.071 4.93.089 7.395l.062 2.308c.002 5.115-1.098 7.305-4.453 11.055-.577 2.117-.577 2.117-.504 4.25l-.057 2.344-.001 2.406c-.06 10.474-3.83 14.739-11.125 22l-2.069 2.117c-3.4 3.403-6.502 6.149-10.744 8.445-1.978 1.088-1.978 1.088-3.5 2.438-.852 3.4-.852 3.4-.312 7 .466 5.212.596 7.834-2.688 12l-1.534 1.968c-3.66 4.208-6.304 6.529-11.976 7.004a159 159 0 0 1-6.252-.05l-3.36-.006a434 434 0 0 1-6.996-.093c-3.57-.073-7.134-.082-10.704-.08q-3.407-.03-6.815-.071l-3.226-.014c-4.56-.117-7.373-.202-11.347-2.575C148 329 148 329 148 327l-3-1c-3.274-4.071-3.454-7.938-3.434-12.969l-.015-2.297q-.01-2.394.003-4.79c.008-2.437-.02-4.87-.052-7.307q-.003-2.334.002-4.668l-.034-2.194c.067-4.93 1.236-7.19 4.53-10.775-.183-3.104-1.228-4.342-3-7 2.468 1.152 4.048 2.048 6 4v4h-2c-2.068 4.267-2.366 8.235-2.441 12.898l-.042 2.283q-.034 2.383-.052 4.765a360 360 0 0 1-.178 7.241c-.31 8.019-.31 8.019 2.24 15.439 3.762 3.823 6.766 5.49 12.119 5.551l2.923.039 3.17.022 3.25.025q3.411.02 6.822.032c3.477.017 6.953.061 10.43.105q3.311.015 6.622.026l3.151.053c5.827.008 5.827.008 11.038-2.38L208 326l2.313-2c2.689-4.78 2.458-9.646 1.687-15-1.795-3.087-1.795-3.087-4-5v-2h-2v-4h2l2.375 2.563c2.266 2.619 2.266 2.619 4.563 2.562 3.028-1.652 5.496-3.85 8.062-6.125l1.836-1.523c3.173-2.638 5.72-5.133 8.164-8.477h2v-2h2c1.642-2.89 2.24-4.95 2.238-8.266l.05-2.449q.024-2.511.015-5.023c.11-4.48.406-7.232 3.19-10.809 4.29-6.123 3.294-14.265 3.32-21.453q.034-2.33.076-4.66c.062-3.78.095-7.56.111-11.34"/><path fill="#3A646C" d="M80.848 179.902 87 180v7h8v9h-8v17h8v7H78q-.036-8.304-.055-16.608-.008-2.827-.02-5.654c-.013-2.703-.018-5.406-.023-8.11l-.015-2.569c0-2.02.05-4.04.113-6.059 1-1 1-1 2.848-1.098"/><path fill="#293B4A" d="M79 287q3.5-.062 7 0c1 1 1 1 1.114 3.5l-.016 3.285-.01 3.545-.025 3.733-.014 3.744q-.02 4.597-.049 9.193H64v-7h-7v-1h14v-13h8z"/><path fill="#3F6C69" d="M146 155h16v8h8v17h-8v-10h-9v8l-7 2c-1.366-8.499-.647-16.443 0-25"/><path fill="#172025" d="m116.408 154.886 3.158.016 3.409.01 3.587.025 3.6.014q4.419.018 8.838.049l1 3h3v-3h3v16h-42v-1l16-1c-.776-3.075-.776-3.075-3-5-2.069-.643-2.069-.643-4-1q-.062-3.5 0-7c1-1 1-1 3.408-1.114M138 159l1 2Z"/><path fill="#3B5A5B" d="M211 230h18v23h-19l-.062-7.562-.028-2.339-.008-1.915-.016-1.92c.156-3.107.674-6.185 1.114-9.264"/><path fill="#496F6B" d="M80 163h7v1h-6v7h6v9l-8 1 .016 2.719q.025 5.043.039 10.086.008 2.174.02 4.347c.087 14.82.087 14.82-1.075 21.848h-6v-49h8z"/><path fill="#181A1F" d="M14 251h6c1.167 8.67 1.097 17.274 1 26h8v10h6v7H21v-8h-7z"/><path fill="#20323E" d="M210 163h7v17h-15v7h7v1h-23v-8h8v-9h16z"/><path fill="#1A1E27" d="M104 197h26c0 11 0 11-1 15h-25z"/><path fill="#48676C" d="M162 287h8l1 10 7 1v8h8v6c-2.505 1.252-4.209 1.114-7.008 1.098l-2.692-.008-3.425-.027L162 313z"/><path fill="#748094" d="M19 230h1l2 21 14 1v9h-6v16h6v-7h1v8l-16-1-1-26h-6v35h7v1h-8v-37h6z"/><path fill="#4F7A6C" d="M96 228h41v9H96z"/><path fill="#0E1216" d="M155 287h7v26h21v2l-12 1v1c3.755.853 7.33 1.184 11.176 1.316l3.506.127 3.63.12 3.69.13q4.5.159 8.998.307v1h-47z"/><path fill="#121A1A" d="M153 88h1l-.035 2.336-.028 3.039-.035 3.023c-.082 2.586-.082 2.586 1.098 4.602l4-5c1 1 1 1 1.114 3.5l-.016 3.285-.01 3.545-.025 3.733-.014 3.744q-.018 4.596-.049 9.193h-7v2l-6 1v-2l-19-1v-1h17v-8h8v-8h-8v-9h8z"/><path fill="#14151B" d="M87 180h50v7H87z"/><path fill="#39585E" d="M70 64h1v16h8v43l-2-1-6 1V81h-8v-1h7z"/><path fill="#44666B" d="M170 80v43h-8V81c7-1 7-1 8-1"/><path fill="#151A1E" d="M63 81h8v42h-8z"/><path fill="#282A2E" d="M215 262h10l-1 25h-8v7h-7v-16h6z"/><path fill="#4B6966" d="M154 253q6.595-.037 13.19-.055 2.244-.008 4.49-.02c2.147-.013 4.294-.018 6.441-.023l3.92-.016C185 253 185 253 186 254v7h-16v9h-8v-9h-8z"/><path fill="#DCDCDC" d="M45 271h2l-.048 1.896c-.062 2.826-.101 5.652-.14 8.479l-.076 2.984-.029 2.852-.048 2.634L47 292l3 2v2l4 2c-1.285 2.867-2.571 4.976-5 7h-2v2l-2 1c-1.138 3.162-1.134 6.228-1.125 9.563l-.008 2.878c.025 2.68.025 2.68 1.133 5.559 1.933 1.092 1.933 1.092 4 2l2 2c1.968.332 1.968.332 4.247.322 1.317.03 1.317.03 2.661.058l2.885.026 2.968.035q3.115.028 6.231.04c3.166.019 6.33.08 9.494.144q3.03.02 6.057.031l2.854.075c5.862-.04 9.005-1.037 13.244-5.149 1.558-1.749 1.558-1.749 3.359-4.582h2c-2.544 5.537-5.502 9.184-11 12-6.37 1.339-12.932 1.15-19.41 1.043-3.084-.043-6.159 0-9.242.05-16.383.043-16.383.043-22.192-5.03-3.799-4.348-4.354-7.099-4.468-12.875l-.114-3.708c.644-5.263 3.24-7.482 7.176-10.793L50 300c-1.309-3.122-1.309-3.122-4-5l-1.5 2.625c-2.792 4.086-6.011 7.22-10.5 9.375-5.267.82-9.502.999-14-2l3.035.027c8.873.05 8.873.05 16.34-4.214 5.08-5.77 3.94-14.996 4.23-22.264l.114-2.506.092-2.28C44 272 44 272 45 271"/><path fill="#2A3541" d="M162 48h8v7h9v9h7v16h-1V65h-6v16l-9 1-1-25-7-1z"/><path fill="#575B5F" d="M79 253h18v8h57v11h-1v-10H97v8h-9v17h-1v-26h-8z"/><path fill="#4B7772" d="M103 47q7.767-.037 15.533-.055 2.64-.008 5.282-.02 3.802-.017 7.603-.023l2.374-.015c3.864 0 7.453.169 11.208 1.113l-4 1v6l4 1h-2l-1 8h-2v-9l-2 1c-2.884.072-5.742.093-8.625.063l-2.43-.014q-2.972-.02-5.945-.049v8h-10v-8h9v-8h-17z"/><path fill="#15171C" d="M171 86c4.31.718 7.163 1.307 11 3l-4 1v24h9V91h1c.087 3.937.14 7.874.188 11.813l.076 3.392.029 3.252.048 3C188 115 188 115 186.607 116.783 185 118 185 118 183 119c-.91 2.344-.91 2.344-1.625 5.063-.26.919-.52 1.838-.79 2.785L180 129h5v1h-7l-1-14h-6z"/><path fill="#273C4E" d="M161 139v7h-49c-1.245-2.49-.777-3.41 0-6a31695 31695 0 0 1 22.231-.573q4.07-.105 8.14-.208l2.51-.067A565 565 0 0 1 161 139"/><path fill="#E3E3E3" d="M60 62h1c.93 3.082 1.4 4.853 1 8-1.706 2.132-1.706 2.132-3.922 4.492-5.68 7.52-5.427 15.364-5.34 24.513.012 2.797-.082 5.577-.183 8.372-.132 9.667.606 16.274 7.398 23.51a500 500 0 0 0 3.27 3.112C66.28 136.956 67.118 139.83 68 144c.625 1.354 1.272 2.7 2 4-2.169-.506-4-1-6-2a164 164 0 0 0-8.687-.375l-2.397-.113c-6.273-.094-9.082 1.554-13.916 5.488h-2l-1 3c-1.312 1.438-1.312 1.438-3 3l-2.187 2.188L29 161l1-5h2l.758-1.773c1.407-2.522 2.93-3.978 5.117-5.852l2.055-1.79c4.969-3.806 8.711-3.842 14.82-3.71l2.402.027c1.95.024 3.899.06 5.848.098-.648-5.96-1.497-7.997-6-12-3.892-3.528-6.297-6.413-6.875-11.75-.08-2.082-.115-4.166-.125-6.25l-.078-4.441a402 402 0 0 1 .05-12.257c.025-2.083.002-4.168-.027-6.251.126-8.157 2.055-12.367 7.243-18.63C59.624 68.167 60 65.999 60 62"/><path fill="#567573" d="M193 253h1v16h7v1h-7v8h-8v9h-8v-9h-8v-8l23-1z"/><path fill="#B23F3E" d="M95 187h16l1 9h-8v16h-9z"/><path fill="#181B22" d="M30 212h8v8h8l-.062-2.937C46 214 46 214 47 213h6v15H32c-2.053-4.106-2.222-5.802-2.125-10.25l.055-3.266z"/><path fill="#3B5D5E" d="M137 212h9v1h-8v15l10-1v-7h5v8h9v9h-25z"/><path fill="#42BF75" d="M120 90h8v6l17 1v9h8v8c-6.152.098-6.152.098-8 0-1-1-1-1-1.062-4.062L144 107h-8v7h-1c-.098-6.152-.098-6.152 0-8 1-1 1-1 4.563-1.062L143 105v-6l-1.793.035-2.394.028-2.356.035C134 99 134 99 129 98v11h-7v4h8v7h13v-4h-6v-1h8v6h-17v-7h-7v-7h7V97h-8z"/><path fill="#2F4A57" d="M209 204c4.833-.083 9.237.047 14 1l.184 2.555.254 3.32c.08 1.09.162 2.181.246 3.305.146 2.767.146 2.767 1.316 4.82h3c.844-3.98 1.447-7.97 2-12l-4-1h5v15h6v32h-1v-31l-7 1-2 5h-3v-6l-8-1v-8h-7z"/><path fill="#13171C" d="M218 180h8v27h4c.323 8.239.323 8.239-2 12l-5 1-1-15-4-1z"/><path fill="#DFDFDF" d="M196 129h2c-1.536 3.68-3.782 5.988-6.625 8.75l-2.477 2.422L187 142l1.845-.035c21.09-.224 21.09-.224 28.885 6.765L220 151q2.559 2.192 5.125 4.375c3.727 3.33 3.727 3.33 4.875 5.625.103 2.103.183 4.208.25 6.313.396 5.934 1.385 7.642 5.75 11.687 1.905 5.685 2.06 11.371 1.875 17.313-.094 5.234.85 7.502 4.125 11.687 1.545 3.253 2.986 6.542 4 10l-1 2c-3.48-3.72-4.87-7.107-6.191-11.914-.65-2.155-.65-2.155-2.334-3.42-1.951-2.204-1.857-3.499-1.881-6.412l-.067-2.787-.027-2.905a397 397 0 0 0-.094-5.683l-.021-2.545c-.464-2.814-1.613-4.146-3.385-6.334v-2l-3-1-.043-2.668c.07-7.44.07-7.44-3.52-13.52L222 157v-2h-2v-2l-2.125-.687C215 151 215 151 212.688 148.469c-4.876-4.154-11.5-3.253-17.563-3.281l-3.82-.077A679 679 0 0 0 182 145l1.198-1.393c2.228-2.593 4.454-5.185 6.63-7.822l1.422-1.722 1.453-1.778C194 131 194 131 196 131z"/><path fill="#111517" d="M46 155h16v8H46v17h-8v-18h8z"/><path fill="#101317" d="M88 288h7v32H54v-8h3v-5h7v7l3.43-.035q2.222-.015 4.445-.027l2.262-.026c5.636-.025 5.636-.025 7.863 1.088l-1 3 13 1v-30h-6z"/><path fill="#14191E" d="M186 253h7v16c-3.496.7-5.994 1.122-9.426 1.098l-2.412-.01-2.475-.026-2.533-.013q-3.077-.02-6.154-.049v-9h16z"/><path fill="#436374" d="M137 180h1v7h8v1h-8v8c-4.312.029-8.625.047-12.937.063l-3.733.025-3.545.01-3.285.016C112 196 112 196 111 195v-8h26z"/><path fill="#1D2730" d="M77 269h10l-1 18h-7v6h-1l-1-5-12-1-1-5h7v-4h7z"/><path fill="#345A5E" d="M94 155h9l1 16H81v-7l13-1z"/><path fill="#65A6B4" d="m29 229 24 1v7H37v8h-9z"/><path fill="#223645" d="M135 73h18v8h-15l.063 3.938A59 59 0 0 1 138 89c-1 1-1 1-3.066 1.098L128 90v-9l8-1-1-1z"/><path fill="#232B39" d="M21 245c2-.043 4-.04 6 0l1 1c3.003.142 5.992.042 9 0v15h8v1h-8l.063 3.563c.006 3.911-.42 7.582-1.063 11.437h-6v-16h6v-9l-3.027.035-3.91.028-3.903.035C22 252 22 252 21 251c-.04-2-.043-4 0-6"/><path fill="#101418" d="M154 261h8v9h8v16h-8v-14h-8z"/><path fill="#2B3A46" d="M177 227h1v18h8v9l-24-1v-8h15z"/><path fill="#56877C" d="M37 162h1v18h16v7l-7 1-1 7h-9z"/><path fill="#181A20" d="M86 90h9c.125 2.875.125 2.875 0 6l-2 2c-.167 3.583-.167 3.583 0 7h-8l-1 8h-2v3h-2c-.087-3.604-.14-7.208-.187-10.812l-.077-3.104-.029-2.979-.048-2.745c.402-2.784 1.178-3.636 3.341-5.36l2 3z"/><path fill="#2B4853" d="M229 237v16h-13v-15c7-1 7-1 13-1"/><path fill="#DF241C" d="M103 213h25v8h-25z"/><path fill="#D9D9DA" d="M103 271h39l1 2c-8.771.894-17.437 1.125-26.25 1.063l-3.738-.014A2946 2946 0 0 1 104 274c-.712 3.369-.712 3.369-1 7 2.292 2.792 2.292 2.792 5 5 1.16 3.478 1.113 6.188 1.098 9.855l-.005 2.005c-.005 2.11-.018 4.218-.03 6.327q-.009 2.148-.014 4.295-.017 5.259-.049 10.518l-2 1 .003-2.826c-.01-3.488-.046-6.974-.1-10.461a318 318 0 0 1-.023-4.513c.355-9.972.355-9.972-3.935-18.563L100 281c0-2.625 0-2.625 1-5z"/><path fill="#4F8172" d="M104 171h41c1.51 3.019 1.175 5.673 1 9l-2 3v2l3 1v26h-1v-25h-8l-1-7-17-1v-1l16-1 2-5h-34z"/><path fill="#191E24" d="M36 229q4.25-.04 8.5-.062l2.398-.026c5.13-.02 10.025.349 15.102 1.088l-1 13-3.75.438c-2.226.274-4.322.58-6.5 1.125C49 245 49 245 45 245v-7h-7l-1 4v-5h16v-7H36z"/><path fill="#D2D2D2" d="M92 28c9.084-.21 18.168-.369 27.254-.466 4.22-.047 8.438-.11 12.657-.213 4.079-.098 8.156-.152 12.235-.175q2.326-.024 4.648-.098c7.847-.237 13.793-.257 19.988 5.257A142 142 0 0 1 173 37l2.264 2.168C177 41 177 41 177 43c-2.837-1.31-5.088-2.756-7.437-4.812l-1.684-1.458C166 35 166 35 163.789 32.433c-3.379-2.948-4.867-3.069-9.288-3.096l-3.925-.057q-2.11.008-4.22.02l-4.36-.02a891 891 0 0 0-9.132.013c-3.884.023-7.766-.004-11.65-.045a740 740 0 0 0-9.006-.012 330 330 0 0 1-4.292-.023c-7.711-.078-13.53-.087-19.429 5.258L87 36l-2.723 2.492c-4.391 4.473-8.663 8.993-12.746 13.75C66.141 58.43 66.141 58.43 63 60c.419-4.42 3.448-6.75 6.5-9.625 3.703-3.332 3.703-3.332 6.5-7.375h2l.688-1.703C80.369 38.354 82.47 36.5 85 34.25l2.688-2.422C90 30 90 30 92 30z"/><path fill="#181316" d="M138 188h8v24h-8z"/><path fill="#0F1518" d="M94 115v7h-4l1 5-2 1 64 1v1H86v-7h-7l1-7c4.672-1.206 9.215-1.094 14-1"/><path fill="#6E6870" d="M178 90h8v24h-8z"/><path fill="#151B21" d="M210 163h7v17h-15v-9h8z"/><path fill="#2D4B5F" d="m116.225 154.886 2.904.016 3.135.01 3.298.025 3.311.014q4.064.018 8.127.049v8h-24c0-7.949 0-7.949 3.225-8.114"/><path fill="#2D424D" d="M47 187h7l-1 26-7-1v-16h-9v-1h9l-.062-3.437C46 188 46 188 47 187"/><path fill="#1B1E22" d="M186 154q4.344-.04 8.688-.062l2.474-.026c4.083-.016 7.855.058 11.838 1.088v8h-23z"/><path fill="#314E52" d="M78 56h7l-1 16h68v1q-14.03.034-28.06.052-6.514.007-13.027.023-6.284.016-12.566.02-2.4.003-4.801.01-3.355.01-6.71.009l-3.862.006C80 73 80 73 78 72v-7h-7v-1h7z"/><path fill="#3B4D57" d="M194 287h1v18l3 1h-3l.063 2.938C195 312 195 312 194 313a92 92 0 0 1-5.062.063l-2.786-.028L184 313l2-1v-6h-8v-8h-7v-1h16v8h7z"/><path fill="#4D636C" d="M85 47h9v1h-8v8l16-1v1h-7c1.184 1.416 1.184 1.416 4.563 1.063L103 57v7H85v-8h-7v8h-1v-9h8z"/><path fill="#1DC05D" d="M97 99h5v21h-6v-7h-9v-6l10-1z"/><path fill="#485C60" d="M77 100h1v23h8v8h-1v-7h-6v7l7 1v6h-8v-6l-8-1v-8l7-1z"/><path fill="#13181C" d="M62 253h10v8h4v8H64v-13h-2z"/><path fill="#12191E" d="M96 213h7v8h25v1l-2.156.044c-3.22.075-6.438.171-9.656.268l-3.393.069-3.252.107-3 .08c-2.936.246-2.936.246-5.543 3.432h36v2H96z"/><path fill="#0F1317" d="M203 230h8l-1 23-7-1z"/><path fill="#181B20" d="M162 287c.029 3.125.047 6.25.063 9.375l.025 2.695.01 2.578.016 2.38C162 306 162 306 161 308a225 225 0 0 0-1 6l2 1h-2v4h-4v-31c5-1 5-1 6-1"/><path fill="#557475" d="M79 124h6v7l8 1-2 6h61v1H86v8h-1v-8h-7v-1h8v-6l-7-1z"/><path fill="#2D4756" d="M96 237h16v1H97l1 4 1-3h22v5c-1 1-1 1-3.317 1.114l-3.03-.016-3.272-.01-3.443-.025-3.456-.014A2762 2762 0 0 1 96 245z"/><path fill="#425F67" d="M163 253c3.646-.029 7.292-.047 10.938-.062l3.154-.026 2.998-.01 2.777-.016C185 253 185 253 186 254q.061 3.5 0 7c-8.446.38-14.404-.202-22-4-.625-2.062-.625-2.062-1-4"/><path fill="#585B61" d="M19 230h1l2 21 14 1v9h-6v-8h-9v8h-1v-10h-6v35h7v1h-8v-37h6z"/><path fill="#578D7C" d="M80 163h7v1h-6v7h6v9H72v-9h8z"/><path fill="#202935" d="M87 140h25v6H87z"/><path fill="#4B6B6A" d="M103 47h37v1h-12l-1 2-4-1-1 5h6v1l-6 1-1 8h-10v-8h9v-8h-17z"/><path fill="#638280" d="M63 256h1v13l7.617-.195C74 269 74 269 76 271c.125 2.625.125 2.625 0 5h-4l-1 6h-7v-12h-9v-1h8z"/><path fill="#EB271F" d="M97 189h7l-1 22h-6z"/><path fill="#DFDFDF" d="M57 129c4.096 1.517 6.69 4.392 9 8 1.188 3.625 1.188 3.625 2 7 .625 1.354 1.272 2.7 2 4-2.169-.506-4-1-6-2a164 164 0 0 0-8.687-.375l-2.397-.113c-6.273-.094-9.082 1.554-13.916 5.488h-2l-1 3c-1.312 1.438-1.312 1.438-3 3l-2.187 2.188L29 161l1-5h2l.758-1.773c1.407-2.522 2.93-3.978 5.117-5.852l2.055-1.79c4.969-3.806 8.711-3.842 14.82-3.71l2.402.027c1.95.024 3.899.06 5.848.098-.602-5.885-1.576-8.03-6-12z"/><path fill="#43A874" d="M96 81h8v7h8l-1 9h-7v-7h-8z"/><path fill="#29434D" d="M103 47v9H86v-8c5.74-.835 11.2-1.09 17-1"/><path fill="#56837A" d="M186 163h8v17h-8z"/><path fill="#2C4654" d="M162 163h8v17h-8z"/><path fill="#273B4C" d="M153 56q3.969-.04 7.938-.062l2.287-.026c1.925-.009 3.85.036 5.775.088 1 1 1 1 1.125 4C170 63 170 63 169 64c-5.674.995-10.321.913-16 0z"/><path fill="#D9D9D9" d="M105 321h2c-2.55 5.542-5.477 9.204-11 12-6.43 1.278-13.052 1.024-19.575.878-3.116-.066-6.225-.061-9.341-.048q-2.985-.024-5.97-.06l-2.804.002c-6.16-.18-9.007-1.316-13.31-5.772l2-2 1.376 1.962c3.973 3.086 7.71 2.65 12.612 2.64l2.96.026q3.098.017 6.195.003c3.149-.006 6.293.04 9.441.092q3.015.006 6.03.004l2.835.055c5.831-.081 8.97-1.118 13.19-5.202 1.56-1.746 1.56-1.746 3.361-4.58"/><path fill="#18191D" d="M55 270h9v16h-8z"/><path fill="#2D4F63" d="M78 212c5.778-.12 11.28.168 17 1v7H78z"/><path fill="#1EA44F" d="M136 107h8l1 8-2 1v4h-13v-4l6-2z"/><path fill="#609181" d="M103 48h17v7l-17 1z"/><path fill="#DDD" d="m27 162 2 1c.021 1.52-.01 3.042-.062 4.563l-.036 2.566c-1.02 3.247-1.864 3.813-4.402 5.934-3.352 3.136-4.06 5.31-4.402 9.87a207 207 0 0 0-.035 6.505l-.05 3.373A371 371 0 0 0 20 204h3c.688 2.313.688 2.313 1 5l-3 3c-.73 3.61-.73 3.61-1 7h-2c-.18-3.947-.094-6.598 2-10h2l-1.973-2.309c-3.038-4.57-2.573-9.444-2.465-14.754l-.021-2.97c.079-8.912.079-8.912 3.459-12.967l2.125-1.75c2.511-3.014 2.48-5.491 2.7-9.324C26 163 26 163 27 162"/><path fill="#272F3B" d="m79 228 2 2 1-2h5l-1 17h-7c-.893-5.936-.97-11.07 0-17"/><path fill="#232D3B" d="M217 262h8l-1 16h-7z"/><path fill="#2A3946" d="M217 163h1v41l4 1-13-1v-8c2.906-1.257 4.796-2 8-2l-.254-1.957c-1.054-9.75-.409-19.292.254-29.043"/><path fill="#151920" d="M77 269h10l-1 2a221 221 0 0 0-.562 7.625l-.131 2.14Q85.149 283.384 85 286h-6z"/><path fill="#D6302B" d="M131 196h7v16h-7z"/><path fill="#284052" d="M146 155h16v7h-16z"/><path fill="#1B151E" d="M95 196v16h-7v-15c6-1 6-1 7-1"/><path fill="#50696E" d="M57 306h21v7H64v-6h-7z"/><path fill="#555558" d="M226 206h5v15h6v32h-1v-31l-7 1-2 5h-3l.063-2.875c.163-3.032.163-3.032-1.063-5.125l2-3v2h3c.844-3.98 1.447-7.97 2-12z"/><path fill="#252936" d="m130 211 7 1q.039 3.468.063 6.938l.035 3.902C137 226 137 226 136 227c-3 .125-3 .125-6 0l-1-1c.09-2.535.237-5.036.438-7.562l.158-2.155q.196-2.642.404-5.283"/><path fill="#383B3F" d="M225 180h1v27h4c.323 8.239.323 8.239-2 12-2.582.633-2.582.633-5 1q-.04-3.437-.062-6.875l-.036-3.867C223 206 223 206 224 204c.153-1.812.25-3.628.316-5.445l.127-3.262.12-3.418.13-3.441q.16-4.217.307-8.434"/><path fill="#588081" d="M53 230v7H37v-6c5.37-.682 10.585-1.115 16-1"/><path fill="#DDD" d="m202 77 2 1c1.31 3.927 1.202 7.7 1.238 11.797l.025 2.627q.02 2.754.032 5.508c.017 2.794.061 5.587.105 8.38q.015 2.68.026 5.36l.053 2.513c-.021 5.75-1.253 9.046-4.479 13.815h-2c1.875-4.875 1.875-4.875 3-6 .093-1.412.117-2.83.114-4.244v-2.73l-.016-2.967-.005-3.023c-.005-3.2-.018-6.399-.03-9.599q-.008-3.244-.014-6.49Q202.032 84.973 202 77"/><path fill="#56595B" d="M94 39h68v8h8v1h-8v7h-1c-.907-5.747-.869-8.917 0-15H95v7h-1z"/><path fill="#0E0E12" d="M14 251h6l-1 14-2-1c-1.147 2.293-1.197 3.8-1.316 6.352l-.127 2.578-.12 2.695-.13 2.719Q15.147 281.67 15 285h7v1h-8z"/><path fill="#5A8379" d="M162 287h8v10h-6l1 8h-3z"/><path fill="#532227" d="M104 196h27l.063 7.375.027 2.318c.021 5.085.021 5.085-1.09 7.307h5v1h-5v5l-2 1v-7H96v-1h33l1-15h-26z"/><path fill="#2B3C45" d="M223 237h6v16h-6z"/><path fill="#182228" d="M138 188h8v24h-1l-1-12-5 1c-1.102-4.41-1.077-8.484-1-13"/><path fill="#548E7D" d="M46 163h16v17l-4-1h3v-15l-6 2-1 5h-8z"/><path fill="#507D76" d="M216 230h13v7h-13z"/><path fill="#2D3B43" d="M170 278h8v9h-7v10h-1v-10h-8v-1h8z"/><path fill="#B93A38" d="M103 213h25v8h-25zm2 1v5h22v-5z"/><path fill="#243543" d="M87 196h7v1h-6v15h8v25h-1v-8h-6l4-1-1-6-12-1v-1h15v-7h-8z"/><path fill="#479C76" d="M128 81h10c.098 6.152.098 6.152 0 8-1 1-1 1-3.066 1.098L128 90z"/><path fill="#4E596A" d="M21 269h9v8h6v-7h1v8l-16-1z"/><path fill="#181D1F" d="M154 261h8v11h-8z"/><path fill="#31C36F" d="M144 97h1v9h8v8c-6.152.098-6.152.098-8 0-1-1-1-1-1.062-4.062L144 107h-7v-1h7z"/><path fill="#101116" d="M31 262h5v15h-6c-.185-10.558-.185-10.558 1-15"/><path fill="#42585D" d="M193 253h1v16h7v1h-7v8h-8c-.25-5.625-.25-5.625 2-9h5z"/><path fill="#D3D4D3" d="M196 129h2c-2.273 5.445-6.837 8.956-11 13l18 1 1 2h-24l6-7 1.828-2.215 1.422-1.722 1.453-1.778C194 131 194 131 196 131z"/><path fill="#C87471" d="M185 99h1v15h-7a758 758 0 0 1-.062-4.937l-.036-2.778C179 104 179 104 180 103a100 100 0 0 1 5 0z"/><path fill="#141A21" d="M162 48h8v8h8v8h-1v-7c-1.763.03-1.763.03-3.562.063-3.912.006-7.583-.42-11.438-1.063z"/><path fill="#24303D" d="M51 206h1v7l-5 1-1 6h-8v-8c8.429-1.286 8.429-1.286 13 0z"/><path fill="#344D6F" d="M87 187h8v9c-6.152.098-6.152.098-8 0-1-1-1-1-1.125-3.937C86 189 86 189 87 187"/><path fill="#577876" d="M77 261h10v8c-6.625.125-6.625.125-10-1z"/><path fill="#1B2530" d="M96 245h12v7h37v1q-8.518.037-17.035.055-2.9.008-5.8.02c-2.772.013-5.545.018-8.317.023l-2.636.015c-2.071 0-4.142-.05-6.212-.113-1-1-1-1-1.062-4.062L104 246h-8z"/><path fill="#CCC" d="M246 221h1q.149 7.552.22 15.106.03 2.568.082 5.136c.048 2.465.071 4.93.089 7.395l.062 2.308c.002 5.081-1.04 7.37-4.453 11.055-.616 3.078-.616 3.078-.625 6.25-.102 3.203-.102 3.203-.375 5.75l-2 1a209 209 0 0 1-.312-6l-.176-3.375c.495-3.677.831-4.27 2.957-7 4.257-6.262 3.318-14.335 3.344-21.625q.034-2.33.076-4.66c.062-3.78.095-7.56.111-11.34"/><path fill="#607D79" d="m178 277 8 1v9h-8z"/><path fill="#314453" d="m116.225 154.886 2.904.016 3.135.01 3.298.025 3.311.014q4.064.018 8.127.049v8h-24c0-7.949 0-7.949 3.225-8.114M114 156v6h17l2-4h3v-2z"/><path fill="#1F2F3A" d="M37 237h16v7c-2.892.826-4.887 1-8 1v-7h-7l-1 4z"/><path fill="#25394B" d="M94 155h9v8h-9z"/><path fill="#0A0C0E" d="M47 155h15v8c-5.152.09-9.92-.153-15-1l1-4v3l10-1-1-2c-2.356-.468-2.356-.468-5.062-.625l-2.786-.227L47 157z"/><path fill="#4BA57A" d="M145 88h8v9h-8z"/><path fill="#3A6163" d="M111 56h9v8h-9z"/><path fill="#6F9195" d="m29 229 17 1v1h-9v6h-8z"/><path fill="#12151A" d="M71 221h8c2.104 5.13 2.218 9.561 2 15h-1v-8h-9z"/><path fill="#355E67" d="M146 162h16v8q-3.5.061-7 0c-1-1-1-1-1.062-4.062L154 163h-8z"/><path fill="#5E7072" d="M63 256h1v13l7.617-.195C74 269 74 269 76 271c.125 2.625.125 2.625 0 5h-4l-1-6h-6v12h-1v-12h-9v-1h8z"/><path fill="#4E4B56" d="M137 180h1v7h8v1h-8v8h-6v-1h5v-7h-24v8l-2-1v-8h26z"/><path fill="#334F61" d="M175.188 122.75 178 123v8h-8v6h-1a225 225 0 0 1-.187-4.75l-.106-2.672c.51-4.484 1.948-6.473 6.48-6.828"/><path fill="#283946" d="M171 297h16v8h-1v-7h-2l1 7h-7v-7h-7z"/><path fill="#E4E5E5" d="M205 143c9.399 1.443 17.751 9.181 24 16 .781 2.273.781 2.273 1 4-3.726-1.242-5.393-3.111-8-6v-2h-2v-2l-2.125-.687c-3.491-1.594-5.96-3.833-8.875-6.313-2.216-1.279-2.216-1.279-4-2z"/><path fill="#131417" d="M210 279h6l-2 1 1.063 2.063c1.163 3.646.665 6.222-.063 9.937l-5 1z"/><path fill="#E3E3E3" d="M16 218v3l-1.875 1.375c-2.718 2.079-3.16 3.335-4.125 6.625-.203 3.678.003 7.348.166 11.025.05 1.992-.048 3.986-.166 5.975l-3 2c-.088-3.208-.14-6.416-.187-9.625l-.077-2.738C6.678 230.33 6.932 226.545 10 222c3.188-2.375 3.188-2.375 6-4"/><path fill="#100D0E" d="M187 91h1c.087 3.937.14 7.874.188 11.813l.076 3.392.029 3.252.048 3C188 115 188 115 186.607 116.783 185 118 185 118 183 119c-.91 2.344-.91 2.344-1.625 5.063-.26.919-.52 1.838-.79 2.785L180 129h5v1h-7c.114-1.605.242-3.209.375-4.812.07-.894.14-1.787.21-2.708C179 120 179 120 181 117l-2-2 7-1z"/><path fill="#1E3642" d="M47 187h7v9l-3 1-2 2v-3h-2z"/><path fill="#DDD" d="m86 33 1 3-1.941 1.906c-4.691 4.642-9.23 9.329-13.528 14.336C66.141 58.43 66.141 58.43 63 60c.419-4.42 3.448-6.75 6.5-9.625 3.703-3.332 3.703-3.332 6.5-7.375h2l.625-1.625C80.58 37.998 83.182 35.695 86 33"/><path fill="#041F0E" d="M104 98h8v1h-7v6l2.875-.125C111 105 111 105 113 107c.328 2.715.13 5.252 0 8-1 1-1 1-4.562 1.063L105 116v6h-1v-8h7v-7h-7z"/><path fill="#1B252D" d="M174.563 80.938 178 81l-1 5h-6v28h-1q-.037-6.809-.055-13.617-.008-2.317-.02-4.636a1925 1925 0 0 1-.023-6.65l-.015-2.105c0-1.664.051-3.329.113-4.992 1-1 1-1 4.563-1.062"/><path fill="#6E9487" d="M154 253h9l-1 8h-8z"/><path fill="#718986" d="M37 162h1v18h9c-3 2-3 2-8 3l-1 11h7v-6h1v7h-9z"/><path fill="#568D7B" d="M154 171h8v8h-8z"/><path fill="#52947B" d="M186 163h8v8h-8z"/><path fill="#3E676A" d="M194 163h8v8h-8z"/><path fill="#1D2626" d="m46 155 1 2h11l1 4-2.371-.035-3.066-.028-3.06-.035c-2.443-.188-2.443-.188-3.503 1.098h7v1H38v-1h8z"/><path fill="#366065" d="M145 56h8v8h-8z"/><path fill="#141B21" d="M86 48h8v8h-8z"/><path fill="#2B4853" d="M162 306h9v7h-9z"/><path fill="#10151A" d="M87 262h9v7h-9z"/><path fill="#2D3F4E" d="M87 254h9v7h-9z"/><path fill="#202D38" d="m162 226 8 1-2 1v9h-6z"/><path fill="#365A61" d="M162 170h7v9h-7z"/><path fill="#22384A" d="M170 114c6.875.875 6.875.875 8 2q.061 3.5 0 7h-8z"/><path fill="#3AAA6F" d="M120 90h8v6h7v1h-15z"/><path fill="#50AA7F" d="M86 90h9c.043 2 .04 4 0 6-1 1-1 1-2.848 1.098L86 97z"/><path fill="#251116" d="M96 213h7v8h25v1a34204 34204 0 0 1-17.783.645l-3.799.136-3.507.127q-2.955.093-5.911.092c1.75-4.875 1.75-4.875 4-6l1-3h-6z"/><path fill="#EA3129" d="M97 189h7l-1 22h-1l-1-17-4 4z"/><path fill="#3A5761" d="m79 253 8 1v7h-8z"/><path fill="#DA605D" d="M104 188h7l1 8h-8z"/><path fill="#0F151B" d="M71 65h7v7h-6v8h-1z"/><path fill="#E2E2E2" d="m142 317 2 1 .625 2.125c2.126 4.445 5.195 7.288 9.375 9.875 3.855.936 7.547.982 11.5.938l3.07.048q3.715.053 7.43.014v1c-3.727.285-7.456.522-11.187.75l-3.198.246c-7.846.446-7.846.446-11.853-1.855C148 329 148 329 148 327l-3-1c-2.466-3.379-3-4.706-3-9"/><path fill="#10151B" d="M170 131h8v7h-8z"/><path fill="#12161A" d="M78 56h7v8h-7z"/><path fill="#E6E6E6" d="M43 291h1c.433 3.087.696 5.02 0 8-2.784 3.343-6.104 6.052-10 8-1.81.122-3.624.175-5.437.188l-2.934.042C23 307 23 307 20 305l3.035.027c8.873.05 8.873.05 16.34-4.214 2.5-3.096 3.526-5.771 3.625-9.813"/><path fill="#2D404D" d="M222 205h1v16h-7v-6l4 1v-4h2z"/><path fill="#2B4352" d="M196 171h6v9l-6 1z"/><path fill="#775F61" d="M178 90h2l1 9h4v4l-5 1-1 10h-1z"/><path fill="#3A5460" d="M210 204c4.161-.082 7.947.018 12 1v7h-1v-6h-6l1 6h-6z"/><path fill="#3BA267" d="M111 90h1v8l-8 1-1 7h-1v-7h-5v7h-2v-9h16z"/><path fill="#456D6B" d="M96 57h7v7h-8z"/><path fill="#1C272E" d="M186 278h7v7c-2.375 1.063-2.375 1.063-5 2l-2-1z"/><path fill="#E4E4E4" d="M192 56c1.938.5 1.938.5 4 2 1.022 5.026 1.107 9.887 1 15l4 2c-3 1-3 1-5.145.527C194 74 194 74 193.425 70.63a145 145 0 0 1-.113-4.067C193.19 61.207 193.19 61.207 192 56"/><path fill="#020205" d="M202 196h1v22h9c1.76 3.326 2.108 4.592 1.125 8.313L212 229h-1v-10h-9zm11 22 2 1Z"/><path fill="#2B4354" d="M202 180h8l-1 7h-7z"/><path fill="#303941" d="M177 155h1v7h7v1l-7 1-1 3-2-1c-2.117.892-2.117.892-4 2v-5h-9v-1h15z"/><path fill="#191B20" d="m224 207 5 1c.143 7.429.143 7.429-1 11h-3c-1.262-2.525-1.099-4.312-1.062-7.125l.027-2.758z"/><path fill="#3B5569" d="M113 188h7v2h-2c.776 3.075.776 3.075 3 5-1 1-1 1-4.562 1.063L113 196z"/><path fill="#E6E6E6" d="m27 162 2 1c.12 8.533.12 8.533-2.59 12.082a73 73 0 0 1-3.816 3.348c-1.842 1.815-2.201 3.05-2.594 5.57h-2c.14-2.949.252-5.224 2.367-7.418L22 175.188c2.819-2.53 3.461-4.236 3.813-8l.082-2.333C26 163 26 163 27 162"/><path fill="#699483" d="M163 262h7v7h-7z"/><path fill="#496B70" d="M46 230h7v7h-7z"/><path fill="#203343" d="M131 220c3.125-.187 3.125-.187 6 0 .043 2 .04 4 0 6-1 1-1 1-4.062 1.063L130 227c-.625-1.812-.625-1.812-1-4z"/><path fill="#12161C" d="M71 124h7v7h-7z"/><path fill="#0D1813" d="M137 107h7v7h-7z"/><path fill="#58B388" d="M96 82h7v7h-7z"/><path fill="#4E617A" d="M30 253h6v8h-6z"/><path fill="#325450" d="M137 212h9v1h-8v15h5l-3 2c-.736 3.568-.736 3.568-1 7h-2z"/><path fill="#46786A" d="M73 171h6v8h-6z"/><path fill="#466F6D" d="M164 297h6v8c-1.666.043-3.334.04-5 0-1-1-1-1-1.062-4.562z"/><path fill="#4A6066" d="m76 260 3 1h-2v7l3 1-2 1v8h-7v-5l1 3h4l-2-7h2z"/><path fill="#07090B" d="M55 270h9v13h-1l-1-11h-4l-1 13h7v1h-8z"/><path fill="#33545E" d="M171 254h7v7l-7-1z"/><path fill="#0F1316" d="M169 155h8v7h-9l4-1v-4h-3z"/><path fill="#D5D5D5" d="M4 248h2l-1 4H3v34H2q-.075-7.394-.11-14.789-.016-2.516-.04-5.031c-.025-2.41-.036-4.82-.045-7.23l-.032-2.274c0-3.779.076-5.45 2.227-8.676"/><path fill="#537E78" d="M38 187c4.75.875 4.75.875 7 2v5h-7z"/><path fill="#E3E3E3" d="M161 29c5 .375 7.513 2.97 10.813 6.438l1.521 1.525C177 40.719 177 40.719 177 43c-6.707-3.112-11.49-8.26-16-14"/><path fill="#DCDCDD" d="M5 288c3.695 1.232 4.624 2.708 7 5.75l2.063 2.61c1.814 2.473 3.408 4.983 4.937 7.64-3.534-1.482-5.6-3.455-8.125-6.312l-2.07-2.301C6.99 292.988 5.972 290.83 5 288"/><path fill="#496A69" d="M223 230h6v7h-6z"/><path fill="#427368" d="M81 164h6v7h-6z"/><path fill="#10191E" d="M79 132h7v6h-7z"/><path fill="#5D8286" d="M79 124h6v7h-6z"/><path fill="#1D5735" d="M85 106h1v8h9v7h9v1H94v-7l-12 1v-3h2z"/><path fill="#50706D" d="M183 270h10v1l-6 1-1 6h-6l2-1c.407-2.322.744-4.657 1-7"/><path fill="#1B1D22" d="m49 243 1 2 2-1c1.874-.07 3.75-.084 5.625-.062l3.04.027L63 244v1H53v7h-9v-1l6-1-1.062-2.375c-.31-.866-.62-1.732-.938-2.625z"/><path fill="#3B4F5B" d="M71 64h12l-1 8h-4v-7h-7z"/><path fill="#ECECEC" d="M3 252h1a61657 61657 0 0 1 .781 26.27l.067 2.206C4.93 283.32 5 286.156 5 289l-2-1z"/><path fill="#26262E" d="M171 114h15l-4 3c-2.024 3.035-2.321 4.194-2.625 7.688l-.227 2.449L179 129h-1l-1-13h-6z"/><path fill="#D8D8D8" d="M105 321h2c-1.493 3.536-3.498 5.725-6.312 8.313l-2.301 2.175C96 333 96 333 93.207 332.73L91 332v-1l2.625-.687c5.056-1.967 8.332-4.748 11.375-9.313"/><path fill="#E3E3E3" d="M45 271h2l-1 18h-2q-.04-4.22-.062-8.437l-.026-2.432c-.009-2.044.036-4.088.088-6.131z"/><path fill="#0D0D0F" d="M39 252h2l1 2 3-1v8h-8l1.563-1.125c1.8-1.907 1.8-1.907 1.124-5.062z"/><path fill="#323842" d="M36 253h1v8h8v1h-8v8h-1v-8h-5v5h-1v-6h6z"/><path fill="#1E242B" d="M85 271h1v16h-7v6h-1l-2-7c5.625-1.125 5.625-1.125 9 0z"/><path fill="#1C202C" d="M31 262h5l-1 7-3 1-2-1z"/><path fill="#29434B" d="M211 230h5v7h-5z"/><path fill="#3F6867" d="M140 48h5l-4 1v6l4 1h-2l-1 8h-2z"/><path fill="#DFDFDF" d="M143 274c2.468 1.152 4.048 2.048 6 4v4h-2l-2 5h-2l-1 4c.432-4.578.699-6.849 4-10-.285-3.042-1.26-4.39-3-7"/><path fill="#22353D" d="M170 278h8v7h-2l-1-4-4-1v6h-1z"/><path fill="#4A4A4E" d="M203 252h6l2 7-2 1 6 1v1h-8v-8z"/><path fill="#0A1818" d="M58 157h2l2 6c-5.152.09-9.92-.153-15-1l1-4v3l10-1z"/><path fill="#263942" d="M64 282h7v5h-6z"/><path fill="#0F1418" d="m182 116 3 1-2 2a79 79 0 0 0-1.625 5.125c-.26.91-.52 1.82-.79 2.758L180 129h5v1h-7c.088-1.584.196-3.168.313-4.75l.175-2.672c.576-2.901 1.588-4.37 3.512-6.578"/><path fill="#101620" d="M178 246h7v6h-6z"/><path fill="#5E857F" d="M211 245h4v8h-4z"/><path fill="#17232F" d="M45 196h1v15l-5 1 2-1c.476-2.54.84-5 1.125-7.562l.262-2.155q.316-2.64.613-5.283"/><path fill="#DADADA" d="M178 43c4.526 3.678 8.394 7.41 12 12h-3a174 174 0 0 1-4-5l-2.75-2.125L178 46z"/><path fill="#192029" d="M88 229h6v1h-5l1 5-2 1c-.467 2.126-.467 2.126-.625 4.563l-.227 2.503L87 245h-1a399 399 0 0 1-.125-5.187l-.07-2.918c.204-3.023.926-5.163 2.195-7.895"/><path fill="#1E2A36" d="M51 206h1v7l-5 1-1 6h-1v-7h-6l-1 2v-3c8.429-1.286 8.429-1.286 13 0z"/><path fill="#3A9A67" d="M144 97h1v9h8v1h-8v6h-1v-6h-7v-1h7z"/><path fill="#3F4346" d="M193 253h1v16h7v1c-8.429 1.286-8.429 1.286-13 0v-1h5z"/><path fill="#2C4850" d="M47 187h7v8l-3-1-1-6z"/><path fill="#38494C" d="M137 180h1v7h8v1h-8v8h-6v-1h5l-.562-3.562c-.52-4.05-.188-7.437.562-11.438"/><path fill="#498371" d="M188 171h6l-2 1v6h-4z"/><path fill="#4B9C7D" d="M50.563 164.938 53 165v5l-6 1a100 100 0 0 1 0-5c1-1 1-1 3.563-1.062"/><path fill="#191A1F" d="m58 157 1 4c-6.055.195-6.055.195-8 0l-2-2c3.435-2.29 4.985-2.178 9-2"/><path fill="#30B670" d="M146 90h5v6h-5z"/><path fill="#181C21" d="M96 91h6v5h-6z"/><path fill="#D0D0D0" d="M228 163h2q.252 2.656.5 5.313l.281 2.988C231 174 231 174 231 177l-3-2c-.293-2.82-.293-2.82-.187-6.125l.082-3.32z"/><path fill="#629888" d="M186 163h8v8h-2l-1-6-4-1v6h-1z"/><path fill="#17BC59" d="M136 116h7v4h-7l-1-2z"/><path fill="#1BBD5C" d="M103 109h7v4h-8z"/><path fill="#46676C" d="M163 253h7v6l-6-1z"/><path fill="#202026" d="M141 41h19v4h-2v-2l-17-1z"/><path fill="#456166" d="M187 271h3l1 7h-5c-.043-2-.04-4 0-6z"/><path fill="#1C222B" d="M170 131h6v1h-5l5 1v4h-6z"/><path fill="#335463" d="M152 131c2.875-.125 2.875-.125 6 0l2 2-2 2h-4l-2 4z"/><path fill="#265049" d="M46 172h5c-.812 3.438-.812 3.438-2 7l-3 1z"/><path fill="#D2D2D2" d="M212 321h2c-1.59 4.136-4.605 7.232-8 10h-2c1.24-3.719 3.186-5.323 6-8z"/><path fill="#394956" d="m162 306 2 1v4l7 1v1h-9z"/><path fill="#CECECD" d="M206 298h2a187 187 0 0 1 4 6l2 2-2 1c-2-1.375-2-1.375-4-3v-2h-2z"/><path fill="#191F25" d="M26 238h1l2 8-4 1c-2.25-1.437-2.25-1.437-4-3 1-2 1-2 4-3z"/><path fill="#5D8E85" d="M53 180h1v7l-11 2v-3c3.283-1.642 6.425-.519 10 0z"/><path fill="#D9D9D9" d="m37 149 1 2c-2.869 3.506-5.732 6.853-9 10l1-5h2l.813-1.812c1.172-2.16 2.38-3.546 4.187-5.188"/><path fill="#AF6463" d="M180 103h5v4h-4l-1 4z"/><path fill="#E8E8E8" d="m86 33 1 3-6 6-3-1z"/><path fill="#445F64" d="M160 229h1l1 8h-9v-2h6z"/><path fill="#0C0D11" d="m210 218 3 1c1.374 2.854.953 4.163.063 7.25L212 229h-1zm3 0 2 1Z"/><path fill="#1C1E27" d="M140 206h4v5h-5z"/><path fill="#141A27" d="M82 116h9l-2 3-7-1z"/><path fill="#608981" d="M84 64h5l-3 6 2 1h-4z"/><path fill="#171A1E" d="M157 263h4l-1 5-4 1a100 100 0 0 1 0-5z"/><path fill="#D4D3D3" d="M57 129c3.794 1.49 5.683 3.69 8 7v2c-2 0-2 0-3.508-1.46-.533-.633-1.067-1.264-1.617-1.915l-1.633-1.898C57 131 57 131 57 129"/><path fill="#2DB66C" d="M88 91h6l-1 4h-5z"/><path fill="#D7D7D7" d="M195 65h1l.25 3.875c.209 2.178.209 2.178.75 4.125 1.92 1.59 1.92 1.59 4 2l-3 1-3-2c-.293-2.164-.293-2.164-.187-4.625l.082-2.477z"/><path fill="#E7E7E7" d="M241 274h1c-.087 1.46-.195 2.918-.312 4.375l-.176 2.46C241 283 241 283 238 285q.462-2.47.938-4.937l.527-2.778C240 275 240 275 241 274"/><path fill="#E3E3E3" d="M237 190c1.073 3.272.893 5.43.063 8.75l-.59 2.422L236 203h-1v-11h2z"/><path fill="#457276" d="M80 125h4v5h-4z"/><path fill="#708C89" d="M185 278h1v8h-7c3-2 3-2 5-2z"/><path fill="#DDD" d="M9 238h1c.293 6.055.293 6.055 0 8l-3 2c.458-3.47.891-6.674 2-10"/><path fill="#386A63" d="M223 231h4l-1 5h-3z"/><path fill="#D6D6D6" d="m69 51 1 3c-4.75 4.875-4.75 4.875-7 6 .472-4.248 2.967-6.2 6-9"/><path fill="#E0E0E0" d="M246 253c.813 1.688.813 1.688 1 4-2.437 2.75-2.437 2.75-5 5 .645-3.485 2.101-6.028 4-9"/><path fill="#1B2D35" d="M224 238h3v6h-3z"/><path fill="#D5D5D6" d="M236 197h1l.875 2.813c1.012 3.285 1.012 3.285 3.125 6.187l-1 3c-2.976-3.068-3.965-4.462-4.25-8.812z"/><path fill="#3A816C" d="m61 164-1 3h-2a89 89 0 0 0-4 2c.375-1.937.375-1.937 1-4 2-1 2-1 6-1"/><path fill="#E1E1E1" d="M101 282c3.243.56 4.93 1.413 7 4v2c-3.367-1.393-4.986-2.979-7-6"/><path fill="#1E2532" d="M37 246v7l-1-4h-5v-2c2.076-.553 3.844-1 6-1"/><path fill="#DFDFDF" d="M196 129h2c-1.393 3.367-2.979 4.986-6 7v-3l4-2z"/><path fill="#172E3B" d="M153 56h7l-1.875.625c-2.972 1.923-3.255 4.04-4.125 7.375h-1z"/><path fill="#D6D6D6" d="M170 37c3.243.56 4.93 1.413 7 4v2c-3.367-1.393-4.986-2.979-7-6"/></svg>