<?xml version="1.0" encoding="UTF-8"?>
<svg version="1.1" xmlns="http://www.w3.org/2000/svg" width="335" height="353">
<path d="M0 0 C0.74378906 0.31710938 1.48757812 0.63421875 2.25390625 0.9609375 C11.9955849 5.39451985 20.47137352 12.11802306 28 19.625 C28.52746826 20.15085693 29.05493652 20.67671387 29.59838867 21.21850586 C33.16556147 24.88836394 36.10779566 28.77865763 39 33 C41.83313078 32.68520769 43.66906369 32.23786047 46 30.5625 C47.91812265 28.10490536 49.09948269 25.86358296 50.4375 23.0625 C52.74487333 18.23410767 55.06814705 14.46592648 60 12 C65.5139174 11.63240551 69.37032495 11.6329636 74 15 C77.31573459 19.68698754 78.80529218 25.22190288 80.2890625 30.703125 C80.99904086 32.99690124 81.75236514 34.94743943 83 37 C84.99107248 38.01765927 86.99218823 39.01577854 89 40 C90.70586575 41.62652316 92.3777546 43.29006566 94 45 C97.79365563 47.52910375 99.73991097 47.1126927 104.25 46.9375 C110.79171916 46.79620511 115.31530658 47.17241752 120.62890625 51.25 C123.20404823 54.5367909 122.69610248 58.20092238 122.625 62.22265625 C121.77787995 67.34243803 119.59267883 71.12916113 117.07275391 75.60498047 C113.36534832 82.50290169 112.38919063 89.4130959 111.47265625 97.11328125 C111 101 111 101 110 104 C109.64168965 109.3234681 110.52056929 113.07341691 112.5 118 C114.47505247 122.91568614 115.41970077 126.6837903 115 132 C112.56523417 136.86953166 110.13656401 139.18709505 105 141 C98.56751301 142.15784766 94.21100682 139.29531965 88.76953125 136.21484375 C85.63509962 134.83993791 85.11341005 134.99916572 82 136 C81.32427444 136.21556549 80.64854889 136.43113098 79.9523468 136.65322876 C76.89082927 137.91777509 74.59693115 138.90400513 72.97177124 141.88787842 C72.25602422 144.2784781 71.77638804 146.6261981 71.35546875 149.0859375 C71.17413895 149.97930817 70.99280914 150.87267883 70.8059845 151.79312134 C70.23396099 154.64846954 69.71001419 157.51022242 69.1875 160.375 C68.81894146 162.26234375 68.44722548 164.14907382 68.07226562 166.03515625 C67.35228525 169.67769091 66.64952208 173.3228081 65.96240234 176.97167969 C64.75655249 183.33969157 63.39920758 189.67168946 62 196 C62.97839844 196.82242188 63.95679688 197.64484375 64.96484375 198.4921875 C80.62774946 211.77295547 92.44565222 225.09909727 99 245 C99.38671875 246.16208984 99.38671875 246.16208984 99.78125 247.34765625 C101.10189972 251.85697995 101.19886764 255.46142963 100 260 C92.98319083 270.30440507 78.10752602 275.61474171 67.3125 281.25 C66.18513428 281.84031006 65.05776855 282.43062012 63.89624023 283.03881836 C58.4379365 285.85620013 53.10646169 288.3493267 47.32421875 290.4296875 C43.50150895 291.91322738 43.50150895 291.91322738 40.7512207 294.7734375 C40.06210625 296.8369425 39.72630723 298.71295775 39.5 300.875 C38.4004655 308.14567189 37.03514256 313.73852123 30.8125 318.375 C25.40022559 321.06375303 20.12965834 321.39043736 14.25 320.3125 C8.66455403 318.05683913 6.13593272 315.70332742 3.6875 310.25 C3.1116084 308.83872414 2.54452438 307.42367268 2 306 C0.85144531 306.20496094 -0.29710937 306.40992188 -1.48046875 306.62109375 C-53.75191205 315.7749571 -106.32663076 305.8506071 -153 281 C-153.88574707 280.52981445 -154.77149414 280.05962891 -155.68408203 279.57519531 C-158.60684951 278.01750829 -161.52344849 276.44892807 -164.4375 274.875 C-165.34935059 274.38418945 -166.26120117 273.89337891 -167.20068359 273.38769531 C-184.05267556 264.18673572 -184.05267556 264.18673572 -186 259 C-187.39544868 244.34778887 -179.97220047 229.36292263 -170.90625 218.23046875 C-170.2771875 217.49441406 -169.648125 216.75835937 -169 216 C-168.56816406 215.46318604 -168.13632813 214.92637207 -167.69140625 214.37329102 C-164.18467964 210.09859593 -160.49655145 206.76396859 -156 203.5625 C-155.35861084 203.09803467 -154.71722168 202.63356934 -154.05639648 202.1550293 C-147.6526662 197.60128293 -140.91413322 193.7180778 -134 190 C-136.6898528 187.09159666 -139.62748152 185.38924325 -143.0625 183.4765625 C-145.57620182 181.56087845 -146.60849833 179.84557307 -148 177 C-148.24194336 173.80883789 -148.24194336 173.80883789 -148.08984375 170.22265625 C-146.99872615 153.98662111 -146.99872615 153.98662111 -152.79956055 139.5324707 C-154.88892154 137.4172072 -157.05348019 135.43653329 -159.32617188 133.52001953 C-162.31975287 130.80151964 -164.67956228 127.58097463 -167.125 124.375 C-167.58567871 123.79355225 -168.04635742 123.21210449 -168.52099609 122.61303711 C-170.68329535 119.86364232 -172.60325206 117.2172284 -174 114 C-174.66 114 -175.32 114 -176 114 C-177.76654364 111.93148309 -179.4236475 109.85399534 -181.0625 107.6875 C-182.04834776 106.40407804 -183.03534401 105.12153754 -184.0234375 103.83984375 C-184.5194043 103.19515137 -185.01537109 102.55045898 -185.52636719 101.88623047 C-188.39443482 98.21514191 -191.41210542 94.66798027 -194.41796875 91.109375 C-196 89 -196 89 -196 87 C-196.66 87 -197.32 87 -198 87 C-199.296875 85.6105957 -199.296875 85.6105957 -200.75 83.67578125 C-201.2759375 82.97646484 -201.801875 82.27714844 -202.34375 81.55664062 C-202.8903125 80.81607422 -203.436875 80.07550781 -204 79.3125 C-204.5465625 78.59126953 -205.093125 77.87003906 -205.65625 77.12695312 C-210.42719073 70.72477164 -212.58796108 66.48581065 -211.52734375 58.41796875 C-209.75931218 50.3112166 -201.48590086 43.41067481 -194.75 39.0625 C-189.79398772 36.04179004 -184.76921043 35.30389783 -179 36 C-170.95385035 38.06311529 -166.76075137 44.67589958 -162 51 C-161.12962913 52.12266658 -160.2571889 53.24373152 -159.3828125 54.36328125 C-155.13121185 59.82483284 -151.00121221 65.35289908 -147 71 C-146.86013672 70.44763672 -146.72027344 69.89527344 -146.57617188 69.32617188 C-139.75903523 42.86866727 -128.0335229 19.5295433 -103.73046875 5.06640625 C-72.5005972 -12.63410016 -32.70340641 -14.82554424 0 0 Z " fill="#2E2F2F" transform="translate(213,18)"/>
<path d="M0 0 C23.27430744 -0.45138051 45.58415502 7.0175956 62.72265625 23.125 C71.72265625 33.02365872 71.72265625 33.02365872 71.72265625 36.125 C68.97475599 37.04096675 67.31653138 37.24717647 64.484375 37.265625 C63.66388672 37.28496094 62.84339844 37.30429687 61.99804688 37.32421875 C60.28473807 37.35783839 58.5710585 37.37628401 56.85742188 37.37890625 C50.75513847 37.56020943 47.95985555 38.67897211 43.72265625 43.125 C41.92651911 46.71727428 42.00453825 50.27430425 42.72265625 54.125 C44.86479097 58.33804756 47.35357764 62.75592139 50.72265625 66.125 C50.51362981 67.90172474 50.29624696 69.67770627 50.046875 71.44921875 C49.37602373 76.98576232 49.09593575 82.56191682 48.72265625 88.125 C33.67404581 90.56917019 18.64907734 90.39685382 3.44384766 90.32061768 C0.74342717 90.30983869 -1.95694281 90.3101948 -4.65738106 90.31062126 C-40.72404928 90.30928559 -40.72404928 90.30928559 -57.27734375 88.125 C-62.72274376 87.69531745 -66.82869501 87.5104729 -71.27734375 91.125 C-72.41358494 93.39748238 -72.54181218 94.90802764 -72.65234375 97.4375 C-72.70132813 98.19675781 -72.7503125 98.95601563 -72.80078125 99.73828125 C-72.0053028 103.36542553 -70.30681082 105.16916488 -67.27734375 107.125 C-63.03939583 108.9432906 -58.68668881 110.28581992 -54.27734375 111.625 C-53.03597656 112.01518311 -51.79460937 112.40536621 -50.515625 112.80737305 C-41.99280968 115.4379054 -33.42710324 117.71862875 -24.67578125 119.453125 C-23.88429687 119.61941406 -23.0928125 119.78570312 -22.27734375 119.95703125 C-21.25640625 120.15389526 -21.25640625 120.15389526 -20.21484375 120.35473633 C-17.43790249 121.45872444 -16.14660913 122.78500862 -14.27734375 125.125 C-13.79632568 128.30145264 -13.79632568 128.30145264 -13.82324219 132.09667969 C-13.82265808 132.7897673 -13.82207397 133.48285492 -13.82147217 134.19694519 C-13.82425206 136.48077015 -13.85533668 138.76327897 -13.88671875 141.046875 C-13.89418155 142.63298835 -13.8998743 144.21911094 -13.90386963 145.80523682 C-13.9191231 149.97460503 -13.95840188 154.14341356 -14.00268555 158.31256104 C-14.04364477 162.56897409 -14.061882 166.82547781 -14.08203125 171.08203125 C-14.12489692 179.429944 -14.19314415 187.77740233 -14.27734375 196.125 C-16.85126912 195.65267916 -19.42465538 195.17769712 -21.99780273 194.70117188 C-22.72345177 194.56829773 -23.4491008 194.43542358 -24.1967392 194.29852295 C-43.70901768 190.67375761 -71.99538209 180.40696166 -86.27734375 166.125 C-86.39391062 163.36997306 -86.44536539 160.63969373 -86.4543457 157.88354492 C-86.4609169 157.01819626 -86.4674881 156.1528476 -86.47425842 155.26127625 C-86.49407729 152.37600622 -86.50568541 149.49078897 -86.515625 146.60546875 C-86.51970053 145.61635309 -86.52377605 144.62723743 -86.52797508 143.60814857 C-86.54889216 138.35261873 -86.56315803 133.09711528 -86.57250977 127.84155273 C-86.58346521 122.46142583 -86.61772007 117.08172515 -86.65768147 111.70174694 C-86.68412058 107.529275 -86.69222646 103.35689926 -86.69579124 99.18435097 C-86.70060311 97.20522562 -86.71205841 95.22610295 -86.73082924 93.24706078 C-86.96350343 67.0438081 -82.24992954 43.28689449 -63.79296875 23.54296875 C-56.54882943 16.58004602 -48.49383517 11.10197918 -39.27734375 7.125 C-38.64828125 6.84140625 -38.01921875 6.5578125 -37.37109375 6.265625 C-25.51783028 1.34350712 -12.66634698 0.48310263 0 0 Z " fill="#737372" transform="translate(166.27734375,23.875)"/>
<path d="M0 0 C0.49306641 1.12535156 0.49306641 1.12535156 0.99609375 2.2734375 C8.5136589 18.4494449 21.22751955 29.52787691 37.921875 35.71191406 C51.28722012 40.3677683 63.8779743 42.35636938 78.0144043 42.31567383 C80.29850313 42.31251933 82.58129505 42.3360356 84.86523438 42.36132812 C94.27571434 42.40228473 102.85074216 41.41774036 112 39 C112.83120361 38.79060791 113.66240723 38.58121582 114.51879883 38.36547852 C116.6086752 37.82176523 118.6795696 37.23824347 120.75 36.625 C121.46099854 36.41657471 122.17199707 36.20814941 122.90454102 35.9934082 C127.95696737 34.45486363 132.59075745 32.49571841 137.21484375 29.91796875 C139 29 139 29 141 29 C140.66509476 38.2098942 139.46399477 47.21303261 138.0625 56.3125 C137.80774902 57.97514893 137.80774902 57.97514893 137.54785156 59.67138672 C136.67875548 65.18807757 135.71489348 70.64561182 134.42602539 76.08056641 C133.77052238 79.03389858 133.3829413 82.00029313 133 85 C107.97895583 92.59213741 76.53593417 93.19203648 51.015625 87.44873047 C48.92358381 86.98298777 46.82573237 86.58361303 44.71875 86.19140625 C18.00789082 81.00630462 -23.12171254 68.87828746 -43 49 C-42.7850615 35.88875174 -34.80196108 24.2884094 -26 15 C-19.53209603 9.23156228 -9.08366695 0 0 0 Z " fill="#707070" transform="translate(86,223)"/>
<path d="M0 0 C4.26378457 4.0072642 8.05645182 8.45718495 11.40234375 13.2578125 C11.40234375 13.9178125 11.40234375 14.5778125 11.40234375 15.2578125 C8.65444349 16.17377925 6.99621888 16.37998897 4.1640625 16.3984375 C3.34357422 16.41777344 2.52308594 16.43710937 1.67773438 16.45703125 C-0.03557443 16.49065089 -1.749254 16.50909651 -3.46289062 16.51171875 C-9.56517403 16.69302193 -12.36045695 17.81178461 -16.59765625 22.2578125 C-18.39379339 25.85008678 -18.31577425 29.40711675 -17.59765625 33.2578125 C-15.45552153 37.47086006 -12.96673486 41.88873389 -9.59765625 45.2578125 C-9.80668269 47.03453724 -10.02406554 48.81051877 -10.2734375 50.58203125 C-10.94428877 56.11857482 -11.22437675 61.69472932 -11.59765625 67.2578125 C-26.64626669 69.70198269 -41.67123516 69.52966632 -56.87646484 69.45343018 C-59.57684469 69.44265135 -62.27717388 69.44300211 -64.97757149 69.44344902 C-79.87977676 69.44278398 -94.72443078 69.21513662 -109.59765625 68.2578125 C-106.56032461 38.81874306 -100.51598943 7.01076916 -76.73828125 -13.15625 C-74.44275417 -14.85695072 -72.07108338 -16.31521031 -69.59765625 -17.7421875 C-70.58765625 -18.4021875 -71.57765625 -19.0621875 -72.59765625 -19.7421875 C-45.92412318 -23.35893775 -20.87278972 -17.25303526 0 0 Z " fill="#8A8A89" transform="translate(226.59765625,44.7421875)"/>
<path d="M0 0 C3.32870202 1.24826326 3.79350722 2.88003376 5.5 5.9375 C10.67590042 10.71525423 14.4552817 11.09821331 21.375 11.1875 C23.16550781 11.22617188 23.16550781 11.22617188 24.9921875 11.265625 C28.81685891 10.90786064 31.16926184 9.78251531 34.5 7.9375 C35.16 7.9375 35.82 7.9375 36.5 7.9375 C36.83 6.9475 37.16 5.9575 37.5 4.9375 C43.05896609 5.57336094 45.01875014 8.13042156 48.5 12.2578125 C54.66403246 20.51665287 57.63165075 27.58756827 57.6875 37.875 C57.70167969 39.05964844 57.71585937 40.24429688 57.73046875 41.46484375 C57.4927933 45.04608915 56.99372092 47.67551132 55.5 50.9375 C53.546875 52.5546875 53.546875 52.5546875 51.25 53.8125 C44.25442938 58.12437659 40.90188766 63.92744815 37.41796875 71.1796875 C35.41185166 75.02118831 33.42676262 76.61899721 29.3515625 78.01953125 C17.57763032 80.82569156 5.23707006 79.64585352 -5.125 73.3125 C-14.12845543 66.85419098 -20.01054606 58.40586183 -23.5 47.9375 C-23.56970052 45.54259014 -23.58448003 43.14582309 -23.5625 40.75 C-23.55347656 39.47769531 -23.54445312 38.20539063 -23.53515625 36.89453125 C-23.52355469 35.91871094 -23.51195312 34.94289062 -23.5 33.9375 C-22.90832031 33.63457031 -22.31664062 33.33164063 -21.70703125 33.01953125 C-15.09433198 29.51361402 -9.84733994 25.84723245 -6.5 18.9375 C-5.96998578 15.28012917 -6.01580419 11.60125791 -5.97265625 7.91210938 C-5.91336029 5.91523078 -5.71583159 3.92356567 -5.5 1.9375 C-2.5 -0.0625 -2.5 -0.0625 0 0 Z " fill="#6B6966" transform="translate(253.5,66.0625)"/>
<path d="M0 0 C0.23074219 0.61488281 0.46148437 1.22976562 0.69921875 1.86328125 C2.74914576 6.96917698 2.74914576 6.96917698 6.3125 11.0625 C13.04074752 13.40956309 18.08211192 11.44500395 24.3515625 8.77734375 C27.38157624 7.88800343 29.01839954 8.02818142 32 9 C32.99 9.99 32.99 9.99 34 11 C33.8984375 13.703125 33.8984375 13.703125 33.375 17.25 C33.23384766 18.22126831 33.23384766 18.22126831 33.08984375 19.2121582 C31.90030787 27.12312251 30.41489977 34.98718861 28.93359375 42.84765625 C28.01129439 47.79388024 27.31232699 52.75340294 26.78515625 57.7578125 C24.50171996 64.27867037 15.31666464 67.14467992 9.44921875 69.9765625 C-2.37135139 75.4712503 -17.79106787 82 -31 82 C-31.09274137 72.95955631 -31.16378568 63.91927675 -31.20724869 54.87846088 C-31.22811042 50.68027742 -31.25640168 46.48241978 -31.30175781 42.28442383 C-31.34526685 38.23195894 -31.36914775 34.17980715 -31.37950897 30.12712669 C-31.38689134 28.58215596 -31.40130763 27.03720208 -31.42292023 25.49236488 C-31.45202308 23.32567139 -31.45595337 21.16026617 -31.45410156 18.9934082 C-31.46298401 17.76096878 -31.47186646 16.52852936 -31.48101807 15.25874329 C-30.90823946 11.37835176 -29.74041303 9.75401095 -27 7 C-24.49804688 5.78979492 -24.49804688 5.78979492 -21.71875 4.98046875 C-20.71199219 4.68076172 -19.70523438 4.38105469 -18.66796875 4.07226562 C-17.62253906 3.78029297 -16.57710937 3.48832031 -15.5 3.1875 C-14.45457031 2.87619141 -13.40914062 2.56488281 -12.33203125 2.24414062 C-8.02731712 0.99020661 -4.51354578 0 0 0 Z " fill="#8A8A89" transform="translate(210,139)"/>
<path d="M0 0 C6.97555795 1.38743501 13.93798545 2.80473023 20.875 4.375 C22.25945312 4.66890625 22.25945312 4.66890625 23.671875 4.96875 C25.00605469 5.27425781 25.00605469 5.27425781 26.3671875 5.5859375 C27.16237793 5.7617334 27.95756836 5.9375293 28.77685547 6.11865234 C31.70977889 7.2813861 33.03229866 8.52074016 35 11 C35.48101807 14.17645264 35.48101807 14.17645264 35.45410156 17.97167969 C35.45468567 18.6647673 35.45526978 19.35785492 35.45587158 20.07194519 C35.45309169 22.35577015 35.42200707 24.63827897 35.390625 26.921875 C35.3831622 28.50798835 35.37746945 30.09411094 35.37347412 31.68023682 C35.35822065 35.84960503 35.31894187 40.01841356 35.2746582 44.18756104 C35.23369898 48.44397409 35.21546175 52.70047781 35.1953125 56.95703125 C35.15244683 65.304944 35.0841996 73.65240233 35 82 C32.44132299 81.53347727 29.88335954 81.0635064 27.32568359 80.59155273 C26.60622055 80.46074059 25.88675751 80.32992844 25.14549255 80.19515228 C19.81630329 79.20781079 14.72376684 77.91793928 9.625 76.0625 C8.5421875 75.70381836 8.5421875 75.70381836 7.4375 75.33789062 C2.38997217 73.54667991 2.38997217 73.54667991 0.80471802 71.32440186 C-0.27501637 68.20562416 -0.23909823 65.51291561 -0.22705078 62.21191406 C-0.22734283 61.53833359 -0.22763489 60.86475311 -0.22793579 60.17076111 C-0.22654641 57.95224974 -0.21100401 55.73407744 -0.1953125 53.515625 C-0.19158097 51.97434676 -0.18873466 50.43306613 -0.18673706 48.89178467 C-0.17911161 44.84097714 -0.15947253 40.7903137 -0.1373291 36.73956299 C-0.1168472 32.6037389 -0.10773033 28.46789147 -0.09765625 24.33203125 C-0.07622555 16.22128815 -0.04210281 8.11066201 0 0 Z " fill="#8B8B8A" transform="translate(117,138)"/>
<path d="M0 0 C0.74378906 0.31710938 1.48757812 0.63421875 2.25390625 0.9609375 C11.9955849 5.39451985 20.47137352 12.11802306 28 19.625 C28.52746826 20.15085693 29.05493652 20.67671387 29.59838867 21.21850586 C33.16556147 24.88836394 36.10779566 28.77865763 39 33 C41.83313078 32.68520769 43.66906369 32.23786047 46 30.5625 C47.91812265 28.10490536 49.09948269 25.86358296 50.4375 23.0625 C52.74487333 18.23410767 55.06814705 14.46592648 60 12 C65.5139174 11.63240551 69.37032495 11.6329636 74 15 C77.31573459 19.68698754 78.80529218 25.22190288 80.2890625 30.703125 C80.99904086 32.99690124 81.75236514 34.94743943 83 37 C84.99107248 38.01765927 86.99218823 39.01577854 89 40 C90.70586575 41.62652316 92.3777546 43.29006566 94 45 C97.79365563 47.52910375 99.73991097 47.1126927 104.25 46.9375 C110.79171916 46.79620511 115.31530658 47.17241752 120.62890625 51.25 C123.20404823 54.5367909 122.69610248 58.20092238 122.625 62.22265625 C121.77787995 67.34243803 119.59267883 71.12916113 117.07275391 75.60498047 C113.36534832 82.50290169 112.38919063 89.4130959 111.47265625 97.11328125 C111 101 111 101 110 104 C109.64168965 109.3234681 110.52056929 113.07341691 112.5 118 C114.47505247 122.91568614 115.41970077 126.6837903 115 132 C112.56523417 136.86953166 110.13656401 139.18709505 105 141 C98.56751301 142.15784766 94.21100682 139.29531965 88.76953125 136.21484375 C85.63509962 134.83993791 85.11341005 134.99916572 82 136 C81.32427444 136.21556549 80.64854889 136.43113098 79.9523468 136.65322876 C76.89082927 137.91777509 74.59693115 138.90400513 72.97177124 141.88787842 C72.25602422 144.2784781 71.77638804 146.6261981 71.35546875 149.0859375 C71.17413895 149.97930817 70.99280914 150.87267883 70.8059845 151.79312134 C70.23396099 154.64846954 69.71001419 157.51022242 69.1875 160.375 C68.81894146 162.26234375 68.44722548 164.14907382 68.07226562 166.03515625 C67.35228525 169.67769091 66.64952208 173.3228081 65.96240234 176.97167969 C64.75655249 183.33969157 63.39920758 189.67168946 62 196 C62.97839844 196.82242188 63.95679688 197.64484375 64.96484375 198.4921875 C80.62774946 211.77295547 92.44565222 225.09909727 99 245 C99.38671875 246.16208984 99.38671875 246.16208984 99.78125 247.34765625 C101.10189972 251.85697995 101.19886764 255.46142963 100 260 C92.98319083 270.30440507 78.10752602 275.61474171 67.3125 281.25 C66.18513428 281.84031006 65.05776855 282.43062012 63.89624023 283.03881836 C58.4379365 285.85620013 53.10646169 288.3493267 47.32421875 290.4296875 C43.50150895 291.91322738 43.50150895 291.91322738 40.7512207 294.7734375 C40.06210625 296.8369425 39.72630723 298.71295775 39.5 300.875 C38.4004655 308.14567189 37.03514256 313.73852123 30.8125 318.375 C25.40022559 321.06375303 20.12965834 321.39043736 14.25 320.3125 C8.66455403 318.05683913 6.13593272 315.70332742 3.6875 310.25 C3.1116084 308.83872414 2.54452438 307.42367268 2 306 C0.85144531 306.20496094 -0.29710937 306.40992188 -1.48046875 306.62109375 C-53.75191205 315.7749571 -106.32663076 305.8506071 -153 281 C-153.88574707 280.52981445 -154.77149414 280.05962891 -155.68408203 279.57519531 C-158.60684951 278.01750829 -161.52344849 276.44892807 -164.4375 274.875 C-165.34935059 274.38418945 -166.26120117 273.89337891 -167.20068359 273.38769531 C-184.05267556 264.18673572 -184.05267556 264.18673572 -186 259 C-187.39544868 244.34778887 -179.97220047 229.36292263 -170.90625 218.23046875 C-170.2771875 217.49441406 -169.648125 216.75835937 -169 216 C-168.56816406 215.46318604 -168.13632813 214.92637207 -167.69140625 214.37329102 C-164.18467964 210.09859593 -160.49655145 206.76396859 -156 203.5625 C-155.35861084 203.09803467 -154.71722168 202.63356934 -154.05639648 202.1550293 C-147.6526662 197.60128293 -140.91413322 193.7180778 -134 190 C-136.6898528 187.09159666 -139.62748152 185.38924325 -143.0625 183.4765625 C-145.57620182 181.56087845 -146.60849833 179.84557307 -148 177 C-148.24194336 173.80883789 -148.24194336 173.80883789 -148.08984375 170.22265625 C-146.99872615 153.98662111 -146.99872615 153.98662111 -152.79956055 139.5324707 C-154.88892154 137.4172072 -157.05348019 135.43653329 -159.32617188 133.52001953 C-162.31975287 130.80151964 -164.67956228 127.58097463 -167.125 124.375 C-167.58567871 123.79355225 -168.04635742 123.21210449 -168.52099609 122.61303711 C-170.68329535 119.86364232 -172.60325206 117.2172284 -174 114 C-174.66 114 -175.32 114 -176 114 C-177.76654364 111.93148309 -179.4236475 109.85399534 -181.0625 107.6875 C-182.04834776 106.40407804 -183.03534401 105.12153754 -184.0234375 103.83984375 C-184.5194043 103.19515137 -185.01537109 102.55045898 -185.52636719 101.88623047 C-188.39443482 98.21514191 -191.41210542 94.66798027 -194.41796875 91.109375 C-196 89 -196 89 -196 87 C-196.66 87 -197.32 87 -198 87 C-199.296875 85.6105957 -199.296875 85.6105957 -200.75 83.67578125 C-201.2759375 82.97646484 -201.801875 82.27714844 -202.34375 81.55664062 C-202.8903125 80.81607422 -203.436875 80.07550781 -204 79.3125 C-204.5465625 78.59126953 -205.093125 77.87003906 -205.65625 77.12695312 C-210.42719073 70.72477164 -212.58796108 66.48581065 -211.52734375 58.41796875 C-209.75931218 50.3112166 -201.48590086 43.41067481 -194.75 39.0625 C-189.79398772 36.04179004 -184.76921043 35.30389783 -179 36 C-170.95385035 38.06311529 -166.76075137 44.67589958 -162 51 C-161.12962913 52.12266658 -160.2571889 53.24373152 -159.3828125 54.36328125 C-155.13121185 59.82483284 -151.00121221 65.35289908 -147 71 C-146.86013672 70.44763672 -146.72027344 69.89527344 -146.57617188 69.32617188 C-139.75903523 42.86866727 -128.0335229 19.5295433 -103.73046875 5.06640625 C-72.5005972 -12.63410016 -32.70340641 -14.82554424 0 0 Z M-114 15 C-114.70769531 15.53753906 -115.41539063 16.07507813 -116.14453125 16.62890625 C-133.20283366 30.05348743 -141.89970176 53.1554416 -145 74 C-148.9661293 72.6779569 -149.94131994 70.77803654 -152.4375 67.4375 C-152.86708008 66.86902344 -153.29666016 66.30054687 -153.73925781 65.71484375 C-156.22610671 62.41563606 -158.67135343 59.08642843 -161.11328125 55.75390625 C-161.63543213 55.0462915 -162.15758301 54.33867676 -162.69555664 53.60961914 C-163.70835117 52.23510092 -164.71441345 50.85558855 -165.71264648 49.47045898 C-169.34538543 44.53716347 -173.01229737 39.99590088 -179 38 C-186.11909311 37.52539379 -190.90608095 38.51047444 -196.51953125 43.02734375 C-205.59981536 50.64959241 -205.59981536 50.64959241 -210.328125 61.12109375 C-210.05451755 69.23355451 -205.58749182 74.24176648 -200.54589844 80.17138672 C-198.33890967 82.78199093 -196.20105363 85.44679003 -194.05517578 88.10766602 C-192.38784699 90.17159713 -190.71097369 92.22739926 -189.03125 94.28125 C-186.62150201 97.23111391 -184.24029419 100.20180078 -181.875 103.1875 C-178.88688043 106.93987656 -175.80144392 110.60206674 -172.6875 114.25 C-168.37462745 119.3063938 -164.21189406 124.46093623 -160.14331055 129.71582031 C-159.73250244 130.24530273 -159.32169434 130.77478516 -158.8984375 131.3203125 C-158.46772949 131.89152832 -158.03702148 132.46274414 -157.59326172 133.05126953 C-155.95067315 135.12484648 -155.95067315 135.12484648 -153.69189453 137.31982422 C-147.53328461 143.83834501 -145.92184149 148.86648568 -146 157.7421875 C-146.03923139 159.11986317 -146.08091907 160.49747097 -146.125 161.875 C-146.15883376 163.96109302 -146.17960461 166.0462388 -146.18502808 168.13259888 C-146.19475241 170.00910768 -146.24103812 171.88532366 -146.28955078 173.76123047 C-145.96789731 177.35908452 -145.16424006 179.14110508 -143 182 C-140.38940653 183.86834166 -140.38940653 183.86834166 -137.4375 185.3125 C-136.46683594 185.82425781 -135.49617188 186.33601562 -134.49609375 186.86328125 C-132.15376519 188.13814889 -132.15376519 188.13814889 -130 188 C-130 188.99 -130 189.98 -130 191 C-130.72316406 191.2784375 -131.44632812 191.556875 -132.19140625 191.84375 C-155.1451428 201.29341066 -170.9950764 217.53416379 -181 240 C-183.32419549 245.88850943 -185.4954792 252.65304495 -184 259 C-181.32250351 262.82301739 -178.77439042 265.02636192 -174.703125 267.26953125 C-173.66969971 267.84445312 -172.63627441 268.419375 -171.5715332 269.01171875 C-170.47542725 269.60597656 -169.37932129 270.20023437 -168.25 270.8125 C-167.12489014 271.43125 -165.99978027 272.05 -164.84057617 272.6875 C-151.82588157 279.80524627 -138.73654499 286.36947272 -125 292 C-124.06027344 292.40734375 -123.12054688 292.8146875 -122.15234375 293.234375 C-104.02763926 300.74771145 -84.46374193 304.99373737 -65 307 C-63.14761719 307.19529297 -63.14761719 307.19529297 -61.2578125 307.39453125 C-39.67053977 309.26409875 -17.2324197 308.40376112 4 304 C4.4125 305.216875 4.825 306.43375 5.25 307.6875 C6.98746041 312.27472025 8.89655369 315.77298965 13.25 318.3125 C19.71084963 319.92771241 24.26606915 319.30111533 30.140625 316.4609375 C33.28273444 313.99213723 35.60657284 311.06731885 36.36816406 307.06542969 C36.49997775 305.67244379 36.62819804 304.27911407 36.75317383 302.88549805 C37.28085865 298.18644127 37.98093025 293.68097476 41.76416016 290.53125 C46.58836714 287.77140113 51.84674709 286.02419004 57.06054688 284.14697266 C62.25906928 282.11851267 67.14079633 279.49203904 72.0625 276.875 C73.03848145 276.36018066 74.01446289 275.84536133 75.02001953 275.31494141 C87.92374316 268.91595189 87.92374316 268.91595189 98 259 C99.96899868 245.65456449 92.63808919 231.4218093 85 221 C82.14956157 217.50686375 79.14678234 214.22673688 76 211 C75.40316406 210.36449219 74.80632812 209.72898438 74.19140625 209.07421875 C71.09166814 205.84562317 67.82993046 203.02247389 64.28125 200.29296875 C63.47751953 199.67317139 62.67378906 199.05337402 61.84570312 198.41479492 C61.23662109 197.9479126 60.62753906 197.48103027 60 197 C61.22267125 190.01833267 62.50083563 183.0489341 63.84216309 176.08903503 C64.50221893 172.65519682 65.14261232 169.21957272 65.74658203 165.77539062 C66.36556723 162.25280762 67.03256192 158.74217535 67.73043823 155.23440552 C67.99141922 153.88048968 68.23596342 152.52329165 68.46316528 151.16329956 C70.2558015 140.53509478 70.2558015 140.53509478 74.55371094 136.75244141 C81.40557184 132.78455586 81.40557184 132.78455586 85.20068359 133.29736328 C87.50392583 134.19678406 89.59209608 135.35641039 91.75 136.5625 C96.5861833 139.01976545 99.61806104 139.72975444 105 139 C108.64355647 137.38064157 111.12645605 135.54987274 113 132 C113.87910641 126.83524986 112.47709484 123.43855193 110.5 118.625 C107.01732051 110.02189372 107.47389758 104.76706134 110 96 C110.05297214 94.18779518 110.09324109 92.37520067 110.125 90.5625 C110.59002609 83.3409183 113.7036244 77.80618999 117.08984375 71.56640625 C120.46578308 65.33722738 121.76738603 61.00408539 120 54 C118.60314994 51.3530128 118.60314994 51.3530128 116 50 C111.33674719 49.01826257 107.1221461 49.02603245 102.375 49.1875 C97.39111743 49.22880289 94.8309037 48.37484373 91 45 C90.154375 44.13375 89.30875 43.2675 88.4375 42.375 C86.22564688 39.84877763 86.22564688 39.84877763 83.4375 39.25 C79.35178866 37.15476342 78.41266067 33.20080674 77 29 C76.53062805 27.06514453 76.07230945 25.12757473 75.625 23.1875 C74.62502446 19.34888422 74.18044963 18.1763485 71.25 15.3125 C66.26458055 13.29915753 62.92790428 13.2131003 57.9375 15.25 C54.01924743 18.13167782 52.57151517 22.78348979 50.57421875 27.06640625 C48.52923012 30.87729077 45.99982918 34.14619789 42 36 C39.15473256 35.86610506 38.21828446 35.2366402 36.28125 33.13671875 C35.6934375 32.32847656 35.105625 31.52023438 34.5 30.6875 C18.80444552 10.41648868 -1.57884896 -1.89981435 -27 -6 C-28.53720703 -6.27263672 -28.53720703 -6.27263672 -30.10546875 -6.55078125 C-59.8391884 -9.98044801 -90.82833315 -5.0373351 -114 15 Z " fill="#040404" transform="translate(213,18)"/>
<path d="M0 0 C4.84067929 0.64542391 8.77021282 2.67728198 13.125 4.75 C22.48530708 9.06538468 31.97692461 11.7162613 42 14 C42.73976074 14.17821289 43.47952148 14.35642578 44.24169922 14.54003906 C72.98922199 21.3019645 103.9803282 16.09398889 129.8125 2.1015625 C132 1 132 1 134 1 C133.97502368 7.79355785 133.45194261 12.99099121 128.890625 18.234375 C112.38048703 33.6529336 85.80679171 36.71454205 64.375 36.2890625 C43.42038002 35.55131109 20.96546805 29.82797773 6.1796875 14.05859375 C2.54250043 9.5692155 1.01268539 5.67103816 0 0 Z " fill="#434341" transform="translate(98,217)"/>
<path d="M0 0 C0.37511719 0.78503906 0.75023437 1.57007813 1.13671875 2.37890625 C4.03003293 8.31858146 6.9584661 13.76977966 11 19 C10.59910156 19.42667969 10.19820312 19.85335937 9.78515625 20.29296875 C-1.80370475 33.03808799 -8.94879596 46.26819795 -13 63 C-15.75865374 64.11430693 -16.81363244 64.07439799 -19.62548828 62.9519043 C-20.59728027 62.41476807 -21.56907227 61.87763184 -22.5703125 61.32421875 C-23.63121094 60.74349609 -24.69210938 60.16277344 -25.78515625 59.56445312 C-26.88730469 58.94505859 -27.98945312 58.32566406 -29.125 57.6875 C-30.23488281 57.07970703 -31.34476563 56.47191406 -32.48828125 55.84570312 C-40.67821003 51.32178997 -40.67821003 51.32178997 -43 49 C-43 35.96633198 -34.71788226 24.19968388 -26 15 C-19.53209603 9.23156228 -9.08366695 0 0 0 Z " fill="#676665" transform="translate(86,223)"/>
<path d="M0 0 C4.29 0.66 8.58 1.32 13 2 C12.49286551 10.62795908 11.15878302 18.7322067 9.21920776 27.1494751 C8.40629025 30.68041865 7.62126097 34.2176074 6.83203125 37.75390625 C6.67352188 38.46089661 6.51501251 39.16788696 6.35169983 39.89630127 C4.96001582 46.12219663 3.67306099 52.36622507 2.4375 58.625 C2.24260986 59.61089111 2.04771973 60.59678223 1.84692383 61.61254883 C1.44533173 63.64974587 1.04454843 65.6871025 0.64453125 67.72460938 C-0.5792744 73.94376717 -1.82099738 80.15935479 -3.0625 86.375 C-3.31692871 87.64947998 -3.57135742 88.92395996 -3.83349609 90.23706055 C-5.40190454 98.07248716 -7.00839859 105.89839638 -8.67211914 113.71411133 C-9.65247327 118.32326969 -10.58986261 122.9388074 -11.5 127.5625 C-13.19128223 136.07406164 -15.06224063 144.54162093 -17 153 C-17.28101563 154.23363281 -17.56203125 155.46726562 -17.8515625 156.73828125 C-18.10679687 157.81464844 -18.36203125 158.89101563 -18.625 160 C-18.95371094 161.3921875 -18.95371094 161.3921875 -19.2890625 162.8125 C-20 165 -20 165 -22 167 C-24.125 166.625 -24.125 166.625 -26 166 C-25.47990653 156.67181515 -24.44426961 147.58138174 -22.875 138.375 C-22.54203622 136.3672781 -22.20911532 134.35954884 -21.87738037 132.35162354 C-21.63873418 130.90826473 -21.39933792 129.46502977 -21.15924072 128.02191162 C-19.71107393 119.30628064 -18.33380413 110.57943329 -16.95196533 101.85308838 C-16.19896617 97.09968584 -15.44340036 92.34669193 -14.6875 87.59375 C-14.54132233 86.67457794 -14.39514465 85.75540588 -14.24453735 84.80838013 C-12.81891076 75.85070815 -11.37544217 66.89596777 -9.92285156 57.94262695 C-8.65201379 50.09379515 -7.40627213 42.24135375 -6.171875 34.38671875 C-5.69051784 31.33184174 -5.20893035 28.27700112 -4.72729492 25.22216797 C-4.41048511 23.20787338 -4.09488184 21.19338864 -3.78051758 19.17871094 C-3.34098766 16.36216017 -2.89744688 13.54626693 -2.453125 10.73046875 C-2.32105652 9.8768425 -2.18898804 9.02321625 -2.05291748 8.14372253 C-1.11372678 2.22745357 -1.11372678 2.22745357 0 0 Z " fill="#94613B" transform="translate(257,157)"/>
<path d="M0 0 C2.18359375 1.95703125 2.18359375 1.95703125 4.4375 4.8125 C5.06495117 5.59862671 5.06495117 5.59862671 5.70507812 6.40063477 C10.22297734 12.13031539 14.56588594 18.01590297 18.79516602 23.9609375 C21.37987718 27.57832449 23.85926276 31.01493673 27.1171875 34.0546875 C33.9042499 40.8417499 34.59915711 46.20398735 34.67236328 55.60229492 C34.63545433 61.74335672 34.38179818 67.87067082 34 74 C31.17394077 71.21875617 28.43693342 68.45202573 25.94921875 65.36328125 C25.41997803 64.70900146 24.8907373 64.05472168 24.34545898 63.38061523 C23.79833252 62.69813721 23.25120605 62.01565918 22.6875 61.3125 C22.11136963 60.59843994 21.53523926 59.88437988 20.94165039 59.14868164 C19.29132701 57.10159466 17.64493508 55.05141775 16 53 C15.27296875 52.09507813 14.5459375 51.19015625 13.796875 50.2578125 C12.55538454 48.7085576 11.31580519 47.15776932 10.078125 45.60546875 C7.96671265 42.95826567 5.84866673 40.316478 3.72973633 37.67529297 C2.19031535 35.75351462 0.65546089 33.82815842 -0.87890625 31.90234375 C-2.97316 29.27546267 -5.08712196 26.66623455 -7.21484375 24.06640625 C-8.22673698 22.81524526 -9.23846227 21.56394842 -10.25 20.3125 C-10.72800049 19.73661133 -11.20600098 19.16072266 -11.69848633 18.56738281 C-14.28956934 15.33801447 -15 14.29888448 -15 10 C-6.93239885 -1.06413872 -6.93239885 -1.06413872 0 0 Z " fill="#95623C" transform="translate(32,69)"/>
<path d="M0 0 C12.58106749 7.30496619 20.9093962 19.26129622 26.37109375 32.515625 C27.18233873 35.7202946 27.10033398 38.70904534 27 42 C13.95138166 49.69282754 0.80196597 56.75362454 -13 63 C-12.29318783 56.11481796 -10.85550517 49.49196395 -9.3125 42.75 C-8.77376805 40.36350036 -8.23604213 37.97677343 -7.69921875 35.58984375 C-7.42126465 34.35476074 -7.14331055 33.11967773 -6.85693359 31.84716797 C-5.40832799 25.34371294 -4.0157253 18.82856196 -2.625 12.3125 C-2.36243408 11.08305664 -2.09986816 9.85361328 -1.8293457 8.58691406 C-1.21869703 5.72479288 -0.60884912 2.86250444 0 0 Z " fill="#707070" transform="translate(270,231)"/>
<path d="M0 0 C3.69744218 2.17898543 5.76464134 4.40472879 7.5625 8.375 C9.05348665 15.07136111 6.74538307 19.98983406 3.35546875 25.71484375 C-3.01225083 35.16237542 -3.01225083 35.16237542 -7.4375 37.375 C-14.44995892 37.94979171 -14.44995892 37.94979171 -17.9609375 35.90625 C-21.29359588 32.4999998 -22.62222048 28.98589202 -24.25 24.5625 C-24.71696289 23.38977539 -24.71696289 23.38977539 -25.19335938 22.19335938 C-26.99332733 17.45805906 -27.97703747 13.51345209 -27.4375 8.375 C-21.13555609 -1.36436786 -10.82794659 -4.80793151 0 0 Z " fill="#2E2F2F" transform="translate(280.4375,97.625)"/>
<path d="M0 0 C2.86825757 2.45496397 4.00185451 4.92497007 5.3125 8.4375 C5.67988281 9.38496094 6.04726563 10.33242188 6.42578125 11.30859375 C7 14 7 14 6.10546875 16.34765625 C5.74066406 16.89292969 5.37585938 17.43820313 5 18 C3.58376784 18.05447047 2.16691809 18.09300508 0.75 18.125 C-0.43335938 18.15980469 -0.43335938 18.15980469 -1.640625 18.1953125 C-4.20731941 17.9828378 -5.7916067 17.28654105 -8 16 C-6.57250019 12.20950293 -4.83763458 8.72877544 -2.875 5.1875 C-2.33617187 4.21167969 -1.79734375 3.23585937 -1.2421875 2.23046875 C-0.83226562 1.49441406 -0.42234375 0.75835937 0 0 Z " fill="#65625F" transform="translate(276,48)"/>
<path d="M0 0 C3.625 0.1875 3.625 0.1875 6.625 2.1875 C6.29451441 7.47526943 3.14147805 11.42850622 -0.375 15.1875 C-1.035 15.1875 -1.695 15.1875 -2.375 15.1875 C-3.10226052 13.6127706 -3.80620422 12.02725721 -4.5 10.4375 C-4.89445312 9.55578125 -5.28890625 8.6740625 -5.6953125 7.765625 C-6.375 5.1875 -6.375 5.1875 -5.5546875 2.921875 C-3.70737971 0.20596554 -3.70737971 0.20596554 0 0 Z " fill="#635F5C" transform="translate(270.375,107.8125)"/>
<path d="M0 0 C3.96 0 7.92 0 12 0 C12 6.17456556 11.90306688 6.85299144 8 11 C5 10 5 10 3.61328125 7.71484375 C2.40885417 5.14322917 1.20442708 2.57161458 0 0 Z " fill="#6B6865" transform="translate(223,75)"/>
<path d="M0 0 C2.18975773 3.28463659 2.99806563 6.20696275 4 10 C-1.75 8.125 -1.75 8.125 -4 7 C-2.79618552 4.50638429 -1.54571278 2.31856917 0 0 Z " fill="#73706D" transform="translate(308,133)"/>
<path d="M0 0 C0.66 0.66 1.32 1.32 2 2 C1.48616214 4.62825112 0.8843344 7.06873141 0.125 9.625 C-0.07480469 10.33140625 -0.27460938 11.0378125 -0.48046875 11.765625 C-0.9764685 13.51343363 -1.4868942 15.25713649 -2 17 C-2.66 17 -3.32 17 -4 17 C-3.52555245 14.35323911 -3.04568672 11.70766636 -2.5625 9.0625 C-2.42779297 8.30775391 -2.29308594 7.55300781 -2.15429688 6.77539062 C-1.11328125 1.11328125 -1.11328125 1.11328125 0 0 Z " fill="#0B0B0B" transform="translate(253,309)"/>
<path d="M0 0 C2.5 1 2.5 1 4 2 C3.34 2.66 2.68 3.32 2 4 C1.34 3.67 0.68 3.34 0 3 C-3.67329964 2.86642547 -6.49852959 2.8328432 -10 4 C-10 3.01 -10 2.02 -10 1 C-6.83013832 -0.58493084 -3.45967739 -0.2940042 0 0 Z " fill="#090A0A" transform="translate(281,30)"/>
<path d="M0 0 C0.33 0.66 0.66 1.32 1 2 C-0.07674702 4.28258633 -1.19546116 6.4356434 -2.4375 8.625 C-2.77587891 9.23601562 -3.11425781 9.84703125 -3.46289062 10.4765625 C-4.30146192 11.988353 -5.14982577 13.49470399 -6 15 C-6.6796875 13.32421875 -6.6796875 13.32421875 -7 11 C-5.8203125 8.45703125 -5.8203125 8.45703125 -4.125 5.8125 C-3.57070313 4.93207031 -3.01640625 4.05164063 -2.4453125 3.14453125 C-1 1 -1 1 0 0 Z " fill="#020202" transform="translate(331,88)"/>
<path d="M0 0 C-1.75 1.5625 -1.75 1.5625 -4 3 C-6.25 2.6875 -6.25 2.6875 -8 2 C-8 1.34 -8 0.68 -8 0 C-4.94736336 -0.98120464 -3.05263664 -0.98120464 0 0 Z " fill="#090A0A" transform="translate(259,52)"/>
<path d="M0 0 C0.99 0.33 1.98 0.66 3 1 C-0.465 3.97 -0.465 3.97 -4 7 C-3.04065919 3.16263678 -2.76390737 2.40339772 0 0 Z " fill="#262726" transform="translate(213,63)"/>
</svg>
