<?xml version="1.0" encoding="UTF-8"?>
<svg version="1.1" xmlns="http://www.w3.org/2000/svg" width="287" height="256">
<path d="M0 0 C1.35467037 -0.00779232 2.70933593 -0.01646539 4.06399536 -0.02597046 C6.89324837 -0.04082575 9.72200197 -0.04036422 12.55126953 -0.02978516 C16.15151643 -0.01820815 19.74970111 -0.05205182 23.34960747 -0.0984745 C26.14494484 -0.12814721 28.93979682 -0.12966638 31.73526382 -0.12345505 C33.69932396 -0.12496114 35.66330953 -0.15254448 37.62716675 -0.18081665 C45.81388859 -0.09685689 51.6369372 1.26319971 58.0078125 6.6015625 C63.21636087 12.65293146 63.04237702 19.75847237 63.0234375 27.34375 C63.02118164 28.51534668 63.01892578 29.68694336 63.01660156 30.89404297 C63.01225098 32.23426514 63.01225098 32.23426514 63.0078125 33.6015625 C63.83168457 33.59632568 64.65555664 33.59108887 65.50439453 33.58569336 C93.1898321 33.43361788 93.1898321 33.43361788 106.4453125 33.8515625 C107.30592285 33.86566162 108.1665332 33.87976074 109.05322266 33.89428711 C115.75452471 34.16199204 121.21709249 35.84261539 126.06640625 40.63671875 C126.52144531 41.30574219 126.97648438 41.97476563 127.4453125 42.6640625 C127.91839844 43.33566406 128.39148438 44.00726563 128.87890625 44.69921875 C130.84856161 48.01832657 131.13550919 50.73653273 131.14825439 54.5088501 C131.15396454 55.52097061 131.15967468 56.53309113 131.16555786 57.57588196 C131.16723465 59.24036629 131.16723465 59.24036629 131.16894531 60.93847656 C131.17391022 62.10785263 131.17887512 63.2772287 131.18399048 64.48204041 C131.19609929 67.69091402 131.20355759 70.8997512 131.20800114 74.10864353 C131.21093427 76.114981 131.21503959 78.12131279 131.21950531 80.1276474 C131.23317886 86.40940806 131.24284559 92.69115569 131.2467072 98.97293019 C131.25118446 106.21583724 131.26871731 113.45855523 131.2977078 120.70140481 C131.31935515 126.30492926 131.32941315 131.90840066 131.33074832 137.51196647 C131.3317944 140.85623713 131.3391135 144.20018901 131.35556793 147.54444122 C131.37262894 151.27879635 131.37074757 155.01269198 131.36425781 158.74707031 C131.3734726 159.84862961 131.38268738 160.9501889 131.3921814 162.08512878 C131.34646789 170.48554344 129.7714792 176.67751352 123.84000301 182.91022491 C116.08126457 190.07249644 105.90891322 189.17169793 96.04858398 189.11914062 C94.33611457 189.12456755 92.62364983 189.13169341 90.91119385 189.14038086 C86.28105459 189.15854795 81.65127359 189.15157451 77.02112842 189.13886452 C72.16552978 189.12870411 67.30996086 189.13813847 62.45436096 189.14440918 C54.30293293 189.15167605 46.1516501 189.14212239 38.00024414 189.12304688 C28.58715226 189.10127268 19.1744069 189.10833734 9.76132339 189.1303525 C1.66593704 189.14852517 -6.42934523 189.15105591 -14.5247454 189.14059782 C-19.35393733 189.1343741 -24.18296655 189.13349651 -29.0121479 189.14674377 C-33.55216765 189.15832912 -38.09174205 189.1502277 -42.63171387 189.12716675 C-44.29412536 189.12189428 -45.95657457 189.12336833 -47.61897087 189.13221741 C-57.54240418 189.18015635 -64.85742552 189.03612967 -72.7421875 182.2265625 C-77.68304812 176.46222511 -80.1064131 172.23957541 -80.13262939 164.69464111 C-80.13833954 163.70783356 -80.14404968 162.721026 -80.14993286 161.70431519 C-80.15105072 160.6278775 -80.15216858 159.55143982 -80.15332031 158.44238281 C-80.15828522 157.30372772 -80.16325012 156.16507263 -80.16836548 154.99191284 C-80.18298238 151.22116493 -80.18978853 147.4504591 -80.1953125 143.6796875 C-80.20106455 141.05898029 -80.20682228 138.4382731 -80.21258545 135.81756592 C-80.22215252 131.0224344 -80.22805186 126.22731195 -80.2310822 121.43217206 C-80.23555904 114.38794452 -80.25309225 107.34391139 -80.2820828 100.29974294 C-80.3063604 94.18725167 -80.31402927 88.07484027 -80.31575775 81.96230316 C-80.31878214 79.36761161 -80.32680343 76.77292084 -80.33994293 74.1782608 C-80.35702877 70.54479823 -80.35511656 66.91180695 -80.34863281 63.27832031 C-80.3578476 62.20997955 -80.36706238 61.14163879 -80.3765564 60.04092407 C-80.33735267 53.01495005 -79.62905119 47.18819699 -75.34375 41.359375 C-74.77398437 40.82054687 -74.20421875 40.28171875 -73.6171875 39.7265625 C-72.77027344 38.89511719 -72.77027344 38.89511719 -71.90625 38.046875 C-67.1824667 34.47993659 -62.36968972 34.27456495 -56.62890625 34.1875 C-55.83692337 34.16813385 -55.04494049 34.1487677 -54.22895813 34.1288147 C-51.71264231 34.06929018 -49.19628006 34.02274292 -46.6796875 33.9765625 C-44.9680796 33.93835769 -43.25649041 33.89930451 -41.54492188 33.859375 C-37.36083001 33.7636112 -33.17664819 33.6794807 -28.9921875 33.6015625 C-28.99387939 32.76347046 -28.99387939 32.76347046 -28.99560547 31.90844727 C-28.90463812 12.7479554 -28.90463812 12.7479554 -24.05078125 6.2578125 C-16.4321828 0.12823803 -9.47278919 -0.01345303 0 0 Z M-8.9921875 19.6015625 C-9.98512378 22.58037135 -10.12625161 24.61757448 -10.1171875 27.7265625 C-10.11976563 28.61601563 -10.12234375 29.50546875 -10.125 30.421875 C-10.23520735 32.57947338 -10.23520735 32.57947338 -8.9921875 33.6015625 C-7.36543972 33.69496684 -5.73464699 33.71901421 -4.10522461 33.71508789 C-2.54371925 33.71497459 -2.54371925 33.71497459 -0.95066833 33.71485901 C0.74774452 33.70711708 0.74774452 33.70711708 2.48046875 33.69921875 C4.20963783 33.69709633 4.20963783 33.69709633 5.97373962 33.69493103 C9.67262314 33.68931255 13.37144714 33.67675692 17.0703125 33.6640625 C19.57096267 33.65904988 22.07161379 33.65448656 24.57226562 33.65039062 C30.71746838 33.63933712 36.86263619 33.62258102 43.0078125 33.6015625 C43.78891059 28.61684492 44.24505381 24.55052774 43.0078125 19.6015625 C41.20765972 17.49423106 39.72031635 16.69822282 36.97290039 16.32550049 C34.35467257 16.20291703 31.75388039 16.18599625 29.1328125 16.203125 C28.17133301 16.20025482 27.20985352 16.19738464 26.21923828 16.19442749 C24.18847056 16.19238799 22.15768315 16.19790988 20.12695312 16.21044922 C17.01908427 16.22650427 13.91251592 16.21059645 10.8046875 16.19140625 C8.8307263 16.1933887 6.8567659 16.19723242 4.8828125 16.203125 C3.95355957 16.19705231 3.02430664 16.19097961 2.06689453 16.1847229 C-4.12642599 16.11829248 -4.12642599 16.11829248 -8.9921875 19.6015625 Z " fill="#E6534D" transform="translate(141.9921875,32.3984375)"/>
<path d="M0 0 C7.22236996 -0.10194982 14.4445523 -0.17169539 21.66748047 -0.21972656 C24.12132706 -0.23976324 26.57512637 -0.26700032 29.02880859 -0.30175781 C32.56880403 -0.35062498 36.10816468 -0.3730492 39.6484375 -0.390625 C41.277173 -0.42159271 41.277173 -0.42159271 42.93881226 -0.45318604 C49.89629629 -0.45520658 55.91895557 0.41725562 62 4 C66.31860554 8.36323038 68.11995201 12.84270567 68.14044189 18.9072876 C68.14615204 19.91940811 68.15186218 20.93152863 68.15774536 21.97431946 C68.15942215 23.63880379 68.15942215 23.63880379 68.16113281 25.33691406 C68.16609772 26.50629013 68.17106262 27.6756662 68.17617798 28.88047791 C68.18828679 32.08935152 68.19574509 35.2981887 68.20018864 38.50708103 C68.20312177 40.5134185 68.20722709 42.51975029 68.21169281 44.5260849 C68.22536636 50.80784556 68.23503309 57.08959319 68.2388947 63.37136769 C68.24337196 70.61427474 68.26090481 77.85699273 68.2898953 85.09984231 C68.31154265 90.70336676 68.32160065 96.30683816 68.32293582 101.91040397 C68.3239819 105.25467463 68.331301 108.59862651 68.34775543 111.94287872 C68.36481644 115.67723385 68.36293507 119.41112948 68.35644531 123.14550781 C68.3656601 124.24706711 68.37487488 125.3486264 68.3843689 126.48356628 C68.33865539 134.88398094 66.7636667 141.07595102 60.83219051 147.30866241 C53.07345207 154.47093394 42.90110072 153.57013543 33.04077148 153.51757812 C31.32830207 153.52300505 29.61583733 153.53013091 27.90338135 153.53881836 C23.27324209 153.55698545 18.64346109 153.55001201 14.01331592 153.53730202 C9.15771728 153.52714161 4.30214836 153.53657597 -0.55345154 153.54284668 C-8.70487957 153.55011355 -16.8561624 153.54055989 -25.00756836 153.52148438 C-34.42066024 153.49971018 -43.8334056 153.50677484 -53.24648911 153.52879 C-61.34187546 153.54696267 -69.43715773 153.54949341 -77.5325579 153.53903532 C-82.36174983 153.5328116 -87.19077905 153.53193401 -92.0199604 153.54518127 C-96.55998015 153.55676662 -101.09955455 153.5486652 -105.63952637 153.52560425 C-107.30193786 153.52033178 -108.96438707 153.52180583 -110.62678337 153.53065491 C-126.38300649 153.60677138 -126.38300649 153.60677138 -133 149 C-135 146.25 -135 146.25 -136 144 C-135.01 144.33 -134.02 144.66 -133 145 C-130.82997886 145.09831778 -128.65701223 145.13502447 -126.48477173 145.14044189 C-125.82011725 145.14341302 -125.15546277 145.14638414 -124.47066724 145.1494453 C-122.23905844 145.15813079 -120.00750328 145.1596404 -117.77587891 145.16113281 C-116.17765691 145.16576105 -114.57943603 145.17078572 -112.98121643 145.17617798 C-108.63615603 145.18930244 -104.29111108 145.19574689 -99.94603395 145.20018864 C-97.23215177 145.20311896 -94.51827382 145.20722367 -91.80439377 145.21169281 C-83.31534584 145.22536715 -74.82630758 145.23503442 -66.3372494 145.2388947 C-56.5338209 145.24337705 -46.73053173 145.26093342 -36.9271456 145.2898953 C-29.3516952 145.31149948 -21.77628404 145.32159829 -14.20080316 145.32293582 C-9.67511096 145.32398465 -5.14954973 145.32990913 -0.62388992 145.34775543 C3.63277863 145.36421456 7.88921745 145.36640219 12.14590645 145.35761642 C13.70799563 145.35684492 15.27009705 145.36120372 16.83215523 145.37107468 C18.96531271 145.38376382 21.09765275 145.37793472 23.23080444 145.36749268 C25.02107339 145.36969252 25.02107339 145.36969252 26.84750938 145.3719368 C30.40402663 144.95233218 32.22628277 144.25423404 35 142 C36.86117048 138.60029391 37.2516663 135.72145393 37.26069641 131.88343811 C37.26778122 130.87553726 37.27486603 129.86763641 37.28216553 128.82919312 C37.27968811 127.73450714 37.27721069 126.63982117 37.2746582 125.51196289 C37.27976913 124.35044205 37.28488007 123.1889212 37.29014587 121.99220276 C37.30404709 118.15230152 37.30308472 114.31257966 37.30078125 110.47265625 C37.30368543 108.47831212 37.30659426 106.48396792 37.310188 104.48962492 C37.3212733 98.22068543 37.32172606 91.95180587 37.31567383 85.68286133 C37.30963363 79.22364003 37.32194829 72.76463655 37.3432439 66.30545241 C37.3608776 60.75199882 37.36685849 55.19861445 37.36360615 49.64513391 C37.361796 46.33170812 37.36572129 43.01847208 37.37832069 39.70506477 C37.39065052 36.0090161 37.38391363 32.31347217 37.37231445 28.61743164 C37.37995819 27.5247699 37.38760193 26.43210815 37.39547729 25.30633545 C37.34832748 18.51232841 36.73778806 13.81601057 31.8125 8.75 C31.214375 8.1725 30.61625 7.595 30 7 C30 6.34 30 5.68 30 5 C27.36 4.34 24.72 3.68 22 3 C22 2.34 22 1.68 22 1 C14.74 1 7.48 1 0 1 C0 0.67 0 0.34 0 0 Z " fill="#BD3F39" transform="translate(205,68)"/>
<path d="M0 0 C1.67578125 1.0625 1.67578125 1.0625 3.86328125 2.8125 C3.86328125 3.1425 3.86328125 3.4725 3.86328125 3.8125 C2.64705078 3.85117188 2.64705078 3.85117188 1.40625 3.890625 C-10.30937451 4.49072684 -20.83627658 6.9963022 -29.13671875 15.8125 C-35.9013208 25.99500624 -37.892686 35.88726519 -35.5234375 47.9296875 C-32.64562164 56.88007515 -27.25493973 63.49262192 -18.88671875 67.8125 C-9.74635395 72.00425965 -1.17481002 71.5663292 8.37890625 68.74609375 C11.63396508 67.52288768 14.0583697 65.84606088 16.86328125 63.8125 C17.85328125 63.8125 18.84328125 63.8125 19.86328125 63.8125 C12.35507659 76.94582262 4.40753141 83.76931193 -10.02734375 88.421875 C-22.61902638 90.75366808 -35.7161583 88.64968188 -46.44921875 81.625 C-56.34001765 74.058619 -64.41833133 63.51346771 -66.88671875 51.04296875 C-68.60516502 35.71120596 -65.88267162 22.07777542 -56.640625 9.69921875 C-41.52480891 -7.72759575 -19.93454185 -11.07879474 0 0 Z " fill="#E8E6E6" transform="translate(172.13671875,105.1875)"/>
<path d="M0 0 C1.81317467 -0.02893593 1.81317467 -0.02893593 3.66297913 -0.05845642 C9.20628498 -0.11629357 14.74944382 -0.16580326 20.29296875 -0.19628906 C23.21171499 -0.21404132 26.1294839 -0.24876151 29.04785156 -0.29882812 C32.58519204 -0.35942942 36.12163291 -0.38981903 39.6594677 -0.39946175 C41.64580733 -0.41205362 43.63189201 -0.45401465 45.61781311 -0.49668884 C53.87123437 -0.47808447 59.7127215 0.80472572 66.12670898 6.20874023 C70.6116533 11.42313771 71.20947843 17.49870854 71.00561523 24.17358398 C70.71264648 27.8519694 70.41967773 31.53035482 70.12670898 35.20874023 C54.94625945 36.41973571 39.78376809 36.32331827 24.56420898 36.27124023 C21.99194423 36.26621343 19.41967853 36.26165262 16.84741211 36.25756836 C10.60715656 36.24666039 4.36693736 36.23001654 -1.87329102 36.20874023 C-1.87329102 35.87874023 -1.87329102 35.54874023 -1.87329102 35.20874023 C24.85670898 34.71374023 24.85670898 34.71374023 52.12670898 34.20874023 C52.12670898 29.25874023 52.12670898 24.30874023 52.12670898 19.20874023 C47.32274046 17.27442657 47.32274046 17.27442657 42.56762695 16.94995117 C41.6967746 16.94364685 40.82592224 16.93734253 39.92868042 16.93084717 C38.53783737 16.93691986 38.53783737 16.93691986 37.11889648 16.94311523 C36.15646027 16.94120178 35.19402405 16.93928833 34.2024231 16.93731689 C32.1734389 16.93595887 30.1444459 16.93962852 28.11547852 16.94799805 C25.00574334 16.95872632 21.89658278 16.94807768 18.78686523 16.93530273 C16.81420771 16.93662394 14.84155054 16.93918552 12.86889648 16.94311523 C11.93761932 16.93906677 11.00634216 16.93501831 10.04684448 16.93084717 C9.18229645 16.93715149 8.31774841 16.94345581 7.42700195 16.94995117 C6.66708954 16.95154236 5.90717712 16.95313354 5.12423706 16.95477295 C2.80981979 17.09837407 2.80981979 17.09837407 0.12670898 19.20874023 C-0.92744282 22.37119565 -1.18604774 25.07822241 -1.43579102 28.39624023 C-1.58016602 30.31436523 -1.72454102 32.23249023 -1.87329102 34.20874023 C-7.48329102 34.20874023 -13.09329102 34.20874023 -18.87329102 34.20874023 C-18.92707122 31.08351251 -18.96685676 27.95920313 -18.99829102 24.83374023 C-19.01504883 23.94428711 -19.03180664 23.05483398 -19.04907227 22.13842773 C-19.05551758 21.28764648 -19.06196289 20.43686523 -19.06860352 19.56030273 C-19.07907715 18.77478027 -19.08955078 17.98925781 -19.1003418 17.17993164 C-18.87329102 15.20874023 -18.87329102 15.20874023 -16.87329102 13.20874023 C-16.21329102 13.53874023 -15.55329102 13.86874023 -14.87329102 14.20874023 C-14.87329102 13.54874023 -14.87329102 12.88874023 -14.87329102 12.20874023 C-15.53329102 12.20874023 -16.19329102 12.20874023 -16.87329102 12.20874023 C-16.02281323 7.78625574 -15.50000238 5.71544304 -11.93579102 2.83374023 C-7.70975002 0.59135114 -4.72422722 0.07045349 0 0 Z " fill="#C94B44" transform="translate(133.873291015625,32.791259765625)"/>
<path d="M0 0 C1.35281194 -0.00322479 2.70561976 -0.00905023 4.05841064 -0.01725769 C7.70727335 -0.03170742 11.35502269 -0.00896371 15.0037508 0.02160144 C18.83173015 0.0480886 22.65967961 0.04266791 26.48773193 0.04151917 C32.909978 0.04432166 39.33179669 0.07027828 45.75390625 0.11132812 C53.17323785 0.15857759 60.59210284 0.17431927 68.01157403 0.17212147 C75.92530064 0.17009409 83.83884808 0.19091346 91.75252056 0.21846128 C94.02803671 0.22484724 96.30352387 0.22698366 98.57904816 0.22817802 C102.1546556 0.23119551 105.72987274 0.24954263 109.30535126 0.27967644 C111.24014792 0.29259013 113.17502465 0.29093944 115.10986328 0.28884888 C116.26488342 0.30164383 117.41990356 0.31443878 118.60992432 0.32762146 C119.61128544 0.33264899 120.61264656 0.33767653 121.64435196 0.34285641 C127.78866543 1.20655591 130.80172923 5.11572079 134.38964844 9.72875977 C134.05964844 10.38875977 133.72964844 11.04875977 133.38964844 11.72875977 C132.35279891 10.99742089 132.35279891 10.99742089 131.29500294 10.25130749 C127.87594921 8.45955627 125.74784856 8.35865887 121.90397644 8.36799622 C120.59290924 8.36387222 119.28184204 8.35974823 117.93104553 8.35549927 C116.4851969 8.36611544 115.03935037 8.37701985 113.59350586 8.38818359 C112.06569434 8.38903013 110.53788161 8.3885542 109.0100708 8.38685608 C104.86782985 8.38599573 100.72584978 8.4036278 96.58366942 8.42457795 C92.25284 8.44333819 87.92200453 8.44509468 83.59114075 8.44865417 C75.39245318 8.45797656 67.1938857 8.48259296 58.995251 8.51270264 C49.66038401 8.54624063 40.32551128 8.56273115 30.99059904 8.57778895 C11.7902141 8.60914234 -7.41005907 8.66190661 -26.61035156 8.72875977 C-25.7409878 8.32903033 -25.7409878 8.32903033 -24.85406113 7.92122555 C-22.55757879 6.70071259 -20.7468578 5.26033067 -18.71099854 3.64930725 C-12.72246968 -0.35721057 -7.01750196 -0.09462944 0 0 Z " fill="#F07163" transform="translate(95.6103515625,78.271240234375)"/>
<path d="M0 0 C0.66 0.33 1.32 0.66 2 1 C-4.49620235 12.36313208 -11.09669051 19.29184854 -23.30078125 24.28515625 C-26.06551722 25.01735116 -27.36310272 24.99588282 -30 24 C-28.35 23.67 -26.7 23.34 -25 23 C-25 22.34 -25 21.68 -25 21 C-23.02 21 -21.04 21 -19 21 C-19.350625 20.278125 -19.70125 19.55625 -20.0625 18.8125 C-21.11603378 15.65189867 -20.76222742 14.1715057 -20 11 C-20.90363281 10.86722656 -21.80726563 10.73445312 -22.73828125 10.59765625 C-23.91777344 10.42105469 -25.09726563 10.24445313 -26.3125 10.0625 C-28.07013672 9.80146484 -28.07013672 9.80146484 -29.86328125 9.53515625 C-33 9 -33 9 -36 8 C-35.67 7.34 -35.34 6.68 -35 6 C-33.576875 6.495 -33.576875 6.495 -32.125 7 C-23.17617198 9.49776525 -13.2246735 8.29541538 -5.0078125 3.9453125 C-3.20836207 2.76576844 -1.52505623 1.52505623 0 0 Z " fill="#F0E2DF" transform="translate(190,168)"/>
<path d="M0 0 C0.66 0 1.32 0 2 0 C2.18433594 0.54269531 2.36867187 1.08539063 2.55859375 1.64453125 C3.95028817 5.07737749 4.90249466 7.42007893 8.26953125 9.19921875 C10.50309193 9.92028952 12.70151677 10.52851626 15 11 C15 11.66 15 12.32 15 13 C14.31292969 13.11214844 13.62585938 13.22429687 12.91796875 13.33984375 C10.02625562 13.97279383 7.62996698 14.62784331 5 16 C3.26019763 18.8775617 2.53992584 21.69814582 2 25 C1.34 25 0.68 25 0 25 C-0.391875 23.741875 -0.78375 22.48375 -1.1875 21.1875 C-2.32233458 18.1577058 -2.83176781 17.13372302 -5.4375 15.0625 C-7.63588241 14.15097559 -9.66321711 13.43273757 -12 13 C-12 12.34 -12 11.68 -12 11 C-11.18595703 10.74476563 -11.18595703 10.74476563 -10.35546875 10.484375 C-4.6457142 8.60262557 -4.6457142 8.60262557 -1 4 C-0.29485154 1.85266073 -0.29485154 1.85266073 0 0 Z " fill="#FCB93A" transform="translate(212,118)"/>
<path d="M0 0 C-3.19037607 3.69411966 -6.44672439 4.88366508 -11.28580952 5.24609566 C-13.17041527 5.24333028 -13.17041527 5.24333028 -15.09309387 5.24050903 C-16.14693324 5.24307231 -16.14693324 5.24307231 -17.22206229 5.24568737 C-19.56977705 5.24897445 -21.91720427 5.23799161 -24.26489258 5.22705078 C-25.95033766 5.2264865 -27.63578323 5.22680356 -29.32122803 5.22793579 C-33.89314329 5.22850964 -38.46495362 5.21675014 -43.03684449 5.20278788 C-47.81611744 5.19028585 -52.59539279 5.18911043 -57.37467957 5.18673706 C-66.4233159 5.18052075 -75.47190391 5.16410786 -84.52051896 5.14403808 C-94.82272958 5.12168382 -105.12494251 5.11068684 -115.42717135 5.10064721 C-136.6181412 5.07974178 -157.80906756 5.04456283 -179 5 C-179 4.67 -179 4.34 -179 4 C-178.14393567 3.99761165 -177.28787134 3.99522329 -176.40586567 3.99276257 C-155.58275375 3.93364486 -134.75975789 3.8581155 -113.93677235 3.76428509 C-103.86695718 3.71930592 -93.79717754 3.67989614 -83.72729492 3.65356445 C-74.95111153 3.63060156 -66.17504038 3.59722268 -57.39894599 3.55129844 C-52.75140346 3.52734316 -48.10397227 3.5086295 -43.4563694 3.50238609 C-39.0823093 3.49634566 -34.70853416 3.47638361 -30.33457947 3.44572449 C-28.72898015 3.43692754 -27.12334362 3.43322511 -25.51772118 3.43499184 C-23.32523024 3.43664267 -21.13360994 3.41996288 -18.9412384 3.39872742 C-17.71433194 3.39411845 -16.48742548 3.38950949 -15.22334003 3.38476086 C-9.35101345 2.68379807 -6.35241982 -0.37367175 0 0 Z " fill="#B03930" transform="translate(263,216)"/>
<path d="M0 0 C0 3 0 3 -1.48828125 5.23046875 C-3.42747895 8.78315912 -3.30018905 11.2932572 -3.1875 15.3125 C-3.14689453 17.19388672 -3.14689453 17.19388672 -3.10546875 19.11328125 C-3.07066406 20.06589844 -3.03585938 21.01851562 -3 22 C-3.33 22 -3.66 22 -4 22 C-4.33 57.31 -4.66 92.62 -5 129 C-5.33 129 -5.66 129 -6 129 C-6.07018367 113.75291559 -6.12303394 98.50583866 -6.15543652 83.25862885 C-6.17088371 76.17854908 -6.19193193 69.09856989 -6.22631836 62.01855469 C-6.25949416 55.18452503 -6.2768593 48.35059988 -6.28463173 41.51649475 C-6.29016997 38.9106329 -6.30098478 36.30477669 -6.31719017 33.69895935 C-6.33900232 30.04592591 -6.34196525 26.39332258 -6.34057617 22.74023438 C-6.351362 21.66560944 -6.36214783 20.5909845 -6.3732605 19.48379517 C-6.34630218 12.92156701 -6.13353717 6.3517721 -1.39586163 1.28414154 C-0.70491012 0.64849148 -0.70491012 0.64849148 0 0 Z " fill="#F9B0AB" transform="translate(68,73)"/>
<path d="M0 0 C4.455 0.99 4.455 0.99 9 2 C9 2.99 9 3.98 9 5 C12.52661087 6.17553696 15.73747867 6.1755277 19.40893555 6.20532227 C20.53613007 6.22017166 20.53613007 6.22017166 21.68609619 6.23532104 C24.16960501 6.26690496 26.65313296 6.29168116 29.13671875 6.31640625 C30.85879513 6.33697846 32.5808665 6.35797501 34.30293274 6.37937927 C38.83533666 6.43457234 43.36778594 6.48399382 47.90026855 6.53222656 C52.52535031 6.58246176 57.1503662 6.63813729 61.77539062 6.69335938 C70.85020414 6.80090713 79.92507486 6.90235964 89 7 C89 7.33 89 7.66 89 8 C78.96862554 8.22386008 68.93707166 8.42527013 58.90468597 8.59840012 C54.24572438 8.67949792 49.5871705 8.76818644 44.92871094 8.87451172 C40.42908057 8.97692775 35.9294874 9.05902614 31.42921448 9.12732697 C29.71637608 9.15683949 28.00364535 9.19354691 26.29112244 9.2377243 C9.49308367 9.66229532 9.49308367 9.66229532 3 5 C1 2.25 1 2.25 0 0 Z " fill="#C6463D" transform="translate(69,212)"/>
<path d="M0 0 C1.19221916 0.00212242 1.19221916 0.00212242 2.40852356 0.00428772 C4.9455645 0.00988247 7.482517 0.02243397 10.01953125 0.03515625 C11.7402331 0.04017193 13.46093633 0.04473472 15.18164062 0.04882812 C19.39847155 0.05985018 23.61523641 0.07711119 27.83203125 0.09765625 C27.83203125 0.42765625 27.83203125 0.75765625 27.83203125 1.09765625 C26.82825439 1.11747559 25.82447754 1.13729492 24.7902832 1.15771484 C21.05338159 1.23399374 17.31685808 1.32267611 13.58032227 1.41503906 C11.96548955 1.45323697 10.35057441 1.4881057 8.7355957 1.51953125 C6.40936908 1.56538234 4.08370533 1.62334209 1.7578125 1.68359375 C0.6809594 1.70092056 0.6809594 1.70092056 -0.41764832 1.71859741 C-4.39227321 1.8346805 -7.64323933 2.19105285 -11.16796875 4.09765625 C-12.41189751 6.4764306 -12.41189751 6.4764306 -12.98046875 9.22265625 C-13.21378906 10.13273437 -13.44710937 11.0428125 -13.6875 11.98046875 C-13.84605469 12.67914063 -14.00460938 13.3778125 -14.16796875 14.09765625 C-15.48796875 13.76765625 -16.80796875 13.43765625 -18.16796875 13.09765625 C-18.49796875 13.75765625 -18.82796875 14.41765625 -19.16796875 15.09765625 C-20.15796875 15.09765625 -21.14796875 15.09765625 -22.16796875 15.09765625 C-20.48725096 8.52757762 -16.71985097 4.79891106 -11.16796875 1.09765625 C-7.40948701 -0.155171 -3.91305956 -0.0261621 0 0 Z " fill="#D14B43" transform="translate(86.16796875,67.90234375)"/>
<path d="M0 0 C0.495 0.99 0.495 0.99 1 2 C0.67 2.66 0.34 3.32 0 4 C0.66 4 1.32 4 2 4 C2 4.66 2 5.32 2 6 C1.01 6.33 0.02 6.66 -1 7 C-1.03758423 7.85549438 -1.03758423 7.85549438 -1.07592773 8.72827148 C-1.19156549 11.29826157 -1.31443624 13.86785527 -1.4375 16.4375 C-1.47681641 17.33533203 -1.51613281 18.23316406 -1.55664062 19.15820312 C-1.61948242 20.43920898 -1.61948242 20.43920898 -1.68359375 21.74609375 C-1.72025146 22.53685303 -1.75690918 23.3276123 -1.79467773 24.14233398 C-2 26 -2 26 -3 27 C-5.59426194 27.12312785 -8.16600477 27.18611386 -10.76171875 27.2109375 C-12.37175466 27.23902343 -13.98178055 27.267688 -15.59179688 27.296875 C-18.13500506 27.33802486 -20.67802987 27.37490146 -23.22143555 27.40136719 C-25.67275958 27.42910088 -28.12322795 27.47499109 -30.57421875 27.5234375 C-31.32757004 27.52669037 -32.08092133 27.52994324 -32.85710144 27.53329468 C-37.67287519 27.64455408 -40.81633504 28.68840899 -45 31 C-45.99 31 -46.98 31 -48 31 C-42.56878036 26.44951868 -38.75977551 25.83357309 -31.83203125 25.68359375 C-31.03721848 25.66281265 -30.2424057 25.64203156 -29.42350769 25.62062073 C-26.88659237 25.55527913 -24.34957427 25.49631192 -21.8125 25.4375 C-20.09178628 25.39430014 -18.37108292 25.35068537 -16.65039062 25.30664062 C-12.43369887 25.19961352 -8.2169038 25.09830276 -4 25 C-3.98541748 24.42032471 -3.97083496 23.84064941 -3.95581055 23.2434082 C-3.88101472 20.59912447 -3.78446102 17.95605998 -3.6875 15.3125 C-3.66494141 14.40048828 -3.64238281 13.48847656 -3.61914062 12.54882812 C-3.42053527 7.58369426 -3.18722674 4.05880081 0 0 Z " fill="#E5A7A2" transform="translate(117,41)"/>
<path d="M0 0 C5.6276655 1.65078188 10.32867034 3.40666949 15 7 C15 7.33 15 7.66 15 8 C13.78376953 8.03867188 13.78376953 8.03867188 12.54296875 8.078125 C2.31207945 8.60217521 -6.04549451 10.28838599 -14 17 C-14.99 16.67 -15.98 16.34 -17 16 C-16 13 -16 13 -14.35766602 12.14038086 C-13.66342529 11.91745361 -12.96918457 11.69452637 -12.25390625 11.46484375 C-11.49916016 11.21283203 -10.74441406 10.96082031 -9.96679688 10.70117188 C-8.77666992 10.3231543 -8.77666992 10.3231543 -7.5625 9.9375 C-5.99960316 9.43099384 -4.43831539 8.91948796 -2.87890625 8.40234375 C-2.1835376 8.18054443 -1.48816895 7.95874512 -0.77172852 7.73022461 C1.20999823 7.04620732 1.20999823 7.04620732 3 5 C3.33 4.01 3.66 3.02 4 2 C2.35 2 0.7 2 -1 2 C-0.67 1.34 -0.34 0.68 0 0 Z " fill="#F7DEDB" transform="translate(161,101)"/>
<path d="M0 0 C2.6875 0 2.6875 0 6 1 C10.07196494 5.41668155 11.63193384 10.1109414 12 16 C9 14 9 14 8 11 C7.01 11 6.02 11 5 11 C5 10.34 5 9.68 5 9 C4.34 8.67 3.68 8.34 3 8 C1.8125 5.5625 1.8125 5.5625 1 3 C1.33 2.34 1.66 1.68 2 1 C1.34 0.67 0.68 0.34 0 0 Z " fill="#AD3934" transform="translate(193,37)"/>
<path d="M0 0 C0.66 0 1.32 0 2 0 C2 2.64 2 5.28 2 8 C1.01 8.33 0.02 8.66 -1 9 C-0.41339754 15.67728333 0.23581011 22.34063095 1 29 C-3.53653776 24.46346224 -3.14407404 17.6674118 -3.1875 11.625 C-3.15367965 5.30735931 -3.15367965 5.30735931 -2 3 C-1.34 3 -0.68 3 0 3 C0 2.01 0 1.02 0 0 Z " fill="#F4D6D4" transform="translate(108,135)"/>
<path d="M0 0 C1.32 0 2.64 0 4 0 C4.33 0.99 4.66 1.98 5 3 C5.61875 2.835 6.2375 2.67 6.875 2.5 C9 2 9 2 11 2 C10.67 3.32 10.34 4.64 10 6 C8.68 6 7.36 6 6 6 C9.01887244 9.48331435 11.56909529 10.79157144 16 12 C13.07154334 13.23896243 11.98949975 12.99614276 8.9375 11.875 C5.75906436 9.8462113 4.53373287 8.40829527 3 5 C3 4.01 3 3.02 3 2 C2.34 2 1.68 2 1 2 C0.9175 2.928125 0.835 3.85625 0.75 4.8125 C0 8 0 8 -2.0625 9.875 C-3.0215625 10.431875 -3.0215625 10.431875 -4 11 C-3.67 8.69 -3.34 6.38 -3 4 C-2.01 4.33 -1.02 4.66 0 5 C0 3.35 0 1.7 0 0 Z " fill="#DF583B" transform="translate(211,116)"/>
<path d="M0 0 C0.66 0.99 1.32 1.98 2 3 C1.65066406 3.61488281 1.30132812 4.22976562 0.94140625 4.86328125 C0.48636719 5.67152344 0.03132812 6.47976562 -0.4375 7.3125 C-0.88996094 8.11300781 -1.34242188 8.91351563 -1.80859375 9.73828125 C-3.45830147 12.87002148 -4.13271028 15.52149532 -4.31640625 19.01171875 C-4.35830078 19.76904297 -4.40019531 20.52636719 -4.44335938 21.30664062 C-4.48267578 22.09232422 -4.52199219 22.87800781 -4.5625 23.6875 C-4.60568359 24.48478516 -4.64886719 25.28207031 -4.69335938 26.10351562 C-4.79927368 28.06881447 -4.90012551 30.03438496 -5 32 C-8.14314774 27.28527839 -7.54675882 22.52028784 -7 17 C-5.43276562 11.02443641 -2.93222451 5.42461535 0 0 Z " fill="#FAD9D5" transform="translate(140,120)"/>
<path d="M0 0 C-0.78375 0.7425 -1.5675 1.485 -2.375 2.25 C-4.56504531 4.54433318 -5.82731386 6.12158858 -7 9 C-8.65 9 -10.3 9 -12 9 C-11.50153711 5.31137465 -10.9758353 3.31453856 -8 1 C-4.96324406 -0.95919738 -3.4130122 -1.21893293 0 0 Z " fill="#E25540" transform="translate(227,132)"/>
<path d="M0 0 C0.33 0 0.66 0 1 0 C1 4.95 1 9.9 1 15 C-0.65 15 -2.3 15 -4 15 C-4 10.38 -4 5.76 -4 1 C-3.01 1.33 -2.02 1.66 -1 2 C-0.67 1.34 -0.34 0.68 0 0 Z " fill="#A42F2D" transform="translate(203,52)"/>
<path d="M0 0 C1.65 0 3.3 0 5 0 C6.26582219 3.86723631 6.1118765 7.73151262 6.0625 11.75 C6.05798828 12.44738281 6.05347656 13.14476562 6.04882812 13.86328125 C6.0371002 15.57555803 6.01916653 17.28779033 6 19 C5.67 19 5.34 19 5 19 C4.67 15.37 4.34 11.74 4 8 C3.67 8 3.34 8 3 8 C2.67 11.96 2.34 15.92 2 20 C1.67 20 1.34 20 1 20 C0.67 13.4 0.34 6.8 0 0 Z " fill="#B63B38" transform="translate(197,47)"/>
<path d="M0 0 C-3.10429455 3.59444632 -6.32831495 4.87539736 -11.04614258 5.22705078 C-12.15111084 5.21657715 -13.2560791 5.20610352 -14.39453125 5.1953125 C-15.59658203 5.18886719 -16.79863281 5.18242187 -18.03710938 5.17578125 C-19.28298828 5.15902344 -20.52886719 5.14226562 -21.8125 5.125 C-23.71032227 5.11146484 -23.71032227 5.11146484 -25.64648438 5.09765625 C-28.76451564 5.07412394 -31.88216097 5.04124545 -35 5 C-35 4.67 -35 4.34 -35 4 C-34.3294458 3.98541748 -33.6588916 3.97083496 -32.96801758 3.95581055 C-29.91561178 3.881117 -26.86427415 3.78452701 -23.8125 3.6875 C-22.75740234 3.66494141 -21.70230469 3.64238281 -20.61523438 3.61914062 C-19.59365234 3.58369141 -18.57207031 3.54824219 -17.51953125 3.51171875 C-16.58214111 3.48553467 -15.64475098 3.45935059 -14.67895508 3.43237305 C-8.99307817 2.51469438 -6.26549419 -0.36855848 0 0 Z " fill="#A0352F" transform="translate(263,216)"/>
<path d="M0 0 C0 0.33 0 0.66 0 1 C-0.95261719 1.12117188 -1.90523437 1.24234375 -2.88671875 1.3671875 C-4.14097656 1.53476563 -5.39523438 1.70234375 -6.6875 1.875 C-7.92886719 2.03742188 -9.17023438 2.19984375 -10.44921875 2.3671875 C-13.61367924 2.93115075 -16.16634885 3.49643 -19 5 C-19.33 5.99 -19.66 6.98 -20 8 C-20.556875 7.79375 -21.11375 7.5875 -21.6875 7.375 C-24.659538 6.89304789 -26.31979941 7.73434972 -29 9 C-21.67408053 -0.09424486 -10.95197789 -0.62682226 0 0 Z " fill="#CD554E" transform="translate(176,109)"/>
<path d="M0 0 C4.455 0.99 4.455 0.99 9 2 C9 2.99 9 3.98 9 5 C13.455 5.99 13.455 5.99 18 7 C15 9 15 9 11.75 8.9375 C7.39190936 7.84797734 4.21810275 6.14537726 1 3 C0.67 2.01 0.34 1.02 0 0 Z " fill="#C5524B" transform="translate(69,212)"/>
<path d="M0 0 C2 3 2 3 2 5 C2.66 5 3.32 5 4 5 C4.33 5.66 4.66 6.32 5 7 C5.66 6.67 6.32 6.34 7 6 C8.99960012 5.960008 11.00047242 5.95653201 13 6 C12.67 6.99 12.34 7.98 12 9 C12.66 9.66 13.32 10.32 14 11 C12.88625 10.979375 11.7725 10.95875 10.625 10.9375 C7.16784079 10.73619282 7.16784079 10.73619282 5 12 C4.15556432 10.75747321 3.3248542 9.5056114 2.5 8.25 C1.80390625 7.20585937 1.80390625 7.20585937 1.09375 6.140625 C0 4 0 4 0 0 Z " fill="#E45B55" transform="translate(63,202)"/>
<path d="M0 0 C3.43595166 1.52708963 6.11912454 3.59927045 9 6 C9.99 5.34 10.98 4.68 12 4 C12 4.66 12 5.32 12 6 C12.99 6.33 13.98 6.66 15 7 C14.67 7.66 14.34 8.32 14 9 C15.32 9.66 16.64 10.32 18 11 C16.27734375 11.66015625 16.27734375 11.66015625 14 12 C8.15938935 9.31478187 3.77136962 5.10959755 0 0 Z " fill="#D35751" transform="translate(141,163)"/>
<path d="M0 0 C0.66 0 1.32 0 2 0 C2.18433594 0.54269531 2.36867187 1.08539063 2.55859375 1.64453125 C3.95028817 5.07737749 4.90249466 7.42007893 8.26953125 9.19921875 C10.50309193 9.92028952 12.70151677 10.52851626 15 11 C15 11.66 15 12.32 15 13 C12.69 13.66 10.38 14.32 8 15 C8.33 13.68 8.66 12.36 9 11 C8.1028125 10.8453125 8.1028125 10.8453125 7.1875 10.6875 C4.68741714 9.90175967 3.62464918 9.03081147 2 7 C2 6.34 2 5.68 2 5 C1.01 5.33 0.02 5.66 -1 6 C-0.67 4.02 -0.34 2.04 0 0 Z " fill="#FDAE50" transform="translate(212,118)"/>
<path d="M0 0 C0.66 1.32 1.32 2.64 2 4 C-3.625 9 -3.625 9 -7 9 C-6.53149863 4.78348764 -4.94559315 0 0 0 Z " fill="#A6413F" transform="translate(267,208)"/>
<path d="M0 0 C2.54696325 2.54696325 3.20835009 4.93138047 4.4375 8.3125 C5.96373529 12.50845094 7.58098782 16.24101023 10 20 C6.63983107 18.87994369 5.30935087 17.62788203 3 15 C3 14.34 3 13.68 3 13 C2.34 13 1.68 13 1 13 C0.67 8.71 0.34 4.42 0 0 Z " fill="#D15251" transform="translate(105,156)"/>
<path d="M0 0 C4.20969919 1.50346399 5.91860139 4.14555814 8 8 C7.75 10.375 7.75 10.375 7 12 C5.68 12 4.36 12 3 12 C3.33 10.35 3.66 8.7 4 7 C3.34 7 2.68 7 2 7 C1.34 4.69 0.68 2.38 0 0 Z " fill="#B45452" transform="translate(264,71)"/>
<path d="M0 0 C0.66 0.33 1.32 0.66 2 1 C-0.31 4.63 -2.62 8.26 -5 12 C-5.33 11.01 -5.66 10.02 -6 9 C-5.67 8.34 -5.34 7.68 -5 7 C-6.32 6.67 -7.64 6.34 -9 6 C-8.43410156 5.65066406 -7.86820313 5.30132812 -7.28515625 4.94140625 C-6.55167969 4.48636719 -5.81820312 4.03132812 -5.0625 3.5625 C-4.33160156 3.11003906 -3.60070312 2.65757812 -2.84765625 2.19140625 C-1.06100191 1.13135967 -1.06100191 1.13135967 0 0 Z " fill="#F9D3CC" transform="translate(190,168)"/>
<path d="M0 0 C0.63615234 0.56267578 0.63615234 0.56267578 1.28515625 1.13671875 C5.36517338 4.69664579 9.5513476 7.91317997 14 11 C11 12 11 12 9.046875 11.3125 C6.6805554 9.79516529 5.08174711 8.12921031 3.25 6 C2.63640625 5.29875 2.0228125 4.5975 1.390625 3.875 C0 2 0 2 0 0 Z " fill="#D0514E" transform="translate(115,177)"/>
<path d="M0 0 C2.31 0 4.62 0 7 0 C6.67 0.99 6.34 1.98 6 3 C6.99 3.66 7.98 4.32 9 5 C5.625 5.125 5.625 5.125 2 5 C1.34 4.34 0.68 3.68 0 3 C0 2.01 0 1.02 0 0 Z " fill="#CC453D" transform="translate(78,214)"/>
<path d="M0 0 C1.32 0 2.64 0 4 0 C4.268125 0.763125 4.53625 1.52625 4.8125 2.3125 C5.94424112 4.87380884 6.91223401 6.19692938 9 8 C8.34 8.66 7.68 9.32 7 10 C6.01524786 8.90081184 5.03739527 7.7954398 4.0625 6.6875 C3.51722656 6.07261719 2.97195312 5.45773438 2.41015625 4.82421875 C1 3 1 3 0 0 Z " fill="#F5DED7" transform="translate(112,171)"/>
<path d="M0 0 C0.33 0.99 0.66 1.98 1 3 C0.505 3.391875 0.01 3.78375 -0.5 4.1875 C-2.45593143 6.55091715 -2.24207973 8.01435003 -2 11 C-2.99 11 -3.98 11 -5 11 C-5.33 11.66 -5.66 12.32 -6 13 C-6.66 13 -7.32 13 -8 13 C-6.40956621 7.91061189 -3.2553049 4.12543357 0 0 Z " fill="#F9DDD6" transform="translate(118,112)"/>
<path d="M0 0 C0 0.99 0 1.98 0 3 C-1.98 3.99 -1.98 3.99 -4 5 C-4 5.99 -4 6.98 -4 8 C-6.97 7.505 -6.97 7.505 -10 7 C-10 6.34 -10 5.68 -10 5 C-9.16855469 4.70996094 -9.16855469 4.70996094 -8.3203125 4.4140625 C-7.59585938 4.15367187 -6.87140625 3.89328125 -6.125 3.625 C-5.04605469 3.24214844 -5.04605469 3.24214844 -3.9453125 2.8515625 C-1.81842006 2.06122217 -1.81842006 2.06122217 0 0 Z " fill="#FDAE50" transform="translate(210,124)"/>
<path d="M0 0 C0.99 0.33 1.98 0.66 3 1 C-0.40580901 4.74638991 -4.34640217 6.19026751 -9 8 C-2.92207792 1.75324675 -2.92207792 1.75324675 0 0 Z " fill="#F7D9D5" transform="translate(128,104)"/>
<path d="M0 0 C0.33 0.66 0.66 1.32 1 2 C3.02463255 2.65213292 3.02463255 2.65213292 5 3 C1.48812804 5.40814077 -0.72656908 6.36629408 -5 6 C-3.625 4.5 -3.625 4.5 -2 3 C-1.34 3 -0.68 3 0 3 C0 2.01 0 1.02 0 0 Z " fill="#B63934" transform="translate(251,214)"/>
<path d="M0 0 C0 0.99 0 1.98 0 3 C-0.66 3 -1.32 3 -2 3 C-2 3.99 -2 4.98 -2 6 C-3.65 6.33 -5.3 6.66 -7 7 C-3.86206897 0 -3.86206897 0 0 0 Z " fill="#AB3B32" transform="translate(267,208)"/>
<path d="M0 0 C3.63 0 7.26 0 11 0 C11 0.33 11 0.66 11 1 C5.555 2.485 5.555 2.485 0 4 C0 2.68 0 1.36 0 0 Z " fill="#D65951" transform="translate(128,100)"/>
<path d="M0 0 C0.66 0.33 1.32 0.66 2 1 C1.67 1.66 1.34 2.32 1 3 C0.34 3 -0.32 3 -1 3 C-1.33 3.99 -1.66 4.98 -2 6 C-4.0625 7.1875 -4.0625 7.1875 -6 8 C-4.73058503 4.08597051 -3.48832306 2.20927127 0 0 Z " fill="#B54543" transform="translate(123,37)"/>
<path d="M0 0 C4 5 4 5 8 10 C7.01 10 6.02 10 5 10 C0 4.88372093 0 4.88372093 0 0 Z " fill="#F9D8D2" transform="translate(138,159)"/>
<path d="M0 0 C5.875 2.75 5.875 2.75 7 5 C4.36 5 1.72 5 -1 5 C-0.34 4.67 0.32 4.34 1 4 C0.67 2.68 0.34 1.36 0 0 Z " fill="#FBD1CC" transform="translate(169,104)"/>
<path d="M0 0 C2.76223278 2.76223278 2.57856291 5.20706617 3 9 C0 7 0 7 -1 4 C-1.66 3.67 -2.32 3.34 -3 3 C-2.01 2.67 -1.02 2.34 0 2 C0 1.34 0 0.68 0 0 Z " fill="#B55D57" transform="translate(202,44)"/>
<path d="M0 0 C1.9375 0.6875 1.9375 0.6875 4 2 C4.75 4.625 4.75 4.625 5 7 C4.01 7 3.02 7 2 7 C1.34 4.69 0.68 2.38 0 0 Z " fill="#B66966" transform="translate(264,71)"/>
<path d="M0 0 C3.3 0 6.6 0 10 0 C8.68 0.33 7.36 0.66 6 1 C6 1.66 6 2.32 6 3 C3.03 2.505 3.03 2.505 0 2 C0 1.34 0 0.68 0 0 Z " fill="#CD423C" transform="translate(227,69)"/>
<path d="M0 0 C3.55780196 0.60990891 6.6828589 1.5783681 10 3 C10 3.66 10 4.32 10 5 C8.51800098 4.55090939 7.03944764 4.09043436 5.5625 3.625 C4.73878906 3.36976563 3.91507813 3.11453125 3.06640625 2.8515625 C1 2 1 2 0 0 Z " fill="#F8D8D0" transform="translate(128,187)"/>
<path d="M0 0 C0.66 0 1.32 0 2 0 C1.67 3.3 1.34 6.6 1 10 C0.67 10 0.34 10 0 10 C-1.125 3.375 -1.125 3.375 0 0 Z " fill="#DE5555" transform="translate(107,122)"/>
<path d="M0 0 C2.99324263 1.0975223 3.84610901 1.67682892 5.25 4.625 C5.4975 5.40875 5.745 6.1925 6 7 C1.2 4.53846154 1.2 4.53846154 0.1875 1.8125 C0.125625 1.214375 0.06375 0.61625 0 0 Z " fill="#C37C7D" transform="translate(196,37)"/>
<path d="M0 0 C2 3 2 3 2 5 C2.66 5 3.32 5 4 5 C4.33 6.65 4.66 8.3 5 10 C1.32769295 6.92000054 0.43197635 4.7517398 0 0 Z " fill="#E59E97" transform="translate(63,202)"/>
</svg>
