<svg xmlns="http://www.w3.org/2000/svg" width="532" height="542"><path fill="#394047" d="M276.666 16.87q15.55.007 31.1 0 18.41-.01 36.82-.005 9.622.003 19.243-.001c45.23-.02 45.23-.02 63.473.408 2.029.047 4.058.081 6.088.115 6.185.182 11.239.378 16.61 3.613 1.277 2.996 1.277 2.996 1.937 6.437 1.08 4.58 1.08 4.58 3.801 8.235 3.385 1.709 6.904 2.512 10.574 3.39C470.89 40.226 470.89 40.226 473 43c.59 2.305.59 2.305.937 4.875.819 4.426 1.464 7.156 5.063 10.125 2.533.911 5.037 1.62 7.66 2.227 2.606.86 3.698 1.593 5.34 3.773 1.238 3.624 1.127 7.16 1.129 10.962l.005 2.134c.005 2.37.002 4.742 0 7.113l.007 5.137q.008 7.073.004 14.145c0 5.081.006 10.162.01 15.243q.012 14.937.012 29.874 0 12.135.006 24.271.013 34.382.012 68.764v7.497q.002 30.108.023 60.217.023 30.89.02 61.78-.001 17.354.014 34.706.014 14.77.005 29.542-.007 7.54.005 15.081.011 6.897-.002 13.793-.003 2.502.005 5.003c.007 2.259.002 4.517-.006 6.776v3.809c-.238 3.008-.524 4.704-2.249 7.153-2.68 1.125-2.68 1.125-5.875 2-4.476 1.232-7.269 2.246-10.125 6-1.008 2.92-1.008 2.92-1.563 6.062-1.355 6.81-1.355 6.81-4.437 8.938-3.287 1.152-6.607 2.029-9.969 2.937-2.968 1.041-4.274 1.511-6.031 4.063-.866 2.778-1.45 5.561-2.059 8.406-1.12 3.088-2.11 3.991-4.941 5.594-3.347 1.08-6.459 1.126-9.962 1.129l-3.72.01-4.095-.005-4.345.007q-5.978.008-11.955.004-6.444.002-12.888.01-12.63.012-25.259.012-10.268 0-20.534.006-29.108.014-58.214.012h-6.346q-25.46.002-50.923.023-26.14.023-52.281.02-14.678-.001-29.354.014-12.5.014-24.999.005-6.375-.007-12.75.005-5.843.011-11.685-.002-2.107-.003-4.216.005c-19.173.072-19.173.072-25.001-4.036-1.694-2.552-2.321-4.748-3.036-7.719-1.176-3.533-1.744-5.078-4.96-7.035-3.677-1.296-7.396-2.216-11.192-3.09C56 509 56 509 54.742 505.629q-.464-2.026-.867-4.067c-.949-4.939-.949-4.939-3.117-9.417-3.307-2.154-7.172-2.86-10.946-3.887-3.57-1.597-4.19-2.719-5.812-6.258a81 81 0 0 1-.507-8.572l-.053-2.648c-.055-2.97-.088-5.939-.12-8.908q-.048-3.26-.1-6.517c-.426-29.823-.367-59.653-.355-89.478q.003-9.236.001-18.47v-2.697l-.001-5.428q-.004-25.197.006-50.394.005-21.465-.001-42.928a99964 99964 0 0 1-.004-55.704v-2.679q.002-9.195-.002-18.392c-.022-62.875-.022-62.875.52-86.974l.045-2.39c.043-2.13.1-4.26.162-6.39l.092-3.452c.326-3.065.853-5.267 2.317-7.979 3.147-1.451 6.195-2.501 9.502-3.496 3.988-1.367 5.345-2.233 7.443-5.965 1.163-3.53 1.163-3.53 1.492-7.289C55 42 55 42 56.695 40.383c2.59-1.554 4.796-2.129 7.742-2.758C69.296 36.351 72.075 35.295 75 31a77 77 0 0 0 2.324-7.793C78 21 78 21 80 19c3.302-1.155 6.522-1.154 9.997-1.203l3.766-.06 4.168-.049 4.457-.062q6.2-.083 12.4-.151l8.008-.093c51.288-.6 102.58-.534 153.87-.511"/><path fill="#D8D3C6" d="m285.082 218.934 2.47-.002c36.815-.02 73.632.035 110.448.068v219H129V220c60.317-.637 60.317-.637 78.324-.777l2.013-.016c25.248-.195 50.496-.26 75.745-.273"/><path fill="#2B3036" d="M61 65h22v326h22l1-171h23v218h269V219h23v172h20l2 1V65h23v419h-23v23H83v-23H61z"/><path fill="#FEFEFE" d="M276.666 16.87q15.55.007 31.1 0 18.41-.01 36.82-.005 9.622.003 19.243-.001c45.23-.02 45.23-.02 63.473.408 2.029.047 4.058.081 6.088.115 6.185.182 11.239.378 16.61 3.613 1.277 2.996 1.277 2.996 1.937 6.437 1.08 4.58 1.08 4.58 3.801 8.235 3.385 1.709 6.904 2.512 10.574 3.39C470.89 40.226 470.89 40.226 473 43c.59 2.305.59 2.305.937 4.875.819 4.426 1.464 7.156 5.063 10.125 2.533.911 5.037 1.62 7.66 2.227 2.606.86 3.698 1.593 5.34 3.773 1.238 3.624 1.127 7.16 1.129 10.962l.005 2.134c.005 2.37.002 4.742 0 7.113l.007 5.137q.008 7.073.004 14.145c0 5.081.006 10.162.01 15.243q.012 14.937.012 29.874 0 12.135.006 24.271.013 34.382.012 68.764v7.497q.002 30.108.023 60.217.023 30.89.02 61.78-.001 17.354.014 34.706.014 14.77.005 29.542-.007 7.54.005 15.081.011 6.897-.002 13.793-.003 2.502.005 5.003c.007 2.259.002 4.517-.006 6.776v3.809c-.238 3.008-.524 4.704-2.249 7.153-2.68 1.125-2.68 1.125-5.875 2-4.476 1.232-7.269 2.246-10.125 6-1.008 2.92-1.008 2.92-1.563 6.062-1.355 6.81-1.355 6.81-4.437 8.938-3.287 1.152-6.607 2.029-9.969 2.937-2.968 1.041-4.274 1.511-6.031 4.063-.866 2.778-1.45 5.561-2.059 8.406-1.12 3.088-2.11 3.991-4.941 5.594-3.347 1.08-6.459 1.126-9.962 1.129l-3.72.01-4.095-.005-4.345.007q-5.978.008-11.955.004-6.444.002-12.888.01-12.63.012-25.259.012-10.268 0-20.534.006-29.108.014-58.214.012h-6.346q-25.46.002-50.923.023-26.14.023-52.281.02-14.678-.001-29.354.014-12.5.014-24.999.005-6.375-.007-12.75.005-5.843.011-11.685-.002-2.107-.003-4.216.005c-19.173.072-19.173.072-25.001-4.036-1.694-2.552-2.321-4.748-3.036-7.719-1.176-3.533-1.744-5.078-4.96-7.035-3.677-1.296-7.396-2.216-11.192-3.09C56 509 56 509 54.742 505.629q-.464-2.026-.867-4.067c-.949-4.939-.949-4.939-3.117-9.417-3.307-2.154-7.172-2.86-10.946-3.887-3.57-1.597-4.19-2.719-5.812-6.258a81 81 0 0 1-.507-8.572l-.053-2.648c-.055-2.97-.088-5.939-.12-8.908q-.048-3.26-.1-6.517c-.426-29.823-.367-59.653-.355-89.478q.003-9.236.001-18.47v-2.697l-.001-5.428q-.004-25.197.006-50.394.005-21.465-.001-42.928a99964 99964 0 0 1-.004-55.704v-2.679q.002-9.195-.002-18.392c-.022-62.875-.022-62.875.52-86.974l.045-2.39c.043-2.13.1-4.26.162-6.39l.092-3.452c.326-3.065.853-5.267 2.317-7.979 3.147-1.451 6.195-2.501 9.502-3.496 3.988-1.367 5.345-2.233 7.443-5.965 1.163-3.53 1.163-3.53 1.492-7.289C55 42 55 42 56.695 40.383c2.59-1.554 4.796-2.129 7.742-2.758C69.296 36.351 72.075 35.295 75 31a77 77 0 0 0 2.324-7.793C78 21 78 21 80 19c3.302-1.155 6.522-1.154 9.997-1.203l3.766-.06 4.168-.049 4.457-.062q6.2-.083 12.4-.151l8.008-.093c51.288-.6 102.58-.534 153.87-.511M83 42v22H60v421h23v22h360v-23h23V64h-23V41a196664 196664 0 0 0-97.394-.055h-2.109q-14.423-.006-28.847-.019-25.035-.022-50.068-.024h-2.005C202.714 40.9 142.859 41.375 83 42"/><path fill="#D23A2A" d="M235 241h58v46h53v56h-53v48h-58v-47h-55v-57h55z"/><path fill="#8D9498" d="m211.87 40.88 3.065-.003q4.935 0 9.87.01l7.191-.001q9.652.001 19.303.013 9.098.007 18.197.007 17.993.004 35.984.019a81584 81584 0 0 0 47.93.025q44.794.016 89.59.05v1h-72v68l-12 1-2 1v-2h-10V64h-54v46h-10l-1 2v-2l-2.896.045q-13.507.206-27.015.398-6.945.098-13.89.205-6.7.104-13.401.195-2.558.036-5.115.078-3.58.056-7.16.1l-2.139.04c-6.753.073-6.753.073-9.384-1.061l-1-3v26h-22V42c25.27-1.149 25.27-1.149 33.87-1.12"/><path fill="#8C9397" d="M177 42h1v91h22v-26l4 1h-3v2h92V64h54v46h24v45c-40.505.904-80.983 1.132-121.496 1.072-9.444-.014-18.888-.019-28.333-.024-14.723-.01-29.447-.03-44.171-.048z"/><path fill="#B6B7B0" d="M312 219h86v219H129v-24h25c-.08-6.821-.08-6.821-.18-13.642l-.015-2.569-.032-2.634C154 393 154 393 156 391c2.155-.227 2.155-.227 4.79-.195l2.568.015 3.267.055L177 391v23h141v-23h28v-24h25v-23h26V220h-85z"/><path fill="#1B1E23" d="M443 65h23v419h-23v-22h-22v-24h22z"/><path fill="#1B1E22" d="M61 65h22v419H61z"/><path fill="#1C1F24" d="M83 484h360v23H83z"/><path fill="#394047" d="M129 438h268l1 23c-27.638.767-55.24 1.443-82.887.738l-2.962-.073c-4.776-.118-9.55-.245-14.325-.397-12.816-.364-25.584-.15-38.396.197-21.184.574-42.354.69-63.544.665q-7.536-.006-15.071.004a7576 7576 0 0 1-11.889 0q-2.78 0-5.56.002A498 498 0 0 1 129 461z"/><path fill="#1C1F24" d="M106 220h23v219l-23-1z"/><path fill="#1B1E23" d="M398 219h23q.035 37.737.052 75.474.007 17.526.023 35.05.015 15.291.02 30.582 0 8.082.01 16.164c.055 41.343.055 41.343-1.105 61.73h-22z"/><path fill="#1B1F24" d="M154 156h217v23H154z"/><path fill="#1B1E23" d="m129 200 268 1v18H129zM84 42h93v22h-23v91h-25V64H84zM371 42h72v22h-46v91h-26z"/><path fill="#1F2227" d="M293 64h54v69h-53c-1.15-25.289-1.15-25.289-1.098-34.43l.003-2.732c.005-3.238.02-6.475.033-9.713z"/><path fill="#717B83" d="M347 110h24v45c-40.505.904-80.983 1.132-121.496 1.072q-11.907-.016-23.815-.022-24.345-.015-48.689-.05v-1h117v-22h53z"/><path fill="#7C878D" d="m200 107 4 1h-3v2l3.486-.007q16.224-.03 32.448-.045 8.342-.007 16.684-.023 8.043-.016 16.086-.02 3.077-.003 6.152-.01 4.293-.01 8.585-.009l2.596-.01c5.849.01 5.849.01 6.963 1.124.087 1.635.107 3.273.098 4.91l-.01 2.998-.026 3.154-.013 3.167q-.018 3.885-.049 7.771h-3q-2.302.049-4.603.108c-28.843.712-57.564 1.027-86.397-.108z"/><path fill="#B8BABB" d="M178 42h22v91h-22z"/><path fill="#2C3137" d="M105 367h1v71H83v-47h22zM420 386h1v5l1.804-.016q4.035-.029 8.071-.046l2.84-.026 2.715-.01 2.507-.016C441 391 441 391 443 392v45h-23z"/><path fill="#85898E" d="M83 42h1v22h22v24c-7.906 0-15.2-.266-23-1V65H61v419h22v1H60V64h23z"/><path fill="#323335" d="M465 153h1v331l-2-1q-.349-51.562-.625-103.125l-.02-3.82c-.672-124.787-.672-124.787.582-181.805l.076-3.415c.28-12.613.6-25.225.987-37.835"/><path fill="#C0C0B6" d="M346 241h25v23q-5.97.04-11.937.063l-3.444.025-3.271.01-3.031.016C347 264 347 264 346 263a83 83 0 0 1-.098-4.91l.008-2.7.027-3.452z"/><path fill="#A1A6AA" d="m232 64 11.438-.062 3.61-.028 2.823-.008 2.904-.016C255 64 255 64 256 65c.087 1.635.107 3.273.098 4.91l-.008 2.7-.027 3.453L256 87h-24z"/><path fill="#A5AAAD" d="M199 85h1v48h-22v-23h21l-.254-5.215-.309-6.722-.17-3.444-.146-3.271-.143-3.031C198 86 198 86 199 85"/><path fill="#383F46" d="M83 415h23v23H83z"/><path fill="#E5E1D5" d="m163.426 263.121 2.177.13 2.71.187L177 264v22l-8.125.563c-.833.06-1.666.122-2.524.185l-2.046.13-2.063.144C160 287 160 287 154 286v-22c3.685-.737 5.873-1.109 9.426-.879"/><path fill="#393F46" d="M420 415h23v22h-23z"/><path fill="#E6E2D6" d="M177 241h22v23h-22z"/><path fill="#646D74" d="M398 65h23v22h-23z"/><path fill="#F3C3B6" d="M293 343h53v2h-51c.08 15.049.08 15.049.18 30.097l.015 5.645.031 2.979.001 2.83.014 2.462C295 391 295 391 293 393c-2.48.24-2.48.24-5.643.227h-3.58l-3.879-.032-3.96-.008c-3.475-.008-6.95-.028-10.425-.05-3.546-.02-7.092-.03-10.638-.04-6.958-.02-13.917-.055-20.875-.097-.655-3.566-1.12-6.912-1.022-10.537l.062-2.581.081-2.655.063-2.484c.078-3.04.166-6.079.254-9.118L234 345h-54v-1h55v47h58z"/><path fill="#C25142" d="M180 287h55v2h-53l.781 38.77.066 3.225.061 3.075.054 2.671c.03 1.753.038 3.506.038 5.259l52 1v1h-55z"/><path fill="#F2D0C3" d="M233 242h2v45h-55v57h-1q-.231-11.292-.443-22.583-.098-5.242-.205-10.486-.123-6.024-.23-12.048l-.083-3.813-.06-3.519-.061-3.109C178 286 178 286 179 284l54 1z"/><path fill="#BA493A" d="M235 241h58v46h-1c-1.13-9.406-1.117-18.734-1.062-28.187q.008-2.31.013-4.62.017-5.596.049-11.193l-2.234.016c-17.957.11-35.824-.2-53.766-1.016z"/><path fill="#585C60" d="M83 42h1v22h22v1H87l1 4h-3l-1 2-1-6H61v-1h22z"/><path fill="#888D91" d="M349 42h22v23l-3-1 1-3c.095-2.144.13-4.291.125-6.437l.008-3.434c-.036-3.31-.036-3.31-1.133-7.129h-9l-1 3-1-3-2.312.563C352 45 352 45 349 44zm1 3h2v2h-2z"/><path fill="#949BA0" d="M316 60h3v2l12 1v1h-19l3-1z"/><path fill="#82878B" d="M370 48h1v17l-3-1 1-3c.225-2.226.408-4.456.563-6.687l.253-3.575z"/></svg>