<?xml version="1.0" encoding="UTF-8"?>
<svg version="1.1" xmlns="http://www.w3.org/2000/svg" width="272" height="364">
<path d="M0 0 C0.91417694 -0.00817749 1.82835388 -0.01635498 2.77023315 -0.02478027 C5.79969632 -0.04961909 8.82911263 -0.06614769 11.85864258 -0.08056641 C12.89399958 -0.08589008 13.92935658 -0.09121376 14.99608803 -0.09669876 C20.47769048 -0.12342551 25.9592702 -0.14280077 31.44091797 -0.15722656 C35.97367559 -0.17056012 40.50598244 -0.19840304 45.03857422 -0.23925781 C50.5145083 -0.28861491 55.99003377 -0.3133517 61.4661808 -0.32045364 C63.55013805 -0.32716003 65.6340864 -0.34236607 67.71791649 -0.36634445 C70.64054966 -0.39805235 73.56161415 -0.39802399 76.484375 -0.390625 C77.76664223 -0.415233 77.76664223 -0.415233 79.07481384 -0.44033813 C85.2213884 -0.37690171 89.29186675 1.31029308 94.06567383 5.19287109 C99.3913271 11.18423102 98.63323507 18.47532164 98.22485352 26.07226562 C97.81822774 31.4893691 97.00182491 36.84343637 96.06567383 42.19287109 C96.99379883 42.32435547 97.92192383 42.45583984 98.87817383 42.59130859 C104.90898983 43.7294773 108.98047902 47.56940646 112.73754883 52.21630859 C116.66036016 58.05437487 117.6491657 63.86942626 116.63208008 70.77490234 C114.9152186 78.10412479 111.30136134 83.00960065 105.06567383 87.19287109 C101.22294535 89.29039453 97.35586428 90.39486639 93.06567383 91.19287109 C92.99074347 95.15803219 92.93670933 99.12291123 92.90087891 103.08862305 C92.87861925 105.09031685 92.84047237 107.09181384 92.80200195 109.09326172 C92.73726857 117.65964633 92.72212271 125.05633617 98.27270508 131.92333984 C101.64429546 134.66305175 105.13296218 137.10843512 108.75317383 139.50537109 C115.10797766 143.79486368 121.18641045 148.2632528 127.06567383 153.19287109 C127.72438477 153.70591797 128.3830957 154.21896484 129.06176758 154.74755859 C149.05177737 170.91654036 162.45105704 198.15872678 165.65551758 223.40771484 C169.00108387 256.54223159 162.29525978 287.18381329 141.21630859 313.31835938 C127.62777449 329.66982475 109.43787116 344.7071768 87.52742577 346.99251747 C83.62322761 347.31026689 79.73613217 347.34033645 75.82080078 347.33813477 C74.94464615 347.34149338 74.06849152 347.34485199 73.16578674 347.34831238 C70.2951614 347.35774054 67.42459491 347.3597615 64.55395508 347.36083984 C62.53769406 347.36405852 60.52143327 347.36742304 58.50517273 347.3709259 C54.28648335 347.37689719 50.0678144 347.37876791 45.84912109 347.37817383 C40.47773768 347.37807243 35.1064871 347.39171109 29.73513508 347.40894604 C25.57150181 347.42013679 21.40789992 347.42209086 17.24425316 347.4215641 C15.26577485 347.4227341 13.28729546 347.42709991 11.30883217 347.43489647 C-17.08004854 347.53628337 -37.93505077 341.1823922 -58.55932617 320.88037109 C-63.69861773 315.7043283 -68.11699702 310.43434357 -71.93432617 304.19287109 C-72.89918945 302.67693359 -72.89918945 302.67693359 -73.88354492 301.13037109 C-89.21397998 275.90085511 -94.64999036 245.54482854 -88.37524414 216.61523438 C-80.01280101 182.56491575 -58.59743069 155.84774538 -29.49682617 137.00537109 C-23.39471844 132.98515894 -19.25129805 129.3124862 -16.93432617 122.19287109 C-16.70785453 119.70324374 -16.58000533 117.20378265 -16.52026367 114.70458984 C-16.50089752 114.00139114 -16.48153137 113.29819244 -16.46157837 112.57368469 C-16.40212434 110.34270091 -16.35553568 108.11166455 -16.30932617 105.88037109 C-16.2711148 104.36146923 -16.23206125 102.84258831 -16.19213867 101.32373047 C-16.09645201 97.61363642 -16.01229545 93.90338459 -15.93432617 90.19287109 C-17.18084961 90.06009766 -18.42737305 89.92732422 -19.71166992 89.79052734 C-27.27235209 88.98520132 -31.82955458 84.87615752 -36.48901367 79.19287109 C-40.44414778 73.71982065 -40.58083945 67.71861452 -39.93432617 61.19287109 C-38.52781588 54.9734584 -35.50318896 49.75492167 -30.23120117 45.97021484 C-26.84544612 43.9166808 -23.79788509 42.86105508 -19.93432617 42.19287109 C-20.15088867 40.43523438 -20.15088867 40.43523438 -20.37182617 38.64208984 C-23.39847131 13.38507242 -23.39847131 13.38507242 -18.93432617 7.19287109 C-12.87760151 1.12182793 -8.55474172 0.04213202 0 0 Z " fill="#2E2F2F" transform="translate(101.934326171875,5.80712890625)"/>
<path d="M0 0 C1.22847656 -0.00773438 2.45695312 -0.01546875 3.72265625 -0.0234375 C16.30997659 0.00325883 27.05333623 2.07427169 38.8125 6.5 C39.90916992 6.90186523 41.00583984 7.30373047 42.13574219 7.71777344 C47.90363974 9.84601688 53.59136415 12.09898766 59.25 14.5 C87.46043763 25.78417505 113.14394865 24.06243717 141.18359375 13.8125 C142.31659912 13.3992749 143.44960449 12.9860498 144.61694336 12.56030273 C146.83118023 11.74360614 149.03940689 10.91037882 151.24047852 10.05883789 C152.7456604 9.49024048 152.7456604 9.49024048 154.28125 8.91015625 C155.6125293 8.39400757 155.6125293 8.39400757 156.97070312 7.86743164 C159.84332029 7.16619141 161.67652341 7.46580665 164.5 8.25 C171.56788403 39.67684149 169.47416923 67.30790604 152.5 95.25 C150.33382721 98.41130554 147.99510589 101.34338396 145.5 104.25 C144.81035156 105.07242188 144.12070313 105.89484375 143.41015625 106.7421875 C133.892815 117.74818143 120.4771132 129.09478549 105.5 131.25 C102.34489398 131.39979872 99.19316908 131.40716104 96.03491211 131.41113281 C95.087854 131.41609772 94.1407959 131.42106262 93.16503906 131.42617798 C90.03579984 131.44076592 86.90661138 131.44759741 83.77734375 131.453125 C81.59363301 131.45888094 79.40992228 131.46463862 77.22621155 131.47039795 C72.64567836 131.48089956 68.06516267 131.48674716 63.48461914 131.49023438 C57.63981252 131.49570533 51.79524046 131.51970711 45.95050716 131.54820633 C41.43694911 131.56691426 36.92344652 131.57204273 32.40985298 131.57357025 C30.25666591 131.5765809 28.10347945 131.58455522 25.95033073 131.59775543 C3.81184592 131.7237475 -10.9211011 127.97547351 -27.26953125 112.48046875 C-46.4061316 93.3438684 -57.66068532 69.08291579 -57.8125 41.875 C-57.78073142 16.53955767 -57.78073142 16.53955767 -51.60546875 10.3515625 C-48.93918912 8.85263187 -46.45128002 8.06515009 -43.5 7.25 C-42.16137248 6.8167653 -40.82422303 6.37894708 -39.48828125 5.9375 C-26.3416853 1.74303264 -13.8339441 -0.08709723 0 0 Z " fill="#71B92B" transform="translate(84.5,206.75)"/>
<path d="M0 0 C25.41 0 50.82 0 77 0 C77.33 11.22 77.66 22.44 78 34 C83.61969483 49.4541608 89.19001938 54.39712843 102.25 63.1875 C109.34515085 67.99267599 115.79662775 73.08412807 122 79 C122.58910156 79.51433594 123.17820313 80.02867187 123.78515625 80.55859375 C128.19352131 84.57093547 131.49109473 89.31474166 134.875 94.1875 C135.36411865 94.8894751 135.8532373 95.5914502 136.35717773 96.31469727 C136.81423096 96.98815186 137.27128418 97.66160645 137.7421875 98.35546875 C138.1532373 98.96028076 138.56428711 99.56509277 138.98779297 100.18823242 C140.0623417 102.11158654 140.56433446 103.84864207 141 106 C139.80246094 106.43570313 138.60492188 106.87140625 137.37109375 107.3203125 C135.72645293 107.92157538 134.08193041 108.52316191 132.4375 109.125 C131.57213623 109.44049805 130.70677246 109.75599609 129.81518555 110.08105469 C125.82947859 111.5448174 121.86538581 113.02537342 117.9609375 114.6953125 C88.62492784 127.19609606 62.67877954 121.46724493 34 110 C32.75837936 109.49398782 31.51735464 108.98650676 30.27734375 108.4765625 C2.0368256 97.03459773 -27.38856587 95.81181963 -56.58178711 104.33569336 C-59.03938777 105.0108202 -61.49602566 105.52891662 -64 106 C-60.21584889 95.81752577 -53.4378986 87.7447426 -46 80 C-45.23945312 79.17628906 -44.47890625 78.35257812 -43.6953125 77.50390625 C-36.3379704 69.77266644 -27.92823272 63.95215515 -19.09375 58.0625 C-8.52146003 50.9293887 -3.52537681 43.62688405 -1 31 C-0.67 20.77 -0.34 10.54 0 0 Z " fill="#CCDCE5" transform="translate(102,96)"/>
<path d="M0 0 C1.226548 0.00303635 1.226548 0.00303635 2.47787476 0.00613403 C3.76315567 0.00350555 3.76315567 0.00350555 5.07440186 0.00082397 C7.9211527 -0.00359561 10.76784197 -0.00065618 13.61459351 0.00271606 C15.58375053 0.00204306 17.55290747 0.00107306 19.52206421 -0.00018311 C23.65480335 -0.00166022 27.78752093 0.00049492 31.92025757 0.00515747 C37.23033871 0.01085476 42.54036932 0.00757583 47.85044861 0.00158501 C51.91834904 -0.00202023 55.9862374 -0.00088219 60.05413818 0.0017128 C62.01265468 0.00238217 63.97117226 0.00155329 65.9296875 -0.00076675 C68.6619255 -0.00329267 71.39408047 0.00054645 74.12631226 0.00613403 C74.94401093 0.0041098 75.76170959 0.00208557 76.60418701 0 C82.18783105 0.02126611 82.18783105 0.02126611 83.30209351 1.13552856 C83.43145302 3.04884597 83.4781243 4.96787744 83.48959351 6.88552856 C83.50377319 7.93224731 83.51795288 8.97896606 83.53256226 10.05740356 C83.20863256 15.78931201 82.17506206 21.46123294 81.30209351 27.13552856 C53.25209351 27.13552856 25.20209351 27.13552856 -3.69790649 27.13552856 C-6.97326881 9.12103581 -6.97326881 9.12103581 -6.69790649 1.13552856 C-4.88919188 -0.67318605 -2.40777343 0.00917035 0 0 Z " fill="#97643E" transform="translate(101.69790649414063,20.864471435546875)"/>
<path d="M0 0 C1.68595024 -0.01292336 1.68595024 -0.01292336 3.40596008 -0.02610779 C7.12642353 -0.04883587 10.84613791 -0.04201566 14.56665039 -0.03295898 C17.14970627 -0.03819166 19.73276023 -0.04446682 22.31581116 -0.05174255 C27.73212676 -0.0621596 33.14815555 -0.0578952 38.56445312 -0.04296875 C44.82105717 -0.02604924 51.07696344 -0.04187898 57.33349127 -0.07419163 C63.35743825 -0.10412191 69.38103029 -0.10606934 75.40506172 -0.09669304 C77.96594716 -0.09587199 80.52684697 -0.10276445 83.08769035 -0.11746407 C86.66705229 -0.13485862 90.2449174 -0.12040703 93.82421875 -0.09765625 C94.88464386 -0.10934845 95.94506897 -0.12104065 97.03762817 -0.13308716 C101.81450551 -0.07122626 104.20329851 -0.0342768 108.13868713 2.85414124 C110.56603241 6.39232296 110.65360195 8.32227644 109.97680664 12.53344727 C108.18118259 15.28673748 106.92425742 17.05972188 103.97680664 18.53344727 C102.46784798 18.63617924 100.95448017 18.67722214 99.44206238 18.68734741 C98.48732529 18.69594788 97.5325882 18.70454834 96.54891968 18.71340942 C94.97251205 18.71979935 94.97251205 18.71979935 93.36425781 18.72631836 C92.26009018 18.73449585 91.15592255 18.74267334 90.01829529 18.75109863 C86.35212757 18.77597954 82.68599861 18.79247466 79.01977539 18.80688477 C77.77013819 18.81220844 76.52050098 18.81753212 75.23299599 18.82301712 C69.9821198 18.84425143 64.73124945 18.86338154 59.48034191 18.87463951 C51.95615782 18.89087773 44.43249022 18.92405222 36.90850085 18.98104036 C30.97970406 19.02441445 25.05102254 19.040385 19.12206459 19.046772 C16.60022618 19.05350134 14.07839578 19.06876664 11.55666161 19.09266281 C8.02988531 19.12417871 4.50441842 19.1243709 0.97753906 19.11694336 C-0.06732666 19.13334869 -1.11219238 19.14975403 -2.1887207 19.16665649 C-9.27018938 19.10549861 -9.27018938 19.10549861 -13.1714325 16.14175415 C-15.09266265 13.43559596 -15.68233602 12.23974318 -15.58569336 8.97094727 C-15.58698242 8.2271582 -15.58827148 7.48336914 -15.58959961 6.71704102 C-13.56894706 -1.07292295 -6.59523189 -0.04050987 0 0 Z " fill="#CFDEE7" transform="translate(93.023193359375,62.466552734375)"/>
<path d="M0 0 C0.91417694 -0.00817749 1.82835388 -0.01635498 2.77023315 -0.02478027 C5.79969632 -0.04961909 8.82911263 -0.06614769 11.85864258 -0.08056641 C12.89399958 -0.08589008 13.92935658 -0.09121376 14.99608803 -0.09669876 C20.47769048 -0.12342551 25.9592702 -0.14280077 31.44091797 -0.15722656 C35.97367559 -0.17056012 40.50598244 -0.19840304 45.03857422 -0.23925781 C50.5145083 -0.28861491 55.99003377 -0.3133517 61.4661808 -0.32045364 C63.55013805 -0.32716003 65.6340864 -0.34236607 67.71791649 -0.36634445 C70.64054966 -0.39805235 73.56161415 -0.39802399 76.484375 -0.390625 C77.76664223 -0.415233 77.76664223 -0.415233 79.07481384 -0.44033813 C85.2213884 -0.37690171 89.29186675 1.31029308 94.06567383 5.19287109 C99.3913271 11.18423102 98.63323507 18.47532164 98.22485352 26.07226562 C97.81822774 31.4893691 97.00182491 36.84343637 96.06567383 42.19287109 C96.99379883 42.32435547 97.92192383 42.45583984 98.87817383 42.59130859 C104.90898983 43.7294773 108.98047902 47.56940646 112.73754883 52.21630859 C116.66036016 58.05437487 117.6491657 63.86942626 116.63208008 70.77490234 C114.9152186 78.10412479 111.30136134 83.00960065 105.06567383 87.19287109 C101.22294535 89.29039453 97.35586428 90.39486639 93.06567383 91.19287109 C92.99074347 95.15803219 92.93670933 99.12291123 92.90087891 103.08862305 C92.87861925 105.09031685 92.84047237 107.09181384 92.80200195 109.09326172 C92.73726857 117.65964633 92.72212271 125.05633617 98.27270508 131.92333984 C101.64429546 134.66305175 105.13296218 137.10843512 108.75317383 139.50537109 C115.10797766 143.79486368 121.18641045 148.2632528 127.06567383 153.19287109 C127.72438477 153.70591797 128.3830957 154.21896484 129.06176758 154.74755859 C149.05177737 170.91654036 162.45105704 198.15872678 165.65551758 223.40771484 C169.00108387 256.54223159 162.29525978 287.18381329 141.21630859 313.31835938 C127.62777449 329.66982475 109.43787116 344.7071768 87.52742577 346.99251747 C83.62322761 347.31026689 79.73613217 347.34033645 75.82080078 347.33813477 C74.94464615 347.34149338 74.06849152 347.34485199 73.16578674 347.34831238 C70.2951614 347.35774054 67.42459491 347.3597615 64.55395508 347.36083984 C62.53769406 347.36405852 60.52143327 347.36742304 58.50517273 347.3709259 C54.28648335 347.37689719 50.0678144 347.37876791 45.84912109 347.37817383 C40.47773768 347.37807243 35.1064871 347.39171109 29.73513508 347.40894604 C25.57150181 347.42013679 21.40789992 347.42209086 17.24425316 347.4215641 C15.26577485 347.4227341 13.28729546 347.42709991 11.30883217 347.43489647 C-17.08004854 347.53628337 -37.93505077 341.1823922 -58.55932617 320.88037109 C-63.69861773 315.7043283 -68.11699702 310.43434357 -71.93432617 304.19287109 C-72.89918945 302.67693359 -72.89918945 302.67693359 -73.88354492 301.13037109 C-89.21397998 275.90085511 -94.64999036 245.54482854 -88.37524414 216.61523438 C-80.01280101 182.56491575 -58.59743069 155.84774538 -29.49682617 137.00537109 C-23.39471844 132.98515894 -19.25129805 129.3124862 -16.93432617 122.19287109 C-16.70785453 119.70324374 -16.58000533 117.20378265 -16.52026367 114.70458984 C-16.50089752 114.00139114 -16.48153137 113.29819244 -16.46157837 112.57368469 C-16.40212434 110.34270091 -16.35553568 108.11166455 -16.30932617 105.88037109 C-16.2711148 104.36146923 -16.23206125 102.84258831 -16.19213867 101.32373047 C-16.09645201 97.61363642 -16.01229545 93.90338459 -15.93432617 90.19287109 C-17.18084961 90.06009766 -18.42737305 89.92732422 -19.71166992 89.79052734 C-27.27235209 88.98520132 -31.82955458 84.87615752 -36.48901367 79.19287109 C-40.44414778 73.71982065 -40.58083945 67.71861452 -39.93432617 61.19287109 C-38.52781588 54.9734584 -35.50318896 49.75492167 -30.23120117 45.97021484 C-26.84544612 43.9166808 -23.79788509 42.86105508 -19.93432617 42.19287109 C-20.15088867 40.43523438 -20.15088867 40.43523438 -20.37182617 38.64208984 C-23.39847131 13.38507242 -23.39847131 13.38507242 -18.93432617 7.19287109 C-12.87760151 1.12182793 -8.55474172 0.04213202 0 0 Z M-18.43432617 9.25537109 C-22.92946691 18.72301264 -19.16935933 32.16925373 -17.93432617 42.19287109 C-18.67553711 42.47517578 -19.41674805 42.75748047 -20.18041992 43.04833984 C-26.19334051 45.5473267 -31.30180678 48.67682313 -34.93432617 54.19287109 C-35.80057617 55.49224609 -35.80057617 55.49224609 -36.68432617 56.81787109 C-39.17838936 63.5518417 -38.86044977 69.95124966 -35.93432617 76.50537109 C-33.14564227 81.41876654 -29.95008342 84.60267358 -24.93432617 87.19287109 C-22.33222612 87.90949212 -22.33222612 87.90949212 -19.66479492 88.34912109 C-18.7755835 88.5121875 -17.88637207 88.67525391 -16.97021484 88.84326172 C-16.29837158 88.95863281 -15.62652832 89.07400391 -14.93432617 89.19287109 C-14.80948639 93.70938218 -14.71941368 98.22494443 -14.65966797 102.74267578 C-14.63472858 104.2750806 -14.60076352 105.80736901 -14.55712891 107.33935547 C-14.30579823 116.39908701 -14.16345718 124.6352614 -19.93432617 132.19287109 C-24.29356593 136.36949819 -29.2558681 139.40567353 -34.37182617 142.56787109 C-39.28920872 145.62833995 -43.45162874 149.12892397 -47.66870117 153.08740234 C-49.5353328 154.82208242 -51.42687938 156.38100245 -53.43432617 157.94287109 C-72.27598142 173.98494077 -84.70627734 202.17425168 -87.93432617 226.19287109 C-89.33305985 244.92199533 -88.22242623 262.39316432 -81.93432617 280.19287109 C-81.69407715 280.88638672 -81.45382813 281.57990234 -81.20629883 282.29443359 C-72.51306227 306.60842573 -53.55244201 328.44922445 -30.24682617 339.63037109 C-27.3024017 341.00842724 -27.3024017 341.00842724 -23.93432617 342.19287109 C-23.29203064 342.44562805 -22.64973511 342.69838501 -21.98797607 342.95880127 C-11.7717297 346.38415982 -0.97211803 345.60581606 9.66333008 345.55615234 C11.86567688 345.55563284 14.06802414 345.55615401 16.27037048 345.55766296 C20.87058497 345.55757359 25.47062294 345.54721484 30.07080078 345.52905273 C35.94699266 345.50635373 41.82292737 345.50582781 47.69915104 345.51257038 C52.24179848 345.51592244 56.78438803 345.5092572 61.32702446 345.49944115 C63.49301284 345.49561121 65.65900768 345.49443171 67.82499886 345.49602699 C70.85855361 345.49640067 73.89178686 345.48369368 76.92529297 345.4675293 C78.24805237 345.47124542 78.24805237 345.47124542 79.59753418 345.47503662 C101.02152102 345.2941822 117.16251992 334.58212315 132.06567383 320.19287109 C132.73598633 319.57412109 133.40629883 318.95537109 134.09692383 318.31787109 C139.18071792 313.51137487 143.13006994 307.95485379 147.06567383 302.19287109 C147.58000977 301.46970703 148.0943457 300.74654297 148.62426758 300.00146484 C164.92345322 275.3097446 167.77087337 242.62925835 162.06567383 214.19287109 C155.35478997 185.31094954 136.89531369 160.26749148 112.29223633 143.99755859 C111.45112305 143.43931396 110.61000977 142.88106934 109.7434082 142.3059082 C108.08695345 141.21866174 106.41942519 140.14803342 104.73950195 139.09741211 C98.55887163 135.07038524 93.46168205 130.18093806 91.41601562 122.87158203 C90.97923351 119.53194903 90.95415553 116.29181857 90.96801758 112.92333984 C90.97014 111.90183586 90.97014 111.90183586 90.9723053 110.85969543 C90.97787085 108.69987462 90.9904168 106.5401602 91.00317383 104.38037109 C91.00819329 102.90966947 91.01275541 101.43896622 91.0168457 99.96826172 C91.02782895 96.37643069 91.04506961 92.78466129 91.06567383 89.19287109 C91.74984375 89.06807373 92.43401367 88.94327637 93.13891602 88.81469727 C94.03771484 88.64429932 94.93651367 88.47390137 95.86254883 88.29833984 C96.75296875 88.13229248 97.64338867 87.96624512 98.56079102 87.79516602 C104.98508837 86.25045436 109.34893218 81.41083739 113.06567383 76.19287109 C115.11587441 70.04226935 115.2781563 61.79769566 113.19458008 55.60302734 C108.92657718 48.31243879 103.01924227 45.29990235 95.06567383 43.19287109 C95.21004883 41.93732422 95.35442383 40.68177734 95.50317383 39.38818359 C98.41287866 22.52263979 98.41287866 22.52263979 93.06567383 7.19287109 C87.51912224 1.92364708 82.67204011 2.03967871 75.29321289 2.01586914 C74.40815063 2.00929794 73.52308838 2.00272675 72.61120605 1.99595642 C69.6845694 1.97625931 66.75798398 1.9645688 63.83129883 1.95458984 C62.82995659 1.95051432 61.82861435 1.94643879 60.79692841 1.94223976 C55.49686389 1.92139433 50.19682514 1.90708599 44.89672852 1.89770508 C39.43143774 1.88664379 33.96655444 1.85224253 28.50140762 1.81253338 C24.29082498 1.7863505 20.0803392 1.77801175 15.86968231 1.7744236 C13.85551959 1.76956201 11.84136107 1.75796026 9.82727814 1.7393856 C7.00309717 1.71495873 4.17996783 1.71596569 1.35571289 1.72290039 C0.53049133 1.71009033 -0.29473022 1.69728027 -1.1449585 1.68408203 C-8.31503516 1.74796821 -13.82623018 3.6104535 -18.43432617 9.25537109 Z " fill="#040404" transform="translate(101.934326171875,5.80712890625)"/>
<path d="M0 0 C5.06029427 2.21387874 8.07919521 5.51503961 10.6875 10.33984375 C12.76604415 16.5754762 11.72972915 21.48798865 8.96484375 27.25390625 C6.45201316 31.35742776 3.28328882 33.80791414 -1.3125 35.33984375 C-6.82406333 35.82498857 -11.68921062 36.10721691 -16.75 33.71484375 C-22.11948122 28.7382514 -25.39832087 24.7081165 -25.75 17.15234375 C-25.70092145 11.85185989 -24.49520128 8.94492037 -21.00390625 5 C-14.73885776 -1.14929701 -8.4705401 -2.41811027 0 0 Z " fill="#2D2E2E" transform="translate(180.3125,175.66015625)"/>
<path d="M0 0 C4.07399963 2.16740378 8.03759931 5.01657718 9.89453125 9.31640625 C10.78081922 15.94246392 11.02821723 22.75731132 6.89453125 28.31640625 C1.48922643 33.43722134 -3.36188848 34.79573939 -10.671875 34.6328125 C-15.55244702 33.9982598 -18.23852869 31.27706956 -21.41796875 27.75390625 C-23.94526513 24.10336703 -24.26325685 21.2793439 -24.29296875 16.94140625 C-24.30714844 16.00554687 -24.32132812 15.0696875 -24.3359375 14.10546875 C-24.01263924 10.19301183 -23.15882887 7.43932788 -20.44921875 4.55078125 C-19.84078125 4.0609375 -19.23234375 3.57109375 -18.60546875 3.06640625 C-17.6928125 2.31617188 -17.6928125 2.31617188 -16.76171875 1.55078125 C-12.11017098 -1.91593832 -5.40120152 -1.75363686 0 0 Z " fill="#2C2D2D" transform="translate(121.10546875,154.68359375)"/>
<path d="M0 0 C5.01791684 2.41935276 8.49958655 5.9991731 11 11 C11.74481646 17.91615287 11.74278671 23.73081831 7.46875 29.44140625 C3.69159719 33.4496083 -0.055811 34.20612215 -5.375 34.5 C-11.04285847 34.32263844 -14.8390585 32.85743753 -19 29 C-22.80976844 24.74773721 -23.75165112 20.19746228 -23.51953125 14.56640625 C-22.396499 9.01879582 -19.16982687 4.60378508 -14.6640625 1.2734375 C-9.93655062 -0.9863409 -5.1179588 -0.62498818 0 0 Z " fill="#2D2D2E" transform="translate(89,231)"/>
<path d="M0 0 C5.03359633 2.3843351 8.49996787 5.99993573 11 11 C11.52839495 17.21880209 11.72493456 22.73371321 8 28 C3.69013163 32.19338545 -0.45324734 33.71702748 -6.375 34.375 C-12.2122937 33.77114203 -16.39501249 31.68729457 -20.4375 27.4375 C-23.70769247 22.33599974 -23.85890951 16.88393151 -23 11 C-17.87267455 0.76205048 -10.94083482 -1.2262455 0 0 Z " fill="#2C2D2E" transform="translate(146,273)"/>
<path d="M0 0 C4.25303688 3.2982735 6.69926123 5.68253942 7.44140625 11.18359375 C7.69631061 17.76999363 7.25686353 22.21270643 3.0625 27.375 C-1.90497753 31.32870661 -5.97385838 32.02703914 -12.28515625 31.75 C-17.04660513 31.07680546 -20.20328059 29.6150334 -23.25 25.6796875 C-26.26400009 20.50984012 -27.00757513 15.24645572 -25.9375 9.375 C-24.22046841 5.05684822 -22.00026184 2.18472331 -18.3125 -0.625 C-12.27800336 -2.412999 -5.7480931 -2.96076347 0 0 Z " fill="#2D2D2F" transform="translate(209.9375,246.625)"/>
<path d="M0 0 C4.30746475 2.23656823 7.52075882 4.80436107 10 9 C10.81972887 15.35289872 9.82138744 18.8712958 6 24 C1.66375637 26.98719005 -1.7924678 27.55794988 -7 27 C-12.13959507 25.18602527 -14.63292134 22.91624028 -17 18 C-17.83255422 13.25953824 -17.47208811 9.94417623 -15.3125 5.625 C-10.89792569 0.6138616 -6.72204393 -1.18857358 0 0 Z " fill="#2E2F2E" transform="translate(152,120)"/>
<path d="M0 0 C0.91417694 -0.00817749 1.82835388 -0.01635498 2.77023315 -0.02478027 C5.79969632 -0.04961909 8.82911263 -0.06614769 11.85864258 -0.08056641 C12.89399958 -0.08589008 13.92935658 -0.09121376 14.99608803 -0.09669876 C20.47769048 -0.12342551 25.9592702 -0.14280077 31.44091797 -0.15722656 C35.97367559 -0.17056012 40.50598244 -0.19840304 45.03857422 -0.23925781 C50.5145083 -0.28861491 55.99003377 -0.3133517 61.4661808 -0.32045364 C63.55013805 -0.32716003 65.6340864 -0.34236607 67.71791649 -0.36634445 C70.64054966 -0.39805235 73.56161415 -0.39802399 76.484375 -0.390625 C77.76664223 -0.415233 77.76664223 -0.415233 79.07481384 -0.44033813 C85.2910983 -0.37618226 89.13888197 1.4511701 94.06567383 5.19287109 C93.40567383 5.85287109 92.74567383 6.51287109 92.06567383 7.19287109 C91.48817383 6.71849609 90.91067383 6.24412109 90.31567383 5.75537109 C85.72676139 2.56862635 80.70487819 3.03333119 75.29321289 3.01586914 C74.40815063 3.00929794 73.52308838 3.00272675 72.61120605 2.99595642 C69.6845694 2.97625931 66.75798398 2.9645688 63.83129883 2.95458984 C62.82995659 2.95051432 61.82861435 2.94643879 60.79692841 2.94223976 C55.49686389 2.92139433 50.19682514 2.90708599 44.89672852 2.89770508 C39.43143774 2.88664379 33.96655444 2.85224253 28.50140762 2.81253338 C24.29082498 2.7863505 20.0803392 2.77801175 15.86968231 2.7744236 C13.85551959 2.76956201 11.84136107 2.75796026 9.82727814 2.7393856 C7.00309717 2.71495873 4.17996783 2.71596569 1.35571289 2.72290039 C0.53049133 2.71009033 -0.29473022 2.69728027 -1.1449585 2.68408203 C-6.81261416 2.73458147 -11.21809782 3.96252948 -15.93432617 7.19287109 C-19.90148719 12.27579615 -19.33197428 18.03836291 -18.93432617 24.19287109 C-18.76932617 25.34787109 -18.60432617 26.50287109 -18.43432617 27.69287109 C-17.74299132 32.53221504 -17.85490958 37.31316289 -17.93432617 42.19287109 C-18.59432617 42.19287109 -19.25432617 42.19287109 -19.93432617 42.19287109 C-23.47134693 13.48615796 -23.47134693 13.48615796 -18.93432617 7.19287109 C-12.87760151 1.12182793 -8.55474172 0.04213202 0 0 Z " fill="#191A19" transform="translate(101.934326171875,5.80712890625)"/>
<path d="M0 0 C2.46111244 0.62751691 3.50724798 1.32353129 5.22265625 3.17578125 C7.33042857 6.84738464 7.95164849 8.41743289 7.16015625 12.55078125 C5.36021851 15.25068787 4.07638325 17.09266775 1.16015625 18.55078125 C-5.81127232 19.23649554 -5.81127232 19.23649554 -9.83984375 16.55078125 C-12.05871307 13.22247727 -12.6022631 11.4112279 -12.3125 7.48828125 C-10.7569235 1.1117032 -5.8595494 -0.34237768 0 0 Z " fill="#75BF2C" transform="translate(175.83984375,183.44921875)"/>
<path d="M0 0 C25.41 0 50.82 0 77 0 C77 11.88 77 23.76 77 36 C71.92281793 25.84563586 75 13.35292424 75 2 C50.58 2 26.16 2 1 2 C1 12.23 1 22.46 1 33 C0.67 33 0.34 33 0 33 C0 22.11 0 11.22 0 0 Z " fill="#CCD6D9" transform="translate(102,96)"/>
<path d="M0 0 C3.38031589 1.18767855 3.93216817 1.89825225 6 5 C6.64039015 9.1167938 6.14740698 10.75125073 4 14.375 C0.49872195 17.43861829 0.49872195 17.43861829 -3.0625 17.625 C-7.29509682 16.95315923 -8.51129559 16.38463799 -11 13 C-12.44430855 10.11138291 -12.37688506 8.20352299 -12 5 C-8.49736873 0.11754429 -5.89693881 -0.75051949 0 0 Z " fill="#74BD2C" transform="translate(117,163)"/>
<path d="M0 0 C4.18728708 0.66115059 5.85899843 1.2855284 8.5625 4.5625 C9.21729266 7.36547211 9.17251518 9.75412824 8.5625 12.5625 C7 15.0625 7 15.0625 4.5625 16.5625 C1.125 17.125 1.125 17.125 -2.4375 16.5625 C-5.82427089 14.11249553 -7.22448584 12.69857554 -8 8.5625 C-7.02626244 3.369233 -5.32588677 0.87150874 0 0 Z " fill="#74BE2B" transform="translate(82.4375,239.4375)"/>
<path d="M0 0 C2.1642907 1.59816837 2.89960563 2.50074149 3.43359375 5.15625 C3.44406064 11.43638457 3.44406064 11.43638457 1.375 14.0625 C-1.70053186 15.27652573 -3.71939399 15.47842171 -7 15 C-9.375 13.4375 -9.375 13.4375 -11 11 C-11.56288002 7.05983987 -11.60396028 4.94217804 -9.4375 1.5625 C-6.09493717 -0.58016848 -3.89504791 -0.49573337 0 0 Z " fill="#75BF2B" transform="translate(144,282)"/>
<path d="M0 0 C0.75042068 0.02361099 1.50084137 0.04722198 2.27400208 0.07154846 C4.66854344 0.14806298 7.06275138 0.23213951 9.45703125 0.31640625 C11.08136395 0.36963919 12.70571287 0.42237951 14.33007812 0.47460938 C18.31010659 0.60366152 22.28985269 0.73949579 26.26953125 0.87890625 C26.26953125 1.20890625 26.26953125 1.53890625 26.26953125 1.87890625 C24.83287109 1.8929248 24.83287109 1.8929248 23.3671875 1.90722656 C19.78095629 1.94738962 16.19555946 2.0132175 12.60986328 2.08642578 C11.06407468 2.11448412 9.51814664 2.13577331 7.97216797 2.14990234 C-3.985535 2.11952388 -3.985535 2.11952388 -14.73046875 6.87890625 C-18.69762977 11.96183131 -18.12811686 17.72439807 -17.73046875 23.87890625 C-17.56546875 25.03390625 -17.40046875 26.18890625 -17.23046875 27.37890625 C-16.5391339 32.2182502 -16.65105216 36.99919805 -16.73046875 41.87890625 C-17.39046875 41.87890625 -18.05046875 41.87890625 -18.73046875 41.87890625 C-22.26748951 13.17219311 -22.26748951 13.17219311 -17.73046875 6.87890625 C-12.01333844 1.14826026 -8.12029332 -0.30146282 0 0 Z " fill="#090909" transform="translate(100.73046875,6.12109375)"/>
<path d="M0 0 C3.5 0.25 3.5 0.25 5.5 2.25 C5.765625 4.125 5.765625 4.125 5.75 6.25 C5.75515625 6.95125 5.7603125 7.6525 5.765625 8.375 C5.5 10.25 5.5 10.25 3.5 12.25 C0.42891945 12.5767107 -1.65050101 12.73138276 -4.375 11.1875 C-6.11973477 8.18267901 -5.80835443 5.64189869 -5.5 2.25 C-3.5 0.25 -3.5 0.25 0 0 Z " fill="#75C02A" transform="translate(200.5,254.75)"/>
<path d="M0 0 C0 0.99 0 1.98 0 3 C-1.65 3.33 -3.3 3.66 -5 4 C-5 14.56 -5 25.12 -5 36 C-8 33 -8 33 -8.35644531 29.82958984 C-8.34709961 28.55293457 -8.33775391 27.2762793 -8.328125 25.9609375 C-8.32625183 25.27947662 -8.32437866 24.59801575 -8.32244873 23.89590454 C-8.31573606 22.45854789 -8.30183693 21.02120926 -8.28125 19.58398438 C-8.250016 17.37613077 -8.240271 15.16899041 -8.234375 12.9609375 C-8.16346428 2.16346428 -8.16346428 2.16346428 -7 1 C-4.67182036 0.63239269 -2.3381615 0.29758419 0 0 Z " fill="#0E0D0E" transform="translate(200,93)"/>
<path d="M0 0 C2.5 0.25 2.5 0.25 4.5 2.25 C4.75 4.75 4.75 4.75 4.5 7.25 C2.5 9.25 2.5 9.25 0 9.5 C-2.5 9.25 -2.5 9.25 -4.5 7.25 C-4.75 4.75 -4.75 4.75 -4.5 2.25 C-2.5 0.25 -2.5 0.25 0 0 Z " fill="#78C52C" transform="translate(148.5,128.75)"/>
<path d="M0 0 C0.66 0 1.32 0 2 0 C4.744846 4.69303485 5.3828788 8.08624628 5.3125 13.5 C5.30412109 14.18835937 5.29574219 14.87671875 5.28710938 15.5859375 C5.12927881 22.47997656 4.18838467 29.20923043 3 36 C2.34 36 1.68 36 1 36 C1.144375 34.81664062 1.28875 33.63328125 1.4375 32.4140625 C4.10049328 16.72696916 4.10049328 16.72696916 0 2 C0 1.34 0 0.68 0 0 Z " fill="#020202" transform="translate(195,12)"/>
<path d="M0 0 C1.77948801 3.0712514 2.25605436 5.30808201 2.265625 8.84375 C2.26820312 9.76027344 2.27078125 10.67679688 2.2734375 11.62109375 C2.26570312 12.57113281 2.25796875 13.52117187 2.25 14.5 C2.25773438 15.45003906 2.26546875 16.40007812 2.2734375 17.37890625 C2.27085938 18.29542969 2.26828125 19.21195313 2.265625 20.15625 C2.26336914 20.98962891 2.26111328 21.82300781 2.25878906 22.68164062 C1.97888637 25.18914626 1.25689064 26.83070911 0 29 C-0.75406186 19.20879681 -1.22598899 9.78905055 0 0 Z " fill="#0E0E0E" transform="translate(12,233)"/>
<path d="M0 0 C0.66 0 1.32 0 2 0 C1.33220486 5.50930988 -0.83484935 10.01268514 -4.90234375 13.74609375 C-8.19954399 16.30648947 -10.84866317 18.20309159 -15 19 C-15 18.34 -15 17.68 -15 17 C-13.42578125 15.921875 -13.42578125 15.921875 -11.3125 14.75 C-5.228515 11.07807277 -1.8444337 7.0423832 0 0 Z " fill="#030304" transform="translate(216,76)"/>
<path d="M0 0 C0.33 0.66 0.66 1.32 1 2 C1.66 2 2.32 2 3 2 C1.90109517 8.91663627 0.43430815 15.42736799 -2 22 C-2.66 21.67 -3.32 21.34 -4 21 C-3.79503906 20.23816406 -3.59007812 19.47632813 -3.37890625 18.69140625 C-1.74722695 12.43793676 -0.53672183 6.44066194 0 0 Z " fill="#070606" transform="translate(264,264)"/>
<path d="M0 0 C-5.79622721 2.32637691 -9.86090397 3.43680971 -16 2 C-16 1.67 -16 1.34 -16 1 C-14.0852312 0.63571223 -12.16807707 0.28394694 -10.25 -0.0625 C-9.18265625 -0.25972656 -8.1153125 -0.45695313 -7.015625 -0.66015625 C-4.25228095 -0.97156937 -2.59053383 -0.8991416 0 0 Z " fill="#3A3C3D" transform="translate(209,216)"/>
<path d="M0 0 C1.485 0.99 1.485 0.99 3 2 C2.67 4.31 2.34 6.62 2 9 C1.34 9 0.68 9 0 9 C0 6.03 0 3.06 0 0 Z " fill="#151516" transform="translate(216,67)"/>
<path d="M0 0 C0.99 1.485 0.99 1.485 2 3 C2.87072072 4.23220174 3.74584102 5.46130459 4.625 6.6875 C5.07101563 7.31011719 5.51703125 7.93273437 5.9765625 8.57421875 C6.31429687 9.04472656 6.65203125 9.51523438 7 10 C6.01 10 5.02 10 4 10 C1.09677182 6.35022743 0 4.74147821 0 0 Z " fill="#C7D3D8" transform="translate(155,198)"/>
<path d="M0 0 C-2.2551922 2.2551922 -4.0047587 2.97723468 -7 4 C-7.99 4 -8.98 4 -10 4 C-9.67 3.01 -9.34 2.02 -9 1 C-6.03421164 -0.16513114 -3.15436364 -0.08762121 0 0 Z " fill="#DCE8ED" transform="translate(48,198)"/>
<path d="M0 0 C1.258125 -0.04125 2.51625 -0.0825 3.8125 -0.125 C4.52019531 -0.14820313 5.22789063 -0.17140625 5.95703125 -0.1953125 C8 0 8 0 11 2 C6.99799622 3.60080151 3.95443764 2.29279692 0 1 C0 0.67 0 0.34 0 0 Z " fill="#BECBD0" transform="translate(112,197)"/>
<path d="M0 0 C6.15234375 0.5859375 6.15234375 0.5859375 8 1 C8.33 1.66 8.66 2.32 9 3 C8.34 3.66 7.68 4.32 7 5 C7 4.34 7 3.68 7 3 C5.824375 3.0928125 5.824375 3.0928125 4.625 3.1875 C3.75875 3.125625 2.8925 3.06375 2 3 C1.34 2.01 0.68 1.02 0 0 Z " fill="#111211" transform="translate(79,93)"/>
<path d="M0 0 C0.33 0.66 0.66 1.32 1 2 C1.66 2 2.32 2 3 2 C2.34 4.31 1.68 6.62 1 9 C0.67 9 0.34 9 0 9 C0 6.03 0 3.06 0 0 Z " fill="#101010" transform="translate(264,264)"/>
</svg>
