<svg xmlns="http://www.w3.org/2000/svg" width="271" height="286"><path fill="#92B5BE" d="M125.465 7.684c3.133.003 6.265-.02 9.398-.045 36.99-.116 36.99-.116 48.137 7.361 5.384 5.67 4.63 10.982 4.563 18.438l.072 3.681c-.017 9.934-.017 9.934-3.037 13.643C181.225 53.668 179.47 55 175 55v11l4.25 1.188c13.563 4.124 26.932 9.996 33.969 23.078 2.739 5.908 3.902 11.092 3.921 17.628l.018 3.576.003 3.898.015 4.126q.019 5.595.024 11.189l.012 6.999q.02 10.962.027 21.924.007 12.63.05 25.26.033 9.779.034 19.557 0 5.833.025 11.666.023 5.49.01 10.982c-.002 1.972.012 3.944.026 5.917-.057 12.2-2.834 19.953-11.095 28.856-21.21 20.404-58.052 17.788-85.178 17.265-8.11-.193-16.104-.793-24.111-2.109l-2.282-.375c-17.907-3.114-35.458-8.524-46.413-24.023-3.834-7.644-3.596-14.952-3.58-23.365q-.007-2.09-.015-4.18c-.013-3.772-.014-7.542-.012-11.313q0-4.734-.008-9.468-.016-11.175-.006-22.351c.006-7.667-.006-15.333-.027-23a6248 6248 0 0 1-.02-19.797c.001-3.934-.001-7.868-.015-11.802q-.018-5.553.002-11.108c.004-1.992-.008-3.984-.02-5.977.067-11.391 1.87-20.1 9.646-28.741L57 79l1.57-1.434C66.57 70.9 77.084 67.706 87 65l1-10-2.125-.25C82.315 53.821 79.93 52.197 77 50c-2.144-4.288-1.31-9.935-1.35-14.694a274 274 0 0 0-.082-4.221 308 308 0 0 1-.091-6.105l-.06-3.69C76.16 17.09 77.749 15.66 81 13c13.111-6.45 30.256-5.345 44.465-5.316"/><path fill="#7BA1AD" d="M125.465 7.684c3.133.003 6.265-.02 9.398-.045 36.99-.116 36.99-.116 48.137 7.361 5.384 5.67 4.63 10.982 4.563 18.438l.072 3.681c-.017 9.934-.017 9.934-3.037 13.643C181.225 53.668 179.47 55 175 55v11l4.25 1.188c13.563 4.124 26.932 9.996 33.969 23.078 2.739 5.908 3.902 11.092 3.921 17.628l.018 3.576.003 3.898.015 4.126q.019 5.595.024 11.189l.012 6.999q.02 10.962.027 21.924.007 12.63.05 25.26.033 9.779.034 19.557 0 5.833.025 11.666.023 5.49.01 10.982c-.002 1.972.012 3.944.026 5.917-.057 12.2-2.834 19.953-11.095 28.856-21.21 20.404-58.052 17.788-85.178 17.265-8.11-.193-16.104-.793-24.111-2.109l-2.282-.375c-17.907-3.114-35.458-8.524-46.413-24.023-3.834-7.644-3.596-14.952-3.58-23.365q-.007-2.09-.015-4.18c-.013-3.772-.014-7.542-.012-11.313q0-4.734-.008-9.468-.016-11.175-.006-22.351c.006-7.667-.006-15.333-.027-23a6248 6248 0 0 1-.02-19.797c.001-3.934-.001-7.868-.015-11.802q-.018-5.553.002-11.108c.004-1.992-.008-3.984-.02-5.977.067-11.391 1.87-20.1 9.646-28.741L57 79l1.57-1.434C66.57 70.9 77.084 67.706 87 65l1-10-2.125-.25C82.315 53.821 79.93 52.197 77 50c-2.144-4.288-1.31-9.935-1.35-14.694a274 274 0 0 0-.082-4.221 308 308 0 0 1-.091-6.105l-.06-3.69C76.16 17.09 77.749 15.66 81 13c13.111-6.45 30.256-5.345 44.465-5.316M149.938 67c-16.209 2.882-33.595 1.002-49.938 0l-.84 1.715-1.097 2.223-1.09 2.214C96 75 96 75 95 76c-1.913.277-3.83.52-5.75.75-11.567 1.716-23.097 5.467-30.393 15.024-4.009 6.192-3.702 12.446-3.633 19.599q-.014 2.153-.032 4.305c-.027 3.874-.017 7.747.002 11.622.015 4.067.001 8.135-.008 12.203-.011 6.829.003 13.658.032 20.487.032 7.878.022 15.756-.011 23.634q-.04 10.174-.016 20.347c.01 4.043.011 8.086-.009 12.129q-.024 5.702.03 11.406.011 2.085-.008 4.168c-.076 8.747.792 14.716 6.796 21.326 17.816 15.742 49.037 15.233 71.25 15.25l2.39.002c22.214-.03 45.328-.541 64.09-13.799 6.786-7.335 6.848-15.702 6.788-25.26q.008-2.061.02-4.122c.019-3.709.012-7.417 0-11.126-.01-3.897-.001-7.793.005-11.69q.01-9.813-.022-19.626c-.021-7.543-.014-15.086.008-22.63q.026-9.744.01-19.49c-.006-3.872-.007-7.743.006-11.614q.017-5.463-.02-10.926c-.007-1.959.005-3.918.017-5.877-.082-8.64-1.241-15.942-6.73-22.842-9.45-7.56-19.33-13.21-31.812-12.25v2l-9-1 4-1V66c-4.572-.176-8.583.069-13.062 1"/><path fill="#3C494A" d="M125.465 7.684c3.133.003 6.265-.02 9.398-.045 36.99-.116 36.99-.116 48.137 7.361 5.384 5.67 4.63 10.982 4.563 18.438l.072 3.681c-.017 9.934-.017 9.934-2.858 13.592-4.3 3.544-8.51 4.71-13.777 6.289l-2.634.82c-9.93 2.704-19.728 2.636-29.956 2.571-3.008-.016-6.015 0-9.023.02C90.148 60.45 90.148 60.45 77 50c-2.144-4.288-1.31-9.935-1.35-14.694a274 274 0 0 0-.082-4.221 308 308 0 0 1-.091-6.105l-.06-3.69C76.16 17.09 77.749 15.66 81 13c13.111-6.45 30.256-5.345 44.465-5.316"/><path fill="#DA6151" d="M140.813 101.625 144 102v2l4 1v4h2c1.596 3.49 2.32 6.154 2 10l-1 1c-.247 4.143-.247 4.143 1 8 .098 2.657.139 5.281.125 7.938l.012 2.208c-.006 3.213-.114 5.786-1.137 8.854h2v2h2c.427 4.695-.638 7.94-3 12-5.406 4.434-11.293 4.495-18 4v5l2.668-.14 3.52-.11 3.48-.14c3.972.465 5.52 1.614 8.332 4.39 1.358 2.716 1.15 5.03 1.25 8.063.375 5.65 1.525 9.405 4.594 14.132C159 198 159 198 160 201c3.023 1.035 3.023 1.035 6.563 1.688 1.197.25 2.395.502 3.628.761L173 204c-.71 4.719-.71 4.719-3.312 7.25-3.962 2.58-3.962 2.58-6.688 2.75a135 135 0 0 1-5-2l1.313 2.012 1.687 2.675 1.688 2.637c1.423 2.901 1.734 4.494 1.312 7.676l-2 3h-2l-.812 1.938C158 234 158 234 155 235l-.06-1.772c-.096-2.66-.205-5.319-.315-7.978l-.094-2.79-.117-2.694-.095-2.476c-.379-2.721-.575-4.129-2.319-6.29-5.959-2.083-11.7-2.332-17.969-2.414l-2.79-.059c-2.914-.06-5.827-.106-8.741-.152q-2.98-.057-5.96-.117-7.27-.142-14.54-.258v-2l3.438-1.437c2.53-1.403 3.4-2.025 4.25-4.833.227-2.26.346-4.459.312-6.73l-2.687-.812c-5.87-2.105-5.87-2.105-8.313-4.188-.583-3.936-.375-6.232 1.375-9.812C102 176 102 176 104 174c2.969-.379 2.969-.379 6.5-.562 4.41-.102 4.41-.102 8.5-1.438l-2.012-.262c-5.825-.927-9.342-1.766-12.988-6.738-1.53-2.884-3-5.673-3-9h-2v-2l-3-1c-.687-3.312-.687-3.312-1-7l1.523-1.41L98 143c-.085-2.458-.085-2.458-.687-5.125-.657-5.58.331-8.462 3.757-12.867 6.735-7.008 13.958-9.718 23.563-10.117 2.122-.014 4.245.04 6.367.109l.188-3.125c1.23-5.869 3.163-9.614 9.625-10.25"/><path fill="#F3C4B6" d="M188 110c4.363 3.713 5.23 6.938 5.846 12.606 1.174 15.887-4.554 28.964-14.471 41.207-4.466 4.778-9.931 7.998-15.496 11.34-2.938 1.538-2.938 1.538-3.879 3.847l2.621.797c7.983 2.842 15.654 7.04 20.379 14.203l1.875 2.75c1.565 4.522 1.33 8.631.125 13.25-1.863 3.055-2.533 3.844-6 5-1.997.12-4 .175-6 .188l-3.187.042C167 215 167 215 164 213l3.375-1.687c2.778-1.566 3.53-2.132 5.063-5.063L173 204l-2.012-.043c-4.343-.235-7.197-.395-10.8-2.957L158 198l-1.371-1.875c-3.023-4.659-3.903-8.323-4.129-13.875-.204-3.967-.343-5.96-2.25-9.5-5.139-2.767-10.495-2.657-16.25-2.75v-5l2.668-.367 3.52-.508 3.48-.492c3.054-.58 5.577-1.2 8.332-2.633.774-2.808.774-2.808 1-6 .633-2.01 1.29-4.015 2-6h-2v-2h-2c.89-12.756 4.272-18.763 13.5-27.25 13.918-11.88 13.918-11.88 23.5-9.75"/><path fill="#EABDA2" d="M108.234 207.406h3.008q3.147.008 6.294.052c3.19.042 6.376.041 9.566.034q3.066.016 6.132.04h2.861c5.81.102 11.766.503 16.905 3.468 1.974 2.902 2.249 5.276 2.243 8.737l.01 2.83-.023 3.035v3.13q-.006 3.27-.024 6.54c-.018 3.347-.02 6.694-.02 10.04q-.007 3.177-.018 6.352l-.003 3.046-.02 2.812-.011 2.48C155 262 155 262 154 264h-26l1-14 9.277-.684c2.634-.02 2.634-.02 3.723-1.316.237-2.526.422-5.031.563-7.562l.13-2.155q.159-2.64.307-5.283l-13-1v-12c-3.116-1.039-5.36-1.134-8.625-1.125l-2.977-.008c-2.35-.137-2.35-.137-3.398 1.133a104 104 0 0 0-.562 5.063l-.254 2.785L114 230l-2.082.184-2.73.254-2.708.246c-2.607.25-2.607.25-5.48 1.316a515 515 0 0 0-.125 5.813l-.07 3.269c-.035 3.112-.035 3.112 2.195 5.918 2.425.582 2.425.582 5.125.688L113 248v12l3 1v1c-9.089.25-16.793.274-25-4q-.074-7.443-.11-14.886-.015-2.528-.04-5.054c-.025-2.436-.037-4.87-.045-7.306l-.032-2.246c-.001-6.687.477-12.841 4.212-18.533 4.385-2.873 8.111-2.657 13.25-2.569"/><path fill="#526161" d="M105 8q10.062-.037 20.123-.055 3.42-.008 6.841-.02 4.926-.018 9.852-.023l3.073-.015c5.132 0 10.078.048 15.111 1.113l2 2c2.4.528 4.766.974 7.188 1.375 5.63 1.033 10.254 2.044 14.812 5.625.664 2.129.664 2.129 1 4-7.329 3.82-14.89 5.636-23 7l-3.025.517c-8.907 1.408-17.654 1.882-26.662 1.858h-2.14c-10.155-.024-20.052-.65-30.11-2.125l-3.259-.475C90.123 27.67 84.17 25.785 78 23v-6c9.323-5.18 18.467-6.24 29-7z"/><path fill="#7499A6" d="M88 56c8.081.85 8.081.85 12 1.488 10.69 1.674 21.264 1.851 32.07 1.828 3.057-.004 6.112.02 9.168.045 9.437.03 18.21-.08 27.332-2.716C171 56 171 56 175 56v10l4.25 1.188c13.492 4.102 26.426 9.866 33.781 22.597 1.812 3.816 2.275 7.03 1.969 11.215a256 256 0 0 1-3.113-6.367C205.98 82.28 198.427 77.395 186 72l-1 3c-1.113 1.707-1.113 1.707-3 3-3.355.074-3.355.074-7.187-.312l-3.856-.364L168 77v2h-11l2-2h4l-2-5h2v-6l-3.566.656C139.606 70.09 120.004 69.227 100 68l-1.375 3.375C97 75 97 75 95 77a92 92 0 0 1-6.125.938c-4.05.555-7.66 1.178-11.437 2.75C73.94 82.023 73.32 82.082 70 81l1-7c-8.119 2.03-13.679 7.096-18.676 13.582-4.25 7.761-4.767 15.192-4.756 23.914l-.031 3.699q-.036 4.98-.043 9.959c-.01 3.48-.036 6.958-.06 10.438-.044 6.576-.072 13.152-.095 19.729-.028 7.492-.071 14.984-.117 22.477Q47.085 200.898 47 224h-1q-.302-23.993-.547-47.985-.111-11.141-.252-22.282-.125-9.716-.214-19.432-.046-5.14-.119-10.28c-.053-3.834-.087-7.668-.117-11.503l-.06-3.405C44.645 98.2 46.83 89.743 54.25 81.5L57 79l1.57-1.434C66.57 70.9 77.084 67.706 87 65z"/><path fill="#A94A31" d="M140.813 101.625 144 102v2l4 1v4h2c1.596 3.49 2.32 6.154 2 10l-1 1c-.247 4.143-.247 4.143 1 8 .23 2.645.37 5.226.438 7.875l.138 2.184c.045 2.12.045 2.12-.576 5.941-3.192 2.816-6.22 4.39-10.375 5.25L138 150l-1 5h-1l-.75-2.75c-1.318-3.427-2.446-4.941-5.25-7.25l-2-.812c-2.716-1.613-3.63-3.68-5.07-6.434-1.028-2.01-1.028-2.01-2.93-4.754-1.94.276-1.94.276-4 1l-2 3c-1.875.328-1.875.328-4 .25-.701-.015-1.403-.03-2.125-.047C106 137 106 137 104 136v9h-2c-2.83-2.898-4.746-5.939-5.687-9.875 1.46-6.636 5.499-11.612 10.937-15.562 7.449-4.512 15.241-4.837 23.75-4.563l.188-3.125c1.23-5.869 3.163-9.614 9.625-10.25"/><path fill="#D79771" d="M117 132c2.652.368 3.738.687 5.484 2.777l1.266 2.16 1.297 2.153C126 141 126 141 126 143l2.75.688c3.766 1.52 5.075 2.929 7.25 6.312.75 2.313.75 2.313 1 4l.09-1.828c.91-2.172.91-2.172 3.851-3.656l3.621-1.266 3.63-1.297L151 145v2h2v2h2c.427 4.695-.638 7.94-3 12-5.406 4.434-11.293 4.495-18 4v5h13v1l-2.992.148-3.883.227-3.867.21c-3.339.087-3.339.087-5.258 2.415l-.437 2c-.563 2-.563 2-3.563 4-2.5.063-2.5.063-5-1l-1.187-3.437c-1.357-3.704-1.357-3.704-4.043-4.293q-2.662-.397-5.329-.766c-3.721-.768-5.233-2.493-7.441-5.504-1.53-2.884-3-5.673-3-9h-2v-2l-3-1c-.687-3.312-.687-3.312-1-7 1.313-1.75 1.313-1.75 3-3l2-3 2 5h2v-9l2.082.14 2.73.11 2.708.14c2.647-.15 2.647-.15 4.304-2.406z"/><path fill="#B84737" d="m118.496 217.734 2.942.016 2.933-.016C127 218 127 218 130 220c.293 2.82.293 2.82.188 6.125l-.083 3.32L130 232l2.336-.035 3.039-.028 3.023-.035C141 232 141 232 143 233q.08 3.688.125 7.375c.017.699.034 1.397.05 2.117.018 1.837-.072 3.674-.175 5.508-2 2-2 2-4.82 2.195l-3.305-.07-3.32-.055L129 250l.035 2.371.028 3.066.035 3.06C129 261 129 261 128 262c-1.955.125-3.916.176-5.875.188l-3.242.042C116 262 116 262 113 260c-.293-2.82-.293-2.82-.187-6.125l.082-3.32L113 248l-2.082.14-2.73.11-2.708.14c-2.48-.39-2.48-.39-4.277-2.093-2.092-3.995-1.822-7.91-1.203-12.297 1.375-2.625 1.375-2.625 4-4 3.362-.306 6.636-.231 10 0l-.07-2.117-.055-2.758-.07-2.742c.282-3.443 1.29-4.287 4.691-4.649"/><path fill="#F3C4B5" d="M91 115c3.309 1.848 3.309 1.848 6.438 4.063l3.183 2.222L103 123l-1.094 1.758C98.227 130.93 98.227 130.93 98 138l.688 2.688L99 143l-1.5 1.375L96 146c.076 3.615.076 3.615 1 7l2 1v2h2l.734 1.828c2.174 5.183 4.002 9.54 9.266 12.172 1.537.225 3.08.408 4.625.563l2.477.253L120 171c-1.928 2.676-3.16 3.037-6.441 3.793-6.696.788-12.356 1.308-17.996-2.918-11.029-10.656-18.38-24.16-18.905-39.65-.165-10.602-.165-10.602 2.717-14.662 4.164-4.065 5.977-3.784 11.625-2.563"/><path fill="#6D909C" d="m158 233 1 2 1.992-.105c11.652-.332 27.96.444 38.008 7.105 1.25 2.129 1.25 2.129 2 4-8.482 11.768-25.767 14.501-39.281 16.703-2.926.32-5.778.349-8.719.297l2-1-.048-2.447c-.062-3.642-.1-7.285-.14-10.928l-.076-3.852-.029-3.671-.048-3.396L155 235z"/><path fill="#7399A5" d="M163 66v11l-2 1h3v2c-20.618 5.07-49.751 7.396-69-3l5-10 3.566.219c24.625 1.736 24.625 1.736 49.04-.774 3.51-.653 6.834-.582 10.394-.445"/><path fill="#789DA9" d="M46 235h1l.55 3.105.763 4.083.357 2.04c.788 4.145 1.829 7.358 4.33 10.772l2 1v-2l4-2-1-2c2.95 1.408 5.633 3.04 8.375 4.813C84.364 265.563 105.622 266.402 126 268v1l-12 1-1 3-3 2c2.885.818 5.498 1.145 8.493 1.205l2.669.06 2.854.051 2.942.063q4.646.097 9.292.183l6.305.131q7.722.16 15.445.307v1c-4.228 1.024-8.334 1.16-12.66 1.168l-2.237.013q-3.582.013-7.166.007l-2.465-.002c-12.24-.025-24.365-.197-36.472-2.186l-2.282-.375C77.402 273.614 61.854 268.53 50 255c-3.426-5.04-4.134-8.718-4.062-14.75l.027-2.984z"/><path fill="#CF5C38" d="M139 119v3l-2 2c-2.625-.375-2.625-.375-5-1v3h2c1.333 2.667 1.375 5.032 1.625 8 .095 1.072.19 2.145.29 3.25C136 140 136 140 135 142c-1.812.813-1.812.813-4 1-2.062-1.25-2.062-1.25-4-3l-1.562-1.312C124 137 124 137 122.625 133.875c-1.333-3.115-1.333-3.115-4.312-3.75L116 130v2c-1.635 2.143-2.61 2.912-5.262 3.512L104 136v9h-2c-2.83-2.898-4.746-5.939-5.687-9.875 1.46-6.636 5.499-11.612 10.937-15.562 9.536-5.74 22.137-6.538 31.75-.563"/><path fill="#AF4D3E" d="m140.875 170.563 2.184-.1c3.816-.039 5.568.199 8.433 2.795 2.176 3.958 1.81 6.3 1.508 10.742l-12 4 6 13-5 1c-2.687-2.312-2.687-2.312-5-5l-2-2a126 126 0 0 1-1.625-7.125c-.39-1.922-.39-1.922-.79-3.883L132 181l-2 2c-2.164.414-2.164.414-4.625.625l-2.477.227L121 184l-1-3c-3.008-1.225-3.008-1.225-6-2v-2h-2l-1 15c-6.053 0-7.72-.026-12-4-.652-3.984-.397-6.188 1.375-9.812C102 176 102 176 104 174c2.734-.306 5.383-.511 8.125-.625l2.285-.117c1.863-.095 3.726-.177 5.59-.258l3 6 7-1 .375-2.375c1.377-5.782 5.468-5.022 10.5-5.062"/><path fill="#6D919D" d="m91 232 1 28c-7.102-1.42-11.815-2.442-17.812-5.812l-1.905-1.002C68.224 250.97 65.068 248.527 62 245c-.625-2.625-.625-2.625 0-5 4.05-3.022 8.295-4.025 13.125-5.125C87.305 232 87.305 232 91 232"/><path fill="#DDA177" d="M117 132c2.652.368 3.738.687 5.484 2.777l1.266 2.16 1.297 2.153C126 141 126 141 126 143l3 1c-2.603 1.301-4.118 1.422-7 1-1.819-2.383-3-3.958-3-7h-2l-1-3-1 11-10-4v3l2 1v4h3l-1-5 3 1 1 5-3 1v2l-5-1v2h2l3 6c1.603.108 3.207.186 4.813.25l2.707.14c2.647-.15 2.647-.15 4.304-2.406L123 157l-3-1c.75-6.75.75-6.75 3-9 1.91-.047 1.91-.047 4.063.25l2.16.266L131 148l1 2-3 1-2-2h-3v4l6 2-2 2 3 7c-7.143 3.54-13.998 5.352-22 4-1.66-1.465-1.66-1.465-3-3l-3-1c-.73-1.848-.73-1.848-1.187-4.062-.16-.734-.318-1.467-.481-2.223L101 156h-2v-2l-3-1c-.687-3.312-.687-3.312-1-7 1.313-1.75 1.313-1.75 3-3l2-3 2 5h2v-9l2.082.14 2.73.11 2.708.14c2.647-.15 2.647-.15 4.304-2.406z"/><path fill="#E9CFBA" d="m94 211 2 1-1 2c-.085 1.813-.107 3.63-.098 5.445l.01 3.262.025 3.418.014 3.441q.018 4.218.049 8.434l3 1 1-6h1l.148 2.3.227 3.012c.07.987.14 1.973.21 2.989.254 2.914.254 2.914 2.415 5.699 2.425.582 2.425.582 5.125.688L113 248v12l3 1v1c-9.089.25-16.793.274-25-4q-.074-7.443-.11-14.886-.015-2.528-.04-5.054c-.025-2.436-.037-4.87-.045-7.306l-.032-2.246c0-5.928.54-12.136 3.227-17.508"/><path fill="#90B5BF" d="M163 66v6c-10.454 4.632-22.637 4.359-33.875 4.313l-3.954-.004C115.807 76.215 107.056 75.43 98 73c.875-4.875.875-4.875 2-6 2.884.095 5.746.25 8.625.438 22.088 1.406 22.088 1.406 43.98-.993 3.511-.653 6.835-.582 10.395-.445"/><path fill="#637070" d="M78 17c3.787.925 7.534 1.857 11.262 3 20.248 5.91 43.19 6.08 64.113 4.5l3.836-.281L160 24l-2 1c-.652 2.025-.652 2.025-1 4-8.1 2.235-16.031 2.396-24.375 2.375h-2.178c-10.246-.024-20.234-.632-30.385-2.125l-3.257-.475C90.123 27.67 84.17 25.785 78 23z"/><path fill="#A5C5C9" d="m92 258 2.125.938c4.883 1.804 9.756 2.192 14.93 2.378l3.36.127 3.46.12 3.531.13q4.298.159 8.594.307v2c15.664-.218 30.618-1.29 45.939-4.649C176 259 176 259 180 259l1 4c-24.24 9.347-67.47 9.48-92 1l-1-2 4 1z"/><path fill="#D89B77" d="m153 184 .516 1.758c1.573 5.073 3.427 8.92 6.484 13.242v2l13 3c-1 5-1 5-3.312 7.25-3.955 2.575-5.89 2.858-10.614 2.219-4.75-1.32-6.687-3.932-9.262-7.969-.42-.623-.84-1.246-1.274-1.887-3.298-4.977-6.142-10.141-8.538-15.613 1.412-.676 2.83-1.34 4.25-2l2.39-1.125C149 184 149 184 153 184"/><path fill="#E6C09E" d="M98 182h1v6l2.125.813c3.04 1.255 5.948 2.69 8.875 4.187-1.603 3.935-3.628 6.407-7 9-3.7.72-7.304.653-11.062.563l-3.01.033c-7.193-.073-7.193-.073-10.612-2.506C77 198 77 198 77 196h-2l-1 3c-.217-3.181-.25-5.44 1.063-8.375C77 189 77 189 80.375 188.438c4.48.695 5.54 2.396 8.625 5.562 3.57-.085 4.994-.996 8-3 .58-2.195.58-2.195.688-4.625l.199-2.477z"/><path fill="#D2DDD9" d="M85.457 83.55C88 84 88 84 90.75 85.564c1.834 3.576 1.308 5.602.25 9.437-1.767 3.345-3.047 5.433-6.312 7.375-3.376.785-6.234.945-9.688.625-2.23-1.618-2.908-2.555-3.469-5.27-.05-4.162-.06-7.789 2.281-11.355 4.05-3.017 6.696-3.125 11.645-2.824"/><path fill="#BF5839" d="M144 102v2l4 1v4h2c2.758 6.033 2.292 9.84 0 16-5-5-5-5-6.375-6.594-2.05-1.773-3.666-2.095-6.312-2.594l-2.45-.48L133 115c-.615-7.992-.615-7.992 1.563-11.562 3.259-1.922 5.722-1.724 9.437-1.438"/><path fill="#BD5343" d="M120 173c2.125 5.625 2.125 5.625 1 9h3v2l-4-1v-2l-6-2v-2h-2l-1 15c-6.053 0-7.72-.026-12-4-.652-3.984-.397-6.188 1.375-9.812C102 176 102 176 104 174c2.934-.414 2.934-.414 6.438-.625l3.496-.227q3.03-.147 6.066-.148"/><path fill="#E7AA80" d="M117 132c2.652.368 3.738.687 5.484 2.777l1.266 2.16 1.297 2.153C126 141 126 141 126 143l3 1c-2.603 1.301-4.118 1.422-7 1-1.819-2.383-3-3.958-3-7h-2l-1-3-1 11-10-4v3l2 1v4h3l-1-5 3 1 1 5-3 1v2l-5-1v2h2l1.188 2.875c2.01 3.466 3.039 4.105 6.812 5.125-4.004 1.602-7.07.409-11-1-3.351-6.703-1.015-18.765 0-26l2.082.14 2.73.11 2.708.14c2.647-.15 2.647-.15 4.304-2.406z"/><path fill="#61838E" d="M88 66v2l-2.824.629c-12.173 2.941-22.911 7.018-31.492 16.574-5.114 8.496-6.273 16.758-6.23 26.52l-.031 3.7c-.024 3.311-.031 6.622-.03 9.933-.004 3.475-.03 6.948-.052 10.422-.04 6.563-.061 13.125-.074 19.687a6903 6903 0 0 1-.095 22.433C47.09 193.265 47.036 208.633 47 224h-1q-.302-23.993-.547-47.985-.111-11.141-.252-22.282-.125-9.716-.214-19.432-.046-5.14-.119-10.28c-.053-3.834-.087-7.668-.117-11.503l-.06-3.405C44.645 98.2 46.83 89.743 54.25 81.5L57 79l1.57-1.434C66.048 71.336 78.242 65.736 88 66"/><path fill="#D8845F" d="m150 145 1 2h2v2h2c.427 4.695-.638 7.94-3 12-5.174 4.154-10.59 4.534-17 4l2-5h4c.09-.922.09-.922.184-1.863l.254-2.45c.08-.8.162-1.6.246-2.425C142 151 142 151 143 148c3.563-1.687 3.563-1.687 7-3"/><path fill="#ECC2A7" d="m100 244 1.176 1.457c2.365 2 3.95 2.032 7.011 2.23L113 248v12l3 1v1q-3.062.04-6.125.063l-3.445.035c-3.243-.093-6.25-.484-9.43-1.098l3-1-1-3 .5-2.312c.585-3.148.056-5.56-.5-8.688z"/><path fill="#9DADAF" d="m173 168 2 1a141 141 0 0 1-5 5h-2v2c-1.5 1.625-1.5 1.625-3 3h2v2l7 1v2h2c10.524 9.693 10.524 9.693 11.266 16.402-.061 9.914-.061 9.914-3.703 14.348-3.565 2.852-7.4 2.352-11.75 2.313l-3.856-.028L165 217v11l-2-1-.375-3.187c-.693-4.227-2.152-6.382-4.625-9.813v-2l3.75 1c6.152 1.365 13.504 2.388 19.527.156 2.742-1.84 3-4.019 3.723-7.156.784-5.041-.72-8.5-3.262-12.762C176.388 186.35 167.753 182.58 160 179c1.311-3.934 2.999-4.505 6.5-6.625 3.435-1.941 3.435-1.941 6.5-4.375"/><path fill="#B9594C" d="M144 200c2.917.332 3.84.806 5.746 3.11l1.691 2.64c2.572 3.868 5.228 7.005 8.563 10.25 3.862 5.01 3.862 5.01 4.375 8.688C164 227 164 227 162 230h-2l-.812 1.938C158 234 158 234 155 235l-.06-1.772c-.096-2.66-.205-5.319-.315-7.978l-.094-2.79-.117-2.694-.095-2.476c-.352-2.524-.93-4.155-2.319-6.29l-3.062-1.437L146 208c-.75-2.625-.75-2.625-1-5l-2-1z"/><path fill="#B3CCCD" d="m92 258 2.125.938c4.883 1.804 9.756 2.192 14.93 2.378l3.36.127 3.46.12 3.531.13q4.298.159 8.594.307v1l-8 1c1.968 1.968 5.348 1.662 8 2v1c-34.055.541-34.055.541-38.824-3.574L88 262l4 1z"/><path fill="#A54B3E" d="M135 171a277 277 0 0 1 6.75-.312l3.797-.176c3.453.488 3.453.488 5.89 2.738 2.25 3.96 1.866 6.275 1.563 10.75l-8 1c-1.498-3.371-2-5.204-2-9-2.445.188-2.445.188-5 1-1.36 1.968-1.36 1.968-2 4-.934-3.01-1.044-3.867 0-7l3-1z"/><path fill="#293536" d="m107.438 8.938 2.505.013q3.03.02 6.057.049v1l-2.136.228c-3.248.352-6.493.718-9.739 1.085l-3.36.357C93.89 12.459 87.546 13.749 81 16l-3 1a757 757 0 0 0 .098 13.025q.027 2.214.022 4.429c-.003 2.126.033 4.248.075 6.374l.032 3.872c.479 3.544.479 3.544 3.644 5.67C84.549 51.765 87.154 52.996 90 54v1c-5.429-.434-8.708-1.628-13-5-2.144-4.288-1.31-9.935-1.35-14.694a274 274 0 0 0-.082-4.221 308 308 0 0 1-.091-6.105l-.06-3.69c.745-4.204 2.321-5.633 5.583-8.29 2.43-1.11 2.43-1.11 4.875-1.75l2.43-.672c6.435-1.38 12.584-1.71 19.132-1.64"/><path fill="#D39772" d="M149 184h4l.48 1.688c1.56 5.102 3.516 9.28 6.532 13.683C161 201 161 201 161 203h-3l-1 3c-7.96-6.194-7.96-6.194-9-11l1-3-2-1 1-3h3v-3z"/><path fill="#1D2627" d="M155 10c10.088-.594 20.332-.062 28.813 6.016 2.573 2.334 3.125 3.15 3.38 6.594.087 3.547.142 7.093.182 10.64l.113 3.723c.1 10.151.1 10.151-2.883 13.797-4.087 3.5-4.087 3.5-6.605 4.23-2.25-.375-2.25-.375-4-1 5.75-3 5.75-3 8-3 3.245-5.335 2.328-11.52 2.313-17.562l.048-3.772.002-3.607.01-3.303c-.15-2.745-.15-2.745-1.671-4.536-5.572-3.995-12.586-4.922-19.202-5.907l-2.492-.393A982 982 0 0 0 155 11z"/><path fill="#5E818C" d="M46 235h1l.445 3c1.637 10.01 4.156 16.511 12.055 23.125C72.588 270.118 87.68 272.311 103 275v1c-15.322 1.352-32.638-3.77-44.812-13.172C52.703 258.077 47.398 253.396 46 246a123 123 0 0 1-.062-5.75l.027-2.984z"/><path fill="#97B1B5" d="m174 111 2 1-2.816 2.125c-12.485 8.537-12.485 8.537-19.5 21.04l-.246 2.46-.254 2.477L153 142h-1l-.184-2.887-.254-3.8c-.08-1.242-.162-2.483-.246-3.762-.26-2.933-.664-5.685-1.316-8.551l1 2c4.708-3.244 4.708-3.244 6.875-8.312L158 114h2l1 5h4v-2c1.969-1.508 1.969-1.508 4.5-3.125l2.531-1.633z"/><path fill="#DA9D7A" d="M129 144c4.875 2.75 4.875 2.75 6 5 .449 4.394.448 8.001-1.375 12.063L132 163h-2v-3l-2-1v-3l-1.937-.687C124 154 124 154 123.25 151.375L123 149c1.813-.625 1.813-.625 4-1l3 2h2v-3l-4-2z"/><path fill="#577982" d="M174 56h1v10l4.25 1.188c13.492 4.102 26.426 9.866 33.781 22.597 1.812 3.816 2.275 7.03 1.969 11.215a256 256 0 0 1-3.113-6.367C206.058 82.445 198.436 77.048 186 72a295 295 0 0 0-9.664-3.105C174 68 174 68 173 66a70 70 0 0 1-.125-4.562l-.008-2.442C173 57 173 57 174 56"/><path fill="#DFA179" d="M151 185v3h-3c.843 7.166 2.287 11.502 7 17l-4 1c-4.576-5.63-7.954-11.422-11-18 6.5-3 6.5-3 11-3"/><path fill="#5A7D89" d="M214 245h1c-.342 8.211-4.807 13.089-10.562 18.625C192.696 273.369 175.093 278.151 160 277v-1l1.706-.288c10.618-1.823 20.72-3.8 30.774-7.759C195 267 195 267 197 267v-2l3.063-1.5c7.424-4.277 11.492-10.446 13.937-18.5"/><path fill="#A0C1C8" d="M71 253c3.45.445 6.206 1.517 9.313 3 4.299 1.99 7.977 2.657 12.687 3l-1 4c-5.6 1.526-9.142.272-14.312-1.812l-2.206-.83C70.141 258.28 70.141 258.28 69 256z"/><path fill="#D7A57C" d="M108.25 192.313 110 193c-1.606 3.941-3.606 6.42-7 9-3.788.619-7.487.472-11.312.313l-3.112-.069Q84.787 202.156 81 202l-1-2c3.778-.63 7.175-1.03 11-.812 5.456.084 9.049-2.571 13.188-6C106 192 106 192 108.25 192.313"/><path fill="#9C4531" d="m146 130 2 1c.625 2.063.625 2.063 1 4v-2h2c.276 1.767.52 3.539.75 5.313l.422 2.988C152 144 152 144 150.21 145.836c-2.912 1.533-4.967 1.517-8.211 1.164l-2-2 3-1 .148-1.793c.417-4.398.902-8.176 2.852-12.207"/><path fill="#CD5D4E" d="M110 194c2.579 4.03 2 5.515 2 11l33 2v1h-43v-2l3.438-1.5c2.381-1.325 3.37-1.93 4.25-4.547.314-2.455.314-2.455.312-5.953"/><path fill="#CE5333" d="M146 104c3 6.5 3 6.5 3 11l-3 1v-3h-3l-1 2c-3-1-3-1-4-2-.04-2-.043-4 0-6h-2v-2c3.473-1.158 6.36-1.069 10-1"/><path fill="#C36057" d="M159 216c3.001 2.42 3.94 3.753 4.875 7.563C164 227 164 227 162 230h-2l-.812 1.938C158 234 158 234 155 235v-16l1 3h2v2h3z"/><path fill="#CF5B4B" d="m104 174 3 1-2 2c.267 1.985.267 1.985 1 4l1 3 2 1v6c-3.354-.95-6.692-1.897-10-3-.296-5.025-.028-7.924 3-12z"/><path fill="#A2B2B4" d="M109 195h1c.313 3.25.313 3.25 0 7-2.312 2.5-2.312 2.5-5 4l-3-1h2v-2l-1.93.488c-4.081.68-8.064.696-12.195.7l-2.457.037-2.363.005-2.141.013C81 204 81 204 78 202v-2l3 1c1.665.093 3.333.13 5 .133l2.938.004 3.062-.012 3.063.012 2.937-.004 2.688-.004c2.472-.036 2.472-.036 5.312-1.129 1.15-1.967 1.15-1.967 2-4z"/><path fill="#EBC1A5" d="M113 219h1v11l-4.812.438c-2.977.27-5.337.612-8.188 1.562-.806 2.106-.806 2.106-1.187 4.563-.16.826-.318 1.652-.481 2.503L99 241l-4-3 .5-2.25c.62-2.94.62-2.94.5-6.75 3.75-2 3.75-2 6-2v-2l3 1-1 3 8-1z"/><path fill="#A2B1B1" d="m79 116 2 1-1.477 2.027c-4.093 7.987-1.82 20.066.54 28.407 1.269 3.475 3.017 6.413 4.937 9.566l-1 2c-4-4.625-4-4.625-4-8l-3-1c-1.5-7.068-2.223-13.977-2.312-21.187l-.088-2.405c-.064-5.822-.064-5.822 2.42-8.959z"/><path fill="#DC8E68" d="M99 140c3.189 3.09 4.304 5.265 4.375 9.625-.06 3.48-.343 4.328-2.375 7.375l-2-1v-2l-3-1c-.687-3.312-.687-3.312-1-7 1.375-1.75 1.375-1.75 3-3z"/><path fill="#E6B28B" d="M98 182h1v6l2.375.813C104 190 104 190 106 193c-6.407 5.879-6.407 5.879-10.312 6.176C93.5 198.875 93.5 198.875 90 198c3.75-3 3.75-3 6-3z"/><path fill="#CC5E4D" d="M139 175c2.125.375 2.125.375 4 1l.367 1.934.508 2.504.492 2.496L145 185l2 1-7 2c-2.522-2.628-2.993-3.914-3.312-7.625C137 177 137 177 139 175"/><path fill="#C55333" d="M122 115c6.323.326 11.555.615 17 4v3l-2 2c-2.625-.375-2.625-.375-5-1v2l-4-1v-2h2v-3l-8-3z"/><path fill="#A4AFA9" d="m98 177 3 1-.984 1.719c-1.093 2.455-1.211 4.117-1.266 6.781-.351 3.872-.526 4.29-3.562 7.125C92 195 92 195 89.875 195c-1.875-1-1.875-1-3.687-3.062-2.152-2.275-2.152-2.275-5.75-2.375-3.386.135-3.386.135-5.376 1.937L74 193c.375-2.437.375-2.437 1-5 3.139-1.57 5.539-1.352 9-1 2.688 2.5 2.688 2.5 5 5h4l1-2h3l-.035-2.082-.028-2.73-.035-2.708C97 180 97 180 98 177"/><path fill="#CFE2E2" d="M110.688 99.313 113 100c.75 2.25.75 2.25 1 5-1.625 2.375-1.625 2.375-4 4-2.75-.25-2.75-.25-5-1-.36-5.411-.36-5.411 1.188-7.937C108 99 108 99 110.688 99.313"/><path fill="#FAC5AC" d="m105.195 207.902 2.144.005c2.262.005 4.524.018 6.786.03q2.299.008 4.598.014 5.638.017 11.277.049v1l-2.523.152q-4.638.286-9.275.593c-1.995.129-3.99.249-5.985.368l-3.799.254-3.507.222c-3.098.223-3.098.223-5.911 2.411a155 155 0 0 1-5 2c.602-2.02 1.273-4.021 2-6 2.958-1.48 5.955-1.122 9.195-1.098"/><path fill="#863C2B" d="M146 122c3 1 3 1 4.676 3.105 1.649 3.605 1.622 6.261 1.512 10.207l-.083 3.801L152 142h-1v-9h-2l1 4-2 1-.375-3.312c-.38-3.762-.38-3.762-2.625-6.688.375-3.187.375-3.187 1-6"/><path fill="#9AAEB0" d="M85 159c5 5 5 5 7.438 7.5 2.743 2.677 5.602 5.067 8.562 7.5l2 2c-3 0-3 0-5.875-1.062-3.276-.983-4.897-.888-8.125.062l2-6-1.5-1.375C88 166 88 166 88 164l-3-1z"/><path fill="#202C2D" d="M77 22h1l-.003 2.323c.012 3.477.07 6.951.128 10.427l-.008 3.656c-.078 6.951-.078 6.951 3.758 12.344L85 52l2.875 1.25L90 54v1c-5.429-.434-8.708-1.628-13-5-1.374-2.747-1.013-4.817-.879-7.883l.147-3.535.17-3.707.158-3.73A2975 2975 0 0 1 77 22"/><path fill="#E3A17A" d="M117 132c2.652.368 3.738.687 5.484 2.777l1.266 2.16 1.297 2.153C126 141 126 141 126 143l3 1c-2.603 1.301-4.118 1.422-7 1-1.819-2.383-3-3.958-3-7h-2l.563-1.875c.674-2.167.674-2.167-.563-4.125"/><path fill="#FAD7C7" d="M179 128c.188 3.375.188 3.375 0 7-3 2-3 2-5.187 1.625L172 136l-1-6c3.228-2.152 4.284-2.2 8-2"/><path fill="#97B0B1" d="M79 203h25v2h-2v3l-3.312 1.25c-3.198 1.353-4.895 2.69-6.688 5.75l-1-3h2l.688-1.937C95 208 95 208 97.625 207.25L100 207v-2H80z"/><path fill="#E6C8C0" d="M160 179c8.985 2.732 17.617 7.118 23 15l-1 2h-2v-4l-2.687-.687c-3.765-1.492-5.518-3.444-8.313-6.313-2.173-.861-2.173-.861-4-1v-2l-5-1z"/><path fill="#C4D8D7" d="M68 164c4.875.875 4.875.875 6 2 .04 2 .043 4 0 6q-2.988.57-6 1c-1-1-1-1-1.125-3.937C67 166 67 166 68 164"/><path fill="#CECCC2" d="m92 258 2.125.938c4.883 1.804 9.756 2.192 14.93 2.378l3.36.127 3.46.12 3.531.13q4.298.159 8.594.307v1H94z"/><path fill="#D58C6E" d="m150 145 1 2h2v2h2c.424 4.66-.802 7.908-3 12-2.5 2-2.5 2-5 3l-3-1 2.375-.437c2.719-1.27 2.719-1.27 3.438-3.454 1.226-5.007 1.256-9.087.187-14.109"/><path fill="#B0C6C0" d="m116 263 36 1v1q-6.484.29-12.97.537-2.205.087-4.408.187c-2.117.094-4.235.175-6.352.253l-3.857.158c-3.32-.131-5.453-.686-8.413-2.135z"/><path fill="#E2C8C3" d="M183 196c1.967 2.202 2.96 3.448 3.18 6.438l-.305 2.562-.258 2.563c-.71 2.8-1.652 4.331-3.617 6.437-3.208 1.07-5.63 1.167-9 1.188l-3.187.042C167 215 167 215 164 213h17c1.829-4.573 2.229-6.602 2.125-11.312l-.055-3.239z"/><path fill="#EDAE8A" d="M141 187c2.063.438 2.063.438 4 1h-3c3.232 6.852 7.008 11.376 13 16l-4 2c-4.576-5.63-7.954-11.422-11-18z"/><path fill="#F2C3A8" d="M143 250c-2 2-2 2-4.562 2.5L136 253l-1 2h-2v2h-2l-1 3v-10q2.686-.29 5.375-.562l3.023-.317C141 249 141 249 143 250"/><path fill="#CEDEDD" d="M187 180q2.514.428 5 1c.625 2.375.625 2.375 1 5l-2 2c-2.625-.375-2.625-.375-5-1-.043-2-.04-4 0-6z"/><path fill="#EDBE92" d="M96 193v2l-4 2 4 2c-1 1-1 1-2.848 1.098L87 200l-1-4h-2v-2l6.055.098C92.328 193.984 93.71 193 96 193"/><path fill="#E0A987" d="m124.91 146.953 2.153.297 2.16.266L131 148l1 2-3 1-2-2h-3v4l4 2-3 1-1 3-1-2-3-1c.995-8.95.995-8.95 4.91-9.047"/><path fill="#A04336" d="M135 171h14l1 2-2.375-.125c-2.786-.162-2.786-.162-4.625 2.125l-2.5.875c-2.64.907-2.64.907-3.812 3.25L136 181c-.934-3.01-1.044-3.867 0-7l3-1z"/><path fill="#B7AC98" d="m78 200 3 1c1.48.146 2.964.247 4.45.316l2.568.127 2.67.12 2.705.13q3.303.159 6.607.307l-1 2q-4.407.08-8.812.125c-.834.017-1.667.034-2.526.05l-2.432.02-2.237.032C81 204 81 204 78 202z"/><path fill="#F4CBB1" d="M107 249h6v11l-1-2h-5l-1-2 2-1c.833-1.917.833-1.917 1-4z"/><path fill="#CAA48E" d="M152 205h3l1.688 1.813C159.846 209.8 162.89 210.63 167 212c-1.964 1.473-3.445 2.03-5.906 1.898-3.044-.579-5.32-1.085-7.5-3.375-1.094-1.648-1.094-1.648-2.594-4.523z"/><path fill="#F6C7AB" d="M113 219h1v11l-4.812.438c-2.977.27-5.337.612-8.188 1.562l-1-5h2v-2l3 1-1 3 8-1z"/><path fill="#CE5B4B" d="M154 213c3.77 1.885 5.005 2.508 7 6 .188 2.75.188 2.75 0 5h-3v-2h-2z"/><path fill="#D19B74" d="M165 204h5v7l-7 1z"/><path fill="#BB5837" d="M103 133c2.383.023 2.383.023 5.125.375l2.758.336L113 134v1l-9 1v9h-2c-2-3-2-3-1.75-6.562C101 135 101 135 103 133"/><path fill="#9CB2B6" d="m186 105 4 2-1 3h2l1 6-1.375-2.5c-3.064-2.918-3.811-2.841-7.875-2.812-1.585.08-3.17.176-4.75.312v-2l8-2z"/><path fill="#678A94" d="M184 274c-8.14 2.174-15.566 3.456-24 3v-1c3.434-.729 6.872-1.43 10.313-2.125l2.958-.629 2.842-.566 2.619-.54C181 272 181 272 184 274"/><path fill="#BE6050" d="m104 174 3 1-2 2c-.4 2.323-.74 4.657-1 7l-2-2-2 6h-1c-.296-5.025-.028-7.924 3-12z"/><path fill="#9DB0B6" d="M93 116c2.938.375 2.938.375 6 1l1 2 3-1c2.688.438 2.688.438 5 1-1.75 2.063-1.75 2.063-4 4-3.144-.367-5.231-1.649-7.75-3.5l-1.86-1.344L93 117z"/><path fill="#CBDCDE" d="M194 160q2.514.428 5 1l1 3c-1.25 1.563-1.25 1.563-3 3-2.187-.312-2.187-.312-4-1a100 100 0 0 1 0-5z"/><path fill="#C9DADA" d="M65 134h5c.625 1.813.625 1.813 1 4l-2 3-4-1c-1.125-3.75-1.125-3.75 0-6"/><path fill="#FBC8BD" d="M134 166h7v2l7 1v1h-14z"/><path fill="#CBDFDD" d="M193 225v5a88 88 0 0 1-5 1c-1-1-1-1-1.062-3.562L187 225c2.49-1.245 3.41-.777 6 0"/><path fill="#DF9E6F" d="M108.25 192.313 110 193l-1 2-4-1v3h-2l-1 4-5-1c7.929-8.149 7.929-8.149 11.25-7.687"/><path fill="#F4BEAC" d="m149 163-2 6-6-1v-2h-7v-1q3.188-.502 6.375-1l3.586-.562C147 163 147 163 149 163"/><path fill="#FAD7C8" d="M166 156c2.125.375 2.125.375 4 1l-1 6h-6c.75-4.75.75-4.75 3-7"/><path fill="#E7C7C3" d="M82 152h2l.313 1.938L85 156l3 1v4h2c3 3.462 3 3.462 3 6l2 1h-3a68 68 0 0 1-4.625-5.75l-1.234-1.633c-2.053-2.786-3.653-5.151-4.141-8.617"/><path fill="#6B8F96" d="M84 272q3.345.466 6.688.938l3.761.527c2.876.433 5.707.931 8.551 1.535v1c-7.044.211-13.241.08-20-2z"/><path fill="#A54131" d="M140 233h3q.04 3.719.063 7.438l.025 2.142c.009 1.807-.036 3.614-.088 5.42-1 1-1 1-3.562 1.063L137 249l1.984-1.176c2.256-1.657 2.256-1.657 2.407-4.304l-.141-2.708-.11-2.73L141 236l-2-1z"/><path fill="#C2685E" d="M110 194c2.6 3.9 2.15 7.474 2 12l-2-1q-2.51 1.481-5 3h-3v-2l3.438-1.5c2.381-1.325 3.37-1.93 4.25-4.547.314-2.455.314-2.455.312-5.953"/><path fill="#DE9878" d="m126 172 3 2v2c-2.62 1.746-4.038 2.387-7 3l-2-3 1-3 5 1z"/><path fill="#D8A286" d="m161 201 12 3-1 5-2 1v-6c-5.015.33-5.015.33-9 3-1.125-3.75-1.125-3.75 0-6"/><path fill="#A3A1A3" d="m150 123 2 4h2v-2h2l-.937 3.438c-1.132 4.487-1.658 8.96-2.063 13.562h-1l-.184-2.887-.254-3.8c-.08-1.242-.162-2.483-.246-3.762-.26-2.933-.664-5.685-1.316-8.551"/><path fill="#DEA47A" d="M114 138c.976 2.928 1.082 4.956 1 8-2.937-1.25-2.937-1.25-6-3-.875-2.187-.875-2.187-1-4z"/><path fill="#C56443" d="M100 130c1.245 2.49.777 3.41 0 6h2v5c-2.5-1.125-2.5-1.125-5-3-.5-3.062-.5-3.062 0-6z"/><path fill="#BD573F" d="M122 115c6.323.326 11.555.615 17 4v3l-2-2c-1.97-.743-1.97-.743-4-1l-2 1v-2l-9-2z"/><path fill="#D1DCD7" d="m108 99 4 1c.125 2.375.125 2.375 0 5l-2 2c-2.125-.375-2.125-.375-4-1z"/><path fill="#BDD5D9" d="M163 93h5l1 3-2 3h-4z"/><path fill="#709AA1" d="M114 276v2c-5.786.105-11.293-.007-17-1v-1c5.77-1.403 11.181-.673 17 0"/><path fill="#C3B5A6" d="M154 251h1q.039 2.688.063 5.375l.035 3.023C155 262 155 262 154 264h-13v-1l1.828-.184 2.422-.253 2.39-.247c2.656-.311 2.656-.311 6.36-1.316z"/><path fill="#9EADAF" d="M185 154h2c-.532 4.138-2.78 6.27-5.562 9.25l-2.504 2.703L177 168l-2-1 1.426-1.574c3.278-3.673 6.056-7.185 8.574-11.426"/><path fill="#C2D7D6" d="M67 208h4v6h-5a100 100 0 0 1 0-5z"/><path fill="#131D1C" d="m77 45 1.438 2.25C81.803 50.862 85.45 52.26 90 54v1c-5.371-.43-8.904-1.403-13-5-.375-2.75-.375-2.75 0-5"/><path fill="#C9A17B" d="M105 194h4c-1.445 3.372-3.124 5.699-6 8-2.75.25-2.75.25-5 0l1.938-.812c2.393-1.075 2.393-1.075 3.062-4.188h2z"/><path fill="#CB8672" d="m133 164 2 1-1 5h13v1q-3.437.039-6.875.063l-3.867.035C133 171 133 171 131 170c.506-2.169 1-4 2-6"/><path fill="#933F2E" d="M149 133h2l1 11-3 1c-.762-4.316-1.16-7.744 0-12"/><path fill="#E6C9B5" d="M102 209h-2v2l2 1a101 101 0 0 1-6 3l-2-1c1.802-5.02 2.656-6.603 8-5"/><path fill="#EAB59E" d="M120 171c-1.145 1.488-1.145 1.488-3 3-2.7.293-2.7.293-5.687.188l-3.012-.083L106 174v-1c4.927-1.97 8.78-2.18 14-2"/><path fill="#F1CCC0" d="m96 170 1.688.438L100 171l2.313.625c3.39.473 6.332-.033 9.687-.625-1 2-1 2-3.11 2.809-2.694.641-5.116 1.144-7.89 1.191-3.125-2.375-3.125-2.375-5-5"/><path fill="#663B24" d="m124 148 4 1-1 5-4-1z"/><path fill="#DF9E7C" d="M98 143c1 2 1 2 .375 5.438-.773 3.482-.773 3.482 1.063 5.5L101 155l-2 1v-2l-3-1c-.687-3.312-.687-3.312-1-7 1.438-1.937 1.438-1.937 3-3"/><path fill="#A0AAAA" d="M144 103h6c1.62 2.572 2.044 3.677 1.625 6.75L151 112l-1-3h-2l-.312-1.875c-.563-2.49-.563-2.49-3.688-4.125"/><path fill="#5B818B" d="M209 85c4.527 5.281 6.326 8.992 6 16l-.867-1.75A192 192 0 0 0 211.93 95l-1.055-2-1.07-2C209 89 209 89 209 85"/><path fill="#D9A685" d="m109 145 3 1 1 5-3 1v2h-3l-1-4h4z"/><path fill="#88ACBA" d="M167 243h6l-1 5-4-1z"/><path fill="#B04D3F" d="m144 196 3 4c-3 2-3 2-5.125 1.813L140 201l-1-3z"/><path fill="#663B28" d="m106 146 5 1-1 4-4-1z"/><path fill="#B16A56" d="M144 102v2l-8 1v2l-3-1c3.343-4.28 5.709-4.407 11-4"/><path fill="#0B1112" d="M184 47h2c-1.503 4.21-4.146 5.919-8 8-2.375-.25-2.375-.25-4-1 5.75-3 5.75-3 8-3z"/><path fill="#E3C6AE" d="M128 261h5v2l3-1c2.688.438 2.688.438 5 1v1h-13z"/><path fill="#E8AA93" d="M129 250h1l1 7h2l1 3-4 2c-1-1-1-1-1.098-3.504l.036-3.058.027-3.067z"/><path fill="#C6DADD" d="m65 114 5 1-1 4-4-1z"/><path fill="#F7B48F" d="m104 136 9 1v1h-7l-1 6h-1z"/><path fill="#E3CBC3" d="M161 123c0 3.606-.817 4.413-3 7.188l-1.687 2.167L155 134l-2-1q1.718-2.22 3.438-4.437l1.933-2.497C160 124 160 124 161 123"/><path fill="#86A6B0" d="m90 56 11 2v1l-3.875-.125c-2.144-.117-2.144-.117-4.125.125l-2 2z"/><path fill="#EFB786" d="M98 194v5l-8-1c5.217-4 5.217-4 8-4"/><path fill="#BA795B" d="M124 144c2.929.628 5.361 1.586 8 3l-1 2-8-2z"/><path fill="#B07658" d="m105 142 6 1v3l-6-1z"/><path fill="#DB875B" d="M101 143c2 2 2 2 2.195 3.945L103 153c-2.588-2.588-2.627-4.42-3-8z"/><path fill="#F7BAA6" d="m156 153 1 2-4 6c-1-3-1-3-.187-5.125C154 154 154 154 156 153"/><path fill="#C36043" d="m108 119 4 2-1 2h-7z"/><path fill="#BF5D42" d="M149 113h1v12l-3-3c.145-2.262.145-2.262.813-4.687l.644-2.45z"/><path fill="#AFB5AC" d="M73 196h4l1 4-4 1z"/><path fill="#CD795E" d="m129 174 1 4c-3 2-3 2-5.187 1.625L123 179c1.313-1.5 1.313-1.5 3-3h3z"/><path fill="#5D6A6A" d="M81 15h5l-2 4-4-1z"/></svg>