<svg xmlns="http://www.w3.org/2000/svg" width="285" height="287"><path fill="#F1A72E" d="M159.008 11.926c6.547 3 11.271 7.284 13.992 14.074.624 5.952 1.226 12.672-1.625 18.125-3.302 3.997-5.755 6.467-11.031 7.29-4.772.243-7.492.153-11.531-2.54-2.096-3.323-2.327-5.019-1.813-8.875l1-2 7 1c1.736-1.675 1.736-1.675 3-4-.822-3.138-1.703-4.703-4-7-3.694-.201-6.48-.174-10 1-1.928 5.133-1.643 11.07.063 16.188C147.653 50.4 151.95 54.014 158 56c7.218.967 13.118-.37 19.785-3.125C180 52 180 52 182 52v-2l-1.875-.875C178 48 178 48 176 46c-.74-4.865-.715-8.831 1.875-13.062 3.535-3.224 6.217-3.327 10.863-3.297 3.587.57 5.13 2.561 7.262 5.359l1 2c2.914-4.778 3.199-7.551 2-13 2.25-.75 2.25-.75 5-1 2.29 1.844 3.687 3.374 5 6 .547 6.344-.297 10.747-4 16-2.146 2.266-4.525 4.106-7 6l-2.5 2.078c-4.055 3.355-7.483 6.172-12.5 7.922l2.754.813C200.333 66.358 212.652 72.653 224 83l1.797 1.637C227 86 227 86 227 88h2c14.94 17.107 19.868 38.958 19 61-.88 9.597-2.66 20.32-7 29l2.633-2.117q1.746-1.38 3.492-2.758l1.727-1.395c5.675-4.45 10.802-6.398 18.148-5.73 4.546 1.903 6.747 4.66 9 9 .741 4.611.378 6.4-2.125 10.375-3.219 2.939-4.563 3.625-8.875 3.625a165 165 0 0 1-6-2c-5.015 6.692-8.099 13.44-10.937 21.25-6.212 16.943-14.413 32.052-27.786 44.48-1.407 1.264-1.407 1.264-2.277 3.27.58.182 1.16.364 1.758.55 11.49 3.698 11.49 3.698 14.242 6.45-.459 6.191-.459 6.191-2.135 8.697-2.777 1.94-5.087 1.724-8.447 1.78-.65.015-1.301.03-1.972.047-2.086.047-4.172.075-6.258.101q-4.072.076-8.145.164l-2.04.043c-10.246.24-20.185.906-30.19 3.168-12.255 2.73-24.228 3.187-36.737 3.185-2.44.002-4.879.02-7.318.04-25.608.092-50.184-5.87-69.758-23.225-1.88-1.98-3.658-4-5.395-6.105-1.592-1.943-1.592-1.943-3.505-3.73-2.058-2.121-3.657-4.239-5.307-6.685l-1.78-2.6a2210 2210 0 0 1-3.617-5.35c-5.13-7.48-10.224-13.728-18.271-18.155l-3.121-1.754a339 339 0 0 0-5.602-2.96C9.41 207.05 5.967 204.88 3 200c-.645-3.027-.467-4.832 0-8 1.438-2.062 1.438-2.062 4-3 7.827 0 13.936 2.884 21 6a632 632 0 0 0 7.75 3.125l1.93.77c4.42 1.76 8.855 3.465 13.32 5.105l-2-5h-2c-10.61-18.105-16.175-33.548-16.187-54.812l-.038-3.37c-.038-22.075 8.405-42.414 23.713-58.42 13.574-12.961 27.019-19.738 45.762-19.96a921 921 0 0 0 6.89-.13l3.048-.037c2.94-.283 5.14-1.043 7.812-2.271v-2h2c.392-1.58.763-3.164 1.125-4.75l.633-2.672c.279-2.972-.076-4.144-1.758-6.578-3.263-2.175-4.234-2.282-8-2l-3 1v7l5 1c-2.875 4.875-2.875 4.875-4 6-7.12.712-7.12.712-10.937-2.375-2.812-3.578-3.47-5.787-3.41-10.395.782-5.022 3.808-8.867 7.534-12.167 6.517-2.462 11.925-2.73 18.438-.126 1.468.667 2.93 1.347 4.375 2.063l.078-2.195c.351-5.98.628-10.301 4.922-14.805 8.121-7.005 17.8-8.216 28.008-5.074M185 37l-2 4 4 2 2-4z"/><path fill="#3D4340" d="M244 162h1c-.524 5.868-1.761 10.549-4 16l2.633-2.117q1.746-1.38 3.492-2.758l1.727-1.395c5.675-4.45 10.802-6.398 18.148-5.73 4.546 1.903 6.747 4.66 9 9 .741 4.611.378 6.4-2.125 10.375-3.219 2.939-4.563 3.625-8.875 3.625a165 165 0 0 1-6-2c-5.015 6.692-8.099 13.44-10.937 21.25-6.212 16.943-14.413 32.052-27.786 44.48-1.407 1.264-1.407 1.264-2.277 3.27.58.182 1.16.364 1.758.55 11.49 3.698 11.49 3.698 14.242 6.45-.459 6.191-.459 6.191-2.135 8.697-2.777 1.94-5.087 1.724-8.447 1.78-.65.015-1.301.03-1.972.047-2.086.047-4.172.075-6.258.101q-4.072.076-8.145.164l-2.04.043c-10.246.24-20.185.906-30.19 3.168-12.255 2.73-24.228 3.187-36.737 3.185-2.44.002-4.879.02-7.318.04-25.608.092-50.184-5.87-69.758-23.225-1.88-1.98-3.658-4-5.395-6.105-1.592-1.943-1.592-1.943-3.505-3.73-2.058-2.121-3.657-4.239-5.307-6.685l-1.78-2.6a2210 2210 0 0 1-3.617-5.35c-5.13-7.48-10.224-13.728-18.271-18.155l-3.121-1.754a339 339 0 0 0-5.602-2.96C9.41 207.05 5.967 204.88 3 200c-.645-3.027-.467-4.832 0-8 1.438-2.062 1.438-2.062 4-3 7.827 0 13.936 2.884 21 6a632 632 0 0 0 7.75 3.125l1.93.77c4.42 1.76 8.855 3.465 13.32 5.105l1-2c3.063-.625 3.063-.625 6-1l-1 3 1 3c6.703 3.283 14.992 4.002 22.297 5.309 2.744.512 5.39 1.079 8.078 1.816 4.52 1.091 8.997 1.515 13.625 1.875v2a203.2 203.2 0 0 0 54.445-1.344c3.554-.559 6.948-.798 10.555-.656l.563-2.062c3.997-8.17 12.439-13.495 20.578-17.004 4.286-1.4 8.67-2.073 13.11-2.785 5.317-.861 10.526-1.96 15.749-3.274l2.086-.518c3.228-.643 3.228-.643 5.914-2.357a100 100 0 0 1 5 0v-2l3.254-.832c2.62-1.123 3.577-1.865 4.98-4.384 1.028-2.8 1.894-5.601 2.703-8.471l.917-2.995Q242.963 165.67 244 162"/><path fill="#F78525" d="M159.008 11.926c6.547 3 11.271 7.284 13.992 14.074.624 5.952 1.226 12.672-1.625 18.125-3.302 3.997-5.755 6.467-11.031 7.29-4.772.243-7.492.153-11.531-2.54-2.096-3.323-2.327-5.019-1.813-8.875l1-2 7 1c1.736-1.675 1.736-1.675 3-4-.822-3.138-1.703-4.703-4-7-3.694-.201-6.48-.174-10 1-1.928 5.133-1.643 11.07.063 16.188C147.653 50.4 151.95 54.014 158 56c7.218.967 13.118-.37 19.785-3.125C180 52 180 52 182 52v-2l-1.875-.875C178 48 178 48 176 46c-.74-4.865-.715-8.831 1.875-13.062 3.535-3.224 6.217-3.327 10.863-3.297 3.587.57 5.13 2.561 7.262 5.359l1 2c2.914-4.778 3.199-7.551 2-13 2.25-.75 2.25-.75 5-1 2.29 1.844 3.687 3.374 5 6 .547 6.344-.297 10.747-4 16-2.146 2.266-4.525 4.106-7 6l-2.5 2.078C191.291 56.56 188.15 58.94 183 61l12 4c-4 1-4 1-7.25.063-9.238-2.556-20.14-1.363-29.516-.184-2.311.125-4.01-.314-6.234-.879l-2 1 2.5 1.375L155 68v2l1.758.777c14.198 7.742 20.32 25.83 24.889 40.267 9.201 32.6.603 66.963-14.647 95.956h-2l-1 3-2-1 .7-1.738c3.259-8.49 5.544-17.177 7.732-25.99.5-1.997 1.024-3.986 1.552-5.975 4.641-18.827 2.907-38.886-6.445-55.965-1.435-2.175-2.687-3.559-4.726-5.144L158 112l1.207 1.906c13.286 21.465 10.926 43.565 5.464 67.272-2.969 12.48-2.969 12.48-4.671 16.822l-2 1v-9h-2c-.138-7.066.252-13.974 1-21l-2.168.254c-7.75.792-15.091.558-22.832-.254l-1-4 27-1 .313-13.25.137-4.099c.11-9.749-1.84-17.699-7.637-25.651-7.343-5.221-12.644-6-21.813-6l-1 48-1-2-3 1-1 5h2v17h-1v-14H97l-1-6h25v-49c-9.838.984-13.046 1.545-19.187 8.438-7.761 9.604-8.115 19.132-7.876 31.187.112 6.904.13 13.542-.937 20.375l-3 1-1 2-1-7h-2l.938 3.438c3.297 13.401 3.297 13.401.062 19.562-2.125.875-2.125.875-4 1l-.812-2.312c-.967-2.655-.967-2.655-2.637-4.063-11.45-11.998-9.227-37.581-8.899-52.922C71.444 108.486 84.042 87.7 103 69c-3.564 1.314-6.597 2.884-9.75 5l-2.36 1.563C88.88 76.872 88.88 76.872 88 79h-2l-.687 1.688c-1.333 2.348-2.898 3.856-4.825 5.714-12.5 13.42-19.882 33.1-20.875 51.246l-.158 2.856a276 276 0 0 0-.226 5.812c-.431 6.866-.431 6.866-2.764 9.258-3.106 1.89-4.941 2.533-8.528 1.801L45 156l-3.25-.875C39 154 39 154 37.625 151.875L37 150h-2l-2-4-1 11h-1c-.059-4.104-.094-8.208-.125-12.312-.017-1.148-.034-2.296-.05-3.479-.127-22.256 8.21-42.654 23.663-58.81 13.574-12.962 27.019-19.74 45.762-19.961a921 921 0 0 0 6.89-.13l3.048-.037c2.94-.283 5.14-1.043 7.812-2.271v-2h2c.392-1.58.763-3.164 1.125-4.75l.633-2.672c.279-2.972-.076-4.144-1.758-6.578-3.263-2.175-4.234-2.282-8-2l-3 1v7l5 1c-2.875 4.875-2.875 4.875-4 6-7.12.712-7.12.712-10.937-2.375-2.812-3.578-3.47-5.787-3.41-10.395.782-5.022 3.808-8.867 7.534-12.167 6.517-2.462 11.925-2.73 18.438-.126 1.468.667 2.93 1.347 4.375 2.063l.078-2.195c.351-5.98.628-10.301 4.922-14.805 8.121-7.005 17.8-8.216 28.008-5.074M185 37l-2 4 4 2 2-4z"/><path fill="#D55619" d="M158.621 63.844c2.926.192 5.49-.347 8.379-.844 21.522-1.228 38.507 4.047 54.828 18.02L224 83l1.797 1.637C227 86 227 86 227 88h2c14.901 17.063 19.943 38.988 19 61a185 185 0 0 1-2 13h-2l-.363 3.047c-.56 3.878-1.58 7.482-2.825 11.203l-1.167 3.64c-2.004 3.788-3.679 4.66-7.645 6.11h-2v2c-24.057 6.83-24.057 6.83-33.668 8.45-11.23 1.897-19.584 7.221-27.332 15.55a565 565 0 0 0-2 4c-5.131 1.54-10.683 1.095-16 1 1.676-4.297 3.599-8.438 5.586-12.598 3.834-9.226 6.264-18.537 8.101-28.34l.643-3.322q.586-3.032 1.161-6.068.503-2.641 1.062-5.272c3.014-16.182-.69-32.251-8.553-46.4a347 347 0 0 1-2-4c8.387 3.77 11.8 11.831 15 20 1.822 5.283 2.657 10.441 3 16l.27 3.629c.874 17.62-4.125 34.937-9.412 51.6A101 101 0 0 0 164 209l1-2h2l.266-2.043c.93-3.745 2.674-6.895 4.484-10.27 8.564-16.558 11.66-33.252 11.563-51.812l-.007-2.216c-.116-24.497-5.256-48.598-23.119-66.721-1.734-1.687-3.02-2.855-5.187-3.938v-2l-2.312-.875C150 66 150 66 147 64c4.105-1.192 7.48-.808 11.621-.156"/><path fill="#3D4340" d="M244 162h1c-.524 5.868-1.761 10.549-4 16l2.668-2.152q1.76-1.394 3.52-2.786l1.751-1.42c3.299-2.59 5.747-4.26 10.061-4.642l-2 2 2 2-2.375 1.688c-2.828 2.491-3.317 3.88-4.625 7.312-6.862 10.522-21.694 16.176-33.511 18.771-4.754.808-9.516 1.505-14.292 2.168-13.243 2.075-23.366 8.721-31.877 19.112-2.377 3.412-4.351 6.981-6.25 10.676l-1.038 2.007q-1.005 1.964-1.966 3.95c-2.604 5.154-5.793 8.68-11.066 11.316-1.342.095-2.69.13-4.035.133l-2.455.004-2.572-.012-2.49.012c-5.556-.009-10.936-.438-16.448-1.137v2c12.24 1.965 12.24 1.965 24 0a71 71 0 0 1 4.11-.389l2.57-.182 2.78-.183 2.856-.197q2.993-.207 5.987-.406 4.579-.307 9.158-.625l5.812-.397 2.77-.19 2.587-.171 2.27-.153c2.031-.103 4.066-.107 6.1-.107-.812 2.438-.812 2.438-2 5l-3 1-1 3c-5.332 4.026-11.063 4.636-17.535 4.738l-2.75.086c-2.905.082-5.81.133-8.715.176l-2.864.051c-6.858.115-13.715.142-20.573.137h-3.14c-47.088-.02-47.088-.02-53.423-3.188-2.1-.206-4.206-.366-6.312-.5-3.987-.255-7.788-.622-11.688-1.5l4 5c-10.163-4.596-17.093-16.11-23.126-25.057-8.075-11.973-15.471-18.577-28.472-25.283C9.41 207.05 5.967 204.88 3 200c-.645-3.027-.467-4.832 0-8 1.438-2.062 1.438-2.062 4-3 7.827 0 13.936 2.884 21 6a632 632 0 0 0 7.75 3.125l1.93.77c4.42 1.76 8.855 3.465 13.32 5.105l1-2c3.063-.625 3.063-.625 6-1l-1 3 1 3c6.703 3.283 14.992 4.002 22.297 5.309 2.744.512 5.39 1.079 8.078 1.816 4.52 1.091 8.997 1.515 13.625 1.875v2a203.2 203.2 0 0 0 54.445-1.344c3.554-.559 6.948-.798 10.555-.656l.563-2.062c3.997-8.17 12.439-13.495 20.578-17.004 4.286-1.4 8.67-2.073 13.11-2.785 5.317-.861 10.526-1.96 15.749-3.274l2.086-.518c3.228-.643 3.228-.643 5.914-2.357a100 100 0 0 1 5 0v-2l3.254-.832c2.62-1.123 3.577-1.865 4.98-4.384 1.028-2.8 1.894-5.601 2.703-8.471l.917-2.995Q242.963 165.67 244 162"/><path fill="#686E6B" d="M244 162h1c-.524 5.868-1.761 10.549-4 16l2.668-2.152q1.76-1.394 3.52-2.786l1.751-1.42c3.299-2.59 5.747-4.26 10.061-4.642l-2 2 2 2-2.375 1.688c-2.828 2.491-3.317 3.88-4.625 7.312-6.862 10.522-21.694 16.176-33.511 18.771-4.754.808-9.516 1.505-14.292 2.168-13.243 2.075-23.366 8.721-31.877 19.112-2.377 3.412-4.351 6.981-6.25 10.676l-1.038 2.007q-1.005 1.964-1.966 3.95c-2.604 5.154-5.793 8.68-11.066 11.316-24.694 1.046-24.694 1.046-33.375-3.937-3.29-3.13-4.64-7.347-6.156-11.54-1.974-3.391-3.873-4-7.469-5.523a109 109 0 0 0-7.469-1.395l-4.388-.697-2.298-.355c-22.28-3.47-43.207-8.609-63.724-18.15-6.63-2.98-13.39-5.664-20.121-8.403l-1 2-1-7c-.21 4.14-.21 4.14 1 8 2.322.407 4.657.744 7 1l.938 2.875c.936 2.986.936 2.986 2.062 5.125-4.914-1.49-8.403-4.442-12-8-1.601-3.203-1.482-6.525-1-10 1.438-2.062 1.438-2.062 4-3 7.827 0 13.936 2.884 21 6a632 632 0 0 0 7.75 3.125l1.93.77c4.42 1.76 8.855 3.465 13.32 5.105l1-2c3.063-.625 3.063-.625 6-1l-1 3 1 3c6.703 3.283 14.992 4.002 22.297 5.309 2.744.512 5.39 1.079 8.078 1.816 4.52 1.091 8.997 1.515 13.625 1.875v2a203.2 203.2 0 0 0 54.445-1.344c3.554-.559 6.948-.798 10.555-.656l.563-2.062c3.997-8.17 12.439-13.495 20.578-17.004 4.286-1.4 8.67-2.073 13.11-2.785 5.317-.861 10.526-1.96 15.749-3.274l2.086-.518c3.228-.643 3.228-.643 5.914-2.357a100 100 0 0 1 5 0v-2l3.254-.832c2.62-1.123 3.577-1.865 4.98-4.384 1.028-2.8 1.894-5.601 2.703-8.471l.917-2.995Q242.963 165.67 244 162"/><path fill="#F47A24" d="M168 65c9.42 2.054 18.9 4.6 27 10v-2l-2-1 2-6c11.855 1.75 24.24 11.175 32 20v2h2c4 4.47 4 4.47 4 7l-6 1-3-4-3 2c-2.837-1.418-3.626-3.186-5-6 .438-2.062.438-2.062 1-4-.858-2.218-.858-2.218-2-4l1-1c-2.397-.68-2.397-.68-5-1l-2 2h-4c.283 4.674 2.417 6.824 5.39 10.145 14.476 16.688 16.957 40.7 15.61 61.855-.9 5.427-1.963 9.22-6 13a689 689 0 0 0-3.25 3.875c-7.619 8.62-7.619 8.62-13.273 9.531-3.799.134-6.424.217-9.754-1.754C192 175 192 175 191.625 172.062c.25-4.374 1.067-8.692 1.84-13C196.14 143.752 195.48 129.116 192 114l-.738-3.285c-1.85-6.931-4.804-13.175-8.074-19.528l-1.22-2.39C178.455 82.221 174.27 76.18 168 72c-.187-3.625-.187-3.625 0-7"/><path fill="#D05119" d="m101 68 3 1-3 1a257 257 0 0 0-2 4 173 173 0 0 1-4.625 4.938c-16.585 17.79-23.026 40.82-22.812 64.75l.006 2.107C71.623 157.269 72.836 167.95 76 179l.828 3.328c.854 3.424.854 3.424 2.172 6.672l3 1v3l3 1c2.474-2.474 2.624-3.542 3-7-.21-2.699-.591-5.32-1-8 2.753 2.753 3.446 6.004 4.625 9.625C94.631 197.527 98.629 205.702 103 214c.67 1.331 1.34 2.663 2 4h-3v-2l-1.766.105c-6.104.202-11.282-.7-17.156-2.32-3.065-.782-6.073-1.277-9.203-1.722C68.35 211.183 62.823 209.94 58 207c-2-3.252-2-3.252-2-5l-5 1-2-4h-2c-9.736-16.613-15.563-29.966-15.187-49.687q.022-2.093.04-4.186.054-5.063.147-10.127h1l.184 2.266.254 2.984c.08.975.162 1.95.246 2.953.267 2.362.67 4.516 1.316 6.797h2l1.563 1.875C42.609 155.403 47.727 156 53 156c2.202-.525 2.202-.525 4-2 .77-2.676.77-2.676.906-5.863l.317-3.631.277-3.818C60.248 117.428 68.487 95.13 86 79h2l1-3c2.617-2.078 2.617-2.078 5.875-4.25l3.242-2.203z"/><path fill="#748034" d="M159.008 11.926c6.547 3 11.271 7.284 13.992 14.074.624 5.952 1.226 12.672-1.625 18.125-3.302 3.997-5.755 6.467-11.031 7.29-4.772.243-7.492.153-11.531-2.54-2.096-3.323-2.327-5.019-1.813-8.875l1-2 7 1c1.736-1.675 1.736-1.675 3-4-.822-3.138-1.703-4.703-4-7-3.694-.201-6.48-.174-10 1-1.928 5.133-1.643 11.07.063 16.188C147.653 50.4 151.95 54.014 158 56c7.218.967 13.118-.37 19.785-3.125C180 52 180 52 182 52v-2l-1.875-.875C178 48 178 48 176 46c-.74-4.865-.715-8.831 1.875-13.062 3.535-3.224 6.217-3.327 10.863-3.297 3.587.57 5.13 2.561 7.262 5.359l1 2c2.914-4.778 3.199-7.551 2-13 2.25-.75 2.25-.75 5-1 2.29 1.844 3.687 3.374 5 6 .547 6.344-.297 10.747-4 16-1.563 1.65-3.17 3.035-4.969 4.426-2.113 1.592-2.113 1.592-4.25 3.617C184.65 62.964 170.273 62.943 156 63l-2-1-3 1a72 72 0 0 1-4.465.027l-2.658-.04-2.815-.05c-7.07-.072-13.742.137-20.687 1.626-2.507.461-4.832.51-7.375.437l1.938-1.812c2.265-2.096 2.265-2.096 3.062-5.188h2c.392-1.58.763-3.164 1.125-4.75l.633-2.672c.279-2.972-.076-4.144-1.758-6.578-3.263-2.175-4.234-2.282-8-2l-3 1v7l5 1c-2.875 4.875-2.875 4.875-4 6-7.12.712-7.12.712-10.937-2.375-2.812-3.578-3.47-5.787-3.41-10.395.782-5.022 3.808-8.867 7.534-12.167 6.517-2.462 11.925-2.73 18.438-.126 1.468.667 2.93 1.347 4.375 2.063l.078-2.195c.351-5.98.628-10.301 4.922-14.805 8.121-7.005 17.8-8.216 28.008-5.074M185 37l-2 4 4 2 2-4z"/><path fill="#F9B22F" d="M132 102c7.04.997 13.439 2.224 20 5v2l2.309.75c6.44 2.991 9.54 11.31 11.879 17.68 6.983 22.09 2.118 49.387-6.188 70.57l-2 1v-9h-2c-.138-7.066.252-13.974 1-21l-2.168.254c-7.75.792-15.091.558-22.832-.254l-1-4 27-1 .313-13.25.137-4.099c.11-9.749-1.84-17.699-7.637-25.651-7.343-5.221-12.644-6-21.813-6l-1 48-1-2-3 1-1 5h2v17h-1v-14H97l-1-6h25v-49c-9.838.984-13.046 1.545-19.187 8.438-7.761 9.604-8.115 19.132-7.876 31.187.112 6.904.13 13.542-.937 20.375l-3 1-1 2-1-7h-2c-3.747-16.772-6.01-34.932 2.441-50.707 2.595-3.816 5.891-6.544 9.559-9.293l2.059-1.59c6.371-4.628 13.21-5.361 20.941-5.41l1 1c1.679.393 3.369.74 5.063 1.063l2.785.535L132 107z"/><path fill="#F27B2F" d="m116 60 2 1-4 3 2.762-.437c9.05-1.297 17.821-1.744 26.965-1.577 4.893.079 9.45-.142 14.273-.986v1q4-.214 8-.437l2.254-.12c3.77-.213 7.45-.53 11.184-1.103L183 60l2 2c1.688.603 3.4 1.139 5.125 1.625.91.26 1.82.52 2.758.79L195 65c-3.073.955-3.994 1.002-7.25.063-9.238-2.556-20.14-1.363-29.516-.184-2.327.126-3.992-.307-6.234-.879-2.032.093-2.032.093-4.125.438-3.306.427-6.48.61-9.812.562-5.02-.047-10.13-.006-15.063 1l-2 2c-4.053.345-5.548.302-9-2-2.625-.167-2.625-.167-5 0v-2q-3.813.173-7.625.375c-.713.03-1.426.062-2.16.094-4.35.24-8.188.71-12.215 2.531l-1 3h-2v-3h-2v2l-6 2v2l4 1v2h2v-2h4v2l2.082-1.094 2.73-1.406 2.708-1.406C94 71 94 71 97 71l-1.715 1.242-2.222 1.633-2.215 1.617C88.889 76.88 88.889 76.88 88 79h-2l-.687 1.688c-1.333 2.348-2.898 3.856-4.825 5.714-12.5 13.42-19.882 33.1-20.875 51.246l-.158 2.856a276 276 0 0 0-.226 5.812c-.431 6.866-.431 6.866-2.764 9.258-3.106 1.89-4.941 2.533-8.528 1.801L45 156l-3.25-.875C39 154 39 154 37.625 151.875L37 150h-2l-2-4-1 11h-1c-.059-4.104-.094-8.208-.125-12.312-.017-1.148-.034-2.296-.05-3.479-.127-22.256 8.21-42.654 23.663-58.81 13.628-13.013 27.078-19.74 45.887-19.961q3.48-.051 6.96-.13l3.08-.037c2.822-.093 2.822-.093 5.585-2.271"/><path fill="#D77E16" d="M121 115v49H96l1 6h27v41c-11.78 0-11.78 0-15.494-2.48-3.211-3.242-4.635-7.455-6.256-11.645l-1.129-2.727c-5.394-13.265-8.518-26.22-8.433-40.585.005-1.006.01-2.012.017-3.048.18-11.052 1.382-20.291 9.295-28.515 6.897-6.566 8.366-7 19-7"/><path fill="#343A38" d="m167 232 1 2c-.96 1.805-.96 1.805-2.375 3.875-1.844 2.71-3.002 4.894-3.625 8.125l2.148-.402c12.537-2.08 25.172-2.246 37.852-2.598v-2q4.53-.506 9.063-1c.847-.095 1.695-.19 2.568-.29 4.824-.52 9.517-.815 14.369-.71.37 3.711.437 5.425-1.863 8.45l-2.45 2.238-2.425 2.261L219 254l-1.48 1.645c-7.812 6.968-25.412 5.673-35.333 6.48l-3.023.266c-22.688 1.726-45.585.493-68.295-.318q-5.252-.185-10.504-.362Q90.183 261.362 80 261v-2H65c-2.187-2.5-2.187-2.5-4-5q4.688.46 9.375.938l2.695.263 2.578.264 2.38.238C80 256 80 256 82 257c17.998 2.41 36.445 2.194 54.563 2.188l3.046.002c6.799 0 13.594-.068 20.391-.19l2.934-.043c2.845-.05 5.687-.13 8.53-.219l2.56-.04c6.305-.247 11.898-1.712 16.54-6.215 1.743-2.04 3.234-4.08 4.436-6.483l-1.727.477c-2.25.518-4.341.748-6.643.896l-2.588.172-2.769.174-5.812.386q-4.579.299-9.158.593-4.422.287-8.842.583l-2.781.174-2.57.172-2.264.146c-1.939.134-1.939.134-3.846 1.227-15.918 1.04-15.918 1.04-22-2v-2l2.475.063c3.717.084 7.433.136 11.15.187l3.895.102c9.109.266 9.109.266 16.48-4.352a261 261 0 0 0 3-5h3l.938-2.437C166 233 166 233 167 232"/><path fill="#E46321" d="M32 135h1l.184 2.266.254 2.984c.08.975.162 1.95.246 2.953.267 2.362.67 4.516 1.316 6.797h2l1.563 1.875C42.609 155.403 47.727 156 53 156c2.198-.578 2.198-.578 4-2 .702-2.417.702-2.417.75-5.125l.172-2.758L58 144h1l.078 3.191c.462 13.133 3.034 24.543 8.16 36.72 1.034 2.836 1.282 5.115.762 8.089-3.603 2.402-4.74 2.473-9 2-3.089-1.16-6.047-2.53-9-4v-2l-4 1 3 10h-2c-9.736-16.613-15.563-29.966-15.187-49.687q.022-2.093.04-4.186.054-5.063.147-10.127"/><path fill="#6D4227" d="M132 116c8.848 0 11.81 1.172 18 7 2.086 2.855 3.622 5.75 5 9l1.046 2.239c1.11 3.212 1.181 5.76 1.15 9.156l-.02 3.642-.051 3.775-.027 3.834c-.024 3.118-.06 6.236-.098 9.354h-25zM121 116v48H96c-.566-30.952-.566-30.952 7.254-40.312C108.492 118.625 113.714 116 121 116"/><path fill="#E36020" d="M233 95c9.134 7.857 13.903 25.266 14.91 36.766.415 10.319.01 20.072-1.91 30.234h-2l-.36 3.043c-.562 3.908-1.62 7.526-2.89 11.27l-1.203 3.675C238 183 238 183 235.578 184.418 233 185 233 185 229 185q.404-2.907.813-5.812l.542-3.887a239 239 0 0 1 1.446-8.758c1.52-8.482 2.484-16.727 2.512-25.356l.016-2.514c-.055-4.641-.68-8.286-2.329-12.673-.552-2.765-.995-5.533-1.437-8.316-.573-2.733-1.526-5.1-2.563-7.684.343-4.343 2.246-8.053 4-12z"/><path fill="#343634" d="m166 216-1.172 2.492c-2.873 6.16-5.622 12.299-7.969 18.68C156 239 156 239 154 240c-4.332.352-8.667.442-13.011.515q-2.164.047-4.326.143c-11.903.524-11.903.524-16.096-2.292-1.813-2.03-3.207-4.014-4.567-6.366l-1.926-2.863-1.386-2.45c-1.506-2.628-3.006-5.164-4.688-7.687l2.497.048c16.468.271 32.234-.033 48.527-2.767 2.342-.333 4.615-.397 6.976-.281"/><path fill="#D98116" d="M129 169h23v5l3-1c1 1 1 1 1.063 3.563L156 179h-2l-1.75 3c-2.25 3-2.25 3-5.375 3.563L144 185l-2-3v4l9 1v-2l3 1-.437 2.375c-.603 3.4-.603 3.4-.641 5.969-.291 6.735-2.173 10.832-6.922 15.656-5.077 2.539-11.324 1-17 1z"/><path fill="#7A873C" d="M158.738 11.914C160.938 13 160.938 13 164 15l-2 1-2.687-1.437C153.436 11.8 146.349 12.779 140 13l-1 5 3-.5c4.027-.585 7.935-.571 12-.5-2.451 1.275-4.848 2.324-7.437 3.313-3.718 1.76-5.726 3.772-8.563 6.687h-3l-1 19-7 2-2 1-1-4h2v-2l-3-1c-.086 3.11-.086 3.11.625 6.563L124 52l-2 2 .125-2.75c-.122-3.177-.369-4.662-2.125-7.25-3.263-2.175-4.234-2.282-8-2l-3 1v7l5 1c-2.875 4.875-2.875 4.875-4 6-7.12.712-7.12.712-10.937-2.375-2.812-3.578-3.47-5.787-3.41-10.395.782-5.022 3.808-8.867 7.534-12.167 6.517-2.462 11.925-2.73 18.438-.126 1.468.667 2.93 1.347 4.375 2.063l.078-2.195c.351-5.98.628-10.301 4.922-14.805 7.898-6.813 17.78-8.41 27.738-5.086"/><path fill="#435328" d="M200 23c2.875.125 2.875.125 6 1 2.98 3.278 3.543 6.488 3.344 10.887-1.214 7.46-5.592 11.7-11.344 16.113l-2.5 2.113-2.625 2.2-2.445 2.05c-2.553 1.72-4.402 2.265-7.43 2.637l2-1v-2l2-2c-1.689-1.268-1.689-1.268-4-2-2.631.873-2.631.873-5.375 2.375-7.486 3.34-15.148 4.242-23.113 1.89C150.197 55.284 147.26 52.448 144 49l-3-1 1-6c2 2 2 2 3.125 4.25A25.2 25.2 0 0 0 158 56c7.283.75 13.045-.34 19.785-3.125C180 52 180 52 182 52v-2l-1.875-.875C178 48 178 48 176 46c-.74-4.865-.715-8.831 1.875-13.062 3.535-3.224 6.217-3.327 10.863-3.297 3.587.57 5.13 2.561 7.262 5.359l1 2c2.94-4.82 3.076-7.513 2-13zm-15 14-2 4 4 2 2-4z"/><path fill="#65714A" d="M160 15c3.988.844 6.43 1.414 9.313 4.375 4.36 6.784 4.419 12.601 3.687 20.625-1.207 4.094-3.476 6.501-6.562 9.438-4.862 2.21-9.186 2.48-14.438 1.562-3.187-2.125-3.187-2.125-5-5-.377-3.204-.444-5.111 1-8l7 1c1.736-1.675 1.736-1.675 3-4-.85-3.17-2.17-5.256-4-8h6c1.044-6.08 1.044-6.08 0-12"/><path fill="#484F4B" d="M5 192c1 2 1.494 3.831 2 6l2.148.36c3.018.677 5.633 1.679 8.477 2.89l3.223 1.367a335 335 0 0 1 8.215 3.758c5.994 2.769 12.178 4.986 18.388 7.214l2.389.86 2.136.76c2.08.813 4.042 1.763 6.024 2.791-1.152 2.468-2.048 4.048-4 6a94 94 0 0 1-7.625.125l-2.14-.027A625 625 0 0 1 39 224l1 5-2-2.062c-5.822-5.773-11.617-10.564-18.8-14.579-3.196-1.975-4.891-3.361-6.012-6.984L12 203c-2.987-.664-2.987-.664-6-1-2.294-3.441-2.263-4.968-2-9z"/><path fill="#58321A" d="M121 116c.37 7.522.37 7.522-1.258 9.625-1.861 1.47-3.674 2.523-5.805 3.563l-2.097 1.042C110 131 110 131 108 131l-.875 2.25C106 136 106 136 104.969 137.82c-3.132 7.047-2.08 16.603-1.969 24.18l16 1v-33h1v34H96c-.566-30.952-.566-30.952 7.254-40.312C108.492 118.625 113.714 116 121 116"/><path fill="#282E2C" d="M61 254q4.688.46 9.375.938l2.695.263 2.578.264 2.38.238C80 256 80 256 82 257c33.181 4.442 67.926 2.674 101.25 1.125l2.64-.119c15.492-.074 15.492-.074 30.11-4.006v3c-10.1 4.54-22.901 4.237-33.812 5.125l-3.024.266c-22.688 1.726-45.585.493-68.295-.318q-5.252-.185-10.504-.362Q90.183 261.362 80 261v-2H65c-2.187-2.5-2.187-2.5-4-5"/><path fill="#4E5425" d="M140 32h1q.29 3.437.563 6.875l.316 3.867C142 46 142 46 141 48l1.785.316c2.541.785 3.731 1.807 5.653 3.621 5.657 5.343 11.311 5.529 18.84 5.473 4.943-.545 8.811-2.24 13.199-4.512C183 52 183 52 185.336 52.852L187 54v3h-2v2c-6.56 2.681-12.992 3.393-20 3.75l-2.573.135c-6.152.253-6.152.253-8.427-.885l-3 1a81 81 0 0 1-4.687.063l-2.45-.028L142 63q-1.19-2.812-2.375-5.625l-1.336-3.164c-2.177-5.423-3.545-9.695-3.414-15.586l.055-3.21L135 33l3 1v3z"/><path fill="#543220" d="M132 116c8.854 0 11.804 1.176 18 7 2.13 2.825 3.918 5.617 5 9l-1 3-.562-1.75c-1.551-2.427-2.526-3.026-5-4.375C145 127 145 127 144 125h-6v38h18v1h-24z"/><path fill="#DC6619" d="M157 111c8.387 3.77 11.8 11.831 15 20 5.948 17.248 3.283 35.754-1 53h-2l-.375 3.438L168 191l-2 1-1-9h1l-.07-2.203c-.095-5.287.037-10.227 1.07-15.422 3.237-17.793.797-34.545-8-50.375a347 347 0 0 1-2-4"/><path fill="#DC581A" d="M213.75 77.188C216 78 216 78 217 80h-2l1.5 2.25C218 85 218 85 218 89a69 69 0 0 0 1 4l1.813-.5C223 92 223 92 226 92l3 3c2.103.714 2.103.714 4 1-.576 4.755-2.55 7.97-5 12h-2l1 3-4 4c-2.112-3.168-3.379-6.225-4.812-9.75-2.192-5.291-4.689-9.721-8.188-14.25v-2l-3-1c-1.75-1.687-1.75-1.687-3-4 .313-3.25.313-3.25 1-6l1 2 2.188-1.562C211 77 211 77 213.75 77.188"/><path fill="#657033" d="M128 27h1c.25 1.768.474 3.54.688 5.313l.386 2.988C130 38 130 38 128.644 39.855 127 41 127 41 125 41v-2h-3l-2 2-2-1h-3.375c-2.874 0-4.934-.139-7.625-1l-2 3h3v8h5l1 2c-1.5 2.5-1.5 2.5-4 5-3.262.518-4.932.78-8 0-2.691-2.176-4.455-3.91-6-7-.402-4.82-.434-7.131 1.75-11.5L100 36h4l1-3c3.992-1.996 8.663-1.523 13-1 3.611 1.368 6.64 3.052 10 5z"/><path fill="#CE5916" d="M166 174h1q.039 3.219.063 6.438l.035 3.62C167 187 167 187 166 188l1 3 2-7c1.08 3.241.956 3.952.04 7.09-.225.784-.45 1.569-.68 2.377l-.735 2.47-1.398 4.84-.639 2.164A160 160 0 0 0 164 209l1-2h2l.188-2.187c1.057-3.66 3.018-5.305 5.812-7.813l.375 1.938L174 201l2 1v-2h6c-2.555 2.662-5.246 5.062-8.062 7.438-2.493 2.134-3.93 3.547-5.563 6.437C167 216 167 216 164.438 216.813c-4.485.244-8.948.267-13.438.187 1.335-3.423 2.803-6.743 4.375-10.062 4.82-10.588 7.74-21.707 10.625-32.938"/><path fill="#5C6664" d="m28 195 5.25 2.313q1.875.84 3.75 1.687c-3 1-3 1-4 1l.125 2.375C33 205 33 205 31 207c-4.528-.216-7.85-1.808-11.766-3.879C15.275 201.135 11.13 199.591 7 198l-1 2-1-7c-.21 4.14-.21 4.14 1 8 2.322.407 4.657.744 7 1l.938 2.875c.936 2.986.936 2.986 2.062 5.125-4.914-1.49-8.403-4.442-12-8-1.601-3.203-1.482-6.525-1-10 5.326-7.642 18.697.132 25 3"/><path fill="#718356" d="M200 23c2.875.125 2.875.125 6 1 2.98 3.278 3.543 6.488 3.344 10.887-1.214 7.46-5.592 11.7-11.344 16.113l-2.5 2.113-2.625 2.2-2.445 2.05c-2.553 1.72-4.402 2.265-7.43 2.637l2-1v-2l5-2-1-3 2-1 1-3-3-1c1-2 1-2 3-3l-1-2q.421-3.511 1-7l2 2 2-2 1 2c2.94-4.82 3.076-7.513 2-13z"/><path fill="#E26C32" d="M195 66c11.855 1.75 24.24 11.175 32 20v2h2c4 4.47 4 4.47 4 7l-6 1-3-4-3 2c-2.837-1.418-3.626-3.186-5-6 .438-2.062.438-2.062 1-4-.858-2.218-.858-2.218-2-4l1-1c-2.397-.68-2.397-.68-5-1l-2 2h-4l-2 4c-1.5-1.375-1.5-1.375-3-3v-2l-1.875-.875C196 77 196 77 194 75l1-2-2-1z"/><path fill="#303634" d="m167 232 1 2c-.96 1.805-.96 1.805-2.375 3.875-1.844 2.71-3.002 4.894-3.625 8.125l2.148-.402c12.537-2.08 25.172-2.246 37.852-2.598v-2q4.53-.506 9.063-1c.847-.095 1.695-.19 2.568-.29 4.824-.52 9.517-.815 14.369-.71l-1 4v-2l-3.05.55-4.262.762-1.975.358c-2.569.457-5.14.893-7.713 1.33l-1.928.342c-13.18 2.33-26.282 3.483-39.634 4.283q-4.38.27-8.757.55a1001 1001 0 0 1-5.386.331c-4.284.165-4.284.165-8.295 1.494-15.918 1.04-15.918 1.04-22-2v-2l2.475.063c3.717.084 7.433.136 11.15.187l3.895.102c9.109.266 9.109.266 16.48-4.352a261 261 0 0 0 3-5h3l.938-2.437C166 233 166 233 167 232"/><path fill="#E38D17" d="M129 169h23v5l3-1c1 1 1 1 1.063 3.563L156 179h-2l-1.75 3c-2.25 3-2.25 3-5.375 3.563L144 185c-2.43-3.644-2.162-5.712-2-10l-1 8-3 1-2-9-7 2z"/><path fill="#53612F" d="m148.313 11.813 3.425-.043c3.245.229 5.394.725 8.262 2.23 1.938 2.688 1.938 2.688 3 6-.625 3.813-.625 3.813-2 7-3.53 1.177-5.312.748-8.937.063C148.563 26.408 145.58 26 142 26l-2-1-.875 2.938C138 31 138 31 136 32c.506-4.424 1.95-6.78 5-10 3.134-2.194 5.231-3.058 9-4h-11l1-5c2.805-1.402 5.185-1.17 8.313-1.187"/><path fill="#F9913B" d="M65 89c-.477 7.466-3.41 13.964-9 19.063-3 1.937-3 1.937-5.687 2.562C48 110 48 110 46.063 107.813 45 105 45 105 45.75 102.375L47 100c1.333-2.892 1.333-2.892.063-5.187L46 93h3l2 2 2.25-2.375C57.412 88.653 59.35 87.43 65 89"/><path fill="#5A6462" d="M244 162h1c-.524 5.868-1.761 10.549-4 16l2.668-2.152q1.76-1.394 3.52-2.786l1.751-1.42c3.299-2.59 5.747-4.26 10.061-4.642l-2 2 2 2-2.375 1.688c-2.828 2.491-3.317 3.88-4.625 7.312-3.938 5.783-8.922 8.672-15 12l-2-2v-2l-4-1v2l-7 1 1-2h5v-2l3.254-.832c2.62-1.123 3.577-1.865 4.98-4.384 1.028-2.8 1.894-5.601 2.703-8.471l.917-2.995Q242.963 165.67 244 162"/><path fill="#EAAB3B" d="M121 116h1c.708 17.008 1.162 33.976 1 51h2v17h-1v-14H97l-1-6h25z"/><path fill="#EB6D22" d="m179 166 3 2c-2.226 11.014-5.75 20.298-11.067 30.18-1.474 2.875-2.7 5.834-3.933 8.82h-2l-1 3-2-1c.23-.574.461-1.147.7-1.738 4.386-11.427 7.423-23.418 9.75-35.428C173 170 173 170 175 168z"/><path fill="#C66D13" d="M129 114c8.586 0 14.394.185 21.047 5.695 5.483 5.788 9.16 12.853 9.203 20.93L159 144h-1l-.516-1.906c-2.848-10.06-5.99-16.7-14.297-23.344-3.763-2.322-3.763-2.322-11.187-2.75v48h-3z"/><path fill="#706E1B" d="M136 85c2.723 4.084 2.385 6.146 2 11-3 2-3 2-6 2v-6l-5 1c-.767 2.85-.767 2.85-1 6 1.189 1.94 1.189 1.94 3 3h2l1 5c-1.626-.087-3.25-.195-4.875-.312l-2.742-.176C122 106 122 106 120 103c-.77-5.104-1.35-10.6 1.25-15.223 4.31-4.22 9.118-4.899 14.75-2.777"/><path fill="#313634" d="M193 220c2.475 2.805 2.969 4.807 3.563 8.5-.563 3.5-.563 3.5-3.125 6.5-3.438 2-3.438 2-7.063 2.125-4.055-1.352-5.4-2.339-7.375-6.125 0-4.046.355-6.183 2.875-9.375 3.826-2.926 6.603-2.944 11.125-1.625"/><path fill="#EAA735" d="M128 211h17l-3 2 2 1v2l6 1c-4.421 4.421-13.904 3.13-19.883 3.137l-3.117-.012-3.117.012c-6.034-.008-11.92-.172-17.883-1.137l-1-2 3-1v-2c4.504-1.757 8.176-2.193 13-2l2 6c3.716.2 4.772.152 8-2l3-1-1-2c-2.527-.656-2.527-.656-5-1z"/><path fill="#6D7472" d="M31 198q3.595.932 7.188 1.875l2.04.527c3.707.977 7.251 2.08 10.772 3.598l-3 1v3h4v3l4 2v1c-7.98 2.034-13.655-.812-21-4q-2.496-1.009-5-2l1.063-1.625c1.224-3.103.568-5.153-.063-8.375"/><path fill="#DD5E1E" d="M88 188c2.165 2.165 2.525 3.255 3.375 6.125 1.877 5.876 4.387 11.16 7.875 16.25C101 213 101 213 101 215h-8l-2-5h-2a1622 1622 0 0 1-3.937-7.687l-1.131-2.186C82.06 196.435 80.517 193.163 80 189l2 1v3l3 1c2.139-2.139 2.427-3.133 3-6"/><path fill="#68733A" d="M123 41c2.125.938 2.125.938 4 2l-1 3h3l2 1c.083 4.833-.047 9.237-1 14l3 1q-3.592.758-7.187 1.5l-2.042.434c-3.646.747-7.047 1.24-10.771 1.066l1.938-1.812c2.265-2.096 2.265-2.096 3.062-5.188h2l1-4h2c.178-4.548-.002-7.88-2-12z"/><path fill="#6B7A2F" d="M128 27h1c.25 1.768.474 3.54.688 5.313l.386 2.988C130 38 130 38 128.644 39.855 127 41 127 41 125 41v-2h-3l-2 2-2-1h-3.375c-3.625 0-3.625 0-5.875-.687L107 39l-1.437 1.5L104 42c-2.687-.312-2.687-.312-5-1l2-5h3l1-3c3.992-1.996 8.663-1.523 13-1 3.611 1.368 6.64 3.052 10 5z"/><path fill="#2A302E" d="m224 204-1 3-1.953.335q-4.461.769-8.922 1.54l-3.07.527q-4.53.785-9.055 1.598l-2.831.504-2.646.496-2.322.43c-3.699.958-6.843 2.771-10.201 4.57h-2v2a383 383 0 0 1-4.398 3.559c-2.428 2.185-3.917 4.655-5.602 7.441l-1-2c3.903-5.505 8.052-10.407 13-15l1.875-1.75c3.472-2.042 7.288-3.077 11.125-4.25l3-1a249 249 0 0 1 6.688-.437c4.116-.26 7.963-.569 11.937-1.688 3.3-.856 4.288-.832 7.375.125"/><path fill="#BF5714" d="M87 179c2.753 2.753 3.446 6.004 4.625 9.625C94.631 197.527 98.629 205.702 103 214c.67 1.331 1.34 2.663 2 4h-3v-2l-1.766.105c-6.094.202-11.265-.696-17.129-2.312-4.163-1.063-8.356-1.673-12.609-2.266C68 211 68 211 65 209c2-.043 4-.04 6 0l1 1c2.183.235 4.372.414 6.563.563l3.628.253L85 211v2h2v-5l-4-1 2-3h-2l-1-6c2.955 2.751 5.152 5.397 7 9v3h2l2 5h8l-1.137-1.582C92.826 203.296 87 191.579 87 179"/><path fill="#DC924E" d="M195 65c-3.073.955-3.994 1.002-7.25.063-9.238-2.556-20.14-1.363-29.516-.184-2.327.126-3.992-.307-6.234-.879-2.032.093-2.032.093-4.125.438-3.306.427-6.48.61-9.812.562-5.02-.047-10.13-.006-15.063 1l-2 2c-4.053.345-5.548.302-9-2-2.625-.167-2.625-.167-5 0v-2l1.984.07c4.954.098 9.53-.076 14.391-1.07 6.72-1.263 13.343-1.136 20.152-1.014 4.96.078 9.584-.126 14.473-.986v1q4.094-.212 8.188-.437l2.33-.12c3.193-.178 6.209-.386 9.345-1.04 5.175-.975 12.17 2.942 17.137 4.597"/><path fill="#EF7323" d="M107 64v1l-11 1-1 5c-1.742 1.582-1.742 1.582-3.875 2.813l-2.117 1.269C87 76 87 76 84 76v-2h-4v2h-2v-2h-5l1-3c3.063-1.187 3.063-1.187 6-2v-2h2v3h2l-1-4c7.906-2.635 15.769-2.18 24-2"/><path fill="#272C2A" d="M39 223c12.594.107 25.61 3.145 37.957 5.46 7.327 1.299 14.69 2.397 22.043 3.54v1l-2.07-.184c-5.322-.442-10.615-.825-15.953-.964-29.972-.85-29.972-.85-39.977-5.852l-1 3-2-5z"/><path fill="#52270A" d="M132 116c8.854 0 11.804 1.176 18 7 2.13 2.825 3.918 5.617 5 9l-1 3-.562-1.687c-1.835-2.952-4.083-4.31-6.977-6.165L145 126v-2h-5l2-1c-3.783-4.112-3.783-4.112-9-6v46h23v1h-24z"/><path fill="#636C6A" d="m231 187 5 1c-.156 2.336-.156 2.336-1 5-9.67 6.092-24.76 8.334-36 8l1-2c2.723-.633 2.723-.633 6.063-1.125l3.347-.508L212 197l-1-2c3.204-2.136 4.02-2.231 7.688-2.125l2.449.055L223 193l-1-2c3.135-1.858 5.375-2.201 9-2zm-11 7 1 2 1-2z"/><path fill="#E05E1B" d="M211 74c3.193 1.462 5.806 3.268 8.563 5.438l2.316 1.808c1.832 1.515 3.559 2.962 5.121 4.754v2h2c4 4.47 4 4.47 4 7l-6 1-3-4-3 2c-2.837-1.418-3.626-3.186-5-6 .438-2.062.438-2.062 1-4-.858-2.218-.858-2.218-2-4l1-1-6-1z"/><path fill="#5A6D32" d="M191 30c2.563 1.063 2.563 1.063 4 3 .25 3.688.25 3.688 0 7-2-3-2-3-2-5l-1.937.5C189 36 189 36 188 36l2 2c.125 2.625.125 2.625 0 5-2.312.625-2.312.625-5 1-3-2-3-2-4-5h-2l-.375 1.813C178 43 178 43 176 46c-.627-8.975-.627-8.975 1.875-13.062 4.031-3.676 7.878-3.432 13.125-2.938m-6 7-2 4 4 2 2-4z"/><path fill="#BE4D1E" d="m227 181 1 4 4 1h-2v2c-2.831.82-5.665 1.63-8.5 2.438l-2.398.697A85.6 85.6 0 0 1 204 194c.563-1.875.563-1.875 2-4 3.625-1.25 3.625-1.25 7-2v-3c3.878-1.825 6.76-2 11-2z"/><path fill="#BE4A17" d="m173 197 .375 1.938L174 201l2 1v-2h6c-2.555 2.662-5.246 5.062-8.062 7.438-2.536 2.16-3.867 3.42-5.375 6.437C167 216 167 216 164.828 216.527c-2.284.26-4.53.42-6.828.473l1.277-1.68 1.66-2.195 1.653-2.18c1.45-1.889 1.45-1.889 2.41-3.945h2l.188-2.187c1.057-3.66 3.018-5.305 5.812-7.813"/><path fill="#3B321F" d="M158 217v1c-12.82 3.646-25.762 3.718-39 4-.723 4.481-.723 4.481-1 9l1.875 1.875c1.997 1.997 3.026 3.56 4.125 6.125-3.74-1.477-5.292-3.438-7.5-6.75l-1.82-2.703L113 227l-1.305-1.922c-1.346-1.985-2.621-3.93-3.695-6.078.876.01 1.752.02 2.655.032q4.965.051 9.93.078 2.133.015 4.265.04c8.042.097 15.754-.124 23.681-1.705 3.224-.581 6.205-.593 9.469-.445"/><path fill="#C56B0A" d="M96 173c2.25 3.376 3.507 6.84 4.875 10.625 2.174 5.89 4.338 11.74 7.125 17.375l1.625 3.438c3.625 3.91 7.163 3.876 12.375 4.562v-16h1v17c-11.165.613-11.165.613-14.633-1.934-3.014-3.904-4.743-7.88-6.555-12.441l-1.037-2.5C98.05 186.455 95.643 180.322 96 173"/><path fill="#DB8F31" d="M137.73 84.2c1.773 2.513 1.601 4.318 1.52 7.362l-.047 2.942C139 97 139 97 138 99c-3.062.625-3.062.625-6 1l-1 4v-2l-3 1c-1.562-1.625-1.562-1.625-3-4 .22-3.673.37-5.37 3-8 2.625.375 2.625.375 5 1l-1 6 5-2c.03-1.918.03-1.918.063-3.875l.035-2.18c.028-2.027.028-2.027-1.098-3.945-2.021-.507-2.021-.507-4.375-.687l-2.398-.262c-2.402-.18-2.402-.18-5.227.949v-3c4.313-1.617 9.899-1.456 13.73 1.2"/><path fill="#424E27" d="M171 29h1c.054 1.583.093 3.166.125 4.75l.07 2.672c-.206 2.727-.722 4.291-2.195 6.578l-2 1-1.437 2.5C165 49 165 49 162 50c-2.333.04-4.667.044-7 0l1.438-1.312c1.799-1.711 1.799-1.711 2.562-4.688h2v-2l3-2c.79-1.954.79-1.954 1.188-4.125L166 32c3 1 3 1 4 3z"/><path fill="#282E2C" d="m228 239-1 4v-2l-5.484.966q-2.35.413-4.7.82c-3.279.572-6.543 1.155-9.796 1.859-8.31 1.79-16.565 1.533-25.02 1.355l1-2c6.184-1.3 12.712-1.101 19-1v-2q4.53-.506 9.063-1c.847-.095 1.695-.19 2.568-.29 4.824-.52 9.517-.815 14.369-.71"/><path fill="#E79425" d="M152 169h5c.292 8.1-.113 16.089-2 24l-2 2c-1.125-6.75-1.125-6.75 0-9l-2-1v2c-6.483.367-6.483.367-8.719-1.219-1.656-2.302-1.59-3.663-1.469-6.469l.083-2.449L141 175l2-1-.098 6.055c-.028 2.027-.028 2.027 1.098 3.945 2.916.25 2.916.25 6 0 1.945-2.918 2.453-4.625 3-8l1 3h2l-1-5h-3l-1-3z"/><path fill="#E37219" d="M82 135h1l.078 3.531c.347 10.999 1.56 21.594 3.55 32.42.866 4.748 1.627 9.196 1.372 14.049l-2 1c-1.125-6.75-1.125-6.75 0-9l-4-1 .035-2.246a245 245 0 0 0-.597-19.379c-.452-6.561-.355-12.842.562-19.375"/><path fill="#752F03" d="m148 172.688 3 .312c2 3 2 3 1.75 6.563C152 183 152 183 150 185c-3 .313-3 .313-6 0-2-3-2-3-1.75-6.562.929-4.258 1.36-5.293 5.75-5.75"/><path fill="#696314" d="M136 85c2.723 4.084 2.385 6.146 2 11-3 2-3 2-6 2v-6c-3.93.575-3.93.575-7 3 .25-1.875.25-1.875 1-4 2.063-1.25 2.063-1.25 4-2v-2h2v-2c-4.093 1.653-7.59 3.135-11 6 2.965-7.165 7.891-8.168 15-6"/><path fill="#D77D1E" d="M129 114c7.945-.513 14.738.47 21.047 5.695 5.483 5.788 9.16 12.853 9.203 20.93L159 144h-1l-.516-1.906c-2.85-10.067-6.012-16.617-14.234-23.344-3.621-1.95-6.25-2.298-10.297-2.477C131 116 131 116 129 114"/><path fill="#AEA299" d="M244 162h1c-.524 5.868-1.761 10.549-4 16l2.668-2.152q1.76-1.394 3.52-2.786l1.751-1.42c3.299-2.59 5.747-4.26 10.061-4.642l-2 2 2 2c-3.088 1.765-4.233 2-8 2v2c-1.46 1.29-1.46 1.29-3.375 2.625l-1.898 1.352C244 180 244 180 242 180l1 5h-2c-2-3-2-3-3-5 .437-1.88.437-1.88 1.215-4.133l.83-2.441.893-2.551.88-2.574q1.08-3.154 2.182-6.301"/><path fill="#C94A17" d="m46 187 4 1v2l2.313.875C55 192 55 192 58 194c2.324.394 4.658.735 7 1v1H54l-1 3c-2.062.688-2.062.688-4 1a265 265 0 0 1-2.062-4.25l-1.16-2.39c-.864-2.62-.708-3.809.222-6.36"/><path fill="#A5AD82" d="M158.738 11.914C160.938 13 160.938 13 164 15l-2 1-2.687-1.437C153.436 11.8 146.349 12.779 140 13l.14 2.887L140 19c-2.742 2.209-5.502 3.517-9 4l-2-1c1.707-5.302 4.123-7.153 8.879-9.824 6.598-2.486 14.17-2.495 20.86-.262"/><path fill="#4C5827" d="m154 19 1 2-2 2 3 4-2.047-.219-2.703-.281-2.672-.281c-2.811-.275-2.811-.275-6.578-.219l-2-1-.875 2.938C138 31 138 31 136 32c.622-5.44 3.05-8.43 7.25-11.812 3.776-1.63 6.657-1.396 10.75-1.188"/><path fill="#F3AA2A" d="M97 166h23l-2 2 6 1v1H97z"/><path fill="#262C2A" d="m157 244 2 1c-3.94 4.523-9.711 5.71-15.527 6.223-14.703.162-14.703.162-19.473-2.223v-2l2.491.048c3.732.062 7.464.101 11.197.14l3.92.076 3.779.029 3.475.048c3.464-.376 5.247-1.486 8.138-3.341"/><path fill="#EDC5B2" d="M243 115c8.39 12.586 5.614 33.16 3 47h-1a2192.812 2192.812 0 0 0 .11-13.66q.015-2.32.04-4.637c.025-2.235.037-4.469.045-6.703l.032-2.062c0-5.726-1.23-10.591-2.855-16.047C242 117 242 117 243 115"/><path fill="#D75615" d="M52.125 123.875 55 124v9c-2.812.625-2.812.625-6 1l-3-2c1.033-7.921 1.033-7.921 6.125-8.125"/><path fill="#808868" d="m144 23 2 2c2.655.565 5.291.738 8 1v1l-3.312.438c-3.62.445-3.62.445-6.688 1.562l-2 13h-1l-1-8-1 5c-2.848-4.273-2.848-4.273-3-7 1.145-2.494 2.522-4.672 4-7l4 1z"/><path fill="#DE8A19" d="M112 170h12v41h-10v-1h9l-1-38-9 1z"/><path fill="#B9481B" d="M82 198c2.955 2.751 5.152 5.397 7 9v3h2l2 4c-5.991.321-11.5-.291-17.375-1.375l-2.127-.382c-3.401-.659-5.577-1.295-8.498-3.243 2-.043 4-.04 6 0l1 1c2.183.235 4.372.414 6.563.563l3.628.253L85 211v2h2v-5l-4-1 2-3h-2z"/><path fill="#505C26" d="m122 56 2.375 1c2.468 1.119 2.468 1.119 4.625 1v2l4 2q-3.592.758-7.187 1.5l-2.042.434c-3.646.747-7.047 1.24-10.771 1.066 2.578-2.648 4.916-4.944 8-7z"/><path fill="#D7DCCD" d="M142 42c2 2 2 2 3.125 4.25A25.2 25.2 0 0 0 158 56c7.283.75 13.045-.34 19.785-3.125C180 52 180 52 182 52v-2h3v2q-2.655 1.22-5.312 2.438l-2.989 1.37c-6.854 3.026-14.965 3.54-22.222 1.473C150.2 55.25 147.254 52.441 144 49l-3-1z"/><path fill="#696D6A" d="m232 262 2 1c-.602 6.38-.602 6.38-2.1 8.712-2.932 1.988-5.473 1.624-8.974 1.581l-2.072-.013a666 666 0 0 1-6.542-.092q-2.22-.024-4.439-.042-5.437-.051-10.873-.146v-1l27-1 2-5c2.125-1.312 2.125-1.312 4-2z"/><path fill="#999E9A" d="M145 277h26v1c-12.25 1.75-24.2 2.254-36.562 2.125q-2.558-.016-5.116-.027-6.161-.034-12.322-.098v-1l28-1z"/><path fill="#DD7D52" d="M38 177c5.614 5.462 8.05 8.136 9 16 .623 2.014 1.276 4.02 2 6h-2q-1.97-3.437-3.937-6.875l-1.131-1.973C39.11 185.222 37.876 182.696 38 177"/><path fill="#CC7319" d="m116.25 114.875 2.703.055L121 115a94 94 0 0 1-7.375 3.375c-6.47 2.9-9.798 5.687-13.625 11.625l-3 1c1.259-6.293 5.237-10.01 10-14 3.162-2.01 5.532-2.223 9.25-2.125"/><path fill="#62702E" d="M150 13v2l6 1 1 3c-3.898.075-7.24-.06-11-1a195 195 0 0 0-7 0c.375-2.437.375-2.437 1-5 3.283-1.642 6.425-.519 10 0"/><path fill="#A4A8A6" d="M16 190v1l-2.152.184-2.786.254c-.916.08-1.833.162-2.777.246-2.247.076-2.247.076-3.285 1.316-.247 4.143-.247 4.143 1 8 2.322.407 4.657.744 7 1l.938 2.875c.936 2.986.936 2.986 2.062 5.125-4.914-1.49-8.403-4.442-12-8-1.601-3.203-1.482-6.525-1-10 3.144-4.511 8.237-2.845 13-2"/><path fill="#C35D0A" d="M162 189h1c-.433 5.843-1.77 10.297-4.258 15.605-.882 2.845-.537 4.561.258 7.395l-3 1-1 2h5c-2 2-2 2-5.625 2.125L151 217c1.335-3.423 2.803-6.743 4.375-10.062 2.68-5.837 4.712-11.813 6.625-17.938"/><path fill="#E56519" d="m101 68 3 1-3 1-.836 1.672c-1.68 3.36-4.235 5.869-6.789 8.578l-1.562 1.68Q89.91 83.97 88 86l-1-4 4-2v-2l-3 1c1.346-4.037 3.367-4.911 6.875-7.25l3.242-2.203z"/><path fill="#D0D5B7" d="M128 22c1.472 2.944.85 5.374.563 8.625l-.31 3.602L128 37c-5-2-5-2-7.46-3.105-2.85-1.005-5.15-1.195-8.165-1.208l-2.852-.05c-2.958.426-3.568 1.222-5.523 3.363h-3v-2c4.355-3.63 9.488-4.301 15-4 3.503 1.02 6.734 2.381 10 4 .09-1.174.09-1.174.184-2.371l.254-3.067c.08-1.009.162-2.018.246-3.058C127 23 127 23 128 22"/><path fill="#EA916B" d="M211 74c3.193 1.462 5.806 3.268 8.563 5.438l2.316 1.808A59 59 0 0 1 227 86l-1 2-1-1a70 70 0 0 0-4.062-.562L217 86l-2-6 1-1-6-1z"/><path fill="#F17324" d="M63 84v3l-1.812.438c-1.75.45-3.475.99-5.188 1.562v2h-2l-.875 1.938C52 95 52 95 50 96l-2-4a835 835 0 0 1 4.313-3.937l2.425-2.215C57.863 83.295 59.114 82.705 63 84"/><path fill="#A0A87C" d="M100 36c0 3 0 3-1 5l2 1c.727 1.979 1.398 3.98 2 6h-2c-1.002 3.583-1.002 3.583 0 7-3-1-3-1-4.187-2.562-1.376-4.127-1.84-8.322.085-12.29C98 38.5 98 38.5 100 36"/><path fill="#786654" d="m224 190 1 3c-2.768.923-4.29 1.084-7.125 1H214l-1 1c-2.579.322-5.16.513-7.75.719-2.217.043-2.217.043-3.25 1.281-1.853.072-3.708.084-5.562.063l-3.067-.028L191 197v-1l3.332-.55c7.584-1.282 15.01-2.614 22.371-4.9 2.504-.6 4.732-.646 7.297-.55m-4 4 2 1-2 1z"/><path fill="#616765" d="M256 188c0 3.358-.608 4.32-2.312 7.125-2.295 3.943-3.739 7.727-4.915 12.125L248 209l-3 1c.494-4.819 2.054-8.563 4.098-12.883 1.04-2.193 1.04-2.193 1.34-5.054L251 190c2.563-1.312 2.563-1.312 5-2"/><path fill="#E69169" d="M233 95c3.243 2.722 4.898 6.28 6.75 10l.996 1.906c.833 1.66 1.552 3.375 2.254 5.094l-1 3-1.75-2.75c-2.042-3.238-2.042-3.238-4.562-5.25-1.688-2-1.688-2-1.438-5.25L235 99l-3-1z"/><path fill="#FDC355" d="M93 119c-1.004 2.625-2.034 5.06-3.437 7.5-2.36 5.286-3.381 10.85-4.563 16.5h-1c-.519-8.516-.306-16.027 5.512-22.746C91 119 91 119 93 119"/><path fill="#94A282" d="M200 23q3.012.43 6 1c0 3.815-.295 5.68-2 9l-3 1-2 2 .563-3.75c.394-3.056.386-5.284-.563-8.25z"/><path fill="#5A6462" d="M31 198c3.62 1.502 6.732 2.821 10 5l-1 4c-3.406.778-6.508 1.1-10 1l1.063-1.625c1.226-3.108.666-5.17-.063-8.375"/><path fill="#F1A627" d="M138 166q4.406-.04 8.813-.062l2.525-.026 2.432-.01 2.237-.016C156 166 156 166 159 167l-1 3c-13.633.554-13.633.554-20-3z"/><path fill="#435129" d="m183 52 4 2v3h-2v2l-7 2-2-3z"/><path fill="#D37926" d="M96 130h3l-.402 1.852C96.547 142.479 96.354 153.207 96 164h-1c-.227-4.54-.428-9.083-.625-13.625l-.195-3.895-.157-3.77-.158-3.459c.142-3.43.898-6.063 2.135-9.251"/><path fill="#5F6561" d="m239 183 1 7-4 2-1-4-4-1v2l-7 1 1-2h5v-2c6.75-3 6.75-3 9-3"/><path fill="#672D0C" d="m148 175 3 1c.089 3.199-.09 5.927-1 9h-6l-1-5h2c1.645-2.463 1.645-2.463 3-5"/><path fill="#DC5F16" d="M73 112h2l-.621 2.727C71.92 126.462 71.299 138.03 71 150h-1c-.228-3.687-.429-7.374-.625-11.062l-.195-3.147c-.295-5.8-.152-10.324 1.82-15.791q.577-2.216 1.125-4.437z"/><path fill="#C7CBBB" d="M164 16c3.99 1.739 5.82 3.674 8.012 7.387 2.239 5.92 2.156 12.99.218 19-1.739 3.305-3.643 5.46-7.23 6.613 2.75-5.875 2.75-5.875 5-7 1.832-5.497 2.252-12.058-.047-17.46A62 62 0 0 0 166 19z"/><path fill="#647448" d="M188 45c2 1.188 2 1.188 4 3 .25 2.688.25 2.688 0 5h-2v2l-4-1-1-4h-5l-1-2 3.375.188L186 48z"/><path fill="#919895" d="M16 191c5.203.575 9.24 2.294 13.875 4.563l2.086.998c1.683.806 3.361 1.622 5.039 2.439-3.217 1.072-4.24.937-7.437.188l-2.31-.52C25 198 23.066 197.115 21 196l-1 2-.875-2.375c-.974-2.722-.974-2.722-3.125-4.625"/><path fill="#FEB73B" d="M111 107a51 51 0 0 1-6.875 3.875C99.44 113.192 95.934 115.599 93 120l-4-1c6.584-6.935 12.03-12.277 22-12"/><path fill="#574B10" d="m136 87 2 1c.293 6.055.293 6.055 0 8-3 2-3 2-6 2v-8h2v-2z"/><path fill="#ECAD84" d="m64 74 2 1q-2.801 3.134-5.625 6.25l-1.582 1.777C55.467 86.681 52.227 89.436 48 92c3.269-7.355 9.73-13.14 16-18"/><path fill="#D85716" d="M174 63q2.125-.04 4.25-.062l2.39-.036c2.267.094 4.189.466 6.36 1.098v2l-2 2 3 2 1-2 1 3c2.504 1.219 2.504 1.219 5 2v2a247 247 0 0 1-6-2l-1.922-.66c-4.829-1.826-4.829-1.826-6.078-4.403C181 66 181 66 182 64h-8z"/><path fill="#8B986E" d="M182 30c7.9-.456 7.9-.456 11.563 1.063 2.158 2.91 1.702 5.428 1.437 8.937-2-3-2-3-2-5l-1.75.625c-2.77.462-3.896-.196-6.25-1.625v-2z"/><path fill="#696E6B" d="m236 230 1 2q-1.68 2.474-3.375 4.938l-1.898 2.777C230 242 230 242 228 243v-4h-6l1.938-.375L226 238l1-2 4 1 .813-2.375C233 232 233 232 236 230"/><path fill="#52480A" d="m124 98 2.375 2c2.34 2.202 2.34 2.202 4.625 2l1 5-10-1z"/><path fill="#242A28" d="M61 254q4.471.673 8.938 1.375l2.576.383 2.45.39c.75.116 1.499.23 2.27.35L79 257l1 2H65c-2.187-2.5-2.187-2.5-4-5"/><path fill="#5A2D0D" d="M100 129c1.125 3.75 1.125 3.75 0 6a66 66 0 0 0 0 4.063V143l-1 1a226 226 0 0 0-.562 8.063l-.131 2.298q-.159 2.82-.307 5.639h-1c-.088-3.854-.14-7.708-.187-11.562l-.077-3.292C96.68 138.952 97.01 134.47 100 129"/><path fill="#A3AB7D" d="m107 38 1.5.5c3.534.707 6.897.56 10.5.5l1 4-5.957-.879c-2.246-.26-2.246-.26-5.043.879v7h-1l-1-7-3-1z"/><path fill="#C46D08" d="M130 204h1v5h14v-2l4-2c-1.37 3.161-1.99 3.993-5 6a96 96 0 0 1-7.687.125l-2.127-.027c-1.73-.024-3.458-.06-5.186-.098z"/><path fill="#808A6D" d="m153 43 3 1c0 3 0 3-1 6l10-1c-2 2-2 2-4.496 2.266l-2.941-.016-2.934.016C152 51 152 51 149 49v-3c1.813-1.75 1.813-1.75 4-3"/><path fill="#E78E1F" d="M119 95h1q.29 2.218.563 4.438l.316 2.496L121 104c-1.658 1.658-3.783 1.203-6.062 1.313-5.506.442-9.213 1.982-13.938 4.687-1.657.69-3.32 1.37-5 2 4.367-4.897 8.328-7.772 14.895-8.18 2.709-.007 5.4.048 8.105.18z"/><path fill="#979D82" d="m109 50 5 1c-2.875 4.875-2.875 4.875-4 6-2.67.141-5.324.042-8 0l-1-2 7 1v-2h-6v-1h6z"/><path fill="#575B5A" d="M224 241h3l1 4-7 6-1-6 4-2z"/><path fill="#F77727" d="M34 133h3c.625 2.813.625 2.813 1 6l-2 3a75 75 0 0 0-1 5l-2-1a701 701 0 0 1-.062-4.812l-.036-2.708C33 136 33 136 34 133"/><path fill="#CF771E" d="M151 125c1.86.215 1.86.215 4 1 3.56 5.637 4.484 11.471 4 18h-1l-.516-1.871A109.3 109.3 0 0 0 151 125"/><path fill="#F3C19C" d="M45 95c0 3.647-.85 6.55-2 10l-2 1a97 97 0 0 0-2.625 5.563l-1.352 3.066L36 117c-.77-2.266-1.133-3.574-.41-5.891l.992-1.93 1.076-2.12 1.154-2.184 1.12-2.207C42.69 97.31 42.69 97.31 45 95"/><path fill="#59290C" d="M115.32 117.305 117 118l-3 1c-.733 2.015-.733 2.015-1 4l-2.312-.062c-2.79-.067-2.79-.067-5.688 1.062a90 90 0 0 0-2 4l-2 1c1.355-4.401 3.112-6.273 6.875-8.875l2.617-1.867C113 117 113 117 115.32 117.305"/><path fill="#9EAA7E" d="m180 31 2 1-3 4h3l-1 3h-2l-.375 1.813C178 43 178 43 176 46c-.63-9.015-.63-9.015 2-13.125z"/><path fill="#2D3331" d="M160 259c3.125-.087 6.25-.14 9.375-.187l2.695-.077 2.578-.029 2.38-.048L179 259l2 3h-12v-1l-9-1z"/><path fill="#D66D0F" d="M157 111c4.324 1.938 6.41 3.53 8.203 7.996l1.047 3.442 1.078 3.433c.634 2.95.732 4.364-.328 7.129l-.918-2.527c-2.545-6.836-5.294-13.235-9.082-19.473"/><path fill="#E2621B" d="M52.125 123.875 55 124v9l-2-1 1-7c-2.496.781-2.496.781-5 2l-1 3h2l1 4-5-2c1.033-7.921 1.033-7.921 6.125-8.125"/><path fill="#E78253" d="M227 88h2c4 4.47 4 4.47 4 7l-6 1c-1.125-1.75-1.125-1.75-2-4 .875-2.25.875-2.25 2-4"/><path fill="#6E7E2E" d="M132 85v2h-2v2a125 125 0 0 1-6 4l-2-1c2.117-5.117 4.405-7 10-7"/><path fill="#3F4A28" d="m159 37 1 2c-3.433 3.679-6.264 5.421-11 7v-7l3.313.688c3.592.713 3.592.713 5.625-1.126z"/><path fill="#DE8A1C" d="m151 171 1 3 3-1c1 1 1 1 1.063 3.563L156 179h-2v-3l-3-1v-2l-8 2-1-2c3.435-2.29 4.985-2.178 9-2"/><path fill="#576E38" d="M204 31h1c.2 3.716.152 4.772-2 8a118 118 0 0 1-7 3c1.5-3.114 3.082-6.122 5-9h2z"/><path fill="#DE5B15" d="M77 89c.578 1.879.578 1.879 1 4-1.25 1.938-1.25 1.938-3 4l-1.5 2.688C72 102 72 102 69 103c1.326-3.623 2.943-6.635 5.125-9.812l1.633-2.395z"/><path fill="#564F10" d="M117 61c3.063.313 3.063.313 6 1l3-1c2.333-.04 4.667-.044 7 0-3.207 2.138-5.116 2.534-8.875 3.125l-3.117.508c-2.71.33-5.282.437-8.008.367 1.625-2.062 1.625-2.062 4-4"/><path fill="#516629" d="M186 34c3.125.375 3.125.375 6 1 .826 2.892 1 4.887 1 8-1.5 1.75-1.5 1.75-3 3-.976-2.928-1.082-4.956-1-8l-5-2z"/><path fill="#7F6554" d="M73 212c6.675-.455 12.594 1.233 19 3-3.3 1.027-6.066 1.033-9.5.75l-2.844-.203c-2.933-.604-4.426-1.59-6.656-3.547"/><path fill="#333C3A" d="m249 183 2 1-4 2zm-4 3 2 1a245 245 0 0 1-3.25 3.5l-1.828 1.969C240 194 240 194 236 194c1.16-3.482 1.91-3.888 4.938-5.75l2.152-1.36z"/><path fill="#737675" d="M49 238c3.394 3.126 5.606 5.565 7 10l-2 1c-2.6-2.51-4.99-4.986-7-8v-2z"/><path fill="#D5DEC5" d="M184 36c4.706.706 4.706.706 6 2 .04 1.666.043 3.334 0 5-2.312.625-2.312.625-5 1l-3-2c.875-4.875.875-4.875 2-6m1 1-2 4 4 2 2-4z"/><path fill="#EAB044" d="M108 214h3v2l6 2v1h-11l-1-2 3-1z"/><path fill="#929895" d="m256 167 3 1-2 1 2 2c-3.75 2-3.75 2-6 2q-2.505.476-5 1c2.578-2.648 4.916-4.944 8-7"/><path fill="#EE6E22" d="M84 162c1.001 3.31 1.104 6.3 1.063 9.75l-.028 2.984L85 177l-3-1c-.369-9.41-.369-9.41 2-14"/><path fill="#C95522" d="M243 161h1c-.524 5.868-1.761 10.549-4 16-1.57-4.71-.317-9.295 1-14l2 1z"/><path fill="#313734" d="M240 222v2h-2l-.375 2.938L237 230l-2 1 1-4-3-1v-3c3-1 3-1 7-1"/><path fill="#F7A039" d="m100 203 .34 1.742c.728 2.492 1.785 4.229 3.222 6.383C106 214.785 106 214.785 106 217c-3.642-1.214-3.917-2.09-5.687-5.375l-1.325-2.398C98 207 98 207 98 204z"/><path fill="#404643" d="M5 192c1 2 1.494 3.831 2 6h3l1 5a101 101 0 0 1-6-2c-1.366-2.732-1.128-4.982-1-8z"/><path fill="#EFBC9C" d="M243 115c3.484 5.225 4.31 10.813 4 17-1.764-2.645-2.385-3.972-3.062-6.937l-.473-2.028L243 121l-.621-2.129C242 117 242 117 243 115"/><path fill="#BD6D1B" d="m116.125 114.938 2.758.027L121 115c-4.546 2.308-9.16 4.387-14 6v-2h2v-3c2.525-1.262 4.312-1.099 7.125-1.062"/><path fill="#242A29" d="m228 239-1 4v-2l-3 1c-2.333.04-4.667.044-7 0l-1-2c4.053-.982 7.839-1.082 12-1"/><path fill="#7B7E7D" d="M41 226h2l.313 2.125c.602 3.016.602 3.016 2.312 6.063L47 237l-1 2c-6.04-7.055-6.04-7.055-5.875-11z"/><path fill="#BE7359" d="M58 202v5l-7-1 1-4c3.75-1.125 3.75-1.125 6 0"/><path fill="#6A635A" d="M191 197v2l-2 1 2 5-3 1v-2l-3-1-1-3c4.75-3 4.75-3 7-3"/><path fill="#808583" d="M256 188c0 3.444-.796 4.748-2.5 7.688l-1.406 2.449L251 200c-2.086-3.672-2.086-3.672-1.312-6.625 1.588-2.874 3.415-3.926 6.312-5.375"/><path fill="#C55A26" d="M238 177c1 3 1 3 .375 5.125C237 184 237 184 234.375 184.75L232 185c-1.125-4.75-1.125-4.75 0-7h2v5c2.784-1.392 2.979-3.156 4-6"/><path fill="#ECA676" d="M34 118h1v11h-2l-1 2c-.167-4.921-.248-8.503 2-13"/><path fill="#4C5D2F" d="M159 58h15v3h-9v-1l-6-1z"/><path fill="#36441D" d="m181 55-4 4 1 2c-2.169-.506-4-1-6-2a100 100 0 0 0-5 0c2.633-1.426 5.345-2.585 8.125-3.687l2.07-.825C179 54 179 54 181 55"/><path fill="#C8CABE" d="M142 42c2 2 2 2 3.25 4.313 2.183 3.352 4.6 5.237 7.75 7.687l-2 1-1.426-1.277-1.887-1.66-1.863-1.653C143.948 48.8 143.948 48.8 141 48z"/><path fill="#677428" d="M128 27h1c.25 1.768.474 3.54.688 5.313l.386 2.988C130 38 130 38 128.644 39.855 127 41 127 41 125 41v-2l-3-2c3.75-1.125 3.75-1.125 6 0z"/><path fill="#5A6835" d="M165 32h1c-.352 5.461-.352 5.461-1 8-2.062 1.5-2.062 1.5-4 2l-1-2h2v-5h2z"/><path fill="#445123" d="M146 12c9.41-.369 9.41-.369 14 2-2.76 1.804-3.89 2.013-7.25 1.625L150 15v-2z"/><path fill="#CD640F" d="M166 174h1v13l-2-2-2 1z"/><path fill="#D69139" d="M128 91c2.625.375 2.625.375 5 1l-1 4v-3l-5 1v7l-2-2c.455-5.455.455-5.455 3-8"/><path fill="#96A288" d="M204 40h3c-1.312 3.937-2.92 6.227-6 9l-2-1 1-5h4z"/><path fill="#5D6361" d="m274 171-1 6-7-5c1-2 1-2 2.875-2.75C271 169 271 169 274 171"/><path fill="#818F6F" d="m190 51 2 2c-.062 1.938-.062 1.938-1 4-2.375 1.813-2.375 1.813-5 3l-3-1h2v-2l5-2-1-3z"/><path fill="#728039" d="M154 17c-2.886 1.576-5.533 2.463-8.75 3.125l-2.422.508L141 21v-3c4.41-1.102 8.484-1.077 13-1"/><path fill="#8A5C48" d="M56 207c5.455.568 9.91 1.946 15 4-3.934 1.155-6.973.836-11 0l-1-2z"/><path fill="#E18D14" d="m151 185 3 1c-2.068 2.797-3.144 3.027-6.687 3.688L144 190v-3h7z"/><path fill="#5D6B21" d="M101 41q3.51.43 7 1l-1 6-1.875-1c-2.035-1.142-2.035-1.142-4.125-1-.562-1.937-.562-1.937-1-4z"/><path fill="#2F3532" d="M124 247c1.437-.081 2.874-.14 4.313-.187l2.425-.106c2.74.355 3.554 1.187 5.262 3.293q-2.437.039-4.875.063l-2.742.035C126 250 126 250 124 249z"/><path fill="#3D2F22" d="M166 216c-1.375 2.063-1.375 2.063-4 4-3.4.059-6.656-.413-10-1v-1c9.41-2.296 9.41-2.296 14-2"/><path fill="#D5896A" d="M38 177c2.645 3.125 3.844 6.088 5 10l-2 2c-2.417-4.23-3.348-7.123-3-12"/><path fill="#D9591C" d="m234 175-1 5h-2l1 5h-3q.173-2.22.375-4.437c.07-.824.14-1.648.21-2.497L230 176c2-1 2-1 4-1"/><path fill="#E2611D" d="m189 66 6 2-1 4-5-1z"/><path fill="#E28C3B" d="m107 64 14 1c-2.153 2.153-3.04 2.641-6 3l-3-2c-2.625-.167-2.625-.167-5 0z"/><path fill="#71665E" d="m224 190 1 3c-3.478 1.16-5.459.708-9 0 2.466-3.115 4.108-3.316 8-3m-4 4 2 1-2 1z"/><path fill="#FDB137" d="M162 120c3 4 3 4 2.813 7.625C164 131 164 131 162 133z"/><path fill="#647141" d="m181 38 2 4-4 1v5l-2-1c.523-2.763 1.109-5.326 2-8z"/><path fill="#C1631D" d="m153 212 2 1v2h5c-2 2-2 2-5.625 2.125L151 217z"/><path fill="#747875" d="M21 211c5.662 1.477 5.662 1.477 7.375 4.125L29 217c-5.662-1.477-5.662-1.477-7.375-4.125z"/><path fill="#CF4A12" d="m189 191 5 1-1 3h-5v2l-3-1h2v-2h2z"/><path fill="#DF6015" d="m79 97 2 1-5 12c-.925-3.702-1.082-4.635 0-8h2z"/><path fill="#E4732B" d="m47 94 2 4c-1.375 2-1.375 2-3 4h-2c.547-3.375 1.055-5.082 3-8"/><path fill="#727D2F" d="M122 94h2l-1 10c-2-2-2-2-2.187-5C121 96 121 96 122 94"/><path fill="#586C37" d="m189 47 3 1v5h-5c.875-4.875.875-4.875 2-6"/><path fill="#C87252" d="M44 187h2l.375 2.625c.606 3.27 1.508 6.248 2.625 9.375h-2a327 327 0 0 1-2.062-4.312l-1.16-2.426C43 190 43 190 44 187"/><path fill="#4B582C" d="M134 88h2l1 7-3-1v-2h-2v-2h2z"/><path fill="#5B622B" d="m140 56 7 1-2 4-4-1z"/><path fill="#3A4722" d="M179 43h5c-1 3-1 3-2 4l2 2-5-1-1-3z"/><path fill="#9AA29F" d="M25 196c7.5.625 7.5.625 12 4l-12-2z"/><path fill="#E9AF8D" d="M32 160c1.5 1 1.5 1 3 3 .273 2.718.135 5.257 0 8-2.566-3.85-2.551-6.435-3-11"/><path fill="#585B20" d="m123 100 1 2a78 78 0 0 0 5 2c-3 2-3 2-7 2z"/><path fill="#757822" d="m138 58 1 2 3 2h-9v-3c3-1 3-1 5-1"/><path fill="#818582" d="M73 265c5.538.615 5.538.615 7.875 2.563L82 269l-2 1c-2.475-1.114-4.679-2.582-7-4z"/><path fill="#7F6559" d="M92 216h10v2l4 1c-2 .043-4 .04-6 0l-1-1a236 236 0 0 0-7-1z"/><path fill="#BE5006" d="M95 202c2.97 2.546 4.478 5.422 6 9l-1 2a217 217 0 0 1-2.5-3.25l-1.406-1.828C95 206 95 206 95 202"/><path fill="#81614B" d="M235 184v3h-4v2l-7 1 1-2h5v-2c3-2 3-2 5-2"/><path fill="#F98824" d="m131 93-1 6h-3v-5c2-1 2-1 4-1"/><path fill="#A24F21" d="m168 214-1 2c-2.066.414-2.066.414-4.562.625l-2.504.227L158 217c3.255-3.255 5.518-4.6 10-3"/><path fill="#756D60" d="m173 209 1 2c-1.312 2-1.312 2-3 4h-3v2l-2-1z"/><path fill="#F0A832" d="M128 211h12l-4 3-3-1q-2.495-.524-5-1z"/><path fill="#F7A237" d="m157 198 2 1-3 9c-1.312-3.937-.243-6.125 1-10"/><path fill="#DC5816" d="m68 103 3 1c-1.25 3.653-1.671 4.78-5 7 .523-2.763 1.109-5.326 2-8"/><path fill="#516431" d="m184 53 4 2c-1.25 1.563-1.25 1.563-3 3-2.187-.312-2.187-.312-4-1h2z"/><path fill="#6A782B" d="M123 41c2.125.938 2.125.938 4 2l-2 4h-2l-2-5z"/><path fill="#848C8A" d="m232 262 2 1c-.312 3.375-.312 3.375-1 7l-3 2 1-5h2z"/><path fill="#535C58" d="M48 205c2.763.523 5.326 1.109 8 2l-1 2-7-1z"/><path fill="#B4451F" d="M47 194c1.875.25 1.875.25 4 1 1.25 2.063 1.25 2.063 2 4l-4 1z"/><path fill="#642300" d="m143 180 2 2c2.57.648 2.57.648 5 1v2h-6z"/><path fill="#E58E1E" d="M157 133c2.68 4.019 2.156 6.242 2 11h-1q-.54-2.466-1.062-4.937l-.598-2.778L156 134z"/><path fill="#B76D1C" d="M140 116c2.763.523 5.326 1.109 8 2l-1 3-7-4z"/><path fill="#E9B18F" d="M233 95c2.724 2.353 3.814 4.625 5 8l-3-1v-3l-3-1z"/><path fill="#E2732B" d="m51 89 2 3-2 4-3-4z"/><path fill="#F1BE95" d="m54 84 1 3-7 5c1.443-3.366 3.333-5.51 6-8"/></svg>